<svg width="270" height="360" viewBox="0 0 270 360" fill="none" xmlns="http://www.w3.org/2000/svg">
<g opacity="0.2">
<path d="M95.6787 131.607L29.2684 93.265" stroke="white" stroke-miterlimit="10"/>
<path d="M330.247 93.2585L180.247 180.428L106.488 137.843" stroke="white" stroke-miterlimit="10"/>
<path d="M86.4088 60.0586L201.443 126.474L180.015 138.927L64.9805 72.5115" stroke="white" stroke-miterlimit="10"/>
<path d="M143.555 26.8425L258.588 93.2577L237.16 105.711L122.126 39.2954" stroke="white" stroke-miterlimit="10"/>
<path d="M330.732 159.351L215.82 225.764V200.979L330.732 134.567" stroke="white" stroke-miterlimit="10"/>
<path d="M330.732 225.452L215.82 291.864V267.08L330.732 200.667" stroke="white" stroke-miterlimit="10"/>
<path d="M122.616 320.701V188.519L144.184 200.971V333.154" stroke="white" stroke-miterlimit="10"/>
<path d="M65.1014 287.506V155.322L86.6702 167.775V299.958" stroke="white" stroke-miterlimit="10"/>
<path d="M295.943 286.906L330.733 266.754V225.449L309.35 213.023L330.733 200.665V159.355L309.35 146.929L330.733 134.571V93.2662L179.267 6.09375L143.555 26.8474V51.6724L122.126 39.3003L86.409 60.0568V84.6358L64.9808 72.5097L29.2684 93.2641V266.752L65.1016 287.508L86.6704 275.38V299.961L122.617 320.714L144.185 308.18V333.167L180.248 353.921L285.402 293.011" stroke="white" stroke-miterlimit="10"/>
<path d="M180.247 180.423V353.911" stroke="white" stroke-miterlimit="10"/>
</g>
</svg>
