<svg width="24" height="24" viewBox="0 0 24 24" fill="none" xmlns="http://www.w3.org/2000/svg">
<path d="M21.5 12C21.5 12.4888 21.2749 13.1424 20.7957 13.8747C20.3228 14.5976 19.6288 15.3559 18.7601 16.046C17.0203 17.428 14.6269 18.5 12 18.5C9.37314 18.5 6.9797 17.428 5.23993 16.046C4.37116 15.3559 3.6772 14.5976 3.20426 13.8747C2.72512 13.1424 2.5 12.4888 2.5 12C2.5 11.5112 2.72512 10.8576 3.20426 10.1253C3.6772 9.40243 4.37116 8.64412 5.23993 7.95401C6.9797 6.57202 9.37314 5.5 12 5.5C14.6269 5.5 17.0203 6.57202 18.7601 7.95401C19.6288 8.64412 20.3228 9.40243 20.7957 10.1253C21.2749 10.8576 21.5 11.5112 21.5 12Z" stroke="#2B2B2F"/>
<path d="M16 12C16 9.79086 14.2091 8 12 8C11.721 8 11.4486 8.02857 11.1857 8.08295M8.7214 9.70794C8.26677 10.357 8 11.1474 8 12C8 14.2091 9.79086 16 12 16C13.1094 16 14.1133 15.5484 14.8379 14.819" stroke="#2B2B2F" stroke-linecap="round" stroke-linejoin="round"/>
<path d="M2 4L22 20.5" stroke="#2B2B2F" stroke-linecap="round"/>
</svg>
