<svg width="60" height="60" viewBox="0 0 60 60" fill="none" xmlns="http://www.w3.org/2000/svg">
<path d="M50 15L9.54915 44.3893" stroke="#F2FFA5" stroke-width="19" stroke-linecap="round"/>
<path d="M44 14L33 18M33 18L19 12.5M33 18L31 19.6875M17 31.5L31 19.6875M46.5 31.5L31 19.6875M31 19.6875L12 21.5" stroke="#1335A3" stroke-linecap="round"/>
<path d="M51.5 21.5L32 19" stroke="#1335A3" stroke-linecap="round"/>
<path d="M44.5 13.5L32 31.5L17.5 13.5" stroke="#1335A3" stroke-linecap="round"/>
<path d="M12.5 22L31.5 31L51.5 22" stroke="#1335A3" stroke-linecap="round"/>
<path d="M44 48.5L33 44.5M33 44.5L19 50M33 44.5L31 42.8125M31 42.8125L17 31H46.5L31 42.8125ZM31 42.8125L12 41" stroke="#1335A3" stroke-linecap="round"/>
<path d="M51.5 41L32 43.5" stroke="#1335A3" stroke-linecap="round"/>
<path d="M44.5 48.9999L32 30.9999L17.5 48.9999" stroke="#1335A3" stroke-linecap="round"/>
<path d="M12.5 40.5L31.5 31.5L51.5 40.5" stroke="#1335A3" stroke-linecap="round"/>
<rect x="13" y="9" width="7" height="7" rx="3.5" fill="white"/>
<path fill-rule="evenodd" clip-rule="evenodd" d="M16.5 9C14.567 9 13 10.567 13 12.5C13 14.433 14.567 16 16.5 16C16.9641 16 17.4072 15.9097 17.8125 15.7456C16.5298 15.2264 15.625 13.9689 15.625 12.5C15.625 11.0311 16.5298 9.77363 17.8125 9.25441C17.4072 9.09035 16.9641 9 16.5 9Z" fill="#D4E1F4"/>
<rect x="13.5" y="9.5" width="6" height="6" rx="3" stroke="#1335A3"/>
<rect x="12" y="28" width="7" height="7" rx="3.5" fill="white"/>
<path fill-rule="evenodd" clip-rule="evenodd" d="M15.5 28C13.567 28 12 29.567 12 31.5C12 33.433 13.567 35 15.5 35C15.9641 35 16.4072 34.9097 16.8125 34.7456C15.5298 34.2264 14.625 32.9689 14.625 31.5C14.625 30.0311 15.5298 28.7736 16.8125 28.2544C16.4072 28.0903 15.9641 28 15.5 28Z" fill="#D4E1F4"/>
<rect x="12.5" y="28.5" width="6" height="6" rx="3" stroke="#1335A3"/>
<rect x="7" y="37" width="7" height="7" rx="3.5" fill="white"/>
<path fill-rule="evenodd" clip-rule="evenodd" d="M10.5 37C8.567 37 7 38.567 7 40.5C7 42.433 8.567 44 10.5 44C10.9641 44 11.4072 43.9097 11.8125 43.7456C10.5298 43.2264 9.625 41.9689 9.625 40.5C9.625 39.0311 10.5298 37.7736 11.8125 37.2544C11.4072 37.0903 10.9641 37 10.5 37Z" fill="#D4E1F4"/>
<rect x="7.5" y="37.5" width="6" height="6" rx="3" stroke="#24D5B3"/>
<rect x="14" y="45" width="7" height="7" rx="3.5" fill="white"/>
<path fill-rule="evenodd" clip-rule="evenodd" d="M17.5 45C15.567 45 14 46.567 14 48.5C14 50.433 15.567 52 17.5 52C17.9641 52 18.4072 51.9097 18.8125 51.7456C17.5298 51.2264 16.625 49.9689 16.625 48.5C16.625 47.0311 17.5298 45.7736 18.8125 45.2544C18.4072 45.0903 17.9641 45 17.5 45Z" fill="#D4E1F4"/>
<rect x="14.5" y="45.5" width="6" height="6" rx="3" stroke="#1335A3"/>
<rect x="7" y="18" width="7" height="7" rx="3.5" fill="white"/>
<path fill-rule="evenodd" clip-rule="evenodd" d="M10.5 18C8.567 18 7 19.567 7 21.5C7 23.433 8.567 25 10.5 25C10.9641 25 11.4072 24.9097 11.8125 24.7456C10.5298 24.2264 9.625 22.9689 9.625 21.5C9.625 20.0311 10.5298 18.7736 11.8125 18.2544C11.4072 18.0903 10.9641 18 10.5 18Z" fill="#D4E1F4"/>
<rect x="7.5" y="18.5" width="6" height="6" rx="3" stroke="#1335A3"/>
<rect x="41" y="9" width="7" height="7" rx="3.5" fill="white"/>
<path fill-rule="evenodd" clip-rule="evenodd" d="M44.5 9C42.567 9 41 10.567 41 12.5C41 14.433 42.567 16 44.5 16C44.9641 16 45.4072 15.9097 45.8125 15.7456C44.5298 15.2264 43.625 13.9689 43.625 12.5C43.625 11.0311 44.5298 9.77363 45.8125 9.25441C45.4072 9.09035 44.9641 9 44.5 9Z" fill="#D4E1F4"/>
<rect x="41.5" y="9.5" width="6" height="6" rx="3" stroke="#1335A3"/>
<rect x="27" y="15" width="7" height="7" rx="3.5" fill="white"/>
<path fill-rule="evenodd" clip-rule="evenodd" d="M30.5 15C28.567 15 27 16.567 27 18.5C27 20.433 28.567 22 30.5 22C30.9641 22 31.4072 21.9097 31.8125 21.7456C30.5298 21.2264 29.625 19.9689 29.625 18.5C29.625 17.0311 30.5298 15.7736 31.8125 15.2544C31.4072 15.0903 30.9641 15 30.5 15Z" fill="#D4E1F4"/>
<rect x="27.5" y="15.5" width="6" height="6" rx="3" stroke="#24D5B3"/>
<rect x="27" y="28" width="7" height="7" rx="3.5" fill="white"/>
<path fill-rule="evenodd" clip-rule="evenodd" d="M30.5 28C28.567 28 27 29.567 27 31.5C27 33.433 28.567 35 30.5 35C30.9641 35 31.4072 34.9097 31.8125 34.7456C30.5298 34.2264 29.625 32.9689 29.625 31.5C29.625 30.0311 30.5298 28.7736 31.8125 28.2544C31.4072 28.0903 30.9641 28 30.5 28Z" fill="#D4E1F4"/>
<rect x="27.5" y="28.5" width="6" height="6" rx="3" stroke="#1335A3"/>
<rect x="27" y="41" width="7" height="7" rx="3.5" fill="white"/>
<path fill-rule="evenodd" clip-rule="evenodd" d="M30.5 41C28.567 41 27 42.567 27 44.5C27 46.433 28.567 48 30.5 48C30.9641 48 31.4072 47.9097 31.8125 47.7456C30.5298 47.2264 29.625 45.9689 29.625 44.5C29.625 43.0311 30.5298 41.7736 31.8125 41.2544C31.4072 41.0903 30.9641 41 30.5 41Z" fill="#D4E1F4"/>
<rect x="27.5" y="41.5" width="6" height="6" rx="3" stroke="#24D5B3"/>
<rect x="42" y="28" width="7" height="7" rx="3.5" fill="white"/>
<path fill-rule="evenodd" clip-rule="evenodd" d="M45.5 28C43.567 28 42 29.567 42 31.5C42 33.433 43.567 35 45.5 35C45.9641 35 46.4072 34.9097 46.8125 34.7456C45.5298 34.2264 44.625 32.9689 44.625 31.5C44.625 30.0311 45.5298 28.7736 46.8125 28.2544C46.4072 28.0903 45.9641 28 45.5 28Z" fill="#D4E1F4"/>
<rect x="42.5" y="28.5" width="6" height="6" rx="3" stroke="#1335A3"/>
<rect x="47" y="37" width="7" height="7" rx="3.5" fill="white"/>
<path fill-rule="evenodd" clip-rule="evenodd" d="M50.5 37C48.567 37 47 38.567 47 40.5C47 42.433 48.567 44 50.5 44C50.9641 44 51.4072 43.9097 51.8125 43.7456C50.5298 43.2264 49.625 41.9689 49.625 40.5C49.625 39.0311 50.5298 37.7736 51.8125 37.2544C51.4072 37.0903 50.9641 37 50.5 37Z" fill="#D4E1F4"/>
<rect x="47.5" y="37.5" width="6" height="6" rx="3" stroke="#24D5B3"/>
<rect x="40" y="45" width="7" height="7" rx="3.5" fill="white"/>
<path fill-rule="evenodd" clip-rule="evenodd" d="M43.5 45C41.567 45 40 46.567 40 48.5C40 50.433 41.567 52 43.5 52C43.9641 52 44.4072 51.9097 44.8125 51.7456C43.5298 51.2264 42.625 49.9689 42.625 48.5C42.625 47.0311 43.5298 45.7736 44.8125 45.2544C44.4072 45.0903 43.9641 45 43.5 45Z" fill="#D4E1F4"/>
<rect x="40.5" y="45.5" width="6" height="6" rx="3" stroke="#1335A3"/>
<rect x="47" y="18" width="7" height="7" rx="3.5" fill="white"/>
<path fill-rule="evenodd" clip-rule="evenodd" d="M50.5 18C48.567 18 47 19.567 47 21.5C47 23.433 48.567 25 50.5 25C50.9641 25 51.4072 24.9097 51.8125 24.7456C50.5298 24.2264 49.625 22.9689 49.625 21.5C49.625 20.0311 50.5298 18.7736 51.8125 18.2544C51.4072 18.0903 50.9641 18 50.5 18Z" fill="#D4E1F4"/>
<rect x="47.5" y="18.5" width="6" height="6" rx="3" stroke="#24D5B3"/>
</svg>
