<svg xmlns="http://www.w3.org/2000/svg" width="24" height="24" viewBox="0 0 24 24">
    <g fill="none" fill-rule="evenodd">
        <g>
            <g>
                <path d="M0 0H24V24H0z" transform="translate(-120 -1915) translate(120 1915)"/>
                <path fill="silver" fill-rule="nonzero" d="M12 4.5c-4.147 0-7.5 3.353-7.5 7.5 0 4.148 3.353 7.5 7.5 7.5 4.148 0 7.5-3.352 7.5-7.5 0-4.147-3.352-7.5-7.5-7.5z" transform="translate(-120 -1915) translate(120 1915)"/>
                <path fill="#F0F0F0" fill-rule="nonzero" d="M15.277 15.277c-.297.297-.777.297-1.074 0L12 13.075l-2.203 2.202c-.297.297-.777.297-1.074 0-.143-.142-.223-.336-.223-.537 0-.202.08-.395.223-.537L10.925 12 8.723 9.797C8.58 9.655 8.5 9.462 8.5 9.26c0-.201.08-.395.223-.537.297-.297.777-.297 1.074 0L12 10.925l2.203-2.202c.297-.297.777-.297 1.074 0 .297.297.297.777 0 1.074L13.075 12l2.202 2.203c.29.29.29.777 0 1.074z" transform="translate(-120 -1915) translate(120 1915)"/>
            </g>
        </g>
    </g>
</svg>
