<svg width="60" height="60" viewBox="0 0 60 60" fill="none" xmlns="http://www.w3.org/2000/svg">
<path d="M50 15L9.54915 44.3893" stroke="#F2FFA5" stroke-width="19" stroke-linecap="round"/>
<mask id="path-2-inside-1_15_906" fill="white">
<path fill-rule="evenodd" clip-rule="evenodd" d="M10.063 20.5H6.5C6.22386 20.5 6 20.2761 6 20C6 19.7239 6.22386 19.5 6.5 19.5H10.063C10.285 18.6374 11.0681 18 12 18H16V22H12C11.0681 22 10.285 21.3626 10.063 20.5ZM10.063 25.5H6.5C6.22386 25.5 6 25.2761 6 25C6 24.7239 6.22386 24.5 6.5 24.5H10.063C10.285 23.6374 11.0681 23 12 23H16V27H12C11.0681 27 10.285 26.3626 10.063 25.5ZM6.5 30.5H10.063C10.285 31.3626 11.0681 32 12 32H16V28H12C11.0681 28 10.285 28.6374 10.063 29.5H6.5C6.22386 29.5 6 29.7239 6 30C6 30.2761 6.22386 30.5 6.5 30.5ZM10.063 35.5H6.5C6.22386 35.5 6 35.2761 6 35C6 34.7239 6.22386 34.5 6.5 34.5H10.063C10.285 33.6374 11.0681 33 12 33H16V37H12C11.0681 37 10.285 36.3626 10.063 35.5ZM6.5 40.5H10.063C10.285 41.3626 11.0681 42 12 42H16V38H12C11.0681 38 10.285 38.6374 10.063 39.5H6.5C6.22386 39.5 6 39.7239 6 40C6 40.2761 6.22386 40.5 6.5 40.5Z"/>
</mask>
<path fill-rule="evenodd" clip-rule="evenodd" d="M10.063 20.5H6.5C6.22386 20.5 6 20.2761 6 20C6 19.7239 6.22386 19.5 6.5 19.5H10.063C10.285 18.6374 11.0681 18 12 18H16V22H12C11.0681 22 10.285 21.3626 10.063 20.5ZM10.063 25.5H6.5C6.22386 25.5 6 25.2761 6 25C6 24.7239 6.22386 24.5 6.5 24.5H10.063C10.285 23.6374 11.0681 23 12 23H16V27H12C11.0681 27 10.285 26.3626 10.063 25.5ZM6.5 30.5H10.063C10.285 31.3626 11.0681 32 12 32H16V28H12C11.0681 28 10.285 28.6374 10.063 29.5H6.5C6.22386 29.5 6 29.7239 6 30C6 30.2761 6.22386 30.5 6.5 30.5ZM10.063 35.5H6.5C6.22386 35.5 6 35.2761 6 35C6 34.7239 6.22386 34.5 6.5 34.5H10.063C10.285 33.6374 11.0681 33 12 33H16V37H12C11.0681 37 10.285 36.3626 10.063 35.5ZM6.5 40.5H10.063C10.285 41.3626 11.0681 42 12 42H16V38H12C11.0681 38 10.285 38.6374 10.063 39.5H6.5C6.22386 39.5 6 39.7239 6 40C6 40.2761 6.22386 40.5 6.5 40.5Z" fill="white"/>
<path d="M10.063 20.5L11.0314 20.2507L10.8382 19.5H10.063V20.5ZM10.063 19.5V20.5H10.8382L11.0314 19.7493L10.063 19.5ZM16 18H17V17H16V18ZM16 22V23H17V22H16ZM10.063 25.5L11.0314 25.2507L10.8382 24.5H10.063V25.5ZM10.063 24.5V25.5H10.8382L11.0314 24.7493L10.063 24.5ZM16 23H17V22H16V23ZM16 27V28H17V27H16ZM10.063 30.5L11.0314 30.2507L10.8382 29.5H10.063V30.5ZM16 32V33H17V32H16ZM16 28H17V27H16V28ZM10.063 29.5V30.5H10.8382L11.0314 29.7493L10.063 29.5ZM10.063 35.5L11.0314 35.2507L10.8382 34.5H10.063V35.5ZM10.063 34.5V35.5H10.8382L11.0314 34.7493L10.063 34.5ZM16 33H17V32H16V33ZM16 37V38H17V37H16ZM10.063 40.5L11.0314 40.2507L10.8382 39.5H10.063V40.5ZM16 42V43H17V42H16ZM16 38H17V37H16V38ZM10.063 39.5V40.5H10.8382L11.0314 39.7493L10.063 39.5ZM6.5 21.5H10.063V19.5H6.5V21.5ZM5 20C5 20.8284 5.67157 21.5 6.5 21.5V19.5C6.77614 19.5 7 19.7239 7 20H5ZM6.5 18.5C5.67157 18.5 5 19.1716 5 20H7C7 20.2761 6.77614 20.5 6.5 20.5V18.5ZM10.063 18.5H6.5V20.5H10.063V18.5ZM12 17C10.6007 17 9.42755 17.957 9.09457 19.2507L11.0314 19.7493C11.1425 19.3177 11.5354 19 12 19V17ZM16 17H12V19H16V17ZM17 22V18H15V22H17ZM12 23H16V21H12V23ZM9.09457 20.7493C9.42755 22.043 10.6007 23 12 23V21C11.5354 21 11.1425 20.6823 11.0314 20.2507L9.09457 20.7493ZM6.5 26.5H10.063V24.5H6.5V26.5ZM5 25C5 25.8284 5.67157 26.5 6.5 26.5V24.5C6.77614 24.5 7 24.7239 7 25H5ZM6.5 23.5C5.67157 23.5 5 24.1716 5 25H7C7 25.2761 6.77614 25.5 6.5 25.5V23.5ZM10.063 23.5H6.5V25.5H10.063V23.5ZM12 22C10.6007 22 9.42755 22.957 9.09457 24.2507L11.0314 24.7493C11.1425 24.3177 11.5354 24 12 24V22ZM16 22H12V24H16V22ZM17 27V23H15V27H17ZM12 28H16V26H12V28ZM9.09457 25.7493C9.42755 27.043 10.6007 28 12 28V26C11.5354 26 11.1425 25.6823 11.0314 25.2507L9.09457 25.7493ZM10.063 29.5H6.5V31.5H10.063V29.5ZM12 31C11.5354 31 11.1425 30.6823 11.0314 30.2507L9.09457 30.7493C9.42755 32.043 10.6007 33 12 33V31ZM16 31H12V33H16V31ZM15 28V32H17V28H15ZM12 29H16V27H12V29ZM11.0314 29.7493C11.1425 29.3177 11.5354 29 12 29V27C10.6007 27 9.42755 27.957 9.09457 29.2507L11.0314 29.7493ZM6.5 30.5H10.063V28.5H6.5V30.5ZM7 30C7 30.2761 6.77614 30.5 6.5 30.5V28.5C5.67157 28.5 5 29.1716 5 30H7ZM6.5 29.5C6.77614 29.5 7 29.7239 7 30H5C5 30.8284 5.67157 31.5 6.5 31.5V29.5ZM6.5 36.5H10.063V34.5H6.5V36.5ZM5 35C5 35.8284 5.67157 36.5 6.5 36.5V34.5C6.77614 34.5 7 34.7239 7 35H5ZM6.5 33.5C5.67157 33.5 5 34.1716 5 35H7C7 35.2761 6.77614 35.5 6.5 35.5V33.5ZM10.063 33.5H6.5V35.5H10.063V33.5ZM12 32C10.6007 32 9.42755 32.957 9.09457 34.2507L11.0314 34.7493C11.1425 34.3177 11.5354 34 12 34V32ZM16 32H12V34H16V32ZM17 37V33H15V37H17ZM12 38H16V36H12V38ZM9.09457 35.7493C9.42755 37.043 10.6007 38 12 38V36C11.5354 36 11.1425 35.6823 11.0314 35.2507L9.09457 35.7493ZM10.063 39.5H6.5V41.5H10.063V39.5ZM12 41C11.5354 41 11.1425 40.6823 11.0314 40.2507L9.09457 40.7493C9.42755 42.043 10.6007 43 12 43V41ZM16 41H12V43H16V41ZM15 38V42H17V38H15ZM12 39H16V37H12V39ZM11.0314 39.7493C11.1425 39.3177 11.5354 39 12 39V37C10.6007 37 9.42755 37.957 9.09457 39.2507L11.0314 39.7493ZM6.5 40.5H10.063V38.5H6.5V40.5ZM7 40C7 40.2761 6.77614 40.5 6.5 40.5V38.5C5.67157 38.5 5 39.1716 5 40H7ZM6.5 39.5C6.77614 39.5 7 39.7239 7 40H5C5 40.8284 5.67157 41.5 6.5 41.5V39.5Z" fill="#24D5B3" mask="url(#path-2-inside-1_15_906)"/>
<mask id="path-4-inside-2_15_906" fill="white">
<path fill-rule="evenodd" clip-rule="evenodd" d="M49.9369 20.5H53.5C53.7761 20.5 54 20.2761 54 20C54 19.7239 53.7761 19.5 53.5 19.5H49.9369C49.7149 18.6374 48.9318 18 47.9999 18H43.9999V22H47.9999C48.9318 22 49.7149 21.3626 49.9369 20.5ZM49.9369 25.5H53.5C53.7761 25.5 54 25.2761 54 25C54 24.7239 53.7761 24.5 53.5 24.5H49.9369C49.7149 23.6374 48.9318 23 47.9999 23H43.9999V27H47.9999C48.9318 27 49.7149 26.3626 49.9369 25.5ZM53.5 30.5H49.9369C49.7149 31.3626 48.9318 32 47.9999 32H43.9999V28H47.9999C48.9318 28 49.7149 28.6374 49.9369 29.5H53.5C53.7761 29.5 54 29.7239 54 30C54 30.2761 53.7761 30.5 53.5 30.5ZM49.9369 35.5H53.5C53.7761 35.5 54 35.2761 54 35C54 34.7239 53.7761 34.5 53.5 34.5H49.9369C49.7149 33.6374 48.9318 33 47.9999 33H43.9999V37H47.9999C48.9318 37 49.7149 36.3626 49.9369 35.5ZM53.5 40.5H49.9369C49.7149 41.3626 48.9318 42 47.9999 42H43.9999V38H47.9999C48.9318 38 49.7149 38.6374 49.9369 39.5H53.5C53.7761 39.5 54 39.7239 54 40C54 40.2761 53.7761 40.5 53.5 40.5Z"/>
</mask>
<path fill-rule="evenodd" clip-rule="evenodd" d="M49.9369 20.5H53.5C53.7761 20.5 54 20.2761 54 20C54 19.7239 53.7761 19.5 53.5 19.5H49.9369C49.7149 18.6374 48.9318 18 47.9999 18H43.9999V22H47.9999C48.9318 22 49.7149 21.3626 49.9369 20.5ZM49.9369 25.5H53.5C53.7761 25.5 54 25.2761 54 25C54 24.7239 53.7761 24.5 53.5 24.5H49.9369C49.7149 23.6374 48.9318 23 47.9999 23H43.9999V27H47.9999C48.9318 27 49.7149 26.3626 49.9369 25.5ZM53.5 30.5H49.9369C49.7149 31.3626 48.9318 32 47.9999 32H43.9999V28H47.9999C48.9318 28 49.7149 28.6374 49.9369 29.5H53.5C53.7761 29.5 54 29.7239 54 30C54 30.2761 53.7761 30.5 53.5 30.5ZM49.9369 35.5H53.5C53.7761 35.5 54 35.2761 54 35C54 34.7239 53.7761 34.5 53.5 34.5H49.9369C49.7149 33.6374 48.9318 33 47.9999 33H43.9999V37H47.9999C48.9318 37 49.7149 36.3626 49.9369 35.5ZM53.5 40.5H49.9369C49.7149 41.3626 48.9318 42 47.9999 42H43.9999V38H47.9999C48.9318 38 49.7149 38.6374 49.9369 39.5H53.5C53.7761 39.5 54 39.7239 54 40C54 40.2761 53.7761 40.5 53.5 40.5Z" fill="white"/>
<path d="M49.9369 20.5L48.9684 20.2507L49.1617 19.5H49.9369V20.5ZM49.9369 19.5V20.5H49.1617L48.9684 19.7493L49.9369 19.5ZM43.9999 18H42.9999V17H43.9999V18ZM43.9999 22V23H42.9999V22H43.9999ZM49.9369 25.5L48.9684 25.2507L49.1617 24.5H49.9369V25.5ZM49.9369 24.5V25.5H49.1617L48.9684 24.7493L49.9369 24.5ZM43.9999 23H42.9999V22H43.9999V23ZM43.9999 27V28H42.9999V27H43.9999ZM49.9369 30.5L48.9684 30.2507L49.1617 29.5H49.9369V30.5ZM43.9999 32V33H42.9999V32H43.9999ZM43.9999 28H42.9999V27H43.9999V28ZM49.9369 29.5V30.5H49.1617L48.9684 29.7493L49.9369 29.5ZM49.9369 35.5L48.9684 35.2507L49.1617 34.5H49.9369V35.5ZM49.9369 34.5V35.5H49.1617L48.9684 34.7493L49.9369 34.5ZM43.9999 33H42.9999V32H43.9999V33ZM43.9999 37V38H42.9999V37H43.9999ZM49.9369 40.5L48.9684 40.2507L49.1617 39.5H49.9369V40.5ZM43.9999 42V43H42.9999V42H43.9999ZM43.9999 38H42.9999V37H43.9999V38ZM49.9369 39.5V40.5H49.1617L48.9684 39.7493L49.9369 39.5ZM53.5 21.5H49.9369V19.5H53.5V21.5ZM55 20C55 20.8284 54.3284 21.5 53.5 21.5V19.5C53.2239 19.5 53 19.7239 53 20H55ZM53.5 18.5C54.3284 18.5 55 19.1716 55 20H53C53 20.2761 53.2239 20.5 53.5 20.5V18.5ZM49.9369 18.5H53.5V20.5H49.9369V18.5ZM47.9999 17C49.3991 17 50.5723 17.957 50.9053 19.2507L48.9684 19.7493C48.8574 19.3177 48.4645 19 47.9999 19V17ZM43.9999 17H47.9999V19H43.9999V17ZM42.9999 22V18H44.9999V22H42.9999ZM47.9999 23H43.9999V21H47.9999V23ZM50.9053 20.7493C50.5723 22.043 49.3991 23 47.9999 23V21C48.4645 21 48.8574 20.6823 48.9684 20.2507L50.9053 20.7493ZM53.5 26.5H49.9369V24.5H53.5V26.5ZM55 25C55 25.8284 54.3284 26.5 53.5 26.5V24.5C53.2239 24.5 53 24.7239 53 25H55ZM53.5 23.5C54.3284 23.5 55 24.1716 55 25H53C53 25.2761 53.2239 25.5 53.5 25.5V23.5ZM49.9369 23.5H53.5V25.5H49.9369V23.5ZM47.9999 22C49.3991 22 50.5723 22.957 50.9053 24.2507L48.9684 24.7493C48.8574 24.3177 48.4645 24 47.9999 24V22ZM43.9999 22H47.9999V24H43.9999V22ZM42.9999 27V23H44.9999V27H42.9999ZM47.9999 28H43.9999V26H47.9999V28ZM50.9053 25.7493C50.5723 27.043 49.3991 28 47.9999 28V26C48.4645 26 48.8574 25.6823 48.9684 25.2507L50.9053 25.7493ZM49.9369 29.5H53.5V31.5H49.9369V29.5ZM47.9999 31C48.4645 31 48.8574 30.6823 48.9684 30.2507L50.9053 30.7493C50.5723 32.043 49.3991 33 47.9999 33V31ZM43.9999 31H47.9999V33H43.9999V31ZM44.9999 28V32H42.9999V28H44.9999ZM47.9999 29H43.9999V27H47.9999V29ZM48.9684 29.7493C48.8574 29.3177 48.4645 29 47.9999 29V27C49.3991 27 50.5723 27.957 50.9053 29.2507L48.9684 29.7493ZM53.5 30.5H49.9369V28.5H53.5V30.5ZM53 30C53 30.2761 53.2239 30.5 53.5 30.5V28.5C54.3284 28.5 55 29.1716 55 30H53ZM53.5 29.5C53.2239 29.5 53 29.7239 53 30H55C55 30.8284 54.3284 31.5 53.5 31.5V29.5ZM53.5 36.5H49.9369V34.5H53.5V36.5ZM55 35C55 35.8284 54.3284 36.5 53.5 36.5V34.5C53.2239 34.5 53 34.7239 53 35H55ZM53.5 33.5C54.3284 33.5 55 34.1716 55 35H53C53 35.2761 53.2239 35.5 53.5 35.5V33.5ZM49.9369 33.5H53.5V35.5H49.9369V33.5ZM47.9999 32C49.3991 32 50.5723 32.957 50.9053 34.2507L48.9684 34.7493C48.8574 34.3177 48.4645 34 47.9999 34V32ZM43.9999 32H47.9999V34H43.9999V32ZM42.9999 37V33H44.9999V37H42.9999ZM47.9999 38H43.9999V36H47.9999V38ZM50.9053 35.7493C50.5723 37.043 49.3991 38 47.9999 38V36C48.4645 36 48.8574 35.6823 48.9684 35.2507L50.9053 35.7493ZM49.9369 39.5H53.5V41.5H49.9369V39.5ZM47.9999 41C48.4645 41 48.8574 40.6823 48.9684 40.2507L50.9053 40.7493C50.5723 42.043 49.3991 43 47.9999 43V41ZM43.9999 41H47.9999V43H43.9999V41ZM44.9999 38V42H42.9999V38H44.9999ZM47.9999 39H43.9999V37H47.9999V39ZM48.9684 39.7493C48.8574 39.3177 48.4645 39 47.9999 39V37C49.3991 37 50.5723 37.957 50.9053 39.2507L48.9684 39.7493ZM53.5 40.5H49.9369V38.5H53.5V40.5ZM53 40C53 40.2761 53.2239 40.5 53.5 40.5V38.5C54.3284 38.5 55 39.1716 55 40H53ZM53.5 39.5C53.2239 39.5 53 39.7239 53 40H55C55 40.8284 54.3284 41.5 53.5 41.5V39.5Z" fill="#24D5B3" mask="url(#path-4-inside-2_15_906)"/>
<mask id="path-6-inside-3_15_906" fill="white">
<path fill-rule="evenodd" clip-rule="evenodd" d="M39.5 10.063L39.5 6.5C39.5 6.22386 39.7239 6 40 6C40.2761 6 40.5 6.22386 40.5 6.5L40.5 10.063C41.3626 10.285 42 11.0681 42 12L42 16L38 16L38 12C38 11.0681 38.6374 10.285 39.5 10.063ZM34.5 10.063L34.5 6.5C34.5 6.22386 34.7239 6 35 6C35.2761 6 35.5 6.22386 35.5 6.5L35.5 10.063C36.3626 10.285 37 11.0681 37 12L37 16L33 16L33 12C33 11.0681 33.6374 10.285 34.5 10.063ZM29.5 6.5L29.5 10.063C28.6374 10.285 28 11.0681 28 12L28 16L32 16L32 12C32 11.0681 31.3626 10.285 30.5 10.063L30.5 6.5C30.5 6.22386 30.2761 6 30 6C29.7239 6 29.5 6.22386 29.5 6.5ZM24.5 10.063L24.5 6.5C24.5 6.22386 24.7239 6 25 6C25.2761 6 25.5 6.22386 25.5 6.5L25.5 10.063C26.3626 10.285 27 11.0681 27 12L27 16L23 16L23 12C23 11.0681 23.6374 10.285 24.5 10.063ZM19.5 6.5L19.5 10.063C18.6374 10.285 18 11.0681 18 12L18 16L22 16L22 12C22 11.0681 21.3626 10.285 20.5 10.063L20.5 6.5C20.5 6.22386 20.2761 6 20 6C19.7239 6 19.5 6.22386 19.5 6.5Z"/>
</mask>
<path fill-rule="evenodd" clip-rule="evenodd" d="M39.5 10.063L39.5 6.5C39.5 6.22386 39.7239 6 40 6C40.2761 6 40.5 6.22386 40.5 6.5L40.5 10.063C41.3626 10.285 42 11.0681 42 12L42 16L38 16L38 12C38 11.0681 38.6374 10.285 39.5 10.063ZM34.5 10.063L34.5 6.5C34.5 6.22386 34.7239 6 35 6C35.2761 6 35.5 6.22386 35.5 6.5L35.5 10.063C36.3626 10.285 37 11.0681 37 12L37 16L33 16L33 12C33 11.0681 33.6374 10.285 34.5 10.063ZM29.5 6.5L29.5 10.063C28.6374 10.285 28 11.0681 28 12L28 16L32 16L32 12C32 11.0681 31.3626 10.285 30.5 10.063L30.5 6.5C30.5 6.22386 30.2761 6 30 6C29.7239 6 29.5 6.22386 29.5 6.5ZM24.5 10.063L24.5 6.5C24.5 6.22386 24.7239 6 25 6C25.2761 6 25.5 6.22386 25.5 6.5L25.5 10.063C26.3626 10.285 27 11.0681 27 12L27 16L23 16L23 12C23 11.0681 23.6374 10.285 24.5 10.063ZM19.5 6.5L19.5 10.063C18.6374 10.285 18 11.0681 18 12L18 16L22 16L22 12C22 11.0681 21.3626 10.285 20.5 10.063L20.5 6.5C20.5 6.22386 20.2761 6 20 6C19.7239 6 19.5 6.22386 19.5 6.5Z" fill="white"/>
<path d="M39.5 6.5L40.5 6.5L39.5 6.5ZM39.5 10.063L39.7493 11.0314L40.5 10.8382L40.5 10.063L39.5 10.063ZM40.5 6.5L41.5 6.5L40.5 6.5ZM40.5 10.063L39.5 10.063L39.5 10.8382L40.2507 11.0314L40.5 10.063ZM42 12L43 12L42 12ZM42 16L42 17L43 17L43 16L42 16ZM38 16L37 16L37 17L38 17L38 16ZM38 12L39 12L38 12ZM34.5 6.5L35.5 6.5L34.5 6.5ZM34.5 10.063L34.7493 11.0314L35.5 10.8382L35.5 10.063L34.5 10.063ZM35.5 6.5L36.5 6.5L35.5 6.5ZM35.5 10.063L34.5 10.063L34.5 10.8382L35.2507 11.0314L35.5 10.063ZM37 12L38 12L37 12ZM37 16L37 17L38 17L38 16L37 16ZM33 16L32 16L32 17L33 17L33 16ZM29.5 10.063L29.7493 11.0314L30.5 10.8382L30.5 10.063L29.5 10.063ZM29.5 6.5L30.5 6.5L29.5 6.5ZM28 16L27 16L27 17L28 17L28 16ZM32 16L32 17L33 17L33 16L32 16ZM30.5 10.063L29.5 10.063L29.5 10.8382L30.2507 11.0314L30.5 10.063ZM30.5 6.5L31.5 6.5L30.5 6.5ZM24.5 10.063L24.7493 11.0314L25.5 10.8382L25.5 10.063L24.5 10.063ZM25.5 10.063L24.5 10.063L24.5 10.8382L25.2507 11.0314L25.5 10.063ZM27 16L27 17L28 17L28 16L27 16ZM23 16L22 16L22 17L23 17L23 16ZM19.5 10.063L19.7493 11.0314L20.5 10.8382L20.5 10.063L19.5 10.063ZM18 16L17 16L17 17L18 17L18 16ZM22 16L22 17L23 17L23 16L22 16ZM20.5 10.063L19.5 10.063L19.5 10.8382L20.2507 11.0314L20.5 10.063ZM38.5 6.5L38.5 10.063L40.5 10.063L40.5 6.5L38.5 6.5ZM40 5C39.1716 5 38.5 5.67157 38.5 6.5L40.5 6.5C40.5 6.77614 40.2761 7 40 7L40 5ZM41.5 6.5C41.5 5.67157 40.8284 5 40 5L40 7C39.7239 7 39.5 6.77614 39.5 6.5L41.5 6.5ZM41.5 10.063L41.5 6.5L39.5 6.5L39.5 10.063L41.5 10.063ZM43 12C43 10.6007 42.043 9.42755 40.7493 9.09457L40.2507 11.0314C40.6823 11.1425 41 11.5354 41 12L43 12ZM43 16L43 12L41 12L41 16L43 16ZM38 17L42 17L42 15L38 15L38 17ZM37 12L37 16L39 16L39 12L37 12ZM39.2507 9.09457C37.957 9.42755 37 10.6007 37 12L39 12C39 11.5354 39.3177 11.1425 39.7493 11.0314L39.2507 9.09457ZM33.5 6.5L33.5 10.063L35.5 10.063L35.5 6.5L33.5 6.5ZM35 5C34.1716 5 33.5 5.67157 33.5 6.5L35.5 6.5C35.5 6.77614 35.2761 7 35 7L35 5ZM36.5 6.5C36.5 5.67157 35.8284 5 35 5L35 7C34.7239 7 34.5 6.77614 34.5 6.5L36.5 6.5ZM36.5 10.063L36.5 6.5L34.5 6.5L34.5 10.063L36.5 10.063ZM38 12C38 10.6007 37.043 9.42755 35.7493 9.09457L35.2507 11.0314C35.6823 11.1425 36 11.5354 36 12L38 12ZM38 16L38 12L36 12L36 16L38 16ZM33 17L37 17L37 15L33 15L33 17ZM32 12L32 16L34 16L34 12L32 12ZM34.2507 9.09457C32.957 9.42755 32 10.6007 32 12L34 12C34 11.5354 34.3177 11.1425 34.7493 11.0314L34.2507 9.09457ZM30.5 10.063L30.5 6.5L28.5 6.5L28.5 10.063L30.5 10.063ZM29 12C29 11.5354 29.3177 11.1425 29.7493 11.0314L29.2507 9.09457C27.957 9.42755 27 10.6007 27 12L29 12ZM29 16L29 12L27 12L27 16L29 16ZM32 15L28 15L28 17L32 17L32 15ZM31 12L31 16L33 16L33 12L31 12ZM30.2507 11.0314C30.6823 11.1425 31 11.5354 31 12L33 12C33 10.6007 32.043 9.42755 30.7493 9.09457L30.2507 11.0314ZM29.5 6.5L29.5 10.063L31.5 10.063L31.5 6.5L29.5 6.5ZM30 7C29.7239 7 29.5 6.77614 29.5 6.5L31.5 6.5C31.5 5.67157 30.8284 5 30 5L30 7ZM30.5 6.5C30.5 6.77614 30.2761 7 30 7L30 5C29.1716 5 28.5 5.67157 28.5 6.5L30.5 6.5ZM23.5 6.5L23.5 10.063L25.5 10.063L25.5 6.5L23.5 6.5ZM25 5C24.1716 5 23.5 5.67157 23.5 6.5L25.5 6.5C25.5 6.77614 25.2761 7 25 7L25 5ZM26.5 6.5C26.5 5.67157 25.8284 5 25 5L25 7C24.7239 7 24.5 6.77614 24.5 6.5L26.5 6.5ZM26.5 10.063L26.5 6.5L24.5 6.5L24.5 10.063L26.5 10.063ZM28 12C28 10.6007 27.043 9.42755 25.7493 9.09457L25.2507 11.0314C25.6823 11.1425 26 11.5354 26 12L28 12ZM28 16L28 12L26 12L26 16L28 16ZM23 17L27 17L27 15L23 15L23 17ZM22 12L22 16L24 16L24 12L22 12ZM24.2507 9.09457C22.957 9.42755 22 10.6007 22 12L24 12C24 11.5354 24.3177 11.1425 24.7493 11.0314L24.2507 9.09457ZM20.5 10.063L20.5 6.5L18.5 6.5L18.5 10.063L20.5 10.063ZM19 12C19 11.5354 19.3177 11.1425 19.7493 11.0314L19.2507 9.09457C17.957 9.42755 17 10.6007 17 12L19 12ZM19 16L19 12L17 12L17 16L19 16ZM22 15L18 15L18 17L22 17L22 15ZM21 12L21 16L23 16L23 12L21 12ZM20.2507 11.0314C20.6823 11.1425 21 11.5354 21 12L23 12C23 10.6007 22.043 9.42755 20.7493 9.09457L20.2507 11.0314ZM19.5 6.5L19.5 10.063L21.5 10.063L21.5 6.5L19.5 6.5ZM20 7C19.7239 7 19.5 6.77614 19.5 6.5L21.5 6.5C21.5 5.67157 20.8284 5 20 5L20 7ZM20.5 6.5C20.5 6.77614 20.2761 7 20 7L20 5C19.1716 5 18.5 5.67157 18.5 6.5L20.5 6.5Z" fill="#24D5B3" mask="url(#path-6-inside-3_15_906)"/>
<mask id="path-8-inside-4_15_906" fill="white">
<path fill-rule="evenodd" clip-rule="evenodd" d="M39.5 49.9369L39.5 53.5C39.5 53.7761 39.7239 54 40 54C40.2761 54 40.5 53.7761 40.5 53.5L40.5 49.9369C41.3626 49.7149 42 48.9318 42 47.9999L42 43.9999L38 43.9999L38 47.9999C38 48.9318 38.6374 49.7149 39.5 49.9369ZM34.5 49.9369L34.5 53.5C34.5 53.7761 34.7239 54 35 54C35.2761 54 35.5 53.7761 35.5 53.5L35.5 49.9369C36.3626 49.7149 37 48.9318 37 47.9999L37 43.9999L33 43.9999L33 47.9999C33 48.9318 33.6374 49.7149 34.5 49.9369ZM29.5 53.5L29.5 49.9369C28.6374 49.7149 28 48.9318 28 47.9999L28 43.9999L32 43.9999L32 47.9999C32 48.9318 31.3626 49.7149 30.5 49.9369L30.5 53.5C30.5 53.7761 30.2761 54 30 54C29.7239 54 29.5 53.7761 29.5 53.5ZM24.5 49.9369L24.5 53.5C24.5 53.7761 24.7239 54 25 54C25.2761 54 25.5 53.7761 25.5 53.5L25.5 49.9369C26.3626 49.7149 27 48.9318 27 47.9999L27 43.9999L23 43.9999L23 47.9999C23 48.9318 23.6374 49.7149 24.5 49.9369ZM19.5 53.5L19.5 49.9369C18.6374 49.7149 18 48.9318 18 47.9999L18 43.9999L22 43.9999L22 47.9999C22 48.9318 21.3626 49.7149 20.5 49.9369L20.5 53.5C20.5 53.7761 20.2761 54 20 54C19.7239 54 19.5 53.7761 19.5 53.5Z"/>
</mask>
<path fill-rule="evenodd" clip-rule="evenodd" d="M39.5 49.9369L39.5 53.5C39.5 53.7761 39.7239 54 40 54C40.2761 54 40.5 53.7761 40.5 53.5L40.5 49.9369C41.3626 49.7149 42 48.9318 42 47.9999L42 43.9999L38 43.9999L38 47.9999C38 48.9318 38.6374 49.7149 39.5 49.9369ZM34.5 49.9369L34.5 53.5C34.5 53.7761 34.7239 54 35 54C35.2761 54 35.5 53.7761 35.5 53.5L35.5 49.9369C36.3626 49.7149 37 48.9318 37 47.9999L37 43.9999L33 43.9999L33 47.9999C33 48.9318 33.6374 49.7149 34.5 49.9369ZM29.5 53.5L29.5 49.9369C28.6374 49.7149 28 48.9318 28 47.9999L28 43.9999L32 43.9999L32 47.9999C32 48.9318 31.3626 49.7149 30.5 49.9369L30.5 53.5C30.5 53.7761 30.2761 54 30 54C29.7239 54 29.5 53.7761 29.5 53.5ZM24.5 49.9369L24.5 53.5C24.5 53.7761 24.7239 54 25 54C25.2761 54 25.5 53.7761 25.5 53.5L25.5 49.9369C26.3626 49.7149 27 48.9318 27 47.9999L27 43.9999L23 43.9999L23 47.9999C23 48.9318 23.6374 49.7149 24.5 49.9369ZM19.5 53.5L19.5 49.9369C18.6374 49.7149 18 48.9318 18 47.9999L18 43.9999L22 43.9999L22 47.9999C22 48.9318 21.3626 49.7149 20.5 49.9369L20.5 53.5C20.5 53.7761 20.2761 54 20 54C19.7239 54 19.5 53.7761 19.5 53.5Z" fill="white"/>
<path d="M39.5 53.5L38.5 53.5L39.5 53.5ZM39.5 49.9369L39.7493 48.9684L40.5 49.1617L40.5 49.9369L39.5 49.9369ZM40.5 53.5L39.5 53.5L40.5 53.5ZM40.5 49.9369L39.5 49.9369L39.5 49.1617L40.2507 48.9684L40.5 49.9369ZM42 43.9999L42 42.9999L43 42.9999L43 43.9999L42 43.9999ZM38 43.9999L37 43.9999L37 42.9999L38 42.9999L38 43.9999ZM34.5 53.5L33.5 53.5L34.5 53.5ZM34.5 49.9369L34.7493 48.9684L35.5 49.1617L35.5 49.9369L34.5 49.9369ZM35.5 53.5L34.5 53.5L35.5 53.5ZM35.5 49.9369L34.5 49.9369L34.5 49.1617L35.2507 48.9684L35.5 49.9369ZM37 47.9999L36 47.9999L37 47.9999ZM37 43.9999L37 42.9999L38 42.9999L38 43.9999L37 43.9999ZM33 43.9999L32 43.9999L32 42.9999L33 42.9999L33 43.9999ZM33 47.9999L32 47.9999L33 47.9999ZM29.5 49.9369L29.7493 48.9684L30.5 49.1617L30.5 49.9369L29.5 49.9369ZM29.5 53.5L28.5 53.5L29.5 53.5ZM28 47.9999L27 47.9999L28 47.9999ZM28 43.9999L27 43.9999L27 42.9999L28 42.9999L28 43.9999ZM32 43.9999L32 42.9999L33 42.9999L33 43.9999L32 43.9999ZM32 47.9999L31 47.9999L32 47.9999ZM30.5 49.9369L29.5 49.9369L29.5 49.1617L30.2507 48.9684L30.5 49.9369ZM30.5 53.5L29.5 53.5L30.5 53.5ZM24.5 53.5L23.5 53.5L24.5 53.5ZM24.5 49.9369L24.7493 48.9684L25.5 49.1617L25.5 49.9369L24.5 49.9369ZM25.5 53.5L24.5 53.5L25.5 53.5ZM25.5 49.9369L24.5 49.9369L24.5 49.1617L25.2507 48.9684L25.5 49.9369ZM27 47.9999L26 47.9999L27 47.9999ZM27 43.9999L27 42.9999L28 42.9999L28 43.9999L27 43.9999ZM23 43.9999L22 43.9999L22 42.9999L23 42.9999L23 43.9999ZM23 47.9999L22 47.9999L23 47.9999ZM19.5 49.9369L19.7493 48.9684L20.5 49.1617L20.5 49.9369L19.5 49.9369ZM19.5 53.5L18.5 53.5L19.5 53.5ZM18 43.9999L17 43.9999L17 42.9999L18 42.9999L18 43.9999ZM22 43.9999L22 42.9999L23 42.9999L23 43.9999L22 43.9999ZM20.5 49.9369L19.5 49.9369L19.5 49.1617L20.2507 48.9684L20.5 49.9369ZM20.5 53.5L19.5 53.5L20.5 53.5ZM38.5 53.5L38.5 49.9369L40.5 49.9369L40.5 53.5L38.5 53.5ZM40 55C39.1716 55 38.5 54.3284 38.5 53.5L40.5 53.5C40.5 53.2239 40.2761 53 40 53L40 55ZM41.5 53.5C41.5 54.3284 40.8284 55 40 55L40 53C39.7239 53 39.5 53.2239 39.5 53.5L41.5 53.5ZM41.5 49.9369L41.5 53.5L39.5 53.5L39.5 49.9369L41.5 49.9369ZM43 47.9999C43 49.3991 42.043 50.5723 40.7493 50.9053L40.2507 48.9684C40.6823 48.8574 41 48.4645 41 47.9999L43 47.9999ZM43 43.9999L43 47.9999L41 47.9999L41 43.9999L43 43.9999ZM38 42.9999L42 42.9999L42 44.9999L38 44.9999L38 42.9999ZM37 47.9999L37 43.9999L39 43.9999L39 47.9999L37 47.9999ZM39.2507 50.9053C37.957 50.5723 37 49.3991 37 47.9999L39 47.9999C39 48.4645 39.3177 48.8574 39.7493 48.9684L39.2507 50.9053ZM33.5 53.5L33.5 49.9369L35.5 49.9369L35.5 53.5L33.5 53.5ZM35 55C34.1716 55 33.5 54.3284 33.5 53.5L35.5 53.5C35.5 53.2239 35.2761 53 35 53L35 55ZM36.5 53.5C36.5 54.3284 35.8284 55 35 55L35 53C34.7239 53 34.5 53.2239 34.5 53.5L36.5 53.5ZM36.5 49.9369L36.5 53.5L34.5 53.5L34.5 49.9369L36.5 49.9369ZM38 47.9999C38 49.3991 37.043 50.5723 35.7493 50.9053L35.2507 48.9684C35.6823 48.8574 36 48.4645 36 47.9999L38 47.9999ZM38 43.9999L38 47.9999L36 47.9999L36 43.9999L38 43.9999ZM33 42.9999L37 42.9999L37 44.9999L33 44.9999L33 42.9999ZM32 47.9999L32 43.9999L34 43.9999L34 47.9999L32 47.9999ZM34.2507 50.9053C32.957 50.5723 32 49.3991 32 47.9999L34 47.9999C34 48.4645 34.3177 48.8574 34.7493 48.9684L34.2507 50.9053ZM30.5 49.9369L30.5 53.5L28.5 53.5L28.5 49.9369L30.5 49.9369ZM29 47.9999C29 48.4645 29.3177 48.8574 29.7493 48.9684L29.2507 50.9053C27.957 50.5723 27 49.3991 27 47.9999L29 47.9999ZM29 43.9999L29 47.9999L27 47.9999L27 43.9999L29 43.9999ZM32 44.9999L28 44.9999L28 42.9999L32 42.9999L32 44.9999ZM31 47.9999L31 43.9999L33 43.9999L33 47.9999L31 47.9999ZM30.2507 48.9684C30.6823 48.8574 31 48.4645 31 47.9999L33 47.9999C33 49.3991 32.043 50.5723 30.7493 50.9053L30.2507 48.9684ZM29.5 53.5L29.5 49.9369L31.5 49.9369L31.5 53.5L29.5 53.5ZM30 53C29.7239 53 29.5 53.2239 29.5 53.5L31.5 53.5C31.5 54.3284 30.8284 55 30 55L30 53ZM30.5 53.5C30.5 53.2239 30.2761 53 30 53L30 55C29.1716 55 28.5 54.3284 28.5 53.5L30.5 53.5ZM23.5 53.5L23.5 49.9369L25.5 49.9369L25.5 53.5L23.5 53.5ZM25 55C24.1716 55 23.5 54.3284 23.5 53.5L25.5 53.5C25.5 53.2239 25.2761 53 25 53L25 55ZM26.5 53.5C26.5 54.3284 25.8284 55 25 55L25 53C24.7239 53 24.5 53.2239 24.5 53.5L26.5 53.5ZM26.5 49.9369L26.5 53.5L24.5 53.5L24.5 49.9369L26.5 49.9369ZM28 47.9999C28 49.3991 27.043 50.5723 25.7493 50.9053L25.2507 48.9684C25.6823 48.8574 26 48.4645 26 47.9999L28 47.9999ZM28 43.9999L28 47.9999L26 47.9999L26 43.9999L28 43.9999ZM23 42.9999L27 42.9999L27 44.9999L23 44.9999L23 42.9999ZM22 47.9999L22 43.9999L24 43.9999L24 47.9999L22 47.9999ZM24.2507 50.9053C22.957 50.5723 22 49.3991 22 47.9999L24 47.9999C24 48.4645 24.3177 48.8574 24.7493 48.9684L24.2507 50.9053ZM20.5 49.9369L20.5 53.5L18.5 53.5L18.5 49.9369L20.5 49.9369ZM19 47.9999C19 48.4645 19.3177 48.8574 19.7493 48.9684L19.2507 50.9053C17.957 50.5723 17 49.3991 17 47.9999L19 47.9999ZM19 43.9999L19 47.9999L17 47.9999L17 43.9999L19 43.9999ZM22 44.9999L18 44.9999L18 42.9999L22 42.9999L22 44.9999ZM21 47.9999L21 43.9999L23 43.9999L23 47.9999L21 47.9999ZM20.2507 48.9684C20.6823 48.8574 21 48.4645 21 47.9999L23 47.9999C23 49.3991 22.043 50.5723 20.7493 50.9053L20.2507 48.9684ZM19.5 53.5L19.5 49.9369L21.5 49.9369L21.5 53.5L19.5 53.5ZM20 53C19.7239 53 19.5 53.2239 19.5 53.5L21.5 53.5C21.5 54.3284 20.8284 55 20 55L20 53ZM20.5 53.5C20.5 53.2239 20.2761 53 20 53L20 55C19.1716 55 18.5 54.3284 18.5 53.5L20.5 53.5Z" fill="#24D5B3" mask="url(#path-8-inside-4_15_906)"/>
<rect x="15" y="15" width="30" height="30" rx="4" fill="white"/>
<path fill-rule="evenodd" clip-rule="evenodd" d="M19 15C16.7909 15 15 16.7909 15 19V41C15 43.2091 16.7909 45 19 45H25C22.7909 45 21 43.2091 21 41V19C21 16.7909 22.7909 15 25 15H19Z" fill="#D4E1F4"/>
<rect x="20.5" y="20.5" width="19" height="19" rx="1.5" stroke="#1335A3"/>
<rect x="27.5" y="27.5" width="5" height="5" rx="0.5" fill="white" stroke="#1335A3"/>
<mask id="path-14-inside-5_15_906" fill="white">
<path fill-rule="evenodd" clip-rule="evenodd" d="M17.5 20C17.2239 20 17 20.2239 17 20.5V21.5C17 21.7761 17.2239 22 17.5 22C17.7761 22 18 21.7761 18 21.5V20.5C18 20.2239 17.7761 20 17.5 20ZM17.5 23C17.2239 23 17 23.2239 17 23.5V28.5C17 28.7761 17.2239 29 17.5 29C17.7761 29 18 28.7761 18 28.5V23.5C18 23.2239 17.7761 23 17.5 23Z"/>
</mask>
<path fill-rule="evenodd" clip-rule="evenodd" d="M17.5 20C17.2239 20 17 20.2239 17 20.5V21.5C17 21.7761 17.2239 22 17.5 22C17.7761 22 18 21.7761 18 21.5V20.5C18 20.2239 17.7761 20 17.5 20ZM17.5 23C17.2239 23 17 23.2239 17 23.5V28.5C17 28.7761 17.2239 29 17.5 29C17.7761 29 18 28.7761 18 28.5V23.5C18 23.2239 17.7761 23 17.5 23Z" fill="white"/>
<path d="M18 20.5C18 20.7761 17.7761 21 17.5 21V19C16.6716 19 16 19.6716 16 20.5H18ZM18 21.5V20.5H16V21.5H18ZM17.5 21C17.7761 21 18 21.2239 18 21.5H16C16 22.3284 16.6716 23 17.5 23V21ZM17 21.5C17 21.2239 17.2239 21 17.5 21V23C18.3284 23 19 22.3284 19 21.5H17ZM17 20.5V21.5H19V20.5H17ZM17.5 21C17.2239 21 17 20.7761 17 20.5H19C19 19.6716 18.3284 19 17.5 19V21ZM18 23.5C18 23.7761 17.7761 24 17.5 24V22C16.6716 22 16 22.6716 16 23.5H18ZM18 28.5V23.5H16V28.5H18ZM17.5 28C17.7761 28 18 28.2239 18 28.5H16C16 29.3284 16.6716 30 17.5 30V28ZM17 28.5C17 28.2239 17.2239 28 17.5 28V30C18.3284 30 19 29.3284 19 28.5H17ZM17 23.5V28.5H19V23.5H17ZM17.5 24C17.2239 24 17 23.7761 17 23.5H19C19 22.6716 18.3284 22 17.5 22V24Z" fill="#1335A3" mask="url(#path-14-inside-5_15_906)"/>
<rect x="15.5" y="15.5" width="29" height="29" rx="3.5" stroke="#1335A3"/>
</svg>
