<svg width="101" height="100" viewBox="0 0 101 100" fill="none" xmlns="http://www.w3.org/2000/svg">
<g clip-path="url(#clip0_320_3932)">
<rect x="0.333252" width="62" height="62" rx="30" fill="url(#paint0_linear_320_3932)" fill-opacity="0.2"/>
<path d="M40.7697 62.4854L33.6741 55.3898C32.3001 54.0158 32.3001 51.7881 33.6741 50.4139C35.0481 49.04 37.2759 49.04 38.6499 50.4139L50.3333 62.0973V78.2422H35.5243V72.9688L25.6067 58.8293V41.2053C25.6067 39.2621 27.1819 37.6869 29.1251 37.6869C31.0683 37.6869 32.6436 39.2621 32.6436 41.2053V52.8993" stroke="#2B2B2F" stroke-width="2" stroke-miterlimit="10"/>
<path d="M59.8968 62.4854L66.9924 55.3898C68.3664 54.0158 68.3664 51.7881 66.9924 50.4139C65.6184 49.04 63.3906 49.04 62.0166 50.4139L50.3333 62.0973V78.2422H65.1422V72.9688L75.0598 58.8293V41.2053C75.0598 39.2621 73.4846 37.6869 71.5414 37.6869C69.5982 37.6869 68.0229 39.2621 68.0229 41.2053V52.8993" stroke="#2B2B2F" stroke-width="2" stroke-miterlimit="10"/>
<path d="M56.6536 27.0957C56.6536 24.1477 59.0434 21.7578 61.9915 21.7578C64.9394 21.7578 67.3292 24.1477 67.3292 27.0957C67.3292 30.0437 64.9394 32.4336 61.9915 32.4336C59.0434 32.4336 56.6536 30.0437 56.6536 27.0957Z" stroke="#2B2B2F" stroke-width="2" stroke-miterlimit="10"/>
<path d="M44.0128 27.0957C44.0128 24.1477 41.623 21.7578 38.6749 21.7578C35.727 21.7578 33.3372 24.1477 33.3372 27.0957C33.3372 30.0437 35.727 32.4336 38.6749 32.4336C41.623 32.4336 44.0128 30.0437 44.0128 27.0957Z" stroke="#2B2B2F" stroke-width="2" stroke-miterlimit="10"/>
<path d="M55.6711 40.8613C55.6711 37.9134 53.2812 35.5234 50.3333 35.5234C47.3853 35.5234 44.9954 37.9134 44.9954 40.8613C44.9954 43.8093 47.3853 46.1992 50.3333 46.1992C53.2812 46.1992 55.6711 43.8093 55.6711 40.8613Z" stroke="#2B2B2F" stroke-width="2" stroke-miterlimit="10"/>
<path d="M53.9094 36.8988C55.5993 34.2161 58.5878 32.4337 61.9925 32.4337C65.7729 32.4337 69.0401 34.6311 70.5864 37.8184" stroke="#2B2B2F" stroke-width="2" stroke-miterlimit="10"/>
<path d="M46.7583 36.8988C45.0684 34.2161 42.0799 32.4337 38.6751 32.4337C34.8948 32.4337 31.6276 34.6311 30.0813 37.8184" stroke="#2B2B2F" stroke-width="2" stroke-miterlimit="10"/>
<path d="M59.4716 52.959C58.2774 49.0455 54.6382 46.1987 50.334 46.1987C46.0298 46.1987 42.3907 49.0455 41.1965 52.959" stroke="#2B2B2F" stroke-width="2" stroke-miterlimit="10"/>
</g>
<defs>
<linearGradient id="paint0_linear_320_3932" x1="31.3333" y1="0" x2="31.3333" y2="62" gradientUnits="userSpaceOnUse">
<stop stop-color="#4B7BF5"/>
<stop offset="1" stop-color="white"/>
</linearGradient>
<clipPath id="clip0_320_3932">
<rect width="100" height="100" fill="white" transform="translate(0.333252)"/>
</clipPath>
</defs>
</svg>
