<svg width="80" height="80" viewBox="0 0 80 80" fill="none" xmlns="http://www.w3.org/2000/svg">
<path d="M19.9624 31.7412L25.5188 40.01L19.9624 48.2787C15.5436 45.785 10.4688 44.385 5 44.385V35.635C10.4688 35.635 15.5436 34.235 19.9624 31.7412Z" fill="#7CA1EB"/>
<path d="M40.0002 54.4912L48.2689 60.0473C45.7752 64.4661 44.3752 69.5412 44.3752 75.01H35.6252C35.6252 69.5412 34.2252 64.4661 31.7314 60.0473L40.0002 54.4912Z" fill="#7CA1EB"/>
<path d="M31.7314 19.9721C34.2252 15.5534 35.6252 10.4785 35.6252 5.00977H44.3752C44.3752 10.4785 45.7752 15.5534 48.2689 19.9721L40.0002 25.4956L31.7314 19.9721Z" fill="#7CA1EB"/>
<path d="M28.0127 28.0225H51.9876V51.9973H28.0127V28.0225Z" fill="#7CA1EB"/>
<path d="M75.0002 35.635V44.385C69.5314 44.385 64.4566 45.785 60.0378 48.2787L54.4814 40.01L60.0378 31.7412C64.4566 34.235 69.5314 35.635 75.0002 35.635Z" fill="#7CA1EB"/>
<path d="M51.9873 51.9971L48.2687 60.0469C53.1687 61.4035 57.8062 63.9846 61.6562 67.8346L67.8248 61.6658C63.9748 57.8158 61.3937 53.1783 60.0374 48.2783L51.9873 51.9971ZM60.0374 31.7408C61.3937 26.8408 63.9748 22.2033 67.8248 18.3533L61.6561 12.1846C57.8061 16.0343 53.1686 18.6157 48.2686 19.9719L51.9872 28.0221L60.0374 31.7408ZM12.1748 18.3533C16.0248 22.2033 18.6059 26.8408 19.9622 31.7408L28.0123 28.0222L31.7309 19.9721C26.8309 18.6158 22.1934 16.0344 18.3434 12.1847L12.1748 18.3533ZM19.9622 48.2783C18.6059 53.1783 16.0248 57.8158 12.1748 61.6658L18.3436 67.8346C22.1936 63.9846 26.8311 61.4035 31.7311 60.0469L28.0123 51.9971L19.9622 48.2783Z" fill="#5E8DEC"/>
<path d="M40 44.3848C42.4162 44.3848 44.375 42.426 44.375 40.0098C44.375 37.5935 42.4162 35.6348 40 35.6348C37.5838 35.6348 35.625 37.5935 35.625 40.0098C35.625 42.426 37.5838 44.3848 40 44.3848Z" fill="#5E8DEC"/>
<path d="M60.0372 31.7404C55.0934 28.9842 51.0247 24.9154 48.2684 19.9717C42.8871 21.5028 37.1122 21.5028 31.7308 19.9717C30.3746 22.4215 28.6247 24.6967 26.6558 26.6654C24.687 28.6339 22.4119 30.384 19.9619 31.7403C20.7494 34.4528 21.1433 37.209 21.1433 40.009C21.1433 42.809 20.7494 45.5652 19.9619 48.2778C22.4119 49.6342 24.687 51.384 26.6558 53.3529C28.6245 55.3218 30.3744 57.5965 31.7307 60.0465C34.4432 59.259 37.1994 58.8654 39.9994 58.8654C42.7994 58.8654 45.5558 59.259 48.2682 60.0465C49.6246 57.5965 51.3744 55.3217 53.3433 53.3529C55.3122 51.3842 57.5872 49.6343 60.0372 48.2781C59.2497 45.5653 58.8558 42.8093 58.8558 40.0093C58.8558 37.2093 59.2497 34.4528 60.0372 31.7404ZM51.987 51.9967C48.1808 50.7715 44.1121 50.1154 39.9996 50.1154C35.8871 50.1154 31.8183 50.7715 28.0121 51.9967C30.4621 44.209 30.4621 35.8092 28.0121 28.0218C31.8183 29.2467 35.8871 29.9031 39.9996 29.9031C44.1121 29.9031 48.1808 29.2467 51.987 28.0218C49.5371 35.809 49.5371 44.209 51.987 51.9967Z" fill="#3B6ED5"/>
</svg>
