<svg width="22" height="22" viewBox="0 0 22 22" fill="none" xmlns="http://www.w3.org/2000/svg">
<g clip-path="url(#clip0_2031_14215)">
<path d="M12.332 6.44531H9.75391C8.6839 6.44531 7.73438 7.30894 7.73438 8.37891V9.66797C7.73438 10.0289 8.01793 10.3125 8.37891 10.3125H13.6211C13.9821 10.3125 14.2656 10.0289 14.2656 9.66797V8.37891C14.2656 7.30894 13.402 6.44531 12.332 6.44531Z" fill="#87A6BA"/>
<path d="M13.6211 10.3125H11.043V6.44531H12.332C13.402 6.44531 14.2656 7.30894 14.2656 8.37891V9.66797C14.2656 10.0289 13.9821 10.3125 13.6211 10.3125Z" fill="white" fill-opacity="0.08"/>
<path d="M6.44531 7.08984C6.44531 8.15607 5.57795 9.02344 4.51172 9.02344H1.93359C0.867367 9.02344 0 8.15607 0 7.08984V5.80078C0 5.44453 0.288277 5.15625 0.644531 5.15625H5.80078C6.15704 5.15625 6.44531 5.44453 6.44531 5.80078V7.08984Z" fill="#0B2037"/>
<path d="M22 7.08984C22 8.15607 21.1326 9.02344 20.0664 9.02344H17.4883C16.4221 9.02344 15.5547 8.15607 15.5547 7.08984V5.80078C15.5547 5.44453 15.843 5.15625 16.1992 5.15625H21.3555C21.7117 5.15625 22 5.44453 22 5.80078V7.08984Z" fill="#0B2037"/>
<path d="M20.4661 18.0555L17.1273 9.97734C16.7792 9.38433 16.1605 9.02344 15.4644 9.02344H6.53563C5.8395 9.02344 5.22075 9.38433 4.83398 10.0547L1.5339 18.0555C1.37938 18.4293 1.28906 18.8676 1.28906 19.2929V20.0664C1.28906 21.1363 2.15265 22 3.22266 22H18.7773C19.8474 22 20.7109 21.1363 20.7109 20.0664V19.2929C20.7109 18.8676 20.6206 18.4293 20.4661 18.0555Z" fill="#2C485D"/>
<path d="M20.4661 18.0555C20.6206 18.4293 20.7109 18.8676 20.7109 19.2929V20.0664C20.7109 21.1363 19.8474 22 18.7773 22H11.043V9.02344H15.4644C16.1605 9.02344 16.7793 9.38433 17.1273 9.97734L20.4661 18.0555Z" fill="white" fill-opacity="0.08"/>
<path d="M16.1992 0H5.80078C2.60395 0 0 2.60386 0 5.80078V6.44531H6.44531V5.80078C6.44531 5.4398 6.72886 5.15625 7.08984 5.15625H14.9102C15.2711 5.15625 15.5547 5.4398 15.5547 5.80078V6.44531H22V5.80078C22 2.60386 19.3961 0 16.1992 0Z" fill="#2C485D"/>
<path d="M22 5.80078V6.44531H15.5547V5.80078C15.5547 5.4398 15.2711 5.15625 14.9102 5.15625H11.043V0H16.1992C19.3961 0 22 2.60386 22 5.80078Z" fill="white" fill-opacity="0.08"/>
<path d="M11.043 11.6875C8.91597 11.6875 7.17578 13.4277 7.17578 15.5547C7.17578 17.6816 8.91597 19.4219 11.043 19.4219C13.17 19.4219 14.9102 17.6816 14.9102 15.5547C14.9102 13.4277 13.17 11.6875 11.043 11.6875Z" fill="#26C0F2"/>
<path d="M14.9102 15.5547C14.9102 17.6816 13.17 19.4219 11.043 19.4219V11.6875C13.17 11.6875 14.9102 13.4277 14.9102 15.5547Z" fill="#2FD1F7"/>
<path d="M11.043 14.2656C10.3339 14.2656 9.75391 14.8457 9.75391 15.5547C9.75391 16.2637 10.3339 16.8438 11.043 16.8438C11.752 16.8438 12.332 16.2637 12.332 15.5547C12.332 14.8457 11.752 14.2656 11.043 14.2656Z" fill="#0B2037"/>
</g>
<defs>
<clipPath id="clip0_2031_14215">
<rect width="22" height="22" fill="white"/>
</clipPath>
</defs>
</svg>
