<svg width="100" height="100" viewBox="0 0 100 100" fill="none" xmlns="http://www.w3.org/2000/svg">
<g clip-path="url(#clip0_2021_1792)">
<rect x="-0.000244141" width="62" height="62" rx="30" fill="url(#paint0_linear_2021_1792)" fill-opacity="0.2"/>
<path d="M50.0002 32.1426C59.8628 32.1427 67.8577 40.1383 67.8577 50.001C67.8575 59.8635 59.8627 67.8582 50.0002 67.8584C40.1376 67.8584 32.142 59.8636 32.1418 50.001C32.1418 40.1382 40.1375 32.1426 50.0002 32.1426Z" stroke="#2B2B2F" stroke-width="2"/>
<path d="M19.002 50.001C19.0026 50.5533 19.4507 51.0005 20.003 51C20.5553 50.9994 21.0026 50.5513 21.002 49.999L19.002 50.001ZM24.9049 33.3343L25.745 33.8766L25.7455 33.8759L24.9049 33.3343ZM37.9592 22.2867L37.5653 21.3675L37.564 21.368L37.9592 22.2867ZM54.7635 20.5725L54.9668 19.5934L54.9636 19.5928L54.7635 20.5725ZM69.652 28.7875L68.9321 29.4816L68.9329 29.4824L69.652 28.7875ZM75.9981 41.7056C76.1507 42.2364 76.7046 42.543 77.2354 42.3904C77.7662 42.2378 78.0728 41.6838 77.9202 41.153L75.9981 41.7056ZM76.0438 40.4592C75.8198 40.964 76.0474 41.5548 76.5522 41.7788C77.0571 42.0028 77.6479 41.7752 77.8719 41.2704L76.0438 40.4592ZM80.9147 34.4129C81.1388 33.9081 80.9111 33.3172 80.4063 33.0932C79.9015 32.8692 79.3106 33.0969 79.0866 33.6017L80.9147 34.4129ZM76.3302 42.3388C76.8325 42.5686 77.4258 42.3477 77.6556 41.8455C77.8854 41.3432 77.6645 40.7499 77.1623 40.5201L76.3302 42.3388ZM70.3048 37.383C69.8025 37.1532 69.2091 37.3741 68.9794 37.8763C68.7496 38.3785 68.9705 38.9719 69.4727 39.2017L70.3048 37.383ZM81.0013 49.999C81.0008 49.4467 80.5526 48.9995 80.0003 49C79.4481 49.0006 79.0008 49.4487 79.0013 50.001L81.0013 49.999ZM75.0985 66.6657L74.2583 66.1234L74.2578 66.1241L75.0985 66.6657ZM62.0442 77.7133L62.4381 78.6325L62.4393 78.632L62.0442 77.7133ZM45.2399 79.4275L45.0366 80.4066L45.0397 80.4072L45.2399 79.4275ZM30.3513 71.2125L31.0712 70.5184L31.0705 70.5176L30.3513 71.2125ZM24.0053 58.2944C23.8527 57.7636 23.2987 57.457 22.7679 57.6096C22.2371 57.7622 21.9305 58.3162 22.0831 58.847L24.0053 58.2944ZM23.9569 58.9763C24.1809 58.4714 23.9533 57.8806 23.4484 57.6566C22.9436 57.4326 22.3528 57.6603 22.1288 58.1651L23.9569 58.9763ZM19.0859 65.0226C18.8619 65.5274 19.0896 66.1182 19.5944 66.3422C20.0992 66.5662 20.6901 66.3386 20.9141 65.8338L19.0859 65.0226ZM23.4602 57.6615C22.958 57.4318 22.3646 57.6526 22.1348 58.1549C21.9051 58.6571 22.126 59.2505 22.6282 59.4802L23.4602 57.6615ZM29.4857 62.6174C29.9879 62.8471 30.5813 62.6263 30.811 62.124C31.0408 61.6218 30.8199 61.0284 30.3177 60.7987L29.4857 62.6174ZM21.002 49.999C20.9963 44.2802 22.6434 38.6815 25.745 33.8766L24.0647 32.7919C20.754 37.9206 18.9959 43.8967 19.002 50.001L21.002 49.999ZM25.7455 33.8759C28.7937 29.1444 33.1837 25.4293 38.3543 23.2053L37.564 21.368C32.0281 23.7492 27.3279 27.7269 24.0642 32.7927L25.7455 33.8759ZM38.353 23.2058C43.4619 21.0166 49.1176 20.4397 54.5633 21.5523L54.9636 19.5928C49.1188 18.3986 43.0486 19.0178 37.5653 21.3675L38.353 23.2058ZM54.5601 21.5516C60.0394 22.6895 65.0481 25.4532 68.9321 29.4816L70.3719 28.0935C66.2087 23.7754 60.8399 20.8131 54.9668 19.5934L54.5601 21.5516ZM68.9329 29.4824C72.2524 32.9176 74.6784 37.1147 75.9981 41.7056L77.9202 41.153C76.5102 36.2477 73.918 31.7631 70.3711 28.0926L68.9329 29.4824ZM77.8719 41.2704L80.9147 34.4129L79.0866 33.6017L76.0438 40.4592L77.8719 41.2704ZM77.1623 40.5201L70.3048 37.383L69.4727 39.2017L76.3302 42.3388L77.1623 40.5201ZM79.0013 50.001C79.0071 55.7198 77.36 61.3185 74.2583 66.1234L75.9386 67.2081C79.2494 62.0794 81.0074 56.1033 81.0013 49.999L79.0013 50.001ZM74.2578 66.1241C71.2096 70.8556 66.8197 74.5707 61.6491 76.7947L62.4393 78.632C67.9753 76.2508 72.6755 72.2731 75.9391 67.2073L74.2578 66.1241ZM61.6503 76.7942C56.5415 78.9834 50.8858 79.5603 45.4401 78.4477L45.0397 80.4072C50.8846 81.6014 56.9548 80.9822 62.4381 78.6325L61.6503 76.7942ZM45.4432 78.4484C39.964 77.3105 34.9553 74.5469 31.0712 70.5184L29.6314 71.9066C33.7947 76.2246 39.1635 79.1869 45.0366 80.4066L45.4432 78.4484ZM31.0705 70.5176C27.7509 67.0824 25.325 62.8853 24.0053 58.2944L22.0831 58.847C23.4932 63.7523 26.0853 68.2369 29.6322 71.9074L31.0705 70.5176ZM22.1288 58.1651L19.0859 65.0226L20.9141 65.8338L23.9569 58.9763L22.1288 58.1651ZM22.6282 59.4802L29.4857 62.6174L30.3177 60.7987L23.4602 57.6615L22.6282 59.4802Z" fill="#2B2B2F"/>
<path d="M41.429 44.002L45.7149 56.0026L50.0008 44.002L54.2867 56.0026L58.5727 44.002" stroke="#2B2B2F" stroke-width="2" stroke-linecap="round" stroke-linejoin="round"/>
<path d="M39.7134 48.2871H60.2858" stroke="#2B2B2F" stroke-width="2" stroke-linecap="round"/>
</g>
<defs>
<linearGradient id="paint0_linear_2021_1792" x1="30.9998" y1="0" x2="30.9998" y2="62" gradientUnits="userSpaceOnUse">
<stop stop-color="#B44BF5"/>
<stop offset="1" stop-color="white"/>
</linearGradient>
<clipPath id="clip0_2021_1792">
<rect width="100" height="100" fill="white" transform="translate(-0.000244141)"/>
</clipPath>
</defs>
</svg>
