<svg width="80" height="80" viewBox="0 0 80 80" fill="none" xmlns="http://www.w3.org/2000/svg">
<path d="M31.5 13.7598V31.2598L14 40.0098V13.7598C14 8.94713 17.9376 5.00977 22.75 5.00977C25.1562 5.00977 27.3438 5.97213 28.9186 7.59088C30.5376 9.16602 31.5 11.3535 31.5 13.7598Z" fill="#46CECE"/>
<path d="M66.5 40.0098V66.2598C66.5 71.0721 62.5624 75.0098 57.75 75.0098C52.9376 75.0098 49 71.0721 49 66.2598V48.7598L66.5 40.0098Z" fill="#46CECE"/>
<path d="M57.75 31.2598L49 48.7598H22.75L31.5 31.2598H57.75Z" fill="#35CACA"/>
<path d="M22.75 70.6348C27.5825 70.6348 31.5 66.7173 31.5 61.8848C31.5 57.0523 27.5825 53.1348 22.75 53.1348C17.9175 53.1348 14 57.0523 14 61.8848C14 66.7173 17.9175 70.6348 22.75 70.6348Z" fill="#46CECE"/>
<path d="M57.75 26.8848C62.5825 26.8848 66.5 22.9673 66.5 18.1348C66.5 13.3023 62.5825 9.38477 57.75 9.38477C52.9175 9.38477 49 13.3023 49 18.1348C49 22.9673 52.9175 26.8848 57.75 26.8848Z" fill="#46CECE"/>
<path d="M31.5 31.2598V40.0098C31.5 44.8221 27.5624 48.7598 22.75 48.7598C20.3438 48.7598 18.1562 47.7971 16.5814 46.1784C14.9624 44.6035 14 42.416 14 40.0098C14 35.1971 17.9376 31.2598 22.75 31.2598H31.5Z" fill="#1FA4A4"/>
<path d="M66.5 40.0098C66.5 44.8221 62.5624 48.7598 57.75 48.7598H49V40.0098C49 35.1971 52.9376 31.2598 57.75 31.2598C60.1562 31.2598 62.3437 32.2221 63.9186 33.8409C65.5376 35.416 66.5 37.6035 66.5 40.0098Z" fill="#1FA4A4"/>
</svg>
