<svg width="22" height="22" viewBox="0 0 22 22" fill="none" xmlns="http://www.w3.org/2000/svg">
<path d="M5.07141 21.9996L7.23291 18.5078H4.92703L1.44141 21.9996H5.07141Z" fill="#3E4347"/>
<path d="M20.5591 21.9996L17.0735 18.5078H14.7676L16.9291 21.9996H20.5591Z" fill="#3E4347"/>
<path d="M16.465 19.4548H5.53516L5.82666 19.0801H16.1742L16.465 19.4548Z" fill="#3E4347"/>
<path d="M17.5567 20.859H4.44336L4.85792 20.3262H17.1422L17.5567 20.859Z" fill="#3E4347"/>
<path d="M18.5057 6.53209V16.8439C18.5057 17.0811 18.3132 17.2729 18.0767 17.2729H3.95341C3.71623 17.2729 3.52441 17.0804 3.52441 16.8439V6.53278C3.52441 4.86491 3.91148 3.22866 4.64298 1.74847C5.13385 0.755031 6.16854 0.144531 7.27679 0.144531H14.754C15.8623 0.144531 16.8963 0.754344 17.3872 1.74778C18.1187 3.22797 18.5057 4.86422 18.5057 6.53209Z" fill="#3E4579"/>
<path d="M8.24204 11.292C8.24204 11.4886 8.16229 11.666 8.03373 11.7945C7.90448 11.9231 7.7271 12.0028 7.53116 12.0028H5.09466C4.7021 12.0028 4.38379 11.6845 4.38379 11.292V10.5068C4.38379 10.0242 4.85335 9.68185 5.3126 9.82966L7.74841 10.6148C8.04266 10.7097 8.24204 10.9833 8.24204 11.292Z" fill="#FFD93B"/>
<path d="M17.6454 10.5068V11.292C17.6454 11.6845 17.327 12.0028 16.9345 12.0028H14.498C14.302 12.0028 14.124 11.9231 13.9954 11.7945C13.8669 11.6653 13.7871 11.4879 13.7871 11.292C13.7871 10.9833 13.9865 10.7097 14.28 10.6148L16.7159 9.82966C17.1758 9.68185 17.6454 10.0242 17.6454 10.5068Z" fill="#FFD93B"/>
<path d="M17.1741 7.22356C12.9962 8.51194 8.82166 8.47894 4.85547 7.22356C4.85547 -0.171875 7.00941 0.145062 7.00941 0.145062L11.0141 0L15.0195 0.145062C15.0195 0.145062 17.1741 -0.171875 17.1741 7.22356Z" fill="url(#paint0_linear_2031_14258)"/>
<path d="M4.85547 6.625L11.0148 7.76625L17.1741 6.625V7.82056L11.0148 9.79506C11.0148 9.79506 5.81247 8.55756 4.85547 7.82056V6.625Z" fill="white"/>
<path d="M14.8967 13.3944V16.9364H7.13281V13.3944C7.13281 12.955 7.48825 12.5996 7.92687 12.5996H14.1027C14.5413 12.5996 14.8967 12.9557 14.8967 13.3944Z" fill="#767DB9"/>
<path d="M5.98776 14.897V16.3724C5.20263 16.3724 4.56738 15.6148 4.56738 14.6798V13.2051C5.35182 13.2044 5.98776 13.962 5.98776 14.897Z" fill="#E2FCFD"/>
<path d="M16.042 14.897V16.3724C16.8264 16.3724 17.4624 15.6148 17.4624 14.6798V13.2051C16.6786 13.2044 16.042 13.962 16.042 14.897Z" fill="#E2FCFD"/>
<path d="M19.2241 17.2153L18.5215 18.5009C18.4583 18.6171 18.3366 18.6893 18.2039 18.6893H3.79663C3.66463 18.6893 3.54295 18.6171 3.47901 18.5009L2.77638 17.2153C2.64438 16.9739 2.81901 16.6797 3.09401 16.6797H18.9058C19.1815 16.6797 19.3554 16.9746 19.2241 17.2153Z" fill="#87A6BA"/>
<path d="M13.938 13.6688C13.938 13.8029 13.8301 13.9108 13.696 13.9108H8.33282C8.19876 13.9108 8.09082 13.8029 8.09082 13.6688C8.09082 13.5403 8.19876 13.4316 8.33282 13.4316H13.696C13.8294 13.4316 13.938 13.5403 13.938 13.6688Z" fill="#0B2037"/>
<path d="M13.938 14.6942C13.938 14.8283 13.8301 14.9362 13.696 14.9362H8.33282C8.19876 14.9362 8.09082 14.8283 8.09082 14.6942C8.09082 14.5657 8.19876 14.457 8.33282 14.457H13.696C13.8294 14.4577 13.938 14.5657 13.938 14.6942Z" fill="#0B2037"/>
<path d="M13.938 15.7216C13.938 15.8556 13.8301 15.9636 13.696 15.9636H8.33282C8.19876 15.9636 8.09082 15.8556 8.09082 15.7216C8.09082 15.593 8.19876 15.4844 8.33282 15.4844H13.696C13.8294 15.4844 13.938 15.593 13.938 15.7216Z" fill="#0B2037"/>
<path d="M17.6463 10.5076V11.2955C17.6463 11.6825 17.33 12.0057 16.9361 12.0057H14.4954C14.3263 12.0057 14.1792 11.9424 14.0596 11.8441C15.6986 11.7809 17.0488 10.993 17.3795 9.95898C17.5404 10.0786 17.6463 10.2752 17.6463 10.5076Z" fill="#F4C534"/>
<path d="M8.24281 11.2953C8.24281 11.4919 8.16512 11.6679 8.03175 11.7944C7.90525 11.9209 7.72925 12.0055 7.53194 12.0055H5.09131C4.80325 12.0055 4.54956 11.8295 4.4375 11.5765C4.564 11.5834 4.6905 11.5834 4.817 11.5834C6.14663 11.5834 7.29956 11.2107 7.8695 10.6621C8.095 10.7886 8.24281 11.0279 8.24281 11.2953Z" fill="#F4C534"/>
<defs>
<linearGradient id="paint0_linear_2031_14258" x1="17.1741" y1="4.08875" x2="4.85547" y2="4.08875" gradientUnits="userSpaceOnUse">
<stop offset="0.4999" stop-color="#182F48"/>
<stop offset="0.5" stop-color="#0B2037"/>
</linearGradient>
</defs>
</svg>
