<svg width="64" height="69" viewBox="0 0 64 69" fill="none" xmlns="http://www.w3.org/2000/svg">
<path d="M50.3951 10.6312C47.9864 8.21797 45.1221 6.30157 41.9666 4.992C38.8111 3.68244 35.4265 3.00549 32.0072 3.00003C28.5878 2.99457 25.2011 3.66071 22.0414 4.96019C18.8817 6.25967 16.0112 8.16691 13.5947 10.5724C11.1783 12.9779 9.26343 15.8343 7.96013 18.9777C6.65683 22.121 5.99074 25.4893 6.0001 28.8893C6.00946 32.2892 6.69408 35.6539 8.01467 38.7901C9.33525 41.9262 11.2658 44.7722 13.6955 47.1645L32.0349 65L50.3951 47.1439C55.2644 42.3019 58 35.7349 58 28.8875C58 22.0401 55.2644 15.4731 50.3951 10.6312Z" fill="#E94162"/>
<g filter="url(#filter0_d_1_28)">
<circle cx="32" cy="29" r="19" fill="white"/>
</g>
<rect x="25" y="22" width="2" height="4" rx="1" fill="black"/>
<rect x="37" y="22" width="2" height="4" rx="1" fill="black"/>
<path d="M43 29C43 35.0751 38.0751 40 32 40C25.9249 40 21 35.0751 21 29" stroke="#E4113B" stroke-width="2" stroke-linecap="round"/>
<defs>
<filter id="filter0_d_1_28" x="10" y="10" width="44" height="44" filterUnits="userSpaceOnUse" color-interpolation-filters="sRGB">
<feFlood flood-opacity="0" result="BackgroundImageFix"/>
<feColorMatrix in="SourceAlpha" type="matrix" values="0 0 0 0 0 0 0 0 0 0 0 0 0 0 0 0 0 0 127 0" result="hardAlpha"/>
<feOffset dy="3"/>
<feGaussianBlur stdDeviation="1.5"/>
<feComposite in2="hardAlpha" operator="out"/>
<feColorMatrix type="matrix" values="0 0 0 0 0 0 0 0 0 0 0 0 0 0 0 0 0 0 0.25 0"/>
<feBlend mode="normal" in2="BackgroundImageFix" result="effect1_dropShadow_1_28"/>
<feBlend mode="normal" in="SourceGraphic" in2="effect1_dropShadow_1_28" result="shape"/>
</filter>
</defs>
</svg>
