<svg width="80" height="80" viewBox="0 0 80 80" fill="none" xmlns="http://www.w3.org/2000/svg">
<path d="M39.999 38.25L35.624 68.875H26.874C14.799 68.875 4.99902 59.075 4.99902 47V29.5H22.499C29.6303 29.5 36.0179 32.9561 39.999 38.25Z" fill="#EDBC62"/>
<path d="M74.999 29.5V47C74.999 59.075 65.199 68.875 53.124 68.875H44.374L39.999 38.25C43.9801 32.9561 50.3678 29.5 57.499 29.5H74.999Z" fill="#EF9C58"/>
<path d="M53.124 25.125C53.124 25.2561 53.124 25.3875 53.0803 25.5186C48.0928 26.3499 43.5867 28.625 39.999 31.8624C36.4115 28.6249 31.9054 26.3499 26.9178 25.5186C26.874 25.3875 26.874 25.2561 26.874 25.125C26.874 17.8624 32.7368 12 39.999 12C47.792 12 53.124 18.4258 53.124 25.125Z" fill="#EDBC62"/>
<path d="M44.374 51.375V68.875H35.624V51.375C35.624 46.4312 37.2428 41.8811 39.999 38.25C42.7553 41.8811 44.374 46.4312 44.374 51.375Z" fill="#E5A42B"/>
</svg>
