<svg width="80" height="80" viewBox="0 0 80 80" fill="none" xmlns="http://www.w3.org/2000/svg">
<path d="M33.3057 63.5352C33.8579 63.5352 34.3057 63.9829 34.3057 64.5352V68.9961C34.3056 69.5483 33.8579 69.9961 33.3057 69.9961C32.7536 69.9959 32.3058 69.5482 32.3057 68.9961V64.5352C32.3057 63.983 32.7535 63.5353 33.3057 63.5352ZM37.7676 63.5352C38.3197 63.5353 38.7676 63.983 38.7676 64.5352V68.9961C38.7675 69.5482 38.3197 69.996 37.7676 69.9961C37.2153 69.9961 36.7677 69.5483 36.7676 68.9961V64.5352C36.7676 63.9829 37.2153 63.5352 37.7676 63.5352ZM42.2285 63.5352C42.7808 63.5352 43.2285 63.9829 43.2285 64.5352V68.9961C43.2284 69.5483 42.7808 69.9961 42.2285 69.9961C41.6763 69.9961 41.2286 69.5483 41.2285 68.9961V64.5352C41.2285 63.9829 41.6763 63.5352 42.2285 63.5352ZM46.6895 63.5352C47.2417 63.5352 47.6895 63.9829 47.6895 64.5352V68.9961C47.6894 69.5483 47.2417 69.9961 46.6895 69.9961C46.1374 69.9959 45.6895 69.5482 45.6895 68.9961V64.5352C45.6895 63.983 46.1374 63.5354 46.6895 63.5352ZM13.2305 52.3818C13.7826 52.382 14.2305 52.8296 14.2305 53.3818V57.4287L22.5674 65.7656H26.6143C27.1664 65.7658 27.6142 66.2135 27.6143 66.7656C27.6142 67.3177 27.1664 67.7655 26.6143 67.7656H22.1533C21.8883 67.7656 21.6338 67.66 21.4463 67.4727L12.5234 58.5498C12.3361 58.3623 12.2305 58.1078 12.2305 57.8428V53.3818C12.2305 52.8296 12.6782 52.3818 13.2305 52.3818ZM66.7656 52.3818C67.3179 52.3819 67.7656 52.8296 67.7656 53.3818V57.8428C67.7656 58.1079 67.6601 58.3623 67.4727 58.5498L58.5498 67.4727C58.3623 67.6601 58.1079 67.7656 57.8428 67.7656H53.3818C52.8296 67.7656 52.3819 67.3178 52.3818 66.7656C52.3819 66.2134 52.8296 65.7656 53.3818 65.7656H57.4287L65.7656 57.4287V53.3818C65.7656 52.8296 66.2134 52.3819 66.7656 52.3818ZM50.8037 21.1572C51.0324 21.18 51.2481 21.2815 51.4121 21.4453L58.5498 28.583C58.7372 28.7704 58.8426 29.025 58.8428 29.29V50.7051C58.8426 50.9701 58.7372 51.2247 58.5498 51.4121L51.4121 58.5498C51.2247 58.7372 50.9701 58.8426 50.7051 58.8428H29.29C29.0251 58.8426 28.7704 58.7372 28.583 58.5498L21.4453 51.4121C21.2581 51.2247 21.1525 50.97 21.1523 50.7051V29.29L21.1572 29.1914C21.18 28.9627 21.2814 28.747 21.4453 28.583L28.583 21.4453C28.7704 21.258 29.0251 21.1526 29.29 21.1523H50.7051L50.8037 21.1572ZM23.1523 29.7041V50.29L29.7041 56.8428H50.29L56.8428 50.29V29.7041L50.29 23.1523H29.7041L23.1523 29.7041ZM45.6582 30.0752C45.9234 30.0752 46.1777 30.1807 46.3652 30.3682L50.1436 34.1465C50.331 34.334 50.4365 34.5884 50.4365 34.8535V46.1738C50.4365 46.4395 50.3306 46.6942 50.1426 46.8818L46.3643 50.6465C46.1768 50.8332 45.9228 50.9385 45.6582 50.9385H34.3379C34.0733 50.9385 33.8193 50.8332 33.6318 50.6465L29.8535 46.8818C29.6654 46.6942 29.5596 46.4395 29.5596 46.1738V34.8535C29.5596 34.5884 29.6651 34.334 29.8525 34.1465L33.6309 30.3682L33.7041 30.3018C33.882 30.156 34.1059 30.0752 34.3379 30.0752H45.6582ZM31.5596 35.2676V45.7578L34.752 48.9385H45.2441L48.4365 45.7578V35.2676L45.2441 32.0752H34.752L31.5596 35.2676ZM15.4609 46.2061C16.013 46.2063 16.4609 46.6539 16.4609 47.2061C16.4607 47.758 16.0129 48.2058 15.4609 48.2061H11C10.4479 48.2061 10.0002 47.7581 10 47.2061C10 46.6538 10.4477 46.2061 11 46.2061H15.4609ZM68.9961 46.2061C69.5483 46.2061 69.9961 46.6538 69.9961 47.2061C69.9959 47.7581 69.5482 48.206 68.9961 48.2061H64.5352C63.983 48.2061 63.5354 47.7581 63.5352 47.2061C63.5352 46.6538 63.9829 46.2061 64.5352 46.2061H68.9961ZM15.4609 41.7441C16.013 41.7444 16.4609 42.1921 16.4609 42.7441C16.4609 43.2963 16.013 43.7439 15.4609 43.7441H11C10.4477 43.7441 10 43.2964 10 42.7441C10.0001 42.1919 10.4478 41.7441 11 41.7441H15.4609ZM68.9961 41.7441C69.5483 41.7442 69.996 42.192 69.9961 42.7441C69.9961 43.2964 69.5483 43.7441 68.9961 43.7441H64.5352C63.9829 43.7441 63.5352 43.2964 63.5352 42.7441C63.5352 42.1919 63.9829 41.7441 64.5352 41.7441H68.9961ZM15.4609 37.2832C16.013 37.2835 16.4609 37.7311 16.4609 38.2832C16.4608 38.8352 16.0129 39.2829 15.4609 39.2832H11C10.4478 39.2832 10.0002 38.8353 10 38.2832C10 37.7309 10.4477 37.2832 11 37.2832H15.4609ZM68.9961 37.2832C69.5483 37.2833 69.9961 37.731 69.9961 38.2832C69.9959 38.8353 69.5482 39.2831 68.9961 39.2832H64.5352C63.983 39.2832 63.5353 38.8353 63.5352 38.2832C63.5352 37.7309 63.9829 37.2832 64.5352 37.2832H68.9961ZM15.4609 32.8213C16.0128 32.8216 16.4607 33.2694 16.4609 33.8213C16.4609 34.3734 16.013 34.821 15.4609 34.8213H11C10.4477 34.8213 10 34.3736 10 33.8213C10.0003 33.2692 10.4479 32.8213 11 32.8213H15.4609ZM68.9961 32.8213C69.5482 32.8214 69.9958 33.2693 69.9961 33.8213C69.9961 34.3735 69.5483 34.8212 68.9961 34.8213H64.5352C63.9829 34.8213 63.5352 34.3736 63.5352 33.8213C63.5354 33.2692 63.983 32.8213 64.5352 32.8213H68.9961ZM26.6143 12.2305C27.1664 12.2306 27.6143 12.6783 27.6143 13.2305C27.614 13.7825 27.1663 14.2303 26.6143 14.2305H22.5674L14.2305 22.5674V26.6143C14.2303 27.1663 13.7825 27.6141 13.2305 27.6143C12.6783 27.6143 12.2307 27.1664 12.2305 26.6143V22.1533L12.2354 22.0547C12.258 21.8257 12.3593 21.6105 12.5234 21.4463L21.4463 12.5234L21.5195 12.457C21.6975 12.3113 21.9213 12.2305 22.1533 12.2305H26.6143ZM57.9424 12.2354C58.171 12.2582 58.3859 12.3596 58.5498 12.5234L67.4727 21.4463C67.66 21.6338 67.7656 21.8883 67.7656 22.1533V26.6143C67.7654 27.1663 67.3178 27.6142 66.7656 27.6143C66.2135 27.6142 65.7658 27.1663 65.7656 26.6143V22.5674L57.4287 14.2305H53.3818C52.8297 14.2305 52.382 13.7826 52.3818 13.2305C52.3818 12.6782 52.8296 12.2305 53.3818 12.2305H57.8428L57.9424 12.2354ZM33.3057 10C33.8579 10 34.3057 10.4477 34.3057 11V15.4609C34.3054 16.013 33.8578 16.4609 33.3057 16.4609C32.7537 16.4608 32.3059 16.0129 32.3057 15.4609V11C32.3057 10.4478 32.7535 10.0002 33.3057 10ZM37.7676 10C38.3197 10.0001 38.7676 10.4478 38.7676 11V15.4609C38.7673 16.0129 38.3196 16.4608 37.7676 16.4609C37.2155 16.4609 36.7678 16.013 36.7676 15.4609V11C36.7676 10.4477 37.2153 10 37.7676 10ZM42.2285 10C42.7808 10 43.2285 10.4477 43.2285 11V15.4609C43.2283 16.013 42.7806 16.4609 42.2285 16.4609C41.6764 16.4609 41.2288 16.013 41.2285 15.4609V11C41.2285 10.4477 41.6763 10 42.2285 10ZM46.6895 10C47.2417 10 47.6895 10.4477 47.6895 11V15.4609C47.6892 16.013 47.2416 16.4609 46.6895 16.4609C46.1375 16.4607 45.6897 16.0129 45.6895 15.4609V11C45.6895 10.4479 46.1374 10.0002 46.6895 10Z" fill="url(#paint0_linear_2169_5509)"/>
<defs>
<linearGradient id="paint0_linear_2169_5509" x1="25.6552" y1="10" x2="55.0755" y2="10.4558" gradientUnits="userSpaceOnUse">
<stop stop-color="#2E6CE7"/>
<stop offset="1" stop-color="#0063F7"/>
</linearGradient>
</defs>
</svg>
