<svg width="80" height="80" viewBox="0 0 80 80" fill="none" xmlns="http://www.w3.org/2000/svg">
<path d="M43.4443 45.8253V34.6421H45.7023V45.8253H43.4443Z" fill="url(#paint0_linear_2169_6481)"/>
<path d="M42.3072 45.8253H39.8509L38.8745 43.285H34.4043L33.4812 45.8253H31.0859L35.4417 34.6421H37.8294L42.3072 45.8253ZM38.1498 41.4008L36.6089 37.251L35.0985 41.4008H38.1498Z" fill="url(#paint1_linear_2169_6481)"/>
<path d="M39.9997 70.0015C48.1706 70.0015 54.7944 56.7932 54.7944 40.5C54.7944 24.2068 48.1706 10.9985 39.9997 10.9985C31.8289 10.9985 25.2051 24.2068 25.2051 40.5C25.2051 56.7932 31.8289 70.0015 39.9997 70.0015Z" stroke="url(#paint2_linear_2169_6481)" stroke-width="2" stroke-linecap="round" stroke-linejoin="round"/>
<path d="M66.1668 53.7766C69.8432 46.4298 61.1077 34.5311 46.6554 27.2001C32.2032 19.8691 17.507 19.8819 13.8306 27.2287C10.1542 34.5755 18.8897 46.4742 33.3419 53.8052C47.7942 61.1362 62.4903 61.1234 66.1668 53.7766Z" stroke="url(#paint3_linear_2169_6481)" stroke-width="2" stroke-linecap="round" stroke-linejoin="round"/>
<path d="M46.6886 53.7838C61.123 46.4172 69.8296 34.4971 66.1354 27.1593C62.4412 19.8216 47.745 19.845 33.3106 27.2115C18.8762 34.578 10.1696 46.4982 13.8638 53.8359C17.558 61.1737 32.2542 61.1503 46.6886 53.7838Z" stroke="url(#paint4_linear_2169_6481)" stroke-width="2" stroke-linecap="round" stroke-linejoin="round"/>
<defs>
<linearGradient id="paint0_linear_2169_6481" x1="44.0335" y1="34.6421" x2="45.141" y2="34.6456" gradientUnits="userSpaceOnUse">
<stop stop-color="#2E6CE7"/>
<stop offset="1" stop-color="#0063F7"/>
</linearGradient>
<linearGradient id="paint1_linear_2169_6481" x1="34.014" y1="34.6421" x2="39.5166" y2="34.7276" gradientUnits="userSpaceOnUse">
<stop stop-color="#2E6CE7"/>
<stop offset="1" stop-color="#0063F7"/>
</linearGradient>
<linearGradient id="paint2_linear_2169_6481" x1="32.926" y1="10.9985" x2="47.4384" y2="11.1113" gradientUnits="userSpaceOnUse">
<stop stop-color="#2E6CE7"/>
<stop offset="1" stop-color="#0063F7"/>
</linearGradient>
<linearGradient id="paint3_linear_2169_6481" x1="10.6478" y1="33.589" x2="17.3505" y2="20.6287" gradientUnits="userSpaceOnUse">
<stop stop-color="#2E6CE7"/>
<stop offset="1" stop-color="#0063F7"/>
</linearGradient>
<linearGradient id="paint4_linear_2169_6481" x1="20.8144" y1="33.5889" x2="46.8907" y2="21.4442" gradientUnits="userSpaceOnUse">
<stop stop-color="#2E6CE7"/>
<stop offset="1" stop-color="#0063F7"/>
</linearGradient>
</defs>
</svg>
