<svg width="80" height="80" viewBox="0 0 80 80" fill="none" xmlns="http://www.w3.org/2000/svg">
<path d="M59.3271 58.3262C59.8791 58.3264 60.3269 58.7742 60.3271 59.3262V68.9912C60.3271 69.5434 59.8793 69.991 59.3271 69.9912H20.2129C19.6606 69.9912 19.2129 69.5435 19.2129 68.9912V59.3262C19.2131 58.7741 19.6607 58.3262 20.2129 58.3262C20.7649 58.3263 21.2127 58.7742 21.2129 59.3262V67.9912H58.3271V59.3262C58.3274 58.7741 58.775 58.3262 59.3271 58.3262ZM25.498 53.4941C26.0503 53.4941 26.498 53.9419 26.498 54.4941V59.3271C26.4977 59.8792 26.0501 60.3271 25.498 60.3271C24.9461 60.327 24.4983 59.8791 24.498 59.3271V54.4941C24.498 53.9419 24.9459 53.4943 25.498 53.4941ZM30.3311 53.4941C30.8833 53.4942 31.3311 53.9419 31.3311 54.4941V59.3271C31.3308 59.8792 30.8831 60.3271 30.3311 60.3271C29.779 60.3271 29.3314 59.8792 29.3311 59.3271V54.4941C29.3311 53.9419 29.7788 53.4941 30.3311 53.4941ZM35.1641 53.4941C35.7161 53.4944 36.1641 53.942 36.1641 54.4941V59.3271C36.1638 59.879 35.7159 60.3269 35.1641 60.3271C34.612 60.3271 34.1644 59.8792 34.1641 59.3271V54.4941C34.1641 53.9419 34.6118 53.4941 35.1641 53.4941ZM39.9961 53.4941C40.5484 53.4941 40.9961 53.9419 40.9961 54.4941V59.3271C40.9958 59.8792 40.5482 60.3271 39.9961 60.3271C39.444 60.3271 38.9964 59.8791 38.9961 59.3271V54.4941C38.9961 53.9419 39.4439 53.4942 39.9961 53.4941ZM44.8291 53.4941C45.3813 53.4943 45.8291 53.9419 45.8291 54.4941V59.3271C45.8288 59.8791 45.3811 60.327 44.8291 60.3271C44.277 60.3271 43.8294 59.8792 43.8291 59.3271V54.4941C43.8291 53.9419 44.2768 53.4941 44.8291 53.4941ZM49.6611 53.4941C50.2134 53.4941 50.6611 53.9419 50.6611 54.4941V59.3271C50.6608 59.8792 50.2132 60.3271 49.6611 60.3271C49.1092 60.327 48.6614 59.8791 48.6611 59.3271V54.4941C48.6611 53.942 49.109 53.4943 49.6611 53.4941ZM54.4941 53.4941C55.0464 53.4941 55.4941 53.9419 55.4941 54.4941V59.3271C55.4938 59.8792 55.0462 60.3271 54.4941 60.3271C53.942 60.3271 53.4944 59.8792 53.4941 59.3271V54.4941C53.4941 53.9419 53.9419 53.4941 54.4941 53.4941ZM20.665 24.498C21.2173 24.498 21.6649 24.9458 21.665 25.498C21.665 26.0503 21.2173 26.498 20.665 26.498H12V54.4004H20.665C21.2173 54.4004 21.6649 54.8482 21.665 55.4004C21.6648 55.9525 21.2172 56.4004 20.665 56.4004H11C10.448 56.4002 10.0002 55.9524 10 55.4004V25.498C10.0001 24.946 10.448 24.4983 11 24.498H20.665ZM68.9922 24.498C69.5442 24.4983 69.9921 24.946 69.9922 25.498V55.4004C69.992 55.9524 69.5442 56.4002 68.9922 56.4004H59.3271C58.775 56.4004 58.3274 55.9525 58.3271 55.4004C58.3273 54.8482 58.7749 54.4004 59.3271 54.4004H67.9922V26.498H59.3271C58.7749 26.498 58.3271 26.0503 58.3271 25.498C58.3273 24.9458 58.7749 24.498 59.3271 24.498H68.9922ZM61.7285 29.3311C62.2806 29.3313 62.7285 29.7789 62.7285 30.3311V49.6611C62.7284 50.2131 62.2805 50.6608 61.7285 50.6611H18.2646C17.7124 50.6611 17.2648 50.2133 17.2646 49.6611V30.3311C17.2646 29.7788 17.7124 29.3311 18.2646 29.3311H61.7285ZM19.2646 48.6611H60.7285V31.3311H19.2646V48.6611ZM30.3311 35.3867C30.8833 35.3868 31.3311 35.8345 31.3311 36.3867V43.6055C31.331 44.1577 30.8833 44.6054 30.3311 44.6055H23.1123C22.56 44.6055 22.1123 44.1577 22.1123 43.6055V36.3867C22.1123 35.8344 22.56 35.3867 23.1123 35.3867H30.3311ZM43.6055 35.3867C44.1578 35.3867 44.6055 35.8344 44.6055 36.3867V43.6055C44.6055 44.1577 44.1577 44.6055 43.6055 44.6055H36.3867C35.8345 44.6054 35.3867 44.1577 35.3867 43.6055V36.3867C35.3867 35.8345 35.8345 35.3868 36.3867 35.3867H43.6055ZM56.9824 35.3916C57.4866 35.4429 57.8799 35.869 57.8799 36.3867V43.6055C57.8799 44.1577 57.4322 44.6055 56.8799 44.6055H49.6611C49.109 44.6053 48.6611 44.1576 48.6611 43.6055V36.3867C48.6611 35.8346 49.109 35.3869 49.6611 35.3867H56.8799L56.9824 35.3916ZM24.1123 42.6055H29.3311V37.3867H24.1123V42.6055ZM37.3867 42.6055H42.6055V37.3867H37.3867V42.6055ZM50.6611 42.6055H55.8799V37.3867H50.6611V42.6055ZM25.498 19.666C26.0503 19.666 26.498 20.1137 26.498 20.666V25.499C26.4976 26.051 26.0501 26.499 25.498 26.499C24.9461 26.4989 24.4985 26.0509 24.498 25.499V20.666C24.498 20.1138 24.9459 19.6662 25.498 19.666ZM59.3271 10C59.8791 10.0002 60.3269 10.448 60.3271 11V20.665C60.3271 21.2172 59.8793 21.6648 59.3271 21.665C58.7749 21.665 58.3271 21.2173 58.3271 20.665V12H21.2129V20.665C21.2129 21.2172 20.7651 21.6649 20.2129 21.665C19.6606 21.665 19.2129 21.2173 19.2129 20.665V11C19.2131 10.4479 19.6607 10 20.2129 10H59.3271Z" fill="url(#paint0_linear_2169_5321)"/>
<defs>
<linearGradient id="paint0_linear_2169_5321" x1="25.6542" y1="10" x2="55.0726" y2="10.4558" gradientUnits="userSpaceOnUse">
<stop stop-color="#2E6CE7"/>
<stop offset="1" stop-color="#0063F7"/>
</linearGradient>
</defs>
</svg>
