<svg width="80" height="80" viewBox="0 0 80 80" fill="none" xmlns="http://www.w3.org/2000/svg">
<path d="M44.542 10C45.243 10 45.8437 10.567 45.8438 11.2969V15.4082C48.4723 16.0396 50.9547 17.0653 53.2041 18.4307L56.2158 15.4941C56.7132 14.9783 57.5319 14.9783 58.0293 15.4941L64.4365 21.7939H64.4355C64.9693 22.2906 64.9696 23.1228 64.4385 23.6211L64.4395 23.6221L61.4668 26.5674C62.8476 28.772 63.8979 31.214 64.5303 33.7842H68.7285C69.4294 33.7842 70.03 34.3505 70.0303 35.0801V43.9844C70.0302 44.7142 69.4295 45.2812 68.7285 45.2812H64.5283C63.8875 47.8583 62.8473 50.2907 61.4668 52.4961L64.4395 55.4424C64.9706 55.9404 64.9686 56.7727 64.4355 57.2695L58.0293 63.5703C57.5306 64.0878 56.709 64.0866 56.2119 63.5664L53.2041 60.6328C51.2678 61.8087 49.1512 62.74 46.9268 63.374C46.7754 63.4662 46.5984 63.5205 46.4082 63.5205C46.4043 63.5205 46.4004 63.5196 46.3965 63.5195C46.2129 63.5676 46.0287 63.6142 45.8438 63.6582V67.7686C45.8435 68.4983 45.2429 69.0645 44.542 69.0645H40.3418C40.289 69.0731 40.2349 69.0791 40.1797 69.0791C40.1248 69.0791 40.0711 69.073 40.0186 69.0645H35.4883C34.7874 69.0645 34.1868 68.4983 34.1865 67.7686V63.6562C31.5575 63.0247 29.0749 61.9986 26.8252 60.6328L23.8174 63.5664C23.3201 64.0862 22.4994 64.0872 22.001 63.5693V63.5703L15.5947 57.2705H15.5938C15.0592 56.7721 15.0597 55.935 15.5957 55.4375L18.5625 52.4961C17.1823 50.2921 16.1332 47.8506 15.501 45.2812H11.3018C10.6008 45.2812 10 44.7142 10 43.9844V35.0801C10.0003 34.3505 10.6009 33.7842 11.3018 33.7842H15.502C16.1428 31.2068 17.1817 28.7731 18.5625 26.5674L15.5986 23.6289C15.06 23.1315 15.0586 22.293 15.5947 21.7939L22.001 15.4941C22.4983 14.9782 23.317 14.9784 23.8145 15.4941L26.8252 18.4307C29.0735 17.0652 31.5653 16.0292 34.1865 15.4062V11.2969C34.1866 10.567 34.7873 10 35.4883 10H44.542ZM36.1865 15.9912C36.1865 16.7094 35.6294 17.1358 35.1475 17.2373L35.1484 17.2393C32.3732 17.8343 29.7407 18.9345 27.4111 20.4229C27.3798 20.4429 27.3468 20.4611 27.3135 20.4775C26.9011 20.6801 26.2871 20.7015 25.8174 20.2422L22.9092 17.4053L17.5137 22.7119L20.3711 25.5449L20.4551 25.6348C20.8449 26.0913 20.8171 26.6662 20.6162 27.0615C20.5991 27.0952 20.5804 27.1286 20.5596 27.1602C19.0486 29.4471 17.9442 32.0194 17.3262 34.7607L17.3242 34.7598C17.2139 35.2589 16.7708 35.7841 16.0762 35.7842H12V43.2812H16.0762C16.7721 43.2814 17.2169 43.8077 17.3262 44.3076L17.4463 44.8164C18.0303 47.1839 19.0007 49.4381 20.2803 51.4727L20.5596 51.9053L20.6162 52.0029C20.8302 52.4239 20.847 53.0482 20.373 53.5166L20.374 53.5176L17.5137 56.3525L22.9092 61.6582L25.8174 58.8232C26.2285 58.421 26.7501 58.3869 27.1504 58.5205L27.3135 58.5879L27.4111 58.6426C29.1204 59.7346 30.9876 60.6095 32.9648 61.2393V47.6836L28.1787 45.9717C27.4632 47.1836 26.1333 47.9931 24.623 47.9932C22.3669 47.9932 20.509 46.1898 20.5088 43.9307C20.5088 41.6713 22.3667 39.8682 24.623 39.8682C26.8792 39.8683 28.7373 41.6714 28.7373 43.9307C28.7373 43.9696 28.7345 44.0083 28.7334 44.0469L34.3018 46.0381C34.6994 46.1804 34.9648 46.5571 34.9648 46.9795V61.7822C35.0274 61.7964 35.0896 61.8125 35.1523 61.8262L35.1514 61.8271C35.6324 61.9301 36.1864 62.357 36.1865 63.0732V67.0645H39.1797V60.0928H37.0664C36.5141 60.0928 36.0664 59.6451 36.0664 59.0928V41.6123L27.3057 37.7344C26.9438 37.5742 26.71 37.216 26.71 36.8203V32.9824C24.8889 32.5718 23.5128 30.9673 23.5127 29.0234C23.5128 26.7643 25.3709 24.9611 27.627 24.9609C29.8832 24.961 31.7411 26.7642 31.7412 29.0234C31.7411 30.9079 30.4482 32.4733 28.71 32.9414V36.1699L37.4707 40.0479C37.8323 40.208 38.0662 40.5664 38.0664 40.9619V58.0928H39.1797V33.0176C37.3999 32.5776 36.0655 30.9914 36.0654 29.0771C36.0656 26.818 37.9236 25.0148 40.1797 25.0146C42.4359 25.0147 44.2938 26.818 44.2939 29.0771C44.2939 30.9916 42.9597 32.5777 41.1797 33.0176V52.6162H42.2939V40.9619C42.2941 40.5665 42.5272 40.2081 42.8887 40.0479L51.6504 36.1689V32.9414C49.9119 32.4735 48.6182 30.9081 48.6182 29.0234C48.6182 26.7643 50.4763 24.9611 52.7324 24.9609C54.9886 24.961 56.8466 26.7642 56.8467 29.0234C56.8466 30.9671 55.4713 32.5716 53.6504 32.9824V36.8203C53.6504 37.216 53.4165 37.5742 53.0547 37.7344L44.2939 41.6113V53.6162C44.2939 54.1684 43.8461 54.6162 43.2939 54.6162H41.1797V67.0645H43.8438V63.0732C43.8439 62.3487 44.4107 61.9187 44.8955 61.8223C45.067 61.7854 45.2379 61.7467 45.4082 61.7061V46.9795L45.4199 46.8232C45.4762 46.4665 45.7236 46.1627 46.0713 46.0381L51.625 44.0469C51.6239 44.0083 51.6231 43.9695 51.623 43.9307C51.623 41.6713 53.481 39.8682 55.7373 39.8682C57.9935 39.8684 59.8516 41.6715 59.8516 43.9307C59.8514 46.1897 57.9933 47.993 55.7373 47.9932C54.2271 47.9932 52.8963 47.1844 52.1807 45.9727L47.4082 47.6826V61.1318C49.2545 60.5129 51.0094 59.671 52.6191 58.6426L52.7168 58.5879C53.1293 58.3851 53.7431 58.3637 54.2129 58.8232L57.1201 61.6582L62.5166 56.3525L59.6562 53.5176V53.5166C59.1829 53.0483 59.2001 52.4237 59.4141 52.0029L59.4707 51.9053C60.9818 49.6182 62.087 47.0453 62.7051 44.3037C62.8158 43.805 63.2601 43.2814 63.9541 43.2812H68.0303V35.7842H63.9541C63.2585 35.784 62.8135 35.2576 62.7041 34.7578L62.585 34.248C61.9592 31.7116 60.8884 29.3059 59.4707 27.1602C59.4499 27.1286 59.4312 27.0952 59.4141 27.0615C59.1997 26.6398 59.1826 26.0135 59.6592 25.5449L62.5166 22.7119L57.1201 17.4053L54.2129 20.2422C53.7432 20.7014 53.1292 20.6802 52.7168 20.4775C52.6834 20.4611 52.6505 20.4429 52.6191 20.4229C50.2912 18.9355 47.6714 17.8473 44.8779 17.2383V17.2363C44.3972 17.1329 43.8438 16.7069 43.8438 15.9912V12H36.1865V15.9912ZM24.623 41.8682C23.4395 41.8682 22.5088 42.8074 22.5088 43.9307C22.509 45.0538 23.4397 45.9932 24.623 45.9932C25.5844 45.993 26.3793 45.3729 26.6436 44.5381C26.6532 44.4839 26.6664 44.4295 26.6855 44.376H26.6846C26.7173 44.232 26.7373 44.0833 26.7373 43.9307C26.7373 42.8075 25.8064 41.8683 24.623 41.8682ZM55.7373 41.8682C54.5538 41.8682 53.623 42.8074 53.623 43.9307C53.6231 44.0832 53.6412 44.2321 53.6738 44.376L53.7031 44.4736C53.7072 44.4901 53.7097 44.5069 53.7129 44.5234C53.9726 45.3656 54.7703 45.9932 55.7373 45.9932C56.9205 45.993 57.8514 45.0537 57.8516 43.9307C57.8516 42.8075 56.9206 41.8684 55.7373 41.8682ZM40.1797 27.0146C38.9964 27.0148 38.0656 27.9541 38.0654 29.0771C38.0655 30.1153 38.8611 30.9946 39.916 31.1221C40.0001 31.0991 40.0883 31.086 40.1797 31.0859C40.271 31.0859 40.3593 31.0991 40.4434 31.1221C41.4985 30.9948 42.2939 30.1154 42.2939 29.0771C42.2938 27.9541 41.363 27.0147 40.1797 27.0146ZM27.627 26.9609C26.4437 26.9611 25.5128 27.9004 25.5127 29.0234C25.5128 30.0782 26.334 30.9704 27.4141 31.0752C27.5074 31.0464 27.6072 31.0312 27.71 31.0312C27.791 31.0313 27.8698 31.0413 27.9453 31.0596C28.973 30.9089 29.7411 30.0436 29.7412 29.0234C29.7411 27.9003 28.8104 26.961 27.627 26.9609ZM52.7324 26.9609C51.5491 26.9611 50.6182 27.9003 50.6182 29.0234C50.6182 30.0435 51.3866 30.9097 52.4141 31.0605C52.4899 31.0421 52.5689 31.0313 52.6504 31.0312C52.7529 31.0313 52.8522 31.0465 52.9453 31.0752C54.0257 30.9706 54.8466 30.0784 54.8467 29.0234C54.8466 27.9003 53.9158 26.961 52.7324 26.9609ZM16.9756 22.1816C16.9745 22.1805 16.9738 22.1788 16.9727 22.1777L16.9141 22.126L16.9756 22.1816Z" fill="url(#paint0_linear_2169_6448)"/>
<defs>
<linearGradient id="paint0_linear_2169_6448" x1="25.6641" y1="10" x2="55.101" y2="10.4634" gradientUnits="userSpaceOnUse">
<stop stop-color="#2E6CE7"/>
<stop offset="1" stop-color="#0063F7"/>
</linearGradient>
</defs>
</svg>
