<svg width="80" height="80" viewBox="0 0 80 80" fill="none" xmlns="http://www.w3.org/2000/svg">
<path d="M10.8477 48.3418C12.7665 48.1874 12.2021 50.6343 12.2021 51.8369V59.6641C12.2021 60.9177 12.0865 62.7085 12.3037 63.8984C13.1617 68.6152 17.8495 67.3411 18.4521 68.4004C18.7946 69.0041 18.4554 69.6541 17.8877 69.9424C14.1497 70.4505 10.6874 67.5371 10.2178 63.8193C10.0624 62.5881 10.1387 61.2848 10.1387 60.0439L10.1445 53.5479C10.1477 52.0999 9.55034 49.0076 10.8477 48.3418ZM40.6602 67.8838C41.3436 67.8583 42.4936 67.7103 43.082 68.0908C43.9415 68.6467 43.4756 69.7774 42.5957 69.9434L42.5967 69.9424C41.9289 69.979 40.6935 70.1106 40.1289 69.749C39.2572 69.1883 39.7437 68.0018 40.6602 67.8838ZM21.8301 67.8838C25.4078 67.5254 25.2352 69.5927 23.8857 69.9434L23.8877 69.9424C23.2803 69.9822 21.8555 70.0852 21.3496 69.7666C20.4904 69.2218 20.9373 68.0399 21.8301 67.8838ZM34.3652 67.8838C38.0077 67.5095 37.6391 69.6849 36.3311 69.9434V69.9424C35.6475 69.9392 34.4358 70.1185 33.8506 69.7793C32.9293 69.2441 33.398 68.029 34.3652 67.8838ZM30.2441 67.8828C31.0305 68.3497 31.346 69.6205 30.2441 69.9424C29.5765 69.9408 28.0738 70.0777 27.5488 69.7129C26.7277 69.1409 27.25 67.9752 28.1396 67.8828C28.8389 67.8271 29.5433 67.8573 30.2441 67.8828ZM68.6934 59.2617C69.6828 59.2888 69.8247 60.0116 69.8311 60.8477C69.8517 63.7436 70.0067 65.7385 67.7959 67.9766C65.9641 69.8307 63.9675 69.9469 61.5537 69.9453H47.248L47.25 69.9424C45.5549 69.8707 45.7703 68.1414 46.75 67.918C47.3923 67.7714 49.269 67.8812 50.0303 67.8828L58.8438 67.8857C61.5382 67.8874 64.3676 68.481 66.4609 66.3848C69.0549 63.7852 66.4896 59.9422 68.6934 59.2617ZM50.4805 15.2549C52.1218 15.1083 53.7664 16.1594 54.1709 17.8096C54.3834 18.6792 54.2666 19.8422 54.2666 20.7549L54.2627 25.7764H59.1904C60.1023 25.7748 61.184 25.644 62.0674 25.8574C64.3369 26.407 65.4614 29.2982 64.1768 31.2432C63.6533 32.0365 62.1452 33.3777 61.4141 34.1152L54.2627 41.2803C54.3008 44.0424 54.2633 46.8081 54.2617 49.5703L54.2715 52.0771C54.2778 52.7685 54.4505 53.6275 53.9668 54.1914C52.9899 54.6406 50.3269 54.3838 49.1992 54.3838L41.1855 54.3809C38.7003 56.4628 35.9798 59.5099 33.6611 61.834C32.4067 63.0908 31.4585 64.5084 29.6221 64.835H29.5205C25.7539 64.8779 25.8174 61.7002 25.8174 58.9189L25.8203 54.3809C23.9012 54.3618 19.2929 54.6279 17.626 54.2266C15.5198 53.7184 14.49 50.9652 15.5986 49.1396C16.1284 48.2683 17.6708 46.9369 18.459 46.1611L22.6885 42.0166C23.7479 40.978 24.8297 39.9454 25.8193 38.8398V30.7617C25.8192 29.296 25.1245 25.9178 26.9131 25.7822C30.5717 25.5067 34.9981 25.8285 38.752 25.7744L38.7539 25.7764C39.6895 25.0341 40.7519 23.8392 41.6162 22.9727L46.208 18.3945C47.5211 17.0613 48.5473 15.5863 50.4805 15.2549ZM27.8428 59.1758C27.8428 59.9068 27.7475 60.7953 27.8838 61.5088C28.0519 62.3912 29.0651 63.0542 29.8691 62.5273C31.0363 61.7628 32.8871 59.6056 33.9561 58.5605C35.3929 57.1906 36.7525 55.7444 38.1973 54.3809H27.8457L27.8428 59.1758ZM68.5293 52.9199C70.4779 52.8727 70.2717 56.2382 68.9824 56.7432C67.1903 56.818 67.2161 53.3198 68.5293 52.9199ZM25.8193 41.8828C24.9855 42.5819 24.2467 43.3799 23.4746 44.1475L18.833 48.7432C17.8974 49.6575 16.4588 50.6467 17.7002 52.0117C18.5772 52.6075 19.967 52.3434 20.9678 52.3418L25.8193 52.3369L25.8125 43.7158C25.8141 43.4338 25.9488 42.033 25.8193 41.8828ZM39.9971 27.751C38.8362 27.7913 37.2788 30.694 36.1006 31.0078C35.6043 31.1398 34.9151 30.6809 34.8975 30.1475C34.8673 29.2809 36.1499 28.3722 36.7002 27.751H27.8477V36.6914C29.4304 35.0395 30.3517 36.7456 29.7236 37.6504C29.2637 38.3129 28.3995 38.9978 27.8477 39.7129C27.8033 41.1131 27.8477 42.526 27.8477 43.9277V52.335H39.999C40.4477 51.8142 40.9423 51.3363 41.4307 50.8506C41.8715 50.3982 42.235 49.9744 42.8613 49.7832C44.5884 50.3853 43.7938 51.3633 42.8613 52.335H52.2695V42.7822C51.9983 43.3684 50.6264 44.8354 50.0332 45.0664C49.2355 45.377 48.4106 44.4594 48.8135 43.7139C49.3482 42.7277 51.7203 40.1674 52.2676 42.7822V27.751H44.0635C42.7123 27.7494 41.345 27.7032 39.9971 27.751ZM68.5303 46.5225C70.7058 46.3648 70.0198 49.8504 69.1113 50.3135C67.1146 50.519 67.2758 47.0195 68.5303 46.5225ZM46.833 45.7529C47.491 45.71 48.3728 46.2565 48.1133 47.0225C47.9119 47.6182 46.3447 49.0793 45.7705 49.3789C45.0822 49.4729 44.2443 48.8162 44.5361 48.0723C44.7205 47.6053 46.37 45.9982 46.833 45.7529ZM10.8477 41.8828C11.5867 41.8287 12.1136 42.0661 12.1992 42.9023C12.3055 43.9426 12.5646 45.763 11.4609 46.2217V46.2197C9.32664 46.4853 9.90407 42.2604 10.8477 41.8828ZM68.5303 40.0742C70.2303 39.9309 70.4876 43.1264 69.1113 43.9072C67.4286 44.1048 66.9888 40.8006 68.5303 40.0742ZM10.8486 35.4131C11.307 35.3414 11.7631 35.3581 12.0137 35.8232C12.3593 36.4661 12.6453 39.1049 11.4609 39.7148C9.60914 40.1522 9.98298 36.5097 10.2637 35.8516C10.3635 35.6159 10.6314 35.5086 10.8486 35.4131ZM61.6172 27.8037C60.7909 27.6349 59.7902 27.7478 58.9434 27.751H54.2627V38.3584C55.7313 37.006 57.0644 35.4914 58.5107 34.1104C59.4133 33.2532 61.8519 31.027 62.5166 30.0664C63.0384 29.3129 62.5244 27.9885 61.6172 27.8037ZM68.4512 33.6328C70.7299 33.5213 70.0864 36.9926 69.1113 37.5127C67.4239 37.8074 67.0525 34.2892 68.4512 33.6328ZM32.9385 31.75C33.6331 31.664 34.4724 32.1115 34.2773 32.9414C34.1709 33.397 32.3507 35.1358 31.8809 35.415H31.8818C31.1857 35.5455 30.4425 34.9527 30.6074 34.2168C30.7634 33.5269 32.3312 32.1434 32.9385 31.75ZM16.3525 10.1221C18.8091 10.0775 23.1589 9.86773 25.541 10.1289C26.7241 10.2579 27.4793 12.1864 24.6689 12.1641L19.5146 12.1582C18.3506 12.1582 16.901 12.0196 15.7861 12.292C11.9325 13.2334 12.1987 16.5289 12.2051 19.5283V25.04L12.2031 25.0371V29.6816C12.2047 30.3553 12.4206 32.2744 12.0166 32.8213C11.4267 33.6161 10.2834 33.2073 10.1738 32.2852C10.085 31.5269 10.1406 30.7142 10.1406 29.9512V19.4922C10.1375 15.0367 10.6748 10.7608 16.3525 10.1221ZM68.4512 27.0332C70.7045 26.7354 70.0279 30.537 69.1113 31.041C67.2177 31.358 67.2601 27.5908 68.4512 27.0332ZM50.4795 17.2871V17.2861C49.7326 17.5426 49.1709 18.299 48.627 18.8438L46.417 21.0566C44.8439 22.6223 43.1849 24.1384 41.6895 25.7773H52.2676V21.1992C52.2677 19.729 52.7593 17.0757 50.4795 17.2871ZM68.4512 20.585C70.687 20.354 70.0769 24.0145 69.1113 24.4902C67.4937 24.8455 67.0699 21.3704 68.4512 20.585ZM55.4336 10.1211C57.608 10.0924 62.2548 9.87036 64.2705 10.1953C68.8793 10.9376 71.4038 17.4367 68.9805 18.0898L68.9824 18.0918C67.4394 17.9341 67.9636 16.6202 67.6387 15.5195C66.6205 12.0708 63.7106 12.1578 60.9336 12.1562L56.8545 12.166C56.3201 12.1724 55.4274 12.2888 54.9531 12.0039C54.0634 11.4671 54.5709 10.3107 55.4336 10.1211ZM48.8467 10.1211C49.5635 10.1147 51.1344 9.97678 51.7402 10.2412C52.7678 10.6905 52.3504 11.8747 51.4639 12.1582C50.7819 12.1566 49.2179 12.3169 48.6533 12.0859C47.685 11.6892 47.948 10.397 48.8467 10.1211ZM35.9053 10.1211C36.7601 10.1147 40.0898 9.61748 39.457 11.4414C39.3381 11.7855 39.0663 12.0001 38.7539 12.1562C37.9038 12.1993 36.7478 12.2391 35.9072 12.1562L35.9053 12.1582C35.1379 11.6119 34.8211 10.5958 35.9053 10.1211ZM29.6221 10.1211C30.5784 10.1131 33.8885 9.66855 32.8672 11.6406C32.7102 11.9447 32.5007 12.0595 32.1836 12.1582C31.4177 12.1789 29.7353 12.3235 29.1055 11.9541C28.2459 11.4508 28.7388 10.3123 29.6221 10.1211ZM42.5967 10.1211C43.3451 10.1147 44.5519 9.98185 45.2529 10.2158C46.3361 10.5774 45.9433 11.8189 45.0869 12.1582C44.1608 12.1885 43.2298 12.163 42.3037 12.1582C41.3585 11.572 41.3836 10.3649 42.5967 10.1211Z" fill="url(#paint0_linear_2169_5187)"/>
<defs>
<linearGradient id="paint0_linear_2169_5187" x1="25.6566" y1="10" x2="55.0795" y2="10.4559" gradientUnits="userSpaceOnUse">
<stop stop-color="#2E6CE7"/>
<stop offset="1" stop-color="#0063F7"/>
</linearGradient>
</defs>
</svg>
