<svg width="168" height="57" viewBox="0 0 168 57" fill="none" xmlns="http://www.w3.org/2000/svg">
<path d="M8.16282 1.14258C10.3973 1.14265 12.6456 2.08683 14.9099 3.9707C14.9116 3.97436 14.9173 3.97449 14.9206 3.97754C14.9239 3.98049 14.9241 3.9819 14.9275 3.9873C15.01 4.06049 15.0568 4.15736 15.0798 4.25977C15.1162 4.42864 15.0827 4.60735 14.9597 4.75L13.8396 6.02344C13.6401 6.24969 13.309 6.28227 13.0808 6.10742H13.0788C13.0727 6.10137 13.0644 6.09989 13.0593 6.0957C13.0531 6.0896 13.0524 6.08374 13.0456 6.08008C11.3255 4.59768 9.64259 3.85352 7.99778 3.85352C6.94602 3.85353 6.04425 4.16301 5.29661 4.78223C4.54557 5.4039 4.17064 6.12757 4.17063 6.95605C4.17063 7.68572 4.47958 8.38164 5.09739 9.04297C5.71574 9.71952 7.01396 10.5129 8.99485 11.4219C11.4054 12.5389 13.0447 13.6156 13.9099 14.6484C14.7609 15.6953 15.1862 16.8742 15.1863 18.1846C15.1863 20.033 14.4584 21.5969 13.0066 22.8799C11.5546 24.161 9.73953 24.8027 7.56126 24.8027C6.10926 24.8027 4.72156 24.5202 3.4011 23.9541C2.09642 23.3971 1.01688 22.6284 0.157936 21.6523C0.156264 21.6517 0.15249 21.6518 0.149147 21.6494C0.145824 21.6458 0.145535 21.6417 0.142311 21.6387C0.135565 21.6326 0.12843 21.6245 0.118873 21.6172L0.125709 21.6143C-0.0551416 21.4033 -0.0421748 21.0774 0.171608 20.8633L1.41477 19.6279C1.62266 19.4212 1.93468 19.4006 2.1511 19.5547L2.15696 19.5498C2.16971 19.5618 2.1813 19.5722 2.19407 19.583C2.19905 19.589 2.2065 19.5889 2.21262 19.5947C2.216 19.599 2.21609 19.6046 2.21946 19.6113C3.85753 21.2347 5.59242 22.0508 7.42161 22.0508C8.72131 22.0508 9.82759 21.6796 10.74 20.9365C11.6515 20.1917 12.1091 19.3141 12.1091 18.3076C12.109 17.4811 11.806 16.7432 11.2029 16.0947C10.5995 15.4615 9.23878 14.661 7.12278 13.6973C4.8517 12.6498 3.30318 11.6132 2.48411 10.5938C1.66505 9.57491 1.25559 8.40885 1.25559 7.09961C1.25571 5.39096 1.90895 3.97023 3.2136 2.83984C4.51947 1.71004 6.16892 1.14258 8.16282 1.14258ZM34.8347 1.16602C36.6948 1.16602 38.2886 1.88305 39.613 3.31543C40.9318 4.75216 41.5935 6.47919 41.5935 8.50098V23.9883C41.5934 24.5287 41.3426 24.8017 40.8396 24.8018H39.3386C38.8392 24.8016 38.5906 24.5285 38.5906 23.9883V8.50098C38.5905 7.37053 38.2242 6.40832 37.4929 5.61523C36.7621 4.8228 35.8741 4.42578 34.8347 4.42578C33.7911 4.42588 32.906 4.82301 32.1765 5.61523C31.444 6.40832 31.0798 7.37053 31.0798 8.50098V23.9883C31.0798 24.5287 30.8308 24.8018 30.3288 24.8018H28.823C28.3252 24.8016 28.076 24.5285 28.0759 23.9883V8.50098C28.0759 7.37053 27.7103 6.40832 26.9773 5.61523C26.2477 4.82288 25.3607 4.42588 24.3181 4.42578C23.2775 4.42578 22.3898 4.82273 21.6618 5.61523C20.9311 6.40831 20.5662 7.37055 20.5661 8.50098V23.9883C20.5661 24.5286 20.3135 24.8016 19.8152 24.8018H18.3093C17.8113 24.8017 17.5603 24.5287 17.5603 23.9883V8.50098C17.5603 6.47926 18.2227 4.75213 19.5437 3.31543C20.8642 1.88295 22.4568 1.16602 24.3181 1.16602C26.1815 1.16611 27.7754 1.88305 29.0964 3.31543C29.2689 3.50326 29.425 3.6917 29.5779 3.88867C29.7274 3.69161 29.8872 3.50334 30.0564 3.31543C31.3785 1.88308 32.9702 1.16612 34.8347 1.16602ZM50.8396 1.16602C54.5105 1.16602 57.4881 4.35134 57.573 8.30957C57.5747 8.36808 57.5808 8.42355 57.5808 8.48145C57.5808 8.58699 57.5688 8.6884 57.5671 8.79395V23.9512C57.5671 24.4917 57.3148 24.7666 56.8161 24.7666H55.3113C54.8129 24.7665 54.5622 24.4916 54.5622 23.9512V8.46484C54.5622 7.33436 54.1979 6.37343 53.4665 5.5791C52.7358 4.78551 51.8477 4.39062 50.8083 4.39062C49.7647 4.39073 48.878 4.78571 48.1501 5.5791C47.4193 6.37343 47.1072 7.37793 47.1072 8.50781C47.1071 8.51216 47.0943 9.04223 47.1032 8.82715V12.5566H51.6062C52.0212 12.5571 51.9617 13.2712 51.9616 14.1494C51.9616 15.0301 52.0212 15.7417 51.6062 15.7422H47.1032V23.9863C47.1032 24.5293 46.852 24.8018 46.3523 24.8018H44.8484C44.3492 24.8018 44.0994 24.5293 44.0993 23.9863V8.63574C44.0993 8.63574 44.103 8.63595 44.1032 8.63379C44.1032 8.58498 44.0993 8.5333 44.0993 8.48145C44.0994 4.44032 47.1165 1.16607 50.8396 1.16602ZM67.5691 1.16602C69.7424 1.16602 71.5992 2.00268 73.1423 3.67676C74.6847 5.35072 75.4557 7.36687 75.4558 9.72461C75.4558 12.0935 74.6847 14.1082 73.1423 15.7725C72.0315 16.9768 70.7593 17.7473 69.3269 18.0859L76.2068 24.8018H72.4548L65.4812 18.0029C63.7657 17.4249 62.9511 16.5802 62.6882 16.2588V11.0078C62.8068 11.3821 63.2154 12.5096 64.1169 13.4717C65.0736 14.499 66.2189 15.0224 67.5691 15.0225C68.9222 15.0225 70.0733 14.5058 71.0222 13.4717C71.9761 12.4401 72.4548 11.1912 72.4548 9.72461C72.4548 8.25626 71.9761 7.00522 71.0222 5.97363C70.0733 4.94154 68.9221 4.42578 67.5691 4.42578C66.219 4.42587 65.0669 4.94153 64.1169 5.97363C63.163 7.00522 62.6883 8.25626 62.6882 9.72461V11.0078C62.6636 10.9301 62.6494 10.8855 62.6482 10.8809L62.5866 16.1299C62.5876 16.1314 62.6215 16.1772 62.6882 16.2588V23.9883C62.6881 24.5292 62.4387 24.8016 61.9392 24.8018H60.4353C59.9333 24.8018 59.6844 24.5293 59.6843 23.9883V9.72461C59.6844 7.3668 60.4539 5.35074 61.989 3.67676C63.5258 2.00278 65.3858 1.16611 67.5691 1.16602ZM105.774 1.16602C107.987 1.16602 109.956 1.78444 111.679 3.02344L109.935 5.69629C108.705 4.8501 107.316 4.42578 105.774 4.42578C103.593 4.42584 101.732 5.26268 100.195 6.93652C98.657 8.60877 97.8884 10.6244 97.8884 12.9824C97.8884 15.3537 98.657 17.3711 100.195 19.0391C101.732 20.707 103.593 21.5419 105.774 21.542C107.316 21.542 108.705 21.1175 109.935 20.2695L111.679 22.9434C109.956 24.1812 107.987 24.8018 105.774 24.8018C102.772 24.8017 100.205 23.648 98.0788 21.3389C95.9489 19.0285 94.8845 16.2439 94.8845 12.9824C94.8845 9.72518 95.9488 6.93906 98.0788 4.62988C100.205 2.32079 102.772 1.16608 105.774 1.16602ZM144.344 1.16602C146.516 1.16602 148.373 2.00268 149.916 3.67676C151.458 5.35075 152.231 7.36679 152.231 9.72461C152.231 12.0935 151.458 14.1082 149.916 15.7725C148.805 16.9767 147.534 17.7473 146.101 18.0859L152.98 24.8018H149.226L142.255 18.0029C140.538 17.4248 139.724 16.5802 139.462 16.2588V11.0127C139.582 11.3918 139.992 12.5137 140.889 13.4717C141.848 14.499 142.993 15.0224 144.344 15.0225C145.694 15.0225 146.847 14.5058 147.798 13.4717C148.751 12.4401 149.226 11.1912 149.226 9.72461C149.226 8.25626 148.751 7.00522 147.798 5.97363C146.847 4.94156 145.694 4.42578 144.344 4.42578C142.993 4.42589 141.839 4.94167 140.889 5.97363C139.937 7.00522 139.462 8.25626 139.462 9.72461V11.0127C139.436 10.9325 139.422 10.8861 139.421 10.8809L139.361 16.1299C139.364 16.1343 139.397 16.1799 139.462 16.2588V23.9883C139.462 24.5293 139.211 24.8018 138.713 24.8018H137.209C136.709 24.8017 136.456 24.5292 136.456 23.9883V9.72461C136.456 7.36687 137.227 5.35071 138.762 3.67676C140.301 2.00279 142.158 1.16612 144.344 1.16602ZM167.251 1.55664C167.753 1.55664 168 1.82885 168 2.37305V4.00195C168 4.54487 167.753 4.81836 167.251 4.81836H157.488V11.5068H167.251C167.753 11.5068 168 11.7768 168 12.3203V13.9492C168 14.494 167.753 14.7646 167.251 14.7646H157.488V21.542H167.251C167.753 21.542 168 21.8151 168 22.3555V23.9883C168 24.5288 167.753 24.8018 167.251 24.8018H155.235C154.735 24.8018 154.484 24.5287 154.484 23.4482V2.22266C154.484 2.20936 154.49 1.55664 155.235 1.55664H167.251ZM90.0398 1.16602C90.8639 1.16602 90.7478 1.8799 90.7478 2.75781C90.7478 3.63996 90.8639 4.35059 90.0398 4.35059H84.9773C84.9874 4.45186 84.9978 4.55156 84.9978 4.65527V23.8018C84.9978 25.0481 84.3348 24.7783 83.5202 24.7783C82.7046 24.7783 82.0407 25.0482 82.0407 23.8018V4.65527C82.0407 4.55156 82.0538 4.45186 82.0622 4.35059H76.6218C75.7978 4.35052 75.9138 3.63992 75.9138 2.75781C75.9138 1.87994 75.7978 1.16608 76.6218 1.16602H90.0398Z" fill="#E4113B"/>
<path fill-rule="evenodd" clip-rule="evenodd" d="M131.446 18.1542C132.225 16.6278 132.668 14.8689 132.668 12.9996C132.668 7.11352 128.271 2.34082 122.846 2.34082V5.19602C126.819 5.19602 130.039 8.69059 130.039 12.9996C130.039 14.2912 129.749 15.5095 129.239 16.582L131.446 18.1542Z" fill="#E4113B"/>
<path fill-rule="evenodd" clip-rule="evenodd" d="M122.846 4.45898C119.843 4.45898 117.26 6.30998 115.936 8.9968L117.42 9.67765C118.496 7.61557 120.509 6.20749 122.846 6.20749C126.303 6.20749 129.105 9.24937 129.105 13.002C129.105 16.7522 126.303 19.7935 122.846 19.7935C122.778 19.7935 122.711 19.7746 122.64 19.7703V21.5182C122.711 21.52 122.778 21.542 122.846 21.542C127.196 21.542 130.716 17.7161 130.716 13.002C130.716 8.28422 127.196 4.45898 122.846 4.45898Z" fill="#CCCBCB"/>
<path fill-rule="evenodd" clip-rule="evenodd" d="M122.64 19.77C119.283 19.6504 116.589 16.6744 116.589 13.0017C116.589 11.7852 116.906 10.6626 117.42 9.67732L115.936 8.99707C115.345 10.1971 114.977 11.546 114.977 13.0017C114.977 17.6408 118.393 21.3989 122.64 21.5178V19.77Z" fill="#E4113B"/>
<path fill-rule="evenodd" clip-rule="evenodd" d="M122.845 26.0001C127.294 26.0001 131.169 23.3609 133.234 19.4533L131.116 17.9141C129.506 21.0963 126.426 23.2785 122.845 23.2785C119.265 23.2785 116.188 21.0963 114.579 17.9141L112.459 19.4533C114.523 23.3609 118.396 26.0001 122.845 26.0001Z" fill="#E4113B"/>
<path fill-rule="evenodd" clip-rule="evenodd" d="M113.377 13.0015C113.377 7.32347 117.615 2.72464 122.845 2.72464C128.078 2.72464 132.316 7.32347 132.316 13.0015C132.316 14.7915 131.857 16.4479 131.116 17.9145L133.234 19.4532C134.24 17.5503 134.824 15.3528 134.824 13.0015C134.824 5.82021 129.46 0 122.845 0C116.23 0 110.869 5.82021 110.869 13.0015C110.869 15.3528 111.453 17.5503 112.459 19.4532L114.579 17.9145C113.837 16.4479 113.377 14.7915 113.377 13.0015Z" fill="#CCCBCB"/>
<path d="M1.81738 46.1484C1.83496 42.8438 2.7666 40.084 4.41895 37.7285H6.1416C4.92871 39.4688 3.76855 43.0195 3.76855 46.1484C3.76855 49.2949 4.92871 52.8281 6.1416 54.5859H4.41895C2.7666 52.2305 1.83496 49.4707 1.81738 46.1484ZM21.6631 45.6211V46.9746H15.2646V52.4766H13.6299V46.9746H7.30176V45.6211H21.6631ZM20.3096 37.6758V39.0117H15.4404C15.4668 40.9629 17.8926 42.7031 20.8721 43.1074L20.2568 44.4258C17.6729 44.0215 15.4404 42.7471 14.4912 40.9453C13.5156 42.7471 11.292 44.0215 8.74316 44.4258L8.11035 43.1074C11.0547 42.7031 13.4805 40.9629 13.542 39.0117H8.6377V37.6758H20.3096ZM27.1826 46.1484C27.165 49.4707 26.2334 52.2305 24.5811 54.5859H22.8584C24.0713 52.8281 25.2314 49.2949 25.2314 46.1484C25.2314 43.0195 24.0713 39.4688 22.8584 37.7285H24.5811C26.2334 40.084 27.165 42.8438 27.1826 46.1484Z" fill="black"/>
<path d="M47.9865 38.9766C47.9865 41.543 50.7287 43.9688 53.7522 44.5137L52.9787 45.9023C50.465 45.3574 48.1447 43.7051 47.1252 41.4902C46.0881 43.6875 43.7766 45.3398 41.2541 45.9023L40.5158 44.5137C43.5041 43.9512 46.2287 41.543 46.2287 38.9766V37.7812H47.9865V38.9766ZM54.4025 49.0312V50.4199H39.9885V49.0312H54.4025ZM76.108 38.3086V48.5391H68.7428V38.3086H76.108ZM70.3775 39.627V47.1855H74.4557V39.627H70.3775ZM80.4147 36.7441V42.9141H82.9459V44.3203H80.4147V52.4941H78.7447V36.7441H80.4147ZM109.081 45.1289V46.4648H98.1123V38.0449H108.923V39.3984H99.7998V41.5254H108.589V42.8438H99.7998V45.1289H109.081ZM110.716 49.1367V50.5078H96.3018V49.1367H110.716ZM137.167 38.2031V39.6797C137.15 41.5957 137.167 43.7754 136.499 47.0449L134.865 46.8691C135.155 45.5244 135.322 44.3379 135.41 43.2656L125.935 43.8281L125.689 42.3867L135.497 42C135.533 41.1562 135.533 40.3916 135.533 39.6797V39.5742H126.163V38.2031H137.167ZM138.82 49.0664V50.4551H124.458V49.0664H129.925V45.0762H131.578V49.0664H138.82ZM156.887 37.9219C159.022 37.9219 160.587 39.7324 160.842 42.6504H164.094V36.7441H165.746V52.5293H164.094V44.0039H160.859C160.675 47.0713 159.075 48.9785 156.887 48.9785C154.531 48.9785 152.879 46.834 152.896 43.4414C152.879 40.0664 154.531 37.9219 156.887 37.9219ZM156.887 39.416C155.463 39.416 154.478 40.9629 154.478 43.4414C154.478 45.9375 155.463 47.4844 156.887 47.4844C158.31 47.4844 159.295 45.9375 159.295 43.4414C159.295 40.9629 158.31 39.416 156.887 39.416Z" fill="black"/>
</svg>
