<svg width="182" height="26" viewBox="0 0 182 26" fill="none" xmlns="http://www.w3.org/2000/svg">
<path d="M8.8428 1.14209C11.2635 1.14209 13.6993 2.08634 16.1524 3.97021C16.1542 3.97388 16.1604 3.974 16.1641 3.97705C16.1677 3.98005 16.1674 3.98153 16.1709 3.98682C16.2604 4.06003 16.311 4.15678 16.336 4.25928C16.3755 4.42813 16.3402 4.60684 16.2071 4.74951L14.9932 6.02295C14.777 6.24925 14.4182 6.28193 14.1709 6.10693H14.169C14.1623 6.10083 14.153 6.09949 14.1475 6.09521C14.141 6.08922 14.1408 6.08324 14.1338 6.07959C12.2704 4.59718 10.4469 3.85313 8.66506 3.85303C7.52562 3.85303 6.54828 4.1625 5.7383 4.78174C4.92471 5.4034 4.51761 6.12709 4.5176 6.95557C4.5176 7.68523 4.85319 8.38115 5.52248 9.04248C6.19239 9.71906 7.59902 10.5124 9.74514 11.4214C12.3565 12.5384 14.1321 13.6151 15.0694 14.6479C15.9913 15.6948 16.4521 16.8737 16.4522 18.1841C16.4522 20.0326 15.6629 21.5964 14.0899 22.8794C12.5169 24.1604 10.5512 24.8022 8.19143 24.8022C6.6184 24.8022 5.11512 24.5198 3.68459 23.9536C2.27114 23.3966 1.10145 22.628 0.170921 21.6519C0.169123 21.6513 0.165675 21.6512 0.162132 21.6489C0.15849 21.6453 0.15794 21.6412 0.15432 21.6382C0.147088 21.6321 0.140089 21.624 0.129906 21.6167L0.135765 21.6138C-0.0598539 21.4028 -0.0450665 21.0768 0.186546 20.8628L1.53323 19.6274C1.75852 19.4207 2.09665 19.4 2.33108 19.5542L2.33694 19.5493C2.35071 19.5613 2.36319 19.5717 2.37698 19.5825C2.3824 19.5886 2.39083 19.5883 2.39748 19.5942C2.40114 19.5985 2.40067 19.6041 2.40432 19.6108C4.17883 21.2342 6.05852 22.0502 8.04006 22.0503C9.44808 22.0503 10.6464 21.6791 11.6348 20.936C12.6225 20.1911 13.1182 19.3137 13.1182 18.3071C13.1181 17.4806 12.7911 16.7427 12.1377 16.0942C11.4843 15.461 10.0096 14.6607 7.71682 13.6968C5.2565 12.6493 3.57876 11.6127 2.69143 10.5933C1.80411 9.57442 1.36037 8.40836 1.36037 7.09912C1.3605 5.39048 2.0681 3.96974 3.48147 2.83936C4.89611 1.70954 6.68282 1.14215 8.8428 1.14209ZM181.189 1.55615C181.732 1.55617 182 1.82841 182 2.37256V4.00146C182 4.54442 181.732 4.81883 181.189 4.81885H170.612V11.5063H181.189C181.732 11.5064 182 11.7764 182 12.3198V13.9487C182 14.4935 181.732 14.7641 181.189 14.7642H170.612V21.5415H181.189C181.732 21.5415 182 21.8147 182 22.355V23.9878C182 24.5283 181.732 24.8022 181.189 24.8022H168.171C167.629 24.8022 167.357 24.5282 167.357 23.4478V2.22217C167.358 2.20476 167.367 1.5562 168.171 1.55615H181.189ZM37.7383 1.16553C39.7535 1.16553 41.4803 1.88246 42.9151 3.31494C44.3437 4.75162 45.0605 6.47879 45.0606 8.50049V23.9878C45.0606 24.5283 44.7882 24.8013 44.2432 24.8013H42.6182C42.0768 24.8013 41.8067 24.5283 41.8067 23.9878V8.50049C41.8066 7.37014 41.4104 6.40778 40.6182 5.61475C39.8265 4.82225 38.8644 4.42529 37.7383 4.42529C36.6074 4.42532 35.6479 4.82227 34.8574 5.61475C34.064 6.40779 33.67 7.37013 33.6699 8.50049V23.9878C33.6699 24.5283 33.4003 24.8013 32.8565 24.8013H31.2256C30.6861 24.8012 30.416 24.5283 30.416 23.9878V8.50049C30.416 7.37012 30.0197 6.40779 29.2256 5.61475C28.4352 4.82244 27.4743 4.42534 26.3447 4.42529C25.2176 4.42529 24.2564 4.82241 23.4678 5.61475C22.6762 6.40779 22.2804 7.37012 22.2803 8.50049V23.9878C22.2803 24.5282 22.0068 24.8011 21.4668 24.8013H19.836C19.2964 24.8013 19.0235 24.5283 19.0235 23.9878V8.50049C19.0235 6.47879 19.7418 4.75163 21.1729 3.31494C22.6034 1.88248 24.3284 1.16553 26.3447 1.16553C28.3635 1.16557 30.0904 1.88251 31.5215 3.31494C31.7084 3.50279 31.8774 3.69118 32.043 3.88818C32.205 3.69113 32.3782 3.50285 32.5615 3.31494C33.9939 1.88261 35.7184 1.16555 37.7383 1.16553ZM55.0772 1.16553C59.0538 1.16577 62.2792 4.351 62.3711 8.30908C62.373 8.36759 62.3799 8.42306 62.3799 8.48096C62.3799 8.5865 62.3671 8.68791 62.3653 8.79346V23.9507C62.3653 24.4912 62.0919 24.7661 61.5518 24.7661H59.9209C59.381 24.766 59.1094 24.4911 59.1094 23.9507V8.46436C59.1094 7.33388 58.7152 6.37294 57.9229 5.57861C57.1312 4.78489 56.169 4.39014 55.043 4.39014C53.9123 4.39019 52.9517 4.78517 52.1631 5.57861C51.3714 6.37294 51.0332 7.37745 51.0332 8.50732C51.033 8.51502 51.0196 9.04105 51.0293 8.82666V12.5562H55.9063C56.3563 12.5562 56.292 13.2706 56.292 14.1489C56.292 15.0299 56.3563 15.7417 55.9063 15.7417H51.0293V23.9858C51.0293 24.5287 50.7571 24.8012 50.2158 24.8013H48.586C48.0452 24.8013 47.7745 24.5287 47.7744 23.9858V8.63525C47.7744 8.63525 47.778 8.63534 47.7783 8.6333C47.7783 8.58449 47.7744 8.53281 47.7744 8.48096C47.7745 4.43977 51.0438 1.16553 55.0772 1.16553ZM73.2002 1.16553C75.5546 1.16553 77.5656 2.0023 79.2373 3.67627C80.9083 5.35023 81.744 7.36635 81.7442 9.72412C81.7442 12.0931 80.9084 14.1077 79.2373 15.772C78.0341 16.9761 76.657 17.7468 75.1055 18.0854L82.5576 24.8013H78.4932L70.9385 18.0024C69.0817 17.4249 68.1987 16.5814 67.9131 16.2593V11.0093C68.0424 11.3855 68.4856 12.5116 69.461 13.4722C70.4973 14.4992 71.7377 15.0228 73.2002 15.0229C74.6661 15.0229 75.9134 14.5062 76.9414 13.4722C77.9749 12.4405 78.4932 11.1908 78.4932 9.72412C78.4931 8.25599 77.9746 7.00561 76.9414 5.97412C75.9134 4.94186 74.6661 4.42529 73.2002 4.42529C71.7376 4.4254 70.4901 4.94196 69.461 5.97412C68.4276 7.00565 67.9132 8.25588 67.9131 9.72412V11.0093C67.8855 10.929 67.8701 10.8836 67.8692 10.8804L67.8028 16.1294C67.8028 16.1294 67.8391 16.1758 67.9131 16.2593V23.9878C67.9131 24.5289 67.642 24.8013 67.1006 24.8013H65.4717C64.9279 24.8012 64.6582 24.5289 64.6582 23.9878V9.72412C64.6583 7.36635 65.4922 5.35023 67.1553 3.67627C68.8202 2.00235 70.8351 1.16563 73.2002 1.16553ZM114.59 1.16553C116.987 1.16561 119.12 1.78395 120.987 3.02295L119.097 5.6958C117.764 4.84969 116.26 4.42537 114.59 4.42529C112.227 4.42529 110.21 5.26294 108.545 6.93701C106.879 8.6092 106.046 10.6241 106.046 12.9819C106.046 15.3532 106.879 17.3706 108.545 19.0386C110.21 20.7065 112.227 21.5415 114.59 21.5415C116.26 21.5414 117.764 21.117 119.097 20.269L120.987 22.9438C119.12 24.1816 116.987 24.8012 114.59 24.8013C111.337 24.8013 108.555 23.6484 106.252 21.3394C103.944 19.029 102.792 16.2434 102.792 12.9819C102.792 9.72476 103.945 6.93854 106.252 4.62939C108.555 2.32022 111.337 1.16553 114.59 1.16553ZM156.374 1.16553C158.727 1.16559 160.738 2.00226 162.409 3.67627C164.08 5.3502 164.917 7.36641 164.917 9.72412C164.917 12.0929 164.08 14.1077 162.409 15.772C161.206 16.9762 159.828 17.7468 158.276 18.0854L165.729 24.8013H161.662L154.109 18.0024C152.251 17.4248 151.369 16.5813 151.084 16.2593V11.0122C151.215 11.3914 151.657 12.5142 152.63 13.4722C153.668 14.4995 154.909 15.0229 156.374 15.0229C157.836 15.0229 159.085 14.5061 160.114 13.4722C161.148 12.4405 161.662 11.1908 161.662 9.72412C161.662 8.25593 161.148 7.00563 160.114 5.97412C159.085 4.94192 157.836 4.42536 156.374 4.42529C154.909 4.42529 153.659 4.94186 152.63 5.97412C151.599 7.0056 151.084 8.25601 151.084 9.72412V11.0122C151.056 10.9309 151.04 10.8845 151.039 10.8804L150.975 16.1294C150.977 16.133 151.013 16.1791 151.084 16.2593V23.9878C151.084 24.5288 150.812 24.8012 150.272 24.8013H148.644C148.102 24.8013 147.827 24.5289 147.827 23.9878V9.72412C147.827 7.3664 148.663 5.35021 150.326 3.67627C151.993 2.0022 154.006 1.16553 156.374 1.16553ZM97.544 1.16553C98.4366 1.16561 98.3106 1.87951 98.3106 2.75732C98.3106 3.63946 98.4366 4.35002 97.544 4.3501H92.0596C92.0706 4.45137 92.0811 4.55107 92.0811 4.65479V23.8013C92.0811 25.0477 91.3629 24.7778 90.4805 24.7778C89.5969 24.7779 88.878 25.0476 88.878 23.8013V4.65479C88.878 4.55107 88.8913 4.45137 88.9004 4.3501H83.0078C82.115 4.3501 82.2412 3.63951 82.2412 2.75732C82.2412 1.87946 82.1151 1.16553 83.0078 1.16553H97.544Z" fill="white"/>
<path fill-rule="evenodd" clip-rule="evenodd" d="M142.4 18.1537C143.244 16.6273 143.724 14.8684 143.724 12.9991C143.724 7.11303 138.96 2.34033 133.084 2.34033V5.19553C137.387 5.19553 140.875 8.6901 140.875 12.9991C140.875 14.2907 140.562 15.509 140.009 16.5815L142.4 18.1537Z" fill="white"/>
<path fill-rule="evenodd" clip-rule="evenodd" d="M133.084 4.4585C129.83 4.4585 127.031 6.30949 125.598 8.99631L127.205 9.67716C128.37 7.61508 130.552 6.207 133.084 6.207C136.828 6.207 139.864 9.24889 139.864 13.0015C139.864 16.7517 136.828 19.793 133.084 19.793C133.009 19.793 132.937 19.7741 132.861 19.7698V21.5177C132.937 21.5195 133.009 21.5415 133.084 21.5415C137.796 21.5415 141.609 17.7156 141.609 13.0015C141.609 8.28373 137.796 4.4585 133.084 4.4585Z" fill="#CCCBCB"/>
<path fill-rule="evenodd" clip-rule="evenodd" d="M132.861 19.7695C129.223 19.6499 126.305 16.6739 126.305 13.0012C126.305 11.7847 126.649 10.6621 127.205 9.67683L125.598 8.99658C124.957 10.1966 124.559 11.5455 124.559 13.0012C124.559 17.6403 128.26 21.3984 132.861 21.5174V19.7695Z" fill="white"/>
<path fill-rule="evenodd" clip-rule="evenodd" d="M133.082 26.0001C137.901 26.0001 142.1 23.3609 144.337 19.4533L142.042 17.9141C140.299 21.0963 136.962 23.2785 133.082 23.2785C129.204 23.2785 125.871 21.0963 124.128 17.9141L121.83 19.4533C124.067 23.3609 128.263 26.0001 133.082 26.0001Z" fill="white"/>
<path fill-rule="evenodd" clip-rule="evenodd" d="M122.826 13.001C122.826 7.32298 127.417 2.72415 133.082 2.72415C138.751 2.72415 143.342 7.32298 143.342 13.001C143.342 14.791 142.845 16.4474 142.042 17.9141L144.337 19.4527C145.427 17.5498 146.06 15.3523 146.06 13.001C146.06 5.81973 140.248 -0.000488281 133.082 -0.000488281C125.916 -0.000488281 120.108 5.81973 120.108 13.001C120.108 15.3523 120.741 17.5498 121.83 19.4527L124.128 17.9141C123.323 16.4474 122.826 14.791 122.826 13.001Z" fill="#CCCBCB"/>
</svg>
