<svg width="139" height="140" viewBox="0 0 139 140" fill="none" xmlns="http://www.w3.org/2000/svg">
<path d="M1 133L138.5 8" stroke="#E94162"/>
<rect x="20" width="100" height="140" fill="white"/>
<path d="M65.4959 63.3642C62.5882 63.3642 71.6143 63.5985 72.2758 63.626C77.3882 63.7914 82.2113 63.6398 87.1308 62.0689C89.1841 61.4074 94.9166 59.2302 92.8634 55.8127C91.6645 53.8283 84.8019 53.8421 82.9692 53.7318C76.2996 53.3322 69.8504 52.657 63.9525 56.3363C60.0665 58.7616 59.2396 65.3072 64.9998 65.7206C68.3346 65.9549 70.2225 65.4726 73.5986 64.6733" stroke="black" stroke-width="1.19" stroke-linecap="round" stroke-linejoin="round"/>
<path d="M61.3205 67.2778C63.6907 69.648 63.7044 76.166 63.9249 78.4811C64.6553 85.9775 62.8225 92.3302 67.3149 99.0687C68.6653 101.094 77.65 98.0077 79.8135 97.5116C81.6463 97.0982 83.4377 96.5607 85.2842 96.2024C87.5855 95.7615 93.7315 95.7064 95.1785 92.8125C95.8537 91.4621 93.9245 82.4774 93.6213 80.8237C92.3535 74.0576 92.574 65.9411 92.574 59.2026" stroke="black" stroke-width="1.19" stroke-linecap="round" stroke-linejoin="round"/>
<path d="M93.8831 69.8823C93.3595 69.6205 92.6705 69.5653 92.3259 69.0968C92.2157 68.9452 92.4224 68.6834 92.5878 68.5732C93.6626 67.8566 94.9855 67.581 96.2395 67.2778C97.5211 66.9609 98.8302 66.6853 100.153 66.4924C101.504 66.2994 108.724 64.508 109.537 67.5397C111.977 76.6622 103.254 81.8711 95.206 81.8711C95.0131 81.8711 95.5367 81.6506 95.7297 81.6092C96.3635 81.4852 96.9561 81.7195 97.5487 81.8711" stroke="black" stroke-width="1.19" stroke-linecap="round" stroke-linejoin="round"/>
<path d="M54.5544 33.1443C54.5544 30.3882 59.0054 33.2821 59.2396 35.2251C59.7495 39.3316 49.4419 46.1803 57.4207 49.0328C58.6471 49.4738 59.3361 49.5703 60.5488 49.8183" stroke="black" stroke-width="1.19" stroke-linecap="round" stroke-linejoin="round"/>
<path d="M68.872 25.8545C68.872 22.3819 73.2679 30.4571 73.0336 32.8824C72.7304 36.1621 69.9193 35.9003 68.0865 38.0913C65.7577 40.8887 65.6474 46.8969 69.3956 48.771" stroke="black" stroke-width="1.19" stroke-linecap="round" stroke-linejoin="round"/>
<path d="M76.961 47.2138C74.1361 45.7945 77.2091 41.5088 78.5182 39.9241C81.412 36.4515 85.1602 40.1859 85.8079 33.6679C85.9319 32.3725 86.428 31.0083 85.8079 29.7543" stroke="black" stroke-width="1.19" stroke-linecap="round" stroke-linejoin="round"/>
<path d="M32.9194 93.0606C32.0651 93.0606 33.9805 91.6412 34.7384 91.2416C36.9019 90.0978 39.0103 88.8438 41.2565 87.8517C46.0244 85.7571 51.4814 85.2059 56.1115 82.9046" stroke="black" stroke-width="1.19" stroke-linecap="round" stroke-linejoin="round"/>
<path d="M32.4096 94.3697C32.4096 92.6748 30.5906 94.5351 30.3288 95.1552C29.3642 97.4014 30.7422 96.0923 31.6379 96.9742C32.3544 97.6908 30.1359 98.7243 30.3288 99.3168C30.4528 99.6889 31.1693 99.5097 31.376 99.8405C32.2442 101.301 30.8524 101.218 30.8524 102.183C30.8524 102.831 32.1202 101.839 32.4096 102.445C32.8781 103.382 31.6379 106.097 32.6714 107.13C34.3526 108.811 33.953 110.741 35.014 113.386C35.2621 114.02 35.9924 114.048 36.3094 114.696" stroke="black" stroke-width="1.19" stroke-linecap="round" stroke-linejoin="round"/>
<path d="M38.652 115.467C35.9649 115.467 43.0204 113.951 44.1228 113.648C45.8729 113.152 47.6229 112.684 49.3317 112.091C52.7078 110.892 58.5644 107.144 62.6158 107.144" stroke="black" stroke-width="1.19" stroke-linecap="round" stroke-linejoin="round"/>
<path d="M56.897 82.9046C55.6568 82.2845 59.8322 81.6368 60.8106 82.1191C62.8914 83.1526 59.2534 85.1783 59.2534 86.0327C59.2534 86.6666 61.9543 85.9638 61.8579 86.5563C61.7201 87.4107 60.5763 87.8103 60.3007 88.6372C59.9838 89.5742 63.167 88.4304 63.167 89.4226C63.167 89.9325 62.2299 90.2494 62.3815 90.7317C62.5469 91.2416 64.7242 91.3932 64.7242 92.0271C64.7242 93.1433 62.4642 93.5429 62.6433 94.6315C62.6709 94.7693 64.6415 94.8107 64.986 95.1552C65.6337 95.8029 63.608 96.4643 63.9387 96.9742C64.4486 97.7321 65.6475 96.8088 66.2813 97.7597C67.2873 99.2755 64.1454 99.8956 64.986 101.15C65.0687 101.274 67.0668 101.329 67.0668 101.673C67.0668 101.894 65.4132 102.624 65.2478 102.982C64.9033 103.658 64.9722 104.595 64.7242 105.325" stroke="black" stroke-width="1.19" stroke-linecap="round" stroke-linejoin="round"/>
<path d="M64.1867 105.573C63.6079 106.152 62.9052 106.744 62.1059 106.882C59.5428 107.309 62.3402 103.685 64.7104 104.278C65.1651 104.388 64.5174 105.242 64.1867 105.573Z" stroke="black" stroke-width="1.19" stroke-linecap="round" stroke-linejoin="round"/>
<path d="M40.6088 92.4129C42.4554 93.2121 39.6029 93.4051 38.9138 94.8933C37.715 97.484 37.5772 101.108 39.6993 103.23C43.9023 107.433 55.7533 106.524 57.6687 100.102C59.6806 93.4051 51.8259 88.017 45.6799 88.8989C43.6405 89.1883 38.404 91.462 40.595 92.4129H40.6088Z" stroke="black" stroke-width="1.19" stroke-linecap="round" stroke-linejoin="round"/>
<path d="M46.7272 94.8933C46.8099 94.6315 46.9064 94.3697 46.989 94.1078" stroke="black" stroke-width="1.19" stroke-linecap="round" stroke-linejoin="round"/>
<path d="M48.56 101.659C48.3808 101.577 48.2155 101.48 48.0363 101.398" stroke="black" stroke-width="1.19" stroke-linecap="round" stroke-linejoin="round"/>
<path d="M44.9082 99.055C44.7291 98.8758 44.5637 98.7105 44.3846 98.5313" stroke="black" stroke-width="1.19" stroke-linecap="round" stroke-linejoin="round"/>
<path d="M65.6199 91.7653C65.3994 90.1117 65.9368 83.318 67.5767 82.9046C68.5137 82.6703 69.4783 83.5523 70.443 83.4283C71.2146 83.3318 74.3841 81.9124 75.1282 82.9046C76.2444 84.3929 74.453 86.5564 74.0809 88.3753C73.9569 89.023 73.5435 94.6316 72.7718 95.1552C72.0139 95.6651 66.5983 94.4111 66.2538 93.8461C65.8817 93.226 65.7025 92.4819 65.6061 91.7653H65.6199Z" stroke="black" stroke-width="1.19" stroke-linecap="round" stroke-linejoin="round"/>
<path d="M69.5335 83.1664C67.742 84.1999 68.3483 77.1858 68.3621 77.172C68.9822 76.8551 69.7402 77.4339 70.443 77.4339C75.831 77.4339 72.2619 81.6093 69.5335 83.1664V83.1664Z" stroke="black" stroke-width="1.19" stroke-linecap="round" stroke-linejoin="round"/>
<path d="M67.8385 96.0647C68.183 95.6788 68.431 95.1689 68.8858 94.8933C69.6299 94.4248 68.996 96.6434 69.1476 97.4978C69.3267 98.4486 69.8228 99.3995 69.6713 100.364C69.5886 100.86 67.8936 100.364 67.5904 100.364C66.9841 100.364 65.8817 100.957 65.7715 100.364C65.4545 98.7656 66.9428 97.0844 67.8523 96.0647H67.8385Z" stroke="black" stroke-width="1.19" stroke-linecap="round" stroke-linejoin="round"/>
<path d="M73.6952 92.9365C75.5141 90.3734 77.8292 89.3537 80.8608 88.3753C82.2526 87.9343 84.0028 88.0997 85.0225 87.0662C85.2154 86.8733 84.4299 87.1351 84.237 87.328C83.8649 87.7001 84.0303 88.3615 83.9752 88.8852C83.9201 89.4915 83.9752 90.0978 83.9752 90.7041C83.9752 92.6609 85.0225 94.5213 85.0225 96.4367C85.0225 97.5805 80.599 98.297 79.8135 98.5175C78.6973 98.8345 74.3153 100.585 73.8192 100.337C73.4333 100.144 71.9175 95.293 72.0002 95.1276C72.3998 94.287 73.1577 93.6669 73.6952 92.909V92.9365Z" stroke="black" stroke-width="1.19" stroke-linecap="round" stroke-linejoin="round"/>
<path d="M83.8511 93.0605C84.3472 90.6077 83.8373 92.5093 85.8079 90.9797C86.8965 90.1391 87.9852 89.2985 89.1978 88.6371C90.1211 88.1272 89.0325 89.2572 88.936 90.1942C88.8258 91.3242 89.9971 92.7849 89.1978 93.5842C88.6191 94.1629 83.7133 93.8047 83.8511 93.0605V93.0605Z" stroke="black" stroke-width="1.19" stroke-linecap="round" stroke-linejoin="round"/>
<path d="M69.9193 99.055H67.3149" stroke="black" stroke-width="1.19" stroke-linecap="round" stroke-linejoin="round"/>
</svg>
