<svg width="139" height="140" viewBox="0 0 139 140" fill="none" xmlns="http://www.w3.org/2000/svg">
<path d="M1 133L138.5 8" stroke="#E94162"/>
<rect x="20" width="100" height="140" fill="white"/>
<path d="M52.96 67.1H60.19C60.65 67.1 62.01 67.1 61.56 67.1" stroke="black" stroke-width="1.19" stroke-linecap="round" stroke-linejoin="round"/>
<path d="M53.16 75.11C53 74.79 61.9 74.4 60.19 73.55" stroke="black" stroke-width="1.19" stroke-linecap="round" stroke-linejoin="round"/>
<path d="M58.63 68.08C57.92 67.37 57.77 70 57.85 71.01C57.91 71.81 58.05 72.65 58.44 73.35C58.57 73.59 59.11 73.79 59.22 73.55C59.45 73.06 60.33 68.45 58.83 68.08C58.7 68.05 59.05 71.93 59.03 72.18C59.02 72.3 58.59 73.17 58.25 72.77C57.69 72.09 57.82 69.79 57.86 69.25C57.88 68.98 57.86 68.28 58.06 68.47C59.21 69.62 56.83 71.12 59.43 71.99" stroke="black" stroke-width="1.19" stroke-linecap="round" stroke-linejoin="round"/>
<path d="M68.98 66.13C70.99 65.46 74.05 66.12 76.01 66.33C76.01 66.33 77.05 66.33 76.01 66.33" stroke="black" stroke-width="1.19" stroke-linecap="round" stroke-linejoin="round"/>
<path d="M68.2 74.33C64.5 74.33 76.45 73.74 75.04 73.74" stroke="black" stroke-width="1.19" stroke-linecap="round" stroke-linejoin="round"/>
<path d="M73.67 68.96C71.82 64.85 71.7 72.18 73.47 72.18C75.71 72.18 76.13 67.86 74.45 67.3C74.14 67.2 74.43 67.95 74.45 68.28C74.51 69.39 74.53 70.5 74.45 71.6C74.4 72.2 74.3 72.81 74.06 73.36C74 73.49 73.89 73.11 73.86 72.97C73.69 72 73.6 71.02 73.47 70.04C73.34 69.13 72.95 68.22 73.08 67.3C73.15 66.81 73.52 68.19 73.67 68.67C73.7 68.76 73.71 69.05 73.67 68.96V68.96Z" stroke="black" stroke-width="1.19" stroke-linecap="round" stroke-linejoin="round"/>
<path d="M50.03 80.19C48.12 82.1 51.03 86.49 52.37 87.61C58.55 92.8 63.67 93.61 71.13 91.32C75.21 90.07 78.89 87.51 81.68 84.29C82.89 82.89 83.55 82.1 83.83 80.58C84.01 79.6 83.32 78.2 83.63 78.82" stroke="black" stroke-width="1.19" stroke-linecap="round" stroke-linejoin="round"/>
<path d="M48.67 97.39C47.09 97.39 46.4 93.96 45.93 92.9C43.96 88.37 43.49 82.2 43.19 77.27C42.3 62.36 51.5899 48.16 67.4199 48.16C77.0499 48.16 85.14 55.03 88.13 63.98C89.08 66.83 88.4199 71.45 88.3299 74.33C88.1799 79.22 88.1199 84.14 87.3499 88.98C87.1799 90.06 85.5899 94.08 85.9799 92.5" stroke="black" stroke-width="1.19" stroke-linecap="round" stroke-linejoin="round"/>
<path d="M42.61 111.26C40.6 107.24 45.86 103.52 49.45 104.03C51.35 104.3 52.2 105.49 52.58 107.35C52.6 107.45 52.59 110.45 53.17 109.3" stroke="black" stroke-width="1.19" stroke-linecap="round" stroke-linejoin="round"/>
<path d="M42.22 110.87C42.69 111.81 42.62 114.58 43.98 114.58C45.34 114.58 45.44 112.12 45.54 111.26C45.56 111.13 45.54 110.87 45.54 110.87C45.54 110.87 45.65 114.39 46.91 114.39C48.17 114.39 48.09 111.59 47.89 110.87C47.85 110.73 47.69 110.48 47.69 110.48C47.69 110.48 48.1 111.25 48.28 111.65C48.56 112.3 48.81 113.63 49.65 113.8C51.28 114.13 50.04 111.06 50.43 111.06C50.95 111.06 51.6 113.84 52.77 113.4C54.51 112.75 54.24 110.54 52.97 109.69" stroke="black" stroke-width="1.19" stroke-linecap="round" stroke-linejoin="round"/>
<path d="M79.73 109.5C77.97 109.5 78.7 103.84 79.34 102.47C82.18 96.44 88.33 102.73 88.33 106.96" stroke="black" stroke-width="1.19" stroke-linecap="round" stroke-linejoin="round"/>
<path d="M79.14 109.89C81.7 112.45 81.75 109.4 82.27 107.35C82.27 107.33 83.3 110.63 83.83 110.28C84.64 109.74 83.83 107.35 83.83 107.35C83.83 107.35 84.83 110.45 85.39 109.69C85.73 109.23 85.59 108.1 85.59 107.54C85.59 107.34 85.59 106.76 85.59 106.95C85.59 111.46 89.85 109.83 87.93 106.95" stroke="black" stroke-width="1.19" stroke-linecap="round" stroke-linejoin="round"/>
<path d="M29.91 112.23C27.86 112.23 30 110.96 30.89 110.67C34.62 109.43 35.99 109.18 40.07 108.91C41.67 108.8 40.73 109.17 40.46 109.3" stroke="black" stroke-width="1.19" stroke-linecap="round" stroke-linejoin="round"/>
<path d="M26 114.38C26 118.55 26.7 122.24 27.76 126.3C28.11 127.65 27.92 129.16 28.54 130.4C28.8 130.92 29.53 129.71 30.1 129.62C30.87 129.5 31.66 129.5 32.44 129.42C35.85 129.11 39.23 128.5 42.6 127.86C54.82 125.51 66.79 122.13 78.94 119.46C81.73 118.85 84.51 118.13 87.34 117.7C88.36 117.54 92.21 117.77 93.59 117.31C93.66 117.29 93.59 115.86 93.59 115.75C93.59 114.68 93.71 113.7 93.79 112.62C94.09 108.37 95.94 104.19 95.94 99.92C95.94 99.64 95.61 100.4 95.35 100.51C94.76 100.76 94.19 101.05 93.59 101.29C91.95 101.96 90.22 102.56 88.51 103.05C88.37 103.09 88.78 102.94 88.9 102.85C89.32 102.53 89.78 102.26 90.27 102.07" stroke="black" stroke-width="1.19" stroke-linecap="round" stroke-linejoin="round"/>
<path d="M51.6 108.33C51.06 107.25 53.99 107.45 54.73 107.35C57.2 107.02 59.67 106.61 62.15 106.37C67.41 105.87 72.7 105.48 77.97 105" stroke="black" stroke-width="1.19" stroke-linecap="round" stroke-linejoin="round"/>
<path d="M85.59 95.04C85.78 94.61 86.24 93.28 85.98 93.67C85.46 94.45 85.2 95.36 84.81 96.21C84.66 96.53 84.23 97.48 84.42 97.19C84.85 96.5 85.26 95.79 85.59 95.04Z" stroke="black" stroke-width="1.19" stroke-linecap="round" stroke-linejoin="round"/>
<path d="M47.3 96.8C47.3 96.72 48.13 100.26 48.86 101.49" stroke="black" stroke-width="1.19" stroke-linecap="round" stroke-linejoin="round"/>
<path d="M55.9099 41.09C55.5099 41.29 58.2499 39.01 59.2299 38.35" stroke="black" stroke-width="1.19" stroke-linecap="round" stroke-linejoin="round"/>
<path d="M56.5 40.7C56.35 40.7 62.43 42.85 61.19 42.85" stroke="black" stroke-width="1.19" stroke-linecap="round" stroke-linejoin="round"/>
<path d="M66.1459 31.9448C60.3759 27.2348 64.9159 16.2148 68.9259 11.7048C74.9259 4.96476 87.2659 5.51476 96.0559 6.79476C99.5959 7.30476 105.186 7.48476 107.886 10.0148C114.446 16.1548 118.826 36.8748 108.586 41.9848C100.266 46.1348 91.5759 46.3948 82.1459 45.3848C79.3159 45.0848 76.4459 44.3548 73.7959 43.4948C72.7559 43.1548 70.4459 41.3248 72.8659 41.9848" stroke="black" stroke-width="1.19" stroke-linecap="round" stroke-linejoin="round"/>
<path d="M71.49 29.29C69.25 27.05 64.68 33.72 67.58 35.97C69.88 37.76 73.18 36.39 75.6 35.66C76.27 35.46 79.46 33.84 78.99 33.6" stroke="black" stroke-linecap="round" stroke-linejoin="round"/>
<path d="M69.33 29.81C68.74 29.52 70.36 29.02 71.28 28.68C73.43 27.89 75.91 27.44 77.96 26.42" stroke="black" stroke-linecap="round" stroke-linejoin="round"/>
<path d="M82.29 19.63C81.75 20.17 81.75 21.18 81.67 21.89C81.55 22.93 81.19 24.13 81.36 25.18C81.56 26.41 83.52 26.93 84.55 26.72C85.36 26.56 86.24 25.64 86.71 25.07C87.8 23.76 88.05 22.09 88.56 20.55" stroke="black" stroke-linecap="round" stroke-linejoin="round"/>
<path d="M82.39 19.63C82.39 18.7 83.96 17.99 84.65 17.68C85.97 17.08 91.97 15.03 93.19 16.86C94.78 19.24 91.96 19.19 90.72 19.74C90.36 19.9 88.66 20.82 88.97 20.67" stroke="black" stroke-linecap="round" stroke-linejoin="round"/>
<path d="M83.62 21.27L83.52 21.48V22.3" stroke="black" stroke-linecap="round" stroke-linejoin="round"/>
<path d="M85.89 21.48L85.79 21.69V22.51" stroke="black" stroke-linecap="round" stroke-linejoin="round"/>
<path d="M85.58 26.36C85.05 27.28 85.58 28.89 84.96 29.7C84.56 30.24 82.48 28.73 82.08 30.73C81.61 33.07 86.05 31.08 86.71 30.42C87.45 29.68 86.79 27.18 86.4 26.41C86.32 26.26 86.26 25.96 86.09 26C85.89 26.05 85.68 26.18 85.58 26.36V26.36Z" stroke="black" stroke-linecap="round" stroke-linejoin="round"/>
<path d="M77.76 26.52C78.31 26.52 82.26 25.99 81.46 25.59" stroke="black" stroke-linecap="round" stroke-linejoin="round"/>
<path d="M87.74 24.15C87.11 24.15 90.32 23.17 90.83 23.02C93.07 22.35 95.03 21.28 97.1 20.24" stroke="black" stroke-linecap="round" stroke-linejoin="round"/>
<path d="M96.99 20.04C96.73 19.51 96.94 18.84 96.99 18.29C97.22 16.03 97.24 17.05 99.66 15.92C100.23 15.65 100.73 15.63 101.31 15.3C101.44 15.22 101.59 15.01 101.72 15.09C101.8 15.14 101.41 18.45 101.41 19.2" stroke="black" stroke-linecap="round" stroke-linejoin="round"/>
<path d="M102.75 19.06C102.42 19.21 102.08 19.37 101.72 19.42C101.62 19.43 103.48 18.53 103.37 18.7C103.24 18.9 102.97 18.96 102.75 19.06V19.06Z" stroke="black" stroke-linecap="round" stroke-linejoin="round"/>
<path d="M103.26 19.11L103.16 19.32V19.53L103.26 20.46L103.36 20.97" stroke="black" stroke-linecap="round" stroke-linejoin="round"/>
<path d="M103.26 21.48C101.81 22.21 100.33 22.99 98.84 23.64C97.79 24.1 96.52 24.25 95.55 24.87C93.76 26.02 91.89 26.94 90.1 28.06C89.37 28.52 88.65 29.35 87.94 29.71" stroke="black" stroke-linecap="round" stroke-linejoin="round"/>
<path d="M79.82 33.61C78.85 34.09 81.76 32.38 82.39 32.38" stroke="black" stroke-linecap="round" stroke-linejoin="round"/>
<path d="M84.65 32.59C83.87 32.2 85.28 34.29 85.37 34.44C85.63 34.89 85.91 35.34 86.19 35.78C87.21 37.37 88.28 38.69 89.58 40C89.9 40.32 91.2 42.2 91.53 41.95C92.46 41.25 93.25 40.42 94.31 39.89C94.4 39.85 94.52 39.78 94.52 39.68C94.52 39.61 92.74 36.65 92.57 36.18C91.34 32.91 90.39 30 89.9 26.51" stroke="black" stroke-linecap="round" stroke-linejoin="round"/>
<path d="M81.46 26.21C81.8 25.52 81.6 26.98 81.87 27.65C82.42 29 82.94 29.01 83.93 29.5" stroke="black" stroke-linecap="round" stroke-linejoin="round"/>
<path d="M87.74 24.87C87.74 25.54 88.91 28.06 87.95 28.06" stroke="black" stroke-linecap="round" stroke-linejoin="round"/>
</svg>
