<svg width="139" height="140" viewBox="0 0 139 140" fill="none" xmlns="http://www.w3.org/2000/svg">
<path d="M1 133L138.5 8" stroke="#E94162"/>
<rect x="20" width="100" height="140" fill="white"/>
<path d="M29.7243 74.21C29.3043 74.58 28.1743 74.4 28.2143 74.97C28.2743 75.91 29.3643 76.47 29.9143 77.24C30.8843 78.58 31.2243 79.4 32.1843 81.02C32.5743 81.67 32.9643 82.91 33.6943 82.72C34.0243 82.64 33.8043 82.12 33.8843 81.96C34.3043 81.12 35.6543 80.19 36.3443 79.5C38.7843 77.06 45.3743 71.82 48.2543 76.85C49.9143 79.76 48.7843 82.59 46.1743 84.22C45.1843 84.84 44.2843 85.59 43.5243 86.49C43.2343 86.84 42.3143 87.62 42.7643 87.62C43.0143 87.62 45.2243 85.37 45.6043 85.16C48.5943 83.45 54.1443 82.17 56.9443 84.97C57.5743 85.6 57.7543 86.38 57.8943 87.24C59.0343 94.63 53.4043 91.73 49.9543 95.18C49.6143 95.52 50.8943 95.46 51.2743 95.75C51.8943 96.21 52.5343 96.63 53.1643 97.07C53.6643 97.43 55.7243 99.91 56.3743 99.91C56.7743 99.91 58.9143 97.53 59.2143 97.26C61.9743 94.73 64.7843 92.51 66.5843 89.13C68.9243 84.74 67.0243 78.25 61.8543 77.22C61.1643 77.08 56.3743 77.02 56.3743 77.79C56.3743 78 57.5943 76.69 58.0743 75.52C58.5043 74.47 59.2943 72.61 59.2043 71.36C58.9843 68.22 53.5743 65.71 51.2643 64.55C47.2143 62.52 34.4643 63.11 31.7943 67.57C30.5243 69.69 31.4943 72.61 29.7143 74.19L29.7243 74.21Z" stroke="black" stroke-width="1.19" stroke-linecap="round" stroke-linejoin="round"/>
<path d="M59.7843 66.46C59.1043 65.1 59.5943 61.47 59.5943 60.41C59.5943 59.19 58.9543 55.58 59.7843 54.55C59.9743 54.32 61.7343 54.58 62.0543 54.55C64.2043 54.34 63.1543 54.37 65.6443 53.98C69.5143 53.38 75.2043 52.5 79.0643 53.6C79.2043 53.64 79.2343 53.84 79.2543 53.98C79.4643 55.24 79.6343 58.7 79.2543 59.84C79.1943 60.01 79.0443 59.51 78.8743 59.46C78.0543 59.24 77.0843 59.27 76.2243 59.27C74.1143 59.27 70.7243 59.19 68.8543 60.59C67.9543 61.27 68.6643 65.23 68.6643 66.26C68.6643 66.98 68.8143 67.99 68.6643 68.72C68.6343 68.86 68.1443 69.5 68.4743 69.67C69.4543 70.16 70.5943 69.01 71.6843 68.91C74.6443 68.64 77.7443 68.61 80.3843 70.23C82.7843 71.7 83.4943 75.37 84.3543 77.79C85.0743 79.8 87.1443 83.85 86.2443 86.11C84.0343 91.65 76.3343 92.55 71.3143 93.11C70.1143 93.24 69.4343 92.54 68.2943 92.54" stroke="black" stroke-width="1.19" stroke-linecap="round" stroke-linejoin="round"/>
<path d="M65.6443 77.05C63.6043 76.03 70.3344 75.36 70.5644 75.35C73.8244 75.21 76.0543 76.13 76.8043 79.51C77.5543 82.89 76.3043 84.62 72.6443 85.18C71.9143 85.29 67.9244 85.65 68.4844 85.37" stroke="black" stroke-width="1.19" stroke-linecap="round" stroke-linejoin="round"/>
<path d="M83.6043 62.49C83.1543 62.26 83.6043 52.85 84.1743 51.71C84.2543 51.55 85.9343 51.95 86.2543 51.9C88.0743 51.6 89.8943 51.22 91.7343 51.14C96.2943 50.94 100.784 51.52 105.344 51.52C105.934 51.52 108.734 51.12 109.124 51.52C109.184 51.58 107.254 56.56 107.234 56.62C105.424 61.37 102.364 65.15 100.234 69.67C97.8443 74.75 95.5043 79.62 94.7543 85.17C94.7243 85.36 93.5343 90.68 93.0543 90.84C92.8043 90.92 91.8443 89.75 91.3543 89.71C88.9043 89.49 86.0543 88.79 83.6043 89.14C83.4643 89.16 83.2243 89.19 83.2243 89.33C83.2243 89.58 83.9043 89.52 83.9843 89.52" stroke="black" stroke-width="1.19" stroke-linecap="round" stroke-linejoin="round"/>
<path d="M83.9843 62.49C81.0043 62.49 90.5843 62.78 90.9843 62.87C91.1243 62.9 90.6843 63.18 90.6043 63.06C90.2143 62.48 90.6043 61.65 90.7943 60.98C91.1543 59.65 91.3243 57.89 91.7443 56.63C91.7843 56.5 91.8043 56.96 91.9343 57.01C92.6143 57.24 93.6443 57.2 94.3943 57.2C95.8443 57.2 97.3243 56.89 98.7443 57.2C99.4143 57.35 97.9143 58.29 97.6143 58.9C96.9643 60.2 96.0543 61.65 95.3443 62.87C93.6043 65.88 91.8843 68.7 90.6143 71.94C89.9543 73.62 89.4743 75.36 88.9143 77.04C88.6343 77.87 87.9743 80.38 87.9743 79.5" stroke="black" stroke-width="1.19" stroke-linecap="round" stroke-linejoin="round"/>
<path d="M112.814 42.07C112.074 42.78 107.784 45.52 106.294 46.42C106.174 46.49 105.914 46.47 105.914 46.61C105.914 47.37 107.424 46.61 108.184 46.61C109.694 46.61 111.464 45.96 112.724 46.8C113.074 47.03 111.844 46.57 111.594 46.23C110.674 44.98 109.974 43.56 109.134 42.26C108.844 41.8 108.654 41.22 108.184 40.94C107.964 40.81 108.174 41.44 108.184 41.7C108.234 42.58 108.294 43.47 108.374 44.35C108.484 45.59 108.564 49.55 109.884 50.21C110.174 50.35 110.004 49.58 110.074 49.26C110.224 48.62 110.434 47.99 110.644 47.37C110.914 46.56 114.084 40.86 112.814 42.08V42.07Z" stroke="black" stroke-width="1.19" stroke-linecap="round" stroke-linejoin="round"/>
<path d="M27.2943 63.74C26.9743 65.25 22.2843 67.61 22.0043 68.75C21.9043 69.14 23.5643 68.9 24.0843 68.94C24.9043 69 25.7243 69.03 26.5443 69.13C26.9243 69.18 27.5043 69.66 27.6743 69.32C27.6743 69.31 25.1643 66.16 24.8343 65.73C24.4243 65.18 24.3143 64.33 23.7043 64.03C23.5343 63.95 23.6643 64.41 23.7043 64.6C23.8543 65.36 24.0643 66.12 24.2743 66.87C24.6843 68.35 24.3643 70.65 25.7843 71.22C26.0443 71.32 26.0943 70.74 26.1643 70.46C26.2343 70.17 27.8643 61.1 27.2943 63.75V63.74Z" stroke="black" stroke-width="1.19" stroke-linecap="round" stroke-linejoin="round"/>
<path d="M35.3943 59.47C34.1743 58.25 34.4843 57.84 33.6943 56.26C33.3243 55.53 31.1643 54.56 32.3743 54.56" stroke="black" stroke-width="1.19" stroke-linecap="round" stroke-linejoin="round"/>
<path d="M41.6343 57.01C40.0043 57.01 40.8743 54.05 40.8743 53.04" stroke="black" stroke-width="1.19" stroke-linecap="round" stroke-linejoin="round"/>
<path d="M46.1743 57.76C45.2143 55.83 46.5043 54.6 47.8743 53.22" stroke="black" stroke-width="1.19" stroke-linecap="round" stroke-linejoin="round"/>
<path d="M87.1943 45.67C86.3843 44.05 85.8843 42.66 84.5443 41.32" stroke="black" stroke-width="1.19" stroke-linecap="round" stroke-linejoin="round"/>
<path d="M90.7943 43.59C90.2143 42.43 90.2043 41.1 89.4743 40" stroke="black" stroke-width="1.19" stroke-linecap="round" stroke-linejoin="round"/>
<path d="M93.6243 43.4C92.5443 42.86 95.3043 40.77 96.0843 40.38" stroke="black" stroke-width="1.19" stroke-linecap="round" stroke-linejoin="round"/>
<path d="M102.514 77.62C105.074 75.06 105.794 71.8 107.244 68.55C107.664 67.6 107.664 65.37 108.564 64.77C111.254 62.98 114.084 66.64 113.664 69.12C113.314 71.24 109.694 74.86 109.694 76.3C109.694 76.9 110.824 75.91 111.394 75.73C111.584 75.67 111.764 75.57 111.964 75.54C112.874 75.39 114.604 75.08 115.554 75.35C117.504 75.91 117.744 77.93 117.444 79.7C116.944 82.71 111.934 82.62 109.884 81.59" stroke="black" stroke-width="1.19" stroke-linecap="round" stroke-linejoin="round"/>
<path d="M115.364 81.4C114.234 81.97 116.164 84.63 114.414 85.94C113.034 86.98 109.634 87.1 107.984 86.51C106.504 85.97 106.894 84.24 108.364 84.24" stroke="black" stroke-width="1.19" stroke-linecap="round" stroke-linejoin="round"/>
<path d="M113.094 87.82C112.184 87.37 113.314 89.48 112.904 90.09C112.164 91.19 110.124 91.4 108.934 91.04C106.754 90.37 106.154 85.61 107.804 87.26" stroke="black" stroke-width="1.19" stroke-linecap="round" stroke-linejoin="round"/>
<path d="M108.564 91.42C108.154 90.6 106.824 92.29 105.914 91.99C102.774 90.94 102.324 88.12 102.324 85.37" stroke="black" stroke-width="1.19" stroke-linecap="round" stroke-linejoin="round"/>
<path d="M102.514 77.8L101.944 77.99L101.184 78.37L100.804 78.56H99.1043" stroke="black" stroke-width="1.19" stroke-linecap="round" stroke-linejoin="round"/>
<path d="M102.514 88.96C101.004 88.2 97.3843 89.35 95.8943 90.09" stroke="black" stroke-width="1.19" stroke-linecap="round" stroke-linejoin="round"/>
</svg>
