<svg width="139" height="140" viewBox="0 0 139 140" fill="none" xmlns="http://www.w3.org/2000/svg">
<path d="M1 133L138.5 8" stroke="#E94162"/>
<rect x="20" width="100" height="140" fill="white"/>
<path d="M45.05 75.17C45.18 75.97 43.7 74.98 42.83 75.27C42.15 75.5 41.54 75.91 40.9 76.23C37.79 77.79 34.93 80.05 32.8 82.79C25.08 92.72 23.5 103.3 28.36 114.63C29.17 116.52 29.81 118.39 31.25 120.03C32.77 121.75 36.23 124.67 38.39 125.63C39.71 126.22 42.39 126.15 43.41 127.17C46.66 130.41 51.02 131.72 55.57 132.77C68.33 135.71 79.88 131.32 91.27 125.63C95.21 123.66 100.17 121 103.23 117.72C105.08 115.74 106.02 113.02 107.47 110.77C108.92 108.55 110.47 106.28 111.52 103.82C115.57 94.37 111.44 84.62 103.99 78.35C100.74 75.62 97.61 72.56 93.76 70.63C85.82 66.66 75.52 65.1 66.75 66.19C60.59 66.96 55.07 68.84 49.58 71.4C48.3 72 44.77 73.45 45.05 75.16V75.17Z" stroke="black" stroke-width="1.19" stroke-linecap="round" stroke-linejoin="round"/>
<path d="M70.23 88.1C69.66 88.39 68.88 88.29 68.3 88C67.53 87.61 67.01 82.98 67.53 82.21C67.85 81.73 68.69 82.29 69.27 82.21C70.28 82.07 71.86 81.05 72.74 81.05C73.23 81.05 72.23 81.92 72.16 82.4C72.04 83.29 72.03 84.2 71.97 85.1C71.79 87.6 72.4 86.99 70.23 88.09V88.1Z" stroke="black" stroke-width="1.19" stroke-linecap="round" stroke-linejoin="round"/>
<path d="M42.06 41.88C41.43 41.88 40.3 41.08 41.48 40.72C45.91 39.39 49.69 42.33 49.2 47.09C48.92 49.78 47.46 52.54 46.11 54.81C45.39 56.03 42.85 58.18 43.02 58.09" stroke="black" stroke-width="1.19" stroke-linecap="round" stroke-linejoin="round"/>
<path d="M72.35 38.03C71.49 36.31 68.53 38.68 67.72 39.77C65.04 43.35 64.43 47.96 67.53 51.73C68.4 52.79 70.96 53.13 71.97 52.12" stroke="black" stroke-width="1.19" stroke-linecap="round" stroke-linejoin="round"/>
<path d="M54.8 45.55C54.38 44.71 56.12 42.04 56.73 41.88C57.49 41.69 57.43 44.25 58.08 43.81C60.9 41.93 58.9 39.85 61.36 44.77" stroke="black" stroke-width="1.19" stroke-linecap="round" stroke-linejoin="round"/>
<path d="M54.6 46.13C55.51 47.94 58.11 50.92 60.2 48.83C60.76 48.27 62.88 45.55 60.97 45.55" stroke="black" stroke-width="1.19" stroke-linecap="round" stroke-linejoin="round"/>
<path d="M56.53 45.74C55.76 45.35 61.83 44.87 60.39 45.35" stroke="black" stroke-width="1.19" stroke-linecap="round" stroke-linejoin="round"/>
<path d="M37.0399 65.04C36.6399 65.24 35.7299 65.45 35.2999 65.23C35.0499 65.11 32.2499 58.44 32.0199 57.9C31.5699 56.81 31.0399 55.74 30.6699 54.62C29.7199 51.77 29.8399 48.49 29.5099 45.55C28.8499 39.61 27.9899 33.61 30.0899 27.8C32.3199 21.63 36.1799 14.55 41.4699 10.43C43.8799 8.56002 45.9599 8.48002 48.6099 7.54002C51.7999 6.40002 52.0399 5.86002 55.3599 5.61002C57.0799 5.48002 58.0699 6.20002 59.7999 6.38002C61.3799 6.55002 64.2399 6.14002 65.7799 6.57002C69.8799 7.72002 74.5499 10.23 77.1599 13.71C86.6499 26.37 85.8399 40.01 85.8399 54.81" stroke="black" stroke-width="1.19" stroke-linecap="round" stroke-linejoin="round"/>
<path d="M86.63 55.01L86.24 55.2H85.85L85.46 55.39" stroke="black" stroke-width="1.19" stroke-linecap="round" stroke-linejoin="round"/>
<path d="M86.25 55.2C85.43 55.2 88.29 53.89 88.76 53.66C90.27 52.9 91.82 51.71 93.2 50.77C97.4 47.9 107.81 38.09 113.07 44.4C114.64 46.28 111.66 49.48 110.37 50.77C108.08 53.06 104.1 53.46 101.3 55.01C98.04 56.82 95.65 60.34 92.42 61.96" stroke="black" stroke-width="1.19" stroke-linecap="round" stroke-linejoin="round"/>
<path d="M35.4 65.23C34.7 65.06 34.09 64.57 33.37 64.46C32.93 64.39 31.72 67.91 31.63 68.13C30.11 71.81 29.78 75.98 34.91 75.46C40.64 74.89 51.32 67.64 54.59 62.92C56.06 60.8 60.43 55.44 55.36 54.43C50.28 53.41 49.2 57.66 46.1 59.83C44.24 61.13 41.89 61.89 40.12 63.3C38.26 64.79 37.96 65.86 35.39 65.23H35.4Z" stroke="black" stroke-width="1.19" stroke-linecap="round" stroke-linejoin="round"/>
<path d="M93.39 62.34C92.36 61.83 88.09 65.52 87.41 66.2" stroke="black" stroke-width="1.19" stroke-linecap="round" stroke-linejoin="round"/>
<path d="M55.7599 80.09C53.4799 78.95 50.7899 88.2 50.5499 89.74C48.7999 100.85 50.1299 107.03 57.2999 115.4C58.3399 116.61 65.2199 121.75 66.9499 120.03" stroke="black" stroke-width="1.19" stroke-linecap="round" stroke-linejoin="round"/>
<path d="M55.5701 79.32C54.3101 79.95 49.0701 75.96 47.0801 76.81C45.0801 77.67 45.9001 79.27 44.3801 80.28C40.2001 83.07 36.9601 85.83 34.3501 90.31C33.2601 92.18 33.9601 95.95 33.9601 98.03C33.9601 104.91 32.7701 108.34 36.6601 114.82C40.1501 120.64 47.3201 121.92 53.2501 124.08C55.3801 124.85 56.6501 127.34 59.0401 127.55C62.0001 127.82 64.5101 125.73 65.2101 122.92C65.4501 121.98 65.5901 120.09 66.5601 119.45C66.8301 119.27 66.4901 120.11 66.3701 120.41C66.1701 120.92 65.9801 121.44 65.7901 121.95" stroke="black" stroke-width="1.19" stroke-linecap="round" stroke-linejoin="round"/>
<path d="M62.03 78.84C62.66 78.98 58.7 76.71 58.27 75.85C57.92 75.16 63 71.41 63.48 71.41C63.73 71.41 64.59 74.48 64.83 74.88C65.55 76.07 66.58 78.17 67.53 79.13C67.75 79.35 68.69 79.48 68.69 79.9C68.69 80.26 66.36 81.7 66.18 81.83C65.73 82.15 65.38 82.79 64.83 82.79C63.9 82.79 63.89 81.18 63.29 80.47C62.84 79.95 60.43 78.47 62.04 78.83L62.03 78.84Z" stroke="black" stroke-width="1.19" stroke-linecap="round" stroke-linejoin="round"/>
<path d="M71.87 78.55C70.38 78.01 71 77.41 70.62 75.46C70.46 74.64 68.91 71.87 69.08 71.21C69.44 69.77 77.4 69.5 78.15 70.25C78.56 70.66 78.15 73.68 78.15 74.3C78.15 75.57 78.85 77.11 78.54 78.35C78.43 78.81 72.65 78.82 71.88 78.54L71.87 78.55Z" stroke="black" stroke-width="1.19" stroke-linecap="round" stroke-linejoin="round"/>
<path d="M55.57 92.34C55.61 92.23 55.28 92.69 55.38 92.63C57.08 91.5 58.61 89.87 60.2 88.58C60.49 88.35 62.72 86.12 63.29 86.26C64.23 86.5 66.9301 90.99 67.1501 91.86C67.1901 92.02 63.83 94.41 63.68 94.56C62.68 95.56 61.84 97.19 60.79 98.03C60.22 98.48 58.48 97.65 57.9 97.45C57.02 97.16 56.95 97.64 56.36 97.64C56.07 97.64 55.41 93.52 55.4 93.39C55.37 93.03 55.46 92.66 55.59 92.33L55.57 92.34Z" stroke="black" stroke-width="1.19" stroke-linecap="round" stroke-linejoin="round"/>
<path d="M61.36 88.39C62.34 90.35 63.63 92.18 64.83 93.99" stroke="black" stroke-width="1.19" stroke-linecap="round" stroke-linejoin="round"/>
<path d="M59.62 90.51C59.21 90.3 59.06 90.09 58.66 90.7C57.46 92.5 61.17 93.04 61.17 94.95C61.17 95.86 58.68 94.9 58.28 95.91C58.18 96.15 60.12 98.08 58.47 97.26" stroke="black" stroke-width="1.19" stroke-linecap="round" stroke-linejoin="round"/>
<path d="M84.13 78.16C91.89 82.04 91.3 99.12 87.99 105.75" stroke="black" stroke-width="1.19" stroke-linecap="round" stroke-linejoin="round"/>
<path d="M84.7 77.39C84.01 77.39 82.14 74.76 82.58 74.11C82.72 73.9 88.37 75.29 88.37 75.27C88.37 74.42 86.82 73.37 87.02 72.38C87.29 71.05 89.86 71.69 90.3 72.57" stroke="black" stroke-width="1.19" stroke-linecap="round" stroke-linejoin="round"/>
<path d="M89.14 76.23C96.26 77.65 98.96 89.42 97.44 95.53" stroke="black" stroke-width="1.19" stroke-linecap="round" stroke-linejoin="round"/>
<path d="M92.04 72.76C91.15 73.21 94.29 74.21 94.74 74.5C95.7 75.12 96.48 76 97.44 76.62C101 78.93 100.95 79.5 103.42 82.8C103.91 83.45 105.17 84.33 105.54 85.12C108.81 92.03 108.95 100.39 104.19 106.73C102.92 108.43 101.2 109.34 99.75 110.78" stroke="black" stroke-width="1.19" stroke-linecap="round" stroke-linejoin="round"/>
<path d="M88.95 105.56C88.95 107.23 86.94 109.8 88.56 111.16C91.44 113.56 93.24 110.83 95.89 110.39C98.97 109.88 96.97 113.14 101.1 110.39" stroke="black" stroke-width="1.19" stroke-linecap="round" stroke-linejoin="round"/>
<path d="M102.84 109.81C102.58 109.68 102.33 109.55 102.07 109.42" stroke="black" stroke-width="1.19" stroke-linecap="round" stroke-linejoin="round"/>
<path d="M103.42 89.93C102.71 89.57 103.79 91.48 104 92.25C104.41 93.74 104.38 95.35 104.19 96.88C103.52 102.27 100.84 106.21 97.24 109.81" stroke="black" stroke-width="1.19" stroke-linecap="round" stroke-linejoin="round"/>
<path d="M94.74 100.16C94.74 103.21 93.03 107.28 92.04 109.81C91.12 112.16 91.95 109.07 92.04 108.85" stroke="black" stroke-width="1.19" stroke-linecap="round" stroke-linejoin="round"/>
<path d="M50.55 77.97C49.34 77.36 48.47 81.85 48.23 82.6C46.69 87.6 45.58 92.55 45.91 97.84C46.32 104.35 48.06 113.72 53.82 117.91C55.78 119.34 58.11 120 60.19 121.19C61.81 122.12 62.61 123.85 64.24 124.66" stroke="black" stroke-width="1.19" stroke-linecap="round" stroke-linejoin="round"/>
<path d="M64.83 25.68C63.37 20.51 64.46 30.48 64.64 27.8C64.69 27.09 65.03 26.36 64.83 25.68Z" stroke="black" stroke-width="1.19" stroke-linecap="round" stroke-linejoin="round"/>
<path d="M45.44 26.93C45.2 24.49 44.33 31.22 45.34 32.24C45.48 32.38 45.5 31.86 45.53 31.66C45.62 31.15 45.67 30.63 45.72 30.12C45.73 29.99 45.72 29.86 45.72 29.73C45.72 29.09 45.43 26.97 45.43 26.93H45.44Z" stroke="black" stroke-width="1.19" stroke-linecap="round" stroke-linejoin="round"/>
<path d="M65.6 19.21C65.28 19.21 64.92 19.16 64.64 19.31C64.24 19.51 65.54 19.31 65.99 19.31H67.15C67.28 19.31 67.66 19.31 67.54 19.31C66.9 19.27 66.25 19.21 65.61 19.21H65.6Z" stroke="black" stroke-width="1.19" stroke-linecap="round" stroke-linejoin="round"/>
<path d="M46.3 21.82L45.91 21.63H43.79L42.83 21.82" stroke="black" stroke-width="1.19" stroke-linecap="round" stroke-linejoin="round"/>
</svg>
