<svg width="120" height="130" viewBox="0 0 120 130" fill="none" xmlns="http://www.w3.org/2000/svg">
<path d="M1 119L119 11" stroke="#E94162"/>
<rect x="20" width="80" height="130" fill="white"/>
<path d="M82.0166 49.0959C82.0861 50.4153 81.8395 51.4976 81.6156 52.729C80.6374 56.3412 75.9811 65.5656 65.1811 73.5656C55.6811 76.5656 60.6811 84.5656 68.6811 79.5656C76.6811 74.5656 79.3549 73.2409 87.018 64.5656C89.4057 65.4573 94.3811 66.1058 95.1811 61.5656L87.018 44.0002L87.0109 43.9832C85.989 41.5564 84.8917 38.9501 82.4413 37.7249C80.6383 36.8234 76.754 36.4546 75.7413 38.4798C74.6281 40.7063 76.8274 43.0098 78.6195 43.9058C79.5368 44.3645 80.3773 44.0218 80.955 45.0618C81.5275 46.0922 81.9551 47.9265 82.0166 49.0959Z" fill="white" stroke="#37383D" stroke-linecap="round"/>
<path d="M98.6578 56.4837C97.7034 55.2363 94.5221 56.7955 94.5221 56.7955L92.9315 57.731C90.7046 59.602 92.972 61.5644 94.5221 60.8494C99.9303 58.3547 99.135 57.1073 98.6578 56.4837Z" fill="white" stroke="#37383D" stroke-linecap="round"/>
<path d="M98.56 52.6771C97.3329 50.9308 93.2427 53.1137 93.2427 53.1137L91.1976 54.4234C88.3344 57.0429 91.2497 59.7902 93.2427 58.7891C100.196 55.2966 99.1736 53.5503 98.56 52.6771Z" fill="white" stroke="#37383D" stroke-linecap="round"/>
<path d="M97.5111 49.6771C96.1477 47.9308 91.603 50.1137 91.603 50.1137L89.3307 51.4234C86.1494 54.0429 89.3885 56.7902 91.603 55.7891C99.329 52.2966 98.1928 50.5503 97.5111 49.6771Z" fill="white" stroke="#37383D" stroke-linecap="round"/>
<path d="M95.4622 45.7739C93.9625 43.7781 88.9633 46.2728 88.9633 46.2728L86.4637 47.7696C82.9643 50.7633 86.5274 53.9031 88.9633 52.759C97.4619 48.7675 96.2121 46.7717 95.4622 45.7739Z" fill="white" stroke="#37383D" stroke-linecap="round"/>
<path d="M75.5995 40.3407C77.8392 38.325 81.8402 41.7056 78.4439 43.4038" stroke="#37383D" stroke-linecap="round"/>
<path d="M65.0166 65.0959C65.0861 66.4153 64.8395 67.4976 64.6156 68.729C63.6374 72.3412 58.9811 81.5656 48.1811 89.5656C38.6811 92.5656 43.6811 100.566 51.6811 95.5656C59.6811 90.5656 62.3549 89.2409 70.018 80.5656C72.4057 81.4573 77.3811 82.1058 78.1811 77.5656L70.018 60.0002L70.0109 59.9832C68.989 57.5564 67.8917 54.9501 65.4413 53.7249C63.6383 52.8234 59.754 52.4546 58.7413 54.4798C57.6281 56.7063 59.8274 59.0098 61.6195 59.9058C62.5368 60.3645 63.3773 60.0218 63.955 61.0618C64.5275 62.0922 64.9551 63.9265 65.0166 65.0959Z" fill="white" stroke="#37383D" stroke-linecap="round"/>
<path d="M81.6578 72.4837C80.7034 71.2363 77.5221 72.7955 77.5221 72.7955L75.9315 73.731C73.7046 75.602 75.972 77.5644 77.5221 76.8494C82.9303 74.3547 82.135 73.1073 81.6578 72.4837Z" fill="white" stroke="#37383D" stroke-linecap="round"/>
<path d="M81.56 68.6771C80.3329 66.9308 76.2427 69.1137 76.2427 69.1137L74.1976 70.4234C71.3344 73.0429 74.2497 75.7902 76.2427 74.7891C83.1961 71.2966 82.1736 69.5503 81.56 68.6771Z" fill="white" stroke="#37383D" stroke-linecap="round"/>
<path d="M80.5111 65.6771C79.1477 63.9308 74.603 66.1137 74.603 66.1137L72.3307 67.4234C69.1494 70.0429 72.3885 72.7902 74.603 71.7891C82.329 68.2966 81.1928 66.5503 80.5111 65.6771Z" fill="white" stroke="#37383D" stroke-linecap="round"/>
<path d="M78.4622 61.7739C76.9625 59.7781 71.9633 62.2728 71.9633 62.2728L69.4637 63.7696C65.9643 66.7633 69.5274 69.9031 71.9633 68.759C80.4619 64.7675 79.2121 62.7717 78.4622 61.7739Z" fill="white" stroke="#37383D" stroke-linecap="round"/>
<path d="M58.5995 56.3407C60.8392 54.325 64.8402 57.7056 61.4439 59.4038" stroke="#37383D" stroke-linecap="round"/>
<path d="M71 56C70 41.5 57.7695 21.9829 38 27.5C20.8 32.3 23.267 58.4963 28.5 67C32.5 73.5 39.5 79 41.5 81C44 83.5 41.5 104 30 121.5M71 83C71 90.5 71 104 62.5 123" stroke="#37383D" stroke-linecap="round"/>
<ellipse cx="55.9448" cy="39.322" rx="4" ry="5" transform="rotate(-41.7473 55.9448 39.322)" fill="#37383D"/>
<path d="M54.6976 38.0046C54.6719 37.8786 54.641 37.7549 54.6056 37.6339C54.7429 37.6718 54.8842 37.6982 55.0301 37.7108C55.6126 37.7612 56.1774 37.5851 56.7755 37.2195C56.7805 37.3883 56.7929 37.5579 56.8114 37.7268C56.8901 38.4461 57.0837 39.1954 57.3342 39.8971C57.457 40.2409 57.5947 40.5769 57.7417 40.8961C56.6362 40.4604 55.4854 40.2821 54.4432 40.3542C54.8145 39.5603 54.8488 38.7453 54.6976 38.0046Z" fill="white" stroke="white" stroke-width="1.19" stroke-linecap="round"/>
<ellipse cx="45.9448" cy="47.322" rx="4" ry="5" transform="rotate(-38.8146 45.9448 47.322)" fill="#37383D"/>
<path d="M44.7667 45.9425C44.7474 45.8154 44.7228 45.6902 44.6937 45.5676C44.8289 45.6125 44.9687 45.6461 45.1137 45.6662C45.6929 45.7463 46.2659 45.5993 46.882 45.2648C46.8783 45.4336 46.8821 45.6036 46.8919 45.7732C46.9337 46.4956 47.0887 47.2539 47.303 47.9675C47.408 48.3171 47.5283 48.6597 47.6588 48.986C46.5771 48.4943 45.4368 48.2574 44.3924 48.276C44.8038 47.5022 44.8797 46.69 44.7667 45.9425Z" fill="white" stroke="white" stroke-width="1.19" stroke-linecap="round"/>
<path d="M39 44C38.5453 44.3636 37.7269 45.6727 38.0906 48" stroke="#37383D" stroke-width="1.19" stroke-linecap="round"/>
<path d="M50 34C49.5453 34.3636 48.7269 35.6727 49.0906 38" stroke="#37383D" stroke-width="1.19" stroke-linecap="round"/>
<path d="M65.4857 44.6025C60.0978 50.4394 54.3579 54.5576 47.2285 58.026C45.0299 59.0956 42.8405 59.8855 40.4551 60.3967C39.7259 60.5529 41.6549 61.289 42.3024 61.659C45.809 63.6627 49.9214 64.8209 53.9095 65.2612C57.1769 65.6218 61.6485 65.3422 64.1002 62.8905" stroke="#37383D" stroke-linecap="round"/>
<path d="M65.4857 44.8796C65.4857 46.9796 66.0398 49.0973 66.0398 51.2527" stroke="#37383D" stroke-width="1.19" stroke-linecap="round"/>
<path d="M42.1566 61.5881C42.358 62.3939 46.0699 62.0051 46.6847 61.971C49.5197 61.8135 52.3806 61.1234 55.0192 60.1225C56.0036 59.7491 56.9599 59.3152 57.9505 58.985C58.446 58.8198 58.6638 58.4533 59.088 58.2412" stroke="#37383D" stroke-linecap="round"/>
</svg>
