<svg width="80" height="80" viewBox="0 0 80 80" fill="none" xmlns="http://www.w3.org/2000/svg">
<path d="M62.2222 17.7778H40.0926L18.9611 40H39.9611L40.0593 39.9L62.2222 17.7778Z" fill="url(#paint0_linear_2_61)"/>
<path d="M62.2222 62.2222H17.7778H62.2222ZM40.0593 39.9L39.9611 40H40.1593L40.0593 39.9Z" fill="url(#paint1_linear_2_61)"/>
<path d="M40.0926 17.7778H17.7778V41.2444V40H18.9611L40.0926 17.7778Z" fill="url(#paint2_linear_2_61)"/>
<path d="M39.9611 40H18.9611L17.7778 41.2444V62.2222L39.9611 40Z" fill="url(#paint3_linear_2_61)"/>
<path d="M40.1593 40H39.9611L17.7778 62.2222H62.2222L40.1593 40Z" fill="url(#paint4_linear_2_61)"/>
<path d="M18.9611 40H17.7778V41.2444L18.9611 40Z" fill="url(#paint5_linear_2_61)"/>
<defs>
<linearGradient id="paint0_linear_2_61" x1="9.84533" y1="58.3939" x2="51.2033" y2="17.036" gradientUnits="userSpaceOnUse">
<stop stop-color="#C757BC"/>
<stop offset="0.108" stop-color="#C757BC"/>
<stop offset="0.173" stop-color="#CD5CA9"/>
<stop offset="0.492" stop-color="#E8744F"/>
<stop offset="0.716" stop-color="#F88316"/>
<stop offset="0.823" stop-color="#FF8900"/>
<stop offset="1" stop-color="#FF8900"/>
</linearGradient>
<linearGradient id="paint1_linear_2_61" x1="32.1351" y1="70.228" x2="52.2936" y2="50.0694" gradientUnits="userSpaceOnUse">
<stop stop-color="#00AFFF"/>
<stop offset="0.296" stop-color="#00AFFF"/>
<stop offset="0.694" stop-color="#5282FF"/>
<stop offset="1" stop-color="#945DFF"/>
</linearGradient>
<linearGradient id="paint2_linear_2_61" x1="17.309" y1="30.0605" x2="31.4505" y2="15.9187" gradientUnits="userSpaceOnUse">
<stop stop-color="#00AFFF"/>
<stop offset="0.296" stop-color="#00AFFF"/>
<stop offset="0.694" stop-color="#5282FF"/>
<stop offset="1" stop-color="#945DFF"/>
</linearGradient>
<linearGradient id="paint3_linear_2_61" x1="10.0935" y1="58.642" x2="51.4514" y2="17.2841" gradientUnits="userSpaceOnUse">
<stop stop-color="#AD4CA4"/>
<stop offset="0.108" stop-color="#AD4CA4"/>
<stop offset="0.173" stop-color="#B25093"/>
<stop offset="0.492" stop-color="#CA6545"/>
<stop offset="0.716" stop-color="#D87213"/>
<stop offset="0.823" stop-color="#DE7700"/>
<stop offset="1" stop-color="#DE7700"/>
</linearGradient>
<linearGradient id="paint4_linear_2_61" x1="32.1351" y1="70.228" x2="52.2936" y2="50.0694" gradientUnits="userSpaceOnUse">
<stop stop-color="#0098DE"/>
<stop offset="0.296" stop-color="#0098DE"/>
<stop offset="0.694" stop-color="#4771DE"/>
<stop offset="1" stop-color="#8151DE"/>
</linearGradient>
<linearGradient id="paint5_linear_2_61" x1="22.8668" y1="35.6181" x2="37.0082" y2="21.4763" gradientUnits="userSpaceOnUse">
<stop stop-color="#0098DE"/>
<stop offset="0.296" stop-color="#0098DE"/>
<stop offset="0.694" stop-color="#4771DE"/>
<stop offset="1" stop-color="#8151DE"/>
</linearGradient>
</defs>
</svg>
