<svg width="80" height="80" viewBox="0 0 80 80" fill="none" xmlns="http://www.w3.org/2000/svg">
<path d="M40 43.9184C42.164 43.9184 43.9183 42.1641 43.9183 40C43.9183 37.836 42.164 36.0817 40 36.0817C37.836 36.0817 36.0817 37.836 36.0817 40C36.0817 42.1641 37.836 43.9184 40 43.9184Z" fill="#61DAFB"/>
<path d="M40 48.0278C51.6119 48.0278 61.0252 44.4336 61.0252 40C61.0252 35.5664 51.6119 31.9722 40 31.9722C28.3881 31.9722 18.9748 35.5664 18.9748 40C18.9748 44.4336 28.3881 48.0278 40 48.0278Z" stroke="#61DAFB" stroke-width="2"/>
<path d="M33.0477 44.0139C38.8536 54.0701 46.6729 60.4251 50.5126 58.2083C54.3522 55.9915 52.7582 46.0423 46.9522 35.9861C41.1463 25.9299 33.327 19.5749 29.4874 21.7917C25.6478 24.0085 27.2418 33.9577 33.0477 44.0139Z" stroke="#61DAFB" stroke-width="2"/>
<path d="M33.0477 35.9861C27.2418 46.0423 25.6478 55.9915 29.4874 58.2083C33.327 60.4251 41.1463 54.0701 46.9523 44.0139C52.7582 33.9577 54.3522 24.0085 50.5126 21.7917C46.6729 19.5749 38.8537 25.9299 33.0477 35.9861Z" stroke="#61DAFB" stroke-width="2"/>
</svg>
