<svg width="80" height="80" viewBox="0 0 80 80" fill="none" xmlns="http://www.w3.org/2000/svg">
<path d="M20.3811 48.0482C20.4237 48.1445 20.4718 48.2334 20.5237 48.3223C20.5477 48.3742 20.5811 48.4279 20.6107 48.476C20.6589 48.5723 20.7107 48.6649 20.7607 48.7575L21.0515 49.2464C21.1052 49.3371 21.157 49.426 21.2181 49.5149C21.32 49.689 21.4403 49.8594 21.5459 50.0334C21.5941 50.1057 21.6385 50.1779 21.6922 50.2501C21.8959 50.5668 22.0811 50.8297 22.2792 51.0853C22.42 51.276 22.5607 51.4631 22.7126 51.6501C22.7626 51.7205 22.8181 51.7909 22.87 51.8612L23.2793 52.3575C23.3293 52.4149 23.3793 52.4816 23.433 52.5409C23.6144 52.7594 23.807 52.9705 23.9996 53.1853C23.9996 53.189 24.0052 53.1927 24.0089 53.1983C24.2478 53.4983 24.5052 53.765 24.7867 54.002L24.7941 54.0094C24.9422 54.1613 25.0904 54.3113 25.2478 54.4594L25.4348 54.639C25.6404 54.8316 25.846 55.0224 26.0626 55.2076C26.0663 55.2076 26.0682 55.2113 26.0719 55.2131L26.1774 55.3057C26.3663 55.4705 26.5571 55.6335 26.7515 55.7853L26.983 55.9798C27.1404 56.1057 27.3034 56.2242 27.4645 56.3483L27.7163 56.5409C27.8886 56.6705 28.0719 56.7965 28.2478 56.9224C28.3126 56.9687 28.3775 57.015 28.4441 57.0576L28.4978 57.1002L29.0182 57.4409L29.2404 57.5891C29.5127 57.7631 29.783 57.9261 30.0534 58.0891C30.1312 58.128 30.209 58.1705 30.2812 58.215C30.4812 58.3298 30.6886 58.4465 30.8904 58.552C31.0016 58.615 31.1164 58.6687 31.2312 58.7261C31.3701 58.8039 31.5145 58.8798 31.6627 58.9576C31.7034 58.9706 31.7368 58.9835 31.7701 59.002L31.7775 58.9946C31.8386 59.0224 31.896 59.052 31.9553 59.0817C32.1775 59.1928 32.409 59.2983 32.6497 59.402C32.6942 59.4206 32.7423 59.4391 32.7905 59.465C33.0571 59.5817 33.3238 59.6928 33.5997 59.8002C33.6627 59.8187 33.7294 59.8502 33.7942 59.8743C34.0442 59.9687 34.3016 60.065 34.5572 60.1557L34.6498 60.1891C34.9331 60.2854 35.2127 60.378 35.5016 60.465C35.5683 60.4835 35.6368 60.5076 35.7072 60.5261C36.0016 60.615 36.2868 60.7206 36.585 60.7761C55.6092 64.2262 61.1371 49.3945 61.1371 49.3945C56.4926 55.4131 48.2499 57.0002 40.4443 55.2335C40.1554 55.1668 39.8665 55.0742 39.5739 54.989C39.1609 54.8722 38.7514 54.7431 38.3461 54.602L38.522 54.6557L38.4072 54.6113C38.1553 54.5261 37.9127 54.4316 37.6664 54.3372C37.6062 54.3116 37.545 54.2881 37.4831 54.2668L37.4627 54.2613C37.1905 54.152 36.9257 54.0409 36.6627 53.9242C36.6053 53.9057 36.5572 53.8798 36.4998 53.8575C36.1883 53.7218 35.8796 53.5798 35.5738 53.4316L35.8294 53.5446C35.7627 53.5151 35.6972 53.483 35.6331 53.4483C35.459 53.3668 35.2849 53.2742 35.1146 53.1872C34.9848 53.1257 34.857 53.0602 34.7312 52.9909L34.7683 53.0094C34.559 52.8983 34.3497 52.7779 34.1386 52.6649C34.0757 52.6205 34.0034 52.5835 33.9312 52.5427C33.6174 52.3603 33.3075 52.1714 33.0016 51.976L33.1183 52.0464C33.0399 51.998 32.9633 51.9467 32.8886 51.8927L32.8997 51.9001C32.7007 51.7779 32.5055 51.6494 32.3145 51.5149C32.2516 51.4742 32.1942 51.4297 32.1294 51.3853C31.9298 51.2491 31.7335 51.1083 31.5405 50.9631L31.5849 50.9946C31.5071 50.9316 31.4238 50.8723 31.3405 50.8112C31.1775 50.6834 31.0127 50.5612 30.8497 50.4279L30.6312 50.2538C30.3983 50.0685 30.1698 49.8777 29.946 49.6816L29.9441 49.6797L29.3015 49.0964L29.1164 48.9223C28.9645 48.7686 28.8089 48.6223 28.6534 48.4705L28.4738 48.2853C28.282 48.0954 28.0949 47.9009 27.9126 47.7019L27.9015 47.689L27.87 47.663C27.674 47.4477 27.4807 47.2298 27.2904 47.0093C27.2404 46.9519 27.1941 46.8908 27.1423 46.8297L26.7219 46.3204C26.5324 46.0824 26.3472 45.841 26.1663 45.5964L26.0922 45.4927C21.7626 39.6111 20.1959 31.4944 23.6607 24.8351L20.6015 28.7036C16.6662 34.3314 17.1533 41.65 20.1626 47.626C20.2311 47.7723 20.307 47.9093 20.3811 48.0482V48.0482Z" fill="#1266A9"/>
<path d="M33.6349 39.9408L33.6145 39.9111L33.5978 39.8889L33.6349 39.9408Z" fill="black"/>
<path d="M35.7053 42.3703L35.872 42.537C36.0831 42.7407 36.2997 42.9388 36.5201 43.137L36.5479 43.1611C36.7701 43.3574 37.0201 43.5629 37.2775 43.7629L37.3164 43.7925C37.3794 43.8351 37.4331 43.8851 37.4942 43.9277C37.7535 44.1277 38.0146 44.3185 38.2868 44.5092L38.3146 44.5259C38.4294 44.6092 38.5516 44.6852 38.6813 44.7666C38.7331 44.8 38.7924 44.8444 38.8479 44.8777C39.0442 45.0037 39.2368 45.1203 39.435 45.2407C39.4664 45.2537 39.4942 45.2703 39.5239 45.2833C39.6905 45.3852 39.872 45.4833 40.0461 45.5722C40.1072 45.6092 40.1664 45.637 40.2294 45.6722C40.3535 45.7333 40.4757 45.7981 40.5942 45.8611L40.6535 45.887C40.9035 46.0092 41.1591 46.1241 41.4091 46.237C41.472 46.2611 41.5257 46.2815 41.5794 46.3074C41.785 46.3963 41.9942 46.4815 42.1998 46.5592C42.2924 46.5907 42.3794 46.6278 42.4665 46.6555C42.6554 46.7259 42.8535 46.7907 43.0406 46.8555L43.2998 46.9389C43.5702 47.0222 43.8443 47.1315 44.1313 47.1759C58.8222 49.5945 62.2222 38.3406 62.2222 38.3406C59.1611 42.724 53.2369 44.8129 46.9239 43.1814C46.6088 43.102 46.2963 43.0124 45.9869 42.9129L46.0924 42.9425C46.0035 42.9185 45.9258 42.8907 45.8406 42.8648C45.648 42.7981 45.4498 42.7333 45.2628 42.6648L44.9961 42.5648C44.7887 42.4814 44.5776 42.4036 44.3758 42.3148C44.3128 42.287 44.2554 42.2685 44.2072 42.2407C43.948 42.124 43.6869 42.0092 43.4331 41.887L43.0517 41.6888L42.8313 41.5777C42.6609 41.4888 42.5035 41.3962 42.3405 41.3018C42.299 41.2823 42.2588 41.26 42.2202 41.2351L42.2257 41.237C42.0294 41.1147 41.8257 40.9962 41.6368 40.8721C41.5739 40.837 41.5165 40.7944 41.4572 40.7573L41.072 40.5073C40.8053 40.3221 40.5442 40.124 40.2794 39.9314C40.2202 39.8777 40.1627 39.8332 40.1053 39.7851C37.3294 37.6129 35.1405 34.6443 34.1016 31.2832C33.0071 27.7887 33.2479 23.8701 35.1386 20.6905L32.8145 23.9646C29.9608 28.0405 30.1219 33.4887 32.3442 37.7999C32.7497 38.5962 33.1608 39.2684 33.6145 39.9092C34.0368 40.5129 34.5034 41.2203 35.0664 41.7055C35.2664 41.9333 35.4812 42.1499 35.7053 42.3703V42.3703Z" fill="#1266A9"/>
<path d="M22.2885 51.0963L22.2811 51.0852L22.2681 51.0686L22.2885 51.0963ZM29.9886 49.7186L30.0071 49.7315L30.0108 49.7371L29.9886 49.7186Z" fill="black"/>
<path d="M43.085 20.4201C41.4017 22.8775 41.2405 25.9294 42.3998 28.6387C43.6313 31.5165 46.148 33.7758 49.0814 34.8461C49.2017 34.8924 49.3184 34.9313 49.4425 34.9758L49.6055 35.0258C49.7758 35.0795 49.948 35.1424 50.124 35.1813C58.237 36.7388 60.4334 31.0369 61.0241 30.198C59.0926 32.9572 55.8537 33.6202 51.8796 32.6591C51.534 32.5748 51.1939 32.4697 50.861 32.3443L50.9221 32.3646C50.508 32.2213 50.1024 32.0544 49.7073 31.8646L49.7777 31.8961C49.0184 31.5257 48.3666 31.1257 47.761 30.6665C44.2091 27.9813 42.0128 22.8683 44.3313 18.7034L43.085 20.4201Z" fill="#1266A9"/>
</svg>
