<svg width="860" height="250" viewBox="0 0 860 250" fill="none" xmlns="http://www.w3.org/2000/svg">
<path d="M0 10C0 4.47715 4.47715 0 10 0H230C235.523 0 240 4.47715 240 10V40C240 45.5228 235.523 50 230 50H10C4.47716 50 0 45.5228 0 40V10Z" fill="#004596"/>
<path d="M29.9017 17.1002H35.0217C38.0751 17.1002 39.6017 18.2735 39.6017 20.6202V21.0402C39.6017 21.3602 39.5617 21.6735 39.4817 21.9802C39.4017 22.2735 39.2684 22.5468 39.0817 22.8002C38.9084 23.0535 38.6684 23.2802 38.3617 23.4802C38.0684 23.6668 37.7084 23.8135 37.2817 23.9202C38.1617 24.0535 38.8751 24.3868 39.4217 24.9202C39.9817 25.4535 40.2617 26.2202 40.2617 27.2202V27.7202C40.2617 28.9068 39.8817 29.8402 39.1217 30.5202C38.3751 31.1868 37.2151 31.5202 35.6417 31.5202H29.9017V17.1002ZM31.8817 29.8002H34.9017C35.4617 29.8002 35.9484 29.7735 36.3617 29.7202C36.7884 29.6535 37.1351 29.5402 37.4017 29.3802C37.6817 29.2202 37.8884 29.0068 38.0217 28.7402C38.1551 28.4602 38.2217 28.1068 38.2217 27.6802V27.2402C38.2217 26.8002 38.1617 26.4268 38.0417 26.1202C37.9217 25.8135 37.7151 25.5602 37.4217 25.3602C37.1284 25.1602 36.7417 25.0202 36.2617 24.9402C35.7817 24.8468 35.1817 24.8002 34.4617 24.8002H31.8817V29.8002ZM31.8817 18.8002V23.1802H34.4417C34.9351 23.1802 35.3751 23.1535 35.7617 23.1002C36.1617 23.0468 36.4951 22.9402 36.7617 22.7802C37.0284 22.6202 37.2284 22.4002 37.3617 22.1202C37.5084 21.8402 37.5817 21.4735 37.5817 21.0202V20.6602C37.5817 20.2335 37.5151 19.9002 37.3817 19.6602C37.2617 19.4068 37.0617 19.2202 36.7817 19.1002C36.5151 18.9668 36.1751 18.8868 35.7617 18.8602C35.3484 18.8202 34.8617 18.8002 34.3017 18.8002H31.8817ZM44.457 16.4002V31.5202H42.517V16.4002H44.457ZM51.8956 20.3802C53.4023 20.3802 54.589 20.8135 55.4556 21.6802C56.3356 22.5468 56.7756 23.7735 56.7756 25.3602V26.7002C56.7756 28.2868 56.3356 29.5135 55.4556 30.3802C54.589 31.2468 53.4023 31.6802 51.8956 31.6802C50.389 31.6802 49.1956 31.2468 48.3156 30.3802C47.449 29.5135 47.0156 28.2868 47.0156 26.7002V25.3602C47.0156 23.7602 47.449 22.5335 48.3156 21.6802C49.1956 20.8135 50.389 20.3802 51.8956 20.3802ZM51.8956 29.9802C52.7623 29.9802 53.4623 29.7002 53.9956 29.1402C54.5423 28.5668 54.8156 27.7002 54.8156 26.5402V25.5202C54.8156 24.3602 54.5423 23.5002 53.9956 22.9402C53.4623 22.3668 52.7623 22.0802 51.8956 22.0802C51.029 22.0802 50.3223 22.3668 49.7756 22.9402C49.2423 23.5002 48.9756 24.3602 48.9756 25.5202V26.5402C48.9756 27.7002 49.2423 28.5668 49.7756 29.1402C50.3223 29.7002 51.029 29.9802 51.8956 29.9802ZM63.4934 20.3802C64.4001 20.3802 65.1401 20.4935 65.7134 20.7202C66.3001 20.9468 66.8201 21.2335 67.2734 21.5802L66.3534 23.0402C65.8468 22.6668 65.3734 22.4202 64.9334 22.3002C64.5068 22.1668 64.0268 22.1002 63.4934 22.1002C63.1334 22.1002 62.7868 22.1602 62.4534 22.2802C62.1201 22.4002 61.8268 22.5935 61.5734 22.8602C61.3201 23.1135 61.1134 23.4402 60.9534 23.8402C60.8068 24.2402 60.7334 24.7202 60.7334 25.2802V26.6602C60.7334 27.2468 60.8068 27.7535 60.9534 28.1802C61.1134 28.5935 61.3201 28.9335 61.5734 29.2002C61.8401 29.4535 62.1401 29.6402 62.4734 29.7602C62.8201 29.8802 63.1734 29.9402 63.5334 29.9402C64.2534 29.9402 64.8468 29.8468 65.3134 29.6602C65.7934 29.4735 66.2268 29.2335 66.6134 28.9402L67.5534 30.4202C67.1668 30.7402 66.6468 31.0268 65.9934 31.2802C65.3401 31.5468 64.5134 31.6802 63.5134 31.6802C61.9934 31.6802 60.8201 31.2402 59.9934 30.3602C59.1801 29.4802 58.7734 28.2535 58.7734 26.6802V25.3002C58.7734 24.5135 58.8868 23.8202 59.1134 23.2202C59.3401 22.6068 59.6534 22.0935 60.0534 21.6802C60.4668 21.2535 60.9601 20.9335 61.5334 20.7202C62.1201 20.4935 62.7734 20.3802 63.4934 20.3802ZM74.3092 24.9602L78.8892 31.5202H76.4492L72.9692 26.3202L71.4492 27.8602V31.5202H69.5092V16.4002H71.4492V25.5002L76.1292 20.5802H78.6292L74.3092 24.9602ZM84.6067 20.3802C85.5134 20.3802 86.2534 20.4935 86.8267 20.7202C87.4134 20.9468 87.9334 21.2335 88.3867 21.5802L87.4667 23.0402C86.9601 22.6668 86.4867 22.4202 86.0467 22.3002C85.6201 22.1668 85.1401 22.1002 84.6067 22.1002C84.2467 22.1002 83.9001 22.1602 83.5667 22.2802C83.2334 22.4002 82.9401 22.5935 82.6867 22.8602C82.4334 23.1135 82.2267 23.4402 82.0667 23.8402C81.9201 24.2402 81.8467 24.7202 81.8467 25.2802V26.6602C81.8467 27.2468 81.9201 27.7535 82.0667 28.1802C82.2267 28.5935 82.4334 28.9335 82.6867 29.2002C82.9534 29.4535 83.2534 29.6402 83.5867 29.7602C83.9334 29.8802 84.2867 29.9402 84.6467 29.9402C85.3667 29.9402 85.9601 29.8468 86.4267 29.6602C86.9067 29.4735 87.3401 29.2335 87.7267 28.9402L88.6667 30.4202C88.2801 30.7402 87.7601 31.0268 87.1067 31.2802C86.4534 31.5468 85.6267 31.6802 84.6267 31.6802C83.1067 31.6802 81.9334 31.2402 81.1067 30.3602C80.2934 29.4802 79.8867 28.2535 79.8867 26.6802V25.3002C79.8867 24.5135 80.0001 23.8202 80.2267 23.2202C80.4534 22.6068 80.7667 22.0935 81.1667 21.6802C81.5801 21.2535 82.0734 20.9335 82.6467 20.7202C83.2334 20.4935 83.8867 20.3802 84.6067 20.3802ZM99.6425 31.5202H97.7025V24.7202C97.7025 23.8002 97.5092 23.1335 97.1225 22.7202C96.7358 22.3068 96.1358 22.1002 95.3225 22.1002C94.9892 22.1002 94.6558 22.1602 94.3225 22.2802C94.0025 22.3868 93.7092 22.5535 93.4425 22.7802C93.1892 22.9935 92.9758 23.2668 92.8025 23.6002C92.6425 23.9335 92.5625 24.3135 92.5625 24.7402V31.5202H90.6225V16.4002H92.5625V21.9002C92.8958 21.4068 93.3292 21.0335 93.8625 20.7802C94.4092 20.5135 95.0558 20.3802 95.8025 20.3802C96.3358 20.3802 96.8358 20.4602 97.3025 20.6202C97.7692 20.7802 98.1758 21.0202 98.5225 21.3402C98.8692 21.6602 99.1425 22.0668 99.3425 22.5602C99.5425 23.0535 99.6425 23.6268 99.6425 24.2802V31.5202ZM105.635 31.6802C104.528 31.6802 103.648 31.4068 102.995 30.8602C102.355 30.3135 102.035 29.5602 102.035 28.6002V28.0602C102.035 27.1268 102.348 26.3668 102.975 25.7802C103.602 25.1935 104.615 24.9002 106.015 24.9002H108.795V24.2602C108.795 23.5268 108.615 22.9868 108.255 22.6402C107.908 22.2802 107.335 22.1002 106.535 22.1002C105.895 22.1002 105.335 22.2002 104.855 22.4002C104.388 22.6002 103.902 22.8668 103.395 23.2002L102.435 21.7602C102.968 21.3868 103.568 21.0668 104.235 20.8002C104.902 20.5202 105.675 20.3802 106.555 20.3802C107.168 20.3802 107.728 20.4602 108.235 20.6202C108.742 20.7668 109.175 20.9935 109.535 21.3002C109.908 21.5935 110.195 21.9602 110.395 22.4002C110.608 22.8268 110.715 23.3135 110.715 23.8602V31.5202H108.855V30.2002H108.835C108.728 30.4002 108.582 30.5868 108.395 30.7602C108.222 30.9202 108.028 31.0602 107.815 31.1802C107.522 31.3402 107.202 31.4602 106.855 31.5402C106.522 31.6335 106.115 31.6802 105.635 31.6802ZM108.795 26.5402H106.055C105.295 26.5402 104.748 26.6868 104.415 26.9802C104.095 27.2735 103.935 27.6802 103.935 28.2002V28.4802C103.935 29.0135 104.122 29.4002 104.495 29.6402C104.868 29.8802 105.315 30.0002 105.835 30.0002C106.315 30.0002 106.728 29.9468 107.075 29.8402C107.435 29.7202 107.762 29.5468 108.055 29.3202C108.322 29.1202 108.508 28.8935 108.615 28.6402C108.735 28.3735 108.795 28.0335 108.795 27.6202V26.5402ZM115.63 20.5802V31.5202H113.69V20.5802H115.63ZM115.69 16.6602V18.7802H113.63V16.6602H115.69ZM127.826 31.5202H125.886V24.7202C125.886 23.8002 125.693 23.1335 125.306 22.7202C124.919 22.3068 124.319 22.1002 123.506 22.1002C123.173 22.1002 122.839 22.1602 122.506 22.2802C122.186 22.3868 121.893 22.5535 121.626 22.7802C121.373 22.9935 121.159 23.2668 120.986 23.6002C120.826 23.9335 120.746 24.3135 120.746 24.7402V31.5202H118.806V20.5802H120.686V21.9602H120.706C121.039 21.4535 121.479 21.0668 122.026 20.8002C122.573 20.5202 123.226 20.3802 123.986 20.3802C124.519 20.3802 125.019 20.4602 125.486 20.6202C125.953 20.7802 126.359 21.0202 126.706 21.3402C127.053 21.6602 127.326 22.0668 127.526 22.5602C127.726 23.0535 127.826 23.6268 127.826 24.2802V31.5202ZM138.479 21.1202C138.412 20.9735 138.352 20.8335 138.299 20.7002C138.245 20.5535 138.192 20.4068 138.139 20.2602C138.085 20.1135 138.025 19.9468 137.959 19.7602C137.892 19.5735 137.819 19.3602 137.739 19.1202V31.5202H135.859V17.1002H138.779L142.779 26.5402L146.679 17.1002H149.579V31.5202H147.679V19.1202C147.612 19.3868 147.545 19.6135 147.479 19.8002C147.425 19.9735 147.372 20.1335 147.319 20.2802C147.279 20.4268 147.232 20.5668 147.179 20.7002C147.125 20.8335 147.065 20.9735 146.999 21.1202L143.559 29.1202H141.879L138.479 21.1202ZM155.811 31.6802C154.704 31.6802 153.824 31.4068 153.171 30.8602C152.531 30.3135 152.211 29.5602 152.211 28.6002V28.0602C152.211 27.1268 152.524 26.3668 153.151 25.7802C153.778 25.1935 154.791 24.9002 156.191 24.9002H158.971V24.2602C158.971 23.5268 158.791 22.9868 158.431 22.6402C158.084 22.2802 157.511 22.1002 156.711 22.1002C156.071 22.1002 155.511 22.2002 155.031 22.4002C154.564 22.6002 154.078 22.8668 153.571 23.2002L152.611 21.7602C153.144 21.3868 153.744 21.0668 154.411 20.8002C155.078 20.5202 155.851 20.3802 156.731 20.3802C157.344 20.3802 157.904 20.4602 158.411 20.6202C158.918 20.7668 159.351 20.9935 159.711 21.3002C160.084 21.5935 160.371 21.9602 160.571 22.4002C160.784 22.8268 160.891 23.3135 160.891 23.8602V31.5202H159.031V30.2002H159.011C158.904 30.4002 158.758 30.5868 158.571 30.7602C158.398 30.9202 158.204 31.0602 157.991 31.1802C157.698 31.3402 157.378 31.4602 157.031 31.5402C156.698 31.6335 156.291 31.6802 155.811 31.6802ZM158.971 26.5402H156.231C155.471 26.5402 154.924 26.6868 154.591 26.9802C154.271 27.2735 154.111 27.6802 154.111 28.2002V28.4802C154.111 29.0135 154.298 29.4002 154.671 29.6402C155.044 29.8802 155.491 30.0002 156.011 30.0002C156.491 30.0002 156.904 29.9468 157.251 29.8402C157.611 29.7202 157.938 29.5468 158.231 29.3202C158.498 29.1202 158.684 28.8935 158.791 28.6402C158.911 28.3735 158.971 28.0335 158.971 27.6202V26.5402ZM172.826 31.5202H170.886V24.7202C170.886 23.8002 170.693 23.1335 170.306 22.7202C169.919 22.3068 169.319 22.1002 168.506 22.1002C168.173 22.1002 167.839 22.1602 167.506 22.2802C167.186 22.3868 166.893 22.5535 166.626 22.7802C166.373 22.9935 166.159 23.2668 165.986 23.6002C165.826 23.9335 165.746 24.3135 165.746 24.7402V31.5202H163.806V20.5802H165.686V21.9602H165.706C166.039 21.4535 166.479 21.0668 167.026 20.8002C167.573 20.5202 168.226 20.3802 168.986 20.3802C169.519 20.3802 170.019 20.4602 170.486 20.6202C170.953 20.7802 171.359 21.0202 171.706 21.3402C172.053 21.6602 172.326 22.0668 172.526 22.5602C172.726 23.0535 172.826 23.6268 172.826 24.2802V31.5202ZM178.819 31.6802C177.712 31.6802 176.832 31.4068 176.179 30.8602C175.539 30.3135 175.219 29.5602 175.219 28.6002V28.0602C175.219 27.1268 175.532 26.3668 176.159 25.7802C176.785 25.1935 177.799 24.9002 179.199 24.9002H181.979V24.2602C181.979 23.5268 181.799 22.9868 181.439 22.6402C181.092 22.2802 180.519 22.1002 179.719 22.1002C179.079 22.1002 178.519 22.2002 178.039 22.4002C177.572 22.6002 177.085 22.8668 176.579 23.2002L175.619 21.7602C176.152 21.3868 176.752 21.0668 177.419 20.8002C178.085 20.5202 178.859 20.3802 179.739 20.3802C180.352 20.3802 180.912 20.4602 181.419 20.6202C181.925 20.7668 182.359 20.9935 182.719 21.3002C183.092 21.5935 183.379 21.9602 183.579 22.4002C183.792 22.8268 183.899 23.3135 183.899 23.8602V31.5202H182.039V30.2002H182.019C181.912 30.4002 181.765 30.5868 181.579 30.7602C181.405 30.9202 181.212 31.0602 180.999 31.1802C180.705 31.3402 180.385 31.4602 180.039 31.5402C179.705 31.6335 179.299 31.6802 178.819 31.6802ZM181.979 26.5402H179.239C178.479 26.5402 177.932 26.6868 177.599 26.9802C177.279 27.2735 177.119 27.6802 177.119 28.2002V28.4802C177.119 29.0135 177.305 29.4002 177.679 29.6402C178.052 29.8802 178.499 30.0002 179.019 30.0002C179.499 30.0002 179.912 29.9468 180.259 29.8402C180.619 29.7202 180.945 29.5468 181.239 29.3202C181.505 29.1202 181.692 28.8935 181.799 28.6402C181.919 28.3735 181.979 28.0335 181.979 27.6202V26.5402ZM195.614 31.3802C195.614 34.4468 193.987 35.9802 190.734 35.9802C189.987 35.9802 189.307 35.8735 188.694 35.6602C188.081 35.4468 187.547 35.1668 187.094 34.8202L187.974 33.3002C188.334 33.5668 188.754 33.7868 189.234 33.9602C189.727 34.1335 190.247 34.2202 190.794 34.2202C191.741 34.2202 192.454 33.9868 192.934 33.5202C193.427 33.0668 193.674 32.3535 193.674 31.3802V30.0402C193.367 30.5602 192.934 30.9268 192.374 31.1402C191.814 31.3668 191.201 31.4802 190.534 31.4802C189.147 31.4802 188.087 31.0802 187.354 30.2802C186.634 29.4668 186.274 28.3135 186.274 26.8202V25.0802C186.274 24.3468 186.381 23.6868 186.594 23.1002C186.807 22.5135 187.101 22.0202 187.474 21.6202C187.861 21.2202 188.321 20.9135 188.854 20.7002C189.387 20.4868 189.974 20.3802 190.614 20.3802C191.454 20.3802 192.114 20.5268 192.594 20.8202C193.087 21.1002 193.447 21.4002 193.674 21.7202V20.5802H195.614V31.3802ZM193.694 24.4002C193.694 24.1202 193.621 23.8402 193.474 23.5602C193.341 23.2802 193.141 23.0335 192.874 22.8202C192.621 22.5935 192.314 22.4135 191.954 22.2802C191.607 22.1468 191.227 22.0802 190.814 22.0802C189.987 22.0802 189.341 22.3668 188.874 22.9402C188.421 23.5135 188.194 24.3202 188.194 25.3602V26.5002C188.194 27.5402 188.427 28.3468 188.894 28.9202C189.361 29.4935 190.001 29.7802 190.814 29.7802C191.214 29.7802 191.587 29.7202 191.934 29.6002C192.281 29.4668 192.581 29.2802 192.834 29.0402C193.101 28.8002 193.307 28.5135 193.454 28.1802C193.614 27.8335 193.694 27.4468 193.694 27.0202V24.4002ZM202.868 22.0402C202.468 22.0402 202.095 22.1135 201.748 22.2602C201.415 22.3935 201.121 22.5868 200.868 22.8402C200.628 23.0802 200.435 23.3802 200.288 23.7402C200.155 24.0868 200.088 24.4668 200.088 24.8802V25.1602H205.568V24.8002C205.568 23.9602 205.328 23.2935 204.848 22.8002C204.368 22.2935 203.708 22.0402 202.868 22.0402ZM207.188 30.4802C206.708 30.8135 206.135 31.0935 205.468 31.3202C204.801 31.5602 203.968 31.6802 202.968 31.6802C202.288 31.6802 201.655 31.5802 201.068 31.3802C200.495 31.1935 199.988 30.9002 199.548 30.5002C199.121 30.0868 198.781 29.5602 198.528 28.9202C198.288 28.2802 198.168 27.5202 198.168 26.6402V25.4002C198.168 24.5735 198.281 23.8468 198.508 23.2202C198.748 22.5935 199.075 22.0735 199.488 21.6602C199.915 21.2335 200.415 20.9135 200.988 20.7002C201.561 20.4868 202.188 20.3802 202.868 20.3802C204.268 20.3802 205.381 20.8068 206.208 21.6602C207.035 22.5135 207.448 23.7202 207.448 25.2802V26.7402H200.088V26.8202C200.088 27.8602 200.361 28.6535 200.908 29.2002C201.455 29.7335 202.168 30.0002 203.048 30.0002C203.768 30.0002 204.381 29.9135 204.888 29.7402C205.408 29.5668 205.901 29.3268 206.368 29.0202L207.188 30.4802ZM215.918 22.4802C215.732 22.4002 215.525 22.3402 215.298 22.3002C215.085 22.2468 214.845 22.2202 214.578 22.2202C214.218 22.2202 213.872 22.2935 213.538 22.4402C213.218 22.5735 212.938 22.7735 212.698 23.0402C212.458 23.2935 212.265 23.6002 212.118 23.9602C211.972 24.3202 211.898 24.7135 211.898 25.1402V31.5202H209.958V20.5802H211.838V22.3202H211.858C212.178 21.7068 212.592 21.2335 213.098 20.9002C213.618 20.5535 214.278 20.3802 215.078 20.3802C215.558 20.3802 216.032 20.4535 216.498 20.6002L215.918 22.4802Z" fill="white"/>
<path d="M280 10C280 4.47715 284.477 0 290 0H510C515.523 0 520 4.47715 520 10V40C520 45.5228 515.523 50 510 50H290C284.477 50 280 45.5228 280 40V10Z" fill="#004596"/>
<path d="M332.17 29.9002C331.45 30.5935 330.663 31.0735 329.81 31.3402C328.957 31.6068 328.043 31.7402 327.07 31.7402C326.203 31.7402 325.417 31.6068 324.71 31.3402C324.003 31.0868 323.397 30.6935 322.89 30.1602C322.383 29.6268 321.99 28.9668 321.71 28.1802C321.43 27.3935 321.29 26.4668 321.29 25.4002V23.2202C321.29 22.1668 321.43 21.2468 321.71 20.4602C321.99 19.6735 322.383 19.0135 322.89 18.4802C323.41 17.9468 324.023 17.5468 324.73 17.2802C325.437 17.0135 326.217 16.8802 327.07 16.8802C328.07 16.8802 328.943 17.0068 329.69 17.2602C330.437 17.5002 331.15 17.8868 331.83 18.4202L330.81 20.0402C330.157 19.5068 329.53 19.1535 328.93 18.9802C328.343 18.8068 327.723 18.7202 327.07 18.7202C326.523 18.7202 326.017 18.8135 325.55 19.0002C325.097 19.1868 324.697 19.4735 324.35 19.8602C324.017 20.2468 323.757 20.7402 323.57 21.3402C323.383 21.9402 323.29 22.6535 323.29 23.4802V25.1402C323.29 25.9668 323.383 26.6802 323.57 27.2802C323.757 27.8802 324.017 28.3735 324.35 28.7602C324.697 29.1468 325.097 29.4335 325.55 29.6202C326.017 29.8068 326.523 29.9002 327.07 29.9002C327.763 29.9002 328.457 29.7935 329.15 29.5802C329.843 29.3668 330.49 28.9668 331.09 28.3802L332.17 29.9002ZM338.646 20.3802C340.152 20.3802 341.339 20.8135 342.206 21.6802C343.086 22.5468 343.526 23.7735 343.526 25.3602V26.7002C343.526 28.2868 343.086 29.5135 342.206 30.3802C341.339 31.2468 340.152 31.6802 338.646 31.6802C337.139 31.6802 335.946 31.2468 335.066 30.3802C334.199 29.5135 333.766 28.2868 333.766 26.7002V25.3602C333.766 23.7602 334.199 22.5335 335.066 21.6802C335.946 20.8135 337.139 20.3802 338.646 20.3802ZM338.646 29.9802C339.512 29.9802 340.212 29.7002 340.746 29.1402C341.292 28.5668 341.566 27.7002 341.566 26.5402V25.5202C341.566 24.3602 341.292 23.5002 340.746 22.9402C340.212 22.3668 339.512 22.0802 338.646 22.0802C337.779 22.0802 337.072 22.3668 336.526 22.9402C335.992 23.5002 335.726 24.3602 335.726 25.5202V26.5402C335.726 27.7002 335.992 28.5668 336.526 29.1402C337.072 29.7002 337.779 29.9802 338.646 29.9802ZM355.103 31.5202H353.163V24.7202C353.163 23.8002 352.97 23.1335 352.583 22.7202C352.197 22.3068 351.597 22.1002 350.783 22.1002C350.45 22.1002 350.117 22.1602 349.783 22.2802C349.463 22.3868 349.17 22.5535 348.903 22.7802C348.65 22.9935 348.437 23.2668 348.263 23.6002C348.103 23.9335 348.023 24.3135 348.023 24.7402V31.5202H346.083V20.5802H347.963V21.9602H347.983C348.317 21.4535 348.757 21.0668 349.303 20.8002C349.85 20.5202 350.503 20.3802 351.263 20.3802C351.797 20.3802 352.297 20.4602 352.763 20.6202C353.23 20.7802 353.637 21.0202 353.983 21.3402C354.33 21.6602 354.603 22.0668 354.803 22.5602C355.003 23.0535 355.103 23.6268 355.103 24.2802V31.5202ZM362.216 20.3802C363.123 20.3802 363.863 20.4935 364.436 20.7202C365.023 20.9468 365.543 21.2335 365.996 21.5802L365.076 23.0402C364.569 22.6668 364.096 22.4202 363.656 22.3002C363.229 22.1668 362.749 22.1002 362.216 22.1002C361.856 22.1002 361.509 22.1602 361.176 22.2802C360.843 22.4002 360.549 22.5935 360.296 22.8602C360.043 23.1135 359.836 23.4402 359.676 23.8402C359.529 24.2402 359.456 24.7202 359.456 25.2802V26.6602C359.456 27.2468 359.529 27.7535 359.676 28.1802C359.836 28.5935 360.043 28.9335 360.296 29.2002C360.563 29.4535 360.863 29.6402 361.196 29.7602C361.543 29.8802 361.896 29.9402 362.256 29.9402C362.976 29.9402 363.569 29.8468 364.036 29.6602C364.516 29.4735 364.949 29.2335 365.336 28.9402L366.276 30.4202C365.889 30.7402 365.369 31.0268 364.716 31.2802C364.063 31.5468 363.236 31.6802 362.236 31.6802C360.716 31.6802 359.543 31.2402 358.716 30.3602C357.903 29.4802 357.496 28.2535 357.496 26.6802V25.3002C357.496 24.5135 357.609 23.8202 357.836 23.2202C358.063 22.6068 358.376 22.0935 358.776 21.6802C359.189 21.2535 359.683 20.9335 360.256 20.7202C360.843 20.4935 361.496 20.3802 362.216 20.3802ZM372.372 22.0402C371.972 22.0402 371.599 22.1135 371.252 22.2602C370.919 22.3935 370.625 22.5868 370.372 22.8402C370.132 23.0802 369.939 23.3802 369.792 23.7402C369.659 24.0868 369.592 24.4668 369.592 24.8802V25.1602H375.072V24.8002C375.072 23.9602 374.832 23.2935 374.352 22.8002C373.872 22.2935 373.212 22.0402 372.372 22.0402ZM376.692 30.4802C376.212 30.8135 375.639 31.0935 374.972 31.3202C374.305 31.5602 373.472 31.6802 372.472 31.6802C371.792 31.6802 371.159 31.5802 370.572 31.3802C369.999 31.1935 369.492 30.9002 369.052 30.5002C368.625 30.0868 368.285 29.5602 368.032 28.9202C367.792 28.2802 367.672 27.5202 367.672 26.6402V25.4002C367.672 24.5735 367.785 23.8468 368.012 23.2202C368.252 22.5935 368.579 22.0735 368.992 21.6602C369.419 21.2335 369.919 20.9135 370.492 20.7002C371.065 20.4868 371.692 20.3802 372.372 20.3802C373.772 20.3802 374.885 20.8068 375.712 21.6602C376.539 22.5135 376.952 23.7202 376.952 25.2802V26.7402H369.592V26.8202C369.592 27.8602 369.865 28.6535 370.412 29.2002C370.959 29.7335 371.672 30.0002 372.552 30.0002C373.272 30.0002 373.885 29.9135 374.392 29.7402C374.912 29.5668 375.405 29.3268 375.872 29.0202L376.692 30.4802ZM388.482 31.5202H386.542V24.7202C386.542 23.8002 386.349 23.1335 385.962 22.7202C385.576 22.3068 384.976 22.1002 384.162 22.1002C383.829 22.1002 383.496 22.1602 383.162 22.2802C382.842 22.3868 382.549 22.5535 382.282 22.7802C382.029 22.9935 381.816 23.2668 381.642 23.6002C381.482 23.9335 381.402 24.3135 381.402 24.7402V31.5202H379.462V20.5802H381.342V21.9602H381.362C381.696 21.4535 382.136 21.0668 382.682 20.8002C383.229 20.5202 383.882 20.3802 384.642 20.3802C385.176 20.3802 385.676 20.4602 386.142 20.6202C386.609 20.7802 387.016 21.0202 387.362 21.3402C387.709 21.6602 387.982 22.0668 388.182 22.5602C388.382 23.0535 388.482 23.6268 388.482 24.2802V31.5202ZM394.835 30.0002C395.555 30.0002 396.115 29.8735 396.515 29.6202C396.915 29.3668 397.115 29.0202 397.115 28.5802V28.4202C397.115 28.1935 397.082 28.0002 397.015 27.8402C396.948 27.6802 396.822 27.5402 396.635 27.4202C396.448 27.3002 396.195 27.1935 395.875 27.1002C395.555 26.9935 395.135 26.8868 394.615 26.7802C394.015 26.6602 393.482 26.5135 393.015 26.3402C392.548 26.1668 392.155 25.9602 391.835 25.7202C391.515 25.4668 391.268 25.1668 391.095 24.8202C390.935 24.4735 390.855 24.0602 390.855 23.5802V23.3402C390.855 22.9668 390.935 22.6002 391.095 22.2402C391.255 21.8802 391.502 21.5668 391.835 21.3002C392.168 21.0202 392.588 20.8002 393.095 20.6402C393.615 20.4668 394.228 20.3802 394.935 20.3802C395.682 20.3802 396.375 20.4668 397.015 20.6402C397.668 20.8002 398.268 21.0735 398.815 21.4602L397.955 22.9202C397.595 22.6535 397.162 22.4402 396.655 22.2802C396.162 22.1202 395.635 22.0402 395.075 22.0402C394.262 22.0402 393.675 22.1668 393.315 22.4202C392.968 22.6602 392.795 22.9735 392.795 23.3602V23.5402C392.795 23.9668 392.975 24.2868 393.335 24.5002C393.695 24.7002 394.302 24.8802 395.155 25.0402C395.822 25.1602 396.402 25.3068 396.895 25.4802C397.388 25.6535 397.795 25.8735 398.115 26.1402C398.435 26.3935 398.675 26.7002 398.835 27.0602C398.995 27.4202 399.075 27.8535 399.075 28.3602V28.6202C399.075 29.0468 398.975 29.4468 398.775 29.8202C398.588 30.1935 398.315 30.5202 397.955 30.8002C397.595 31.0668 397.155 31.2802 396.635 31.4402C396.128 31.6002 395.555 31.6802 394.915 31.6802C393.995 31.6802 393.162 31.5602 392.415 31.3202C391.668 31.0802 391.035 30.7602 390.515 30.3602L391.415 28.8402C391.908 29.1735 392.435 29.4535 392.995 29.6802C393.555 29.8935 394.168 30.0002 394.835 30.0002ZM401.236 20.5802H403.176V27.3802C403.176 28.3002 403.363 28.9668 403.736 29.3802C404.109 29.7935 404.703 30.0002 405.516 30.0002C405.849 30.0002 406.176 29.9468 406.496 29.8402C406.816 29.7202 407.103 29.5535 407.356 29.3402C407.623 29.1135 407.836 28.8335 407.996 28.5002C408.156 28.1668 408.236 27.7868 408.236 27.3602V20.5802H410.176V31.5202H408.296V30.1402H408.276C407.943 30.6468 407.509 31.0335 406.976 31.3002C406.443 31.5802 405.796 31.7202 405.036 31.7202C404.503 31.7202 404.003 31.6402 403.536 31.4802C403.083 31.3202 402.683 31.0802 402.336 30.7602C402.003 30.4402 401.736 30.0402 401.536 29.5602C401.336 29.0668 401.236 28.4868 401.236 27.8202V20.5802ZM416.69 30.0002C417.41 30.0002 417.97 29.8735 418.37 29.6202C418.77 29.3668 418.97 29.0202 418.97 28.5802V28.4202C418.97 28.1935 418.937 28.0002 418.87 27.8402C418.804 27.6802 418.677 27.5402 418.49 27.4202C418.304 27.3002 418.05 27.1935 417.73 27.1002C417.41 26.9935 416.99 26.8868 416.47 26.7802C415.87 26.6602 415.337 26.5135 414.87 26.3402C414.404 26.1668 414.01 25.9602 413.69 25.7202C413.37 25.4668 413.124 25.1668 412.95 24.8202C412.79 24.4735 412.71 24.0602 412.71 23.5802V23.3402C412.71 22.9668 412.79 22.6002 412.95 22.2402C413.11 21.8802 413.357 21.5668 413.69 21.3002C414.024 21.0202 414.444 20.8002 414.95 20.6402C415.47 20.4668 416.084 20.3802 416.79 20.3802C417.537 20.3802 418.23 20.4668 418.87 20.6402C419.524 20.8002 420.124 21.0735 420.67 21.4602L419.81 22.9202C419.45 22.6535 419.017 22.4402 418.51 22.2802C418.017 22.1202 417.49 22.0402 416.93 22.0402C416.117 22.0402 415.53 22.1668 415.17 22.4202C414.824 22.6602 414.65 22.9735 414.65 23.3602V23.5402C414.65 23.9668 414.83 24.2868 415.19 24.5002C415.55 24.7002 416.157 24.8802 417.01 25.0402C417.677 25.1602 418.257 25.3068 418.75 25.4802C419.244 25.6535 419.65 25.8735 419.97 26.1402C420.29 26.3935 420.53 26.7002 420.69 27.0602C420.85 27.4202 420.93 27.8535 420.93 28.3602V28.6202C420.93 29.0468 420.83 29.4468 420.63 29.8202C420.444 30.1935 420.17 30.5202 419.81 30.8002C419.45 31.0668 419.01 31.2802 418.49 31.4402C417.984 31.6002 417.41 31.6802 416.77 31.6802C415.85 31.6802 415.017 31.5602 414.27 31.3202C413.524 31.0802 412.89 30.7602 412.37 30.3602L413.27 28.8402C413.764 29.1735 414.29 29.4535 414.85 29.6802C415.41 29.8935 416.024 30.0002 416.69 30.0002ZM437.311 17.1002V18.8002H430.311V23.2802H436.891V24.9802H430.311V29.8202H437.451V31.5202H428.331V17.1002H437.311ZM449.225 31.5202H447.285V24.7202C447.285 23.8002 447.091 23.1335 446.705 22.7202C446.318 22.3068 445.718 22.1002 444.905 22.1002C444.571 22.1002 444.238 22.1602 443.905 22.2802C443.585 22.3868 443.291 22.5535 443.025 22.7802C442.771 22.9935 442.558 23.2668 442.385 23.6002C442.225 23.9335 442.145 24.3135 442.145 24.7402V31.5202H440.205V20.5802H442.085V21.9602H442.105C442.438 21.4535 442.878 21.0668 443.425 20.8002C443.971 20.5202 444.625 20.3802 445.385 20.3802C445.918 20.3802 446.418 20.4602 446.885 20.6202C447.351 20.7802 447.758 21.0202 448.105 21.3402C448.451 21.6602 448.725 22.0668 448.925 22.5602C449.125 23.0535 449.225 23.6268 449.225 24.2802V31.5202ZM460.977 31.3802C460.977 34.4468 459.351 35.9802 456.097 35.9802C455.351 35.9802 454.671 35.8735 454.057 35.6602C453.444 35.4468 452.911 35.1668 452.457 34.8202L453.337 33.3002C453.697 33.5668 454.117 33.7868 454.597 33.9602C455.091 34.1335 455.611 34.2202 456.157 34.2202C457.104 34.2202 457.817 33.9868 458.297 33.5202C458.791 33.0668 459.037 32.3535 459.037 31.3802V30.0402C458.731 30.5602 458.297 30.9268 457.737 31.1402C457.177 31.3668 456.564 31.4802 455.897 31.4802C454.511 31.4802 453.451 31.0802 452.717 30.2802C451.997 29.4668 451.637 28.3135 451.637 26.8202V25.0802C451.637 24.3468 451.744 23.6868 451.957 23.1002C452.171 22.5135 452.464 22.0202 452.837 21.6202C453.224 21.2202 453.684 20.9135 454.217 20.7002C454.751 20.4868 455.337 20.3802 455.977 20.3802C456.817 20.3802 457.477 20.5268 457.957 20.8202C458.451 21.1002 458.811 21.4002 459.037 21.7202V20.5802H460.977V31.3802ZM459.057 24.4002C459.057 24.1202 458.984 23.8402 458.837 23.5602C458.704 23.2802 458.504 23.0335 458.237 22.8202C457.984 22.5935 457.677 22.4135 457.317 22.2802C456.971 22.1468 456.591 22.0802 456.177 22.0802C455.351 22.0802 454.704 22.3668 454.237 22.9402C453.784 23.5135 453.557 24.3202 453.557 25.3602V26.5002C453.557 27.5402 453.791 28.3468 454.257 28.9202C454.724 29.4935 455.364 29.7802 456.177 29.7802C456.577 29.7802 456.951 29.7202 457.297 29.6002C457.644 29.4668 457.944 29.2802 458.197 29.0402C458.464 28.8002 458.671 28.5135 458.817 28.1802C458.977 27.8335 459.057 27.4468 459.057 27.0202V24.4002ZM466.091 20.5802V31.5202H464.151V20.5802H466.091ZM466.151 16.6602V18.7802H464.091V16.6602H466.151ZM478.287 31.5202H476.347V24.7202C476.347 23.8002 476.154 23.1335 475.767 22.7202C475.38 22.3068 474.78 22.1002 473.967 22.1002C473.634 22.1002 473.3 22.1602 472.967 22.2802C472.647 22.3868 472.354 22.5535 472.087 22.7802C471.834 22.9935 471.62 23.2668 471.447 23.6002C471.287 23.9335 471.207 24.3135 471.207 24.7402V31.5202H469.267V20.5802H471.147V21.9602H471.167C471.5 21.4535 471.94 21.0668 472.487 20.8002C473.034 20.5202 473.687 20.3802 474.447 20.3802C474.98 20.3802 475.48 20.4602 475.947 20.6202C476.414 20.7802 476.82 21.0202 477.167 21.3402C477.514 21.6602 477.787 22.0668 477.987 22.5602C478.187 23.0535 478.287 23.6268 478.287 24.2802V31.5202ZM485.38 22.0402C484.98 22.0402 484.606 22.1135 484.26 22.2602C483.926 22.3935 483.633 22.5868 483.38 22.8402C483.14 23.0802 482.946 23.3802 482.8 23.7402C482.666 24.0868 482.6 24.4668 482.6 24.8802V25.1602H488.08V24.8002C488.08 23.9602 487.84 23.2935 487.36 22.8002C486.88 22.2935 486.22 22.0402 485.38 22.0402ZM489.7 30.4802C489.22 30.8135 488.646 31.0935 487.98 31.3202C487.313 31.5602 486.48 31.6802 485.48 31.6802C484.8 31.6802 484.166 31.5802 483.58 31.3802C483.006 31.1935 482.5 30.9002 482.06 30.5002C481.633 30.0868 481.293 29.5602 481.04 28.9202C480.8 28.2802 480.68 27.5202 480.68 26.6402V25.4002C480.68 24.5735 480.793 23.8468 481.02 23.2202C481.26 22.5935 481.586 22.0735 482 21.6602C482.426 21.2335 482.926 20.9135 483.5 20.7002C484.073 20.4868 484.7 20.3802 485.38 20.3802C486.78 20.3802 487.893 20.8068 488.72 21.6602C489.546 22.5135 489.96 23.7202 489.96 25.2802V26.7402H482.6V26.8202C482.6 27.8602 482.873 28.6535 483.42 29.2002C483.966 29.7335 484.68 30.0002 485.56 30.0002C486.28 30.0002 486.893 29.9135 487.4 29.7402C487.92 29.5668 488.413 29.3268 488.88 29.0202L489.7 30.4802Z" fill="white"/>
<path d="M620 10C620 4.47715 624.477 0 630 0H850C855.523 0 860 4.47715 860 10V40C860 45.5228 855.523 50 850 50H630C624.477 50 620 45.5228 620 40V10Z" fill="#004596"/>
<path d="M648.391 21.1202C648.324 20.9735 648.264 20.8335 648.211 20.7002C648.158 20.5535 648.104 20.4068 648.051 20.2602C647.998 20.1135 647.938 19.9468 647.871 19.7602C647.804 19.5735 647.731 19.3602 647.651 19.1202V31.5202H645.771V17.1002H648.691L652.691 26.5402L656.591 17.1002H659.491V31.5202H657.591V19.1202C657.524 19.3868 657.458 19.6135 657.391 19.8002C657.338 19.9735 657.284 20.1335 657.231 20.2802C657.191 20.4268 657.144 20.5668 657.091 20.7002C657.038 20.8335 656.978 20.9735 656.911 21.1202L653.471 29.1202H651.791L648.391 21.1202ZM667.003 20.3802C668.51 20.3802 669.696 20.8135 670.563 21.6802C671.443 22.5468 671.883 23.7735 671.883 25.3602V26.7002C671.883 28.2868 671.443 29.5135 670.563 30.3802C669.696 31.2468 668.51 31.6802 667.003 31.6802C665.496 31.6802 664.303 31.2468 663.423 30.3802C662.556 29.5135 662.123 28.2868 662.123 26.7002V25.3602C662.123 23.7602 662.556 22.5335 663.423 21.6802C664.303 20.8135 665.496 20.3802 667.003 20.3802ZM667.003 29.9802C667.87 29.9802 668.57 29.7002 669.103 29.1402C669.65 28.5668 669.923 27.7002 669.923 26.5402V25.5202C669.923 24.3602 669.65 23.5002 669.103 22.9402C668.57 22.3668 667.87 22.0802 667.003 22.0802C666.136 22.0802 665.43 22.3668 664.883 22.9402C664.35 23.5002 664.083 24.3602 664.083 25.5202V26.5402C664.083 27.7002 664.35 28.5668 664.883 29.1402C665.43 29.7002 666.136 29.9802 667.003 29.9802ZM683.461 31.5202H681.521V24.7202C681.521 23.8002 681.328 23.1335 680.941 22.7202C680.554 22.3068 679.954 22.1002 679.141 22.1002C678.808 22.1002 678.474 22.1602 678.141 22.2802C677.821 22.3868 677.528 22.5535 677.261 22.7802C677.008 22.9935 676.794 23.2668 676.621 23.6002C676.461 23.9335 676.381 24.3135 676.381 24.7402V31.5202H674.441V20.5802H676.321V21.9602H676.341C676.674 21.4535 677.114 21.0668 677.661 20.8002C678.208 20.5202 678.861 20.3802 679.621 20.3802C680.154 20.3802 680.654 20.4602 681.121 20.6202C681.588 20.7802 681.994 21.0202 682.341 21.3402C682.688 21.6602 682.961 22.0668 683.161 22.5602C683.361 23.0535 683.461 23.6268 683.461 24.2802V31.5202ZM688.414 20.5802V31.5202H686.474V20.5802H688.414ZM688.474 16.6602V18.7802H686.414V16.6602H688.474ZM692.269 22.2402H690.469V20.5802H692.269V17.8202H694.209V20.5802H697.089V22.2402H694.209V28.4602C694.209 28.7935 694.243 29.0668 694.309 29.2802C694.376 29.4802 694.469 29.6335 694.589 29.7402C694.723 29.8468 694.876 29.9202 695.049 29.9602C695.223 30.0002 695.409 30.0202 695.609 30.0202C696.089 30.0202 696.569 29.9335 697.049 29.7602L697.349 31.3202C697.123 31.4135 696.823 31.4935 696.449 31.5602C696.076 31.6402 695.696 31.6802 695.309 31.6802C694.269 31.6802 693.503 31.4202 693.009 30.9002C692.516 30.3802 692.269 29.5668 692.269 28.4602V22.2402ZM703.683 20.3802C705.189 20.3802 706.376 20.8135 707.243 21.6802C708.123 22.5468 708.563 23.7735 708.563 25.3602V26.7002C708.563 28.2868 708.123 29.5135 707.243 30.3802C706.376 31.2468 705.189 31.6802 703.683 31.6802C702.176 31.6802 700.983 31.2468 700.103 30.3802C699.236 29.5135 698.803 28.2868 698.803 26.7002V25.3602C698.803 23.7602 699.236 22.5335 700.103 21.6802C700.983 20.8135 702.176 20.3802 703.683 20.3802ZM703.683 29.9802C704.549 29.9802 705.249 29.7002 705.783 29.1402C706.329 28.5668 706.603 27.7002 706.603 26.5402V25.5202C706.603 24.3602 706.329 23.5002 705.783 22.9402C705.249 22.3668 704.549 22.0802 703.683 22.0802C702.816 22.0802 702.109 22.3668 701.563 22.9402C701.029 23.5002 700.763 24.3602 700.763 25.5202V26.5402C700.763 27.7002 701.029 28.5668 701.563 29.1402C702.109 29.7002 702.816 29.9802 703.683 29.9802ZM717.081 22.4802C716.894 22.4002 716.687 22.3402 716.461 22.3002C716.247 22.2468 716.007 22.2202 715.741 22.2202C715.381 22.2202 715.034 22.2935 714.701 22.4402C714.381 22.5735 714.101 22.7735 713.861 23.0402C713.621 23.2935 713.427 23.6002 713.281 23.9602C713.134 24.3202 713.061 24.7135 713.061 25.1402V31.5202H711.121V20.5802H713.001V22.3202H713.021C713.341 21.7068 713.754 21.2335 714.261 20.9002C714.781 20.5535 715.441 20.3802 716.241 20.3802C716.721 20.3802 717.194 20.4535 717.661 20.6002L717.081 22.4802ZM721.46 20.5802V31.5202H719.52V20.5802H721.46ZM721.52 16.6602V18.7802H719.46V16.6602H721.52ZM733.656 31.5202H731.716V24.7202C731.716 23.8002 731.523 23.1335 731.136 22.7202C730.75 22.3068 730.15 22.1002 729.336 22.1002C729.003 22.1002 728.67 22.1602 728.336 22.2802C728.016 22.3868 727.723 22.5535 727.456 22.7802C727.203 22.9935 726.99 23.2668 726.816 23.6002C726.656 23.9335 726.576 24.3135 726.576 24.7402V31.5202H724.636V20.5802H726.516V21.9602H726.536C726.87 21.4535 727.31 21.0668 727.856 20.8002C728.403 20.5202 729.056 20.3802 729.816 20.3802C730.35 20.3802 730.85 20.4602 731.316 20.6202C731.783 20.7802 732.19 21.0202 732.536 21.3402C732.883 21.6602 733.156 22.0668 733.356 22.5602C733.556 23.0535 733.656 23.6268 733.656 24.2802V31.5202ZM745.409 31.3802C745.409 34.4468 743.782 35.9802 740.529 35.9802C739.782 35.9802 739.102 35.8735 738.489 35.6602C737.875 35.4468 737.342 35.1668 736.889 34.8202L737.769 33.3002C738.129 33.5668 738.549 33.7868 739.029 33.9602C739.522 34.1335 740.042 34.2202 740.589 34.2202C741.535 34.2202 742.249 33.9868 742.729 33.5202C743.222 33.0668 743.469 32.3535 743.469 31.3802V30.0402C743.162 30.5602 742.729 30.9268 742.169 31.1402C741.609 31.3668 740.995 31.4802 740.329 31.4802C738.942 31.4802 737.882 31.0802 737.149 30.2802C736.429 29.4668 736.069 28.3135 736.069 26.8202V25.0802C736.069 24.3468 736.175 23.6868 736.389 23.1002C736.602 22.5135 736.895 22.0202 737.269 21.6202C737.655 21.2202 738.115 20.9135 738.649 20.7002C739.182 20.4868 739.769 20.3802 740.409 20.3802C741.249 20.3802 741.909 20.5268 742.389 20.8202C742.882 21.1002 743.242 21.4002 743.469 21.7202V20.5802H745.409V31.3802ZM743.489 24.4002C743.489 24.1202 743.415 23.8402 743.269 23.5602C743.135 23.2802 742.935 23.0335 742.669 22.8202C742.415 22.5935 742.109 22.4135 741.749 22.2802C741.402 22.1468 741.022 22.0802 740.609 22.0802C739.782 22.0802 739.135 22.3668 738.669 22.9402C738.215 23.5135 737.989 24.3202 737.989 25.3602V26.5002C737.989 27.5402 738.222 28.3468 738.689 28.9202C739.155 29.4935 739.795 29.7802 740.609 29.7802C741.009 29.7802 741.382 29.7202 741.729 29.6002C742.075 29.4668 742.375 29.2802 742.629 29.0402C742.895 28.8002 743.102 28.5135 743.249 28.1802C743.409 27.8335 743.489 27.4468 743.489 27.0202V24.4002ZM764.043 29.9002C763.323 30.5935 762.536 31.0735 761.683 31.3402C760.83 31.6068 759.916 31.7402 758.943 31.7402C758.076 31.7402 757.29 31.6068 756.583 31.3402C755.876 31.0868 755.27 30.6935 754.763 30.1602C754.256 29.6268 753.863 28.9668 753.583 28.1802C753.303 27.3935 753.163 26.4668 753.163 25.4002V23.2202C753.163 22.1668 753.303 21.2468 753.583 20.4602C753.863 19.6735 754.256 19.0135 754.763 18.4802C755.283 17.9468 755.896 17.5468 756.603 17.2802C757.31 17.0135 758.09 16.8802 758.943 16.8802C759.943 16.8802 760.816 17.0068 761.563 17.2602C762.31 17.5002 763.023 17.8868 763.703 18.4202L762.683 20.0402C762.03 19.5068 761.403 19.1535 760.803 18.9802C760.216 18.8068 759.596 18.7202 758.943 18.7202C758.396 18.7202 757.89 18.8135 757.423 19.0002C756.97 19.1868 756.57 19.4735 756.223 19.8602C755.89 20.2468 755.63 20.7402 755.443 21.3402C755.256 21.9402 755.163 22.6535 755.163 23.4802V25.1402C755.163 25.9668 755.256 26.6802 755.443 27.2802C755.63 27.8802 755.89 28.3735 756.223 28.7602C756.57 29.1468 756.97 29.4335 757.423 29.6202C757.89 29.8068 758.396 29.9002 758.943 29.9002C759.636 29.9002 760.33 29.7935 761.023 29.5802C761.716 29.3668 762.363 28.9668 762.963 28.3802L764.043 29.9002ZM770.519 20.3802C772.025 20.3802 773.212 20.8135 774.079 21.6802C774.959 22.5468 775.399 23.7735 775.399 25.3602V26.7002C775.399 28.2868 774.959 29.5135 774.079 30.3802C773.212 31.2468 772.025 31.6802 770.519 31.6802C769.012 31.6802 767.819 31.2468 766.939 30.3802C766.072 29.5135 765.639 28.2868 765.639 26.7002V25.3602C765.639 23.7602 766.072 22.5335 766.939 21.6802C767.819 20.8135 769.012 20.3802 770.519 20.3802ZM770.519 29.9802C771.385 29.9802 772.085 29.7002 772.619 29.1402C773.165 28.5668 773.439 27.7002 773.439 26.5402V25.5202C773.439 24.3602 773.165 23.5002 772.619 22.9402C772.085 22.3668 771.385 22.0802 770.519 22.0802C769.652 22.0802 768.945 22.3668 768.399 22.9402C767.865 23.5002 767.599 24.3602 767.599 25.5202V26.5402C767.599 27.7002 767.865 28.5668 768.399 29.1402C768.945 29.7002 769.652 29.9802 770.519 29.9802ZM786.976 31.5202H785.036V24.7202C785.036 23.8002 784.843 23.1335 784.456 22.7202C784.07 22.3068 783.47 22.1002 782.656 22.1002C782.323 22.1002 781.99 22.1602 781.656 22.2802C781.336 22.3868 781.043 22.5535 780.776 22.7802C780.523 22.9935 780.31 23.2668 780.136 23.6002C779.976 23.9335 779.896 24.3135 779.896 24.7402V31.5202H777.956V20.5802H779.836V21.9602H779.856C780.19 21.4535 780.63 21.0668 781.176 20.8002C781.723 20.5202 782.376 20.3802 783.136 20.3802C783.67 20.3802 784.17 20.4602 784.636 20.6202C785.103 20.7802 785.51 21.0202 785.856 21.3402C786.203 21.6602 786.476 22.0668 786.676 22.5602C786.876 23.0535 786.976 23.6268 786.976 24.2802V31.5202ZM790.609 22.2402H788.809V20.5802H790.609V17.8202H792.549V20.5802H795.429V22.2402H792.549V28.4602C792.549 28.7935 792.582 29.0668 792.649 29.2802C792.716 29.4802 792.809 29.6335 792.929 29.7402C793.062 29.8468 793.216 29.9202 793.389 29.9602C793.562 30.0002 793.749 30.0202 793.949 30.0202C794.429 30.0202 794.909 29.9335 795.389 29.7602L795.689 31.3202C795.462 31.4135 795.162 31.4935 794.789 31.5602C794.416 31.6402 794.036 31.6802 793.649 31.6802C792.609 31.6802 791.842 31.4202 791.349 30.9002C790.856 30.3802 790.609 29.5668 790.609 28.4602V22.2402ZM803.663 22.4802C803.476 22.4002 803.269 22.3402 803.043 22.3002C802.829 22.2468 802.589 22.2202 802.323 22.2202C801.963 22.2202 801.616 22.2935 801.283 22.4402C800.963 22.5735 800.683 22.7735 800.443 23.0402C800.203 23.2935 800.009 23.6002 799.863 23.9602C799.716 24.3202 799.643 24.7135 799.643 25.1402V31.5202H797.703V20.5802H799.583V22.3202H799.603C799.923 21.7068 800.336 21.2335 800.843 20.9002C801.363 20.5535 802.023 20.3802 802.823 20.3802C803.303 20.3802 803.776 20.4535 804.243 20.6002L803.663 22.4802ZM810.304 20.3802C811.81 20.3802 812.997 20.8135 813.864 21.6802C814.744 22.5468 815.184 23.7735 815.184 25.3602V26.7002C815.184 28.2868 814.744 29.5135 813.864 30.3802C812.997 31.2468 811.81 31.6802 810.304 31.6802C808.797 31.6802 807.604 31.2468 806.724 30.3802C805.857 29.5135 805.424 28.2868 805.424 26.7002V25.3602C805.424 23.7602 805.857 22.5335 806.724 21.6802C807.604 20.8135 808.797 20.3802 810.304 20.3802ZM810.304 29.9802C811.17 29.9802 811.87 29.7002 812.404 29.1402C812.95 28.5668 813.224 27.7002 813.224 26.5402V25.5202C813.224 24.3602 812.95 23.5002 812.404 22.9402C811.87 22.3668 811.17 22.0802 810.304 22.0802C809.437 22.0802 808.73 22.3668 808.184 22.9402C807.65 23.5002 807.384 24.3602 807.384 25.5202V26.5402C807.384 27.7002 807.65 28.5668 808.184 29.1402C808.73 29.7002 809.437 29.9802 810.304 29.9802ZM819.682 16.4002V31.5202H817.742V16.4002H819.682ZM824.74 16.4002V31.5202H822.8V16.4002H824.74ZM831.999 22.0402C831.599 22.0402 831.225 22.1135 830.879 22.2602C830.545 22.3935 830.252 22.5868 829.999 22.8402C829.759 23.0802 829.565 23.3802 829.419 23.7402C829.285 24.0868 829.219 24.4668 829.219 24.8802V25.1602H834.699V24.8002C834.699 23.9602 834.459 23.2935 833.979 22.8002C833.499 22.2935 832.839 22.0402 831.999 22.0402ZM836.319 30.4802C835.839 30.8135 835.265 31.0935 834.599 31.3202C833.932 31.5602 833.099 31.6802 832.099 31.6802C831.419 31.6802 830.785 31.5802 830.199 31.3802C829.625 31.1935 829.119 30.9002 828.679 30.5002C828.252 30.0868 827.912 29.5602 827.659 28.9202C827.419 28.2802 827.299 27.5202 827.299 26.6402V25.4002C827.299 24.5735 827.412 23.8468 827.639 23.2202C827.879 22.5935 828.205 22.0735 828.619 21.6602C829.045 21.2335 829.545 20.9135 830.119 20.7002C830.692 20.4868 831.319 20.3802 831.999 20.3802C833.399 20.3802 834.512 20.8068 835.339 21.6602C836.165 22.5135 836.579 23.7202 836.579 25.2802V26.7402H829.219V26.8202C829.219 27.8602 829.492 28.6535 830.039 29.2002C830.585 29.7335 831.299 30.0002 832.179 30.0002C832.899 30.0002 833.512 29.9135 834.019 29.7402C834.539 29.5668 835.032 29.3268 835.499 29.0202L836.319 30.4802ZM845.049 22.4802C844.863 22.4002 844.656 22.3402 844.429 22.3002C844.216 22.2468 843.976 22.2202 843.709 22.2202C843.349 22.2202 843.003 22.2935 842.669 22.4402C842.349 22.5735 842.069 22.7735 841.829 23.0402C841.589 23.2935 841.396 23.6002 841.249 23.9602C841.103 24.3202 841.029 24.7135 841.029 25.1402V31.5202H839.089V20.5802H840.969V22.3202H840.989C841.309 21.7068 841.723 21.2335 842.229 20.9002C842.749 20.5535 843.409 20.3802 844.209 20.3802C844.689 20.3802 845.163 20.4535 845.629 20.6002L845.049 22.4802Z" fill="white"/>
<path d="M280 210C280 204.477 284.477 200 290 200H510C515.523 200 520 204.477 520 210V240C520 245.523 515.523 250 510 250H290C284.477 250 280 245.523 280 240V210Z" fill="#00B695"/>
<path d="M332.741 231.52H330.761V217.1H335.981C336.714 217.1 337.368 217.2 337.941 217.4C338.514 217.6 338.994 217.873 339.381 218.22C339.768 218.567 340.061 218.98 340.261 219.46C340.474 219.94 340.581 220.467 340.581 221.04V221.56C340.581 222.373 340.368 223.093 339.941 223.72C339.528 224.347 338.934 224.813 338.161 225.12L341.021 231.52H338.881L336.281 225.5H332.741V231.52ZM332.741 223.82H335.501C336.621 223.82 337.414 223.613 337.881 223.2C338.361 222.773 338.601 222.207 338.601 221.5V221.1C338.601 220.393 338.368 219.833 337.901 219.42C337.434 219.007 336.701 218.8 335.701 218.8H332.741V223.82ZM347.712 222.04C347.312 222.04 346.938 222.113 346.592 222.26C346.258 222.393 345.965 222.587 345.712 222.84C345.472 223.08 345.278 223.38 345.132 223.74C344.998 224.087 344.932 224.467 344.932 224.88V225.16H350.412V224.8C350.412 223.96 350.172 223.293 349.692 222.8C349.212 222.293 348.552 222.04 347.712 222.04ZM352.032 230.48C351.552 230.813 350.978 231.093 350.312 231.32C349.645 231.56 348.812 231.68 347.812 231.68C347.132 231.68 346.498 231.58 345.912 231.38C345.338 231.193 344.832 230.9 344.392 230.5C343.965 230.087 343.625 229.56 343.372 228.92C343.132 228.28 343.012 227.52 343.012 226.64V225.4C343.012 224.573 343.125 223.847 343.352 223.22C343.592 222.593 343.918 222.073 344.332 221.66C344.758 221.233 345.258 220.913 345.832 220.7C346.405 220.487 347.032 220.38 347.712 220.38C349.112 220.38 350.225 220.807 351.052 221.66C351.878 222.513 352.292 223.72 352.292 225.28V226.74H344.932V226.82C344.932 227.86 345.205 228.653 345.752 229.2C346.298 229.733 347.012 230 347.892 230C348.612 230 349.225 229.913 349.732 229.74C350.252 229.567 350.745 229.327 351.212 229.02L352.032 230.48ZM358.202 230C358.922 230 359.482 229.873 359.882 229.62C360.282 229.367 360.482 229.02 360.482 228.58V228.42C360.482 228.193 360.449 228 360.382 227.84C360.316 227.68 360.189 227.54 360.002 227.42C359.816 227.3 359.562 227.193 359.242 227.1C358.922 226.993 358.502 226.887 357.982 226.78C357.382 226.66 356.849 226.513 356.382 226.34C355.916 226.167 355.522 225.96 355.202 225.72C354.882 225.467 354.636 225.167 354.462 224.82C354.302 224.473 354.222 224.06 354.222 223.58V223.34C354.222 222.967 354.302 222.6 354.462 222.24C354.622 221.88 354.869 221.567 355.202 221.3C355.536 221.02 355.956 220.8 356.462 220.64C356.982 220.467 357.596 220.38 358.302 220.38C359.049 220.38 359.742 220.467 360.382 220.64C361.036 220.8 361.636 221.073 362.182 221.46L361.322 222.92C360.962 222.653 360.529 222.44 360.022 222.28C359.529 222.12 359.002 222.04 358.442 222.04C357.629 222.04 357.042 222.167 356.682 222.42C356.336 222.66 356.162 222.973 356.162 223.36V223.54C356.162 223.967 356.342 224.287 356.702 224.5C357.062 224.7 357.669 224.88 358.522 225.04C359.189 225.16 359.769 225.307 360.262 225.48C360.756 225.653 361.162 225.873 361.482 226.14C361.802 226.393 362.042 226.7 362.202 227.06C362.362 227.42 362.442 227.853 362.442 228.36V228.62C362.442 229.047 362.342 229.447 362.142 229.82C361.956 230.193 361.682 230.52 361.322 230.8C360.962 231.067 360.522 231.28 360.002 231.44C359.496 231.6 358.922 231.68 358.282 231.68C357.362 231.68 356.529 231.56 355.782 231.32C355.036 231.08 354.402 230.76 353.882 230.36L354.782 228.84C355.276 229.173 355.802 229.453 356.362 229.68C356.922 229.893 357.536 230 358.202 230ZM365.443 222.24H363.643V220.58H365.443V217.82H367.383V220.58H370.263V222.24H367.383V228.46C367.383 228.793 367.416 229.067 367.483 229.28C367.55 229.48 367.643 229.633 367.763 229.74C367.896 229.847 368.05 229.92 368.223 229.96C368.396 230 368.583 230.02 368.783 230.02C369.263 230.02 369.743 229.933 370.223 229.76L370.523 231.32C370.296 231.413 369.996 231.493 369.623 231.56C369.25 231.64 368.87 231.68 368.483 231.68C367.443 231.68 366.676 231.42 366.183 230.9C365.69 230.38 365.443 229.567 365.443 228.46V222.24ZM389.037 231.52H386.957L385.437 227.28H379.917L378.397 231.52H376.377L381.737 217.1H383.657L389.037 231.52ZM380.517 225.58H384.837L383.637 222.2C383.53 221.907 383.437 221.653 383.357 221.44C383.277 221.213 383.203 221 383.137 220.8C383.07 220.587 382.997 220.367 382.917 220.14C382.85 219.913 382.77 219.633 382.677 219.3C382.57 219.633 382.483 219.92 382.417 220.16C382.35 220.387 382.283 220.6 382.217 220.8C382.15 221 382.077 221.213 381.997 221.44C381.93 221.653 381.843 221.907 381.737 222.2L380.517 225.58ZM391.074 217.1H396.234C397.047 217.1 397.754 217.207 398.354 217.42C398.954 217.62 399.447 217.907 399.834 218.28C400.234 218.64 400.527 219.073 400.714 219.58C400.914 220.087 401.014 220.633 401.014 221.22V221.64C401.014 222.227 400.907 222.78 400.694 223.3C400.494 223.807 400.194 224.253 399.794 224.64C399.394 225.027 398.894 225.333 398.294 225.56C397.707 225.787 397.02 225.9 396.234 225.9H393.054V231.52H391.074V217.1ZM393.054 218.82V224.18H395.894C397.974 224.18 399.014 223.32 399.014 221.6V221.24C399.014 220.413 398.76 219.807 398.254 219.42C397.76 219.02 397.047 218.82 396.114 218.82H393.054ZM405.397 217.1V231.52H403.417V217.1H405.397ZM416.291 221.12C416.225 220.973 416.165 220.833 416.111 220.7C416.058 220.553 416.005 220.407 415.951 220.26C415.898 220.113 415.838 219.947 415.771 219.76C415.705 219.573 415.631 219.36 415.551 219.12V231.52H413.671V217.1H416.591L420.591 226.54L424.491 217.1H427.391V231.52H425.491V219.12C425.425 219.387 425.358 219.613 425.291 219.8C425.238 219.973 425.185 220.133 425.131 220.28C425.091 220.427 425.045 220.567 424.991 220.7C424.938 220.833 424.878 220.973 424.811 221.12L421.371 229.12H419.691L416.291 221.12ZM434.903 220.38C436.41 220.38 437.597 220.813 438.463 221.68C439.343 222.547 439.783 223.773 439.783 225.36V226.7C439.783 228.287 439.343 229.513 438.463 230.38C437.597 231.247 436.41 231.68 434.903 231.68C433.397 231.68 432.203 231.247 431.323 230.38C430.457 229.513 430.023 228.287 430.023 226.7V225.36C430.023 223.76 430.457 222.533 431.323 221.68C432.203 220.813 433.397 220.38 434.903 220.38ZM434.903 229.98C435.77 229.98 436.47 229.7 437.003 229.14C437.55 228.567 437.823 227.7 437.823 226.54V225.52C437.823 224.36 437.55 223.5 437.003 222.94C436.47 222.367 435.77 222.08 434.903 222.08C434.037 222.08 433.33 222.367 432.783 222.94C432.25 223.5 431.983 224.36 431.983 225.52V226.54C431.983 227.7 432.25 228.567 432.783 229.14C433.33 229.7 434.037 229.98 434.903 229.98ZM449.241 230.16C448.935 230.72 448.495 231.113 447.921 231.34C447.361 231.567 446.741 231.68 446.061 231.68C444.675 231.68 443.615 231.28 442.881 230.48C442.161 229.667 441.801 228.513 441.801 227.02V225.08C441.801 224.347 441.908 223.687 442.121 223.1C442.335 222.513 442.628 222.02 443.001 221.62C443.388 221.22 443.848 220.913 444.381 220.7C444.915 220.487 445.501 220.38 446.141 220.38C446.981 220.38 447.641 220.527 448.121 220.82C448.615 221.1 448.975 221.4 449.201 221.72V216.4H451.141V231.52H449.281V230.16H449.241ZM449.221 224.4C449.221 224.12 449.148 223.84 449.001 223.56C448.868 223.28 448.668 223.033 448.401 222.82C448.148 222.593 447.841 222.413 447.481 222.28C447.135 222.147 446.755 222.08 446.341 222.08C445.515 222.08 444.868 222.367 444.401 222.94C443.948 223.513 443.721 224.32 443.721 225.36V226.7C443.721 227.74 443.955 228.547 444.421 229.12C444.888 229.693 445.528 229.98 446.341 229.98C446.741 229.98 447.115 229.92 447.461 229.8C447.808 229.667 448.108 229.48 448.361 229.24C448.628 229 448.835 228.713 448.981 228.38C449.141 228.033 449.221 227.647 449.221 227.22V224.4ZM454.095 220.58H456.035V227.38C456.035 228.3 456.222 228.967 456.595 229.38C456.969 229.793 457.562 230 458.375 230C458.709 230 459.035 229.947 459.355 229.84C459.675 229.72 459.962 229.553 460.215 229.34C460.482 229.113 460.695 228.833 460.855 228.5C461.015 228.167 461.095 227.787 461.095 227.36V220.58H463.035V231.52H461.155V230.14H461.135C460.802 230.647 460.369 231.033 459.835 231.3C459.302 231.58 458.655 231.72 457.895 231.72C457.362 231.72 456.862 231.64 456.395 231.48C455.942 231.32 455.542 231.08 455.195 230.76C454.862 230.44 454.595 230.04 454.395 229.56C454.195 229.067 454.095 228.487 454.095 227.82V220.58ZM468.09 216.4V231.52H466.15V216.4H468.09ZM475.348 222.04C474.948 222.04 474.575 222.113 474.228 222.26C473.895 222.393 473.602 222.587 473.348 222.84C473.108 223.08 472.915 223.38 472.768 223.74C472.635 224.087 472.568 224.467 472.568 224.88V225.16H478.048V224.8C478.048 223.96 477.808 223.293 477.328 222.8C476.848 222.293 476.188 222.04 475.348 222.04ZM479.668 230.48C479.188 230.813 478.615 231.093 477.948 231.32C477.282 231.56 476.448 231.68 475.448 231.68C474.768 231.68 474.135 231.58 473.548 231.38C472.975 231.193 472.468 230.9 472.028 230.5C471.602 230.087 471.262 229.56 471.008 228.92C470.768 228.28 470.648 227.52 470.648 226.64V225.4C470.648 224.573 470.762 223.847 470.988 223.22C471.228 222.593 471.555 222.073 471.968 221.66C472.395 221.233 472.895 220.913 473.468 220.7C474.042 220.487 474.668 220.38 475.348 220.38C476.748 220.38 477.862 220.807 478.688 221.66C479.515 222.513 479.928 223.72 479.928 225.28V226.74H472.568V226.82C472.568 227.86 472.842 228.653 473.388 229.2C473.935 229.733 474.648 230 475.528 230C476.248 230 476.862 229.913 477.368 229.74C477.888 229.567 478.382 229.327 478.848 229.02L479.668 230.48Z" fill="white"/>
<path d="M620 210C620 204.477 624.477 200 630 200H850C855.523 200 860 204.477 860 210V240C860 245.523 855.523 250 850 250H630C624.477 250 620 245.523 620 240V210Z" fill="#007E68"/>
<path d="M670.268 217.1L666.288 231.52H664.308L661.108 219.74L657.848 231.52H655.828L651.888 217.1H653.968L656.928 228.88L660.148 217.1H662.068L665.288 228.88L668.288 217.1H670.268ZM675.915 222.04C675.515 222.04 675.142 222.113 674.795 222.26C674.462 222.393 674.168 222.587 673.915 222.84C673.675 223.08 673.482 223.38 673.335 223.74C673.202 224.087 673.135 224.467 673.135 224.88V225.16H678.615V224.8C678.615 223.96 678.375 223.293 677.895 222.8C677.415 222.293 676.755 222.04 675.915 222.04ZM680.235 230.48C679.755 230.813 679.182 231.093 678.515 231.32C677.848 231.56 677.015 231.68 676.015 231.68C675.335 231.68 674.702 231.58 674.115 231.38C673.542 231.193 673.035 230.9 672.595 230.5C672.168 230.087 671.828 229.56 671.575 228.92C671.335 228.28 671.215 227.52 671.215 226.64V225.4C671.215 224.573 671.328 223.847 671.555 223.22C671.795 222.593 672.122 222.073 672.535 221.66C672.962 221.233 673.462 220.913 674.035 220.7C674.608 220.487 675.235 220.38 675.915 220.38C677.315 220.38 678.428 220.807 679.255 221.66C680.082 222.513 680.495 223.72 680.495 225.28V226.74H673.135V226.82C673.135 227.86 673.408 228.653 673.955 229.2C674.502 229.733 675.215 230 676.095 230C676.815 230 677.428 229.913 677.935 229.74C678.455 229.567 678.948 229.327 679.415 229.02L680.235 230.48ZM684.945 221.84C685.292 221.293 685.745 220.913 686.305 220.7C686.879 220.487 687.465 220.38 688.065 220.38C689.452 220.38 690.512 220.787 691.245 221.6C691.979 222.4 692.345 223.547 692.345 225.04V226.98C692.345 227.727 692.239 228.393 692.025 228.98C691.812 229.553 691.512 230.04 691.125 230.44C690.752 230.84 690.299 231.147 689.765 231.36C689.232 231.573 688.645 231.68 688.005 231.68C687.179 231.68 686.519 231.533 686.025 231.24C685.532 230.96 685.165 230.627 684.925 230.24H684.885V231.52H683.005V216.4H684.945V221.84ZM684.925 227.62C684.925 227.9 684.992 228.187 685.125 228.48C685.272 228.76 685.472 229.013 685.725 229.24C685.992 229.453 686.299 229.633 686.645 229.78C686.992 229.913 687.379 229.98 687.805 229.98C688.632 229.98 689.272 229.693 689.725 229.12C690.192 228.547 690.425 227.74 690.425 226.7V225.36C690.425 224.32 690.192 223.513 689.725 222.94C689.259 222.367 688.619 222.08 687.805 222.08C687.405 222.08 687.032 222.147 686.685 222.28C686.339 222.413 686.032 222.6 685.765 222.84C685.512 223.08 685.305 223.373 685.145 223.72C684.999 224.053 684.925 224.433 684.925 224.86V227.62ZM699.859 219.04C700.073 218.747 700.306 218.467 700.559 218.2C700.826 217.933 701.126 217.707 701.459 217.52C701.806 217.32 702.186 217.167 702.599 217.06C703.026 216.94 703.513 216.88 704.059 216.88C704.726 216.88 705.326 216.967 705.859 217.14C706.393 217.313 706.846 217.56 707.219 217.88C707.606 218.187 707.899 218.567 708.099 219.02C708.313 219.46 708.419 219.947 708.419 220.48V220.68C708.419 220.96 708.386 221.26 708.319 221.58C708.253 221.9 708.133 222.207 707.959 222.5C707.786 222.793 707.553 223.067 707.259 223.32C706.966 223.573 706.599 223.78 706.159 223.94C707.133 224.113 707.859 224.5 708.339 225.1C708.833 225.7 709.079 226.42 709.079 227.26V227.56C709.079 228.093 708.979 228.613 708.779 229.12C708.593 229.613 708.293 230.06 707.879 230.46C707.479 230.847 706.959 231.153 706.319 231.38C705.679 231.62 704.919 231.74 704.039 231.74C703.199 231.74 702.386 231.607 701.599 231.34C700.826 231.087 700.099 230.687 699.419 230.14L700.399 228.56C701.106 229.067 701.733 229.427 702.279 229.64C702.826 229.84 703.413 229.94 704.039 229.94C704.559 229.94 705.013 229.88 705.399 229.76C705.786 229.627 706.106 229.453 706.359 229.24C706.613 229.027 706.799 228.78 706.919 228.5C707.039 228.207 707.099 227.9 707.099 227.58V227.32C707.099 226.84 707.019 226.447 706.859 226.14C706.713 225.82 706.506 225.567 706.239 225.38C705.973 225.193 705.653 225.06 705.279 224.98C704.919 224.9 704.533 224.86 704.119 224.86H702.339V223.14H704.039C704.493 223.14 704.873 223.073 705.179 222.94C705.486 222.793 705.733 222.607 705.919 222.38C706.106 222.153 706.239 221.893 706.319 221.6C706.413 221.307 706.459 221.007 706.459 220.7V220.54C706.459 220.22 706.393 219.947 706.259 219.72C706.139 219.48 705.973 219.28 705.759 219.12C705.546 218.96 705.293 218.84 704.999 218.76C704.706 218.68 704.399 218.64 704.079 218.64C703.479 218.64 702.959 218.753 702.519 218.98C702.079 219.207 701.666 219.573 701.279 220.08L699.859 219.04ZM712.366 230.04H714.646V232.34H712.366V230.04ZM727.645 225.42C727.645 227.46 727.225 229.027 726.385 230.12C725.559 231.2 724.279 231.74 722.545 231.74C720.825 231.74 719.545 231.193 718.705 230.1C717.865 229.007 717.445 227.447 717.445 225.42V223.18C717.445 221.153 717.872 219.6 718.725 218.52C719.579 217.427 720.852 216.88 722.545 216.88C724.252 216.88 725.525 217.427 726.365 218.52C727.219 219.6 727.645 221.153 727.645 223.18V225.42ZM725.625 223.16C725.625 222.28 725.545 221.553 725.385 220.98C725.239 220.407 725.025 219.953 724.745 219.62C724.465 219.287 724.139 219.053 723.765 218.92C723.392 218.787 722.985 218.72 722.545 218.72C722.119 218.72 721.719 218.787 721.345 218.92C720.972 219.053 720.645 219.293 720.365 219.64C720.085 219.973 719.865 220.427 719.705 221C719.545 221.56 719.465 222.28 719.465 223.16V225.44C719.465 226.32 719.545 227.053 719.705 227.64C719.865 228.213 720.085 228.667 720.365 229C720.645 229.333 720.972 229.567 721.345 229.7C721.719 229.833 722.119 229.9 722.545 229.9C722.985 229.9 723.392 229.833 723.765 229.7C724.139 229.567 724.465 229.333 724.745 229C725.025 228.667 725.239 228.213 725.385 227.64C725.545 227.067 725.625 226.333 725.625 225.44V223.16ZM740.712 231.74C739.846 231.74 739.052 231.607 738.332 231.34C737.626 231.087 737.012 230.693 736.492 230.16C735.972 229.627 735.566 228.967 735.272 228.18C734.992 227.393 734.852 226.467 734.852 225.4V223.22C734.852 222.167 734.992 221.247 735.272 220.46C735.566 219.673 735.972 219.013 736.492 218.48C737.012 217.947 737.632 217.547 738.352 217.28C739.072 217.013 739.859 216.88 740.712 216.88C741.566 216.88 742.352 217.013 743.072 217.28C743.792 217.547 744.412 217.947 744.932 218.48C745.452 219.013 745.852 219.673 746.132 220.46C746.426 221.247 746.572 222.167 746.572 223.22V225.4C746.572 226.467 746.426 227.393 746.132 228.18C745.852 228.967 745.452 229.627 744.932 230.16C744.412 230.693 743.792 231.087 743.072 231.34C742.352 231.607 741.566 231.74 740.712 231.74ZM740.712 218.68C740.152 218.68 739.632 218.773 739.152 218.96C738.686 219.133 738.279 219.413 737.932 219.8C737.599 220.173 737.332 220.667 737.132 221.28C736.946 221.88 736.852 222.6 736.852 223.44V225.18C736.852 226.02 736.946 226.747 737.132 227.36C737.332 227.96 737.599 228.453 737.932 228.84C738.279 229.213 738.686 229.493 739.152 229.68C739.632 229.853 740.152 229.94 740.712 229.94C741.272 229.94 741.786 229.853 742.252 229.68C742.732 229.493 743.139 229.213 743.472 228.84C743.819 228.453 744.086 227.96 744.272 227.36C744.472 226.747 744.572 226.02 744.572 225.18V223.44C744.572 222.6 744.472 221.88 744.272 221.28C744.086 220.667 743.819 220.173 743.472 219.8C743.139 219.413 742.732 219.133 742.252 218.96C741.786 218.773 741.272 218.68 740.712 218.68ZM751.273 221.84C751.62 221.293 752.073 220.913 752.633 220.7C753.207 220.487 753.793 220.38 754.393 220.38C755.78 220.38 756.84 220.787 757.573 221.6C758.307 222.4 758.673 223.547 758.673 225.04V226.98C758.673 227.727 758.567 228.393 758.353 228.98C758.14 229.553 757.84 230.04 757.453 230.44C757.08 230.84 756.627 231.147 756.093 231.36C755.56 231.573 754.973 231.68 754.333 231.68C753.507 231.68 752.847 231.533 752.353 231.24C751.86 230.96 751.493 230.627 751.253 230.24H751.213V231.52H749.333V216.4H751.273V221.84ZM751.253 227.62C751.253 227.9 751.32 228.187 751.453 228.48C751.6 228.76 751.8 229.013 752.053 229.24C752.32 229.453 752.627 229.633 752.973 229.78C753.32 229.913 753.707 229.98 754.133 229.98C754.96 229.98 755.6 229.693 756.053 229.12C756.52 228.547 756.753 227.74 756.753 226.7V225.36C756.753 224.32 756.52 223.513 756.053 222.94C755.587 222.367 754.947 222.08 754.133 222.08C753.733 222.08 753.36 222.147 753.013 222.28C752.667 222.413 752.36 222.6 752.093 222.84C751.84 223.08 751.633 223.373 751.473 223.72C751.327 224.053 751.253 224.433 751.253 224.86V227.62ZM763.648 216.66V218.78H761.588V216.66H763.648ZM763.588 232.76C763.588 233.867 763.314 234.68 762.768 235.2C762.234 235.72 761.448 235.98 760.408 235.98C760.061 235.98 759.708 235.953 759.347 235.9C758.974 235.847 758.674 235.78 758.447 235.7L758.747 234.12C759.227 234.253 759.721 234.32 760.228 234.32C760.414 234.32 760.594 234.3 760.768 234.26C760.941 234.22 761.088 234.14 761.208 234.02C761.341 233.913 761.448 233.753 761.528 233.54C761.608 233.327 761.648 233.04 761.648 232.68V220.58H763.588V232.76ZM770.915 222.04C770.515 222.04 770.142 222.113 769.795 222.26C769.462 222.393 769.168 222.587 768.915 222.84C768.675 223.08 768.482 223.38 768.335 223.74C768.202 224.087 768.135 224.467 768.135 224.88V225.16H773.615V224.8C773.615 223.96 773.375 223.293 772.895 222.8C772.415 222.293 771.755 222.04 770.915 222.04ZM775.235 230.48C774.755 230.813 774.182 231.093 773.515 231.32C772.848 231.56 772.015 231.68 771.015 231.68C770.335 231.68 769.702 231.58 769.115 231.38C768.542 231.193 768.035 230.9 767.595 230.5C767.168 230.087 766.828 229.56 766.575 228.92C766.335 228.28 766.215 227.52 766.215 226.64V225.4C766.215 224.573 766.328 223.847 766.555 223.22C766.795 222.593 767.122 222.073 767.535 221.66C767.962 221.233 768.462 220.913 769.035 220.7C769.608 220.487 770.235 220.38 770.915 220.38C772.315 220.38 773.428 220.807 774.255 221.66C775.082 222.513 775.495 223.72 775.495 225.28V226.74H768.135V226.82C768.135 227.86 768.408 228.653 768.955 229.2C769.502 229.733 770.215 230 771.095 230C771.815 230 772.428 229.913 772.935 229.74C773.455 229.567 773.948 229.327 774.415 229.02L775.235 230.48ZM782.165 220.38C783.072 220.38 783.812 220.493 784.385 220.72C784.972 220.947 785.492 221.233 785.945 221.58L785.025 223.04C784.519 222.667 784.045 222.42 783.605 222.3C783.179 222.167 782.699 222.1 782.165 222.1C781.805 222.1 781.459 222.16 781.125 222.28C780.792 222.4 780.499 222.593 780.245 222.86C779.992 223.113 779.785 223.44 779.625 223.84C779.479 224.24 779.405 224.72 779.405 225.28V226.66C779.405 227.247 779.479 227.753 779.625 228.18C779.785 228.593 779.992 228.933 780.245 229.2C780.512 229.453 780.812 229.64 781.145 229.76C781.492 229.88 781.845 229.94 782.205 229.94C782.925 229.94 783.519 229.847 783.985 229.66C784.465 229.473 784.899 229.233 785.285 228.94L786.225 230.42C785.839 230.74 785.319 231.027 784.665 231.28C784.012 231.547 783.185 231.68 782.185 231.68C780.665 231.68 779.492 231.24 778.665 230.36C777.852 229.48 777.445 228.253 777.445 226.68V225.3C777.445 224.513 777.559 223.82 777.785 223.22C778.012 222.607 778.325 222.093 778.725 221.68C779.139 221.253 779.632 220.933 780.205 220.72C780.792 220.493 781.445 220.38 782.165 220.38ZM788.861 222.24H787.061V220.58H788.861V217.82H790.801V220.58H793.681V222.24H790.801V228.46C790.801 228.793 790.834 229.067 790.901 229.28C790.968 229.48 791.061 229.633 791.181 229.74C791.314 229.847 791.468 229.92 791.641 229.96C791.814 230 792.001 230.02 792.201 230.02C792.681 230.02 793.161 229.933 793.641 229.76L793.941 231.32C793.714 231.413 793.414 231.493 793.041 231.56C792.668 231.64 792.288 231.68 791.901 231.68C790.861 231.68 790.094 231.42 789.601 230.9C789.108 230.38 788.861 229.567 788.861 228.46V222.24ZM803.015 217.1V229.82H809.915V231.52H801.035V217.1H803.015ZM813.873 220.58V231.52H811.933V220.58H813.873ZM813.933 216.66V218.78H811.873V216.66H813.933ZM826.068 231.52H824.128V224.72C824.128 223.8 823.935 223.133 823.548 222.72C823.162 222.307 822.562 222.1 821.748 222.1C821.415 222.1 821.082 222.16 820.748 222.28C820.428 222.387 820.135 222.553 819.868 222.78C819.615 222.993 819.402 223.267 819.228 223.6C819.068 223.933 818.988 224.313 818.988 224.74V231.52H817.048V220.58H818.928V221.96H818.948C819.282 221.453 819.722 221.067 820.268 220.8C820.815 220.52 821.468 220.38 822.228 220.38C822.762 220.38 823.262 220.46 823.728 220.62C824.195 220.78 824.602 221.02 824.948 221.34C825.295 221.66 825.568 222.067 825.768 222.56C825.968 223.053 826.068 223.627 826.068 224.28V231.52ZM833.821 224.96L838.401 231.52H835.961L832.481 226.32L830.961 227.86V231.52H829.021V216.4H830.961V225.5L835.641 220.58H838.141L833.821 224.96Z" fill="white"/>
<path d="M0 110C0 104.477 4.47715 100 10 100H520C525.523 100 530 104.477 530 110V140C530 145.523 525.523 150 520 150H9.99999C4.47715 150 0 145.523 0 140V110Z" fill="#F59728"/>
<path d="M214.565 121.12C214.498 120.973 214.438 120.833 214.385 120.7C214.331 120.553 214.278 120.407 214.225 120.26C214.171 120.113 214.111 119.947 214.045 119.76C213.978 119.573 213.905 119.36 213.825 119.12V131.52H211.945V117.1H214.865L218.865 126.54L222.765 117.1H225.665V131.52H223.765V119.12C223.698 119.387 223.631 119.613 223.565 119.8C223.511 119.973 223.458 120.133 223.405 120.28C223.365 120.427 223.318 120.567 223.265 120.7C223.211 120.833 223.151 120.973 223.085 121.12L219.645 129.12H217.965L214.565 121.12ZM231.897 131.68C230.79 131.68 229.91 131.407 229.257 130.86C228.617 130.313 228.297 129.56 228.297 128.6V128.06C228.297 127.127 228.61 126.367 229.237 125.78C229.864 125.193 230.877 124.9 232.277 124.9H235.057V124.26C235.057 123.527 234.877 122.987 234.517 122.64C234.17 122.28 233.597 122.1 232.797 122.1C232.157 122.1 231.597 122.2 231.117 122.4C230.65 122.6 230.164 122.867 229.657 123.2L228.697 121.76C229.23 121.387 229.83 121.067 230.497 120.8C231.164 120.52 231.937 120.38 232.817 120.38C233.43 120.38 233.99 120.46 234.497 120.62C235.004 120.767 235.437 120.993 235.797 121.3C236.17 121.593 236.457 121.96 236.657 122.4C236.87 122.827 236.977 123.313 236.977 123.86V131.52H235.117V130.2H235.097C234.99 130.4 234.844 130.587 234.657 130.76C234.484 130.92 234.29 131.06 234.077 131.18C233.784 131.34 233.464 131.46 233.117 131.54C232.784 131.633 232.377 131.68 231.897 131.68ZM235.057 126.54H232.317C231.557 126.54 231.01 126.687 230.677 126.98C230.357 127.273 230.197 127.68 230.197 128.2V128.48C230.197 129.013 230.384 129.4 230.757 129.64C231.13 129.88 231.577 130 232.097 130C232.577 130 232.99 129.947 233.337 129.84C233.697 129.72 234.024 129.547 234.317 129.32C234.584 129.12 234.77 128.893 234.877 128.64C234.997 128.373 235.057 128.033 235.057 127.62V126.54ZM241.892 120.58V131.52H239.952V120.58H241.892ZM241.952 116.66V118.78H239.892V116.66H241.952ZM254.088 131.52H252.148V124.72C252.148 123.8 251.955 123.133 251.568 122.72C251.181 122.307 250.581 122.1 249.768 122.1C249.435 122.1 249.101 122.16 248.768 122.28C248.448 122.387 248.155 122.553 247.888 122.78C247.635 122.993 247.421 123.267 247.248 123.6C247.088 123.933 247.008 124.313 247.008 124.74V131.52H245.068V120.58H246.948V121.96H246.968C247.301 121.453 247.741 121.067 248.288 120.8C248.835 120.52 249.488 120.38 250.248 120.38C250.781 120.38 251.281 120.46 251.748 120.62C252.215 120.78 252.621 121.02 252.968 121.34C253.315 121.66 253.588 122.067 253.788 122.56C253.988 123.053 254.088 123.627 254.088 124.28V131.52ZM267.461 131.74C266.594 131.74 265.807 131.607 265.101 131.34C264.394 131.087 263.787 130.693 263.281 130.16C262.774 129.627 262.381 128.967 262.101 128.18C261.821 127.393 261.681 126.467 261.681 125.4V123.22C261.681 122.167 261.821 121.247 262.101 120.46C262.381 119.673 262.774 119.013 263.281 118.48C263.801 117.947 264.414 117.547 265.121 117.28C265.827 117.013 266.607 116.88 267.461 116.88C268.314 116.88 269.094 117.013 269.801 117.28C270.507 117.547 271.114 117.947 271.621 118.48C272.141 119.013 272.541 119.673 272.821 120.46C273.101 121.247 273.241 122.167 273.241 123.22V125.4C273.241 126.36 273.127 127.207 272.901 127.94C272.674 128.673 272.354 129.3 271.941 129.82L273.641 131.5L272.461 132.72L270.661 130.94C269.754 131.473 268.687 131.74 267.461 131.74ZM267.461 118.68C266.914 118.68 266.407 118.773 265.941 118.96C265.474 119.133 265.074 119.413 264.741 119.8C264.407 120.173 264.147 120.667 263.961 121.28C263.774 121.88 263.681 122.6 263.681 123.44V125.18C263.681 126.02 263.774 126.747 263.961 127.36C264.147 127.96 264.407 128.453 264.741 128.84C265.074 129.213 265.474 129.493 265.941 129.68C266.407 129.853 266.914 129.94 267.461 129.94C267.794 129.94 268.107 129.913 268.401 129.86C268.707 129.793 268.994 129.687 269.261 129.54L267.461 127.74L268.641 126.52L270.501 128.38C270.741 127.993 270.921 127.54 271.041 127.02C271.174 126.5 271.241 125.887 271.241 125.18V123.44C271.241 122.6 271.147 121.88 270.961 121.28C270.774 120.667 270.514 120.173 270.181 119.8C269.847 119.413 269.447 119.133 268.981 118.96C268.527 118.773 268.021 118.68 267.461 118.68ZM275.845 120.58H277.785V127.38C277.785 128.3 277.972 128.967 278.345 129.38C278.719 129.793 279.312 130 280.125 130C280.459 130 280.785 129.947 281.105 129.84C281.425 129.72 281.712 129.553 281.965 129.34C282.232 129.113 282.445 128.833 282.605 128.5C282.765 128.167 282.845 127.787 282.845 127.36V120.58H284.785V131.52H282.905V130.14H282.885C282.552 130.647 282.119 131.033 281.585 131.3C281.052 131.58 280.405 131.72 279.645 131.72C279.112 131.72 278.612 131.64 278.145 131.48C277.692 131.32 277.292 131.08 276.945 130.76C276.612 130.44 276.345 130.04 276.145 129.56C275.945 129.067 275.845 128.487 275.845 127.82V120.58ZM292.04 122.04C291.64 122.04 291.267 122.113 290.92 122.26C290.587 122.393 290.293 122.587 290.04 122.84C289.8 123.08 289.607 123.38 289.46 123.74C289.327 124.087 289.26 124.467 289.26 124.88V125.16H294.74V124.8C294.74 123.96 294.5 123.293 294.02 122.8C293.54 122.293 292.88 122.04 292.04 122.04ZM296.36 130.48C295.88 130.813 295.307 131.093 294.64 131.32C293.973 131.56 293.14 131.68 292.14 131.68C291.46 131.68 290.827 131.58 290.24 131.38C289.667 131.193 289.16 130.9 288.72 130.5C288.293 130.087 287.953 129.56 287.7 128.92C287.46 128.28 287.34 127.52 287.34 126.64V125.4C287.34 124.573 287.453 123.847 287.68 123.22C287.92 122.593 288.247 122.073 288.66 121.66C289.087 121.233 289.587 120.913 290.16 120.7C290.733 120.487 291.36 120.38 292.04 120.38C293.44 120.38 294.553 120.807 295.38 121.66C296.207 122.513 296.62 123.72 296.62 125.28V126.74H289.26V126.82C289.26 127.86 289.533 128.653 290.08 129.2C290.627 129.733 291.34 130 292.22 130C292.94 130 293.553 129.913 294.06 129.74C294.58 129.567 295.073 129.327 295.54 129.02L296.36 130.48ZM298.97 120.58H300.91V127.38C300.91 128.3 301.097 128.967 301.47 129.38C301.844 129.793 302.437 130 303.25 130C303.584 130 303.91 129.947 304.23 129.84C304.55 129.72 304.837 129.553 305.09 129.34C305.357 129.113 305.57 128.833 305.73 128.5C305.89 128.167 305.97 127.787 305.97 127.36V120.58H307.91V131.52H306.03V130.14H306.01C305.677 130.647 305.244 131.033 304.71 131.3C304.177 131.58 303.53 131.72 302.77 131.72C302.237 131.72 301.737 131.64 301.27 131.48C300.817 131.32 300.417 131.08 300.07 130.76C299.737 130.44 299.47 130.04 299.27 129.56C299.07 129.067 298.97 128.487 298.97 127.82V120.58ZM315.165 122.04C314.765 122.04 314.392 122.113 314.045 122.26C313.712 122.393 313.418 122.587 313.165 122.84C312.925 123.08 312.732 123.38 312.585 123.74C312.452 124.087 312.385 124.467 312.385 124.88V125.16H317.865V124.8C317.865 123.96 317.625 123.293 317.145 122.8C316.665 122.293 316.005 122.04 315.165 122.04ZM319.485 130.48C319.005 130.813 318.432 131.093 317.765 131.32C317.098 131.56 316.265 131.68 315.265 131.68C314.585 131.68 313.952 131.58 313.365 131.38C312.792 131.193 312.285 130.9 311.845 130.5C311.418 130.087 311.078 129.56 310.825 128.92C310.585 128.28 310.465 127.52 310.465 126.64V125.4C310.465 124.573 310.578 123.847 310.805 123.22C311.045 122.593 311.372 122.073 311.785 121.66C312.212 121.233 312.712 120.913 313.285 120.7C313.858 120.487 314.485 120.38 315.165 120.38C316.565 120.38 317.678 120.807 318.505 121.66C319.332 122.513 319.745 123.72 319.745 125.28V126.74H312.385V126.82C312.385 127.86 312.658 128.653 313.205 129.2C313.752 129.733 314.465 130 315.345 130C316.065 130 316.678 129.913 317.185 129.74C317.705 129.567 318.198 129.327 318.665 129.02L319.485 130.48Z" fill="white"/>
<path d="M620 110C620 104.477 624.477 100 630 100H850C855.523 100 860 104.477 860 110V140C860 145.523 855.523 150 850 150H630C624.477 150 620 145.523 620 140V110Z" fill="#F59728"/>
<path d="M694.565 121.12C694.498 120.973 694.438 120.833 694.385 120.7C694.331 120.553 694.278 120.407 694.225 120.26C694.171 120.113 694.111 119.947 694.045 119.76C693.978 119.573 693.905 119.36 693.825 119.12V131.52H691.945V117.1H694.865L698.865 126.54L702.765 117.1H705.665V131.52H703.765V119.12C703.698 119.387 703.631 119.613 703.565 119.8C703.511 119.973 703.458 120.133 703.405 120.28C703.365 120.427 703.318 120.567 703.265 120.7C703.211 120.833 703.151 120.973 703.085 121.12L699.645 129.12H697.965L694.565 121.12ZM711.897 131.68C710.79 131.68 709.91 131.407 709.257 130.86C708.617 130.313 708.297 129.56 708.297 128.6V128.06C708.297 127.127 708.61 126.367 709.237 125.78C709.864 125.193 710.877 124.9 712.277 124.9H715.057V124.26C715.057 123.527 714.877 122.987 714.517 122.64C714.17 122.28 713.597 122.1 712.797 122.1C712.157 122.1 711.597 122.2 711.117 122.4C710.65 122.6 710.164 122.867 709.657 123.2L708.697 121.76C709.23 121.387 709.83 121.067 710.497 120.8C711.164 120.52 711.937 120.38 712.817 120.38C713.43 120.38 713.99 120.46 714.497 120.62C715.004 120.767 715.437 120.993 715.797 121.3C716.17 121.593 716.457 121.96 716.657 122.4C716.87 122.827 716.977 123.313 716.977 123.86V131.52H715.117V130.2H715.097C714.99 130.4 714.844 130.587 714.657 130.76C714.484 130.92 714.29 131.06 714.077 131.18C713.784 131.34 713.464 131.46 713.117 131.54C712.784 131.633 712.377 131.68 711.897 131.68ZM715.057 126.54H712.317C711.557 126.54 711.01 126.687 710.677 126.98C710.357 127.273 710.197 127.68 710.197 128.2V128.48C710.197 129.013 710.384 129.4 710.757 129.64C711.13 129.88 711.577 130 712.097 130C712.577 130 712.99 129.947 713.337 129.84C713.697 129.72 714.024 129.547 714.317 129.32C714.584 129.12 714.77 128.893 714.877 128.64C714.997 128.373 715.057 128.033 715.057 127.62V126.54ZM721.892 120.58V131.52H719.952V120.58H721.892ZM721.952 116.66V118.78H719.892V116.66H721.952ZM734.088 131.52H732.148V124.72C732.148 123.8 731.954 123.133 731.568 122.72C731.181 122.307 730.581 122.1 729.768 122.1C729.434 122.1 729.101 122.16 728.768 122.28C728.448 122.387 728.154 122.553 727.888 122.78C727.634 122.993 727.421 123.267 727.248 123.6C727.088 123.933 727.008 124.313 727.008 124.74V131.52H725.068V120.58H726.948V121.96H726.968C727.301 121.453 727.741 121.067 728.288 120.8C728.834 120.52 729.488 120.38 730.248 120.38C730.781 120.38 731.281 120.46 731.748 120.62C732.214 120.78 732.621 121.02 732.968 121.34C733.314 121.66 733.588 122.067 733.788 122.56C733.988 123.053 734.088 123.627 734.088 124.28V131.52ZM747.46 131.74C746.594 131.74 745.807 131.607 745.1 131.34C744.394 131.087 743.787 130.693 743.28 130.16C742.774 129.627 742.38 128.967 742.1 128.18C741.82 127.393 741.68 126.467 741.68 125.4V123.22C741.68 122.167 741.82 121.247 742.1 120.46C742.38 119.673 742.774 119.013 743.28 118.48C743.8 117.947 744.414 117.547 745.12 117.28C745.827 117.013 746.607 116.88 747.46 116.88C748.314 116.88 749.094 117.013 749.8 117.28C750.507 117.547 751.114 117.947 751.62 118.48C752.14 119.013 752.54 119.673 752.82 120.46C753.1 121.247 753.24 122.167 753.24 123.22V125.4C753.24 126.36 753.127 127.207 752.9 127.94C752.674 128.673 752.354 129.3 751.94 129.82L753.64 131.5L752.46 132.72L750.66 130.94C749.754 131.473 748.687 131.74 747.46 131.74ZM747.46 118.68C746.914 118.68 746.407 118.773 745.94 118.96C745.474 119.133 745.074 119.413 744.74 119.8C744.407 120.173 744.147 120.667 743.96 121.28C743.774 121.88 743.68 122.6 743.68 123.44V125.18C743.68 126.02 743.774 126.747 743.96 127.36C744.147 127.96 744.407 128.453 744.74 128.84C745.074 129.213 745.474 129.493 745.94 129.68C746.407 129.853 746.914 129.94 747.46 129.94C747.794 129.94 748.107 129.913 748.4 129.86C748.707 129.793 748.994 129.687 749.26 129.54L747.46 127.74L748.64 126.52L750.5 128.38C750.74 127.993 750.92 127.54 751.04 127.02C751.174 126.5 751.24 125.887 751.24 125.18V123.44C751.24 122.6 751.147 121.88 750.96 121.28C750.774 120.667 750.514 120.173 750.18 119.8C749.847 119.413 749.447 119.133 748.98 118.96C748.527 118.773 748.02 118.68 747.46 118.68ZM755.845 120.58H757.785V127.38C757.785 128.3 757.972 128.967 758.345 129.38C758.719 129.793 759.312 130 760.125 130C760.459 130 760.785 129.947 761.105 129.84C761.425 129.72 761.712 129.553 761.965 129.34C762.232 129.113 762.445 128.833 762.605 128.5C762.765 128.167 762.845 127.787 762.845 127.36V120.58H764.785V131.52H762.905V130.14H762.885C762.552 130.647 762.119 131.033 761.585 131.3C761.052 131.58 760.405 131.72 759.645 131.72C759.112 131.72 758.612 131.64 758.145 131.48C757.692 131.32 757.292 131.08 756.945 130.76C756.612 130.44 756.345 130.04 756.145 129.56C755.945 129.067 755.845 128.487 755.845 127.82V120.58ZM772.04 122.04C771.64 122.04 771.267 122.113 770.92 122.26C770.587 122.393 770.293 122.587 770.04 122.84C769.8 123.08 769.607 123.38 769.46 123.74C769.327 124.087 769.26 124.467 769.26 124.88V125.16H774.74V124.8C774.74 123.96 774.5 123.293 774.02 122.8C773.54 122.293 772.88 122.04 772.04 122.04ZM776.36 130.48C775.88 130.813 775.307 131.093 774.64 131.32C773.973 131.56 773.14 131.68 772.14 131.68C771.46 131.68 770.827 131.58 770.24 131.38C769.667 131.193 769.16 130.9 768.72 130.5C768.293 130.087 767.953 129.56 767.7 128.92C767.46 128.28 767.34 127.52 767.34 126.64V125.4C767.34 124.573 767.453 123.847 767.68 123.22C767.92 122.593 768.247 122.073 768.66 121.66C769.087 121.233 769.587 120.913 770.16 120.7C770.733 120.487 771.36 120.38 772.04 120.38C773.44 120.38 774.553 120.807 775.38 121.66C776.207 122.513 776.62 123.72 776.62 125.28V126.74H769.26V126.82C769.26 127.86 769.533 128.653 770.08 129.2C770.627 129.733 771.34 130 772.22 130C772.94 130 773.553 129.913 774.06 129.74C774.58 129.567 775.073 129.327 775.54 129.02L776.36 130.48ZM778.97 120.58H780.91V127.38C780.91 128.3 781.097 128.967 781.47 129.38C781.844 129.793 782.437 130 783.25 130C783.584 130 783.91 129.947 784.23 129.84C784.55 129.72 784.837 129.553 785.09 129.34C785.357 129.113 785.57 128.833 785.73 128.5C785.89 128.167 785.97 127.787 785.97 127.36V120.58H787.91V131.52H786.03V130.14H786.01C785.677 130.647 785.244 131.033 784.71 131.3C784.177 131.58 783.53 131.72 782.77 131.72C782.237 131.72 781.737 131.64 781.27 131.48C780.817 131.32 780.417 131.08 780.07 130.76C779.737 130.44 779.47 130.04 779.27 129.56C779.07 129.067 778.97 128.487 778.97 127.82V120.58ZM795.165 122.04C794.765 122.04 794.392 122.113 794.045 122.26C793.712 122.393 793.418 122.587 793.165 122.84C792.925 123.08 792.732 123.38 792.585 123.74C792.452 124.087 792.385 124.467 792.385 124.88V125.16H797.865V124.8C797.865 123.96 797.625 123.293 797.145 122.8C796.665 122.293 796.005 122.04 795.165 122.04ZM799.485 130.48C799.005 130.813 798.432 131.093 797.765 131.32C797.098 131.56 796.265 131.68 795.265 131.68C794.585 131.68 793.952 131.58 793.365 131.38C792.792 131.193 792.285 130.9 791.845 130.5C791.418 130.087 791.078 129.56 790.825 128.92C790.585 128.28 790.465 127.52 790.465 126.64V125.4C790.465 124.573 790.578 123.847 790.805 123.22C791.045 122.593 791.372 122.073 791.785 121.66C792.212 121.233 792.712 120.913 793.285 120.7C793.858 120.487 794.485 120.38 795.165 120.38C796.565 120.38 797.678 120.807 798.505 121.66C799.332 122.513 799.745 123.72 799.745 125.28V126.74H792.385V126.82C792.385 127.86 792.658 128.653 793.205 129.2C793.752 129.733 794.465 130 795.345 130C796.065 130 796.678 129.913 797.185 129.74C797.705 129.567 798.198 129.327 798.665 129.02L799.485 130.48Z" fill="white"/>
<path d="M0 210C0 204.477 4.47715 200 10 200H230C235.523 200 240 204.477 240 210V240C240 245.523 235.523 250 230 250H10C4.47716 250 0 245.523 0 240V210Z" fill="#00967B"/>
<path d="M71.7689 217.1H76.9289C77.7422 217.1 78.4489 217.206 79.0489 217.42C79.6489 217.62 80.1422 217.906 80.5289 218.28C80.9289 218.64 81.2222 219.073 81.4089 219.58C81.6089 220.086 81.7089 220.633 81.7089 221.22V221.64C81.7089 222.226 81.6022 222.78 81.3889 223.3C81.1889 223.806 80.8889 224.253 80.4889 224.64C80.0889 225.026 79.5889 225.333 78.9889 225.56C78.4022 225.786 77.7156 225.9 76.9289 225.9H73.7489V231.52H71.7689V217.1ZM73.7489 218.82V224.18H76.5889C78.6689 224.18 79.7089 223.32 79.7089 221.6V221.24C79.7089 220.413 79.4556 219.806 78.9489 219.42C78.4556 219.02 77.7422 218.82 76.8089 218.82H73.7489ZM89.1327 224.02C89.546 223.566 89.8727 223.173 90.1127 222.84C90.3527 222.506 90.5327 222.213 90.6527 221.96C90.7727 221.693 90.846 221.46 90.8727 221.26C90.9127 221.046 90.9327 220.846 90.9327 220.66V220.5C90.9327 219.926 90.706 219.48 90.2527 219.16C89.8127 218.826 89.2127 218.66 88.4527 218.66C88.186 218.66 87.9127 218.693 87.6327 218.76C87.366 218.813 87.0993 218.92 86.8327 219.08C86.566 219.24 86.306 219.46 86.0527 219.74C85.7993 220.006 85.5527 220.346 85.3127 220.76L83.7927 219.78C83.966 219.473 84.1793 219.153 84.4327 218.82C84.686 218.473 84.9927 218.16 85.3527 217.88C85.726 217.586 86.1593 217.346 86.6527 217.16C87.1593 216.973 87.746 216.88 88.4127 216.88C89.146 216.88 89.7927 216.973 90.3527 217.16C90.9127 217.333 91.3793 217.58 91.7527 217.9C92.1393 218.22 92.426 218.606 92.6127 219.06C92.8127 219.5 92.9127 219.98 92.9127 220.5V220.7C92.9127 221.486 92.706 222.226 92.2927 222.92C91.8793 223.613 91.346 224.306 90.6927 225L86.1927 229.8H93.4327V231.52H83.7527V229.86L89.1327 224.02ZM96.3197 217.1H101.48C102.293 217.1 103 217.206 103.6 217.42C104.2 217.62 104.693 217.906 105.08 218.28C105.48 218.64 105.773 219.073 105.96 219.58C106.16 220.086 106.26 220.633 106.26 221.22V221.64C106.26 222.226 106.153 222.78 105.94 223.3C105.74 223.806 105.44 224.253 105.04 224.64C104.64 225.026 104.14 225.333 103.54 225.56C102.953 225.786 102.266 225.9 101.48 225.9H98.2997V231.52H96.3197V217.1ZM98.2997 218.82V224.18H101.14C103.22 224.18 104.26 223.32 104.26 221.6V221.24C104.26 220.413 104.006 219.806 103.5 219.42C103.006 219.02 102.293 218.82 101.36 218.82H98.2997ZM116.283 221.12C116.217 220.973 116.157 220.833 116.103 220.7C116.05 220.553 115.997 220.406 115.943 220.26C115.89 220.113 115.83 219.946 115.763 219.76C115.697 219.573 115.623 219.36 115.543 219.12V231.52H113.663V217.1H116.583L120.583 226.54L124.483 217.1H127.383V231.52H125.483V219.12C125.417 219.386 125.35 219.613 125.283 219.8C125.23 219.973 125.177 220.133 125.123 220.28C125.083 220.426 125.037 220.566 124.983 220.7C124.93 220.833 124.87 220.973 124.803 221.12L121.363 229.12H119.683L116.283 221.12ZM134.896 220.38C136.402 220.38 137.589 220.813 138.456 221.68C139.336 222.546 139.776 223.773 139.776 225.36V226.7C139.776 228.286 139.336 229.513 138.456 230.38C137.589 231.246 136.402 231.68 134.896 231.68C133.389 231.68 132.196 231.246 131.316 230.38C130.449 229.513 130.016 228.286 130.016 226.7V225.36C130.016 223.76 130.449 222.533 131.316 221.68C132.196 220.813 133.389 220.38 134.896 220.38ZM134.896 229.98C135.762 229.98 136.462 229.7 136.996 229.14C137.542 228.566 137.816 227.7 137.816 226.54V225.52C137.816 224.36 137.542 223.5 136.996 222.94C136.462 222.366 135.762 222.08 134.896 222.08C134.029 222.08 133.322 222.366 132.776 222.94C132.242 223.5 131.976 224.36 131.976 225.52V226.54C131.976 227.7 132.242 228.566 132.776 229.14C133.322 229.7 134.029 229.98 134.896 229.98ZM149.233 230.16C148.927 230.72 148.487 231.113 147.913 231.34C147.353 231.566 146.733 231.68 146.053 231.68C144.667 231.68 143.607 231.28 142.873 230.48C142.153 229.666 141.793 228.513 141.793 227.02V225.08C141.793 224.346 141.9 223.686 142.113 223.1C142.327 222.513 142.62 222.02 142.993 221.62C143.38 221.22 143.84 220.913 144.373 220.7C144.907 220.486 145.493 220.38 146.133 220.38C146.973 220.38 147.633 220.526 148.113 220.82C148.607 221.1 148.967 221.4 149.193 221.72V216.4H151.133V231.52H149.273V230.16H149.233ZM149.213 224.4C149.213 224.12 149.14 223.84 148.993 223.56C148.86 223.28 148.66 223.033 148.393 222.82C148.14 222.593 147.833 222.413 147.473 222.28C147.127 222.146 146.747 222.08 146.333 222.08C145.507 222.08 144.86 222.366 144.393 222.94C143.94 223.513 143.713 224.32 143.713 225.36V226.7C143.713 227.74 143.947 228.546 144.413 229.12C144.88 229.693 145.52 229.98 146.333 229.98C146.733 229.98 147.107 229.92 147.453 229.8C147.8 229.666 148.1 229.48 148.353 229.24C148.62 229 148.827 228.713 148.973 228.38C149.133 228.033 149.213 227.646 149.213 227.22V224.4ZM154.088 220.58H156.028V227.38C156.028 228.3 156.214 228.966 156.588 229.38C156.961 229.793 157.554 230 158.368 230C158.701 230 159.028 229.946 159.348 229.84C159.668 229.72 159.954 229.553 160.208 229.34C160.474 229.113 160.688 228.833 160.848 228.5C161.008 228.166 161.088 227.786 161.088 227.36V220.58H163.028V231.52H161.148V230.14H161.128C160.794 230.646 160.361 231.033 159.828 231.3C159.294 231.58 158.648 231.72 157.888 231.72C157.354 231.72 156.854 231.64 156.388 231.48C155.934 231.32 155.534 231.08 155.188 230.76C154.854 230.44 154.588 230.04 154.388 229.56C154.188 229.066 154.088 228.486 154.088 227.82V220.58ZM168.082 216.4V231.52H166.142V216.4H168.082ZM175.341 222.04C174.941 222.04 174.567 222.113 174.221 222.26C173.887 222.393 173.594 222.586 173.341 222.84C173.101 223.08 172.907 223.38 172.761 223.74C172.627 224.086 172.561 224.466 172.561 224.88V225.16H178.041V224.8C178.041 223.96 177.801 223.293 177.321 222.8C176.841 222.293 176.181 222.04 175.341 222.04ZM179.661 230.48C179.181 230.813 178.607 231.093 177.941 231.32C177.274 231.56 176.441 231.68 175.441 231.68C174.761 231.68 174.127 231.58 173.541 231.38C172.967 231.193 172.461 230.9 172.021 230.5C171.594 230.086 171.254 229.56 171.001 228.92C170.761 228.28 170.641 227.52 170.641 226.64V225.4C170.641 224.573 170.754 223.846 170.981 223.22C171.221 222.593 171.547 222.073 171.961 221.66C172.387 221.233 172.887 220.913 173.461 220.7C174.034 220.486 174.661 220.38 175.341 220.38C176.741 220.38 177.854 220.806 178.681 221.66C179.507 222.513 179.921 223.72 179.921 225.28V226.74H172.561V226.82C172.561 227.86 172.834 228.653 173.381 229.2C173.927 229.733 174.641 230 175.521 230C176.241 230 176.854 229.913 177.361 229.74C177.881 229.566 178.374 229.326 178.841 229.02L179.661 230.48Z" fill="white"/>
<path d="M245 25L255 30.7735L255 19.2265L245 25ZM275 24L254 24L254 26L275 26L275 24Z" fill="#2C8DFF"/>
<path d="M530 25L540 30.7735L540 19.2265L530 25ZM610 24L539 24L539 26L610 26L610 24Z" fill="#2C8DFF"/>
<path d="M530 225L540 230.773L540 219.226L530 225ZM610 224L539 224L539 226L610 226L610 224Z" fill="#2C8DFF"/>
<path d="M740 90L745.774 80H734.226L740 90ZM739 60V81H741V60H739Z" fill="#2C8DFF"/>
<path d="M740 160L734.226 170H745.774L740 160ZM740 190L745.774 180H734.226L740 190ZM739 169V181H741V169H739Z" fill="#2C8DFF"/>
</svg>
