<svg width="310" height="207" viewBox="0 0 310 207" fill="none" xmlns="http://www.w3.org/2000/svg">
<circle cx="216" cy="189" r="1" fill="#83838F"/>
<circle cx="212" cy="189" r="1" fill="#83838F"/>
<circle cx="208" cy="189" r="1" fill="#83838F"/>
<path d="M224 176L219 173.113L219 178.887L224 176ZM200 176L205 178.887L205 173.113L200 176ZM219.5 175.5L204.5 175.5L204.5 176.5L219.5 176.5L219.5 175.5Z" fill="#2C8DFF"/>
<path d="M110 176L105 173.113L105 178.887L110 176ZM86 176L91 178.887L91 173.113L86 176ZM105.5 175.5L90.5 175.5L90.5 176.5L105.5 176.5L105.5 175.5Z" fill="#2C8DFF"/>
<rect y="161" width="82" height="46" rx="10" fill="#004596"/>
<path d="M15.2333 186.285C14.7653 186.736 14.254 187.048 13.6993 187.221C13.1447 187.394 12.551 187.481 11.9183 187.481C11.355 187.481 10.8437 187.394 10.3843 187.221C9.92501 187.056 9.53068 186.801 9.20135 186.454C8.87201 186.107 8.61635 185.678 8.43435 185.167C8.25235 184.656 8.16135 184.053 8.16135 183.36V181.943C8.16135 181.258 8.25235 180.66 8.43435 180.149C8.61635 179.638 8.87201 179.209 9.20135 178.862C9.53935 178.515 9.93801 178.255 10.3973 178.082C10.8567 177.909 11.3637 177.822 11.9183 177.822C12.5683 177.822 13.136 177.904 13.6213 178.069C14.1067 178.225 14.5703 178.476 15.0123 178.823L14.3493 179.876C13.9247 179.529 13.5173 179.3 13.1273 179.187C12.746 179.074 12.343 179.018 11.9183 179.018C11.563 179.018 11.2337 179.079 10.9303 179.2C10.6357 179.321 10.3757 179.508 10.1503 179.759C9.93368 180.01 9.76468 180.331 9.64335 180.721C9.52201 181.111 9.46135 181.575 9.46135 182.112V183.191C9.46135 183.728 9.52201 184.192 9.64335 184.582C9.76468 184.972 9.93368 185.293 10.1503 185.544C10.3757 185.795 10.6357 185.982 10.9303 186.103C11.2337 186.224 11.563 186.285 11.9183 186.285C12.369 186.285 12.8197 186.216 13.2703 186.077C13.721 185.938 14.1413 185.678 14.5313 185.297L15.2333 186.285ZM19.4426 180.097C20.4219 180.097 21.1933 180.379 21.7566 180.942C22.3286 181.505 22.6146 182.303 22.6146 183.334V184.205C22.6146 185.236 22.3286 186.034 21.7566 186.597C21.1933 187.16 20.4219 187.442 19.4426 187.442C18.4633 187.442 17.6876 187.16 17.1156 186.597C16.5523 186.034 16.2706 185.236 16.2706 184.205V183.334C16.2706 182.294 16.5523 181.497 17.1156 180.942C17.6876 180.379 18.4633 180.097 19.4426 180.097ZM19.4426 186.337C20.0059 186.337 20.4609 186.155 20.8076 185.791C21.1629 185.418 21.3406 184.855 21.3406 184.101V183.438C21.3406 182.684 21.1629 182.125 20.8076 181.761C20.4609 181.388 20.0059 181.202 19.4426 181.202C18.8793 181.202 18.4199 181.388 18.0646 181.761C17.7179 182.125 17.5446 182.684 17.5446 183.438V184.101C17.5446 184.855 17.7179 185.418 18.0646 185.791C18.4199 186.155 18.8793 186.337 19.4426 186.337ZM34.0402 187.338H32.7792V183.074C32.7792 181.852 32.3329 181.241 31.4402 181.241C31.2409 181.241 31.0415 181.276 30.8422 181.345C30.6515 181.406 30.4782 181.505 30.3222 181.644C30.1662 181.774 30.0362 181.947 29.9322 182.164C29.8369 182.372 29.7892 182.619 29.7892 182.905V187.338H28.5282V183.074C28.5282 181.852 28.0819 181.241 27.1892 181.241C26.9899 181.241 26.7905 181.271 26.5912 181.332C26.4005 181.393 26.2272 181.488 26.0712 181.618C25.9152 181.748 25.7852 181.917 25.6812 182.125C25.5859 182.324 25.5382 182.563 25.5382 182.84V187.338H24.2772V180.227H25.5252V181.189H25.5382C25.6769 180.877 25.9022 180.617 26.2142 180.409C26.5349 180.201 26.9422 180.097 27.4362 180.097C27.9129 180.097 28.3245 180.201 28.6712 180.409C29.0265 180.608 29.2952 180.899 29.4772 181.28C29.7025 180.933 29.9842 180.652 30.3222 180.435C30.6689 180.21 31.1239 180.097 31.6872 180.097C32.4239 180.097 33.0002 180.322 33.4162 180.773C33.8322 181.215 34.0402 181.848 34.0402 182.671V187.338ZM37.1916 181.111C37.3996 180.747 37.6899 180.487 38.0626 180.331C38.4439 180.175 38.8469 180.097 39.2716 180.097C40.1729 180.097 40.8576 180.366 41.3256 180.903C41.8022 181.44 42.0406 182.181 42.0406 183.126V184.387C42.0406 184.881 41.9712 185.319 41.8326 185.7C41.6939 186.073 41.4989 186.389 41.2476 186.649C41.0049 186.909 40.7059 187.104 40.3506 187.234C40.0039 187.373 39.6182 187.442 39.1936 187.442C38.6649 187.442 38.2402 187.347 37.9196 187.156C37.6076 186.965 37.3779 186.766 37.2306 186.558V190.12H35.9696V180.227H37.1916V181.111ZM37.2176 184.803C37.2176 184.985 37.2609 185.171 37.3476 185.362C37.4429 185.544 37.5729 185.709 37.7376 185.856C37.9109 185.995 38.1102 186.112 38.3356 186.207C38.5609 186.294 38.8122 186.337 39.0896 186.337C39.6269 186.337 40.0429 186.151 40.3376 185.778C40.6409 185.405 40.7926 184.881 40.7926 184.205V183.334C40.7926 182.658 40.6409 182.134 40.3376 181.761C40.0342 181.388 39.6182 181.202 39.0896 181.202C38.8296 181.202 38.5869 181.245 38.3616 181.332C38.1362 181.419 37.9369 181.54 37.7636 181.696C37.5989 181.852 37.4646 182.043 37.3606 182.268C37.2652 182.485 37.2176 182.732 37.2176 183.009V184.803ZM45.6262 187.442C44.9069 187.442 44.3349 187.264 43.9102 186.909C43.4942 186.554 43.2862 186.064 43.2862 185.44V185.089C43.2862 184.482 43.4899 183.988 43.8972 183.607C44.3046 183.226 44.9632 183.035 45.8732 183.035H47.6802V182.619C47.6802 182.142 47.5632 181.791 47.3292 181.566C47.1039 181.332 46.7312 181.215 46.2112 181.215C45.7952 181.215 45.4312 181.28 45.1192 181.41C44.8159 181.54 44.4996 181.713 44.1702 181.93L43.5462 180.994C43.8929 180.751 44.2829 180.543 44.7162 180.37C45.1496 180.188 45.6522 180.097 46.2242 180.097C46.6229 180.097 46.9869 180.149 47.3162 180.253C47.6456 180.348 47.9272 180.496 48.1612 180.695C48.4039 180.886 48.5902 181.124 48.7202 181.41C48.8589 181.687 48.9282 182.004 48.9282 182.359V187.338H47.7192V186.48H47.7062C47.6369 186.61 47.5416 186.731 47.4202 186.844C47.3076 186.948 47.1819 187.039 47.0432 187.117C46.8526 187.221 46.6446 187.299 46.4192 187.351C46.2026 187.412 45.9382 187.442 45.6262 187.442ZM47.6802 184.101H45.8992C45.4052 184.101 45.0499 184.196 44.8332 184.387C44.6252 184.578 44.5212 184.842 44.5212 185.18V185.362C44.5212 185.709 44.6426 185.96 44.8852 186.116C45.1279 186.272 45.4182 186.35 45.7562 186.35C46.0682 186.35 46.3369 186.315 46.5622 186.246C46.7962 186.168 47.0086 186.055 47.1992 185.908C47.3726 185.778 47.4939 185.631 47.5632 185.466C47.6412 185.293 47.6802 185.072 47.6802 184.803V184.101ZM56.6861 187.338H55.4251V182.918C55.4251 182.32 55.2994 181.887 55.0481 181.618C54.7967 181.349 54.4067 181.215 53.8781 181.215C53.6614 181.215 53.4447 181.254 53.2281 181.332C53.0201 181.401 52.8294 181.51 52.6561 181.657C52.4914 181.796 52.3527 181.973 52.2401 182.19C52.1361 182.407 52.0841 182.654 52.0841 182.931V187.338H50.8231V180.227H52.0451V181.124H52.0581C52.2747 180.795 52.5607 180.543 52.9161 180.37C53.2714 180.188 53.6961 180.097 54.1901 180.097C54.5367 180.097 54.8617 180.149 55.1651 180.253C55.4684 180.357 55.7327 180.513 55.9581 180.721C56.1834 180.929 56.3611 181.193 56.4911 181.514C56.6211 181.835 56.6861 182.207 56.6861 182.632V187.338ZM61.0623 185.908L62.9343 180.227H64.2603L60.5683 190.276L59.4243 189.873L60.3473 187.442L57.7603 180.227H59.1253L61.0103 185.908H61.0623ZM72.0131 182.463C72.2817 182.168 72.4941 181.913 72.6501 181.696C72.8061 181.479 72.9231 181.289 73.0011 181.124C73.0791 180.951 73.1267 180.799 73.1441 180.669C73.1701 180.53 73.1831 180.4 73.1831 180.279V180.175C73.1831 179.802 73.0357 179.512 72.7411 179.304C72.4551 179.087 72.0651 178.979 71.5711 178.979C71.3977 178.979 71.2201 179.001 71.0381 179.044C70.8647 179.079 70.6914 179.148 70.5181 179.252C70.3447 179.356 70.1757 179.499 70.0111 179.681C69.8464 179.854 69.6861 180.075 69.5301 180.344L68.5421 179.707C68.6547 179.508 68.7934 179.3 68.9581 179.083C69.1227 178.858 69.3221 178.654 69.5561 178.472C69.7987 178.281 70.0804 178.125 70.4011 178.004C70.7304 177.883 71.1117 177.822 71.5451 177.822C72.0217 177.822 72.4421 177.883 72.8061 178.004C73.1701 178.117 73.4734 178.277 73.7161 178.485C73.9674 178.693 74.1537 178.944 74.2751 179.239C74.4051 179.525 74.4701 179.837 74.4701 180.175V180.305C74.4701 180.816 74.3357 181.297 74.0671 181.748C73.7984 182.199 73.4517 182.649 73.0271 183.1L70.1021 186.22H74.8081V187.338H68.5161V186.259L72.0131 182.463Z" fill="white"/>
<rect x="114" y="161" width="82" height="46" rx="10" fill="#004596"/>
<path d="M129.233 186.285C128.765 186.736 128.254 187.048 127.699 187.221C127.145 187.394 126.551 187.481 125.918 187.481C125.355 187.481 124.844 187.394 124.384 187.221C123.925 187.056 123.531 186.801 123.201 186.454C122.872 186.107 122.616 185.678 122.434 185.167C122.252 184.656 122.161 184.053 122.161 183.36V181.943C122.161 181.258 122.252 180.66 122.434 180.149C122.616 179.638 122.872 179.209 123.201 178.862C123.539 178.515 123.938 178.255 124.397 178.082C124.857 177.909 125.364 177.822 125.918 177.822C126.568 177.822 127.136 177.904 127.621 178.069C128.107 178.225 128.57 178.476 129.012 178.823L128.349 179.876C127.925 179.529 127.517 179.3 127.127 179.187C126.746 179.074 126.343 179.018 125.918 179.018C125.563 179.018 125.234 179.079 124.93 179.2C124.636 179.321 124.376 179.508 124.15 179.759C123.934 180.01 123.765 180.331 123.643 180.721C123.522 181.111 123.461 181.575 123.461 182.112V183.191C123.461 183.728 123.522 184.192 123.643 184.582C123.765 184.972 123.934 185.293 124.15 185.544C124.376 185.795 124.636 185.982 124.93 186.103C125.234 186.224 125.563 186.285 125.918 186.285C126.369 186.285 126.82 186.216 127.27 186.077C127.721 185.938 128.141 185.678 128.531 185.297L129.233 186.285ZM133.443 180.097C134.422 180.097 135.193 180.379 135.757 180.942C136.329 181.505 136.615 182.303 136.615 183.334V184.205C136.615 185.236 136.329 186.034 135.757 186.597C135.193 187.16 134.422 187.442 133.443 187.442C132.463 187.442 131.688 187.16 131.116 186.597C130.552 186.034 130.271 185.236 130.271 184.205V183.334C130.271 182.294 130.552 181.497 131.116 180.942C131.688 180.379 132.463 180.097 133.443 180.097ZM133.443 186.337C134.006 186.337 134.461 186.155 134.808 185.791C135.163 185.418 135.341 184.855 135.341 184.101V183.438C135.341 182.684 135.163 182.125 134.808 181.761C134.461 181.388 134.006 181.202 133.443 181.202C132.879 181.202 132.42 181.388 132.065 181.761C131.718 182.125 131.545 182.684 131.545 183.438V184.101C131.545 184.855 131.718 185.418 132.065 185.791C132.42 186.155 132.879 186.337 133.443 186.337ZM148.04 187.338H146.779V183.074C146.779 181.852 146.333 181.241 145.44 181.241C145.241 181.241 145.042 181.276 144.842 181.345C144.652 181.406 144.478 181.505 144.322 181.644C144.166 181.774 144.036 181.947 143.932 182.164C143.837 182.372 143.789 182.619 143.789 182.905V187.338H142.528V183.074C142.528 181.852 142.082 181.241 141.189 181.241C140.99 181.241 140.791 181.271 140.591 181.332C140.401 181.393 140.227 181.488 140.071 181.618C139.915 181.748 139.785 181.917 139.681 182.125C139.586 182.324 139.538 182.563 139.538 182.84V187.338H138.277V180.227H139.525V181.189H139.538C139.677 180.877 139.902 180.617 140.214 180.409C140.535 180.201 140.942 180.097 141.436 180.097C141.913 180.097 142.325 180.201 142.671 180.409C143.027 180.608 143.295 180.899 143.477 181.28C143.703 180.933 143.984 180.652 144.322 180.435C144.669 180.21 145.124 180.097 145.687 180.097C146.424 180.097 147 180.322 147.416 180.773C147.832 181.215 148.04 181.848 148.04 182.671V187.338ZM151.192 181.111C151.4 180.747 151.69 180.487 152.063 180.331C152.444 180.175 152.847 180.097 153.272 180.097C154.173 180.097 154.858 180.366 155.326 180.903C155.802 181.44 156.041 182.181 156.041 183.126V184.387C156.041 184.881 155.971 185.319 155.833 185.7C155.694 186.073 155.499 186.389 155.248 186.649C155.005 186.909 154.706 187.104 154.351 187.234C154.004 187.373 153.618 187.442 153.194 187.442C152.665 187.442 152.24 187.347 151.92 187.156C151.608 186.965 151.378 186.766 151.231 186.558V190.12H149.97V180.227H151.192V181.111ZM151.218 184.803C151.218 184.985 151.261 185.171 151.348 185.362C151.443 185.544 151.573 185.709 151.738 185.856C151.911 185.995 152.11 186.112 152.336 186.207C152.561 186.294 152.812 186.337 153.09 186.337C153.627 186.337 154.043 186.151 154.338 185.778C154.641 185.405 154.793 184.881 154.793 184.205V183.334C154.793 182.658 154.641 182.134 154.338 181.761C154.034 181.388 153.618 181.202 153.09 181.202C152.83 181.202 152.587 181.245 152.362 181.332C152.136 181.419 151.937 181.54 151.764 181.696C151.599 181.852 151.465 182.043 151.361 182.268C151.265 182.485 151.218 182.732 151.218 183.009V184.803ZM159.626 187.442C158.907 187.442 158.335 187.264 157.91 186.909C157.494 186.554 157.286 186.064 157.286 185.44V185.089C157.286 184.482 157.49 183.988 157.897 183.607C158.305 183.226 158.963 183.035 159.873 183.035H161.68V182.619C161.68 182.142 161.563 181.791 161.329 181.566C161.104 181.332 160.731 181.215 160.211 181.215C159.795 181.215 159.431 181.28 159.119 181.41C158.816 181.54 158.5 181.713 158.17 181.93L157.546 180.994C157.893 180.751 158.283 180.543 158.716 180.37C159.15 180.188 159.652 180.097 160.224 180.097C160.623 180.097 160.987 180.149 161.316 180.253C161.646 180.348 161.927 180.496 162.161 180.695C162.404 180.886 162.59 181.124 162.72 181.41C162.859 181.687 162.928 182.004 162.928 182.359V187.338H161.719V186.48H161.706C161.637 186.61 161.542 186.731 161.42 186.844C161.308 186.948 161.182 187.039 161.043 187.117C160.853 187.221 160.645 187.299 160.419 187.351C160.203 187.412 159.938 187.442 159.626 187.442ZM161.68 184.101H159.899C159.405 184.101 159.05 184.196 158.833 184.387C158.625 184.578 158.521 184.842 158.521 185.18V185.362C158.521 185.709 158.643 185.96 158.885 186.116C159.128 186.272 159.418 186.35 159.756 186.35C160.068 186.35 160.337 186.315 160.562 186.246C160.796 186.168 161.009 186.055 161.199 185.908C161.373 185.778 161.494 185.631 161.563 185.466C161.641 185.293 161.68 185.072 161.68 184.803V184.101ZM170.686 187.338H169.425V182.918C169.425 182.32 169.299 181.887 169.048 181.618C168.797 181.349 168.407 181.215 167.878 181.215C167.661 181.215 167.445 181.254 167.228 181.332C167.02 181.401 166.829 181.51 166.656 181.657C166.491 181.796 166.353 181.973 166.24 182.19C166.136 182.407 166.084 182.654 166.084 182.931V187.338H164.823V180.227H166.045V181.124H166.058C166.275 180.795 166.561 180.543 166.916 180.37C167.271 180.188 167.696 180.097 168.19 180.097C168.537 180.097 168.862 180.149 169.165 180.253C169.468 180.357 169.733 180.513 169.958 180.721C170.183 180.929 170.361 181.193 170.491 181.514C170.621 181.835 170.686 182.207 170.686 182.632V187.338ZM175.062 185.908L176.934 180.227H178.26L174.568 190.276L173.424 189.873L174.347 187.442L171.76 180.227H173.125L175.01 185.908H175.062ZM182.659 179.226C182.798 179.035 182.949 178.853 183.114 178.68C183.287 178.507 183.482 178.359 183.699 178.238C183.924 178.108 184.171 178.008 184.44 177.939C184.717 177.861 185.034 177.822 185.389 177.822C185.822 177.822 186.212 177.878 186.559 177.991C186.906 178.104 187.2 178.264 187.443 178.472C187.694 178.671 187.885 178.918 188.015 179.213C188.154 179.499 188.223 179.815 188.223 180.162V180.292C188.223 180.474 188.201 180.669 188.158 180.877C188.115 181.085 188.037 181.284 187.924 181.475C187.811 181.666 187.66 181.843 187.469 182.008C187.278 182.173 187.04 182.307 186.754 182.411C187.387 182.524 187.859 182.775 188.171 183.165C188.492 183.555 188.652 184.023 188.652 184.569V184.764C188.652 185.111 188.587 185.449 188.457 185.778C188.336 186.099 188.141 186.389 187.872 186.649C187.612 186.9 187.274 187.1 186.858 187.247C186.442 187.403 185.948 187.481 185.376 187.481C184.83 187.481 184.301 187.394 183.79 187.221C183.287 187.056 182.815 186.796 182.373 186.441L183.01 185.414C183.469 185.743 183.877 185.977 184.232 186.116C184.587 186.246 184.969 186.311 185.376 186.311C185.714 186.311 186.009 186.272 186.26 186.194C186.511 186.107 186.719 185.995 186.884 185.856C187.049 185.717 187.17 185.557 187.248 185.375C187.326 185.184 187.365 184.985 187.365 184.777V184.608C187.365 184.296 187.313 184.04 187.209 183.841C187.114 183.633 186.979 183.468 186.806 183.347C186.633 183.226 186.425 183.139 186.182 183.087C185.948 183.035 185.697 183.009 185.428 183.009H184.271V181.891H185.376C185.671 181.891 185.918 181.848 186.117 181.761C186.316 181.666 186.477 181.544 186.598 181.397C186.719 181.25 186.806 181.081 186.858 180.89C186.919 180.699 186.949 180.504 186.949 180.305V180.201C186.949 179.993 186.906 179.815 186.819 179.668C186.741 179.512 186.633 179.382 186.494 179.278C186.355 179.174 186.191 179.096 186 179.044C185.809 178.992 185.61 178.966 185.402 178.966C185.012 178.966 184.674 179.04 184.388 179.187C184.102 179.334 183.833 179.573 183.582 179.902L182.659 179.226Z" fill="white"/>
<rect x="228" y="161" width="82" height="46" rx="10" fill="#004596"/>
<path d="M242.143 186.285C241.675 186.736 241.164 187.048 240.609 187.221C240.054 187.394 239.461 187.481 238.828 187.481C238.265 187.481 237.753 187.394 237.294 187.221C236.835 187.056 236.44 186.801 236.111 186.454C235.782 186.107 235.526 185.678 235.344 185.167C235.162 184.656 235.071 184.053 235.071 183.36V181.943C235.071 181.258 235.162 180.66 235.344 180.149C235.526 179.638 235.782 179.209 236.111 178.862C236.449 178.515 236.848 178.255 237.307 178.082C237.766 177.909 238.273 177.822 238.828 177.822C239.478 177.822 240.046 177.904 240.531 178.069C241.016 178.225 241.48 178.476 241.922 178.823L241.259 179.876C240.834 179.529 240.427 179.3 240.037 179.187C239.656 179.074 239.253 179.018 238.828 179.018C238.473 179.018 238.143 179.079 237.84 179.2C237.545 179.321 237.285 179.508 237.06 179.759C236.843 180.01 236.674 180.331 236.553 180.721C236.432 181.111 236.371 181.575 236.371 182.112V183.191C236.371 183.728 236.432 184.192 236.553 184.582C236.674 184.972 236.843 185.293 237.06 185.544C237.285 185.795 237.545 185.982 237.84 186.103C238.143 186.224 238.473 186.285 238.828 186.285C239.279 186.285 239.729 186.216 240.18 186.077C240.631 185.938 241.051 185.678 241.441 185.297L242.143 186.285ZM246.352 180.097C247.332 180.097 248.103 180.379 248.666 180.942C249.238 181.505 249.524 182.303 249.524 183.334V184.205C249.524 185.236 249.238 186.034 248.666 186.597C248.103 187.16 247.332 187.442 246.352 187.442C245.373 187.442 244.597 187.16 244.025 186.597C243.462 186.034 243.18 185.236 243.18 184.205V183.334C243.18 182.294 243.462 181.497 244.025 180.942C244.597 180.379 245.373 180.097 246.352 180.097ZM246.352 186.337C246.916 186.337 247.371 186.155 247.717 185.791C248.073 185.418 248.25 184.855 248.25 184.101V183.438C248.25 182.684 248.073 182.125 247.717 181.761C247.371 181.388 246.916 181.202 246.352 181.202C245.789 181.202 245.33 181.388 244.974 181.761C244.628 182.125 244.454 182.684 244.454 183.438V184.101C244.454 184.855 244.628 185.418 244.974 185.791C245.33 186.155 245.789 186.337 246.352 186.337ZM260.95 187.338H259.689V183.074C259.689 181.852 259.243 181.241 258.35 181.241C258.151 181.241 257.951 181.276 257.752 181.345C257.561 181.406 257.388 181.505 257.232 181.644C257.076 181.774 256.946 181.947 256.842 182.164C256.747 182.372 256.699 182.619 256.699 182.905V187.338H255.438V183.074C255.438 181.852 254.992 181.241 254.099 181.241C253.9 181.241 253.7 181.271 253.501 181.332C253.31 181.393 253.137 181.488 252.981 181.618C252.825 181.748 252.695 181.917 252.591 182.125C252.496 182.324 252.448 182.563 252.448 182.84V187.338H251.187V180.227H252.435V181.189H252.448C252.587 180.877 252.812 180.617 253.124 180.409C253.445 180.201 253.852 180.097 254.346 180.097C254.823 180.097 255.234 180.201 255.581 180.409C255.936 180.608 256.205 180.899 256.387 181.28C256.612 180.933 256.894 180.652 257.232 180.435C257.579 180.21 258.034 180.097 258.597 180.097C259.334 180.097 259.91 180.322 260.326 180.773C260.742 181.215 260.95 181.848 260.95 182.671V187.338ZM264.101 181.111C264.309 180.747 264.6 180.487 264.972 180.331C265.354 180.175 265.757 180.097 266.181 180.097C267.083 180.097 267.767 180.366 268.235 180.903C268.712 181.44 268.95 182.181 268.95 183.126V184.387C268.95 184.881 268.881 185.319 268.742 185.7C268.604 186.073 268.409 186.389 268.157 186.649C267.915 186.909 267.616 187.104 267.26 187.234C266.914 187.373 266.528 187.442 266.103 187.442C265.575 187.442 265.15 187.347 264.829 187.156C264.517 186.965 264.288 186.766 264.14 186.558V190.12H262.879V180.227H264.101V181.111ZM264.127 184.803C264.127 184.985 264.171 185.171 264.257 185.362C264.353 185.544 264.483 185.709 264.647 185.856C264.821 185.995 265.02 186.112 265.245 186.207C265.471 186.294 265.722 186.337 265.999 186.337C266.537 186.337 266.953 186.151 267.247 185.778C267.551 185.405 267.702 184.881 267.702 184.205V183.334C267.702 182.658 267.551 182.134 267.247 181.761C266.944 181.388 266.528 181.202 265.999 181.202C265.739 181.202 265.497 181.245 265.271 181.332C265.046 181.419 264.847 181.54 264.673 181.696C264.509 181.852 264.374 182.043 264.27 182.268C264.175 182.485 264.127 182.732 264.127 183.009V184.803ZM272.536 187.442C271.817 187.442 271.245 187.264 270.82 186.909C270.404 186.554 270.196 186.064 270.196 185.44V185.089C270.196 184.482 270.4 183.988 270.807 183.607C271.214 183.226 271.873 183.035 272.783 183.035H274.59V182.619C274.59 182.142 274.473 181.791 274.239 181.566C274.014 181.332 273.641 181.215 273.121 181.215C272.705 181.215 272.341 181.28 272.029 181.41C271.726 181.54 271.409 181.713 271.08 181.93L270.456 180.994C270.803 180.751 271.193 180.543 271.626 180.37C272.059 180.188 272.562 180.097 273.134 180.097C273.533 180.097 273.897 180.149 274.226 180.253C274.555 180.348 274.837 180.496 275.071 180.695C275.314 180.886 275.5 181.124 275.63 181.41C275.769 181.687 275.838 182.004 275.838 182.359V187.338H274.629V186.48H274.616C274.547 186.61 274.451 186.731 274.33 186.844C274.217 186.948 274.092 187.039 273.953 187.117C273.762 187.221 273.554 187.299 273.329 187.351C273.112 187.412 272.848 187.442 272.536 187.442ZM274.59 184.101H272.809C272.315 184.101 271.96 184.196 271.743 184.387C271.535 184.578 271.431 184.842 271.431 185.18V185.362C271.431 185.709 271.552 185.96 271.795 186.116C272.038 186.272 272.328 186.35 272.666 186.35C272.978 186.35 273.247 186.315 273.472 186.246C273.706 186.168 273.918 186.055 274.109 185.908C274.282 185.778 274.404 185.631 274.473 185.466C274.551 185.293 274.59 185.072 274.59 184.803V184.101ZM283.596 187.338H282.335V182.918C282.335 182.32 282.209 181.887 281.958 181.618C281.706 181.349 281.316 181.215 280.788 181.215C280.571 181.215 280.354 181.254 280.138 181.332C279.93 181.401 279.739 181.51 279.566 181.657C279.401 181.796 279.262 181.973 279.15 182.19C279.046 182.407 278.994 182.654 278.994 182.931V187.338H277.733V180.227H278.955V181.124H278.968C279.184 180.795 279.47 180.543 279.826 180.37C280.181 180.188 280.606 180.097 281.1 180.097C281.446 180.097 281.771 180.149 282.075 180.253C282.378 180.357 282.642 180.513 282.868 180.721C283.093 180.929 283.271 181.193 283.401 181.514C283.531 181.835 283.596 182.207 283.596 182.632V187.338ZM287.972 185.908L289.844 180.227H291.17L287.478 190.276L286.334 189.873L287.257 187.442L284.67 180.227H286.035L287.92 185.908H287.972ZM297.142 177.965L300.782 184.283C300.877 184.439 300.981 184.638 301.094 184.881C301.215 185.115 301.332 185.371 301.445 185.648V177.965H302.641V187.338H301.159L297.519 181.046C297.423 180.873 297.315 180.669 297.194 180.435C297.081 180.201 296.968 179.945 296.856 179.668V187.338H295.66V177.965H297.142Z" fill="white"/>
<path d="M271 131L268.113 136H273.887L271 131ZM271 155L273.887 150H268.113L271 155ZM270.5 135.5V150.5H271.5V135.5H270.5Z" fill="#2C8DFF"/>
<path d="M157 131L154.113 136H159.887L157 131ZM157 155L159.887 150H154.113L157 155ZM156.5 135.5V150.5H157.5V135.5H156.5Z" fill="#2C8DFF"/>
<path d="M39 131L36.1132 136H41.8868L39 131ZM39 155L41.8868 150H36.1132L39 155ZM38.5 135.5V150.5H39.5V135.5H38.5Z" fill="#2C8DFF"/>
<path d="M0 10C0 4.47715 4.47715 0 10 0H300C305.523 0 310 4.47715 310 10V115C310 120.523 305.523 125 300 125H10C4.47716 125 0 120.523 0 115V10Z" fill="#004596"/>
<rect x="8" y="77" width="294" height="40" fill="white"/>
<path d="M70.8614 92.66V100.568H75.1934V101.312H70.0214V92.66H70.8614ZM80.5115 97.652V97.544C80.5115 96.864 80.3555 96.344 80.0435 95.984C79.7315 95.624 79.2915 95.444 78.7235 95.444C78.1475 95.444 77.6995 95.636 77.3795 96.02C77.0675 96.396 76.9115 96.904 76.9115 97.544V97.652H80.5115ZM81.1835 100.676C80.9275 100.86 80.6075 101.028 80.2235 101.18C79.8395 101.332 79.3755 101.408 78.8315 101.408C77.9675 101.408 77.2955 101.152 76.8155 100.64C76.3355 100.12 76.0955 99.388 76.0955 98.444V97.64C76.0955 96.72 76.3275 96.004 76.7915 95.492C77.2635 94.98 77.9075 94.724 78.7235 94.724C79.5715 94.724 80.2155 94.988 80.6555 95.516C81.1035 96.036 81.3275 96.752 81.3275 97.664V98.336H76.9115V98.444C76.9115 99.164 77.0835 99.72 77.4275 100.112C77.7715 100.496 78.2435 100.688 78.8435 100.688C79.2755 100.688 79.6555 100.624 79.9835 100.496C80.3115 100.368 80.5915 100.22 80.8235 100.052L81.1835 100.676ZM87.076 100.34H87.064C86.88 100.668 86.608 100.908 86.248 101.06C85.896 101.212 85.532 101.288 85.156 101.288C84.78 101.288 84.436 101.224 84.124 101.096C83.812 100.976 83.54 100.8 83.308 100.568C83.076 100.328 82.896 100.036 82.768 99.692C82.64 99.348 82.576 98.956 82.576 98.516V97.496C82.576 97.056 82.64 96.664 82.768 96.32C82.896 95.976 83.072 95.688 83.296 95.456C83.528 95.216 83.8 95.036 84.112 94.916C84.432 94.788 84.776 94.724 85.144 94.724C85.624 94.724 86.024 94.816 86.344 95C86.672 95.184 86.92 95.396 87.088 95.636V94.844H87.892V101.204C87.892 102.124 87.652 102.816 87.172 103.28C86.7 103.752 86.06 103.988 85.252 103.988C84.796 103.988 84.388 103.928 84.028 103.808C83.676 103.688 83.364 103.524 83.092 103.316L83.464 102.68C83.616 102.784 83.76 102.868 83.896 102.932C84.032 103.004 84.168 103.06 84.304 103.1C84.448 103.148 84.596 103.18 84.748 103.196C84.9 103.212 85.068 103.22 85.252 103.22C85.852 103.22 86.304 103.056 86.608 102.728C86.92 102.408 87.076 101.908 87.076 101.228V100.34ZM83.392 98.396C83.392 99.092 83.556 99.628 83.884 100.004C84.212 100.38 84.648 100.568 85.192 100.568C85.456 100.568 85.7 100.536 85.924 100.472C86.156 100.4 86.356 100.296 86.524 100.16C86.692 100.016 86.824 99.84 86.92 99.632C87.024 99.416 87.076 99.164 87.076 98.876V97.052C87.076 96.86 87.028 96.672 86.932 96.488C86.844 96.296 86.716 96.124 86.548 95.972C86.38 95.812 86.18 95.684 85.948 95.588C85.716 95.492 85.464 95.444 85.192 95.444C84.64 95.444 84.2 95.636 83.872 96.02C83.552 96.396 83.392 96.928 83.392 97.616V98.396ZM91.5772 101.408C90.9612 101.408 90.4612 101.244 90.0772 100.916C89.6932 100.588 89.5012 100.136 89.5012 99.56V99.296C89.5012 98.768 89.6932 98.34 90.0772 98.012C90.4612 97.684 91.0292 97.52 91.7812 97.52H93.6052V96.92C93.6052 96.448 93.4732 96.088 93.2092 95.84C92.9532 95.584 92.5732 95.456 92.0692 95.456C91.7172 95.456 91.3812 95.52 91.0612 95.648C90.7412 95.768 90.4412 95.924 90.1612 96.116L89.7652 95.492C90.0692 95.284 90.4052 95.104 90.7732 94.952C91.1492 94.8 91.5852 94.724 92.0812 94.724C92.8092 94.724 93.3772 94.904 93.7852 95.264C94.2012 95.624 94.4092 96.132 94.4092 96.788V101.312H93.6172V100.52H93.6052C93.5412 100.624 93.4452 100.732 93.3172 100.844C93.1972 100.948 93.0532 101.044 92.8852 101.132C92.5172 101.316 92.0812 101.408 91.5772 101.408ZM93.6052 98.204H91.7932C91.2732 98.204 90.8972 98.308 90.6652 98.516C90.4332 98.724 90.3172 98.996 90.3172 99.332V99.524C90.3172 99.732 90.3572 99.912 90.4372 100.064C90.5172 100.208 90.6212 100.328 90.7492 100.424C90.8852 100.52 91.0332 100.592 91.1932 100.64C91.3612 100.68 91.5292 100.7 91.6972 100.7C91.9532 100.7 92.1852 100.668 92.3932 100.604C92.6012 100.54 92.8012 100.448 92.9932 100.328C93.1692 100.216 93.3132 100.08 93.4252 99.92C93.5452 99.752 93.6052 99.544 93.6052 99.296V98.204ZM98.5997 94.724C99.0557 94.724 99.4557 94.78 99.7997 94.892C100.144 94.996 100.452 95.152 100.724 95.36L100.352 95.996C100.048 95.788 99.7557 95.648 99.4757 95.576C99.1957 95.496 98.9037 95.456 98.5997 95.456C98.0237 95.456 97.5717 95.648 97.2437 96.032C96.9157 96.408 96.7517 96.936 96.7517 97.616V98.444C96.7517 99.156 96.9197 99.704 97.2557 100.088C97.5917 100.472 98.0477 100.664 98.6237 100.664C99.0717 100.664 99.4397 100.604 99.7277 100.484C100.024 100.356 100.288 100.204 100.52 100.028L100.904 100.676C100.784 100.764 100.652 100.852 100.508 100.94C100.364 101.028 100.2 101.104 100.016 101.168C99.8317 101.24 99.6237 101.296 99.3917 101.336C99.1597 101.384 98.8997 101.408 98.6117 101.408C97.7637 101.408 97.1037 101.152 96.6317 100.64C96.1597 100.12 95.9237 99.388 95.9237 98.444V97.64C95.9237 97.168 95.9877 96.752 96.1157 96.392C96.2517 96.024 96.4357 95.72 96.6677 95.48C96.8997 95.232 97.1797 95.044 97.5077 94.916C97.8357 94.788 98.1997 94.724 98.5997 94.724ZM102.601 94.844L104.605 100.4L106.573 94.844H107.413L104.053 103.988L103.357 103.736L104.185 101.42L101.761 94.844H102.601ZM112.427 97.712C112.427 98.624 112.547 99.528 112.787 100.424C113.027 101.32 113.455 102.192 114.071 103.04H113.303C112.703 102.328 112.259 101.52 111.971 100.616C111.683 99.712 111.539 98.724 111.539 97.652V97.172C111.539 96.1 111.683 95.116 111.971 94.22C112.259 93.324 112.703 92.52 113.303 91.808H114.071C113.479 92.608 113.055 93.452 112.799 94.34C112.551 95.22 112.427 96.144 112.427 97.112V97.712ZM120.581 92.66V93.404H116.213V96.5H120.329V97.244H116.213V100.568H120.665V101.312H115.373V92.66H120.581ZM125.752 97.568C125.696 97.576 125.64 97.58 125.584 97.58C125.536 97.58 125.484 97.58 125.428 97.58H123.268V101.312H122.428V92.66H125.416C125.848 92.66 126.232 92.72 126.568 92.84C126.904 92.952 127.188 93.116 127.42 93.332C127.66 93.54 127.84 93.788 127.96 94.076C128.08 94.364 128.14 94.676 128.14 95.012V95.192C128.14 95.72 128 96.176 127.72 96.56C127.44 96.936 127.06 97.212 126.58 97.388L128.32 101.312H127.42L125.752 97.568ZM123.268 93.416V96.824H125.164C125.916 96.824 126.456 96.68 126.784 96.392C127.12 96.096 127.288 95.684 127.288 95.156V95.036C127.288 94.532 127.124 94.136 126.796 93.848C126.476 93.56 125.976 93.416 125.296 93.416H123.268ZM129.986 92.66H132.914C133.37 92.66 133.77 92.724 134.114 92.852C134.466 92.972 134.758 93.144 134.99 93.368C135.222 93.584 135.394 93.844 135.506 94.148C135.626 94.452 135.686 94.78 135.686 95.132V95.384C135.686 95.736 135.622 96.064 135.494 96.368C135.374 96.672 135.194 96.94 134.954 97.172C134.722 97.396 134.434 97.572 134.09 97.7C133.746 97.828 133.354 97.892 132.914 97.892H130.826V101.312H129.986V92.66ZM130.826 93.416V97.136H132.71C133.454 97.136 133.994 96.976 134.33 96.656C134.666 96.336 134.834 95.904 134.834 95.36V95.144C134.834 94.632 134.67 94.216 134.342 93.896C134.022 93.576 133.522 93.416 132.842 93.416H130.826ZM136.269 100.4H137.325L136.461 103.1H135.765L136.269 100.4ZM143.399 94.976C143.351 94.872 143.307 94.784 143.267 94.712C143.227 94.632 143.191 94.552 143.159 94.472C143.127 94.392 143.095 94.308 143.063 94.22C143.031 94.124 142.999 94.012 142.967 93.884V101.312H142.139V92.66H143.171L146.099 98.996L149.039 92.66H150.035V101.312H149.207V93.884C149.183 94.012 149.155 94.124 149.123 94.22C149.099 94.308 149.071 94.392 149.039 94.472C149.007 94.552 148.971 94.632 148.931 94.712C148.891 94.784 148.847 94.872 148.799 94.976L146.483 99.872H145.691L143.399 94.976ZM157.237 92.66V93.404H152.869V96.5H156.985V97.244H152.869V100.568H157.321V101.312H152.029V92.66H157.237ZM161.712 100.664C162.048 100.664 162.348 100.624 162.612 100.544C162.884 100.464 163.112 100.356 163.296 100.22C163.488 100.076 163.632 99.916 163.728 99.74C163.824 99.556 163.872 99.368 163.872 99.176V98.924C163.872 98.724 163.84 98.544 163.776 98.384C163.712 98.224 163.596 98.08 163.428 97.952C163.26 97.816 163.028 97.696 162.732 97.592C162.444 97.48 162.068 97.372 161.604 97.268C161.1 97.156 160.676 97.028 160.332 96.884C159.996 96.732 159.724 96.564 159.516 96.38C159.316 96.188 159.172 95.98 159.084 95.756C159.004 95.524 158.964 95.272 158.964 95V94.724C158.964 94.396 159.032 94.1 159.168 93.836C159.312 93.564 159.508 93.332 159.756 93.14C160.012 92.948 160.312 92.8 160.656 92.696C161.008 92.584 161.388 92.528 161.796 92.528C162.38 92.528 162.88 92.6 163.296 92.744C163.712 92.88 164.068 93.052 164.364 93.26L163.968 93.944C163.688 93.744 163.368 93.588 163.008 93.476C162.648 93.356 162.244 93.296 161.796 93.296C161.532 93.296 161.28 93.328 161.04 93.392C160.8 93.456 160.588 93.552 160.404 93.68C160.228 93.8 160.084 93.948 159.972 94.124C159.868 94.3 159.816 94.5 159.816 94.724V94.964C159.816 95.148 159.848 95.316 159.912 95.468C159.984 95.62 160.096 95.756 160.248 95.876C160.408 95.996 160.62 96.108 160.884 96.212C161.148 96.316 161.476 96.412 161.868 96.5C162.428 96.628 162.892 96.768 163.26 96.92C163.628 97.064 163.92 97.232 164.136 97.424C164.352 97.616 164.504 97.832 164.592 98.072C164.68 98.312 164.724 98.588 164.724 98.9V99.176C164.724 99.488 164.656 99.78 164.52 100.052C164.384 100.324 164.188 100.564 163.932 100.772C163.684 100.98 163.372 101.144 162.996 101.264C162.628 101.384 162.212 101.444 161.748 101.444C161.172 101.444 160.632 101.356 160.128 101.18C159.632 101.012 159.192 100.78 158.808 100.484L159.24 99.776C159.672 100.088 160.092 100.316 160.5 100.46C160.916 100.596 161.32 100.664 161.712 100.664ZM166.433 100.4H167.489L166.625 103.1H165.929L166.433 100.4ZM172.303 92.66H175.231C175.687 92.66 176.087 92.724 176.431 92.852C176.783 92.972 177.075 93.144 177.307 93.368C177.539 93.584 177.711 93.844 177.823 94.148C177.943 94.452 178.003 94.78 178.003 95.132V95.384C178.003 95.736 177.939 96.064 177.811 96.368C177.691 96.672 177.511 96.94 177.271 97.172C177.039 97.396 176.751 97.572 176.407 97.7C176.063 97.828 175.671 97.892 175.231 97.892H173.143V101.312H172.303V92.66ZM173.143 93.416V97.136H175.027C175.771 97.136 176.311 96.976 176.647 96.656C176.983 96.336 177.151 95.904 177.151 95.36V95.144C177.151 94.632 176.987 94.216 176.659 93.896C176.339 93.576 175.839 93.416 175.159 93.416H173.143ZM180.315 92.66V100.568H184.647V101.312H179.475V92.66H180.315ZM187.145 94.976C187.097 94.872 187.053 94.784 187.013 94.712C186.973 94.632 186.937 94.552 186.905 94.472C186.873 94.392 186.841 94.308 186.809 94.22C186.777 94.124 186.745 94.012 186.713 93.884V101.312H185.885V92.66H186.917L189.845 98.996L192.785 92.66H193.781V101.312H192.953V93.884C192.929 94.012 192.901 94.124 192.869 94.22C192.845 94.308 192.817 94.392 192.785 94.472C192.753 94.552 192.717 94.632 192.677 94.712C192.637 94.784 192.593 94.872 192.545 94.976L190.229 99.872H189.437L187.145 94.976ZM195.847 100.4H196.903L196.039 103.1H195.343L195.847 100.4ZM204.345 100.664C204.681 100.664 204.981 100.624 205.245 100.544C205.517 100.464 205.745 100.356 205.929 100.22C206.121 100.076 206.265 99.916 206.361 99.74C206.457 99.556 206.505 99.368 206.505 99.176V98.924C206.505 98.724 206.473 98.544 206.409 98.384C206.345 98.224 206.229 98.08 206.061 97.952C205.893 97.816 205.661 97.696 205.365 97.592C205.077 97.48 204.701 97.372 204.237 97.268C203.733 97.156 203.309 97.028 202.965 96.884C202.629 96.732 202.357 96.564 202.149 96.38C201.949 96.188 201.805 95.98 201.717 95.756C201.637 95.524 201.597 95.272 201.597 95V94.724C201.597 94.396 201.665 94.1 201.801 93.836C201.945 93.564 202.141 93.332 202.389 93.14C202.645 92.948 202.945 92.8 203.289 92.696C203.641 92.584 204.021 92.528 204.429 92.528C205.013 92.528 205.513 92.6 205.929 92.744C206.345 92.88 206.701 93.052 206.997 93.26L206.601 93.944C206.321 93.744 206.001 93.588 205.641 93.476C205.281 93.356 204.877 93.296 204.429 93.296C204.165 93.296 203.913 93.328 203.673 93.392C203.433 93.456 203.221 93.552 203.037 93.68C202.861 93.8 202.717 93.948 202.605 94.124C202.501 94.3 202.449 94.5 202.449 94.724V94.964C202.449 95.148 202.481 95.316 202.545 95.468C202.617 95.62 202.729 95.756 202.881 95.876C203.041 95.996 203.253 96.108 203.517 96.212C203.781 96.316 204.109 96.412 204.501 96.5C205.061 96.628 205.525 96.768 205.893 96.92C206.261 97.064 206.553 97.232 206.769 97.424C206.985 97.616 207.137 97.832 207.225 98.072C207.313 98.312 207.357 98.588 207.357 98.9V99.176C207.357 99.488 207.289 99.78 207.153 100.052C207.017 100.324 206.821 100.564 206.565 100.772C206.317 100.98 206.005 101.144 205.629 101.264C205.261 101.384 204.845 101.444 204.381 101.444C203.805 101.444 203.265 101.356 202.761 101.18C202.265 101.012 201.825 100.78 201.441 100.484L201.873 99.776C202.305 100.088 202.725 100.316 203.133 100.46C203.549 100.596 203.953 100.664 204.345 100.664ZM212.102 92.528C212.678 92.528 213.186 92.604 213.626 92.756C214.074 92.9 214.478 93.112 214.838 93.392L214.406 94.052C214.014 93.772 213.642 93.58 213.29 93.476C212.938 93.372 212.542 93.32 212.102 93.32C211.702 93.32 211.346 93.396 211.034 93.548C210.73 93.692 210.474 93.9 210.266 94.172C210.058 94.436 209.898 94.756 209.786 95.132C209.682 95.5 209.63 95.912 209.63 96.368V97.472C209.63 98.544 209.854 99.34 210.302 99.86C210.758 100.38 211.386 100.64 212.186 100.64C212.73 100.64 213.19 100.556 213.566 100.388C213.95 100.212 214.282 100 214.562 99.752L215.054 100.412C214.734 100.7 214.346 100.944 213.89 101.144C213.434 101.344 212.862 101.444 212.174 101.444C211.054 101.444 210.206 101.096 209.63 100.4C209.062 99.704 208.778 98.728 208.778 97.472V96.404C208.778 95.172 209.066 94.22 209.642 93.548C210.226 92.868 211.046 92.528 212.102 92.528ZM217.813 94.976C217.765 94.872 217.721 94.784 217.681 94.712C217.641 94.632 217.605 94.552 217.573 94.472C217.541 94.392 217.509 94.308 217.477 94.22C217.445 94.124 217.413 94.012 217.381 93.884V101.312H216.553V92.66H217.585L220.513 98.996L223.453 92.66H224.449V101.312H223.621V93.884C223.597 94.012 223.569 94.124 223.537 94.22C223.513 94.308 223.485 94.392 223.453 94.472C223.421 94.552 223.385 94.632 223.345 94.712C223.305 94.784 223.261 94.872 223.213 94.976L220.897 99.872H220.105L217.813 94.976ZM226.515 100.4H227.571L226.707 103.1H226.011L226.515 100.4ZM229.253 100.46H230.465V101.66H229.253V100.46ZM232.194 100.46H233.406V101.66H232.194V100.46ZM235.135 100.46H236.347V101.66H235.135V100.46ZM239.157 97.112C239.157 96.144 239.029 95.22 238.773 94.34C238.525 93.452 238.105 92.608 237.513 91.808H238.281C238.881 92.52 239.325 93.324 239.613 94.22C239.901 95.116 240.045 96.1 240.045 97.172V97.652C240.045 98.724 239.901 99.712 239.613 100.616C239.325 101.52 238.881 102.328 238.281 103.04H237.513C238.129 102.192 238.557 101.32 238.797 100.424C239.037 99.528 239.157 98.624 239.157 97.712V97.112Z" fill="black"/>
<rect x="8" y="33" width="72" height="40" fill="white"/>
<path d="M17.1054 50.312V41.66H22.2414V42.404H17.9454V45.716H21.9894V46.46H17.9454V50.312H17.1054ZM27.9119 46.652V46.544C27.9119 45.864 27.7559 45.344 27.4439 44.984C27.1319 44.624 26.6919 44.444 26.1239 44.444C25.5479 44.444 25.0999 44.636 24.7799 45.02C24.4679 45.396 24.3119 45.904 24.3119 46.544V46.652H27.9119ZM28.5839 49.676C28.3279 49.86 28.0079 50.028 27.6239 50.18C27.2399 50.332 26.7759 50.408 26.2319 50.408C25.3679 50.408 24.6959 50.152 24.2159 49.64C23.7359 49.12 23.4959 48.388 23.4959 47.444V46.64C23.4959 45.72 23.7279 45.004 24.1919 44.492C24.6639 43.98 25.3079 43.724 26.1239 43.724C26.9719 43.724 27.6159 43.988 28.0559 44.516C28.5039 45.036 28.7279 45.752 28.7279 46.664V47.336H24.3119V47.444C24.3119 48.164 24.4839 48.72 24.8279 49.112C25.1719 49.496 25.6439 49.688 26.2439 49.688C26.6759 49.688 27.0559 49.624 27.3839 49.496C27.7119 49.368 27.9919 49.22 28.2239 49.052L28.5839 49.676ZM34.5004 49.46H34.4884C34.3044 49.788 34.0324 50.028 33.6724 50.18C33.3124 50.332 32.9444 50.408 32.5684 50.408C32.1924 50.408 31.8484 50.344 31.5364 50.216C31.2244 50.096 30.9524 49.92 30.7204 49.688C30.4884 49.448 30.3084 49.156 30.1804 48.812C30.0524 48.468 29.9884 48.076 29.9884 47.636V46.496C29.9884 46.056 30.0524 45.664 30.1804 45.32C30.3084 44.976 30.4844 44.688 30.7084 44.456C30.9404 44.216 31.2124 44.036 31.5244 43.916C31.8444 43.788 32.1884 43.724 32.5564 43.724C33.0364 43.724 33.4364 43.816 33.7564 44C34.0764 44.184 34.3204 44.396 34.4884 44.636V41.24H35.3044V50.312H34.5004V49.46ZM30.8044 47.516C30.8044 48.212 30.9684 48.748 31.2964 49.124C31.6244 49.5 32.0604 49.688 32.6044 49.688C32.8684 49.688 33.1124 49.656 33.3364 49.592C33.5684 49.52 33.7684 49.416 33.9364 49.28C34.1044 49.136 34.2364 48.96 34.3324 48.752C34.4364 48.536 34.4884 48.284 34.4884 47.996V46.052C34.4884 45.86 34.4404 45.672 34.3444 45.488C34.2564 45.296 34.1284 45.124 33.9604 44.972C33.7924 44.812 33.5924 44.684 33.3604 44.588C33.1284 44.492 32.8764 44.444 32.6044 44.444C32.0524 44.444 31.6124 44.636 31.2844 45.02C30.9644 45.396 30.8044 45.928 30.8044 46.616V47.516ZM41.3416 46.652V46.544C41.3416 45.864 41.1856 45.344 40.8736 44.984C40.5616 44.624 40.1216 44.444 39.5536 44.444C38.9776 44.444 38.5296 44.636 38.2096 45.02C37.8976 45.396 37.7416 45.904 37.7416 46.544V46.652H41.3416ZM42.0136 49.676C41.7576 49.86 41.4376 50.028 41.0536 50.18C40.6696 50.332 40.2056 50.408 39.6616 50.408C38.7976 50.408 38.1256 50.152 37.6456 49.64C37.1656 49.12 36.9256 48.388 36.9256 47.444V46.64C36.9256 45.72 37.1576 45.004 37.6216 44.492C38.0936 43.98 38.7376 43.724 39.5536 43.724C40.4016 43.724 41.0456 43.988 41.4856 44.516C41.9336 45.036 42.1576 45.752 42.1576 46.664V47.336H37.7416V47.444C37.7416 48.164 37.9136 48.72 38.2576 49.112C38.6016 49.496 39.0736 49.688 39.6736 49.688C40.1056 49.688 40.4856 49.624 40.8136 49.496C41.1416 49.368 41.4216 49.22 41.6536 49.052L42.0136 49.676ZM47.1007 44.684C46.8767 44.596 46.6167 44.552 46.3207 44.552C46.0567 44.552 45.8167 44.604 45.6007 44.708C45.3847 44.812 45.2007 44.956 45.0487 45.14C44.8967 45.324 44.7807 45.544 44.7007 45.8C44.6207 46.056 44.5807 46.336 44.5807 46.64V50.312H43.7647V43.844H44.5687V44.984C44.6407 44.832 44.7287 44.68 44.8327 44.528C44.9447 44.376 45.0767 44.24 45.2287 44.12C45.3887 44 45.5647 43.904 45.7567 43.832C45.9567 43.76 46.1807 43.724 46.4287 43.724C46.6127 43.724 46.7767 43.736 46.9207 43.76C47.0727 43.776 47.2167 43.808 47.3527 43.856L47.1007 44.684ZM50.1222 50.408C49.5062 50.408 49.0062 50.244 48.6222 49.916C48.2382 49.588 48.0462 49.136 48.0462 48.56V48.296C48.0462 47.768 48.2382 47.34 48.6222 47.012C49.0062 46.684 49.5742 46.52 50.3262 46.52H52.1502V45.92C52.1502 45.448 52.0182 45.088 51.7542 44.84C51.4982 44.584 51.1182 44.456 50.6142 44.456C50.2622 44.456 49.9262 44.52 49.6062 44.648C49.2862 44.768 48.9862 44.924 48.7062 45.116L48.3102 44.492C48.6142 44.284 48.9502 44.104 49.3182 43.952C49.6942 43.8 50.1302 43.724 50.6262 43.724C51.3542 43.724 51.9222 43.904 52.3302 44.264C52.7462 44.624 52.9542 45.132 52.9542 45.788V50.312H52.1622V49.52H52.1502C52.0862 49.624 51.9902 49.732 51.8622 49.844C51.7422 49.948 51.5982 50.044 51.4302 50.132C51.0622 50.316 50.6262 50.408 50.1222 50.408ZM52.1502 47.204H50.3382C49.8182 47.204 49.4422 47.308 49.2102 47.516C48.9782 47.724 48.8622 47.996 48.8622 48.332V48.524C48.8622 48.732 48.9022 48.912 48.9822 49.064C49.0622 49.208 49.1662 49.328 49.2942 49.424C49.4302 49.52 49.5782 49.592 49.7382 49.64C49.9062 49.68 50.0742 49.7 50.2422 49.7C50.4982 49.7 50.7302 49.668 50.9382 49.604C51.1462 49.54 51.3462 49.448 51.5382 49.328C51.7142 49.216 51.8582 49.08 51.9702 48.92C52.0902 48.752 52.1502 48.544 52.1502 48.296V47.204ZM55.2726 44.54H54.1686V43.844H55.2726V42.176H56.0886V43.844H57.8766V44.54H56.0886V48.476C56.0886 48.916 56.1566 49.224 56.2926 49.4C56.4366 49.576 56.6726 49.664 57.0006 49.664C57.3206 49.664 57.6246 49.624 57.9126 49.544L58.0326 50.216C57.9046 50.264 57.7326 50.3 57.5166 50.324C57.3086 50.356 57.1166 50.372 56.9406 50.372C56.6606 50.372 56.4126 50.34 56.1966 50.276C55.9886 50.212 55.8166 50.108 55.6806 49.964C55.5446 49.82 55.4406 49.632 55.3686 49.4C55.3046 49.16 55.2726 48.864 55.2726 48.512V44.54ZM63.5369 46.652V46.544C63.5369 45.864 63.3809 45.344 63.0689 44.984C62.7569 44.624 62.3169 44.444 61.7489 44.444C61.1729 44.444 60.7249 44.636 60.4049 45.02C60.0929 45.396 59.9369 45.904 59.9369 46.544V46.652H63.5369ZM64.2089 49.676C63.9529 49.86 63.6329 50.028 63.2489 50.18C62.8649 50.332 62.4009 50.408 61.8569 50.408C60.9929 50.408 60.3209 50.152 59.8409 49.64C59.3609 49.12 59.1209 48.388 59.1209 47.444V46.64C59.1209 45.72 59.3529 45.004 59.8169 44.492C60.2889 43.98 60.9329 43.724 61.7489 43.724C62.5969 43.724 63.2409 43.988 63.6809 44.516C64.1289 45.036 64.3529 45.752 64.3529 46.664V47.336H59.9369V47.444C59.9369 48.164 60.1089 48.72 60.4529 49.112C60.7969 49.496 61.2689 49.688 61.8689 49.688C62.3009 49.688 62.6809 49.624 63.0089 49.496C63.3369 49.368 63.6169 49.22 63.8489 49.052L64.2089 49.676ZM70.1254 49.46H70.1134C69.9294 49.788 69.6574 50.028 69.2974 50.18C68.9374 50.332 68.5694 50.408 68.1934 50.408C67.8174 50.408 67.4734 50.344 67.1614 50.216C66.8494 50.096 66.5774 49.92 66.3454 49.688C66.1134 49.448 65.9334 49.156 65.8054 48.812C65.6774 48.468 65.6134 48.076 65.6134 47.636V46.496C65.6134 46.056 65.6774 45.664 65.8054 45.32C65.9334 44.976 66.1094 44.688 66.3334 44.456C66.5654 44.216 66.8374 44.036 67.1494 43.916C67.4694 43.788 67.8134 43.724 68.1814 43.724C68.6614 43.724 69.0614 43.816 69.3814 44C69.7014 44.184 69.9454 44.396 70.1134 44.636V41.24H70.9294V50.312H70.1254V49.46ZM66.4294 47.516C66.4294 48.212 66.5934 48.748 66.9214 49.124C67.2494 49.5 67.6854 49.688 68.2294 49.688C68.4934 49.688 68.7374 49.656 68.9614 49.592C69.1934 49.52 69.3934 49.416 69.5614 49.28C69.7294 49.136 69.8614 48.96 69.9574 48.752C70.0614 48.536 70.1134 48.284 70.1134 47.996V46.052C70.1134 45.86 70.0654 45.672 69.9694 45.488C69.8814 45.296 69.7534 45.124 69.5854 44.972C69.4174 44.812 69.2174 44.684 68.9854 44.588C68.7534 44.492 68.5014 44.444 68.2294 44.444C67.6774 44.444 67.2374 44.636 66.9094 45.02C66.5894 45.396 66.4294 45.928 66.4294 46.616V47.516ZM46.2648 64.312H45.3648L44.4048 61.624H40.7448L39.7608 64.312H38.8968L42.1128 55.66H43.0608L46.2648 64.312ZM41.0088 60.892H44.1408L43.3008 58.552C43.2448 58.408 43.1928 58.268 43.1448 58.132C43.0968 57.996 43.0448 57.848 42.9888 57.688C42.9328 57.52 42.8728 57.336 42.8088 57.136C42.7448 56.928 42.6688 56.684 42.5808 56.404C42.5008 56.684 42.4288 56.928 42.3648 57.136C42.3008 57.336 42.2408 57.52 42.1848 57.688C42.1288 57.848 42.0768 57.996 42.0288 58.132C41.9808 58.268 41.9288 58.408 41.8728 58.552L41.0088 60.892ZM47.5273 55.66H48.3673V64.312H47.5273V55.66Z" fill="black"/>
<rect x="82" y="33" width="72" height="40" fill="white"/>
<path d="M109.464 41.66C110.56 41.66 111.416 41.98 112.032 42.62C112.656 43.252 112.968 44.168 112.968 45.368V46.604C112.968 47.804 112.656 48.724 112.032 49.364C111.416 49.996 110.56 50.312 109.464 50.312H106.764V41.66H109.464ZM107.604 49.568H109.476C109.86 49.568 110.216 49.508 110.544 49.388C110.872 49.268 111.152 49.084 111.384 48.836C111.616 48.58 111.796 48.264 111.924 47.888C112.06 47.512 112.128 47.064 112.128 46.544V45.428C112.128 44.916 112.06 44.472 111.924 44.096C111.796 43.712 111.616 43.396 111.384 43.148C111.152 42.892 110.872 42.704 110.544 42.584C110.216 42.464 109.86 42.404 109.476 42.404H107.604V49.568ZM116.495 50.408C115.879 50.408 115.379 50.244 114.995 49.916C114.611 49.588 114.419 49.136 114.419 48.56V48.296C114.419 47.768 114.611 47.34 114.995 47.012C115.379 46.684 115.947 46.52 116.699 46.52H118.523V45.92C118.523 45.448 118.391 45.088 118.127 44.84C117.871 44.584 117.491 44.456 116.987 44.456C116.635 44.456 116.299 44.52 115.979 44.648C115.659 44.768 115.359 44.924 115.079 45.116L114.683 44.492C114.987 44.284 115.323 44.104 115.691 43.952C116.067 43.8 116.503 43.724 116.999 43.724C117.727 43.724 118.295 43.904 118.703 44.264C119.119 44.624 119.327 45.132 119.327 45.788V50.312H118.535V49.52H118.523C118.459 49.624 118.363 49.732 118.235 49.844C118.115 49.948 117.971 50.044 117.803 50.132C117.435 50.316 116.999 50.408 116.495 50.408ZM118.523 47.204H116.711C116.191 47.204 115.815 47.308 115.583 47.516C115.351 47.724 115.235 47.996 115.235 48.332V48.524C115.235 48.732 115.275 48.912 115.355 49.064C115.435 49.208 115.539 49.328 115.667 49.424C115.803 49.52 115.951 49.592 116.111 49.64C116.279 49.68 116.447 49.7 116.615 49.7C116.871 49.7 117.103 49.668 117.311 49.604C117.519 49.54 117.719 49.448 117.911 49.328C118.087 49.216 118.231 49.08 118.343 48.92C118.463 48.752 118.523 48.544 118.523 48.296V47.204ZM121.646 44.54H120.542V43.844H121.646V42.176H122.462V43.844H124.25V44.54H122.462V48.476C122.462 48.916 122.53 49.224 122.666 49.4C122.81 49.576 123.046 49.664 123.374 49.664C123.694 49.664 123.998 49.624 124.286 49.544L124.406 50.216C124.278 50.264 124.106 50.3 123.89 50.324C123.682 50.356 123.49 50.372 123.314 50.372C123.034 50.372 122.786 50.34 122.57 50.276C122.362 50.212 122.19 50.108 122.054 49.964C121.918 49.82 121.814 49.632 121.742 49.4C121.678 49.16 121.646 48.864 121.646 48.512V44.54ZM127.546 50.408C126.93 50.408 126.43 50.244 126.046 49.916C125.662 49.588 125.47 49.136 125.47 48.56V48.296C125.47 47.768 125.662 47.34 126.046 47.012C126.43 46.684 126.998 46.52 127.75 46.52H129.574V45.92C129.574 45.448 129.442 45.088 129.178 44.84C128.922 44.584 128.542 44.456 128.038 44.456C127.686 44.456 127.35 44.52 127.03 44.648C126.71 44.768 126.41 44.924 126.13 45.116L125.734 44.492C126.038 44.284 126.374 44.104 126.742 43.952C127.118 43.8 127.554 43.724 128.05 43.724C128.778 43.724 129.346 43.904 129.754 44.264C130.17 44.624 130.378 45.132 130.378 45.788V50.312H129.586V49.52H129.574C129.51 49.624 129.414 49.732 129.286 49.844C129.166 49.948 129.022 50.044 128.854 50.132C128.486 50.316 128.05 50.408 127.546 50.408ZM129.574 47.204H127.762C127.242 47.204 126.866 47.308 126.634 47.516C126.402 47.724 126.286 47.996 126.286 48.332V48.524C126.286 48.732 126.326 48.912 126.406 49.064C126.486 49.208 126.59 49.328 126.718 49.424C126.854 49.52 127.002 49.592 127.162 49.64C127.33 49.68 127.498 49.7 127.666 49.7C127.922 49.7 128.154 49.668 128.362 49.604C128.57 49.54 128.77 49.448 128.962 49.328C129.138 49.216 129.282 49.08 129.394 48.92C129.514 48.752 129.574 48.544 129.574 48.296V47.204ZM103.749 64.312H102.849L101.889 61.624H98.2292L97.2452 64.312H96.3812L99.5972 55.66H100.545L103.749 64.312ZM98.4932 60.892H101.625L100.785 58.552C100.729 58.408 100.677 58.268 100.629 58.132C100.581 57.996 100.529 57.848 100.473 57.688C100.417 57.52 100.357 57.336 100.293 57.136C100.229 56.928 100.153 56.684 100.065 56.404C99.9852 56.684 99.9132 56.928 99.8492 57.136C99.7852 57.336 99.7252 57.52 99.6692 57.688C99.6132 57.848 99.5612 57.996 99.5132 58.132C99.4652 58.268 99.4132 58.408 99.3572 58.552L98.4932 60.892ZM107.76 57.724C108.504 57.724 109.076 57.928 109.476 58.336C109.884 58.736 110.088 59.276 110.088 59.956V64.312H109.272V60.16C109.272 59.928 109.248 59.712 109.2 59.512C109.152 59.304 109.064 59.124 108.936 58.972C108.816 58.812 108.648 58.688 108.432 58.6C108.224 58.512 107.96 58.468 107.64 58.468C107.368 58.468 107.116 58.52 106.884 58.624C106.66 58.72 106.468 58.848 106.308 59.008C106.148 59.168 106.02 59.344 105.924 59.536C105.836 59.728 105.792 59.92 105.792 60.112V64.312H104.976V57.844H105.78V58.744C105.852 58.624 105.948 58.504 106.068 58.384C106.188 58.256 106.332 58.144 106.5 58.048C106.668 57.952 106.856 57.876 107.064 57.82C107.272 57.756 107.504 57.724 107.76 57.724ZM113.712 64.408C113.096 64.408 112.596 64.244 112.212 63.916C111.828 63.588 111.636 63.136 111.636 62.56V62.296C111.636 61.768 111.828 61.34 112.212 61.012C112.596 60.684 113.164 60.52 113.916 60.52H115.74V59.92C115.74 59.448 115.608 59.088 115.344 58.84C115.088 58.584 114.708 58.456 114.204 58.456C113.852 58.456 113.516 58.52 113.196 58.648C112.876 58.768 112.576 58.924 112.296 59.116L111.9 58.492C112.204 58.284 112.54 58.104 112.908 57.952C113.284 57.8 113.72 57.724 114.216 57.724C114.944 57.724 115.512 57.904 115.92 58.264C116.336 58.624 116.544 59.132 116.544 59.788V64.312H115.752V63.52H115.74C115.676 63.624 115.58 63.732 115.452 63.844C115.332 63.948 115.188 64.044 115.02 64.132C114.652 64.316 114.216 64.408 113.712 64.408ZM115.74 61.204H113.928C113.408 61.204 113.032 61.308 112.8 61.516C112.568 61.724 112.452 61.996 112.452 62.332V62.524C112.452 62.732 112.492 62.912 112.572 63.064C112.652 63.208 112.756 63.328 112.884 63.424C113.02 63.52 113.168 63.592 113.328 63.64C113.496 63.68 113.664 63.7 113.832 63.7C114.088 63.7 114.32 63.668 114.528 63.604C114.736 63.54 114.936 63.448 115.128 63.328C115.304 63.216 115.448 63.08 115.56 62.92C115.68 62.752 115.74 62.544 115.74 62.296V61.204ZM118.358 55.24H119.174V64.312H118.358V55.24ZM121.173 57.844L123.177 63.4L125.145 57.844H125.985L122.625 66.988L121.929 66.736L122.757 64.42L120.333 57.844H121.173ZM129.2 63.676C129.728 63.676 130.128 63.572 130.4 63.364C130.672 63.156 130.808 62.912 130.808 62.632V62.512C130.808 62.184 130.672 61.936 130.4 61.768C130.136 61.6 129.692 61.456 129.068 61.336C128.74 61.272 128.444 61.196 128.18 61.108C127.916 61.02 127.692 60.908 127.508 60.772C127.324 60.636 127.18 60.476 127.076 60.292C126.972 60.1 126.92 59.872 126.92 59.608V59.44C126.92 59.208 126.968 58.988 127.064 58.78C127.16 58.572 127.304 58.392 127.496 58.24C127.688 58.08 127.928 57.956 128.216 57.868C128.512 57.772 128.86 57.724 129.26 57.724C129.756 57.724 130.184 57.788 130.544 57.916C130.904 58.036 131.216 58.196 131.48 58.396L131.108 59.008C130.836 58.824 130.56 58.684 130.28 58.588C130 58.492 129.652 58.444 129.236 58.444C128.748 58.444 128.376 58.544 128.12 58.744C127.864 58.936 127.736 59.172 127.736 59.452V59.584C127.736 59.864 127.876 60.084 128.156 60.244C128.444 60.404 128.844 60.532 129.355 60.628C130.156 60.78 130.732 60.996 131.084 61.276C131.444 61.556 131.624 61.956 131.624 62.476V62.656C131.624 62.912 131.564 63.148 131.444 63.364C131.324 63.58 131.156 63.768 130.94 63.928C130.732 64.08 130.484 64.196 130.196 64.276C129.908 64.364 129.592 64.408 129.248 64.408C128.72 64.408 128.248 64.336 127.832 64.192C127.424 64.056 127.068 63.876 126.764 63.652L127.16 63.004C127.456 63.204 127.772 63.368 128.108 63.496C128.452 63.616 128.816 63.676 129.2 63.676ZM133.125 57.844H133.941V64.312H133.125V57.844ZM133.089 55.696H133.977V56.608H133.089V55.696ZM137.953 63.676C138.481 63.676 138.881 63.572 139.153 63.364C139.425 63.156 139.561 62.912 139.561 62.632V62.512C139.561 62.184 139.425 61.936 139.153 61.768C138.889 61.6 138.445 61.456 137.821 61.336C137.493 61.272 137.197 61.196 136.933 61.108C136.669 61.02 136.445 60.908 136.261 60.772C136.077 60.636 135.933 60.476 135.829 60.292C135.725 60.1 135.673 59.872 135.673 59.608V59.44C135.673 59.208 135.721 58.988 135.817 58.78C135.913 58.572 136.057 58.392 136.249 58.24C136.441 58.08 136.681 57.956 136.969 57.868C137.265 57.772 137.613 57.724 138.013 57.724C138.509 57.724 138.937 57.788 139.297 57.916C139.657 58.036 139.969 58.196 140.233 58.396L139.861 59.008C139.589 58.824 139.313 58.684 139.033 58.588C138.753 58.492 138.405 58.444 137.989 58.444C137.501 58.444 137.129 58.544 136.873 58.744C136.617 58.936 136.489 59.172 136.489 59.452V59.584C136.489 59.864 136.629 60.084 136.909 60.244C137.197 60.404 137.597 60.532 138.109 60.628C138.909 60.78 139.485 60.996 139.837 61.276C140.197 61.556 140.377 61.956 140.377 62.476V62.656C140.377 62.912 140.317 63.148 140.197 63.364C140.077 63.58 139.909 63.768 139.693 63.928C139.485 64.08 139.237 64.196 138.949 64.276C138.661 64.364 138.345 64.408 138.001 64.408C137.473 64.408 137.001 64.336 136.585 64.192C136.177 64.056 135.821 63.876 135.517 63.652L135.913 63.004C136.209 63.204 136.525 63.368 136.861 63.496C137.205 63.616 137.569 63.676 137.953 63.676Z" fill="black"/>
<rect x="156" y="33" width="72" height="40" fill="white"/>
<path d="M161.56 43.976C161.512 43.872 161.468 43.784 161.428 43.712C161.388 43.632 161.352 43.552 161.32 43.472C161.288 43.392 161.256 43.308 161.224 43.22C161.192 43.124 161.16 43.012 161.128 42.884V50.312H160.3V41.66H161.332L164.26 47.996L167.2 41.66H168.196V50.312H167.368V42.884C167.344 43.012 167.316 43.124 167.284 43.22C167.26 43.308 167.232 43.392 167.2 43.472C167.168 43.552 167.132 43.632 167.092 43.712C167.052 43.784 167.008 43.872 166.96 43.976L164.644 48.872H163.852L161.56 43.976ZM171.187 50.408C170.571 50.408 170.071 50.244 169.687 49.916C169.303 49.588 169.111 49.136 169.111 48.56V48.296C169.111 47.768 169.303 47.34 169.687 47.012C170.071 46.684 170.639 46.52 171.391 46.52H173.215V45.92C173.215 45.448 173.083 45.088 172.819 44.84C172.563 44.584 172.183 44.456 171.679 44.456C171.327 44.456 170.991 44.52 170.671 44.648C170.351 44.768 170.051 44.924 169.771 45.116L169.375 44.492C169.679 44.284 170.015 44.104 170.383 43.952C170.759 43.8 171.195 43.724 171.691 43.724C172.419 43.724 172.987 43.904 173.395 44.264C173.811 44.624 174.019 45.132 174.019 45.788V50.312H173.227V49.52H173.215C173.151 49.624 173.055 49.732 172.927 49.844C172.807 49.948 172.663 50.044 172.495 50.132C172.127 50.316 171.691 50.408 171.187 50.408ZM173.215 47.204H171.403C170.883 47.204 170.507 47.308 170.275 47.516C170.043 47.724 169.927 47.996 169.927 48.332V48.524C169.927 48.732 169.967 48.912 170.047 49.064C170.127 49.208 170.231 49.328 170.359 49.424C170.495 49.52 170.643 49.592 170.803 49.64C170.971 49.68 171.139 49.7 171.307 49.7C171.563 49.7 171.795 49.668 172.003 49.604C172.211 49.54 172.411 49.448 172.603 49.328C172.779 49.216 172.923 49.08 173.035 48.92C173.155 48.752 173.215 48.544 173.215 48.296V47.204ZM177.898 43.724C178.642 43.724 179.214 43.928 179.614 44.336C180.022 44.736 180.226 45.276 180.226 45.956V50.312H179.41V46.16C179.41 45.928 179.386 45.712 179.338 45.512C179.29 45.304 179.202 45.124 179.074 44.972C178.954 44.812 178.786 44.688 178.57 44.6C178.362 44.512 178.098 44.468 177.778 44.468C177.506 44.468 177.254 44.52 177.022 44.624C176.798 44.72 176.606 44.848 176.446 45.008C176.286 45.168 176.158 45.344 176.062 45.536C175.974 45.728 175.93 45.92 175.93 46.112V50.312H175.114V43.844H175.918V44.744C175.99 44.624 176.086 44.504 176.206 44.384C176.326 44.256 176.47 44.144 176.638 44.048C176.806 43.952 176.994 43.876 177.202 43.82C177.41 43.756 177.642 43.724 177.898 43.724ZM183.13 50.408C182.514 50.408 182.014 50.244 181.63 49.916C181.246 49.588 181.054 49.136 181.054 48.56V48.296C181.054 47.768 181.246 47.34 181.63 47.012C182.014 46.684 182.582 46.52 183.334 46.52H185.158V45.92C185.158 45.448 185.026 45.088 184.762 44.84C184.506 44.584 184.126 44.456 183.622 44.456C183.27 44.456 182.934 44.52 182.614 44.648C182.294 44.768 181.994 44.924 181.714 45.116L181.318 44.492C181.622 44.284 181.958 44.104 182.326 43.952C182.702 43.8 183.138 43.724 183.634 43.724C184.362 43.724 184.93 43.904 185.338 44.264C185.754 44.624 185.962 45.132 185.962 45.788V50.312H185.17V49.52H185.158C185.094 49.624 184.998 49.732 184.87 49.844C184.75 49.948 184.606 50.044 184.438 50.132C184.07 50.316 183.634 50.408 183.13 50.408ZM185.158 47.204H183.346C182.826 47.204 182.45 47.308 182.218 47.516C181.986 47.724 181.87 47.996 181.87 48.332V48.524C181.87 48.732 181.91 48.912 181.99 49.064C182.07 49.208 182.174 49.328 182.302 49.424C182.438 49.52 182.586 49.592 182.746 49.64C182.914 49.68 183.082 49.7 183.25 49.7C183.506 49.7 183.738 49.668 183.946 49.604C184.154 49.54 184.354 49.448 184.546 49.328C184.722 49.216 184.866 49.08 184.978 48.92C185.098 48.752 185.158 48.544 185.158 48.296V47.204ZM191.256 49.34H191.244C191.06 49.668 190.788 49.908 190.428 50.06C190.076 50.212 189.712 50.288 189.336 50.288C188.96 50.288 188.616 50.224 188.304 50.096C187.992 49.976 187.72 49.8 187.488 49.568C187.256 49.328 187.076 49.036 186.948 48.692C186.82 48.348 186.756 47.956 186.756 47.516V46.496C186.756 46.056 186.82 45.664 186.948 45.32C187.076 44.976 187.252 44.688 187.476 44.456C187.708 44.216 187.98 44.036 188.292 43.916C188.612 43.788 188.956 43.724 189.324 43.724C189.804 43.724 190.204 43.816 190.524 44C190.852 44.184 191.1 44.396 191.268 44.636V43.844H192.072V50.204C192.072 51.124 191.832 51.816 191.352 52.28C190.88 52.752 190.24 52.988 189.432 52.988C188.976 52.988 188.568 52.928 188.208 52.808C187.856 52.688 187.544 52.524 187.272 52.316L187.644 51.68C187.796 51.784 187.94 51.868 188.076 51.932C188.212 52.004 188.348 52.06 188.484 52.1C188.628 52.148 188.776 52.18 188.928 52.196C189.08 52.212 189.248 52.22 189.432 52.22C190.032 52.22 190.484 52.056 190.788 51.728C191.1 51.408 191.256 50.908 191.256 50.228V49.34ZM187.572 47.396C187.572 48.092 187.736 48.628 188.064 49.004C188.392 49.38 188.828 49.568 189.372 49.568C189.636 49.568 189.88 49.536 190.104 49.472C190.336 49.4 190.536 49.296 190.704 49.16C190.872 49.016 191.004 48.84 191.1 48.632C191.204 48.416 191.256 48.164 191.256 47.876V46.052C191.256 45.86 191.208 45.672 191.112 45.488C191.024 45.296 190.896 45.124 190.728 44.972C190.56 44.812 190.36 44.684 190.128 44.588C189.896 44.492 189.644 44.444 189.372 44.444C188.82 44.444 188.38 44.636 188.052 45.02C187.732 45.396 187.572 45.928 187.572 46.616V47.396ZM197.402 46.652V46.544C197.402 45.864 197.246 45.344 196.934 44.984C196.622 44.624 196.182 44.444 195.614 44.444C195.038 44.444 194.59 44.636 194.27 45.02C193.958 45.396 193.802 45.904 193.802 46.544V46.652H197.402ZM198.074 49.676C197.818 49.86 197.498 50.028 197.114 50.18C196.73 50.332 196.266 50.408 195.722 50.408C194.858 50.408 194.186 50.152 193.706 49.64C193.226 49.12 192.986 48.388 192.986 47.444V46.64C192.986 45.72 193.218 45.004 193.682 44.492C194.154 43.98 194.798 43.724 195.614 43.724C196.462 43.724 197.106 43.988 197.546 44.516C197.994 45.036 198.218 45.752 198.218 46.664V47.336H193.802V47.444C193.802 48.164 193.974 48.72 194.318 49.112C194.662 49.496 195.134 49.688 195.734 49.688C196.166 49.688 196.546 49.624 196.874 49.496C197.202 49.368 197.482 49.22 197.714 49.052L198.074 49.676ZM205.645 43.724C206.381 43.724 206.917 43.924 207.253 44.324C207.597 44.724 207.769 45.268 207.769 45.956V50.312H206.953V46.172C206.953 45.908 206.929 45.672 206.881 45.464C206.841 45.256 206.765 45.08 206.653 44.936C206.549 44.784 206.401 44.668 206.209 44.588C206.025 44.508 205.789 44.468 205.501 44.468C205.237 44.468 205.005 44.516 204.805 44.612C204.605 44.708 204.433 44.832 204.289 44.984C204.153 45.136 204.045 45.308 203.965 45.5C203.893 45.692 203.853 45.88 203.845 46.064V50.312H203.029V46.172C203.029 45.908 203.005 45.672 202.957 45.464C202.917 45.256 202.841 45.08 202.729 44.936C202.625 44.784 202.477 44.668 202.285 44.588C202.101 44.508 201.865 44.468 201.577 44.468C201.313 44.468 201.077 44.52 200.869 44.624C200.661 44.72 200.485 44.848 200.341 45.008C200.205 45.168 200.101 45.344 200.029 45.536C199.957 45.728 199.921 45.92 199.921 46.112V50.312H199.105V43.844H199.909V44.744C199.981 44.616 200.069 44.492 200.173 44.372C200.285 44.244 200.417 44.132 200.569 44.036C200.721 43.94 200.889 43.864 201.073 43.808C201.265 43.752 201.481 43.724 201.721 43.724C202.241 43.724 202.661 43.828 202.981 44.036C203.301 44.236 203.533 44.524 203.677 44.9C203.749 44.764 203.841 44.628 203.953 44.492C204.073 44.348 204.213 44.22 204.373 44.108C204.541 43.996 204.729 43.904 204.937 43.832C205.153 43.76 205.389 43.724 205.645 43.724ZM213.036 46.652V46.544C213.036 45.864 212.88 45.344 212.568 44.984C212.256 44.624 211.816 44.444 211.248 44.444C210.672 44.444 210.224 44.636 209.904 45.02C209.592 45.396 209.436 45.904 209.436 46.544V46.652H213.036ZM213.708 49.676C213.452 49.86 213.132 50.028 212.748 50.18C212.364 50.332 211.9 50.408 211.356 50.408C210.492 50.408 209.82 50.152 209.34 49.64C208.86 49.12 208.62 48.388 208.62 47.444V46.64C208.62 45.72 208.852 45.004 209.316 44.492C209.788 43.98 210.432 43.724 211.248 43.724C212.096 43.724 212.74 43.988 213.18 44.516C213.628 45.036 213.852 45.752 213.852 46.664V47.336H209.436V47.444C209.436 48.164 209.608 48.72 209.952 49.112C210.296 49.496 210.768 49.688 211.368 49.688C211.8 49.688 212.18 49.624 212.508 49.496C212.836 49.368 213.116 49.22 213.348 49.052L213.708 49.676ZM217.523 43.724C218.267 43.724 218.839 43.928 219.239 44.336C219.647 44.736 219.851 45.276 219.851 45.956V50.312H219.035V46.16C219.035 45.928 219.011 45.712 218.963 45.512C218.915 45.304 218.827 45.124 218.699 44.972C218.579 44.812 218.411 44.688 218.195 44.6C217.987 44.512 217.723 44.468 217.403 44.468C217.131 44.468 216.879 44.52 216.647 44.624C216.423 44.72 216.231 44.848 216.071 45.008C215.911 45.168 215.783 45.344 215.687 45.536C215.599 45.728 215.555 45.92 215.555 46.112V50.312H214.739V43.844H215.543V44.744C215.615 44.624 215.711 44.504 215.831 44.384C215.951 44.256 216.095 44.144 216.263 44.048C216.431 43.952 216.619 43.876 216.827 43.82C217.035 43.756 217.267 43.724 217.523 43.724ZM221.507 44.54H220.403V43.844H221.507V42.176H222.323V43.844H224.111V44.54H222.323V48.476C222.323 48.916 222.391 49.224 222.527 49.4C222.671 49.576 222.907 49.664 223.235 49.664C223.555 49.664 223.859 49.624 224.147 49.544L224.267 50.216C224.139 50.264 223.967 50.3 223.751 50.324C223.543 50.356 223.351 50.372 223.175 50.372C222.895 50.372 222.647 50.34 222.431 50.276C222.223 50.212 222.051 50.108 221.915 49.964C221.779 49.82 221.675 49.632 221.603 49.4C221.539 49.16 221.507 48.864 221.507 48.512V44.54ZM176.922 63.664C177.258 63.664 177.558 63.624 177.822 63.544C178.094 63.464 178.322 63.356 178.506 63.22C178.698 63.076 178.842 62.916 178.938 62.74C179.034 62.556 179.082 62.368 179.082 62.176V61.924C179.082 61.724 179.05 61.544 178.986 61.384C178.922 61.224 178.806 61.08 178.638 60.952C178.47 60.816 178.238 60.696 177.942 60.592C177.654 60.48 177.278 60.372 176.814 60.268C176.31 60.156 175.886 60.028 175.542 59.884C175.206 59.732 174.934 59.564 174.726 59.38C174.526 59.188 174.382 58.98 174.294 58.756C174.214 58.524 174.174 58.272 174.174 58V57.724C174.174 57.396 174.242 57.1 174.378 56.836C174.522 56.564 174.718 56.332 174.966 56.14C175.222 55.948 175.522 55.8 175.866 55.696C176.218 55.584 176.598 55.528 177.006 55.528C177.59 55.528 178.09 55.6 178.506 55.744C178.922 55.88 179.278 56.052 179.574 56.26L179.178 56.944C178.898 56.744 178.578 56.588 178.218 56.476C177.858 56.356 177.454 56.296 177.006 56.296C176.742 56.296 176.49 56.328 176.25 56.392C176.01 56.456 175.798 56.552 175.614 56.68C175.438 56.8 175.294 56.948 175.182 57.124C175.078 57.3 175.026 57.5 175.026 57.724V57.964C175.026 58.148 175.058 58.316 175.122 58.468C175.194 58.62 175.306 58.756 175.458 58.876C175.618 58.996 175.83 59.108 176.094 59.212C176.358 59.316 176.686 59.412 177.078 59.5C177.638 59.628 178.102 59.768 178.47 59.92C178.838 60.064 179.13 60.232 179.346 60.424C179.562 60.616 179.714 60.832 179.802 61.072C179.89 61.312 179.934 61.588 179.934 61.9V62.176C179.934 62.488 179.866 62.78 179.73 63.052C179.594 63.324 179.398 63.564 179.142 63.772C178.894 63.98 178.582 64.144 178.206 64.264C177.838 64.384 177.422 64.444 176.958 64.444C176.382 64.444 175.842 64.356 175.338 64.18C174.842 64.012 174.402 63.78 174.018 63.484L174.45 62.776C174.882 63.088 175.302 63.316 175.71 63.46C176.126 63.596 176.53 63.664 176.922 63.664ZM180.899 57.844L182.903 63.4L184.871 57.844H185.711L182.351 66.988L181.655 66.736L182.483 64.42L180.059 57.844H180.899ZM188.206 63.676C188.734 63.676 189.134 63.572 189.406 63.364C189.678 63.156 189.814 62.912 189.814 62.632V62.512C189.814 62.184 189.678 61.936 189.406 61.768C189.142 61.6 188.698 61.456 188.074 61.336C187.746 61.272 187.45 61.196 187.186 61.108C186.922 61.02 186.698 60.908 186.514 60.772C186.33 60.636 186.186 60.476 186.082 60.292C185.978 60.1 185.926 59.872 185.926 59.608V59.44C185.926 59.208 185.974 58.988 186.07 58.78C186.166 58.572 186.31 58.392 186.502 58.24C186.694 58.08 186.934 57.956 187.222 57.868C187.518 57.772 187.866 57.724 188.266 57.724C188.762 57.724 189.19 57.788 189.55 57.916C189.91 58.036 190.222 58.196 190.486 58.396L190.114 59.008C189.842 58.824 189.566 58.684 189.286 58.588C189.006 58.492 188.658 58.444 188.242 58.444C187.754 58.444 187.382 58.544 187.126 58.744C186.87 58.936 186.742 59.172 186.742 59.452V59.584C186.742 59.864 186.882 60.084 187.162 60.244C187.45 60.404 187.85 60.532 188.362 60.628C189.162 60.78 189.738 60.996 190.09 61.276C190.45 61.556 190.63 61.956 190.63 62.476V62.656C190.63 62.912 190.57 63.148 190.45 63.364C190.33 63.58 190.162 63.768 189.946 63.928C189.738 64.08 189.49 64.196 189.202 64.276C188.914 64.364 188.598 64.408 188.254 64.408C187.726 64.408 187.254 64.336 186.838 64.192C186.43 64.056 186.074 63.876 185.77 63.652L186.166 63.004C186.462 63.204 186.778 63.368 187.114 63.496C187.458 63.616 187.822 63.676 188.206 63.676ZM191.879 58.54H190.775V57.844H191.879V56.176H192.695V57.844H194.483V58.54H192.695V62.476C192.695 62.916 192.763 63.224 192.899 63.4C193.043 63.576 193.279 63.664 193.607 63.664C193.927 63.664 194.231 63.624 194.519 63.544L194.639 64.216C194.511 64.264 194.339 64.3 194.123 64.324C193.915 64.356 193.723 64.372 193.547 64.372C193.267 64.372 193.019 64.34 192.803 64.276C192.595 64.212 192.423 64.108 192.287 63.964C192.151 63.82 192.047 63.632 191.975 63.4C191.911 63.16 191.879 62.864 191.879 62.512V58.54ZM199.424 60.652V60.544C199.424 59.864 199.268 59.344 198.956 58.984C198.644 58.624 198.204 58.444 197.636 58.444C197.06 58.444 196.612 58.636 196.292 59.02C195.98 59.396 195.824 59.904 195.824 60.544V60.652H199.424ZM200.096 63.676C199.84 63.86 199.52 64.028 199.136 64.18C198.752 64.332 198.288 64.408 197.744 64.408C196.88 64.408 196.208 64.152 195.728 63.64C195.248 63.12 195.008 62.388 195.008 61.444V60.64C195.008 59.72 195.24 59.004 195.704 58.492C196.176 57.98 196.82 57.724 197.636 57.724C198.484 57.724 199.128 57.988 199.568 58.516C200.016 59.036 200.24 59.752 200.24 60.664V61.336H195.824V61.444C195.824 62.164 195.996 62.72 196.34 63.112C196.684 63.496 197.156 63.688 197.756 63.688C198.188 63.688 198.568 63.624 198.896 63.496C199.224 63.368 199.504 63.22 199.736 63.052L200.096 63.676ZM207.667 57.724C208.403 57.724 208.939 57.924 209.275 58.324C209.619 58.724 209.791 59.268 209.791 59.956V64.312H208.975V60.172C208.975 59.908 208.951 59.672 208.903 59.464C208.863 59.256 208.787 59.08 208.675 58.936C208.571 58.784 208.423 58.668 208.231 58.588C208.047 58.508 207.811 58.468 207.523 58.468C207.259 58.468 207.027 58.516 206.827 58.612C206.627 58.708 206.455 58.832 206.311 58.984C206.175 59.136 206.067 59.308 205.987 59.5C205.915 59.692 205.875 59.88 205.867 60.064V64.312H205.051V60.172C205.051 59.908 205.027 59.672 204.979 59.464C204.939 59.256 204.863 59.08 204.751 58.936C204.647 58.784 204.499 58.668 204.307 58.588C204.123 58.508 203.887 58.468 203.599 58.468C203.335 58.468 203.099 58.52 202.891 58.624C202.683 58.72 202.507 58.848 202.363 59.008C202.227 59.168 202.123 59.344 202.051 59.536C201.979 59.728 201.943 59.92 201.943 60.112V64.312H201.127V57.844H201.931V58.744C202.003 58.616 202.091 58.492 202.195 58.372C202.307 58.244 202.439 58.132 202.591 58.036C202.743 57.94 202.911 57.864 203.095 57.808C203.287 57.752 203.503 57.724 203.743 57.724C204.263 57.724 204.683 57.828 205.003 58.036C205.323 58.236 205.555 58.524 205.699 58.9C205.771 58.764 205.863 58.628 205.975 58.492C206.095 58.348 206.235 58.22 206.395 58.108C206.563 57.996 206.751 57.904 206.959 57.832C207.175 57.76 207.411 57.724 207.667 57.724Z" fill="black"/>
<rect x="230" y="33" width="72" height="40" fill="white"/>
<path d="M238.381 48.66H241.141C242.973 48.66 243.889 49.364 243.889 50.772V51.024C243.889 51.216 243.865 51.404 243.817 51.588C243.769 51.764 243.689 51.928 243.577 52.08C243.473 52.232 243.329 52.368 243.145 52.488C242.969 52.6 242.753 52.688 242.497 52.752C243.025 52.832 243.453 53.032 243.781 53.352C244.117 53.672 244.285 54.132 244.285 54.732V55.032C244.285 55.744 244.057 56.304 243.601 56.712C243.153 57.112 242.457 57.312 241.513 57.312H238.381V48.66ZM239.209 56.568H241.441C242.121 56.568 242.621 56.44 242.941 56.184C243.269 55.92 243.433 55.532 243.433 55.02V54.756C243.433 54.492 243.397 54.26 243.325 54.06C243.253 53.86 243.129 53.692 242.953 53.556C242.777 53.42 242.545 53.32 242.257 53.256C241.969 53.184 241.609 53.148 241.177 53.148H239.209V56.568ZM239.209 49.392V52.44H241.165C241.765 52.44 242.229 52.336 242.557 52.128C242.885 51.92 243.049 51.544 243.049 51V50.784C243.049 50.272 242.889 49.912 242.569 49.704C242.257 49.496 241.761 49.392 241.081 49.392H239.209ZM245.728 48.24H246.544V57.312H245.728V48.24ZM250.906 50.724C251.778 50.724 252.454 50.98 252.934 51.492C253.414 52.004 253.654 52.728 253.654 53.664V54.468C253.654 55.404 253.414 56.128 252.934 56.64C252.454 57.152 251.778 57.408 250.906 57.408C250.034 57.408 249.358 57.152 248.878 56.64C248.398 56.128 248.158 55.404 248.158 54.468V53.664C248.158 52.72 248.398 51.996 248.878 51.492C249.358 50.98 250.034 50.724 250.906 50.724ZM250.906 56.688C251.506 56.688 251.974 56.504 252.31 56.136C252.654 55.76 252.826 55.188 252.826 54.42V53.712C252.826 52.944 252.654 52.376 252.31 52.008C251.974 51.632 251.506 51.444 250.906 51.444C250.306 51.444 249.834 51.632 249.49 52.008C249.154 52.376 248.986 52.944 248.986 53.712V54.42C248.986 55.188 249.154 55.76 249.49 56.136C249.834 56.504 250.306 56.688 250.906 56.688ZM257.596 50.724C258.052 50.724 258.452 50.78 258.796 50.892C259.14 50.996 259.448 51.152 259.72 51.36L259.348 51.996C259.044 51.788 258.752 51.648 258.472 51.576C258.192 51.496 257.9 51.456 257.596 51.456C257.02 51.456 256.568 51.648 256.24 52.032C255.912 52.408 255.748 52.936 255.748 53.616V54.444C255.748 55.156 255.916 55.704 256.252 56.088C256.588 56.472 257.044 56.664 257.62 56.664C258.068 56.664 258.436 56.604 258.724 56.484C259.02 56.356 259.284 56.204 259.516 56.028L259.9 56.676C259.78 56.764 259.648 56.852 259.504 56.94C259.36 57.028 259.196 57.104 259.012 57.168C258.828 57.24 258.62 57.296 258.388 57.336C258.156 57.384 257.896 57.408 257.608 57.408C256.76 57.408 256.1 57.152 255.628 56.64C255.156 56.12 254.92 55.388 254.92 54.444V53.64C254.92 53.168 254.984 52.752 255.112 52.392C255.248 52.024 255.432 51.72 255.664 51.48C255.896 51.232 256.176 51.044 256.504 50.916C256.832 50.788 257.196 50.724 257.596 50.724ZM263.585 53.328L266.405 57.312H265.409L263.009 53.868L261.965 54.876V57.312H261.149V48.24H261.965V53.904L265.085 50.844H266.177L263.585 53.328ZM269.842 50.724C270.298 50.724 270.698 50.78 271.042 50.892C271.386 50.996 271.694 51.152 271.966 51.36L271.594 51.996C271.29 51.788 270.998 51.648 270.718 51.576C270.438 51.496 270.146 51.456 269.842 51.456C269.266 51.456 268.814 51.648 268.486 52.032C268.158 52.408 267.994 52.936 267.994 53.616V54.444C267.994 55.156 268.162 55.704 268.498 56.088C268.834 56.472 269.29 56.664 269.866 56.664C270.314 56.664 270.682 56.604 270.97 56.484C271.266 56.356 271.53 56.204 271.762 56.028L272.146 56.676C272.026 56.764 271.894 56.852 271.75 56.94C271.606 57.028 271.442 57.104 271.258 57.168C271.074 57.24 270.866 57.296 270.634 57.336C270.402 57.384 270.142 57.408 269.854 57.408C269.006 57.408 268.346 57.152 267.874 56.64C267.402 56.12 267.166 55.388 267.166 54.444V53.64C267.166 53.168 267.23 52.752 267.358 52.392C267.494 52.024 267.678 51.72 267.91 51.48C268.142 51.232 268.422 51.044 268.75 50.916C269.078 50.788 269.442 50.724 269.842 50.724ZM276.18 50.724C276.924 50.724 277.496 50.928 277.896 51.336C278.304 51.736 278.508 52.276 278.508 52.956V57.312H277.692V53.16C277.692 52.928 277.668 52.712 277.62 52.512C277.572 52.304 277.484 52.124 277.356 51.972C277.236 51.812 277.068 51.688 276.852 51.6C276.644 51.512 276.38 51.468 276.06 51.468C275.788 51.468 275.536 51.52 275.304 51.624C275.08 51.72 274.888 51.848 274.728 52.008C274.568 52.168 274.44 52.344 274.344 52.536C274.256 52.728 274.212 52.92 274.212 53.112V57.312H273.396V48.24H274.212V51.744C274.284 51.624 274.38 51.504 274.5 51.384C274.62 51.256 274.76 51.144 274.92 51.048C275.088 50.952 275.276 50.876 275.484 50.82C275.692 50.756 275.924 50.724 276.18 50.724ZM282.132 57.408C281.516 57.408 281.016 57.244 280.632 56.916C280.248 56.588 280.056 56.136 280.056 55.56V55.296C280.056 54.768 280.248 54.34 280.632 54.012C281.016 53.684 281.584 53.52 282.336 53.52H284.16V52.92C284.16 52.448 284.028 52.088 283.764 51.84C283.508 51.584 283.128 51.456 282.624 51.456C282.272 51.456 281.936 51.52 281.616 51.648C281.296 51.768 280.996 51.924 280.716 52.116L280.32 51.492C280.624 51.284 280.96 51.104 281.328 50.952C281.704 50.8 282.14 50.724 282.636 50.724C283.364 50.724 283.932 50.904 284.34 51.264C284.756 51.624 284.964 52.132 284.964 52.788V57.312H284.172V56.52H284.16C284.096 56.624 284 56.732 283.872 56.844C283.752 56.948 283.608 57.044 283.44 57.132C283.072 57.316 282.636 57.408 282.132 57.408ZM284.16 54.204H282.348C281.828 54.204 281.452 54.308 281.22 54.516C280.988 54.724 280.872 54.996 280.872 55.332V55.524C280.872 55.732 280.912 55.912 280.992 56.064C281.072 56.208 281.176 56.328 281.304 56.424C281.44 56.52 281.588 56.592 281.748 56.64C281.916 56.68 282.084 56.7 282.252 56.7C282.508 56.7 282.74 56.668 282.948 56.604C283.156 56.54 283.356 56.448 283.548 56.328C283.724 56.216 283.868 56.08 283.98 55.92C284.1 55.752 284.16 55.544 284.16 55.296V54.204ZM286.814 50.844H287.63V57.312H286.814V50.844ZM286.778 48.696H287.666V49.608H286.778V48.696ZM292.375 50.724C293.119 50.724 293.691 50.928 294.091 51.336C294.499 51.736 294.703 52.276 294.703 52.956V57.312H293.887V53.16C293.887 52.928 293.863 52.712 293.815 52.512C293.767 52.304 293.679 52.124 293.551 51.972C293.431 51.812 293.263 51.688 293.047 51.6C292.839 51.512 292.575 51.468 292.255 51.468C291.983 51.468 291.731 51.52 291.499 51.624C291.275 51.72 291.083 51.848 290.923 52.008C290.763 52.168 290.635 52.344 290.539 52.536C290.451 52.728 290.407 52.92 290.407 53.112V57.312H289.591V50.844H290.395V51.744C290.467 51.624 290.563 51.504 290.683 51.384C290.803 51.256 290.947 51.144 291.115 51.048C291.283 50.952 291.471 50.876 291.679 50.82C291.887 50.756 292.119 50.724 292.375 50.724Z" fill="black"/>
<path d="M16.2333 20.285C15.7653 20.7357 15.254 21.0477 14.6993 21.221C14.1447 21.3943 13.551 21.481 12.9183 21.481C12.355 21.481 11.8437 21.3943 11.3843 21.221C10.925 21.0563 10.5307 20.8007 10.2013 20.454C9.87201 20.1073 9.61635 19.6783 9.43435 19.167C9.25235 18.6557 9.16135 18.0533 9.16135 17.36V15.943C9.16135 15.2583 9.25235 14.6603 9.43435 14.149C9.61635 13.6377 9.87201 13.2087 10.2013 12.862C10.5393 12.5153 10.938 12.2553 11.3973 12.082C11.8567 11.9087 12.3637 11.822 12.9183 11.822C13.5683 11.822 14.136 11.9043 14.6213 12.069C15.1067 12.225 15.5703 12.4763 16.0123 12.823L15.3493 13.876C14.9247 13.5293 14.5173 13.2997 14.1273 13.187C13.746 13.0743 13.343 13.018 12.9183 13.018C12.563 13.018 12.2337 13.0787 11.9303 13.2C11.6357 13.3213 11.3757 13.5077 11.1503 13.759C10.9337 14.0103 10.7647 14.331 10.6433 14.721C10.522 15.111 10.4613 15.5747 10.4613 16.112V17.191C10.4613 17.7283 10.522 18.192 10.6433 18.582C10.7647 18.972 10.9337 19.2927 11.1503 19.544C11.3757 19.7953 11.6357 19.9817 11.9303 20.103C12.2337 20.2243 12.563 20.285 12.9183 20.285C13.369 20.285 13.8197 20.2157 14.2703 20.077C14.721 19.9383 15.1413 19.6783 15.5313 19.297L16.2333 20.285ZM20.4426 14.097C21.4219 14.097 22.1933 14.3787 22.7566 14.942C23.3286 15.5053 23.6146 16.3027 23.6146 17.334V18.205C23.6146 19.2363 23.3286 20.0337 22.7566 20.597C22.1933 21.1603 21.4219 21.442 20.4426 21.442C19.4633 21.442 18.6876 21.1603 18.1156 20.597C17.5523 20.0337 17.2706 19.2363 17.2706 18.205V17.334C17.2706 16.294 17.5523 15.4967 18.1156 14.942C18.6876 14.3787 19.4633 14.097 20.4426 14.097ZM20.4426 20.337C21.0059 20.337 21.4609 20.155 21.8076 19.791C22.1629 19.4183 22.3406 18.855 22.3406 18.101V17.438C22.3406 16.684 22.1629 16.125 21.8076 15.761C21.4609 15.3883 21.0059 15.202 20.4426 15.202C19.8793 15.202 19.4199 15.3883 19.0646 15.761C18.7179 16.125 18.5446 16.684 18.5446 17.438V18.101C18.5446 18.855 18.7179 19.4183 19.0646 19.791C19.4199 20.155 19.8793 20.337 20.4426 20.337ZM35.0402 21.338H33.7792V17.074C33.7792 15.852 33.3329 15.241 32.4402 15.241C32.2409 15.241 32.0415 15.2757 31.8422 15.345C31.6515 15.4057 31.4782 15.5053 31.3222 15.644C31.1662 15.774 31.0362 15.9473 30.9322 16.164C30.8369 16.372 30.7892 16.619 30.7892 16.905V21.338H29.5282V17.074C29.5282 15.852 29.0819 15.241 28.1892 15.241C27.9899 15.241 27.7905 15.2713 27.5912 15.332C27.4005 15.3927 27.2272 15.488 27.0712 15.618C26.9152 15.748 26.7852 15.917 26.6812 16.125C26.5859 16.3243 26.5382 16.5627 26.5382 16.84V21.338H25.2772V14.227H26.5252V15.189H26.5382C26.6769 14.877 26.9022 14.617 27.2142 14.409C27.5349 14.201 27.9422 14.097 28.4362 14.097C28.9129 14.097 29.3245 14.201 29.6712 14.409C30.0265 14.6083 30.2952 14.8987 30.4772 15.28C30.7025 14.9333 30.9842 14.6517 31.3222 14.435C31.6689 14.2097 32.1239 14.097 32.6872 14.097C33.4239 14.097 34.0002 14.3223 34.4162 14.773C34.8322 15.215 35.0402 15.8477 35.0402 16.671V21.338ZM38.1916 15.111C38.3996 14.747 38.6899 14.487 39.0626 14.331C39.4439 14.175 39.8469 14.097 40.2716 14.097C41.1729 14.097 41.8576 14.3657 42.3256 14.903C42.8022 15.4403 43.0406 16.1813 43.0406 17.126V18.387C43.0406 18.881 42.9712 19.3187 42.8326 19.7C42.6939 20.0727 42.4989 20.389 42.2476 20.649C42.0049 20.909 41.7059 21.104 41.3506 21.234C41.0039 21.3727 40.6182 21.442 40.1936 21.442C39.6649 21.442 39.2402 21.3467 38.9196 21.156C38.6076 20.9653 38.3779 20.766 38.2306 20.558V24.12H36.9696V14.227H38.1916V15.111ZM38.2176 18.803C38.2176 18.985 38.2609 19.1713 38.3476 19.362C38.4429 19.544 38.5729 19.7087 38.7376 19.856C38.9109 19.9947 39.1102 20.1117 39.3356 20.207C39.5609 20.2937 39.8122 20.337 40.0896 20.337C40.6269 20.337 41.0429 20.1507 41.3376 19.778C41.6409 19.4053 41.7926 18.881 41.7926 18.205V17.334C41.7926 16.658 41.6409 16.1337 41.3376 15.761C41.0342 15.3883 40.6182 15.202 40.0896 15.202C39.8296 15.202 39.5869 15.2453 39.3616 15.332C39.1362 15.4187 38.9369 15.54 38.7636 15.696C38.5989 15.852 38.4646 16.0427 38.3606 16.268C38.2652 16.4847 38.2176 16.7317 38.2176 17.009V18.803ZM46.6262 21.442C45.9069 21.442 45.3349 21.2643 44.9102 20.909C44.4942 20.5537 44.2862 20.064 44.2862 19.44V19.089C44.2862 18.4823 44.4899 17.9883 44.8972 17.607C45.3046 17.2257 45.9632 17.035 46.8732 17.035H48.6802V16.619C48.6802 16.1423 48.5632 15.7913 48.3292 15.566C48.1039 15.332 47.7312 15.215 47.2112 15.215C46.7952 15.215 46.4312 15.28 46.1192 15.41C45.8159 15.54 45.4996 15.7133 45.1702 15.93L44.5462 14.994C44.8929 14.7513 45.2829 14.5433 45.7162 14.37C46.1496 14.188 46.6522 14.097 47.2242 14.097C47.6229 14.097 47.9869 14.149 48.3162 14.253C48.6456 14.3483 48.9272 14.4957 49.1612 14.695C49.4039 14.8857 49.5902 15.124 49.7202 15.41C49.8589 15.6873 49.9282 16.0037 49.9282 16.359V21.338H48.7192V20.48H48.7062C48.6369 20.61 48.5416 20.7313 48.4202 20.844C48.3076 20.948 48.1819 21.039 48.0432 21.117C47.8526 21.221 47.6446 21.299 47.4192 21.351C47.2026 21.4117 46.9382 21.442 46.6262 21.442ZM48.6802 18.101H46.8992C46.4052 18.101 46.0499 18.1963 45.8332 18.387C45.6252 18.5777 45.5212 18.842 45.5212 19.18V19.362C45.5212 19.7087 45.6426 19.96 45.8852 20.116C46.1279 20.272 46.4182 20.35 46.7562 20.35C47.0682 20.35 47.3369 20.3153 47.5622 20.246C47.7962 20.168 48.0086 20.0553 48.1992 19.908C48.3726 19.778 48.4939 19.6307 48.5632 19.466C48.6412 19.2927 48.6802 19.0717 48.6802 18.803V18.101ZM57.6861 21.338H56.4251V16.918C56.4251 16.32 56.2994 15.8867 56.0481 15.618C55.7967 15.3493 55.4067 15.215 54.8781 15.215C54.6614 15.215 54.4447 15.254 54.2281 15.332C54.0201 15.4013 53.8294 15.5097 53.6561 15.657C53.4914 15.7957 53.3527 15.9733 53.2401 16.19C53.1361 16.4067 53.0841 16.6537 53.0841 16.931V21.338H51.8231V14.227H53.0451V15.124H53.0581C53.2747 14.7947 53.5607 14.5433 53.9161 14.37C54.2714 14.188 54.6961 14.097 55.1901 14.097C55.5367 14.097 55.8617 14.149 56.1651 14.253C56.4684 14.357 56.7327 14.513 56.9581 14.721C57.1834 14.929 57.3611 15.1933 57.4911 15.514C57.6211 15.8347 57.6861 16.2073 57.6861 16.632V21.338ZM62.0623 19.908L63.9343 14.227H65.2603L61.5683 24.276L60.4243 23.873L61.3473 21.442L58.7603 14.227H60.1253L62.0103 19.908H62.0623ZM72.9221 21.338V13.473L70.7251 14.773L70.1141 13.733L73.1301 11.965H74.2091V21.338H72.9221Z" fill="white"/>
</svg>
