<svg width="822" height="312" viewBox="0 0 822 312" fill="none" xmlns="http://www.w3.org/2000/svg">
<path d="M15.8899 39.512V40.988H0.661938V39.512H11.5879C11.6479 39.236 11.6959 38.954 11.7319 38.666C11.7799 38.378 11.8159 38.09 11.8399 37.802L2.64194 38.036L2.60594 36.542L11.9299 36.416V34.904H2.80394V33.392H13.7119V35.912C13.7119 36.152 13.7059 36.416 13.6939 36.704C13.6819 36.992 13.6579 37.298 13.6219 37.622C13.5979 37.934 13.5679 38.252 13.5319 38.576C13.4959 38.9 13.4539 39.212 13.4059 39.512H15.8899ZM2.83994 49.628V45.344H11.9479V43.976H2.74994V42.518H13.6939V46.766H4.58594V48.17H14.1799V49.628H2.83994ZM19.7268 40.448V43.94H21.2388C21.8388 43.94 22.3848 43.934 22.8768 43.922C23.3688 43.91 23.8308 43.892 24.2628 43.868C24.7068 43.832 25.1388 43.796 25.5587 43.76C25.9908 43.712 26.4408 43.652 26.9088 43.58L27.1068 45.092C26.6868 45.152 26.2608 45.206 25.8288 45.254C25.4088 45.302 24.9468 45.344 24.4428 45.38C23.9508 45.404 23.4048 45.428 22.8048 45.452C22.2168 45.464 21.5508 45.47 20.8068 45.47H17.9628V38.954H23.6148V35.786H17.9088V34.256H25.3788V40.448H19.7268ZM32.6328 40.538H30.0768V49.52H28.2948V32.924H30.0768V38.99H32.6328V40.538ZM45.3976 49.52V32.924H47.1796V49.52H45.3976ZM38.4496 34.04C39.0616 34.04 39.6196 34.142 40.1236 34.346C40.6396 34.55 41.0836 34.856 41.4556 35.264C41.8276 35.672 42.1156 36.176 42.3196 36.776C42.5356 37.376 42.6436 38.072 42.6436 38.864V40.736C42.6436 41.528 42.5356 42.224 42.3196 42.824C42.1156 43.424 41.8276 43.928 41.4556 44.336C41.0836 44.732 40.6396 45.032 40.1236 45.236C39.6196 45.44 39.0616 45.542 38.4496 45.542C37.8376 45.542 37.2736 45.44 36.7576 45.236C36.2536 45.032 35.8156 44.732 35.4436 44.336C35.0716 43.928 34.7776 43.424 34.5616 42.824C34.3576 42.224 34.2556 41.528 34.2556 40.736V38.864C34.2556 38.072 34.3576 37.376 34.5616 36.776C34.7776 36.164 35.0716 35.66 35.4436 35.264C35.8156 34.856 36.2536 34.55 36.7576 34.346C37.2736 34.142 37.8376 34.04 38.4496 34.04ZM38.4496 43.94C38.7736 43.94 39.0856 43.88 39.3856 43.76C39.6856 43.64 39.9496 43.442 40.1776 43.166C40.4056 42.89 40.5856 42.536 40.7176 42.104C40.8616 41.66 40.9336 41.12 40.9336 40.484V39.116C40.9336 38.48 40.8616 37.946 40.7176 37.514C40.5856 37.07 40.3996 36.71 40.1596 36.434C39.9316 36.158 39.6676 35.96 39.3676 35.84C39.0796 35.72 38.7736 35.66 38.4496 35.66C38.1256 35.66 37.8136 35.72 37.5136 35.84C37.2136 35.96 36.9496 36.158 36.7216 36.434C36.4936 36.71 36.3076 37.07 36.1636 37.514C36.0316 37.946 35.9656 38.48 35.9656 39.116V40.484C35.9656 41.12 36.0316 41.66 36.1636 42.104C36.3076 42.536 36.4936 42.89 36.7216 43.166C36.9496 43.442 37.2136 43.64 37.5136 43.76C37.8136 43.88 38.1256 43.94 38.4496 43.94ZM61.9064 44.768V38.594H58.6484C58.6124 38.99 58.4984 39.398 58.3064 39.818C58.1264 40.238 57.8624 40.622 57.5144 40.97C57.1784 41.306 56.7584 41.582 56.2544 41.798C55.7504 42.014 55.1684 42.122 54.5084 42.122C53.8004 42.122 53.1884 42.002 52.6724 41.762C52.1564 41.522 51.7244 41.216 51.3764 40.844C51.0284 40.472 50.7704 40.064 50.6024 39.62C50.4344 39.164 50.3504 38.732 50.3504 38.324V37.388C50.3504 36.98 50.4344 36.554 50.6024 36.11C50.7704 35.654 51.0284 35.24 51.3764 34.868C51.7244 34.496 52.1564 34.19 52.6724 33.95C53.1884 33.71 53.8004 33.59 54.5084 33.59C55.1684 33.59 55.7444 33.698 56.2364 33.914C56.7404 34.13 57.1604 34.406 57.4964 34.742C57.8444 35.066 58.1144 35.438 58.3064 35.858C58.4984 36.266 58.6124 36.668 58.6484 37.064H61.9064V32.924H63.6704V44.768H61.9064ZM55.0844 47.792H64.0124V49.34H53.3024V43.832H55.0844V47.792ZM56.9564 37.46C56.9564 37.184 56.9084 36.908 56.8124 36.632C56.7164 36.356 56.5664 36.11 56.3624 35.894C56.1704 35.666 55.9184 35.486 55.6064 35.354C55.3064 35.21 54.9404 35.138 54.5084 35.138C54.0764 35.138 53.7044 35.21 53.3924 35.354C53.0804 35.486 52.8224 35.666 52.6184 35.894C52.4264 36.11 52.2824 36.356 52.1864 36.632C52.1024 36.908 52.0604 37.184 52.0604 37.46V38.252C52.0604 38.528 52.1084 38.804 52.2044 39.08C52.3004 39.356 52.4444 39.608 52.6364 39.836C52.8404 40.052 53.0924 40.232 53.3924 40.376C53.7044 40.508 54.0764 40.574 54.5084 40.574C54.9404 40.574 55.3064 40.508 55.6064 40.376C55.9184 40.232 56.1704 40.052 56.3624 39.836C56.5664 39.608 56.7164 39.356 56.8124 39.08C56.9084 38.804 56.9564 38.528 56.9564 38.252V37.46ZM79.4592 43.058H68.2452V34.166H79.2072V35.678H70.0272V37.874H79.0812V39.35H70.0272V41.546H79.4592V43.058ZM81.4212 45.794V47.306H66.1932V45.794H81.4212ZM42.676 94.31V100.358H52.108V101.87H47.338V105.794H54.052V107.306H38.824V105.794H45.538V101.87H40.894V94.31H42.676ZM70.4349 105.794V107.306H55.2069V105.794H70.4349ZM68.4909 102.284H57.2589V94.346H68.2929V95.876H59.0409V100.754H68.4909V102.284ZM76.8817 107.468V96.578L73.8397 98.378L72.9937 96.938L77.1697 94.49H78.6637V107.468H76.8817ZM42.676 154.31V160.358H52.108V161.87H47.338V165.794H54.052V167.306H38.824V165.794H45.538V161.87H40.894V154.31H42.676ZM70.4349 165.794V167.306H55.2069V165.794H70.4349ZM68.4909 162.284H57.2589V154.346H68.2929V155.876H59.0409V160.754H68.4909V162.284ZM77.0077 160.718C77.3797 160.31 77.6737 159.956 77.8897 159.656C78.1057 159.356 78.2677 159.092 78.3757 158.864C78.4837 158.624 78.5497 158.414 78.5737 158.234C78.6097 158.042 78.6277 157.862 78.6277 157.694V157.55C78.6277 157.034 78.4237 156.632 78.0157 156.344C77.6197 156.044 77.0797 155.894 76.3957 155.894C76.1557 155.894 75.9097 155.924 75.6577 155.984C75.4177 156.032 75.1777 156.128 74.9377 156.272C74.6977 156.416 74.4637 156.614 74.2357 156.866C74.0077 157.106 73.7857 157.412 73.5697 157.784L72.2017 156.902C72.3577 156.626 72.5497 156.338 72.7777 156.038C73.0057 155.726 73.2817 155.444 73.6057 155.192C73.9417 154.928 74.3317 154.712 74.7757 154.544C75.2317 154.376 75.7597 154.292 76.3597 154.292C77.0197 154.292 77.6017 154.376 78.1057 154.544C78.6097 154.7 79.0297 154.922 79.3657 155.21C79.7137 155.498 79.9717 155.846 80.1397 156.254C80.3197 156.65 80.4097 157.082 80.4097 157.55V157.73C80.4097 158.438 80.2237 159.104 79.8517 159.728C79.4797 160.352 78.9997 160.976 78.4117 161.6L74.3617 165.92H80.8777V167.468H72.1657V165.974L77.0077 160.718ZM42.676 214.31V220.358H52.108V221.87H47.338V225.794H54.052V227.306H38.824V225.794H45.538V221.87H40.894V214.31H42.676ZM70.4349 225.794V227.306H55.2069V225.794H70.4349ZM68.4909 222.284H57.2589V214.346H68.2929V215.876H59.0409V220.754H68.4909V222.284ZM72.3637 216.236C72.5557 215.972 72.7657 215.72 72.9937 215.48C73.2337 215.24 73.5037 215.036 73.8037 214.868C74.1157 214.688 74.4577 214.55 74.8297 214.454C75.2137 214.346 75.6517 214.292 76.1437 214.292C76.7437 214.292 77.2837 214.37 77.7637 214.526C78.2437 214.682 78.6517 214.904 78.9877 215.192C79.3357 215.468 79.5997 215.81 79.7797 216.218C79.9717 216.614 80.0677 217.052 80.0677 217.532V217.712C80.0677 217.964 80.0377 218.234 79.9777 218.522C79.9177 218.81 79.8097 219.086 79.6537 219.35C79.4977 219.614 79.2877 219.86 79.0237 220.088C78.7597 220.316 78.4297 220.502 78.0337 220.646C78.9097 220.802 79.5637 221.15 79.9957 221.69C80.4397 222.23 80.6617 222.878 80.6617 223.634V223.904C80.6617 224.384 80.5717 224.852 80.3917 225.308C80.2237 225.752 79.9537 226.154 79.5817 226.514C79.2217 226.862 78.7537 227.138 78.1777 227.342C77.6017 227.558 76.9177 227.666 76.1257 227.666C75.3697 227.666 74.6377 227.546 73.9297 227.306C73.2337 227.078 72.5797 226.718 71.9677 226.226L72.8497 224.804C73.4857 225.26 74.0497 225.584 74.5417 225.776C75.0337 225.956 75.5617 226.046 76.1257 226.046C76.5937 226.046 77.0017 225.992 77.3497 225.884C77.6977 225.764 77.9857 225.608 78.2137 225.416C78.4417 225.224 78.6097 225.002 78.7177 224.75C78.8257 224.486 78.8797 224.21 78.8797 223.922V223.688C78.8797 223.256 78.8077 222.902 78.6637 222.626C78.5317 222.338 78.3457 222.11 78.1057 221.942C77.8657 221.774 77.5777 221.654 77.2417 221.582C76.9177 221.51 76.5697 221.474 76.1977 221.474H74.5957V219.926H76.1257C76.5337 219.926 76.8757 219.866 77.1517 219.746C77.4277 219.614 77.6497 219.446 77.8177 219.242C77.9857 219.038 78.1057 218.804 78.1777 218.54C78.2617 218.276 78.3037 218.006 78.3037 217.73V217.586C78.3037 217.298 78.2437 217.052 78.1237 216.848C78.0157 216.632 77.8657 216.452 77.6737 216.308C77.4817 216.164 77.2537 216.056 76.9897 215.984C76.7257 215.912 76.4497 215.876 76.1617 215.876C75.6217 215.876 75.1537 215.978 74.7577 216.182C74.3617 216.386 73.9897 216.716 73.6417 217.172L72.3637 216.236ZM42.676 274.31V280.358H52.108V281.87H47.338V285.794H54.052V287.306H38.824V285.794H45.538V281.87H40.894V274.31H42.676ZM70.4349 285.794V287.306H55.2069V285.794H70.4349ZM68.4909 282.284H57.2589V274.346H68.2929V275.876H59.0409V280.754H68.4909V282.284ZM79.7437 279.188V283.166H81.5797V284.678H79.7437V287.468H77.9797V284.678H71.4997V283.346L77.6017 274.49H79.5637L73.5877 283.166H77.9797V279.188H79.7437Z" fill="black"/>
<path d="M107.258 18.468H105.476V5.49H110.174C110.834 5.49 111.422 5.58 111.938 5.76C112.454 5.94 112.886 6.186 113.234 6.498C113.582 6.81 113.846 7.182 114.026 7.614C114.218 8.046 114.314 8.52 114.314 9.036V9.504C114.314 10.236 114.122 10.884 113.738 11.448C113.366 12.012 112.832 12.432 112.136 12.708L114.71 18.468H112.784L110.444 13.05H107.258V18.468ZM107.258 11.538H109.742C110.75 11.538 111.464 11.352 111.884 10.98C112.316 10.596 112.532 10.086 112.532 9.45V9.09C112.532 8.454 112.322 7.95 111.902 7.578C111.482 7.206 110.822 7.02 109.922 7.02H107.258V11.538ZM120.732 9.936C120.372 9.936 120.036 10.002 119.724 10.134C119.424 10.254 119.16 10.428 118.932 10.656C118.716 10.872 118.542 11.142 118.41 11.466C118.29 11.778 118.23 12.12 118.23 12.492V12.744H123.162V12.42C123.162 11.664 122.946 11.064 122.514 10.62C122.082 10.164 121.488 9.936 120.732 9.936ZM124.62 17.532C124.188 17.832 123.672 18.084 123.072 18.288C122.472 18.504 121.722 18.612 120.822 18.612C120.21 18.612 119.64 18.522 119.112 18.342C118.596 18.174 118.14 17.91 117.744 17.55C117.36 17.178 117.054 16.704 116.826 16.128C116.61 15.552 116.502 14.868 116.502 14.076V12.96C116.502 12.216 116.604 11.562 116.808 10.998C117.024 10.434 117.318 9.966 117.69 9.594C118.074 9.21 118.524 8.922 119.04 8.73C119.556 8.538 120.12 8.442 120.732 8.442C121.992 8.442 122.994 8.826 123.738 9.594C124.482 10.362 124.854 11.448 124.854 12.852V14.166H118.23V14.238C118.23 15.174 118.476 15.888 118.968 16.38C119.46 16.86 120.102 17.1 120.894 17.1C121.542 17.1 122.094 17.022 122.55 16.866C123.018 16.71 123.462 16.494 123.882 16.218L124.62 17.532ZM133.287 22.32V17.316C133.011 17.784 132.621 18.114 132.117 18.306C131.613 18.51 131.061 18.612 130.461 18.612C129.213 18.612 128.259 18.252 127.599 17.532C126.951 16.8 126.627 15.762 126.627 14.418V12.672C126.627 12.012 126.723 11.418 126.915 10.89C127.107 10.362 127.371 9.918 127.707 9.558C128.055 9.198 128.469 8.922 128.949 8.73C129.429 8.538 129.957 8.442 130.533 8.442C131.289 8.442 131.883 8.574 132.315 8.838C132.759 9.09 133.083 9.36 133.287 9.648V8.622H135.033V22.32H133.287ZM133.305 12.06C133.305 11.808 133.239 11.556 133.107 11.304C132.987 11.052 132.807 10.83 132.567 10.638C132.339 10.434 132.063 10.272 131.739 10.152C131.427 10.032 131.085 9.972 130.713 9.972C129.969 9.972 129.387 10.23 128.967 10.746C128.559 11.262 128.355 11.988 128.355 12.924V14.13C128.355 15.066 128.565 15.792 128.985 16.308C129.405 16.824 129.981 17.082 130.713 17.082C131.073 17.082 131.409 17.028 131.721 16.92C132.033 16.8 132.303 16.632 132.531 16.416C132.771 16.2 132.957 15.942 133.089 15.642C133.233 15.33 133.305 14.982 133.305 14.598V12.06ZM137.692 8.622H139.438V14.742C139.438 15.57 139.606 16.17 139.942 16.542C140.278 16.914 140.812 17.1 141.544 17.1C141.844 17.1 142.138 17.052 142.426 16.956C142.714 16.848 142.972 16.698 143.2 16.506C143.44 16.302 143.632 16.05 143.776 15.75C143.92 15.45 143.992 15.108 143.992 14.724V8.622H145.738V18.468H144.046V17.226H144.028C143.728 17.682 143.338 18.03 142.858 18.27C142.378 18.522 141.796 18.648 141.112 18.648C140.632 18.648 140.182 18.576 139.762 18.432C139.354 18.288 138.994 18.072 138.682 17.784C138.382 17.496 138.142 17.136 137.962 16.704C137.782 16.26 137.692 15.738 137.692 15.138V8.622ZM152.267 9.936C151.907 9.936 151.571 10.002 151.259 10.134C150.959 10.254 150.695 10.428 150.467 10.656C150.251 10.872 150.077 11.142 149.945 11.466C149.825 11.778 149.765 12.12 149.765 12.492V12.744H154.697V12.42C154.697 11.664 154.481 11.064 154.049 10.62C153.617 10.164 153.023 9.936 152.267 9.936ZM156.155 17.532C155.723 17.832 155.207 18.084 154.607 18.288C154.007 18.504 153.257 18.612 152.357 18.612C151.745 18.612 151.175 18.522 150.647 18.342C150.131 18.174 149.675 17.91 149.279 17.55C148.895 17.178 148.589 16.704 148.361 16.128C148.145 15.552 148.037 14.868 148.037 14.076V12.96C148.037 12.216 148.139 11.562 148.343 10.998C148.559 10.434 148.853 9.966 149.225 9.594C149.609 9.21 150.059 8.922 150.575 8.73C151.091 8.538 151.655 8.442 152.267 8.442C153.527 8.442 154.529 8.826 155.273 9.594C156.017 10.362 156.389 11.448 156.389 12.852V14.166H149.765V14.238C149.765 15.174 150.011 15.888 150.503 16.38C150.995 16.86 151.637 17.1 152.429 17.1C153.077 17.1 153.629 17.022 154.085 16.866C154.553 16.71 154.997 16.494 155.417 16.218L156.155 17.532ZM161.708 17.1C162.356 17.1 162.86 16.986 163.22 16.758C163.58 16.53 163.76 16.218 163.76 15.822V15.678C163.76 15.474 163.73 15.3 163.67 15.156C163.61 15.012 163.496 14.886 163.328 14.778C163.16 14.67 162.932 14.574 162.644 14.49C162.356 14.394 161.978 14.298 161.51 14.202C160.97 14.094 160.49 13.962 160.07 13.806C159.65 13.65 159.296 13.464 159.008 13.248C158.72 13.02 158.498 12.75 158.342 12.438C158.198 12.126 158.126 11.754 158.126 11.322V11.106C158.126 10.77 158.198 10.44 158.342 10.116C158.486 9.792 158.708 9.51 159.008 9.27C159.308 9.018 159.686 8.82 160.142 8.676C160.61 8.52 161.162 8.442 161.798 8.442C162.47 8.442 163.094 8.52 163.67 8.676C164.258 8.82 164.798 9.066 165.29 9.414L164.516 10.728C164.192 10.488 163.802 10.296 163.346 10.152C162.902 10.008 162.428 9.936 161.924 9.936C161.192 9.936 160.664 10.05 160.34 10.278C160.028 10.494 159.872 10.776 159.872 11.124V11.286C159.872 11.67 160.034 11.958 160.358 12.15C160.682 12.33 161.228 12.492 161.996 12.636C162.596 12.744 163.118 12.876 163.562 13.032C164.006 13.188 164.372 13.386 164.66 13.626C164.948 13.854 165.164 14.13 165.308 14.454C165.452 14.778 165.524 15.168 165.524 15.624V15.858C165.524 16.242 165.434 16.602 165.254 16.938C165.086 17.274 164.84 17.568 164.516 17.82C164.192 18.06 163.796 18.252 163.328 18.396C162.872 18.54 162.356 18.612 161.78 18.612C160.952 18.612 160.202 18.504 159.53 18.288C158.858 18.072 158.288 17.784 157.82 17.424L158.63 16.056C159.074 16.356 159.548 16.608 160.052 16.812C160.556 17.004 161.108 17.1 161.708 17.1ZM168.225 10.116H166.605V8.622H168.225V6.138H169.971V8.622H172.563V10.116H169.971V15.714C169.971 16.014 170.001 16.26 170.061 16.452C170.121 16.632 170.205 16.77 170.313 16.866C170.433 16.962 170.571 17.028 170.727 17.064C170.883 17.1 171.051 17.118 171.231 17.118C171.663 17.118 172.095 17.04 172.527 16.884L172.797 18.288C172.593 18.372 172.323 18.444 171.987 18.504C171.651 18.576 171.309 18.612 170.961 18.612C170.025 18.612 169.335 18.378 168.891 17.91C168.447 17.442 168.225 16.71 168.225 15.714V10.116Z" fill="black"/>
<path d="M199.476 5.49H204.12C204.852 5.49 205.488 5.586 206.028 5.778C206.568 5.958 207.012 6.216 207.36 6.552C207.72 6.876 207.984 7.266 208.152 7.722C208.332 8.178 208.422 8.67 208.422 9.198V9.576C208.422 10.104 208.326 10.602 208.134 11.07C207.954 11.526 207.684 11.928 207.324 12.276C206.964 12.624 206.514 12.9 205.974 13.104C205.446 13.308 204.828 13.41 204.12 13.41H201.258V18.468H199.476V5.49ZM201.258 7.038V11.862H203.814C205.686 11.862 206.622 11.088 206.622 9.54V9.216C206.622 8.472 206.394 7.926 205.938 7.578C205.494 7.218 204.852 7.038 204.012 7.038H201.258ZM218.631 18.468H216.885V12.348C216.885 11.52 216.711 10.92 216.363 10.548C216.015 10.176 215.475 9.99 214.743 9.99C214.443 9.99 214.143 10.044 213.843 10.152C213.555 10.248 213.291 10.398 213.051 10.602C212.823 10.794 212.631 11.04 212.475 11.34C212.331 11.64 212.259 11.982 212.259 12.366V18.468H210.513V4.86H212.259V9.81C212.559 9.366 212.949 9.03 213.429 8.802C213.921 8.562 214.503 8.442 215.175 8.442C215.655 8.442 216.105 8.514 216.525 8.658C216.945 8.802 217.311 9.018 217.623 9.306C217.935 9.594 218.181 9.96 218.361 10.404C218.541 10.848 218.631 11.364 218.631 11.952V18.468ZM224.025 18.612C223.029 18.612 222.237 18.366 221.649 17.874C221.073 17.382 220.785 16.704 220.785 15.84V15.354C220.785 14.514 221.067 13.83 221.631 13.302C222.195 12.774 223.107 12.51 224.367 12.51H226.869V11.934C226.869 11.274 226.707 10.788 226.383 10.476C226.071 10.152 225.555 9.99 224.835 9.99C224.259 9.99 223.755 10.08 223.323 10.26C222.903 10.44 222.465 10.68 222.009 10.98L221.145 9.684C221.625 9.348 222.165 9.06 222.765 8.82C223.365 8.568 224.061 8.442 224.853 8.442C225.405 8.442 225.909 8.514 226.365 8.658C226.821 8.79 227.211 8.994 227.535 9.27C227.871 9.534 228.129 9.864 228.309 10.26C228.501 10.644 228.597 11.082 228.597 11.574V18.468H226.923V17.28H226.905C226.809 17.46 226.677 17.628 226.509 17.784C226.353 17.928 226.179 18.054 225.987 18.162C225.723 18.306 225.435 18.414 225.123 18.486C224.823 18.57 224.457 18.612 224.025 18.612ZM226.869 13.986H224.403C223.719 13.986 223.227 14.118 222.927 14.382C222.639 14.646 222.495 15.012 222.495 15.48V15.732C222.495 16.212 222.663 16.56 222.999 16.776C223.335 16.992 223.737 17.1 224.205 17.1C224.637 17.1 225.009 17.052 225.321 16.956C225.645 16.848 225.939 16.692 226.203 16.488C226.443 16.308 226.611 16.104 226.707 15.876C226.815 15.636 226.869 15.33 226.869 14.958V13.986ZM234.28 17.1C234.928 17.1 235.432 16.986 235.792 16.758C236.152 16.53 236.332 16.218 236.332 15.822V15.678C236.332 15.474 236.302 15.3 236.242 15.156C236.182 15.012 236.068 14.886 235.9 14.778C235.732 14.67 235.504 14.574 235.216 14.49C234.928 14.394 234.55 14.298 234.082 14.202C233.542 14.094 233.062 13.962 232.642 13.806C232.222 13.65 231.868 13.464 231.58 13.248C231.292 13.02 231.07 12.75 230.914 12.438C230.77 12.126 230.698 11.754 230.698 11.322V11.106C230.698 10.77 230.77 10.44 230.914 10.116C231.058 9.792 231.28 9.51 231.58 9.27C231.88 9.018 232.258 8.82 232.714 8.676C233.182 8.52 233.734 8.442 234.37 8.442C235.042 8.442 235.666 8.52 236.242 8.676C236.83 8.82 237.37 9.066 237.862 9.414L237.088 10.728C236.764 10.488 236.374 10.296 235.918 10.152C235.474 10.008 235 9.936 234.496 9.936C233.764 9.936 233.236 10.05 232.912 10.278C232.6 10.494 232.444 10.776 232.444 11.124V11.286C232.444 11.67 232.606 11.958 232.93 12.15C233.254 12.33 233.8 12.492 234.568 12.636C235.168 12.744 235.69 12.876 236.134 13.032C236.578 13.188 236.944 13.386 237.232 13.626C237.52 13.854 237.736 14.13 237.88 14.454C238.024 14.778 238.096 15.168 238.096 15.624V15.858C238.096 16.242 238.006 16.602 237.826 16.938C237.658 17.274 237.412 17.568 237.088 17.82C236.764 18.06 236.368 18.252 235.9 18.396C235.444 18.54 234.928 18.612 234.352 18.612C233.524 18.612 232.774 18.504 232.102 18.288C231.43 18.072 230.86 17.784 230.392 17.424L231.202 16.056C231.646 16.356 232.12 16.608 232.624 16.812C233.128 17.004 233.68 17.1 234.28 17.1ZM243.911 9.936C243.551 9.936 243.215 10.002 242.903 10.134C242.603 10.254 242.339 10.428 242.111 10.656C241.895 10.872 241.721 11.142 241.589 11.466C241.469 11.778 241.409 12.12 241.409 12.492V12.744H246.341V12.42C246.341 11.664 246.125 11.064 245.693 10.62C245.261 10.164 244.667 9.936 243.911 9.936ZM247.799 17.532C247.367 17.832 246.851 18.084 246.251 18.288C245.651 18.504 244.901 18.612 244.001 18.612C243.389 18.612 242.819 18.522 242.291 18.342C241.775 18.174 241.319 17.91 240.923 17.55C240.539 17.178 240.233 16.704 240.005 16.128C239.789 15.552 239.681 14.868 239.681 14.076V12.96C239.681 12.216 239.783 11.562 239.987 10.998C240.203 10.434 240.497 9.966 240.869 9.594C241.253 9.21 241.703 8.922 242.219 8.73C242.735 8.538 243.299 8.442 243.911 8.442C245.171 8.442 246.173 8.826 246.917 9.594C247.661 10.362 248.033 11.448 248.033 12.852V14.166H241.409V14.238C241.409 15.174 241.655 15.888 242.147 16.38C242.639 16.86 243.281 17.1 244.073 17.1C244.721 17.1 245.273 17.022 245.729 16.866C246.197 16.71 246.641 16.494 247.061 16.218L247.799 17.532ZM258.969 12.978C258.969 14.814 258.591 16.224 257.835 17.208C257.091 18.18 255.939 18.666 254.379 18.666C252.831 18.666 251.679 18.174 250.923 17.19C250.167 16.206 249.789 14.802 249.789 12.978V10.962C249.789 9.138 250.173 7.74 250.941 6.768C251.709 5.784 252.855 5.292 254.379 5.292C255.915 5.292 257.061 5.784 257.817 6.768C258.585 7.74 258.969 9.138 258.969 10.962V12.978ZM257.151 10.944C257.151 10.152 257.079 9.498 256.935 8.982C256.803 8.466 256.611 8.058 256.359 7.758C256.107 7.458 255.813 7.248 255.477 7.128C255.141 7.008 254.775 6.948 254.379 6.948C253.995 6.948 253.635 7.008 253.299 7.128C252.963 7.248 252.669 7.464 252.417 7.776C252.165 8.076 251.967 8.484 251.823 9C251.679 9.504 251.607 10.152 251.607 10.944V12.996C251.607 13.788 251.679 14.448 251.823 14.976C251.967 15.492 252.165 15.9 252.417 16.2C252.669 16.5 252.963 16.71 253.299 16.83C253.635 16.95 253.995 17.01 254.379 17.01C254.775 17.01 255.141 16.95 255.477 16.83C255.813 16.71 256.107 16.5 256.359 16.2C256.611 15.9 256.803 15.492 256.935 14.976C257.079 14.46 257.151 13.8 257.151 12.996V10.944Z" fill="black"/>
<path d="M349.476 5.49H354.12C354.852 5.49 355.488 5.586 356.028 5.778C356.568 5.958 357.012 6.216 357.36 6.552C357.72 6.876 357.984 7.266 358.152 7.722C358.332 8.178 358.422 8.67 358.422 9.198V9.576C358.422 10.104 358.326 10.602 358.134 11.07C357.954 11.526 357.684 11.928 357.324 12.276C356.964 12.624 356.514 12.9 355.974 13.104C355.446 13.308 354.828 13.41 354.12 13.41H351.258V18.468H349.476V5.49ZM351.258 7.038V11.862H353.814C355.686 11.862 356.622 11.088 356.622 9.54V9.216C356.622 8.472 356.394 7.926 355.938 7.578C355.494 7.218 354.852 7.038 354.012 7.038H351.258ZM365.877 10.332C365.709 10.26 365.523 10.206 365.319 10.17C365.127 10.122 364.911 10.098 364.671 10.098C364.347 10.098 364.035 10.164 363.735 10.296C363.447 10.416 363.195 10.596 362.979 10.836C362.763 11.064 362.589 11.34 362.457 11.664C362.325 11.988 362.259 12.342 362.259 12.726V18.468H360.513V8.622H362.205V10.188H362.223C362.511 9.636 362.883 9.21 363.339 8.91C363.807 8.598 364.401 8.442 365.121 8.442C365.553 8.442 365.979 8.508 366.399 8.64L365.877 10.332ZM371.854 8.442C373.211 8.442 374.279 8.832 375.059 9.612C375.851 10.392 376.247 11.496 376.247 12.924V14.13C376.247 15.558 375.851 16.662 375.059 17.442C374.279 18.222 373.211 18.612 371.854 18.612C370.499 18.612 369.425 18.222 368.633 17.442C367.853 16.662 367.463 15.558 367.463 14.13V12.924C367.463 11.484 367.853 10.38 368.633 9.612C369.425 8.832 370.499 8.442 371.854 8.442ZM371.854 17.082C372.635 17.082 373.265 16.83 373.745 16.326C374.237 15.81 374.483 15.03 374.483 13.986V13.068C374.483 12.024 374.237 11.25 373.745 10.746C373.265 10.23 372.635 9.972 371.854 9.972C371.075 9.972 370.439 10.23 369.947 10.746C369.467 11.25 369.227 12.024 369.227 13.068V13.986C369.227 15.03 369.467 15.81 369.947 16.326C370.439 16.83 371.075 17.082 371.854 17.082ZM380.241 9.846C380.529 9.342 380.931 8.982 381.447 8.766C381.975 8.55 382.533 8.442 383.121 8.442C384.369 8.442 385.317 8.814 385.965 9.558C386.625 10.302 386.955 11.328 386.955 12.636V14.382C386.955 15.066 386.859 15.672 386.667 16.2C386.475 16.716 386.205 17.154 385.857 17.514C385.521 17.874 385.107 18.144 384.615 18.324C384.135 18.516 383.601 18.612 383.013 18.612C382.281 18.612 381.693 18.48 381.249 18.216C380.817 17.952 380.499 17.676 380.295 17.388V22.32H378.549V8.622H380.241V9.846ZM380.277 14.958C380.277 15.21 380.337 15.468 380.457 15.732C380.589 15.984 380.769 16.212 380.997 16.416C381.237 16.608 381.513 16.77 381.825 16.902C382.137 17.022 382.485 17.082 382.869 17.082C383.613 17.082 384.189 16.824 384.597 16.308C385.017 15.792 385.227 15.066 385.227 14.13V12.924C385.227 11.988 385.017 11.262 384.597 10.746C384.177 10.23 383.601 9.972 382.869 9.972C382.509 9.972 382.173 10.032 381.861 10.152C381.549 10.272 381.273 10.44 381.033 10.656C380.805 10.872 380.619 11.136 380.475 11.448C380.343 11.748 380.277 12.09 380.277 12.474V14.958ZM393.159 8.442C394.515 8.442 395.583 8.832 396.363 9.612C397.155 10.392 397.551 11.496 397.551 12.924V14.13C397.551 15.558 397.155 16.662 396.363 17.442C395.583 18.222 394.515 18.612 393.159 18.612C391.803 18.612 390.729 18.222 389.937 17.442C389.157 16.662 388.767 15.558 388.767 14.13V12.924C388.767 11.484 389.157 10.38 389.937 9.612C390.729 8.832 391.803 8.442 393.159 8.442ZM393.159 17.082C393.939 17.082 394.569 16.83 395.049 16.326C395.541 15.81 395.787 15.03 395.787 13.986V13.068C395.787 12.024 395.541 11.25 395.049 10.746C394.569 10.23 393.939 9.972 393.159 9.972C392.379 9.972 391.743 10.23 391.251 10.746C390.771 11.25 390.531 12.024 390.531 13.068V13.986C390.531 15.03 390.771 15.81 391.251 16.326C391.743 16.83 392.379 17.082 393.159 17.082ZM402.913 17.1C403.561 17.1 404.065 16.986 404.425 16.758C404.785 16.53 404.965 16.218 404.965 15.822V15.678C404.965 15.474 404.935 15.3 404.875 15.156C404.815 15.012 404.701 14.886 404.533 14.778C404.365 14.67 404.137 14.574 403.849 14.49C403.561 14.394 403.183 14.298 402.715 14.202C402.175 14.094 401.695 13.962 401.275 13.806C400.855 13.65 400.501 13.464 400.213 13.248C399.925 13.02 399.703 12.75 399.547 12.438C399.403 12.126 399.331 11.754 399.331 11.322V11.106C399.331 10.77 399.403 10.44 399.547 10.116C399.691 9.792 399.913 9.51 400.213 9.27C400.513 9.018 400.891 8.82 401.347 8.676C401.815 8.52 402.367 8.442 403.003 8.442C403.675 8.442 404.299 8.52 404.875 8.676C405.463 8.82 406.003 9.066 406.495 9.414L405.721 10.728C405.397 10.488 405.007 10.296 404.551 10.152C404.107 10.008 403.633 9.936 403.129 9.936C402.397 9.936 401.869 10.05 401.545 10.278C401.233 10.494 401.077 10.776 401.077 11.124V11.286C401.077 11.67 401.239 11.958 401.563 12.15C401.887 12.33 402.433 12.492 403.201 12.636C403.801 12.744 404.323 12.876 404.767 13.032C405.211 13.188 405.577 13.386 405.865 13.626C406.153 13.854 406.369 14.13 406.513 14.454C406.657 14.778 406.729 15.168 406.729 15.624V15.858C406.729 16.242 406.639 16.602 406.459 16.938C406.291 17.274 406.045 17.568 405.721 17.82C405.397 18.06 405.001 18.252 404.533 18.396C404.077 18.54 403.561 18.612 402.985 18.612C402.157 18.612 401.407 18.504 400.735 18.288C400.063 18.072 399.493 17.784 399.025 17.424L399.835 16.056C400.279 16.356 400.753 16.608 401.257 16.812C401.761 17.004 402.313 17.1 402.913 17.1ZM411.554 18.612C410.558 18.612 409.766 18.366 409.178 17.874C408.602 17.382 408.314 16.704 408.314 15.84V15.354C408.314 14.514 408.596 13.83 409.16 13.302C409.724 12.774 410.636 12.51 411.896 12.51H414.398V11.934C414.398 11.274 414.236 10.788 413.912 10.476C413.6 10.152 413.084 9.99 412.364 9.99C411.788 9.99 411.284 10.08 410.852 10.26C410.432 10.44 409.994 10.68 409.538 10.98L408.674 9.684C409.154 9.348 409.694 9.06 410.294 8.82C410.894 8.568 411.59 8.442 412.382 8.442C412.934 8.442 413.438 8.514 413.894 8.658C414.35 8.79 414.74 8.994 415.064 9.27C415.4 9.534 415.658 9.864 415.838 10.26C416.03 10.644 416.126 11.082 416.126 11.574V18.468H414.452V17.28H414.434C414.338 17.46 414.206 17.628 414.038 17.784C413.882 17.928 413.708 18.054 413.516 18.162C413.252 18.306 412.964 18.414 412.652 18.486C412.352 18.57 411.986 18.612 411.554 18.612ZM414.398 13.986H411.932C411.248 13.986 410.756 14.118 410.456 14.382C410.168 14.646 410.024 15.012 410.024 15.48V15.732C410.024 16.212 410.192 16.56 410.528 16.776C410.864 16.992 411.266 17.1 411.734 17.1C412.166 17.1 412.538 17.052 412.85 16.956C413.174 16.848 413.468 16.692 413.732 16.488C413.972 16.308 414.14 16.104 414.236 15.876C414.344 15.636 414.398 15.33 414.398 14.958V13.986ZM420.496 4.86V18.468H418.75V4.86H420.496Z" fill="black"/>
<path d="M503.616 17.046C504.54 17.046 505.23 16.86 505.686 16.488C506.154 16.116 506.388 15.672 506.388 15.156V14.868C506.388 14.58 506.34 14.328 506.244 14.112C506.148 13.896 505.986 13.704 505.758 13.536C505.53 13.368 505.236 13.218 504.876 13.086C504.516 12.942 504.072 12.816 503.544 12.708C502.932 12.576 502.362 12.426 501.834 12.258C501.306 12.078 500.85 11.856 500.466 11.592C500.082 11.316 499.776 10.98 499.548 10.584C499.332 10.176 499.224 9.678 499.224 9.09V8.766C499.224 8.322 499.314 7.896 499.494 7.488C499.674 7.068 499.95 6.696 500.322 6.372C500.694 6.048 501.156 5.79 501.708 5.598C502.272 5.394 502.926 5.292 503.67 5.292C504.462 5.292 505.182 5.388 505.83 5.58C506.478 5.772 507.078 6.054 507.63 6.426L506.784 7.812C506.304 7.488 505.818 7.254 505.326 7.11C504.834 6.966 504.288 6.894 503.688 6.894C502.872 6.894 502.218 7.074 501.726 7.434C501.246 7.794 501.006 8.232 501.006 8.748V9.036C501.006 9.336 501.072 9.594 501.204 9.81C501.336 10.014 501.528 10.194 501.78 10.35C502.032 10.506 502.344 10.644 502.716 10.764C503.088 10.872 503.514 10.98 503.994 11.088C504.798 11.268 505.464 11.478 505.992 11.718C506.532 11.946 506.964 12.21 507.288 12.51C507.612 12.81 507.84 13.146 507.972 13.518C508.116 13.89 508.188 14.298 508.188 14.742V15.066C508.188 15.666 508.068 16.188 507.828 16.632C507.6 17.076 507.282 17.454 506.874 17.766C506.466 18.066 505.974 18.288 505.398 18.432C504.834 18.588 504.222 18.666 503.562 18.666C502.638 18.666 501.786 18.516 501.006 18.216C500.238 17.928 499.584 17.568 499.044 17.136L499.944 15.678C500.184 15.858 500.46 16.032 500.772 16.2C501.084 16.368 501.402 16.518 501.726 16.65C502.05 16.77 502.374 16.866 502.698 16.938C503.034 17.01 503.34 17.046 503.616 17.046ZM514.222 9.936C513.862 9.936 513.526 10.002 513.214 10.134C512.914 10.254 512.65 10.428 512.422 10.656C512.206 10.872 512.032 11.142 511.9 11.466C511.78 11.778 511.72 12.12 511.72 12.492V12.744H516.652V12.42C516.652 11.664 516.436 11.064 516.004 10.62C515.572 10.164 514.978 9.936 514.222 9.936ZM518.11 17.532C517.678 17.832 517.162 18.084 516.562 18.288C515.962 18.504 515.212 18.612 514.312 18.612C513.7 18.612 513.13 18.522 512.602 18.342C512.086 18.174 511.63 17.91 511.234 17.55C510.85 17.178 510.544 16.704 510.316 16.128C510.1 15.552 509.992 14.868 509.992 14.076V12.96C509.992 12.216 510.094 11.562 510.298 10.998C510.514 10.434 510.808 9.966 511.18 9.594C511.564 9.21 512.014 8.922 512.53 8.73C513.046 8.538 513.61 8.442 514.222 8.442C515.482 8.442 516.484 8.826 517.228 9.594C517.972 10.362 518.344 11.448 518.344 12.852V14.166H511.72V14.238C511.72 15.174 511.966 15.888 512.458 16.38C512.95 16.86 513.592 17.1 514.384 17.1C515.032 17.1 515.584 17.022 516.04 16.866C516.508 16.71 516.952 16.494 517.372 16.218L518.11 17.532ZM522.349 4.86V18.468H520.603V4.86H522.349ZM528.882 9.936C528.522 9.936 528.186 10.002 527.874 10.134C527.574 10.254 527.31 10.428 527.082 10.656C526.866 10.872 526.692 11.142 526.56 11.466C526.44 11.778 526.38 12.12 526.38 12.492V12.744H531.312V12.42C531.312 11.664 531.096 11.064 530.664 10.62C530.232 10.164 529.638 9.936 528.882 9.936ZM532.77 17.532C532.338 17.832 531.822 18.084 531.222 18.288C530.622 18.504 529.872 18.612 528.972 18.612C528.36 18.612 527.79 18.522 527.262 18.342C526.746 18.174 526.29 17.91 525.894 17.55C525.51 17.178 525.204 16.704 524.976 16.128C524.76 15.552 524.652 14.868 524.652 14.076V12.96C524.652 12.216 524.754 11.562 524.958 10.998C525.174 10.434 525.468 9.966 525.84 9.594C526.224 9.21 526.674 8.922 527.19 8.73C527.706 8.538 528.27 8.442 528.882 8.442C530.142 8.442 531.144 8.826 531.888 9.594C532.632 10.362 533.004 11.448 533.004 12.852V14.166H526.38V14.238C526.38 15.174 526.626 15.888 527.118 16.38C527.61 16.86 528.252 17.1 529.044 17.1C529.692 17.1 530.244 17.022 530.7 16.866C531.168 16.71 531.612 16.494 532.032 16.218L532.77 17.532ZM539.007 8.442C539.823 8.442 540.489 8.544 541.005 8.748C541.533 8.952 542.001 9.21 542.409 9.522L541.581 10.836C541.125 10.5 540.699 10.278 540.303 10.17C539.919 10.05 539.487 9.99 539.007 9.99C538.683 9.99 538.371 10.044 538.071 10.152C537.771 10.26 537.507 10.434 537.279 10.674C537.051 10.902 536.865 11.196 536.721 11.556C536.589 11.916 536.523 12.348 536.523 12.852V14.094C536.523 14.622 536.589 15.078 536.721 15.462C536.865 15.834 537.051 16.14 537.279 16.38C537.519 16.608 537.789 16.776 538.089 16.884C538.401 16.992 538.719 17.046 539.043 17.046C539.691 17.046 540.225 16.962 540.645 16.794C541.077 16.626 541.467 16.41 541.815 16.146L542.661 17.478C542.313 17.766 541.845 18.024 541.257 18.252C540.669 18.492 539.925 18.612 539.025 18.612C537.657 18.612 536.601 18.216 535.857 17.424C535.125 16.632 534.759 15.528 534.759 14.112V12.87C534.759 12.162 534.861 11.538 535.065 10.998C535.269 10.446 535.551 9.984 535.911 9.612C536.283 9.228 536.727 8.94 537.243 8.748C537.771 8.544 538.359 8.442 539.007 8.442ZM545.034 10.116H543.414V8.622H545.034V6.138H546.78V8.622H549.372V10.116H546.78V15.714C546.78 16.014 546.81 16.26 546.87 16.452C546.93 16.632 547.014 16.77 547.122 16.866C547.242 16.962 547.38 17.028 547.536 17.064C547.692 17.1 547.86 17.118 548.04 17.118C548.472 17.118 548.904 17.04 549.336 16.884L549.606 18.288C549.402 18.372 549.132 18.444 548.796 18.504C548.46 18.576 548.118 18.612 547.77 18.612C546.834 18.612 546.144 18.378 545.7 17.91C545.256 17.442 545.034 16.71 545.034 15.714V10.116Z" fill="black"/>
<path d="M658.872 17.01C658.224 17.634 657.516 18.066 656.748 18.306C655.98 18.546 655.158 18.666 654.282 18.666C653.502 18.666 652.794 18.546 652.158 18.306C651.522 18.078 650.976 17.724 650.52 17.244C650.064 16.764 649.71 16.17 649.458 15.462C649.206 14.754 649.08 13.92 649.08 12.96V10.998C649.08 10.05 649.206 9.222 649.458 8.514C649.71 7.806 650.064 7.212 650.52 6.732C650.988 6.252 651.54 5.892 652.176 5.652C652.812 5.412 653.514 5.292 654.282 5.292C655.182 5.292 655.968 5.406 656.64 5.634C657.312 5.85 657.954 6.198 658.566 6.678L657.648 8.136C657.06 7.656 656.496 7.338 655.956 7.182C655.428 7.026 654.87 6.948 654.282 6.948C653.79 6.948 653.334 7.032 652.914 7.2C652.506 7.368 652.146 7.626 651.834 7.974C651.534 8.322 651.3 8.766 651.132 9.306C650.964 9.846 650.88 10.488 650.88 11.232V12.726C650.88 13.47 650.964 14.112 651.132 14.652C651.3 15.192 651.534 15.636 651.834 15.984C652.146 16.332 652.506 16.59 652.914 16.758C653.334 16.926 653.79 17.01 654.282 17.01C654.906 17.01 655.53 16.914 656.154 16.722C656.778 16.53 657.36 16.17 657.9 15.642L658.872 17.01ZM664.7 8.442C666.056 8.442 667.124 8.832 667.904 9.612C668.696 10.392 669.092 11.496 669.092 12.924V14.13C669.092 15.558 668.696 16.662 667.904 17.442C667.124 18.222 666.056 18.612 664.7 18.612C663.344 18.612 662.27 18.222 661.478 17.442C660.698 16.662 660.308 15.558 660.308 14.13V12.924C660.308 11.484 660.698 10.38 661.478 9.612C662.27 8.832 663.344 8.442 664.7 8.442ZM664.7 17.082C665.48 17.082 666.11 16.83 666.59 16.326C667.082 15.81 667.328 15.03 667.328 13.986V13.068C667.328 12.024 667.082 11.25 666.59 10.746C666.11 10.23 665.48 9.972 664.7 9.972C663.92 9.972 663.284 10.23 662.792 10.746C662.312 11.25 662.072 12.024 662.072 13.068V13.986C662.072 15.03 662.312 15.81 662.792 16.326C663.284 16.83 663.92 17.082 664.7 17.082ZM679.512 18.468H677.766V12.348C677.766 11.52 677.592 10.92 677.244 10.548C676.896 10.176 676.356 9.99 675.624 9.99C675.324 9.99 675.024 10.044 674.724 10.152C674.436 10.248 674.172 10.398 673.932 10.602C673.704 10.794 673.512 11.04 673.356 11.34C673.212 11.64 673.14 11.982 673.14 12.366V18.468H671.394V8.622H673.086V9.864H673.104C673.404 9.408 673.8 9.06 674.292 8.82C674.784 8.568 675.372 8.442 676.056 8.442C676.536 8.442 676.986 8.514 677.406 8.658C677.826 8.802 678.192 9.018 678.504 9.306C678.816 9.594 679.062 9.96 679.242 10.404C679.422 10.848 679.512 11.364 679.512 11.952V18.468ZM682.854 10.116H681.234V8.622H682.854V7.65C682.854 6.654 683.094 5.922 683.574 5.454C684.066 4.986 684.78 4.752 685.716 4.752C686.028 4.752 686.346 4.776 686.67 4.824C687.006 4.872 687.276 4.932 687.48 5.004L687.21 6.426C686.778 6.306 686.334 6.246 685.878 6.246C685.71 6.246 685.548 6.264 685.392 6.3C685.236 6.336 685.098 6.408 684.978 6.516C684.87 6.612 684.78 6.756 684.708 6.948C684.636 7.14 684.6 7.398 684.6 7.722V8.622H687.192V10.116H684.6V18.468H682.854V10.116ZM690.913 8.622V18.468H689.167V8.622H690.913ZM690.967 5.094V7.002H689.113V5.094H690.967ZM699.135 10.332C698.967 10.26 698.781 10.206 698.577 10.17C698.385 10.122 698.169 10.098 697.929 10.098C697.605 10.098 697.293 10.164 696.993 10.296C696.705 10.416 696.453 10.596 696.237 10.836C696.021 11.064 695.847 11.34 695.715 11.664C695.583 11.988 695.517 12.342 695.517 12.726V18.468H693.771V8.622H695.463V10.188H695.481C695.769 9.636 696.141 9.21 696.597 8.91C697.065 8.598 697.659 8.442 698.379 8.442C698.811 8.442 699.237 8.508 699.657 8.64L699.135 10.332ZM714.795 18.468H713.049V12.564C713.049 10.872 712.431 10.026 711.195 10.026C710.919 10.026 710.643 10.074 710.367 10.17C710.103 10.254 709.863 10.392 709.647 10.584C709.431 10.764 709.251 11.004 709.107 11.304C708.975 11.592 708.909 11.934 708.909 12.33V18.468H707.163V12.564C707.163 10.872 706.545 10.026 705.309 10.026C705.033 10.026 704.757 10.068 704.481 10.152C704.217 10.236 703.977 10.368 703.761 10.548C703.545 10.728 703.365 10.962 703.221 11.25C703.089 11.526 703.023 11.856 703.023 12.24V18.468H701.277V8.622H703.005V9.954H703.023C703.215 9.522 703.527 9.162 703.959 8.874C704.403 8.586 704.967 8.442 705.651 8.442C706.311 8.442 706.881 8.586 707.361 8.874C707.853 9.15 708.225 9.552 708.477 10.08C708.789 9.6 709.179 9.21 709.647 8.91C710.127 8.598 710.757 8.442 711.537 8.442C712.557 8.442 713.355 8.754 713.931 9.378C714.507 9.99 714.795 10.866 714.795 12.006V18.468Z" fill="black"/>
<line x1="94" y1="100.5" x2="822" y2="100.5" stroke="#83838F"/>
<line x1="94" y1="39.5" x2="822" y2="39.5" stroke="#83838F"/>
<line x1="94" y1="160.5" x2="822" y2="160.5" stroke="#83838F"/>
<line x1="94" y1="220.5" x2="822" y2="220.5" stroke="#83838F"/>
<line x1="94" y1="280.5" x2="822" y2="280.5" stroke="#83838F"/>
<line x1="188.5" y1="2.18557e-08" x2="188.5" y2="296" stroke="#83838F"/>
<line x1="338.5" y1="2.18557e-08" x2="338.5" y2="296" stroke="#83838F"/>
<line x1="488.5" y1="2.18557e-08" x2="488.5" y2="296" stroke="#83838F"/>
<line x1="638.5" y1="2.18557e-08" x2="638.5" y2="296" stroke="#83838F"/>
<line x1="788.5" y1="2.18557e-08" x2="788.5" y2="296" stroke="#83838F"/>
<path d="M188 101L185.377 95.8566L182.234 100.7L188 101ZM93.7278 40.4194L183.953 98.9698L184.497 98.131L94.2722 39.5806L93.7278 40.4194Z" fill="black"/>
<path d="M338 161L334.456 156.442L332.281 161.791L338 161ZM187.812 100.463L333.643 159.768L334.02 158.842L188.188 99.5368L187.812 100.463Z" fill="black"/>
<path d="M338 221L335.921 215.614L332.296 220.108L338 221ZM187.686 100.389L334.184 218.564L334.811 217.785L188.314 99.6108L187.686 100.389Z" fill="black"/>
<path d="M338 281L337.032 275.308L332.587 278.992L338 281ZM187.615 100.319L334.744 277.854L335.514 277.216L188.385 99.681L187.615 100.319Z" fill="black"/>
<path d="M488 162L484.456 157.442L482.281 162.791L488 162ZM337.812 101.463L483.643 160.768L484.02 159.842L338.188 100.537L337.812 101.463Z" fill="black"/>
<path d="M488 100L482.281 99.2095L484.456 104.558L488 100ZM338.188 161.463L484.02 102.158L483.643 101.232L337.812 160.537L338.188 161.463Z" fill="black"/>
<path d="M488 221L484.43 216.463L482.286 221.823L488 221ZM337.814 161.464L483.636 219.793L484.008 218.865L338.186 160.536L337.814 161.464Z" fill="black"/>
<path d="M488 281L485.899 275.622L482.292 280.131L488 281ZM337.688 161.39L484.174 278.579L484.798 277.798L338.312 160.61L337.688 161.39Z" fill="black"/>
<path d="M488 281L484.43 276.463L482.286 281.823L488 281ZM337.814 221.464L483.636 279.793L484.008 278.865L338.186 220.536L337.814 221.464Z" fill="black"/>
<path d="M488 221L482.286 220.177L484.43 225.537L488 221ZM338.186 281.464L484.008 223.135L483.636 222.207L337.814 280.536L338.186 281.464Z" fill="black"/>
<path d="M488 162L482.289 162.846L485.877 167.369L488 162ZM338.311 281.392L484.785 165.188L484.164 164.405L337.689 280.608L338.311 281.392Z" fill="black"/>
<path d="M488 100L482.587 102.008L487.032 105.692L488 100ZM338.385 281.319L485.514 103.784L484.744 103.146L337.615 280.681L338.385 281.319Z" fill="black"/>
<path d="M488 101L482.292 101.869L485.899 106.378L488 101ZM338.312 221.39L484.798 104.202L484.174 103.421L337.688 220.61L338.312 221.39Z" fill="black"/>
<path d="M488 161L482.286 160.177L484.43 165.537L488 161ZM338.186 221.464L484.008 163.135L483.636 162.207L337.814 220.536L338.186 221.464Z" fill="black"/>
<path d="M488 222L485.921 216.614L482.296 221.108L488 222ZM337.686 101.389L484.184 219.564L484.811 218.785L338.314 100.611L337.686 101.389Z" fill="black"/>
<path d="M488 282L487.032 276.308L482.587 279.992L488 282ZM337.615 101.319L484.744 278.854L485.514 278.216L338.385 100.681L337.615 101.319Z" fill="black"/>
<path d="M639 162L635.456 157.442L633.281 162.791L639 162ZM488.812 101.463L634.643 160.768L635.02 159.842L489.188 100.537L488.812 101.463Z" fill="black"/>
<path d="M639 100L633.281 99.2095L635.456 104.558L639 100ZM489.188 161.463L635.02 102.158L634.643 101.232L488.812 160.537L489.188 161.463Z" fill="black"/>
<path d="M639 221L635.43 216.463L633.286 221.823L639 221ZM488.814 161.464L634.636 219.793L635.008 218.865L489.186 160.536L488.814 161.464Z" fill="black"/>
<path d="M639 281L636.899 275.622L633.292 280.131L639 281ZM488.688 161.39L635.174 278.579L635.798 277.798L489.312 160.61L488.688 161.39Z" fill="black"/>
<path d="M639 281L635.43 276.463L633.286 281.823L639 281ZM488.814 221.464L634.636 279.793L635.008 278.865L489.186 220.536L488.814 221.464Z" fill="black"/>
<path d="M639 221L633.286 220.177L635.43 225.537L639 221ZM489.186 281.464L635.008 223.135L634.636 222.207L488.814 280.536L489.186 281.464Z" fill="black"/>
<path d="M639 162L633.289 162.846L636.877 167.369L639 162ZM489.311 281.392L635.785 165.188L635.164 164.405L488.689 280.608L489.311 281.392Z" fill="black"/>
<path d="M639 100L633.587 102.008L638.032 105.692L639 100ZM489.385 281.319L636.514 103.784L635.744 103.146L488.615 280.681L489.385 281.319Z" fill="black"/>
<path d="M639 101L633.292 101.869L636.899 106.378L639 101ZM489.312 221.39L635.798 104.202L635.174 103.421L488.688 220.61L489.312 221.39Z" fill="black"/>
<path d="M639 161L633.286 160.177L635.43 165.537L639 161ZM489.186 221.464L635.008 163.135L634.636 162.207L488.814 220.536L489.186 221.464Z" fill="black"/>
<path d="M639 222L636.921 216.614L633.296 221.108L639 222ZM488.686 101.389L635.184 219.564L635.811 218.785L489.314 100.611L488.686 101.389Z" fill="black"/>
<path d="M639 282L638.032 276.308L633.587 279.992L639 282ZM488.615 101.319L635.744 278.854L636.514 278.216L489.385 100.681L488.615 101.319Z" fill="black"/>
<path d="M789 162L785.456 157.442L783.281 162.791L789 162ZM638.812 101.463L784.643 160.768L785.02 159.842L639.188 100.537L638.812 101.463Z" fill="black"/>
<path d="M789 281L785.43 276.463L783.286 281.823L789 281ZM638.814 221.464L784.636 279.793L785.008 278.865L639.186 220.536L638.814 221.464Z" fill="black"/>
<path d="M789 221L783.286 220.177L785.43 225.537L789 221ZM639.186 281.464L785.008 223.135L784.636 222.207L638.814 280.536L639.186 281.464Z" fill="black"/>
<path d="M789 162L783.289 162.846L786.877 167.369L789 162ZM639.311 281.392L785.785 165.188L785.164 164.405L638.689 280.608L639.311 281.392Z" fill="black"/>
<path d="M789 100L783.587 102.008L788.032 105.692L789 100ZM639.385 281.319L786.514 103.784L785.744 103.146L638.615 280.681L639.385 281.319Z" fill="black"/>
<path d="M789 101L783.292 101.869L786.899 106.378L789 101ZM639.312 221.39L785.798 104.202L785.174 103.421L638.688 220.61L639.312 221.39Z" fill="black"/>
<path d="M789 161L783.286 160.177L785.43 165.537L789 161ZM639.186 221.464L785.008 163.135L784.636 162.207L638.814 220.536L639.186 221.464Z" fill="black"/>
<path d="M789 222L786.921 216.614L783.296 221.108L789 222ZM638.686 101.389L785.184 219.564L785.811 218.785L639.314 100.611L638.686 101.389Z" fill="black"/>
<path d="M789 282L788.032 276.308L783.587 279.992L789 282ZM638.615 101.319L785.744 278.854L786.514 278.216L639.385 100.681L638.615 101.319Z" fill="black"/>
<path d="M789 100L777.562 98.4189L781.912 109.115L789 100ZM639.377 161.926L781.04 104.317L780.286 102.464L638.623 160.074L639.377 161.926Z" fill="#E94162"/>
<path d="M789 221L781.859 211.926L777.571 222.647L789 221ZM638.629 161.928L780.272 218.586L781.015 216.729L639.371 160.072L638.629 161.928Z" fill="#E94162"/>
<path d="M789 281L784.798 270.245L777.585 279.261L789 281ZM638.375 161.781L781.347 276.159L782.597 274.597L639.625 160.219L638.375 161.781Z" fill="#E94162"/>
</svg>
