<svg width="870" height="293" viewBox="0 0 870 293" fill="none" xmlns="http://www.w3.org/2000/svg">
<circle cx="609" cy="279" r="3" fill="#83838F"/>
<circle cx="598" cy="279" r="3" fill="#83838F"/>
<circle cx="586" cy="279" r="3" fill="#83838F"/>
<path d="M617 263L607 257.226L607 268.774L617 263ZM577 263L587 268.774L587 257.226L577 263ZM608 262L586 262L586 264L608 264L608 262Z" fill="#2C8DFF"/>
<path d="M293 263L283 257.226L283 268.774L293 263ZM253 263L263 268.774L263 257.226L253 263ZM284 262L262 262L262 264L284 264L284 262Z" fill="#2C8DFF"/>
<rect y="243" width="220" height="50" rx="10" fill="#004596"/>
<path d="M70.0898 272.9C69.3698 273.593 68.5831 274.073 67.7298 274.34C66.8764 274.607 65.9631 274.74 64.9898 274.74C64.1231 274.74 63.3364 274.607 62.6298 274.34C61.9231 274.087 61.3164 273.693 60.8098 273.16C60.3031 272.627 59.9098 271.967 59.6298 271.18C59.3498 270.393 59.2098 269.467 59.2098 268.4V266.22C59.2098 265.167 59.3498 264.247 59.6298 263.46C59.9098 262.673 60.3031 262.013 60.8098 261.48C61.3298 260.947 61.9431 260.547 62.6498 260.28C63.3564 260.013 64.1364 259.88 64.9898 259.88C65.9898 259.88 66.8631 260.007 67.6098 260.26C68.3564 260.5 69.0698 260.887 69.7498 261.42L68.7298 263.04C68.0764 262.507 67.4498 262.153 66.8498 261.98C66.2631 261.807 65.6431 261.72 64.9898 261.72C64.4431 261.72 63.9364 261.813 63.4698 262C63.0164 262.187 62.6164 262.473 62.2698 262.86C61.9364 263.247 61.6764 263.74 61.4898 264.34C61.3031 264.94 61.2098 265.653 61.2098 266.48V268.14C61.2098 268.967 61.3031 269.68 61.4898 270.28C61.6764 270.88 61.9364 271.373 62.2698 271.76C62.6164 272.147 63.0164 272.433 63.4698 272.62C63.9364 272.807 64.4431 272.9 64.9898 272.9C65.6831 272.9 66.3764 272.793 67.0698 272.58C67.7631 272.367 68.4098 271.967 69.0098 271.38L70.0898 272.9ZM76.5655 263.38C78.0722 263.38 79.2589 263.813 80.1255 264.68C81.0055 265.547 81.4455 266.773 81.4455 268.36V269.7C81.4455 271.287 81.0055 272.513 80.1255 273.38C79.2589 274.247 78.0722 274.68 76.5655 274.68C75.0589 274.68 73.8655 274.247 72.9855 273.38C72.1189 272.513 71.6855 271.287 71.6855 269.7V268.36C71.6855 266.76 72.1189 265.533 72.9855 264.68C73.8655 263.813 75.0589 263.38 76.5655 263.38ZM76.5655 272.98C77.4322 272.98 78.1322 272.7 78.6655 272.14C79.2122 271.567 79.4855 270.7 79.4855 269.54V268.52C79.4855 267.36 79.2122 266.5 78.6655 265.94C78.1322 265.367 77.4322 265.08 76.5655 265.08C75.6989 265.08 74.9922 265.367 74.4455 265.94C73.9122 266.5 73.6455 267.36 73.6455 268.52V269.54C73.6455 270.7 73.9122 271.567 74.4455 272.14C74.9922 272.7 75.6989 272.98 76.5655 272.98ZM99.0234 274.52H97.0834V267.96C97.0834 266.08 96.3967 265.14 95.0234 265.14C94.7167 265.14 94.41 265.193 94.1034 265.3C93.81 265.393 93.5434 265.547 93.3034 265.76C93.0634 265.96 92.8634 266.227 92.7034 266.56C92.5567 266.88 92.4834 267.26 92.4834 267.7V274.52H90.5434V267.96C90.5434 266.08 89.8567 265.14 88.4834 265.14C88.1767 265.14 87.87 265.187 87.5634 265.28C87.27 265.373 87.0034 265.52 86.7634 265.72C86.5234 265.92 86.3234 266.18 86.1634 266.5C86.0167 266.807 85.9434 267.173 85.9434 267.6V274.52H84.0034V263.58H85.9234V265.06H85.9434C86.1567 264.58 86.5034 264.18 86.9834 263.86C87.4767 263.54 88.1034 263.38 88.8634 263.38C89.5967 263.38 90.23 263.54 90.7634 263.86C91.31 264.167 91.7234 264.613 92.0034 265.2C92.35 264.667 92.7834 264.233 93.3034 263.9C93.8367 263.553 94.5367 263.38 95.4034 263.38C96.5367 263.38 97.4234 263.727 98.0634 264.42C98.7034 265.1 99.0234 266.073 99.0234 267.34V274.52ZM103.872 264.94C104.192 264.38 104.638 263.98 105.212 263.74C105.798 263.5 106.418 263.38 107.072 263.38C108.458 263.38 109.512 263.793 110.232 264.62C110.965 265.447 111.332 266.587 111.332 268.04V269.98C111.332 270.74 111.225 271.413 111.012 272C110.798 272.573 110.498 273.06 110.112 273.46C109.738 273.86 109.278 274.16 108.732 274.36C108.198 274.573 107.605 274.68 106.952 274.68C106.138 274.68 105.485 274.533 104.992 274.24C104.512 273.947 104.158 273.64 103.932 273.32V278.8H101.992V263.58H103.872V264.94ZM103.912 270.62C103.912 270.9 103.978 271.187 104.112 271.48C104.258 271.76 104.458 272.013 104.712 272.24C104.978 272.453 105.285 272.633 105.632 272.78C105.978 272.913 106.365 272.98 106.792 272.98C107.618 272.98 108.258 272.693 108.712 272.12C109.178 271.547 109.412 270.74 109.412 269.7V268.36C109.412 267.32 109.178 266.513 108.712 265.94C108.245 265.367 107.605 265.08 106.792 265.08C106.392 265.08 106.018 265.147 105.672 265.28C105.325 265.413 105.018 265.6 104.752 265.84C104.498 266.08 104.292 266.373 104.132 266.72C103.985 267.053 103.912 267.433 103.912 267.86V270.62ZM116.848 274.68C115.741 274.68 114.861 274.407 114.208 273.86C113.568 273.313 113.248 272.56 113.248 271.6V271.06C113.248 270.127 113.561 269.367 114.188 268.78C114.815 268.193 115.828 267.9 117.228 267.9H120.008V267.26C120.008 266.527 119.828 265.987 119.468 265.64C119.121 265.28 118.548 265.1 117.748 265.1C117.108 265.1 116.548 265.2 116.068 265.4C115.601 265.6 115.115 265.867 114.608 266.2L113.648 264.76C114.181 264.387 114.781 264.067 115.448 263.8C116.115 263.52 116.888 263.38 117.768 263.38C118.381 263.38 118.941 263.46 119.448 263.62C119.955 263.767 120.388 263.993 120.748 264.3C121.121 264.593 121.408 264.96 121.608 265.4C121.821 265.827 121.928 266.313 121.928 266.86V274.52H120.068V273.2H120.048C119.941 273.4 119.795 273.587 119.608 273.76C119.435 273.92 119.241 274.06 119.028 274.18C118.735 274.34 118.415 274.46 118.068 274.54C117.735 274.633 117.328 274.68 116.848 274.68ZM120.008 269.54H117.268C116.508 269.54 115.961 269.687 115.628 269.98C115.308 270.273 115.148 270.68 115.148 271.2V271.48C115.148 272.013 115.335 272.4 115.708 272.64C116.081 272.88 116.528 273 117.048 273C117.528 273 117.941 272.947 118.288 272.84C118.648 272.72 118.975 272.547 119.268 272.32C119.535 272.12 119.721 271.893 119.828 271.64C119.948 271.373 120.008 271.033 120.008 270.62V269.54ZM133.863 274.52H131.923V267.72C131.923 266.8 131.73 266.133 131.343 265.72C130.957 265.307 130.357 265.1 129.543 265.1C129.21 265.1 128.877 265.16 128.543 265.28C128.223 265.387 127.93 265.553 127.663 265.78C127.41 265.993 127.197 266.267 127.023 266.6C126.863 266.933 126.783 267.313 126.783 267.74V274.52H124.843V263.58H126.723V264.96H126.743C127.077 264.453 127.517 264.067 128.063 263.8C128.61 263.52 129.263 263.38 130.023 263.38C130.557 263.38 131.057 263.46 131.523 263.62C131.99 263.78 132.397 264.02 132.743 264.34C133.09 264.66 133.363 265.067 133.563 265.56C133.763 266.053 133.863 266.627 133.863 267.28V274.52ZM140.596 272.32L143.476 263.58H145.516L139.836 279.04L138.076 278.42L139.496 274.68L135.516 263.58H137.616L140.516 272.32H140.596ZM157.443 267.02C157.857 266.567 158.183 266.173 158.423 265.84C158.663 265.507 158.843 265.213 158.963 264.96C159.083 264.693 159.157 264.46 159.183 264.26C159.223 264.047 159.243 263.847 159.243 263.66V263.5C159.243 262.927 159.017 262.48 158.563 262.16C158.123 261.827 157.523 261.66 156.763 261.66C156.497 261.66 156.223 261.693 155.943 261.76C155.677 261.813 155.41 261.92 155.143 262.08C154.877 262.24 154.617 262.46 154.363 262.74C154.11 263.007 153.863 263.347 153.623 263.76L152.103 262.78C152.277 262.473 152.49 262.153 152.743 261.82C152.997 261.473 153.303 261.16 153.663 260.88C154.037 260.587 154.47 260.347 154.963 260.16C155.47 259.973 156.057 259.88 156.723 259.88C157.457 259.88 158.103 259.973 158.663 260.16C159.223 260.333 159.69 260.58 160.063 260.9C160.45 261.22 160.737 261.607 160.923 262.06C161.123 262.5 161.223 262.98 161.223 263.5V263.7C161.223 264.487 161.017 265.227 160.603 265.92C160.19 266.613 159.657 267.307 159.003 268L154.503 272.8H161.743V274.52H152.063V272.86L157.443 267.02Z" fill="white"/>
<rect x="325" y="243" width="220" height="50" rx="10" fill="#004596"/>
<path d="M395.09 272.9C394.37 273.593 393.583 274.073 392.73 274.34C391.876 274.607 390.963 274.74 389.99 274.74C389.123 274.74 388.336 274.607 387.63 274.34C386.923 274.087 386.316 273.693 385.81 273.16C385.303 272.627 384.91 271.967 384.63 271.18C384.35 270.393 384.21 269.467 384.21 268.4V266.22C384.21 265.167 384.35 264.247 384.63 263.46C384.91 262.673 385.303 262.013 385.81 261.48C386.33 260.947 386.943 260.547 387.65 260.28C388.356 260.013 389.136 259.88 389.99 259.88C390.99 259.88 391.863 260.007 392.61 260.26C393.356 260.5 394.07 260.887 394.75 261.42L393.73 263.04C393.076 262.507 392.45 262.153 391.85 261.98C391.263 261.807 390.643 261.72 389.99 261.72C389.443 261.72 388.936 261.813 388.47 262C388.016 262.187 387.616 262.473 387.27 262.86C386.936 263.247 386.676 263.74 386.49 264.34C386.303 264.94 386.21 265.653 386.21 266.48V268.14C386.21 268.967 386.303 269.68 386.49 270.28C386.676 270.88 386.936 271.373 387.27 271.76C387.616 272.147 388.016 272.433 388.47 272.62C388.936 272.807 389.443 272.9 389.99 272.9C390.683 272.9 391.376 272.793 392.07 272.58C392.763 272.367 393.41 271.967 394.01 271.38L395.09 272.9ZM401.566 263.38C403.072 263.38 404.259 263.813 405.126 264.68C406.006 265.547 406.446 266.773 406.446 268.36V269.7C406.446 271.287 406.006 272.513 405.126 273.38C404.259 274.247 403.072 274.68 401.566 274.68C400.059 274.68 398.866 274.247 397.986 273.38C397.119 272.513 396.686 271.287 396.686 269.7V268.36C396.686 266.76 397.119 265.533 397.986 264.68C398.866 263.813 400.059 263.38 401.566 263.38ZM401.566 272.98C402.432 272.98 403.132 272.7 403.666 272.14C404.212 271.567 404.486 270.7 404.486 269.54V268.52C404.486 267.36 404.212 266.5 403.666 265.94C403.132 265.367 402.432 265.08 401.566 265.08C400.699 265.08 399.992 265.367 399.446 265.94C398.912 266.5 398.646 267.36 398.646 268.52V269.54C398.646 270.7 398.912 271.567 399.446 272.14C399.992 272.7 400.699 272.98 401.566 272.98ZM424.023 274.52H422.083V267.96C422.083 266.08 421.397 265.14 420.023 265.14C419.717 265.14 419.41 265.193 419.103 265.3C418.81 265.393 418.543 265.547 418.303 265.76C418.063 265.96 417.863 266.227 417.703 266.56C417.557 266.88 417.483 267.26 417.483 267.7V274.52H415.543V267.96C415.543 266.08 414.857 265.14 413.483 265.14C413.177 265.14 412.87 265.187 412.563 265.28C412.27 265.373 412.003 265.52 411.763 265.72C411.523 265.92 411.323 266.18 411.163 266.5C411.017 266.807 410.943 267.173 410.943 267.6V274.52H409.003V263.58H410.923V265.06H410.943C411.157 264.58 411.503 264.18 411.983 263.86C412.477 263.54 413.103 263.38 413.863 263.38C414.597 263.38 415.23 263.54 415.763 263.86C416.31 264.167 416.723 264.613 417.003 265.2C417.35 264.667 417.783 264.233 418.303 263.9C418.837 263.553 419.537 263.38 420.403 263.38C421.537 263.38 422.423 263.727 423.063 264.42C423.703 265.1 424.023 266.073 424.023 267.34V274.52ZM428.872 264.94C429.192 264.38 429.638 263.98 430.212 263.74C430.798 263.5 431.418 263.38 432.072 263.38C433.458 263.38 434.512 263.793 435.232 264.62C435.965 265.447 436.332 266.587 436.332 268.04V269.98C436.332 270.74 436.225 271.413 436.012 272C435.798 272.573 435.498 273.06 435.112 273.46C434.738 273.86 434.278 274.16 433.732 274.36C433.198 274.573 432.605 274.68 431.952 274.68C431.138 274.68 430.485 274.533 429.992 274.24C429.512 273.947 429.158 273.64 428.932 273.32V278.8H426.992V263.58H428.872V264.94ZM428.912 270.62C428.912 270.9 428.978 271.187 429.112 271.48C429.258 271.76 429.458 272.013 429.712 272.24C429.978 272.453 430.285 272.633 430.632 272.78C430.978 272.913 431.365 272.98 431.792 272.98C432.618 272.98 433.258 272.693 433.712 272.12C434.178 271.547 434.412 270.74 434.412 269.7V268.36C434.412 267.32 434.178 266.513 433.712 265.94C433.245 265.367 432.605 265.08 431.792 265.08C431.392 265.08 431.018 265.147 430.672 265.28C430.325 265.413 430.018 265.6 429.752 265.84C429.498 266.08 429.292 266.373 429.132 266.72C428.985 267.053 428.912 267.433 428.912 267.86V270.62ZM441.848 274.68C440.741 274.68 439.861 274.407 439.208 273.86C438.568 273.313 438.248 272.56 438.248 271.6V271.06C438.248 270.127 438.561 269.367 439.188 268.78C439.815 268.193 440.828 267.9 442.228 267.9H445.008V267.26C445.008 266.527 444.828 265.987 444.468 265.64C444.121 265.28 443.548 265.1 442.748 265.1C442.108 265.1 441.548 265.2 441.068 265.4C440.601 265.6 440.115 265.867 439.608 266.2L438.648 264.76C439.181 264.387 439.781 264.067 440.448 263.8C441.115 263.52 441.888 263.38 442.768 263.38C443.381 263.38 443.941 263.46 444.448 263.62C444.955 263.767 445.388 263.993 445.748 264.3C446.121 264.593 446.408 264.96 446.608 265.4C446.821 265.827 446.928 266.313 446.928 266.86V274.52H445.068V273.2H445.048C444.941 273.4 444.795 273.587 444.608 273.76C444.435 273.92 444.241 274.06 444.028 274.18C443.735 274.34 443.415 274.46 443.068 274.54C442.735 274.633 442.328 274.68 441.848 274.68ZM445.008 269.54H442.268C441.508 269.54 440.961 269.687 440.628 269.98C440.308 270.273 440.148 270.68 440.148 271.2V271.48C440.148 272.013 440.335 272.4 440.708 272.64C441.081 272.88 441.528 273 442.048 273C442.528 273 442.941 272.947 443.288 272.84C443.648 272.72 443.975 272.547 444.268 272.32C444.535 272.12 444.721 271.893 444.828 271.64C444.948 271.373 445.008 271.033 445.008 270.62V269.54ZM458.863 274.52H456.923V267.72C456.923 266.8 456.73 266.133 456.343 265.72C455.957 265.307 455.357 265.1 454.543 265.1C454.21 265.1 453.877 265.16 453.543 265.28C453.223 265.387 452.93 265.553 452.663 265.78C452.41 265.993 452.197 266.267 452.023 266.6C451.863 266.933 451.783 267.313 451.783 267.74V274.52H449.843V263.58H451.723V264.96H451.743C452.077 264.453 452.517 264.067 453.063 263.8C453.61 263.52 454.263 263.38 455.023 263.38C455.557 263.38 456.057 263.46 456.523 263.62C456.99 263.78 457.397 264.02 457.743 264.34C458.09 264.66 458.363 265.067 458.563 265.56C458.763 266.053 458.863 266.627 458.863 267.28V274.52ZM465.596 272.32L468.476 263.58H470.516L464.836 279.04L463.076 278.42L464.496 274.68L460.516 263.58H462.616L465.516 272.32H465.596ZM477.283 262.04C477.497 261.747 477.73 261.467 477.983 261.2C478.25 260.933 478.55 260.707 478.883 260.52C479.23 260.32 479.61 260.167 480.023 260.06C480.45 259.94 480.937 259.88 481.483 259.88C482.15 259.88 482.75 259.967 483.283 260.14C483.817 260.313 484.27 260.56 484.643 260.88C485.03 261.187 485.323 261.567 485.523 262.02C485.737 262.46 485.843 262.947 485.843 263.48V263.68C485.843 263.96 485.81 264.26 485.743 264.58C485.677 264.9 485.557 265.207 485.383 265.5C485.21 265.793 484.977 266.067 484.683 266.32C484.39 266.573 484.023 266.78 483.583 266.94C484.557 267.113 485.283 267.5 485.763 268.1C486.257 268.7 486.503 269.42 486.503 270.26V270.56C486.503 271.093 486.403 271.613 486.203 272.12C486.017 272.613 485.717 273.06 485.303 273.46C484.903 273.847 484.383 274.153 483.743 274.38C483.103 274.62 482.343 274.74 481.463 274.74C480.623 274.74 479.81 274.607 479.023 274.34C478.25 274.087 477.523 273.687 476.843 273.14L477.823 271.56C478.53 272.067 479.157 272.427 479.703 272.64C480.25 272.84 480.837 272.94 481.463 272.94C481.983 272.94 482.437 272.88 482.823 272.76C483.21 272.627 483.53 272.453 483.783 272.24C484.037 272.027 484.223 271.78 484.343 271.5C484.463 271.207 484.523 270.9 484.523 270.58V270.32C484.523 269.84 484.443 269.447 484.283 269.14C484.137 268.82 483.93 268.567 483.663 268.38C483.397 268.193 483.077 268.06 482.703 267.98C482.343 267.9 481.957 267.86 481.543 267.86H479.763V266.14H481.463C481.917 266.14 482.297 266.073 482.603 265.94C482.91 265.793 483.157 265.607 483.343 265.38C483.53 265.153 483.663 264.893 483.743 264.6C483.837 264.307 483.883 264.007 483.883 263.7V263.54C483.883 263.22 483.817 262.947 483.683 262.72C483.563 262.48 483.397 262.28 483.183 262.12C482.97 261.96 482.717 261.84 482.423 261.76C482.13 261.68 481.823 261.64 481.503 261.64C480.903 261.64 480.383 261.753 479.943 261.98C479.503 262.207 479.09 262.573 478.703 263.08L477.283 262.04Z" fill="white"/>
<rect x="650" y="243" width="220" height="50" rx="10" fill="#004596"/>
<path d="M719.182 272.9C718.462 273.593 717.675 274.073 716.822 274.34C715.968 274.607 715.055 274.74 714.082 274.74C713.215 274.74 712.428 274.607 711.722 274.34C711.015 274.087 710.408 273.693 709.902 273.16C709.395 272.627 709.002 271.967 708.722 271.18C708.442 270.393 708.302 269.467 708.302 268.4V266.22C708.302 265.167 708.442 264.247 708.722 263.46C709.002 262.673 709.395 262.013 709.902 261.48C710.422 260.947 711.035 260.547 711.742 260.28C712.448 260.013 713.228 259.88 714.082 259.88C715.082 259.88 715.955 260.007 716.702 260.26C717.448 260.5 718.162 260.887 718.842 261.42L717.822 263.04C717.168 262.507 716.542 262.153 715.942 261.98C715.355 261.807 714.735 261.72 714.082 261.72C713.535 261.72 713.028 261.813 712.562 262C712.108 262.187 711.708 262.473 711.362 262.86C711.028 263.247 710.768 263.74 710.582 264.34C710.395 264.94 710.302 265.653 710.302 266.48V268.14C710.302 268.967 710.395 269.68 710.582 270.28C710.768 270.88 711.028 271.373 711.362 271.76C711.708 272.147 712.108 272.433 712.562 272.62C713.028 272.807 713.535 272.9 714.082 272.9C714.775 272.9 715.468 272.793 716.162 272.58C716.855 272.367 717.502 271.967 718.102 271.38L719.182 272.9ZM725.657 263.38C727.164 263.38 728.351 263.813 729.217 264.68C730.097 265.547 730.537 266.773 730.537 268.36V269.7C730.537 271.287 730.097 272.513 729.217 273.38C728.351 274.247 727.164 274.68 725.657 274.68C724.151 274.68 722.957 274.247 722.077 273.38C721.211 272.513 720.777 271.287 720.777 269.7V268.36C720.777 266.76 721.211 265.533 722.077 264.68C722.957 263.813 724.151 263.38 725.657 263.38ZM725.657 272.98C726.524 272.98 727.224 272.7 727.757 272.14C728.304 271.567 728.577 270.7 728.577 269.54V268.52C728.577 267.36 728.304 266.5 727.757 265.94C727.224 265.367 726.524 265.08 725.657 265.08C724.791 265.08 724.084 265.367 723.537 265.94C723.004 266.5 722.737 267.36 722.737 268.52V269.54C722.737 270.7 723.004 271.567 723.537 272.14C724.084 272.7 724.791 272.98 725.657 272.98ZM748.115 274.52H746.175V267.96C746.175 266.08 745.488 265.14 744.115 265.14C743.808 265.14 743.502 265.193 743.195 265.3C742.902 265.393 742.635 265.547 742.395 265.76C742.155 265.96 741.955 266.227 741.795 266.56C741.648 266.88 741.575 267.26 741.575 267.7V274.52H739.635V267.96C739.635 266.08 738.948 265.14 737.575 265.14C737.268 265.14 736.962 265.187 736.655 265.28C736.362 265.373 736.095 265.52 735.855 265.72C735.615 265.92 735.415 266.18 735.255 266.5C735.108 266.807 735.035 267.173 735.035 267.6V274.52H733.095V263.58H735.015V265.06H735.035C735.248 264.58 735.595 264.18 736.075 263.86C736.568 263.54 737.195 263.38 737.955 263.38C738.688 263.38 739.322 263.54 739.855 263.86C740.402 264.167 740.815 264.613 741.095 265.2C741.442 264.667 741.875 264.233 742.395 263.9C742.928 263.553 743.628 263.38 744.495 263.38C745.628 263.38 746.515 263.727 747.155 264.42C747.795 265.1 748.115 266.073 748.115 267.34V274.52ZM752.963 264.94C753.283 264.38 753.73 263.98 754.303 263.74C754.89 263.5 755.51 263.38 756.163 263.38C757.55 263.38 758.603 263.793 759.323 264.62C760.057 265.447 760.423 266.587 760.423 268.04V269.98C760.423 270.74 760.317 271.413 760.103 272C759.89 272.573 759.59 273.06 759.203 273.46C758.83 273.86 758.37 274.16 757.823 274.36C757.29 274.573 756.697 274.68 756.043 274.68C755.23 274.68 754.577 274.533 754.083 274.24C753.603 273.947 753.25 273.64 753.023 273.32V278.8H751.083V263.58H752.963V264.94ZM753.003 270.62C753.003 270.9 753.07 271.187 753.203 271.48C753.35 271.76 753.55 272.013 753.803 272.24C754.07 272.453 754.377 272.633 754.723 272.78C755.07 272.913 755.457 272.98 755.883 272.98C756.71 272.98 757.35 272.693 757.803 272.12C758.27 271.547 758.503 270.74 758.503 269.7V268.36C758.503 267.32 758.27 266.513 757.803 265.94C757.337 265.367 756.697 265.08 755.883 265.08C755.483 265.08 755.11 265.147 754.763 265.28C754.417 265.413 754.11 265.6 753.843 265.84C753.59 266.08 753.383 266.373 753.223 266.72C753.077 267.053 753.003 267.433 753.003 267.86V270.62ZM765.94 274.68C764.833 274.68 763.953 274.407 763.3 273.86C762.66 273.313 762.34 272.56 762.34 271.6V271.06C762.34 270.127 762.653 269.367 763.28 268.78C763.907 268.193 764.92 267.9 766.32 267.9H769.1V267.26C769.1 266.527 768.92 265.987 768.56 265.64C768.213 265.28 767.64 265.1 766.84 265.1C766.2 265.1 765.64 265.2 765.16 265.4C764.693 265.6 764.207 265.867 763.7 266.2L762.74 264.76C763.273 264.387 763.873 264.067 764.54 263.8C765.207 263.52 765.98 263.38 766.86 263.38C767.473 263.38 768.033 263.46 768.54 263.62C769.047 263.767 769.48 263.993 769.84 264.3C770.213 264.593 770.5 264.96 770.7 265.4C770.913 265.827 771.02 266.313 771.02 266.86V274.52H769.16V273.2H769.14C769.033 273.4 768.887 273.587 768.7 273.76C768.527 273.92 768.333 274.06 768.12 274.18C767.827 274.34 767.507 274.46 767.16 274.54C766.827 274.633 766.42 274.68 765.94 274.68ZM769.1 269.54H766.36C765.6 269.54 765.053 269.687 764.72 269.98C764.4 270.273 764.24 270.68 764.24 271.2V271.48C764.24 272.013 764.427 272.4 764.8 272.64C765.173 272.88 765.62 273 766.14 273C766.62 273 767.033 272.947 767.38 272.84C767.74 272.72 768.067 272.547 768.36 272.32C768.627 272.12 768.813 271.893 768.92 271.64C769.04 271.373 769.1 271.033 769.1 270.62V269.54ZM782.955 274.52H781.015V267.72C781.015 266.8 780.822 266.133 780.435 265.72C780.048 265.307 779.448 265.1 778.635 265.1C778.302 265.1 777.968 265.16 777.635 265.28C777.315 265.387 777.022 265.553 776.755 265.78C776.502 265.993 776.288 266.267 776.115 266.6C775.955 266.933 775.875 267.313 775.875 267.74V274.52H773.935V263.58H775.815V264.96H775.835C776.168 264.453 776.608 264.067 777.155 263.8C777.702 263.52 778.355 263.38 779.115 263.38C779.648 263.38 780.148 263.46 780.615 263.62C781.082 263.78 781.488 264.02 781.835 264.34C782.182 264.66 782.455 265.067 782.655 265.56C782.855 266.053 782.955 266.627 782.955 267.28V274.52ZM789.688 272.32L792.568 263.58H794.608L788.928 279.04L787.168 278.42L788.588 274.68L784.608 263.58H786.708L789.608 272.32H789.688ZM803.795 260.1L809.395 269.82C809.542 270.06 809.702 270.367 809.875 270.74C810.062 271.1 810.242 271.493 810.415 271.92V260.1H812.255V274.52H809.975L804.375 264.84C804.228 264.573 804.062 264.26 803.875 263.9C803.702 263.54 803.528 263.147 803.355 262.72V274.52H801.515V260.1H803.795Z" fill="white"/>
<path d="M735 193L729.226 203H740.774L735 193ZM735 233L740.774 223H729.226L735 233ZM734 202V224H736V202H734Z" fill="#2C8DFF"/>
<path d="M435 193L429.226 203H440.774L435 193ZM435 233L440.774 223H429.226L435 233ZM434 202V224H436V202H434Z" fill="#2C8DFF"/>
<path d="M135 193L129.226 203H140.774L135 193ZM135 233L140.774 223H129.226L135 233ZM134 202V224H136V202H134Z" fill="#2C8DFF"/>
<path d="M0 10C0 4.47716 4.47715 0 10 0H860C865.523 0 870 4.47715 870 10V173C870 178.523 865.523 183 860 183H10C4.47718 183 0 178.523 0 173V10Z" fill="#004596"/>
<rect x="20" y="113" width="830" height="50" fill="white"/>
<path d="M382.886 131.88V142.424H388.661V143.416H381.766V131.88H382.886ZM395.752 138.536V138.392C395.752 137.485 395.544 136.792 395.128 136.312C394.712 135.832 394.126 135.592 393.368 135.592C392.6 135.592 392.003 135.848 391.576 136.36C391.16 136.861 390.952 137.539 390.952 138.392V138.536H395.752ZM396.648 142.568C396.307 142.813 395.88 143.037 395.368 143.24C394.856 143.443 394.238 143.544 393.512 143.544C392.36 143.544 391.464 143.203 390.824 142.52C390.184 141.827 389.864 140.851 389.864 139.592V138.52C389.864 137.293 390.174 136.339 390.792 135.656C391.422 134.973 392.28 134.632 393.368 134.632C394.499 134.632 395.358 134.984 395.944 135.688C396.542 136.381 396.84 137.336 396.84 138.552V139.448H390.952V139.592C390.952 140.552 391.182 141.293 391.64 141.816C392.099 142.328 392.728 142.584 393.528 142.584C394.104 142.584 394.611 142.499 395.048 142.328C395.486 142.157 395.859 141.96 396.168 141.736L396.648 142.568ZM404.505 142.12H404.489C404.244 142.557 403.881 142.877 403.401 143.08C402.932 143.283 402.446 143.384 401.945 143.384C401.444 143.384 400.985 143.299 400.569 143.128C400.153 142.968 399.79 142.733 399.481 142.424C399.172 142.104 398.932 141.715 398.761 141.256C398.59 140.797 398.505 140.275 398.505 139.688V138.328C398.505 137.741 398.59 137.219 398.761 136.76C398.932 136.301 399.166 135.917 399.465 135.608C399.774 135.288 400.137 135.048 400.553 134.888C400.98 134.717 401.438 134.632 401.929 134.632C402.569 134.632 403.102 134.755 403.529 135C403.966 135.245 404.297 135.528 404.521 135.848V134.792H405.593V143.272C405.593 144.499 405.273 145.421 404.633 146.04C404.004 146.669 403.15 146.984 402.073 146.984C401.465 146.984 400.921 146.904 400.441 146.744C399.972 146.584 399.556 146.365 399.193 146.088L399.689 145.24C399.892 145.379 400.084 145.491 400.265 145.576C400.446 145.672 400.628 145.747 400.809 145.8C401.001 145.864 401.198 145.907 401.401 145.928C401.604 145.949 401.828 145.96 402.073 145.96C402.873 145.96 403.476 145.741 403.881 145.304C404.297 144.877 404.505 144.211 404.505 143.304V142.12ZM399.593 139.528C399.593 140.456 399.812 141.171 400.249 141.672C400.686 142.173 401.268 142.424 401.993 142.424C402.345 142.424 402.67 142.381 402.969 142.296C403.278 142.2 403.545 142.061 403.769 141.88C403.993 141.688 404.169 141.453 404.297 141.176C404.436 140.888 404.505 140.552 404.505 140.168V137.736C404.505 137.48 404.441 137.229 404.313 136.984C404.196 136.728 404.025 136.499 403.801 136.296C403.577 136.083 403.31 135.912 403.001 135.784C402.692 135.656 402.356 135.592 401.993 135.592C401.257 135.592 400.67 135.848 400.233 136.36C399.806 136.861 399.593 137.571 399.593 138.488V139.528ZM410.507 143.544C409.685 143.544 409.019 143.325 408.507 142.888C407.995 142.451 407.739 141.848 407.739 141.08V140.728C407.739 140.024 407.995 139.453 408.507 139.016C409.019 138.579 409.776 138.36 410.779 138.36H413.211V137.56C413.211 136.931 413.035 136.451 412.683 136.12C412.341 135.779 411.835 135.608 411.163 135.608C410.693 135.608 410.245 135.693 409.819 135.864C409.392 136.024 408.992 136.232 408.619 136.488L408.091 135.656C408.496 135.379 408.944 135.139 409.435 134.936C409.936 134.733 410.517 134.632 411.179 134.632C412.149 134.632 412.907 134.872 413.451 135.352C414.005 135.832 414.283 136.509 414.283 137.384V143.416H413.227V142.36H413.211C413.125 142.499 412.997 142.643 412.827 142.792C412.667 142.931 412.475 143.059 412.251 143.176C411.76 143.421 411.179 143.544 410.507 143.544ZM413.211 139.272H410.795C410.101 139.272 409.6 139.411 409.291 139.688C408.981 139.965 408.827 140.328 408.827 140.776V141.032C408.827 141.309 408.88 141.549 408.987 141.752C409.093 141.944 409.232 142.104 409.403 142.232C409.584 142.36 409.781 142.456 409.995 142.52C410.219 142.573 410.443 142.6 410.667 142.6C411.008 142.6 411.317 142.557 411.595 142.472C411.872 142.387 412.139 142.264 412.395 142.104C412.629 141.955 412.821 141.773 412.971 141.56C413.131 141.336 413.211 141.059 413.211 140.728V139.272ZM419.87 134.632C420.478 134.632 421.011 134.707 421.47 134.856C421.929 134.995 422.339 135.203 422.702 135.48L422.206 136.328C421.801 136.051 421.411 135.864 421.038 135.768C420.665 135.661 420.275 135.608 419.87 135.608C419.102 135.608 418.499 135.864 418.062 136.376C417.625 136.877 417.406 137.581 417.406 138.488V139.592C417.406 140.541 417.63 141.272 418.078 141.784C418.526 142.296 419.134 142.552 419.902 142.552C420.499 142.552 420.99 142.472 421.374 142.312C421.769 142.141 422.121 141.939 422.43 141.704L422.942 142.568C422.782 142.685 422.606 142.803 422.414 142.92C422.222 143.037 422.003 143.139 421.758 143.224C421.513 143.32 421.235 143.395 420.926 143.448C420.617 143.512 420.27 143.544 419.886 143.544C418.755 143.544 417.875 143.203 417.246 142.52C416.617 141.827 416.302 140.851 416.302 139.592V138.52C416.302 137.891 416.387 137.336 416.558 136.856C416.739 136.365 416.985 135.96 417.294 135.64C417.603 135.309 417.977 135.059 418.414 134.888C418.851 134.717 419.337 134.632 419.87 134.632ZM425.205 134.792L427.877 142.2L430.501 134.792H431.621L427.141 146.984L426.213 146.648L427.317 143.56L424.085 134.792H425.205ZM440.723 142.552C441.171 142.552 441.571 142.499 441.923 142.392C442.285 142.285 442.589 142.141 442.835 141.96C443.091 141.768 443.283 141.555 443.411 141.32C443.539 141.075 443.603 140.824 443.603 140.568V140.232C443.603 139.965 443.56 139.725 443.475 139.512C443.389 139.299 443.235 139.107 443.011 138.936C442.787 138.755 442.477 138.595 442.083 138.456C441.699 138.307 441.197 138.163 440.579 138.024C439.907 137.875 439.341 137.704 438.883 137.512C438.435 137.309 438.072 137.085 437.795 136.84C437.528 136.584 437.336 136.307 437.219 136.008C437.112 135.699 437.059 135.363 437.059 135V134.632C437.059 134.195 437.149 133.8 437.331 133.448C437.523 133.085 437.784 132.776 438.115 132.52C438.456 132.264 438.856 132.067 439.315 131.928C439.784 131.779 440.291 131.704 440.835 131.704C441.613 131.704 442.28 131.8 442.835 131.992C443.389 132.173 443.864 132.403 444.259 132.68L443.731 133.592C443.357 133.325 442.931 133.117 442.451 132.968C441.971 132.808 441.432 132.728 440.835 132.728C440.483 132.728 440.147 132.771 439.827 132.856C439.507 132.941 439.224 133.069 438.979 133.24C438.744 133.4 438.552 133.597 438.403 133.832C438.264 134.067 438.195 134.333 438.195 134.632V134.952C438.195 135.197 438.237 135.421 438.323 135.624C438.419 135.827 438.568 136.008 438.771 136.168C438.984 136.328 439.267 136.477 439.619 136.616C439.971 136.755 440.408 136.883 440.931 137C441.677 137.171 442.296 137.357 442.787 137.56C443.277 137.752 443.667 137.976 443.955 138.232C444.243 138.488 444.445 138.776 444.563 139.096C444.68 139.416 444.739 139.784 444.739 140.2V140.568C444.739 140.984 444.648 141.373 444.467 141.736C444.285 142.099 444.024 142.419 443.683 142.696C443.352 142.973 442.936 143.192 442.435 143.352C441.944 143.512 441.389 143.592 440.771 143.592C440.003 143.592 439.283 143.475 438.611 143.24C437.949 143.016 437.363 142.707 436.851 142.312L437.427 141.368C438.003 141.784 438.563 142.088 439.107 142.28C439.661 142.461 440.2 142.552 440.723 142.552ZM446.986 134.792L449.658 142.2L452.282 134.792H453.402L448.922 146.984L447.994 146.648L449.098 143.56L445.866 134.792H446.986ZM457.688 142.568C458.392 142.568 458.925 142.429 459.288 142.152C459.651 141.875 459.832 141.549 459.832 141.176V141.016C459.832 140.579 459.651 140.248 459.288 140.024C458.936 139.8 458.344 139.608 457.512 139.448C457.075 139.363 456.68 139.261 456.328 139.144C455.976 139.027 455.677 138.877 455.432 138.696C455.187 138.515 454.995 138.301 454.856 138.056C454.717 137.8 454.648 137.496 454.648 137.144V136.92C454.648 136.611 454.712 136.317 454.84 136.04C454.968 135.763 455.16 135.523 455.416 135.32C455.672 135.107 455.992 134.941 456.376 134.824C456.771 134.696 457.235 134.632 457.768 134.632C458.429 134.632 459 134.717 459.48 134.888C459.96 135.048 460.376 135.261 460.728 135.528L460.232 136.344C459.869 136.099 459.501 135.912 459.128 135.784C458.755 135.656 458.291 135.592 457.736 135.592C457.085 135.592 456.589 135.725 456.248 135.992C455.907 136.248 455.736 136.563 455.736 136.936V137.112C455.736 137.485 455.923 137.779 456.296 137.992C456.68 138.205 457.213 138.376 457.896 138.504C458.963 138.707 459.731 138.995 460.2 139.368C460.68 139.741 460.92 140.275 460.92 140.968V141.208C460.92 141.549 460.84 141.864 460.68 142.152C460.52 142.44 460.296 142.691 460.008 142.904C459.731 143.107 459.4 143.261 459.016 143.368C458.632 143.485 458.211 143.544 457.752 143.544C457.048 143.544 456.419 143.448 455.864 143.256C455.32 143.075 454.845 142.835 454.44 142.536L454.968 141.672C455.363 141.939 455.784 142.157 456.232 142.328C456.691 142.488 457.176 142.568 457.688 142.568ZM463.546 135.72H462.074V134.792H463.546V132.568H464.634V134.792H467.018V135.72H464.634V140.968C464.634 141.555 464.724 141.965 464.906 142.2C465.098 142.435 465.412 142.552 465.85 142.552C466.276 142.552 466.682 142.499 467.066 142.392L467.226 143.288C467.055 143.352 466.826 143.4 466.538 143.432C466.26 143.475 466.004 143.496 465.77 143.496C465.396 143.496 465.066 143.453 464.778 143.368C464.5 143.283 464.271 143.144 464.09 142.952C463.908 142.76 463.77 142.509 463.674 142.2C463.588 141.88 463.546 141.485 463.546 141.016V135.72ZM474.565 138.536V138.392C474.565 137.485 474.357 136.792 473.941 136.312C473.525 135.832 472.938 135.592 472.181 135.592C471.413 135.592 470.816 135.848 470.389 136.36C469.973 136.861 469.765 137.539 469.765 138.392V138.536H474.565ZM475.461 142.568C475.12 142.813 474.693 143.037 474.181 143.24C473.669 143.443 473.05 143.544 472.325 143.544C471.173 143.544 470.277 143.203 469.637 142.52C468.997 141.827 468.677 140.851 468.677 139.592V138.52C468.677 137.293 468.986 136.339 469.605 135.656C470.234 134.973 471.093 134.632 472.181 134.632C473.312 134.632 474.17 134.984 474.757 135.688C475.354 136.381 475.653 137.336 475.653 138.552V139.448H469.765V139.592C469.765 140.552 469.994 141.293 470.453 141.816C470.912 142.328 471.541 142.584 472.341 142.584C472.917 142.584 473.424 142.499 473.861 142.328C474.298 142.157 474.672 141.96 474.981 141.736L475.461 142.568ZM486.516 134.632C487.497 134.632 488.212 134.899 488.66 135.432C489.118 135.965 489.348 136.691 489.348 137.608V143.416H488.26V137.896C488.26 137.544 488.228 137.229 488.164 136.952C488.11 136.675 488.009 136.44 487.86 136.248C487.721 136.045 487.524 135.891 487.268 135.784C487.022 135.677 486.708 135.624 486.324 135.624C485.972 135.624 485.662 135.688 485.396 135.816C485.129 135.944 484.9 136.109 484.708 136.312C484.526 136.515 484.382 136.744 484.276 137C484.18 137.256 484.126 137.507 484.116 137.752V143.416H483.028V137.896C483.028 137.544 482.996 137.229 482.932 136.952C482.878 136.675 482.777 136.44 482.628 136.248C482.489 136.045 482.292 135.891 482.036 135.784C481.79 135.677 481.476 135.624 481.092 135.624C480.74 135.624 480.425 135.693 480.148 135.832C479.87 135.96 479.636 136.131 479.444 136.344C479.262 136.557 479.124 136.792 479.028 137.048C478.932 137.304 478.884 137.56 478.884 137.816V143.416H477.796V134.792H478.868V135.992C478.964 135.821 479.081 135.656 479.22 135.496C479.369 135.325 479.545 135.176 479.748 135.048C479.95 134.92 480.174 134.819 480.42 134.744C480.676 134.669 480.964 134.632 481.284 134.632C481.977 134.632 482.537 134.771 482.964 135.048C483.39 135.315 483.7 135.699 483.892 136.2C483.988 136.019 484.11 135.837 484.26 135.656C484.42 135.464 484.606 135.293 484.82 135.144C485.044 134.995 485.294 134.872 485.572 134.776C485.86 134.68 486.174 134.632 486.516 134.632Z" fill="#2B2B2F"/>
<rect x="20" y="53" width="200" height="50" fill="white"/>
<path d="M75.4843 83.416V71.88H82.3323V72.872H76.6043V77.288H81.9963V78.28H76.6043V83.416H75.4843ZM89.893 78.536V78.392C89.893 77.4853 89.685 76.792 89.269 76.312C88.853 75.832 88.2663 75.592 87.509 75.592C86.741 75.592 86.1437 75.848 85.717 76.36C85.301 76.8613 85.093 77.5387 85.093 78.392V78.536H89.893ZM90.789 82.568C90.4477 82.8133 90.021 83.0373 89.509 83.24C88.997 83.4427 88.3783 83.544 87.653 83.544C86.501 83.544 85.605 83.2027 84.965 82.52C84.325 81.8267 84.005 80.8507 84.005 79.592V78.52C84.005 77.2933 84.3143 76.3387 84.933 75.656C85.5623 74.9733 86.421 74.632 87.509 74.632C88.6397 74.632 89.4983 74.984 90.085 75.688C90.6823 76.3813 90.981 77.336 90.981 78.552V79.448H85.093V79.592C85.093 80.552 85.3223 81.2933 85.781 81.816C86.2397 82.328 86.869 82.584 87.669 82.584C88.245 82.584 88.7517 82.4987 89.189 82.328C89.6263 82.1573 89.9997 81.96 90.309 81.736L90.789 82.568ZM98.6776 82.28H98.6616C98.4163 82.7173 98.0536 83.0373 97.5736 83.24C97.0936 83.4427 96.603 83.544 96.1016 83.544C95.6003 83.544 95.1416 83.4587 94.7256 83.288C94.3096 83.128 93.947 82.8933 93.6376 82.584C93.3283 82.264 93.0883 81.8747 92.9176 81.416C92.747 80.9573 92.6616 80.4347 92.6616 79.848V78.328C92.6616 77.7413 92.747 77.2187 92.9176 76.76C93.0883 76.3013 93.323 75.9173 93.6216 75.608C93.931 75.288 94.2936 75.048 94.7096 74.888C95.1363 74.7173 95.595 74.632 96.0856 74.632C96.7256 74.632 97.259 74.7547 97.6856 75C98.1123 75.2453 98.4376 75.528 98.6616 75.848V71.32H99.7496V83.416H98.6776V82.28ZM93.7496 79.688C93.7496 80.616 93.9683 81.3307 94.4056 81.832C94.843 82.3333 95.4243 82.584 96.1496 82.584C96.5016 82.584 96.827 82.5413 97.1256 82.456C97.435 82.36 97.7016 82.2213 97.9256 82.04C98.1496 81.848 98.3256 81.6133 98.4536 81.336C98.5923 81.048 98.6616 80.712 98.6616 80.328V77.736C98.6616 77.48 98.5976 77.2293 98.4696 76.984C98.3523 76.728 98.1816 76.4987 97.9576 76.296C97.7336 76.0827 97.467 75.912 97.1576 75.784C96.8483 75.656 96.5123 75.592 96.1496 75.592C95.4136 75.592 94.827 75.848 94.3896 76.36C93.963 76.8613 93.7496 77.5707 93.7496 78.488V79.688ZM107.799 78.536V78.392C107.799 77.4853 107.591 76.792 107.175 76.312C106.759 75.832 106.173 75.592 105.415 75.592C104.647 75.592 104.05 75.848 103.623 76.36C103.207 76.8613 102.999 77.5387 102.999 78.392V78.536H107.799ZM108.695 82.568C108.354 82.8133 107.927 83.0373 107.415 83.24C106.903 83.4427 106.285 83.544 105.559 83.544C104.407 83.544 103.511 83.2027 102.871 82.52C102.231 81.8267 101.911 80.8507 101.911 79.592V78.52C101.911 77.2933 102.221 76.3387 102.839 75.656C103.469 74.9733 104.327 74.632 105.415 74.632C106.546 74.632 107.405 74.984 107.991 75.688C108.589 76.3813 108.887 77.336 108.887 78.552V79.448H102.999V79.592C102.999 80.552 103.229 81.2933 103.687 81.816C104.146 82.328 104.775 82.584 105.575 82.584C106.151 82.584 106.658 82.4987 107.095 82.328C107.533 82.1573 107.906 81.96 108.215 81.736L108.695 82.568ZM115.478 75.912C115.179 75.7947 114.833 75.736 114.438 75.736C114.086 75.736 113.766 75.8053 113.478 75.944C113.19 76.0827 112.945 76.2747 112.742 76.52C112.539 76.7653 112.385 77.0587 112.278 77.4C112.171 77.7413 112.118 78.1147 112.118 78.52V83.416H111.03V74.792H112.102V76.312C112.198 76.1093 112.315 75.9067 112.454 75.704C112.603 75.5013 112.779 75.32 112.982 75.16C113.195 75 113.43 74.872 113.686 74.776C113.953 74.68 114.251 74.632 114.582 74.632C114.827 74.632 115.046 74.648 115.238 74.68C115.441 74.7013 115.633 74.744 115.814 74.808L115.478 75.912ZM119.507 83.544C118.685 83.544 118.019 83.3253 117.507 82.888C116.995 82.4507 116.739 81.848 116.739 81.08V80.728C116.739 80.024 116.995 79.4533 117.507 79.016C118.019 78.5787 118.776 78.36 119.779 78.36H122.211V77.56C122.211 76.9307 122.035 76.4507 121.683 76.12C121.341 75.7787 120.835 75.608 120.163 75.608C119.693 75.608 119.245 75.6933 118.819 75.864C118.392 76.024 117.992 76.232 117.619 76.488L117.091 75.656C117.496 75.3787 117.944 75.1387 118.435 74.936C118.936 74.7333 119.517 74.632 120.179 74.632C121.149 74.632 121.907 74.872 122.451 75.352C123.005 75.832 123.283 76.5093 123.283 77.384V83.416H122.227V82.36H122.211C122.125 82.4987 121.997 82.6427 121.827 82.792C121.667 82.9307 121.475 83.0587 121.251 83.176C120.76 83.4213 120.179 83.544 119.507 83.544ZM122.211 79.272H119.795C119.101 79.272 118.6 79.4107 118.291 79.688C117.981 79.9653 117.827 80.328 117.827 80.776V81.032C117.827 81.3093 117.88 81.5493 117.987 81.752C118.093 81.944 118.232 82.104 118.403 82.232C118.584 82.36 118.781 82.456 118.995 82.52C119.219 82.5733 119.443 82.6 119.667 82.6C120.008 82.6 120.317 82.5573 120.595 82.472C120.872 82.3867 121.139 82.264 121.395 82.104C121.629 81.9547 121.821 81.7733 121.971 81.56C122.131 81.336 122.211 81.0587 122.211 80.728V79.272ZM126.374 75.72H124.902V74.792H126.374V72.568H127.462V74.792H129.846V75.72H127.462V80.968C127.462 81.5547 127.553 81.9653 127.734 82.2C127.926 82.4347 128.241 82.552 128.678 82.552C129.105 82.552 129.51 82.4987 129.894 82.392L130.054 83.288C129.883 83.352 129.654 83.4 129.366 83.432C129.089 83.4747 128.833 83.496 128.598 83.496C128.225 83.496 127.894 83.4533 127.606 83.368C127.329 83.2827 127.099 83.144 126.918 82.952C126.737 82.76 126.598 82.5093 126.502 82.2C126.417 81.88 126.374 81.4853 126.374 81.016V75.72ZM137.393 78.536V78.392C137.393 77.4853 137.185 76.792 136.769 76.312C136.353 75.832 135.766 75.592 135.009 75.592C134.241 75.592 133.644 75.848 133.217 76.36C132.801 76.8613 132.593 77.5387 132.593 78.392V78.536H137.393ZM138.289 82.568C137.948 82.8133 137.521 83.0373 137.009 83.24C136.497 83.4427 135.878 83.544 135.153 83.544C134.001 83.544 133.105 83.2027 132.465 82.52C131.825 81.8267 131.505 80.8507 131.505 79.592V78.52C131.505 77.2933 131.814 76.3387 132.433 75.656C133.062 74.9733 133.921 74.632 135.009 74.632C136.14 74.632 136.998 74.984 137.585 75.688C138.182 76.3813 138.481 77.336 138.481 78.552V79.448H132.593V79.592C132.593 80.552 132.822 81.2933 133.281 81.816C133.74 82.328 134.369 82.584 135.169 82.584C135.745 82.584 136.252 82.4987 136.689 82.328C137.126 82.1573 137.5 81.96 137.809 81.736L138.289 82.568ZM146.178 82.28H146.162C145.916 82.7173 145.554 83.0373 145.074 83.24C144.594 83.4427 144.103 83.544 143.602 83.544C143.1 83.544 142.642 83.4587 142.226 83.288C141.81 83.128 141.447 82.8933 141.138 82.584C140.828 82.264 140.588 81.8747 140.418 81.416C140.247 80.9573 140.162 80.4347 140.162 79.848V78.328C140.162 77.7413 140.247 77.2187 140.418 76.76C140.588 76.3013 140.823 75.9173 141.122 75.608C141.431 75.288 141.794 75.048 142.21 74.888C142.636 74.7173 143.095 74.632 143.586 74.632C144.226 74.632 144.759 74.7547 145.186 75C145.612 75.2453 145.938 75.528 146.162 75.848V71.32H147.25V83.416H146.178V82.28ZM141.25 79.688C141.25 80.616 141.468 81.3307 141.906 81.832C142.343 82.3333 142.924 82.584 143.65 82.584C144.002 82.584 144.327 82.5413 144.626 82.456C144.935 82.36 145.202 82.2213 145.426 82.04C145.65 81.848 145.826 81.6133 145.954 81.336C146.092 81.048 146.162 80.712 146.162 80.328V77.736C146.162 77.48 146.098 77.2293 145.97 76.984C145.852 76.728 145.682 76.4987 145.458 76.296C145.234 76.0827 144.967 75.912 144.658 75.784C144.348 75.656 144.012 75.592 143.65 75.592C142.914 75.592 142.327 75.848 141.89 76.36C141.463 76.8613 141.25 77.5707 141.25 78.488V79.688ZM162.707 83.416H161.507L160.227 79.832H155.347L154.035 83.416H152.883L157.171 71.88H158.435L162.707 83.416ZM155.699 78.856H159.875L158.755 75.736C158.681 75.544 158.611 75.3573 158.547 75.176C158.483 74.9947 158.414 74.7973 158.339 74.584C158.265 74.36 158.185 74.1147 158.099 73.848C158.014 73.5707 157.913 73.2453 157.795 72.872C157.689 73.2453 157.593 73.5707 157.507 73.848C157.422 74.1147 157.342 74.36 157.267 74.584C157.193 74.7973 157.123 74.9947 157.059 75.176C156.995 75.3573 156.926 75.544 156.851 75.736L155.699 78.856ZM164.391 71.88H165.511V83.416H164.391V71.88Z" fill="#2B2B2F"/>
<rect x="230" y="53" width="200" height="50" fill="white"/>
<path d="M289.108 71.88C290.569 71.88 291.71 72.3067 292.532 73.16C293.364 74.0027 293.78 75.224 293.78 76.824V78.472C293.78 80.072 293.364 81.2987 292.532 82.152C291.71 82.9947 290.569 83.416 289.108 83.416H285.508V71.88H289.108ZM286.628 82.424H289.124C289.636 82.424 290.11 82.344 290.548 82.184C290.985 82.024 291.358 81.7787 291.668 81.448C291.977 81.1067 292.217 80.6853 292.388 80.184C292.569 79.6827 292.66 79.0853 292.66 78.392V76.904C292.66 76.2213 292.569 75.6293 292.388 75.128C292.217 74.616 291.977 74.1947 291.668 73.864C291.358 73.5227 290.985 73.272 290.548 73.112C290.11 72.952 289.636 72.872 289.124 72.872H286.628V82.424ZM298.483 83.544C297.662 83.544 296.995 83.3253 296.483 82.888C295.971 82.4507 295.715 81.848 295.715 81.08V80.728C295.715 80.024 295.971 79.4533 296.483 79.016C296.995 78.5787 297.753 78.36 298.755 78.36H301.187V77.56C301.187 76.9307 301.011 76.4507 300.659 76.12C300.318 75.7787 299.811 75.608 299.139 75.608C298.67 75.608 298.222 75.6933 297.795 75.864C297.369 76.024 296.969 76.232 296.595 76.488L296.067 75.656C296.473 75.3787 296.921 75.1387 297.411 74.936C297.913 74.7333 298.494 74.632 299.155 74.632C300.126 74.632 300.883 74.872 301.427 75.352C301.982 75.832 302.259 76.5093 302.259 77.384V83.416H301.203V82.36H301.187C301.102 82.4987 300.974 82.6427 300.803 82.792C300.643 82.9307 300.451 83.0587 300.227 83.176C299.737 83.4213 299.155 83.544 298.483 83.544ZM301.187 79.272H298.771C298.078 79.272 297.577 79.4107 297.267 79.688C296.958 79.9653 296.803 80.328 296.803 80.776V81.032C296.803 81.3093 296.857 81.5493 296.963 81.752C297.07 81.944 297.209 82.104 297.379 82.232C297.561 82.36 297.758 82.456 297.971 82.52C298.195 82.5733 298.419 82.6 298.643 82.6C298.985 82.6 299.294 82.5573 299.571 82.472C299.849 82.3867 300.115 82.264 300.371 82.104C300.606 81.9547 300.798 81.7733 300.947 81.56C301.107 81.336 301.187 81.0587 301.187 80.728V79.272ZM305.35 75.72H303.878V74.792H305.35V72.568H306.438V74.792H308.822V75.72H306.438V80.968C306.438 81.5547 306.529 81.9653 306.71 82.2C306.902 82.4347 307.217 82.552 307.654 82.552C308.081 82.552 308.486 82.4987 308.87 82.392L309.03 83.288C308.86 83.352 308.63 83.4 308.342 83.432C308.065 83.4747 307.809 83.496 307.574 83.496C307.201 83.496 306.87 83.4533 306.582 83.368C306.305 83.2827 306.076 83.144 305.894 82.952C305.713 82.76 305.574 82.5093 305.478 82.2C305.393 81.88 305.35 81.4853 305.35 81.016V75.72ZM313.218 83.544C312.396 83.544 311.73 83.3253 311.218 82.888C310.706 82.4507 310.45 81.848 310.45 81.08V80.728C310.45 80.024 310.706 79.4533 311.218 79.016C311.73 78.5787 312.487 78.36 313.49 78.36H315.922V77.56C315.922 76.9307 315.746 76.4507 315.394 76.12C315.052 75.7787 314.546 75.608 313.874 75.608C313.404 75.608 312.956 75.6933 312.53 75.864C312.103 76.024 311.703 76.232 311.33 76.488L310.802 75.656C311.207 75.3787 311.655 75.1387 312.146 74.936C312.647 74.7333 313.228 74.632 313.89 74.632C314.86 74.632 315.618 74.872 316.162 75.352C316.716 75.832 316.994 76.5093 316.994 77.384V83.416H315.938V82.36H315.922C315.836 82.4987 315.708 82.6427 315.538 82.792C315.378 82.9307 315.186 83.0587 314.962 83.176C314.471 83.4213 313.89 83.544 313.218 83.544ZM315.922 79.272H313.506C312.812 79.272 312.311 79.4107 312.002 79.688C311.692 79.9653 311.538 80.328 311.538 80.776V81.032C311.538 81.3093 311.591 81.5493 311.698 81.752C311.804 81.944 311.943 82.104 312.114 82.232C312.295 82.36 312.492 82.456 312.706 82.52C312.93 82.5733 313.154 82.6 313.378 82.6C313.719 82.6 314.028 82.5573 314.306 82.472C314.583 82.3867 314.85 82.264 315.106 82.104C315.34 81.9547 315.532 81.7733 315.682 81.56C315.842 81.336 315.922 81.0587 315.922 80.728V79.272ZM332.309 83.416H331.109L329.829 79.832H324.949L323.637 83.416H322.485L326.773 71.88H328.037L332.309 83.416ZM325.301 78.856H329.477L328.357 75.736C328.282 75.544 328.213 75.3573 328.149 75.176C328.085 74.9947 328.015 74.7973 327.941 74.584C327.866 74.36 327.786 74.1147 327.701 73.848C327.615 73.5707 327.514 73.2453 327.397 72.872C327.29 73.2453 327.194 73.5707 327.109 73.848C327.023 74.1147 326.943 74.36 326.869 74.584C326.794 74.7973 326.725 74.9947 326.661 75.176C326.597 75.3573 326.527 75.544 326.453 75.736L325.301 78.856ZM337.656 74.632C338.648 74.632 339.411 74.904 339.944 75.448C340.488 75.9813 340.76 76.7013 340.76 77.608V83.416H339.672V77.88C339.672 77.5707 339.64 77.2827 339.576 77.016C339.512 76.7387 339.395 76.4987 339.224 76.296C339.064 76.0827 338.84 75.9173 338.552 75.8C338.275 75.6827 337.923 75.624 337.496 75.624C337.133 75.624 336.797 75.6933 336.488 75.832C336.189 75.96 335.933 76.1307 335.72 76.344C335.507 76.5573 335.336 76.792 335.208 77.048C335.091 77.304 335.032 77.56 335.032 77.816V83.416H333.944V74.792H335.016V75.992C335.112 75.832 335.24 75.672 335.4 75.512C335.56 75.3413 335.752 75.192 335.976 75.064C336.2 74.936 336.451 74.8347 336.728 74.76C337.005 74.6747 337.315 74.632 337.656 74.632ZM345.593 83.544C344.771 83.544 344.105 83.3253 343.593 82.888C343.081 82.4507 342.825 81.848 342.825 81.08V80.728C342.825 80.024 343.081 79.4533 343.593 79.016C344.105 78.5787 344.862 78.36 345.865 78.36H348.297V77.56C348.297 76.9307 348.121 76.4507 347.769 76.12C347.427 75.7787 346.921 75.608 346.249 75.608C345.779 75.608 345.331 75.6933 344.905 75.864C344.478 76.024 344.078 76.232 343.705 76.488L343.177 75.656C343.582 75.3787 344.03 75.1387 344.521 74.936C345.022 74.7333 345.603 74.632 346.265 74.632C347.235 74.632 347.993 74.872 348.537 75.352C349.091 75.832 349.369 76.5093 349.369 77.384V83.416H348.313V82.36H348.297C348.211 82.4987 348.083 82.6427 347.913 82.792C347.753 82.9307 347.561 83.0587 347.337 83.176C346.846 83.4213 346.265 83.544 345.593 83.544ZM348.297 79.272H345.881C345.187 79.272 344.686 79.4107 344.377 79.688C344.067 79.9653 343.913 80.328 343.913 80.776V81.032C343.913 81.3093 343.966 81.5493 344.073 81.752C344.179 81.944 344.318 82.104 344.489 82.232C344.67 82.36 344.867 82.456 345.081 82.52C345.305 82.5733 345.529 82.6 345.753 82.6C346.094 82.6 346.403 82.5573 346.681 82.472C346.958 82.3867 347.225 82.264 347.481 82.104C347.715 81.9547 347.907 81.7733 348.057 81.56C348.217 81.336 348.297 81.0587 348.297 80.728V79.272ZM351.788 71.32H352.876V83.416H351.788V71.32ZM355.54 74.792L358.212 82.2L360.836 74.792H361.956L357.476 86.984L356.548 86.648L357.652 83.56L354.42 74.792H355.54ZM366.243 82.568C366.947 82.568 367.48 82.4293 367.843 82.152C368.205 81.8747 368.387 81.5493 368.387 81.176V81.016C368.387 80.5787 368.205 80.248 367.843 80.024C367.491 79.8 366.899 79.608 366.067 79.448C365.629 79.3627 365.235 79.2613 364.883 79.144C364.531 79.0267 364.232 78.8773 363.987 78.696C363.741 78.5147 363.549 78.3013 363.411 78.056C363.272 77.8 363.203 77.496 363.203 77.144V76.92C363.203 76.6107 363.267 76.3173 363.395 76.04C363.523 75.7627 363.715 75.5227 363.971 75.32C364.227 75.1067 364.547 74.9413 364.931 74.824C365.325 74.696 365.789 74.632 366.323 74.632C366.984 74.632 367.555 74.7173 368.035 74.888C368.515 75.048 368.931 75.2613 369.283 75.528L368.787 76.344C368.424 76.0987 368.056 75.912 367.683 75.784C367.309 75.656 366.845 75.592 366.291 75.592C365.64 75.592 365.144 75.7253 364.803 75.992C364.461 76.248 364.291 76.5627 364.291 76.936V77.112C364.291 77.4853 364.477 77.7787 364.851 77.992C365.235 78.2053 365.768 78.376 366.451 78.504C367.517 78.7067 368.285 78.9947 368.755 79.368C369.235 79.7413 369.475 80.2747 369.475 80.968V81.208C369.475 81.5493 369.395 81.864 369.235 82.152C369.075 82.44 368.851 82.6907 368.563 82.904C368.285 83.1067 367.955 83.2613 367.571 83.368C367.187 83.4853 366.765 83.544 366.307 83.544C365.603 83.544 364.973 83.448 364.419 83.256C363.875 83.0747 363.4 82.8347 362.995 82.536L363.523 81.672C363.917 81.9387 364.339 82.1573 364.787 82.328C365.245 82.488 365.731 82.568 366.243 82.568ZM371.476 74.792H372.564V83.416H371.476V74.792ZM371.428 71.928H372.612V73.144H371.428V71.928ZM377.914 82.568C378.618 82.568 379.152 82.4293 379.514 82.152C379.877 81.8747 380.058 81.5493 380.058 81.176V81.016C380.058 80.5787 379.877 80.248 379.514 80.024C379.162 79.8 378.57 79.608 377.738 79.448C377.301 79.3627 376.906 79.2613 376.554 79.144C376.202 79.0267 375.904 78.8773 375.658 78.696C375.413 78.5147 375.221 78.3013 375.082 78.056C374.944 77.8 374.874 77.496 374.874 77.144V76.92C374.874 76.6107 374.938 76.3173 375.066 76.04C375.194 75.7627 375.386 75.5227 375.642 75.32C375.898 75.1067 376.218 74.9413 376.602 74.824C376.997 74.696 377.461 74.632 377.994 74.632C378.656 74.632 379.226 74.7173 379.706 74.888C380.186 75.048 380.602 75.2613 380.954 75.528L380.458 76.344C380.096 76.0987 379.728 75.912 379.354 75.784C378.981 75.656 378.517 75.592 377.962 75.592C377.312 75.592 376.816 75.7253 376.474 75.992C376.133 76.248 375.962 76.5627 375.962 76.936V77.112C375.962 77.4853 376.149 77.7787 376.522 77.992C376.906 78.2053 377.44 78.376 378.122 78.504C379.189 78.7067 379.957 78.9947 380.426 79.368C380.906 79.7413 381.146 80.2747 381.146 80.968V81.208C381.146 81.5493 381.066 81.864 380.906 82.152C380.746 82.44 380.522 82.6907 380.234 82.904C379.957 83.1067 379.626 83.2613 379.242 83.368C378.858 83.4853 378.437 83.544 377.978 83.544C377.274 83.544 376.645 83.448 376.09 83.256C375.546 83.0747 375.072 82.8347 374.666 82.536L375.194 81.672C375.589 81.9387 376.01 82.1573 376.458 82.328C376.917 82.488 377.402 82.568 377.914 82.568Z" fill="#2B2B2F"/>
<rect x="440" y="53" width="200" height="50" fill="white"/>
<path d="M466.258 74.968C466.194 74.8293 466.135 74.712 466.082 74.616C466.029 74.5093 465.981 74.4027 465.938 74.296C465.895 74.1893 465.853 74.0773 465.81 73.96C465.767 73.832 465.725 73.6827 465.682 73.512V83.416H464.578V71.88H465.954L469.858 80.328L473.778 71.88H475.106V83.416H474.002V73.512C473.97 73.6827 473.933 73.832 473.89 73.96C473.858 74.0773 473.821 74.1893 473.778 74.296C473.735 74.4027 473.687 74.5093 473.634 74.616C473.581 74.712 473.522 74.8293 473.458 74.968L470.37 81.496H469.314L466.258 74.968ZM480.054 83.544C479.232 83.544 478.566 83.3253 478.054 82.888C477.542 82.4507 477.286 81.848 477.286 81.08V80.728C477.286 80.024 477.542 79.4533 478.054 79.016C478.566 78.5787 479.323 78.36 480.326 78.36H482.758V77.56C482.758 76.9307 482.582 76.4507 482.23 76.12C481.888 75.7787 481.382 75.608 480.71 75.608C480.24 75.608 479.792 75.6933 479.366 75.864C478.939 76.024 478.539 76.232 478.166 76.488L477.638 75.656C478.043 75.3787 478.491 75.1387 478.982 74.936C479.483 74.7333 480.064 74.632 480.726 74.632C481.696 74.632 482.454 74.872 482.998 75.352C483.552 75.832 483.83 76.5093 483.83 77.384V83.416H482.774V82.36H482.758C482.672 82.4987 482.544 82.6427 482.374 82.792C482.214 82.9307 482.022 83.0587 481.798 83.176C481.307 83.4213 480.726 83.544 480.054 83.544ZM482.758 79.272H480.342C479.648 79.272 479.147 79.4107 478.838 79.688C478.528 79.9653 478.374 80.328 478.374 80.776V81.032C478.374 81.3093 478.427 81.5493 478.534 81.752C478.64 81.944 478.779 82.104 478.95 82.232C479.131 82.36 479.328 82.456 479.542 82.52C479.766 82.5733 479.99 82.6 480.214 82.6C480.555 82.6 480.864 82.5573 481.141 82.472C481.419 82.3867 481.686 82.264 481.942 82.104C482.176 81.9547 482.368 81.7733 482.518 81.56C482.678 81.336 482.758 81.0587 482.758 80.728V79.272ZM489.961 74.632C490.953 74.632 491.715 74.904 492.249 75.448C492.793 75.9813 493.065 76.7013 493.065 77.608V83.416H491.977V77.88C491.977 77.5707 491.945 77.2827 491.881 77.016C491.817 76.7387 491.699 76.4987 491.529 76.296C491.369 76.0827 491.145 75.9173 490.857 75.8C490.579 75.6827 490.227 75.624 489.801 75.624C489.438 75.624 489.102 75.6933 488.793 75.832C488.494 75.96 488.238 76.1307 488.025 76.344C487.811 76.5573 487.641 76.792 487.513 77.048C487.395 77.304 487.337 77.56 487.337 77.816V83.416H486.249V74.792H487.321V75.992C487.417 75.832 487.545 75.672 487.705 75.512C487.865 75.3413 488.057 75.192 488.281 75.064C488.505 74.936 488.755 74.8347 489.033 74.76C489.31 74.6747 489.619 74.632 489.961 74.632ZM497.897 83.544C497.076 83.544 496.409 83.3253 495.897 82.888C495.385 82.4507 495.129 81.848 495.129 81.08V80.728C495.129 80.024 495.385 79.4533 495.897 79.016C496.409 78.5787 497.167 78.36 498.169 78.36H500.601V77.56C500.601 76.9307 500.425 76.4507 500.073 76.12C499.732 75.7787 499.225 75.608 498.553 75.608C498.084 75.608 497.636 75.6933 497.209 75.864C496.783 76.024 496.383 76.232 496.009 76.488L495.481 75.656C495.887 75.3787 496.335 75.1387 496.825 74.936C497.327 74.7333 497.908 74.632 498.569 74.632C499.54 74.632 500.297 74.872 500.841 75.352C501.396 75.832 501.673 76.5093 501.673 77.384V83.416H500.617V82.36H500.601C500.516 82.4987 500.388 82.6427 500.217 82.792C500.057 82.9307 499.865 83.0587 499.641 83.176C499.151 83.4213 498.569 83.544 497.897 83.544ZM500.601 79.272H498.185C497.492 79.272 496.991 79.4107 496.681 79.688C496.372 79.9653 496.217 80.328 496.217 80.776V81.032C496.217 81.3093 496.271 81.5493 496.377 81.752C496.484 81.944 496.623 82.104 496.793 82.232C496.975 82.36 497.172 82.456 497.385 82.52C497.609 82.5733 497.833 82.6 498.057 82.6C498.399 82.6 498.708 82.5573 498.985 82.472C499.263 82.3867 499.529 82.264 499.785 82.104C500.02 81.9547 500.212 81.7733 500.361 81.56C500.521 81.336 500.601 81.0587 500.601 80.728V79.272ZM509.693 82.12H509.677C509.431 82.5573 509.069 82.8773 508.589 83.08C508.119 83.2827 507.634 83.384 507.133 83.384C506.631 83.384 506.173 83.2987 505.757 83.128C505.341 82.968 504.978 82.7333 504.669 82.424C504.359 82.104 504.119 81.7147 503.949 81.256C503.778 80.7973 503.693 80.2747 503.693 79.688V78.328C503.693 77.7413 503.778 77.2187 503.949 76.76C504.119 76.3013 504.354 75.9173 504.653 75.608C504.962 75.288 505.325 75.048 505.741 74.888C506.167 74.7173 506.626 74.632 507.117 74.632C507.757 74.632 508.29 74.7547 508.717 75C509.154 75.2453 509.485 75.528 509.709 75.848V74.792H510.781V83.272C510.781 84.4987 510.461 85.4213 509.821 86.04C509.191 86.6693 508.338 86.984 507.261 86.984C506.653 86.984 506.109 86.904 505.629 86.744C505.159 86.584 504.743 86.3653 504.381 86.088L504.877 85.24C505.079 85.3787 505.271 85.4907 505.453 85.576C505.634 85.672 505.815 85.7467 505.997 85.8C506.189 85.864 506.386 85.9067 506.589 85.928C506.791 85.9493 507.015 85.96 507.261 85.96C508.061 85.96 508.663 85.7413 509.069 85.304C509.485 84.8773 509.693 84.2107 509.693 83.304V82.12ZM504.781 79.528C504.781 80.456 504.999 81.1707 505.437 81.672C505.874 82.1733 506.455 82.424 507.181 82.424C507.533 82.424 507.858 82.3813 508.157 82.296C508.466 82.2 508.733 82.0613 508.957 81.88C509.181 81.688 509.357 81.4533 509.485 81.176C509.623 80.888 509.693 80.552 509.693 80.168V77.736C509.693 77.48 509.629 77.2293 509.501 76.984C509.383 76.728 509.213 76.4987 508.989 76.296C508.765 76.0827 508.498 75.912 508.189 75.784C507.879 75.656 507.543 75.592 507.181 75.592C506.445 75.592 505.858 75.848 505.421 76.36C504.994 76.8613 504.781 77.5707 504.781 78.488V79.528ZM518.846 78.536V78.392C518.846 77.4853 518.638 76.792 518.222 76.312C517.806 75.832 517.219 75.592 516.462 75.592C515.694 75.592 515.097 75.848 514.67 76.36C514.254 76.8613 514.046 77.5387 514.046 78.392V78.536H518.846ZM519.742 82.568C519.401 82.8133 518.974 83.0373 518.462 83.24C517.95 83.4427 517.331 83.544 516.606 83.544C515.454 83.544 514.558 83.2027 513.918 82.52C513.278 81.8267 512.958 80.8507 512.958 79.592V78.52C512.958 77.2933 513.267 76.3387 513.886 75.656C514.515 74.9733 515.374 74.632 516.462 74.632C517.593 74.632 518.451 74.984 519.038 75.688C519.635 76.3813 519.934 77.336 519.934 78.552V79.448H514.046V79.592C514.046 80.552 514.275 81.2933 514.734 81.816C515.193 82.328 515.822 82.584 516.622 82.584C517.198 82.584 517.705 82.4987 518.142 82.328C518.579 82.1573 518.953 81.96 519.262 81.736L519.742 82.568ZM530.797 74.632C531.778 74.632 532.493 74.8987 532.941 75.432C533.4 75.9653 533.629 76.6907 533.629 77.608V83.416H532.541V77.896C532.541 77.544 532.509 77.2293 532.445 76.952C532.392 76.6747 532.29 76.44 532.141 76.248C532.002 76.0453 531.805 75.8907 531.549 75.784C531.304 75.6773 530.989 75.624 530.605 75.624C530.253 75.624 529.944 75.688 529.677 75.816C529.41 75.944 529.181 76.1093 528.989 76.312C528.808 76.5147 528.664 76.744 528.557 77C528.461 77.256 528.408 77.5067 528.397 77.752V83.416H527.309V77.896C527.309 77.544 527.277 77.2293 527.213 76.952C527.16 76.6747 527.058 76.44 526.909 76.248C526.77 76.0453 526.573 75.8907 526.317 75.784C526.072 75.6773 525.757 75.624 525.373 75.624C525.021 75.624 524.706 75.6933 524.429 75.832C524.152 75.96 523.917 76.1307 523.725 76.344C523.544 76.5573 523.405 76.792 523.309 77.048C523.213 77.304 523.165 77.56 523.165 77.816V83.416H522.077V74.792H523.149V75.992C523.245 75.8213 523.362 75.656 523.501 75.496C523.65 75.3253 523.826 75.176 524.029 75.048C524.232 74.92 524.456 74.8187 524.701 74.744C524.957 74.6693 525.245 74.632 525.565 74.632C526.258 74.632 526.818 74.7707 527.245 75.048C527.672 75.3147 527.981 75.6987 528.173 76.2C528.269 76.0187 528.392 75.8373 528.541 75.656C528.701 75.464 528.888 75.2933 529.101 75.144C529.325 74.9947 529.576 74.872 529.853 74.776C530.141 74.68 530.456 74.632 530.797 74.632ZM541.612 78.536V78.392C541.612 77.4853 541.404 76.792 540.988 76.312C540.572 75.832 539.985 75.592 539.228 75.592C538.46 75.592 537.862 75.848 537.436 76.36C537.02 76.8613 536.812 77.5387 536.812 78.392V78.536H541.612ZM542.508 82.568C542.166 82.8133 541.74 83.0373 541.228 83.24C540.716 83.4427 540.097 83.544 539.372 83.544C538.22 83.544 537.324 83.2027 536.684 82.52C536.044 81.8267 535.724 80.8507 535.724 79.592V78.52C535.724 77.2933 536.033 76.3387 536.652 75.656C537.281 74.9733 538.14 74.632 539.228 74.632C540.358 74.632 541.217 74.984 541.804 75.688C542.401 76.3813 542.7 77.336 542.7 78.552V79.448H536.812V79.592C536.812 80.552 537.041 81.2933 537.5 81.816C537.958 82.328 538.588 82.584 539.388 82.584C539.964 82.584 540.47 82.4987 540.908 82.328C541.345 82.1573 541.718 81.96 542.028 81.736L542.508 82.568ZM548.555 74.632C549.547 74.632 550.309 74.904 550.843 75.448C551.387 75.9813 551.659 76.7013 551.659 77.608V83.416H550.571V77.88C550.571 77.5707 550.539 77.2827 550.475 77.016C550.411 76.7387 550.293 76.4987 550.123 76.296C549.963 76.0827 549.739 75.9173 549.451 75.8C549.173 75.6827 548.821 75.624 548.395 75.624C548.032 75.624 547.696 75.6933 547.387 75.832C547.088 75.96 546.832 76.1307 546.619 76.344C546.405 76.5573 546.235 76.792 546.107 77.048C545.989 77.304 545.931 77.56 545.931 77.816V83.416H544.843V74.792H545.914V75.992C546.011 75.832 546.139 75.672 546.299 75.512C546.459 75.3413 546.651 75.192 546.875 75.064C547.099 74.936 547.349 74.8347 547.627 74.76C547.904 74.6747 548.213 74.632 548.555 74.632ZM554.827 75.72H553.355V74.792H554.827V72.568H555.915V74.792H558.299V75.72H555.915V80.968C555.915 81.5547 556.006 81.9653 556.187 82.2C556.379 82.4347 556.694 82.552 557.131 82.552C557.558 82.552 557.963 82.4987 558.347 82.392L558.507 83.288C558.336 83.352 558.107 83.4 557.819 83.432C557.542 83.4747 557.286 83.496 557.051 83.496C556.678 83.496 556.347 83.4533 556.059 83.368C555.782 83.2827 555.552 83.144 555.371 82.952C555.19 82.76 555.051 82.5093 554.955 82.2C554.87 81.88 554.827 81.4853 554.827 81.016V75.72ZM567.91 82.552C568.358 82.552 568.758 82.4987 569.11 82.392C569.473 82.2853 569.777 82.1413 570.022 81.96C570.278 81.768 570.47 81.5547 570.598 81.32C570.726 81.0747 570.79 80.824 570.79 80.568V80.232C570.79 79.9653 570.747 79.7253 570.662 79.512C570.577 79.2987 570.422 79.1067 570.198 78.936C569.974 78.7547 569.665 78.5947 569.27 78.456C568.886 78.3067 568.385 78.1627 567.766 78.024C567.094 77.8747 566.529 77.704 566.07 77.512C565.622 77.3093 565.259 77.0853 564.982 76.84C564.715 76.584 564.523 76.3067 564.406 76.008C564.299 75.6987 564.246 75.3627 564.246 75V74.632C564.246 74.1947 564.337 73.8 564.518 73.448C564.71 73.0853 564.971 72.776 565.302 72.52C565.643 72.264 566.043 72.0667 566.502 71.928C566.971 71.7787 567.478 71.704 568.022 71.704C568.801 71.704 569.467 71.8 570.022 71.992C570.577 72.1733 571.051 72.4027 571.446 72.68L570.918 73.592C570.545 73.3253 570.118 73.1173 569.638 72.968C569.158 72.808 568.619 72.728 568.022 72.728C567.67 72.728 567.334 72.7707 567.014 72.856C566.694 72.9413 566.411 73.0693 566.166 73.24C565.931 73.4 565.739 73.5973 565.59 73.832C565.451 74.0667 565.382 74.3333 565.382 74.632V74.952C565.382 75.1973 565.425 75.4213 565.51 75.624C565.606 75.8267 565.755 76.008 565.958 76.168C566.171 76.328 566.454 76.4773 566.806 76.616C567.158 76.7547 567.595 76.8827 568.118 77C568.865 77.1707 569.483 77.3573 569.974 77.56C570.465 77.752 570.854 77.976 571.142 78.232C571.43 78.488 571.633 78.776 571.75 79.096C571.867 79.416 571.926 79.784 571.926 80.2V80.568C571.926 80.984 571.835 81.3733 571.654 81.736C571.473 82.0987 571.211 82.4187 570.87 82.696C570.539 82.9733 570.123 83.192 569.622 83.352C569.131 83.512 568.577 83.592 567.958 83.592C567.19 83.592 566.47 83.4747 565.798 83.24C565.137 83.016 564.55 82.7067 564.038 82.312L564.614 81.368C565.19 81.784 565.75 82.088 566.294 82.28C566.849 82.4613 567.387 82.552 567.91 82.552ZM574.173 74.792L576.845 82.2L579.469 74.792H580.589L576.109 86.984L575.181 86.648L576.285 83.56L573.053 74.792H574.173ZM584.875 82.568C585.579 82.568 586.113 82.4293 586.475 82.152C586.838 81.8747 587.019 81.5493 587.019 81.176V81.016C587.019 80.5787 586.838 80.248 586.475 80.024C586.123 79.8 585.531 79.608 584.699 79.448C584.262 79.3627 583.867 79.2613 583.515 79.144C583.163 79.0267 582.865 78.8773 582.619 78.696C582.374 78.5147 582.182 78.3013 582.043 78.056C581.905 77.8 581.835 77.496 581.835 77.144V76.92C581.835 76.6107 581.899 76.3173 582.027 76.04C582.155 75.7627 582.347 75.5227 582.603 75.32C582.859 75.1067 583.179 74.9413 583.563 74.824C583.958 74.696 584.422 74.632 584.955 74.632C585.617 74.632 586.187 74.7173 586.667 74.888C587.147 75.048 587.563 75.2613 587.915 75.528L587.419 76.344C587.057 76.0987 586.689 75.912 586.315 75.784C585.942 75.656 585.478 75.592 584.923 75.592C584.273 75.592 583.777 75.7253 583.435 75.992C583.094 76.248 582.923 76.5627 582.923 76.936V77.112C582.923 77.4853 583.11 77.7787 583.483 77.992C583.867 78.2053 584.401 78.376 585.083 78.504C586.15 78.7067 586.918 78.9947 587.387 79.368C587.867 79.7413 588.107 80.2747 588.107 80.968V81.208C588.107 81.5493 588.027 81.864 587.867 82.152C587.707 82.44 587.483 82.6907 587.195 82.904C586.918 83.1067 586.587 83.2613 586.203 83.368C585.819 83.4853 585.398 83.544 584.939 83.544C584.235 83.544 583.606 83.448 583.051 83.256C582.507 83.0747 582.033 82.8347 581.627 82.536L582.155 81.672C582.55 81.9387 582.971 82.1573 583.419 82.328C583.878 82.488 584.363 82.568 584.875 82.568ZM590.733 75.72H589.261V74.792H590.733V72.568H591.821V74.792H594.205V75.72H591.821V80.968C591.821 81.5547 591.912 81.9653 592.093 82.2C592.285 82.4347 592.6 82.552 593.037 82.552C593.464 82.552 593.869 82.4987 594.253 82.392L594.413 83.288C594.243 83.352 594.013 83.4 593.725 83.432C593.448 83.4747 593.192 83.496 592.957 83.496C592.584 83.496 592.253 83.4533 591.965 83.368C591.688 83.2827 591.459 83.144 591.277 82.952C591.096 82.76 590.957 82.5093 590.861 82.2C590.776 81.88 590.733 81.4853 590.733 81.016V75.72ZM601.752 78.536V78.392C601.752 77.4853 601.544 76.792 601.128 76.312C600.712 75.832 600.126 75.592 599.368 75.592C598.6 75.592 598.003 75.848 597.576 76.36C597.16 76.8613 596.952 77.5387 596.952 78.392V78.536H601.752ZM602.648 82.568C602.307 82.8133 601.88 83.0373 601.368 83.24C600.856 83.4427 600.238 83.544 599.512 83.544C598.36 83.544 597.464 83.2027 596.824 82.52C596.184 81.8267 595.864 80.8507 595.864 79.592V78.52C595.864 77.2933 596.174 76.3387 596.792 75.656C597.422 74.9733 598.28 74.632 599.368 74.632C600.499 74.632 601.358 74.984 601.944 75.688C602.542 76.3813 602.84 77.336 602.84 78.552V79.448H596.952V79.592C596.952 80.552 597.182 81.2933 597.64 81.816C598.099 82.328 598.728 82.584 599.528 82.584C600.104 82.584 600.611 82.4987 601.048 82.328C601.486 82.1573 601.859 81.96 602.168 81.736L602.648 82.568ZM613.703 74.632C614.684 74.632 615.399 74.8987 615.847 75.432C616.306 75.9653 616.535 76.6907 616.535 77.608V83.416H615.447V77.896C615.447 77.544 615.415 77.2293 615.351 76.952C615.298 76.6747 615.196 76.44 615.047 76.248C614.908 76.0453 614.711 75.8907 614.455 75.784C614.21 75.6773 613.895 75.624 613.511 75.624C613.159 75.624 612.85 75.688 612.583 75.816C612.316 75.944 612.087 76.1093 611.895 76.312C611.714 76.5147 611.57 76.744 611.463 77C611.367 77.256 611.314 77.5067 611.303 77.752V83.416H610.215V77.896C610.215 77.544 610.183 77.2293 610.119 76.952C610.066 76.6747 609.964 76.44 609.815 76.248C609.676 76.0453 609.479 75.8907 609.223 75.784C608.978 75.6773 608.663 75.624 608.279 75.624C607.927 75.624 607.612 75.6933 607.335 75.832C607.058 75.96 606.823 76.1307 606.631 76.344C606.45 76.5573 606.311 76.792 606.215 77.048C606.119 77.304 606.071 77.56 606.071 77.816V83.416H604.983V74.792H606.055V75.992C606.151 75.8213 606.268 75.656 606.407 75.496C606.556 75.3253 606.732 75.176 606.935 75.048C607.138 74.92 607.362 74.8187 607.607 74.744C607.863 74.6693 608.151 74.632 608.471 74.632C609.164 74.632 609.724 74.7707 610.151 75.048C610.578 75.3147 610.887 75.6987 611.079 76.2C611.175 76.0187 611.298 75.8373 611.447 75.656C611.607 75.464 611.794 75.2933 612.007 75.144C612.231 74.9947 612.482 74.872 612.759 74.776C613.047 74.68 613.362 74.632 613.703 74.632Z" fill="#2B2B2F"/>
<rect x="650" y="53" width="200" height="50" fill="white"/>
<path d="M715.508 71.88H719.188C721.63 71.88 722.852 72.8187 722.852 74.696V75.032C722.852 75.288 722.82 75.5387 722.756 75.784C722.692 76.0187 722.585 76.2373 722.436 76.44C722.297 76.6427 722.105 76.824 721.86 76.984C721.625 77.1333 721.337 77.2507 720.996 77.336C721.7 77.4427 722.27 77.7093 722.708 78.136C723.156 78.5627 723.38 79.176 723.38 79.976V80.376C723.38 81.3253 723.076 82.072 722.468 82.616C721.87 83.1493 720.942 83.416 719.684 83.416H715.508V71.88ZM716.612 82.424H719.588C720.494 82.424 721.161 82.2533 721.588 81.912C722.025 81.56 722.244 81.0427 722.244 80.36V80.008C722.244 79.656 722.196 79.3467 722.1 79.08C722.004 78.8133 721.838 78.5893 721.604 78.408C721.369 78.2267 721.06 78.0933 720.676 78.008C720.292 77.912 719.812 77.864 719.236 77.864H716.612V82.424ZM716.612 72.856V76.92H719.22C720.02 76.92 720.638 76.7813 721.076 76.504C721.513 76.2267 721.732 75.7253 721.732 75V74.712C721.732 74.0293 721.518 73.5493 721.092 73.272C720.676 72.9947 720.014 72.856 719.108 72.856H716.612ZM725.303 71.32H726.391V83.416H725.303V71.32ZM732.208 74.632C733.371 74.632 734.272 74.9733 734.912 75.656C735.552 76.3387 735.872 77.304 735.872 78.552V79.624C735.872 80.872 735.552 81.8373 734.912 82.52C734.272 83.2027 733.371 83.544 732.208 83.544C731.045 83.544 730.144 83.2027 729.504 82.52C728.864 81.8373 728.544 80.872 728.544 79.624V78.552C728.544 77.2933 728.864 76.328 729.504 75.656C730.144 74.9733 731.045 74.632 732.208 74.632ZM732.208 82.584C733.008 82.584 733.632 82.3387 734.08 81.848C734.539 81.3467 734.768 80.584 734.768 79.56V78.616C734.768 77.592 734.539 76.8347 734.08 76.344C733.632 75.8427 733.008 75.592 732.208 75.592C731.408 75.592 730.779 75.8427 730.32 76.344C729.872 76.8347 729.648 77.592 729.648 78.616V79.56C729.648 80.584 729.872 81.3467 730.32 81.848C730.779 82.3387 731.408 82.584 732.208 82.584ZM741.128 74.632C741.736 74.632 742.269 74.7067 742.728 74.856C743.186 74.9947 743.597 75.2027 743.96 75.48L743.464 76.328C743.058 76.0507 742.669 75.864 742.296 75.768C741.922 75.6613 741.533 75.608 741.128 75.608C740.36 75.608 739.757 75.864 739.32 76.376C738.882 76.8773 738.664 77.5813 738.664 78.488V79.592C738.664 80.5413 738.888 81.272 739.336 81.784C739.784 82.296 740.392 82.552 741.16 82.552C741.757 82.552 742.248 82.472 742.632 82.312C743.026 82.1413 743.378 81.9387 743.688 81.704L744.2 82.568C744.04 82.6853 743.864 82.8027 743.672 82.92C743.48 83.0373 743.261 83.1387 743.016 83.224C742.77 83.32 742.493 83.3947 742.184 83.448C741.874 83.512 741.528 83.544 741.144 83.544C740.013 83.544 739.133 83.2027 738.504 82.52C737.874 81.8267 737.56 80.8507 737.56 79.592V78.52C737.56 77.8907 737.645 77.336 737.816 76.856C737.997 76.3653 738.242 75.96 738.552 75.64C738.861 75.3093 739.234 75.0587 739.672 74.888C740.109 74.7173 740.594 74.632 741.128 74.632ZM749.114 78.104L752.874 83.416H751.546L748.346 78.824L746.954 80.168V83.416H745.866V71.32H746.954V78.872L751.114 74.792H752.57L749.114 78.104ZM757.456 74.632C758.064 74.632 758.597 74.7067 759.056 74.856C759.514 74.9947 759.925 75.2027 760.288 75.48L759.792 76.328C759.386 76.0507 758.997 75.864 758.624 75.768C758.25 75.6613 757.861 75.608 757.456 75.608C756.688 75.608 756.085 75.864 755.648 76.376C755.21 76.8773 754.992 77.5813 754.992 78.488V79.592C754.992 80.5413 755.216 81.272 755.664 81.784C756.112 82.296 756.72 82.552 757.488 82.552C758.085 82.552 758.576 82.472 758.96 82.312C759.354 82.1413 759.706 81.9387 760.016 81.704L760.528 82.568C760.368 82.6853 760.192 82.8027 760 82.92C759.808 83.0373 759.589 83.1387 759.344 83.224C759.098 83.32 758.821 83.3947 758.512 83.448C758.202 83.512 757.856 83.544 757.472 83.544C756.341 83.544 755.461 83.2027 754.832 82.52C754.202 81.8267 753.888 80.8507 753.888 79.592V78.52C753.888 77.8907 753.973 77.336 754.144 76.856C754.325 76.3653 754.57 75.96 754.88 75.64C755.189 75.3093 755.562 75.0587 756 74.888C756.437 74.7173 756.922 74.632 757.456 74.632ZM765.906 74.632C766.898 74.632 767.661 74.904 768.194 75.448C768.738 75.9813 769.01 76.7013 769.01 77.608V83.416H767.922V77.88C767.922 77.5707 767.89 77.2827 767.826 77.016C767.762 76.7387 767.645 76.4987 767.474 76.296C767.314 76.0827 767.09 75.9173 766.802 75.8C766.525 75.6827 766.173 75.624 765.746 75.624C765.383 75.624 765.047 75.6933 764.738 75.832C764.439 75.96 764.183 76.1307 763.97 76.344C763.757 76.5573 763.586 76.792 763.458 77.048C763.341 77.304 763.282 77.56 763.282 77.816V83.416H762.194V71.32H763.282V75.992C763.378 75.832 763.506 75.672 763.666 75.512C763.826 75.3413 764.013 75.192 764.226 75.064C764.45 74.936 764.701 74.8347 764.978 74.76C765.255 74.6747 765.565 74.632 765.906 74.632ZM773.843 83.544C773.021 83.544 772.355 83.3253 771.843 82.888C771.331 82.4507 771.075 81.848 771.075 81.08V80.728C771.075 80.024 771.331 79.4533 771.843 79.016C772.355 78.5787 773.112 78.36 774.115 78.36H776.547V77.56C776.547 76.9307 776.371 76.4507 776.019 76.12C775.677 75.7787 775.171 75.608 774.499 75.608C774.029 75.608 773.581 75.6933 773.155 75.864C772.728 76.024 772.328 76.232 771.955 76.488L771.427 75.656C771.832 75.3787 772.28 75.1387 772.771 74.936C773.272 74.7333 773.853 74.632 774.515 74.632C775.485 74.632 776.243 74.872 776.787 75.352C777.341 75.832 777.619 76.5093 777.619 77.384V83.416H776.563V82.36H776.547C776.461 82.4987 776.333 82.6427 776.163 82.792C776.003 82.9307 775.811 83.0587 775.587 83.176C775.096 83.4213 774.515 83.544 773.843 83.544ZM776.547 79.272H774.131C773.437 79.272 772.936 79.4107 772.627 79.688C772.317 79.9653 772.163 80.328 772.163 80.776V81.032C772.163 81.3093 772.216 81.5493 772.323 81.752C772.429 81.944 772.568 82.104 772.739 82.232C772.92 82.36 773.117 82.456 773.331 82.52C773.555 82.5733 773.779 82.6 774.003 82.6C774.344 82.6 774.653 82.5573 774.931 82.472C775.208 82.3867 775.475 82.264 775.731 82.104C775.965 81.9547 776.157 81.7733 776.307 81.56C776.467 81.336 776.547 81.0587 776.547 80.728V79.272ZM780.086 74.792H781.174V83.416H780.086V74.792ZM780.038 71.928H781.222V73.144H780.038V71.928ZM787.5 74.632C788.492 74.632 789.254 74.904 789.788 75.448C790.332 75.9813 790.604 76.7013 790.604 77.608V83.416H789.516V77.88C789.516 77.5707 789.484 77.2827 789.42 77.016C789.356 76.7387 789.238 76.4987 789.068 76.296C788.908 76.0827 788.684 75.9173 788.396 75.8C788.118 75.6827 787.766 75.624 787.34 75.624C786.977 75.624 786.641 75.6933 786.332 75.832C786.033 75.96 785.777 76.1307 785.564 76.344C785.35 76.5573 785.18 76.792 785.052 77.048C784.934 77.304 784.876 77.56 784.876 77.816V83.416H783.788V74.792H784.86V75.992C784.956 75.832 785.084 75.672 785.244 75.512C785.404 75.3413 785.596 75.192 785.82 75.064C786.044 74.936 786.294 74.8347 786.572 74.76C786.849 74.6747 787.158 74.632 787.5 74.632Z" fill="#2B2B2F"/>
<path d="M42.08 35.9C41.36 36.5933 40.5733 37.0733 39.72 37.34C38.8667 37.6067 37.9533 37.74 36.98 37.74C36.1133 37.74 35.3267 37.6067 34.62 37.34C33.9133 37.0867 33.3067 36.6933 32.8 36.16C32.2933 35.6267 31.9 34.9667 31.62 34.18C31.34 33.3933 31.2 32.4667 31.2 31.4V29.22C31.2 28.1667 31.34 27.2467 31.62 26.46C31.9 25.6733 32.2933 25.0133 32.8 24.48C33.32 23.9467 33.9333 23.5467 34.64 23.28C35.3467 23.0133 36.1267 22.88 36.98 22.88C37.98 22.88 38.8533 23.0067 39.6 23.26C40.3467 23.5 41.06 23.8867 41.74 24.42L40.72 26.04C40.0667 25.5067 39.44 25.1533 38.84 24.98C38.2533 24.8067 37.6333 24.72 36.98 24.72C36.4333 24.72 35.9267 24.8133 35.46 25C35.0067 25.1867 34.6067 25.4733 34.26 25.86C33.9267 26.2467 33.6667 26.74 33.48 27.34C33.2933 27.94 33.2 28.6533 33.2 29.48V31.14C33.2 31.9667 33.2933 32.68 33.48 33.28C33.6667 33.88 33.9267 34.3733 34.26 34.76C34.6067 35.1467 35.0067 35.4333 35.46 35.62C35.9267 35.8067 36.4333 35.9 36.98 35.9C37.6733 35.9 38.3667 35.7933 39.06 35.58C39.7533 35.3667 40.4 34.9667 41 34.38L42.08 35.9ZM48.5558 26.38C50.0624 26.38 51.2491 26.8133 52.1158 27.68C52.9958 28.5467 53.4358 29.7733 53.4358 31.36V32.7C53.4358 34.2867 52.9958 35.5133 52.1158 36.38C51.2491 37.2467 50.0624 37.68 48.5558 37.68C47.0491 37.68 45.8558 37.2467 44.9758 36.38C44.1091 35.5133 43.6758 34.2867 43.6758 32.7V31.36C43.6758 29.76 44.1091 28.5333 44.9758 27.68C45.8558 26.8133 47.0491 26.38 48.5558 26.38ZM48.5558 35.98C49.4224 35.98 50.1224 35.7 50.6558 35.14C51.2024 34.5667 51.4758 33.7 51.4758 32.54V31.52C51.4758 30.36 51.2024 29.5 50.6558 28.94C50.1224 28.3667 49.4224 28.08 48.5558 28.08C47.6891 28.08 46.9824 28.3667 46.4358 28.94C45.9024 29.5 45.6358 30.36 45.6358 31.52V32.54C45.6358 33.7 45.9024 34.5667 46.4358 35.14C46.9824 35.7 47.6891 35.98 48.5558 35.98ZM71.0136 37.52H69.0736V30.96C69.0736 29.08 68.3869 28.14 67.0136 28.14C66.7069 28.14 66.4003 28.1933 66.0936 28.3C65.8003 28.3933 65.5336 28.5467 65.2936 28.76C65.0536 28.96 64.8536 29.2267 64.6936 29.56C64.5469 29.88 64.4736 30.26 64.4736 30.7V37.52H62.5336V30.96C62.5336 29.08 61.8469 28.14 60.4736 28.14C60.1669 28.14 59.8603 28.1867 59.5536 28.28C59.2603 28.3733 58.9936 28.52 58.7536 28.72C58.5136 28.92 58.3136 29.18 58.1536 29.5C58.0069 29.8067 57.9336 30.1733 57.9336 30.6V37.52H55.9936V26.58H57.9136V28.06H57.9336C58.1469 27.58 58.4936 27.18 58.9736 26.86C59.4669 26.54 60.0936 26.38 60.8536 26.38C61.5869 26.38 62.2203 26.54 62.7536 26.86C63.3003 27.1667 63.7136 27.6133 63.9936 28.2C64.3403 27.6667 64.7736 27.2333 65.2936 26.9C65.8269 26.5533 66.5269 26.38 67.3936 26.38C68.5269 26.38 69.4136 26.7267 70.0536 27.42C70.6936 28.1 71.0136 29.0733 71.0136 30.34V37.52ZM75.8619 27.94C76.1819 27.38 76.6285 26.98 77.2019 26.74C77.7885 26.5 78.4085 26.38 79.0619 26.38C80.4485 26.38 81.5019 26.7933 82.2219 27.62C82.9552 28.4467 83.3219 29.5867 83.3219 31.04V32.98C83.3219 33.74 83.2152 34.4133 83.0019 35C82.7885 35.5733 82.4885 36.06 82.1019 36.46C81.7285 36.86 81.2685 37.16 80.7219 37.36C80.1885 37.5733 79.5952 37.68 78.9419 37.68C78.1285 37.68 77.4752 37.5333 76.9819 37.24C76.5019 36.9467 76.1485 36.64 75.9219 36.32V41.8H73.9819V26.58H75.8619V27.94ZM75.9019 33.62C75.9019 33.9 75.9685 34.1867 76.1019 34.48C76.2485 34.76 76.4485 35.0133 76.7019 35.24C76.9685 35.4533 77.2752 35.6333 77.6219 35.78C77.9685 35.9133 78.3552 35.98 78.7819 35.98C79.6085 35.98 80.2485 35.6933 80.7019 35.12C81.1685 34.5467 81.4019 33.74 81.4019 32.7V31.36C81.4019 30.32 81.1685 29.5133 80.7019 28.94C80.2352 28.3667 79.5952 28.08 78.7819 28.08C78.3819 28.08 78.0085 28.1467 77.6619 28.28C77.3152 28.4133 77.0085 28.6 76.7419 28.84C76.4885 29.08 76.2819 29.3733 76.1219 29.72C75.9752 30.0533 75.9019 30.4333 75.9019 30.86V33.62ZM88.8383 37.68C87.7316 37.68 86.8516 37.4067 86.1983 36.86C85.5583 36.3133 85.2383 35.56 85.2383 34.6V34.06C85.2383 33.1267 85.5516 32.3667 86.1783 31.78C86.8049 31.1933 87.8183 30.9 89.2183 30.9H91.9983V30.26C91.9983 29.5267 91.8183 28.9867 91.4583 28.64C91.1116 28.28 90.5383 28.1 89.7383 28.1C89.0983 28.1 88.5383 28.2 88.0583 28.4C87.5916 28.6 87.1049 28.8667 86.5983 29.2L85.6383 27.76C86.1716 27.3867 86.7716 27.0667 87.4383 26.8C88.1049 26.52 88.8783 26.38 89.7583 26.38C90.3716 26.38 90.9316 26.46 91.4383 26.62C91.9449 26.7667 92.3783 26.9933 92.7383 27.3C93.1116 27.5933 93.3983 27.96 93.5983 28.4C93.8116 28.8267 93.9183 29.3133 93.9183 29.86V37.52H92.0583V36.2H92.0383C91.9316 36.4 91.7849 36.5867 91.5983 36.76C91.4249 36.92 91.2316 37.06 91.0183 37.18C90.7249 37.34 90.4049 37.46 90.0583 37.54C89.7249 37.6333 89.3183 37.68 88.8383 37.68ZM91.9983 32.54H89.2583C88.4983 32.54 87.9516 32.6867 87.6183 32.98C87.2983 33.2733 87.1383 33.68 87.1383 34.2V34.48C87.1383 35.0133 87.3249 35.4 87.6983 35.64C88.0716 35.88 88.5183 36 89.0383 36C89.5183 36 89.9316 35.9467 90.2783 35.84C90.6383 35.72 90.9649 35.5467 91.2583 35.32C91.5249 35.12 91.7116 34.8933 91.8183 34.64C91.9383 34.3733 91.9983 34.0333 91.9983 33.62V32.54ZM105.853 37.52H103.913V30.72C103.913 29.8 103.72 29.1333 103.333 28.72C102.947 28.3067 102.347 28.1 101.533 28.1C101.2 28.1 100.867 28.16 100.533 28.28C100.213 28.3867 99.9201 28.5533 99.6534 28.78C99.4001 28.9933 99.1868 29.2667 99.0134 29.6C98.8534 29.9333 98.7734 30.3133 98.7734 30.74V37.52H96.8334V26.58H98.7134V27.96H98.7334C99.0668 27.4533 99.5068 27.0667 100.053 26.8C100.6 26.52 101.253 26.38 102.013 26.38C102.547 26.38 103.047 26.46 103.513 26.62C103.98 26.78 104.387 27.02 104.733 27.34C105.08 27.66 105.353 28.0667 105.553 28.56C105.753 29.0533 105.853 29.6267 105.853 30.28V37.52ZM112.586 35.32L115.466 26.58H117.506L111.826 42.04L110.066 41.42L111.486 37.68L107.506 26.58H109.606L112.506 35.32H112.586ZM129.293 37.52V25.42L125.913 27.42L124.973 25.82L129.613 23.1H131.273V37.52H129.293Z" fill="white"/>
</svg>
