<svg width="310" height="165" viewBox="0 0 310 165" fill="none" xmlns="http://www.w3.org/2000/svg">
<path d="M208 135C208 129.477 212.477 125 218 125H300C305.523 125 310 129.477 310 135V155C310 160.523 305.523 165 300 165H218C212.477 165 208 160.523 208 155V135Z" fill="#F59728"/>
<path d="M227.255 132.965H230.583C232.568 132.965 233.56 133.727 233.56 135.253V135.526C233.56 135.734 233.534 135.937 233.482 136.137C233.43 136.327 233.343 136.505 233.222 136.67C233.109 136.834 232.953 136.982 232.754 137.112C232.563 137.233 232.329 137.328 232.052 137.398C232.624 137.484 233.088 137.701 233.443 138.048C233.807 138.394 233.989 138.893 233.989 139.543V139.868C233.989 140.639 233.742 141.246 233.248 141.688C232.763 142.121 232.009 142.338 230.986 142.338H227.255V132.965ZM228.542 141.22H230.505C230.869 141.22 231.185 141.202 231.454 141.168C231.731 141.124 231.957 141.051 232.13 140.947C232.312 140.843 232.446 140.704 232.533 140.531C232.62 140.349 232.663 140.119 232.663 139.842V139.556C232.663 139.27 232.624 139.027 232.546 138.828C232.468 138.628 232.334 138.464 232.143 138.334C231.952 138.204 231.701 138.113 231.389 138.061C231.077 138 230.687 137.97 230.219 137.97H228.542V141.22ZM228.542 134.07V136.917H230.206C230.527 136.917 230.813 136.899 231.064 136.865C231.324 136.83 231.541 136.761 231.714 136.657C231.887 136.553 232.017 136.41 232.104 136.228C232.199 136.046 232.247 135.807 232.247 135.513V135.279C232.247 135.001 232.204 134.785 232.117 134.629C232.039 134.464 231.909 134.343 231.727 134.265C231.554 134.178 231.333 134.126 231.064 134.109C230.795 134.083 230.479 134.07 230.115 134.07H228.542ZM236.716 132.51V142.338H235.455V132.51H236.716ZM241.551 135.097C242.53 135.097 243.302 135.378 243.865 135.942C244.437 136.505 244.723 137.302 244.723 138.334V139.205C244.723 140.236 244.437 141.033 243.865 141.597C243.302 142.16 242.53 142.442 241.551 142.442C240.572 142.442 239.796 142.16 239.224 141.597C238.661 141.033 238.379 140.236 238.379 139.205V138.334C238.379 137.294 238.661 136.496 239.224 135.942C239.796 135.378 240.572 135.097 241.551 135.097ZM241.551 141.337C242.114 141.337 242.569 141.155 242.916 140.791C243.271 140.418 243.449 139.855 243.449 139.101V138.438C243.449 137.684 243.271 137.125 242.916 136.761C242.569 136.388 242.114 136.202 241.551 136.202C240.988 136.202 240.528 136.388 240.173 136.761C239.826 137.125 239.653 137.684 239.653 138.438V139.101C239.653 139.855 239.826 140.418 240.173 140.791C240.528 141.155 240.988 141.337 241.551 141.337ZM249.09 135.097C249.679 135.097 250.16 135.17 250.533 135.318C250.914 135.465 251.252 135.651 251.547 135.877L250.949 136.826C250.619 136.583 250.312 136.423 250.026 136.345C249.748 136.258 249.436 136.215 249.09 136.215C248.856 136.215 248.63 136.254 248.414 136.332C248.197 136.41 248.006 136.535 247.842 136.709C247.677 136.873 247.543 137.086 247.439 137.346C247.343 137.606 247.296 137.918 247.296 138.282V139.179C247.296 139.56 247.343 139.889 247.439 140.167C247.543 140.435 247.677 140.656 247.842 140.83C248.015 140.994 248.21 141.116 248.427 141.194C248.652 141.272 248.882 141.311 249.116 141.311C249.584 141.311 249.969 141.25 250.273 141.129C250.585 141.007 250.866 140.851 251.118 140.661L251.729 141.623C251.477 141.831 251.139 142.017 250.715 142.182C250.29 142.355 249.753 142.442 249.103 142.442C248.115 142.442 247.352 142.156 246.815 141.584C246.286 141.012 246.022 140.214 246.022 139.192V138.295C246.022 137.783 246.095 137.333 246.243 136.943C246.39 136.544 246.594 136.21 246.854 135.942C247.122 135.664 247.443 135.456 247.816 135.318C248.197 135.17 248.622 135.097 249.09 135.097ZM256.12 138.074L259.097 142.338H257.511L255.249 138.958L254.261 139.959V142.338H253V132.51H254.261V138.425L257.303 135.227H258.928L256.12 138.074ZM262.813 135.097C263.403 135.097 263.884 135.17 264.256 135.318C264.638 135.465 264.976 135.651 265.27 135.877L264.672 136.826C264.343 136.583 264.035 136.423 263.749 136.345C263.472 136.258 263.16 136.215 262.813 136.215C262.579 136.215 262.354 136.254 262.137 136.332C261.921 136.41 261.73 136.535 261.565 136.709C261.401 136.873 261.266 137.086 261.162 137.346C261.067 137.606 261.019 137.918 261.019 138.282V139.179C261.019 139.56 261.067 139.889 261.162 140.167C261.266 140.435 261.401 140.656 261.565 140.83C261.739 140.994 261.934 141.116 262.15 141.194C262.376 141.272 262.605 141.311 262.839 141.311C263.307 141.311 263.693 141.25 263.996 141.129C264.308 141.007 264.59 140.851 264.841 140.661L265.452 141.623C265.201 141.831 264.863 142.017 264.438 142.182C264.014 142.355 263.476 142.442 262.826 142.442C261.838 142.442 261.076 142.156 260.538 141.584C260.01 141.012 259.745 140.214 259.745 139.192V138.295C259.745 137.783 259.819 137.333 259.966 136.943C260.114 136.544 260.317 136.21 260.577 135.942C260.846 135.664 261.167 135.456 261.539 135.318C261.921 135.17 262.345 135.097 262.813 135.097ZM272.586 142.338H271.325V137.918C271.325 137.32 271.2 136.886 270.948 136.618C270.697 136.349 270.307 136.215 269.778 136.215C269.562 136.215 269.345 136.254 269.128 136.332C268.92 136.401 268.73 136.509 268.556 136.657C268.392 136.795 268.253 136.973 268.14 137.19C268.036 137.406 267.984 137.653 267.984 137.931V142.338H266.723V132.51H267.984V136.085C268.201 135.764 268.483 135.521 268.829 135.357C269.185 135.183 269.605 135.097 270.09 135.097C270.437 135.097 270.762 135.149 271.065 135.253C271.369 135.357 271.633 135.513 271.858 135.721C272.084 135.929 272.261 136.193 272.391 136.514C272.521 136.834 272.586 137.207 272.586 137.632V142.338ZM276.482 142.442C275.762 142.442 275.19 142.264 274.766 141.909C274.35 141.553 274.142 141.064 274.142 140.44V140.089C274.142 139.482 274.345 138.988 274.753 138.607C275.16 138.225 275.819 138.035 276.729 138.035H278.536V137.619C278.536 137.142 278.419 136.791 278.185 136.566C277.959 136.332 277.587 136.215 277.067 136.215C276.651 136.215 276.287 136.28 275.975 136.41C275.671 136.54 275.355 136.713 275.026 136.93L274.402 135.994C274.748 135.751 275.138 135.543 275.572 135.37C276.005 135.188 276.508 135.097 277.08 135.097C277.478 135.097 277.842 135.149 278.172 135.253C278.501 135.348 278.783 135.495 279.017 135.695C279.259 135.885 279.446 136.124 279.576 136.41C279.714 136.687 279.784 137.003 279.784 137.359V142.338H278.575V141.48H278.562C278.492 141.61 278.397 141.731 278.276 141.844C278.163 141.948 278.037 142.039 277.899 142.117C277.708 142.221 277.5 142.299 277.275 142.351C277.058 142.411 276.794 142.442 276.482 142.442ZM278.536 139.101H276.755C276.261 139.101 275.905 139.196 275.689 139.387C275.481 139.577 275.377 139.842 275.377 140.18V140.362C275.377 140.708 275.498 140.96 275.741 141.116C275.983 141.272 276.274 141.35 276.612 141.35C276.924 141.35 277.192 141.315 277.418 141.246C277.652 141.168 277.864 141.055 278.055 140.908C278.228 140.778 278.349 140.63 278.419 140.466C278.497 140.292 278.536 140.071 278.536 139.803V139.101ZM282.979 135.227V142.338H281.718V135.227H282.979ZM283.018 132.679V134.057H281.679V132.679H283.018ZM290.906 142.338H289.645V137.918C289.645 137.32 289.519 136.886 289.268 136.618C289.016 136.349 288.626 136.215 288.098 136.215C287.881 136.215 287.664 136.254 287.448 136.332C287.24 136.401 287.049 136.509 286.876 136.657C286.711 136.795 286.572 136.973 286.46 137.19C286.356 137.406 286.304 137.653 286.304 137.931V142.338H285.043V135.227H286.265V136.124H286.278C286.494 135.794 286.78 135.543 287.136 135.37C287.491 135.188 287.916 135.097 288.41 135.097C288.756 135.097 289.081 135.149 289.385 135.253C289.688 135.357 289.952 135.513 290.178 135.721C290.403 135.929 290.581 136.193 290.711 136.514C290.841 136.834 290.906 137.207 290.906 137.632V142.338ZM239.306 145.51V155.338H238.045V145.51H239.306ZM242.633 148.227V155.338H241.372V148.227H242.633ZM242.672 145.679V147.057H241.333V145.679H242.672ZM250.56 155.338H249.299V150.918C249.299 150.32 249.173 149.886 248.922 149.618C248.671 149.349 248.281 149.215 247.752 149.215C247.535 149.215 247.319 149.254 247.102 149.332C246.894 149.401 246.703 149.509 246.53 149.657C246.365 149.795 246.227 149.973 246.114 150.19C246.01 150.406 245.958 150.653 245.958 150.931V155.338H244.697V148.227H245.919V149.124H245.932C246.149 148.794 246.435 148.543 246.79 148.37C247.145 148.188 247.57 148.097 248.064 148.097C248.411 148.097 248.736 148.149 249.039 148.253C249.342 148.357 249.607 148.513 249.832 148.721C250.057 148.929 250.235 149.193 250.365 149.514C250.495 149.834 250.56 150.207 250.56 150.632V155.338ZM255.599 151.074L258.576 155.338H256.99L254.728 151.958L253.74 152.959V155.338H252.479V145.51H253.74V151.425L256.782 148.227H258.407L255.599 151.074ZM261.742 155.442C261.023 155.442 260.451 155.264 260.026 154.909C259.61 154.553 259.402 154.064 259.402 153.44V153.089C259.402 152.482 259.606 151.988 260.013 151.607C260.421 151.225 261.079 151.035 261.989 151.035H263.796V150.619C263.796 150.142 263.679 149.791 263.445 149.566C263.22 149.332 262.847 149.215 262.327 149.215C261.911 149.215 261.547 149.28 261.235 149.41C260.932 149.54 260.616 149.713 260.286 149.93L259.662 148.994C260.009 148.751 260.399 148.543 260.832 148.37C261.266 148.188 261.768 148.097 262.34 148.097C262.739 148.097 263.103 148.149 263.432 148.253C263.762 148.348 264.043 148.495 264.277 148.695C264.52 148.885 264.706 149.124 264.836 149.41C264.975 149.687 265.044 150.003 265.044 150.359V155.338H263.835V154.48H263.822C263.753 154.61 263.658 154.731 263.536 154.844C263.424 154.948 263.298 155.039 263.159 155.117C262.969 155.221 262.761 155.299 262.535 155.351C262.319 155.411 262.054 155.442 261.742 155.442ZM263.796 152.101H262.015C261.521 152.101 261.166 152.196 260.949 152.387C260.741 152.577 260.637 152.842 260.637 153.18V153.362C260.637 153.708 260.759 153.96 261.001 154.116C261.244 154.272 261.534 154.35 261.872 154.35C262.184 154.35 262.453 154.315 262.678 154.246C262.912 154.168 263.125 154.055 263.315 153.908C263.489 153.778 263.61 153.63 263.679 153.466C263.757 153.292 263.796 153.071 263.796 152.803V152.101ZM272.659 155.247C272.659 157.24 271.602 158.237 269.487 158.237C269.002 158.237 268.56 158.167 268.161 158.029C267.763 157.89 267.416 157.708 267.121 157.483L267.693 156.495C267.927 156.668 268.2 156.811 268.512 156.924C268.833 157.036 269.171 157.093 269.526 157.093C270.142 157.093 270.605 156.941 270.917 156.638C271.238 156.343 271.398 155.879 271.398 155.247V154.376C271.199 154.714 270.917 154.952 270.553 155.091C270.189 155.238 269.791 155.312 269.357 155.312C268.456 155.312 267.767 155.052 267.29 154.532C266.822 154.003 266.588 153.253 266.588 152.283V151.152C266.588 150.675 266.658 150.246 266.796 149.865C266.935 149.483 267.126 149.163 267.368 148.903C267.62 148.643 267.919 148.443 268.265 148.305C268.612 148.166 268.993 148.097 269.409 148.097C269.955 148.097 270.384 148.192 270.696 148.383C271.017 148.565 271.251 148.76 271.398 148.968V148.227H272.659V155.247ZM271.411 150.71C271.411 150.528 271.364 150.346 271.268 150.164C271.182 149.982 271.052 149.821 270.878 149.683C270.714 149.535 270.514 149.418 270.28 149.332C270.055 149.245 269.808 149.202 269.539 149.202C269.002 149.202 268.582 149.388 268.278 149.761C267.984 150.133 267.836 150.658 267.836 151.334V152.075C267.836 152.751 267.988 153.275 268.291 153.648C268.595 154.02 269.011 154.207 269.539 154.207C269.799 154.207 270.042 154.168 270.267 154.09C270.493 154.003 270.688 153.882 270.852 153.726C271.026 153.57 271.16 153.383 271.255 153.167C271.359 152.941 271.411 152.69 271.411 152.413V150.71ZM277.374 149.176C277.114 149.176 276.872 149.223 276.646 149.319C276.43 149.405 276.239 149.531 276.074 149.696C275.918 149.852 275.793 150.047 275.697 150.281C275.611 150.506 275.567 150.753 275.567 151.022V151.204H279.129V150.97C279.129 150.424 278.973 149.99 278.661 149.67C278.349 149.34 277.92 149.176 277.374 149.176ZM280.182 154.662C279.87 154.878 279.498 155.06 279.064 155.208C278.631 155.364 278.089 155.442 277.439 155.442C276.997 155.442 276.586 155.377 276.204 155.247C275.832 155.125 275.502 154.935 275.216 154.675C274.939 154.406 274.718 154.064 274.553 153.648C274.397 153.232 274.319 152.738 274.319 152.166V151.36C274.319 150.822 274.393 150.35 274.54 149.943C274.696 149.535 274.909 149.197 275.177 148.929C275.455 148.651 275.78 148.443 276.152 148.305C276.525 148.166 276.932 148.097 277.374 148.097C278.284 148.097 279.008 148.374 279.545 148.929C280.083 149.483 280.351 150.268 280.351 151.282V152.231H275.567V152.283C275.567 152.959 275.745 153.474 276.1 153.83C276.456 154.176 276.919 154.35 277.491 154.35C277.959 154.35 278.358 154.293 278.687 154.181C279.025 154.068 279.346 153.912 279.649 153.713L280.182 154.662Z" fill="white"/>
<path d="M257 125L259.887 120H254.113L257 125ZM256.5 107V120.5H257.5V107H256.5Z" fill="#2C8DFF"/>
<path d="M208 77C208 71.4772 212.477 67 218 67H300C305.523 67 310 71.4772 310 77V97C310 102.523 305.523 107 300 107H218C212.477 107 208 102.523 208 97V77Z" fill="#007E68"/>
<path d="M246.681 74.965L244.094 84.338H242.807L240.727 76.681L238.608 84.338H237.295L234.734 74.965H236.086L238.01 82.622L240.103 74.965H241.351L243.444 82.622L245.394 74.965H246.681ZM250.351 78.176C250.091 78.176 249.848 78.2237 249.623 78.319C249.406 78.4057 249.216 78.5313 249.051 78.696C248.895 78.852 248.769 79.047 248.674 79.281C248.587 79.5063 248.544 79.7533 248.544 80.022V80.204H252.106V79.97C252.106 79.424 251.95 78.9907 251.638 78.67C251.326 78.3407 250.897 78.176 250.351 78.176ZM253.159 83.662C252.847 83.8787 252.474 84.0607 252.041 84.208C251.608 84.364 251.066 84.442 250.416 84.442C249.974 84.442 249.562 84.377 249.181 84.247C248.808 84.1257 248.479 83.935 248.193 83.675C247.916 83.4063 247.695 83.064 247.53 82.648C247.374 82.232 247.296 81.738 247.296 81.166V80.36C247.296 79.8227 247.37 79.3503 247.517 78.943C247.673 78.5357 247.885 78.1977 248.154 77.929C248.431 77.6517 248.756 77.4437 249.129 77.305C249.502 77.1663 249.909 77.097 250.351 77.097C251.261 77.097 251.985 77.3743 252.522 77.929C253.059 78.4837 253.328 79.268 253.328 80.282V81.231H248.544V81.283C248.544 81.959 248.722 82.4747 249.077 82.83C249.432 83.1767 249.896 83.35 250.468 83.35C250.936 83.35 251.335 83.2937 251.664 83.181C252.002 83.0683 252.323 82.9123 252.626 82.713L253.159 83.662ZM256.221 78.046C256.446 77.6907 256.741 77.4437 257.105 77.305C257.477 77.1663 257.859 77.097 258.249 77.097C259.15 77.097 259.839 77.3613 260.316 77.89C260.792 78.41 261.031 79.1553 261.031 80.126V81.387C261.031 81.8723 260.961 82.3057 260.823 82.687C260.684 83.0597 260.489 83.376 260.238 83.636C259.995 83.896 259.7 84.0953 259.354 84.234C259.007 84.3727 258.626 84.442 258.21 84.442C257.672 84.442 257.243 84.3467 256.923 84.156C256.602 83.974 256.364 83.7573 256.208 83.506H256.182V84.338H254.96V74.51H256.221V78.046ZM256.208 81.803C256.208 81.985 256.251 82.1713 256.338 82.362C256.433 82.544 256.563 82.7087 256.728 82.856C256.901 82.9947 257.1 83.1117 257.326 83.207C257.551 83.2937 257.802 83.337 258.08 83.337C258.617 83.337 259.033 83.1507 259.328 82.778C259.631 82.4053 259.783 81.881 259.783 81.205V80.334C259.783 79.658 259.631 79.1337 259.328 78.761C259.024 78.3883 258.608 78.202 258.08 78.202C257.82 78.202 257.577 78.2453 257.352 78.332C257.126 78.4187 256.927 78.54 256.754 78.696C256.589 78.852 256.455 79.0427 256.351 79.268C256.255 79.4847 256.208 79.7317 256.208 80.009V81.803ZM265.915 76.226C266.054 76.0353 266.205 75.8533 266.37 75.68C266.543 75.5067 266.738 75.3593 266.955 75.238C267.18 75.108 267.427 75.0083 267.696 74.939C267.973 74.861 268.29 74.822 268.645 74.822C269.078 74.822 269.468 74.8783 269.815 74.991C270.162 75.1037 270.456 75.264 270.699 75.472C270.95 75.6713 271.141 75.9183 271.271 76.213C271.41 76.499 271.479 76.8153 271.479 77.162V77.292C271.479 77.474 271.457 77.669 271.414 77.877C271.371 78.085 271.293 78.2843 271.18 78.475C271.067 78.6657 270.916 78.8433 270.725 79.008C270.534 79.1727 270.296 79.307 270.01 79.411C270.643 79.5237 271.115 79.775 271.427 80.165C271.748 80.555 271.908 81.023 271.908 81.569V81.764C271.908 82.1107 271.843 82.4487 271.713 82.778C271.592 83.0987 271.397 83.389 271.128 83.649C270.868 83.9003 270.53 84.0997 270.114 84.247C269.698 84.403 269.204 84.481 268.632 84.481C268.086 84.481 267.557 84.3943 267.046 84.221C266.543 84.0563 266.071 83.7963 265.629 83.441L266.266 82.414C266.725 82.7433 267.133 82.9773 267.488 83.116C267.843 83.246 268.225 83.311 268.632 83.311C268.97 83.311 269.265 83.272 269.516 83.194C269.767 83.1073 269.975 82.9947 270.14 82.856C270.305 82.7173 270.426 82.557 270.504 82.375C270.582 82.1843 270.621 81.985 270.621 81.777V81.608C270.621 81.296 270.569 81.0403 270.465 80.841C270.37 80.633 270.235 80.4683 270.062 80.347C269.889 80.2257 269.681 80.139 269.438 80.087C269.204 80.035 268.953 80.009 268.684 80.009H267.527V78.891H268.632C268.927 78.891 269.174 78.8477 269.373 78.761C269.572 78.6657 269.733 78.5443 269.854 78.397C269.975 78.2497 270.062 78.0807 270.114 77.89C270.175 77.6993 270.205 77.5043 270.205 77.305V77.201C270.205 76.993 270.162 76.8153 270.075 76.668C269.997 76.512 269.889 76.382 269.75 76.278C269.611 76.174 269.447 76.096 269.256 76.044C269.065 75.992 268.866 75.966 268.658 75.966C268.268 75.966 267.93 76.0397 267.644 76.187C267.358 76.3343 267.089 76.5727 266.838 76.902L265.915 76.226ZM274.045 83.376H275.527V84.871H274.045V83.376ZM283.976 80.373C283.976 81.699 283.703 82.7173 283.157 83.428C282.619 84.13 281.787 84.481 280.661 84.481C279.543 84.481 278.711 84.1257 278.165 83.415C277.619 82.7043 277.346 81.6903 277.346 80.373V78.917C277.346 77.5997 277.623 76.59 278.178 75.888C278.732 75.1773 279.56 74.822 280.661 74.822C281.77 74.822 282.598 75.1773 283.144 75.888C283.698 76.59 283.976 77.5997 283.976 78.917V80.373ZM282.663 78.904C282.663 78.332 282.611 77.8597 282.507 77.487C282.411 77.1143 282.273 76.8197 282.091 76.603C281.909 76.3863 281.696 76.2347 281.454 76.148C281.211 76.0613 280.947 76.018 280.661 76.018C280.383 76.018 280.123 76.0613 279.881 76.148C279.638 76.2347 279.426 76.3907 279.244 76.616C279.062 76.8327 278.919 77.1273 278.815 77.5C278.711 77.864 278.659 78.332 278.659 78.904V80.386C278.659 80.958 278.711 81.4347 278.815 81.816C278.919 82.1887 279.062 82.4833 279.244 82.7C279.426 82.9167 279.638 83.0683 279.881 83.155C280.123 83.2417 280.383 83.285 280.661 83.285C280.947 83.285 281.211 83.2417 281.454 83.155C281.696 83.0683 281.909 82.9167 282.091 82.7C282.273 82.4833 282.411 82.1887 282.507 81.816C282.611 81.4433 282.663 80.9667 282.663 80.386V78.904ZM229.958 97.481C229.394 97.481 228.879 97.3943 228.411 97.221C227.951 97.0563 227.553 96.8007 227.215 96.454C226.877 96.1073 226.612 95.6783 226.422 95.167C226.24 94.6557 226.149 94.0533 226.149 93.36V91.943C226.149 91.2583 226.24 90.6603 226.422 90.149C226.612 89.6377 226.877 89.2087 227.215 88.862C227.553 88.5153 227.956 88.2553 228.424 88.082C228.892 87.9087 229.403 87.822 229.958 87.822C230.512 87.822 231.024 87.9087 231.492 88.082C231.96 88.2553 232.363 88.5153 232.701 88.862C233.039 89.2087 233.299 89.6377 233.481 90.149C233.671 90.6603 233.767 91.2583 233.767 91.943V93.36C233.767 94.0533 233.671 94.6557 233.481 95.167C233.299 95.6783 233.039 96.1073 232.701 96.454C232.363 96.8007 231.96 97.0563 231.492 97.221C231.024 97.3943 230.512 97.481 229.958 97.481ZM229.958 88.992C229.594 88.992 229.256 89.0527 228.944 89.174C228.64 89.2867 228.376 89.4687 228.151 89.72C227.934 89.9627 227.761 90.2833 227.631 90.682C227.509 91.072 227.449 91.54 227.449 92.086V93.217C227.449 93.763 227.509 94.2353 227.631 94.634C227.761 95.024 227.934 95.3447 228.151 95.596C228.376 95.8387 228.64 96.0207 228.944 96.142C229.256 96.2547 229.594 96.311 229.958 96.311C230.322 96.311 230.655 96.2547 230.959 96.142C231.271 96.0207 231.535 95.8387 231.752 95.596C231.977 95.3447 232.15 95.024 232.272 94.634C232.402 94.2353 232.467 93.763 232.467 93.217V92.086C232.467 91.54 232.402 91.072 232.272 90.682C232.15 90.2833 231.977 89.9627 231.752 89.72C231.535 89.4687 231.271 89.2867 230.959 89.174C230.655 89.0527 230.322 88.992 229.958 88.992ZM236.822 91.046C237.048 90.6907 237.342 90.4437 237.706 90.305C238.079 90.1663 238.46 90.097 238.85 90.097C239.752 90.097 240.441 90.3613 240.917 90.89C241.394 91.41 241.632 92.1553 241.632 93.126V94.387C241.632 94.8723 241.563 95.3057 241.424 95.687C241.286 96.0597 241.091 96.376 240.839 96.636C240.597 96.896 240.302 97.0953 239.955 97.234C239.609 97.3727 239.227 97.442 238.811 97.442C238.274 97.442 237.845 97.3467 237.524 97.156C237.204 96.974 236.965 96.7573 236.809 96.506H236.783V97.338H235.561V87.51H236.822V91.046ZM236.809 94.803C236.809 94.985 236.853 95.1713 236.939 95.362C237.035 95.544 237.165 95.7087 237.329 95.856C237.503 95.9947 237.702 96.1117 237.927 96.207C238.153 96.2937 238.404 96.337 238.681 96.337C239.219 96.337 239.635 96.1507 239.929 95.778C240.233 95.4053 240.384 94.881 240.384 94.205V93.334C240.384 92.658 240.233 92.1337 239.929 91.761C239.626 91.3883 239.21 91.202 238.681 91.202C238.421 91.202 238.179 91.2453 237.953 91.332C237.728 91.4187 237.529 91.54 237.355 91.696C237.191 91.852 237.056 92.0427 236.952 92.268C236.857 92.4847 236.809 92.7317 236.809 93.009V94.803ZM244.866 87.679V89.057H243.527V87.679H244.866ZM244.827 98.144C244.827 98.8633 244.649 99.392 244.294 99.73C243.947 100.068 243.436 100.237 242.76 100.237C242.534 100.237 242.305 100.22 242.071 100.185C241.828 100.15 241.633 100.107 241.486 100.055L241.681 99.028C241.993 99.1147 242.313 99.158 242.643 99.158C242.764 99.158 242.881 99.145 242.994 99.119C243.106 99.093 243.202 99.041 243.28 98.963C243.366 98.8937 243.436 98.7897 243.488 98.651C243.54 98.5123 243.566 98.326 243.566 98.092V90.227H244.827V98.144ZM249.589 91.176C249.329 91.176 249.087 91.2237 248.861 91.319C248.645 91.4057 248.454 91.5313 248.289 91.696C248.133 91.852 248.008 92.047 247.912 92.281C247.826 92.5063 247.782 92.7533 247.782 93.022V93.204H251.344V92.97C251.344 92.424 251.188 91.9907 250.876 91.67C250.564 91.3407 250.135 91.176 249.589 91.176ZM252.397 96.662C252.085 96.8787 251.713 97.0607 251.279 97.208C250.846 97.364 250.304 97.442 249.654 97.442C249.212 97.442 248.801 97.377 248.419 97.247C248.047 97.1257 247.717 96.935 247.431 96.675C247.154 96.4063 246.933 96.064 246.768 95.648C246.612 95.232 246.534 94.738 246.534 94.166V93.36C246.534 92.8227 246.608 92.3503 246.755 91.943C246.911 91.5357 247.124 91.1977 247.392 90.929C247.67 90.6517 247.995 90.4437 248.367 90.305C248.74 90.1663 249.147 90.097 249.589 90.097C250.499 90.097 251.223 90.3743 251.76 90.929C252.298 91.4837 252.566 92.268 252.566 93.282V94.231H247.782V94.283C247.782 94.959 247.96 95.4747 248.315 95.83C248.671 96.1767 249.134 96.35 249.706 96.35C250.174 96.35 250.573 96.2937 250.902 96.181C251.24 96.0683 251.561 95.9123 251.864 95.713L252.397 96.662ZM256.902 90.097C257.491 90.097 257.972 90.1707 258.345 90.318C258.726 90.4653 259.064 90.6517 259.359 90.877L258.761 91.826C258.432 91.5833 258.124 91.423 257.838 91.345C257.561 91.2583 257.249 91.215 256.902 91.215C256.668 91.215 256.443 91.254 256.226 91.332C256.009 91.41 255.819 91.5357 255.654 91.709C255.489 91.8737 255.355 92.086 255.251 92.346C255.156 92.606 255.108 92.918 255.108 93.282V94.179C255.108 94.5603 255.156 94.8897 255.251 95.167C255.355 95.4357 255.489 95.6567 255.654 95.83C255.827 95.9947 256.022 96.116 256.239 96.194C256.464 96.272 256.694 96.311 256.928 96.311C257.396 96.311 257.782 96.2503 258.085 96.129C258.397 96.0077 258.679 95.8517 258.93 95.661L259.541 96.623C259.29 96.831 258.952 97.0173 258.527 97.182C258.102 97.3553 257.565 97.442 256.915 97.442C255.927 97.442 255.164 97.156 254.627 96.584C254.098 96.012 253.834 95.2147 253.834 94.192V93.295C253.834 92.7837 253.908 92.333 254.055 91.943C254.202 91.5443 254.406 91.2107 254.666 90.942C254.935 90.6647 255.255 90.4567 255.628 90.318C256.009 90.1707 256.434 90.097 256.902 90.097ZM261.254 91.306H260.084V90.227H261.254V88.433H262.515V90.227H264.387V91.306H262.515V95.349C262.515 95.5657 262.537 95.7433 262.58 95.882C262.624 96.012 262.684 96.1117 262.762 96.181C262.849 96.2503 262.949 96.298 263.061 96.324C263.174 96.35 263.295 96.363 263.425 96.363C263.737 96.363 264.049 96.3067 264.361 96.194L264.556 97.208C264.409 97.2687 264.214 97.3207 263.971 97.364C263.729 97.416 263.482 97.442 263.23 97.442C262.554 97.442 262.056 97.273 261.735 96.935C261.415 96.597 261.254 96.0683 261.254 95.349V91.306ZM270.454 87.965V96.233H274.939V97.338H269.167V87.965H270.454ZM277.512 90.227V97.338H276.251V90.227H277.512ZM277.551 87.679V89.057H276.212V87.679H277.551ZM285.439 97.338H284.178V92.918C284.178 92.32 284.052 91.8867 283.801 91.618C283.55 91.3493 283.16 91.215 282.631 91.215C282.414 91.215 282.198 91.254 281.981 91.332C281.773 91.4013 281.582 91.5097 281.409 91.657C281.244 91.7957 281.106 91.9733 280.993 92.19C280.889 92.4067 280.837 92.6537 280.837 92.931V97.338H279.576V90.227H280.798V91.124H280.811C281.028 90.7947 281.314 90.5433 281.669 90.37C282.024 90.188 282.449 90.097 282.943 90.097C283.29 90.097 283.615 90.149 283.918 90.253C284.221 90.357 284.486 90.513 284.711 90.721C284.936 90.929 285.114 91.1933 285.244 91.514C285.374 91.8347 285.439 92.2073 285.439 92.632V97.338ZM290.478 93.074L293.455 97.338H291.869L289.607 93.958L288.619 94.959V97.338H287.358V87.51H288.619V93.425L291.661 90.227H293.286L290.478 93.074Z" fill="white"/>
<path d="M104 77C104 71.4772 108.477 67 114 67H196C201.523 67 206 71.4772 206 77V97C206 102.523 201.523 107 196 107H114C108.477 107 104 102.523 104 97V77Z" fill="#00B695"/>
<path d="M142.984 77.578C142.941 77.4827 142.902 77.3917 142.867 77.305C142.832 77.2097 142.798 77.1143 142.763 77.019C142.728 76.9237 142.689 76.8153 142.646 76.694C142.603 76.5727 142.555 76.434 142.503 76.278V84.338H141.281V74.965H143.179L145.779 81.101L148.314 74.965H150.199V84.338H148.964V76.278C148.921 76.4513 148.877 76.5987 148.834 76.72C148.799 76.8327 148.765 76.9367 148.73 77.032C148.704 77.1273 148.674 77.2183 148.639 77.305C148.604 77.3917 148.565 77.4827 148.522 77.578L146.286 82.778H145.194L142.984 77.578ZM154.965 78.176C154.705 78.176 154.462 78.2237 154.237 78.319C154.02 78.4057 153.829 78.5313 153.665 78.696C153.509 78.852 153.383 79.047 153.288 79.281C153.201 79.5063 153.158 79.7533 153.158 80.022V80.204H156.72V79.97C156.72 79.424 156.564 78.9907 156.252 78.67C155.94 78.3407 155.511 78.176 154.965 78.176ZM157.773 83.662C157.461 83.8787 157.088 84.0607 156.655 84.208C156.221 84.364 155.68 84.442 155.03 84.442C154.588 84.442 154.176 84.377 153.795 84.247C153.422 84.1257 153.093 83.935 152.807 83.675C152.529 83.4063 152.308 83.064 152.144 82.648C151.988 82.232 151.91 81.738 151.91 81.166V80.36C151.91 79.8227 151.983 79.3503 152.131 78.943C152.287 78.5357 152.499 78.1977 152.768 77.929C153.045 77.6517 153.37 77.4437 153.743 77.305C154.115 77.1663 154.523 77.097 154.965 77.097C155.875 77.097 156.598 77.3743 157.136 77.929C157.673 78.4837 157.942 79.268 157.942 80.282V81.231H153.158V81.283C153.158 81.959 153.335 82.4747 153.691 82.83C154.046 83.1767 154.51 83.35 155.082 83.35C155.55 83.35 155.948 83.2937 156.278 83.181C156.616 83.0683 156.936 82.9123 157.24 82.713L157.773 83.662ZM160.016 78.306H158.846V77.227H160.016V75.433H161.277V77.227H163.149V78.306H161.277V82.349C161.277 82.5657 161.298 82.7433 161.342 82.882C161.385 83.012 161.446 83.1117 161.524 83.181C161.61 83.2503 161.71 83.298 161.823 83.324C161.935 83.35 162.057 83.363 162.187 83.363C162.499 83.363 162.811 83.3067 163.123 83.194L163.318 84.208C163.17 84.2687 162.975 84.3207 162.733 84.364C162.49 84.416 162.243 84.442 161.992 84.442C161.316 84.442 160.817 84.273 160.497 83.935C160.176 83.597 160.016 83.0683 160.016 82.349V78.306ZM166.602 84.442C165.883 84.442 165.311 84.2643 164.886 83.909C164.47 83.5537 164.262 83.064 164.262 82.44V82.089C164.262 81.4823 164.466 80.9883 164.873 80.607C165.281 80.2257 165.939 80.035 166.849 80.035H168.656V79.619C168.656 79.1423 168.539 78.7913 168.305 78.566C168.08 78.332 167.707 78.215 167.187 78.215C166.771 78.215 166.407 78.28 166.095 78.41C165.792 78.54 165.476 78.7133 165.146 78.93L164.522 77.994C164.869 77.7513 165.259 77.5433 165.692 77.37C166.126 77.188 166.628 77.097 167.2 77.097C167.599 77.097 167.963 77.149 168.292 77.253C168.622 77.3483 168.903 77.4957 169.137 77.695C169.38 77.8857 169.566 78.124 169.696 78.41C169.835 78.6873 169.904 79.0037 169.904 79.359V84.338H168.695V83.48H168.682C168.613 83.61 168.518 83.7313 168.396 83.844C168.284 83.948 168.158 84.039 168.019 84.117C167.829 84.221 167.621 84.299 167.395 84.351C167.179 84.4117 166.914 84.442 166.602 84.442ZM168.656 81.101H166.875C166.381 81.101 166.026 81.1963 165.809 81.387C165.601 81.5777 165.497 81.842 165.497 82.18V82.362C165.497 82.7087 165.619 82.96 165.861 83.116C166.104 83.272 166.394 83.35 166.732 83.35C167.044 83.35 167.313 83.3153 167.538 83.246C167.772 83.168 167.985 83.0553 168.175 82.908C168.349 82.778 168.47 82.6307 168.539 82.466C168.617 82.2927 168.656 82.0717 168.656 81.803V81.101ZM145.499 87.965C146.79 87.965 147.769 88.3117 148.437 89.005C149.104 89.6897 149.438 90.682 149.438 91.982V93.321C149.438 94.621 149.113 95.6177 148.463 96.311C147.813 96.9957 146.825 97.338 145.499 97.338H142.392V87.965H145.499ZM143.679 96.194H145.382C145.798 96.194 146.175 96.142 146.513 96.038C146.851 95.9253 147.137 95.752 147.371 95.518C147.613 95.284 147.8 94.9807 147.93 94.608C148.06 94.2353 148.125 93.7847 148.125 93.256V92.047C148.125 91.5183 148.06 91.0677 147.93 90.695C147.8 90.3223 147.613 90.019 147.371 89.785C147.137 89.5423 146.851 89.369 146.513 89.265C146.175 89.1523 145.798 89.096 145.382 89.096H143.679V96.194ZM153.266 97.442C152.547 97.442 151.975 97.2643 151.55 96.909C151.134 96.5537 150.926 96.064 150.926 95.44V95.089C150.926 94.4823 151.13 93.9883 151.537 93.607C151.944 93.2257 152.603 93.035 153.513 93.035H155.32V92.619C155.32 92.1423 155.203 91.7913 154.969 91.566C154.744 91.332 154.371 91.215 153.851 91.215C153.435 91.215 153.071 91.28 152.759 91.41C152.456 91.54 152.139 91.7133 151.81 91.93L151.186 90.994C151.533 90.7513 151.923 90.5433 152.356 90.37C152.789 90.188 153.292 90.097 153.864 90.097C154.263 90.097 154.627 90.149 154.956 90.253C155.285 90.3483 155.567 90.4957 155.801 90.695C156.044 90.8857 156.23 91.124 156.36 91.41C156.499 91.6873 156.568 92.0037 156.568 92.359V97.338H155.359V96.48H155.346C155.277 96.61 155.181 96.7313 155.06 96.844C154.947 96.948 154.822 97.039 154.683 97.117C154.492 97.221 154.284 97.299 154.059 97.351C153.842 97.4117 153.578 97.442 153.266 97.442ZM155.32 94.101H153.539C153.045 94.101 152.69 94.1963 152.473 94.387C152.265 94.5777 152.161 94.842 152.161 95.18V95.362C152.161 95.7087 152.282 95.96 152.525 96.116C152.768 96.272 153.058 96.35 153.396 96.35C153.708 96.35 153.977 96.3153 154.202 96.246C154.436 96.168 154.648 96.0553 154.839 95.908C155.012 95.778 155.134 95.6307 155.203 95.466C155.281 95.2927 155.32 95.0717 155.32 94.803V94.101ZM158.905 91.306H157.735V90.227H158.905V88.433H160.166V90.227H162.038V91.306H160.166V95.349C160.166 95.5657 160.187 95.7433 160.231 95.882C160.274 96.012 160.335 96.1117 160.413 96.181C160.499 96.2503 160.599 96.298 160.712 96.324C160.824 96.35 160.946 96.363 161.076 96.363C161.388 96.363 161.7 96.3067 162.012 96.194L162.207 97.208C162.059 97.2687 161.864 97.3207 161.622 97.364C161.379 97.416 161.132 97.442 160.881 97.442C160.205 97.442 159.706 97.273 159.386 96.935C159.065 96.597 158.905 96.0683 158.905 95.349V91.306ZM165.491 97.442C164.772 97.442 164.2 97.2643 163.775 96.909C163.359 96.5537 163.151 96.064 163.151 95.44V95.089C163.151 94.4823 163.355 93.9883 163.762 93.607C164.17 93.2257 164.828 93.035 165.738 93.035H167.545V92.619C167.545 92.1423 167.428 91.7913 167.194 91.566C166.969 91.332 166.596 91.215 166.076 91.215C165.66 91.215 165.296 91.28 164.984 91.41C164.681 91.54 164.365 91.7133 164.035 91.93L163.411 90.994C163.758 90.7513 164.148 90.5433 164.581 90.37C165.015 90.188 165.517 90.097 166.089 90.097C166.488 90.097 166.852 90.149 167.181 90.253C167.511 90.3483 167.792 90.4957 168.026 90.695C168.269 90.8857 168.455 91.124 168.585 91.41C168.724 91.6873 168.793 92.0037 168.793 92.359V97.338H167.584V96.48H167.571C167.502 96.61 167.407 96.7313 167.285 96.844C167.173 96.948 167.047 97.039 166.908 97.117C166.718 97.221 166.51 97.299 166.284 97.351C166.068 97.4117 165.803 97.442 165.491 97.442ZM167.545 94.101H165.764C165.27 94.101 164.915 94.1963 164.698 94.387C164.49 94.5777 164.386 94.842 164.386 95.18V95.362C164.386 95.7087 164.508 95.96 164.75 96.116C164.993 96.272 165.283 96.35 165.621 96.35C165.933 96.35 166.202 96.3153 166.427 96.246C166.661 96.168 166.874 96.0553 167.064 95.908C167.238 95.778 167.359 95.6307 167.428 95.466C167.506 95.2927 167.545 95.0717 167.545 94.803V94.101Z" fill="white"/>
<path d="M0 77C0 71.4772 4.47715 67 10 67H92C97.5228 67 102 71.4772 102 77V97C102 102.523 97.5228 107 92 107H10C4.47715 107 0 102.523 0 97V77Z" fill="#00967B"/>
<path d="M26.0908 83.311C26.7582 83.311 27.2565 83.1767 27.5858 82.908C27.9238 82.6393 28.0928 82.3187 28.0928 81.946V81.738C28.0928 81.53 28.0582 81.348 27.9888 81.192C27.9195 81.036 27.8025 80.8973 27.6378 80.776C27.4732 80.6547 27.2608 80.5463 27.0008 80.451C26.7408 80.347 26.4202 80.256 26.0388 80.178C25.5968 80.0827 25.1852 79.9743 24.8038 79.853C24.4225 79.723 24.0932 79.5627 23.8158 79.372C23.5385 79.1727 23.3175 78.93 23.1528 78.644C22.9968 78.3493 22.9188 77.9897 22.9188 77.565V77.331C22.9188 77.0103 22.9838 76.7027 23.1138 76.408C23.2438 76.1047 23.4432 75.836 23.7118 75.602C23.9805 75.368 24.3142 75.1817 24.7128 75.043C25.1202 74.8957 25.5925 74.822 26.1298 74.822C26.7018 74.822 27.2218 74.8913 27.6898 75.03C28.1578 75.1687 28.5912 75.3723 28.9898 75.641L28.3788 76.642C28.0322 76.408 27.6812 76.239 27.3258 76.135C26.9705 76.031 26.5762 75.979 26.1428 75.979C25.5535 75.979 25.0812 76.109 24.7258 76.369C24.3792 76.629 24.2058 76.9453 24.2058 77.318V77.526C24.2058 77.7427 24.2535 77.929 24.3488 78.085C24.4442 78.2323 24.5828 78.3623 24.7648 78.475C24.9468 78.5877 25.1722 78.6873 25.4408 78.774C25.7095 78.852 26.0172 78.93 26.3638 79.008C26.9445 79.138 27.4255 79.2897 27.8068 79.463C28.1968 79.6277 28.5088 79.8183 28.7428 80.035C28.9768 80.2517 29.1415 80.4943 29.2368 80.763C29.3408 81.0317 29.3928 81.3263 29.3928 81.647V81.881C29.3928 82.3143 29.3062 82.6913 29.1328 83.012C28.9682 83.3327 28.7385 83.6057 28.4438 83.831C28.1492 84.0477 27.7938 84.208 27.3778 84.312C26.9705 84.4247 26.5285 84.481 26.0518 84.481C25.3845 84.481 24.7692 84.3727 24.2058 84.156C23.6512 83.948 23.1788 83.688 22.7888 83.376L23.4388 82.323C23.6122 82.453 23.8115 82.5787 24.0368 82.7C24.2622 82.8213 24.4918 82.9297 24.7258 83.025C24.9598 83.1117 25.1938 83.181 25.4278 83.233C25.6705 83.285 25.8915 83.311 26.0908 83.311ZM33.7506 78.176C33.4906 78.176 33.2479 78.2237 33.0226 78.319C32.8059 78.4057 32.6152 78.5313 32.4506 78.696C32.2946 78.852 32.1689 79.047 32.0736 79.281C31.9869 79.5063 31.9436 79.7533 31.9436 80.022V80.204H35.5056V79.97C35.5056 79.424 35.3496 78.9907 35.0376 78.67C34.7256 78.3407 34.2966 78.176 33.7506 78.176ZM36.5586 83.662C36.2466 83.8787 35.8739 84.0607 35.4406 84.208C35.0072 84.364 34.4656 84.442 33.8156 84.442C33.3736 84.442 32.9619 84.377 32.5806 84.247C32.2079 84.1257 31.8786 83.935 31.5926 83.675C31.3152 83.4063 31.0942 83.064 30.9296 82.648C30.7736 82.232 30.6956 81.738 30.6956 81.166V80.36C30.6956 79.8227 30.7692 79.3503 30.9166 78.943C31.0726 78.5357 31.2849 78.1977 31.5536 77.929C31.8309 77.6517 32.1559 77.4437 32.5286 77.305C32.9012 77.1663 33.3086 77.097 33.7506 77.097C34.6606 77.097 35.3842 77.3743 35.9216 77.929C36.4589 78.4837 36.7276 79.268 36.7276 80.282V81.231H31.9436V81.283C31.9436 81.959 32.1212 82.4747 32.4766 82.83C32.8319 83.1767 33.2956 83.35 33.8676 83.35C34.3356 83.35 34.7342 83.2937 35.0636 83.181C35.4016 83.0683 35.7222 82.9123 36.0256 82.713L36.5586 83.662ZM48.1224 84.338H46.8614V80.074C46.8614 78.852 46.4151 78.241 45.5224 78.241C45.3231 78.241 45.1237 78.2757 44.9244 78.345C44.7337 78.4057 44.5604 78.5053 44.4044 78.644C44.2484 78.774 44.1184 78.9473 44.0144 79.164C43.9191 79.372 43.8714 79.619 43.8714 79.905V84.338H42.6104V80.074C42.6104 78.852 42.1641 78.241 41.2714 78.241C41.0721 78.241 40.8727 78.2713 40.6734 78.332C40.4827 78.3927 40.3094 78.488 40.1534 78.618C39.9974 78.748 39.8674 78.917 39.7634 79.125C39.6681 79.3243 39.6204 79.5627 39.6204 79.84V84.338H38.3594V77.227H39.6074V78.189H39.6204C39.7591 77.877 39.9844 77.617 40.2964 77.409C40.6171 77.201 41.0244 77.097 41.5184 77.097C41.9951 77.097 42.4067 77.201 42.7534 77.409C43.1087 77.6083 43.3774 77.8987 43.5594 78.28C43.7847 77.9333 44.0664 77.6517 44.4044 77.435C44.7511 77.2097 45.2061 77.097 45.7694 77.097C46.5061 77.097 47.0824 77.3223 47.4984 77.773C47.9144 78.215 48.1224 78.8477 48.1224 79.671V84.338ZM52.0278 84.442C51.3084 84.442 50.7364 84.2643 50.3118 83.909C49.8958 83.5537 49.6878 83.064 49.6878 82.44V82.089C49.6878 81.4823 49.8914 80.9883 50.2988 80.607C50.7061 80.2257 51.3648 80.035 52.2748 80.035H54.0818V79.619C54.0818 79.1423 53.9648 78.7913 53.7308 78.566C53.5054 78.332 53.1328 78.215 52.6128 78.215C52.1968 78.215 51.8328 78.28 51.5208 78.41C51.2174 78.54 50.9011 78.7133 50.5718 78.93L49.9478 77.994C50.2944 77.7513 50.6844 77.5433 51.1178 77.37C51.5511 77.188 52.0538 77.097 52.6258 77.097C53.0244 77.097 53.3884 77.149 53.7178 77.253C54.0471 77.3483 54.3288 77.4957 54.5628 77.695C54.8054 77.8857 54.9918 78.124 55.1218 78.41C55.2604 78.6873 55.3298 79.0037 55.3298 79.359V84.338H54.1208V83.48H54.1078C54.0384 83.61 53.9431 83.7313 53.8218 83.844C53.7091 83.948 53.5834 84.039 53.4448 84.117C53.2541 84.221 53.0461 84.299 52.8208 84.351C52.6041 84.4117 52.3398 84.442 52.0278 84.442ZM54.0818 81.101H52.3008C51.8068 81.101 51.4514 81.1963 51.2348 81.387C51.0268 81.5777 50.9228 81.842 50.9228 82.18V82.362C50.9228 82.7087 51.0441 82.96 51.2868 83.116C51.5294 83.272 51.8198 83.35 52.1578 83.35C52.4698 83.35 52.7384 83.3153 52.9638 83.246C53.1978 83.168 53.4101 83.0553 53.6008 82.908C53.7741 82.778 53.8954 82.6307 53.9648 82.466C54.0428 82.2927 54.0818 82.0717 54.0818 81.803V81.101ZM63.0876 84.338H61.8266V79.918C61.8266 79.32 61.701 78.8867 61.4496 78.618C61.1983 78.3493 60.8083 78.215 60.2796 78.215C60.063 78.215 59.8463 78.254 59.6296 78.332C59.4216 78.4013 59.231 78.5097 59.0576 78.657C58.893 78.7957 58.7543 78.9733 58.6416 79.19C58.5376 79.4067 58.4856 79.6537 58.4856 79.931V84.338H57.2246V77.227H58.4466V78.124H58.4596C58.6763 77.7947 58.9623 77.5433 59.3176 77.37C59.673 77.188 60.0976 77.097 60.5916 77.097C60.9383 77.097 61.2633 77.149 61.5666 77.253C61.87 77.357 62.1343 77.513 62.3596 77.721C62.585 77.929 62.7626 78.1933 62.8926 78.514C63.0226 78.8347 63.0876 79.2073 63.0876 79.632V84.338ZM65.4488 78.306H64.2788V77.227H65.4488V75.433H66.7098V77.227H68.5818V78.306H66.7098V82.349C66.7098 82.5657 66.7315 82.7433 66.7748 82.882C66.8182 83.012 66.8788 83.1117 66.9568 83.181C67.0435 83.2503 67.1432 83.298 67.2558 83.324C67.3685 83.35 67.4898 83.363 67.6198 83.363C67.9318 83.363 68.2438 83.3067 68.5558 83.194L68.7508 84.208C68.6035 84.2687 68.4085 84.3207 68.1658 84.364C67.9232 84.416 67.6762 84.442 67.4248 84.442C66.7488 84.442 66.2505 84.273 65.9298 83.935C65.6092 83.597 65.4488 83.0683 65.4488 82.349V78.306ZM71.3596 77.227V84.338H70.0986V77.227H71.3596ZM71.3986 74.679V76.057H70.0596V74.679H71.3986ZM76.1278 77.097C76.7172 77.097 77.1982 77.1707 77.5708 77.318C77.9522 77.4653 78.2902 77.6517 78.5848 77.877L77.9868 78.826C77.6575 78.5833 77.3498 78.423 77.0638 78.345C76.7865 78.2583 76.4745 78.215 76.1278 78.215C75.8938 78.215 75.6685 78.254 75.4518 78.332C75.2352 78.41 75.0445 78.5357 74.8798 78.709C74.7152 78.8737 74.5808 79.086 74.4768 79.346C74.3815 79.606 74.3338 79.918 74.3338 80.282V81.179C74.3338 81.5603 74.3815 81.8897 74.4768 82.167C74.5808 82.4357 74.7152 82.6567 74.8798 82.83C75.0532 82.9947 75.2482 83.116 75.4648 83.194C75.6902 83.272 75.9198 83.311 76.1538 83.311C76.6218 83.311 77.0075 83.2503 77.3108 83.129C77.6228 83.0077 77.9045 82.8517 78.1558 82.661L78.7668 83.623C78.5155 83.831 78.1775 84.0173 77.7528 84.182C77.3282 84.3553 76.7908 84.442 76.1408 84.442C75.1528 84.442 74.3902 84.156 73.8528 83.584C73.3242 83.012 73.0598 82.2147 73.0598 81.192V80.295C73.0598 79.7837 73.1335 79.333 73.2808 78.943C73.4282 78.5443 73.6318 78.2107 73.8918 77.942C74.1605 77.6647 74.4812 77.4567 74.8538 77.318C75.2352 77.1707 75.6598 77.097 76.1278 77.097ZM49.1803 87.965L46.5933 97.338H45.3063L43.2263 89.681L41.1073 97.338H39.7943L37.2333 87.965H38.5853L40.5093 95.622L42.6023 87.965H43.8503L45.9433 95.622L47.8933 87.965H49.1803ZM52.8507 91.176C52.5907 91.176 52.348 91.2237 52.1227 91.319C51.906 91.4057 51.7153 91.5313 51.5507 91.696C51.3947 91.852 51.269 92.047 51.1737 92.281C51.087 92.5063 51.0437 92.7533 51.0437 93.022V93.204H54.6057V92.97C54.6057 92.424 54.4497 91.9907 54.1377 91.67C53.8257 91.3407 53.3967 91.176 52.8507 91.176ZM55.6587 96.662C55.3467 96.8787 54.974 97.0607 54.5407 97.208C54.1073 97.364 53.5657 97.442 52.9157 97.442C52.4737 97.442 52.062 97.377 51.6807 97.247C51.308 97.1257 50.9787 96.935 50.6927 96.675C50.4153 96.4063 50.1943 96.064 50.0297 95.648C49.8737 95.232 49.7957 94.738 49.7957 94.166V93.36C49.7957 92.8227 49.8693 92.3503 50.0167 91.943C50.1727 91.5357 50.385 91.1977 50.6537 90.929C50.931 90.6517 51.256 90.4437 51.6287 90.305C52.0013 90.1663 52.4087 90.097 52.8507 90.097C53.7607 90.097 54.4843 90.3743 55.0217 90.929C55.559 91.4837 55.8277 92.268 55.8277 93.282V94.231H51.0437V94.283C51.0437 94.959 51.2213 95.4747 51.5767 95.83C51.932 96.1767 52.3957 96.35 52.9677 96.35C53.4357 96.35 53.8343 96.2937 54.1637 96.181C54.5017 96.0683 54.8223 95.9123 55.1257 95.713L55.6587 96.662ZM58.7205 91.046C58.9458 90.6907 59.2405 90.4437 59.6045 90.305C59.9772 90.1663 60.3585 90.097 60.7485 90.097C61.6498 90.097 62.3388 90.3613 62.8155 90.89C63.2922 91.41 63.5305 92.1553 63.5305 93.126V94.387C63.5305 94.8723 63.4612 95.3057 63.3225 95.687C63.1838 96.0597 62.9888 96.376 62.7375 96.636C62.4948 96.896 62.2002 97.0953 61.8535 97.234C61.5068 97.3727 61.1255 97.442 60.7095 97.442C60.1722 97.442 59.7432 97.3467 59.4225 97.156C59.1018 96.974 58.8635 96.7573 58.7075 96.506H58.6815V97.338H57.4595V87.51H58.7205V91.046ZM58.7075 94.803C58.7075 94.985 58.7508 95.1713 58.8375 95.362C58.9328 95.544 59.0628 95.7087 59.2275 95.856C59.4008 95.9947 59.6002 96.1117 59.8255 96.207C60.0508 96.2937 60.3022 96.337 60.5795 96.337C61.1168 96.337 61.5328 96.1507 61.8275 95.778C62.1308 95.4053 62.2825 94.881 62.2825 94.205V93.334C62.2825 92.658 62.1308 92.1337 61.8275 91.761C61.5242 91.3883 61.1082 91.202 60.5795 91.202C60.3195 91.202 60.0768 91.2453 59.8515 91.332C59.6262 91.4187 59.4268 91.54 59.2535 91.696C59.0888 91.852 58.9545 92.0427 58.8505 92.268C58.7552 92.4847 58.7075 92.7317 58.7075 93.009V94.803Z" fill="white"/>
<path d="M155 67L157.887 62H152.113L155 67ZM154.5 35V62.5H155.5V35H154.5Z" fill="#2C8DFF"/>
<path d="M257 49H257.5V48.5H257V49ZM53 67L55.8868 62H50.1132L53 67ZM53 49V48.5H52.5V49H53ZM257 67L259.887 62H254.113L257 67ZM257 48.5H53V49.5H257V48.5ZM52.5 49V62.5H53.5V49H52.5ZM256.5 49V62.5H257.5V49H256.5Z" fill="#2C8DFF"/>
<path d="M0 10C0 4.47715 4.47715 0 10 0H300C305.523 0 310 4.47715 310 10V30C310 35.5228 305.523 40 300 40H10C4.47716 40 0 35.5228 0 30V10Z" fill="#004596"/>
<path d="M94.6572 14.965V23.233H99.1422V24.338H93.3702V14.965H94.6572ZM101.715 17.227V24.338H100.454V17.227H101.715ZM101.754 14.679V16.057H100.415V14.679H101.754ZM109.642 24.338H108.381V19.918C108.381 19.32 108.255 18.8867 108.004 18.618C107.753 18.3493 107.363 18.215 106.834 18.215C106.617 18.215 106.401 18.254 106.184 18.332C105.976 18.4013 105.785 18.5097 105.612 18.657C105.447 18.7957 105.309 18.9733 105.196 19.19C105.092 19.4067 105.04 19.6537 105.04 19.931V24.338H103.779V17.227H105.001V18.124H105.014C105.231 17.7947 105.517 17.5433 105.872 17.37C106.227 17.188 106.652 17.097 107.146 17.097C107.493 17.097 107.818 17.149 108.121 17.253C108.424 17.357 108.689 17.513 108.914 17.721C109.139 17.929 109.317 18.1933 109.447 18.514C109.577 18.8347 109.642 19.2073 109.642 19.632V24.338ZM114.681 20.074L117.658 24.338H116.072L113.81 20.958L112.822 21.959V24.338H111.561V14.51H112.822V20.425L115.864 17.227H117.489L114.681 20.074ZM121.362 18.176C121.102 18.176 120.859 18.2237 120.634 18.319C120.417 18.4057 120.226 18.5313 120.062 18.696C119.906 18.852 119.78 19.047 119.685 19.281C119.598 19.5063 119.555 19.7533 119.555 20.022V20.204H123.117V19.97C123.117 19.424 122.961 18.9907 122.649 18.67C122.337 18.3407 121.908 18.176 121.362 18.176ZM124.17 23.662C123.858 23.8787 123.485 24.0607 123.052 24.208C122.618 24.364 122.077 24.442 121.427 24.442C120.985 24.442 120.573 24.377 120.192 24.247C119.819 24.1257 119.49 23.935 119.204 23.675C118.926 23.4063 118.705 23.064 118.541 22.648C118.385 22.232 118.307 21.738 118.307 21.166V20.36C118.307 19.8227 118.38 19.3503 118.528 18.943C118.684 18.5357 118.896 18.1977 119.165 17.929C119.442 17.6517 119.767 17.4437 120.14 17.305C120.512 17.1663 120.92 17.097 121.362 17.097C122.272 17.097 122.995 17.3743 123.533 17.929C124.07 18.4837 124.339 19.268 124.339 20.282V21.231H119.555V21.283C119.555 21.959 119.732 22.4747 120.088 22.83C120.443 23.1767 120.907 23.35 121.479 23.35C121.947 23.35 122.345 23.2937 122.675 23.181C123.013 23.0683 123.333 22.9123 123.637 22.713L124.17 23.662ZM130.456 23.454C130.256 23.818 129.97 24.0737 129.598 24.221C129.234 24.3683 128.831 24.442 128.389 24.442C127.487 24.442 126.798 24.182 126.322 23.662C125.854 23.1333 125.62 22.3837 125.62 21.413V20.152C125.62 19.6753 125.689 19.2463 125.828 18.865C125.966 18.4837 126.157 18.163 126.4 17.903C126.651 17.643 126.95 17.4437 127.297 17.305C127.643 17.1663 128.025 17.097 128.441 17.097C128.987 17.097 129.416 17.1923 129.728 17.383C130.048 17.565 130.282 17.76 130.43 17.968V14.51H131.691V24.338H130.482V23.454H130.456ZM130.443 19.71C130.443 19.528 130.395 19.346 130.3 19.164C130.213 18.982 130.083 18.8217 129.91 18.683C129.745 18.5357 129.546 18.4187 129.312 18.332C129.086 18.2453 128.839 18.202 128.571 18.202C128.033 18.202 127.613 18.3883 127.31 18.761C127.015 19.1337 126.868 19.658 126.868 20.334V21.205C126.868 21.881 127.019 22.4053 127.323 22.778C127.626 23.1507 128.042 23.337 128.571 23.337C128.831 23.337 129.073 23.298 129.299 23.22C129.524 23.1333 129.719 23.012 129.884 22.856C130.057 22.7 130.191 22.5137 130.287 22.297C130.391 22.0717 130.443 21.8203 130.443 21.543V19.71ZM140.124 14.965C141.415 14.965 142.394 15.3117 143.062 16.005C143.729 16.6897 144.063 17.682 144.063 18.982V20.321C144.063 21.621 143.738 22.6177 143.088 23.311C142.438 23.9957 141.45 24.338 140.124 24.338H137.017V14.965H140.124ZM138.304 23.194H140.007C140.423 23.194 140.8 23.142 141.138 23.038C141.476 22.9253 141.762 22.752 141.996 22.518C142.238 22.284 142.425 21.9807 142.555 21.608C142.685 21.2353 142.75 20.7847 142.75 20.256V19.047C142.75 18.5183 142.685 18.0677 142.555 17.695C142.425 17.3223 142.238 17.019 141.996 16.785C141.762 16.5423 141.476 16.369 141.138 16.265C140.8 16.1523 140.423 16.096 140.007 16.096H138.304V23.194ZM147.891 24.442C147.172 24.442 146.6 24.2643 146.175 23.909C145.759 23.5537 145.551 23.064 145.551 22.44V22.089C145.551 21.4823 145.755 20.9883 146.162 20.607C146.569 20.2257 147.228 20.035 148.138 20.035H149.945V19.619C149.945 19.1423 149.828 18.7913 149.594 18.566C149.369 18.332 148.996 18.215 148.476 18.215C148.06 18.215 147.696 18.28 147.384 18.41C147.081 18.54 146.764 18.7133 146.435 18.93L145.811 17.994C146.158 17.7513 146.548 17.5433 146.981 17.37C147.414 17.188 147.917 17.097 148.489 17.097C148.888 17.097 149.252 17.149 149.581 17.253C149.91 17.3483 150.192 17.4957 150.426 17.695C150.669 17.8857 150.855 18.124 150.985 18.41C151.124 18.6873 151.193 19.0037 151.193 19.359V24.338H149.984V23.48H149.971C149.902 23.61 149.806 23.7313 149.685 23.844C149.572 23.948 149.447 24.039 149.308 24.117C149.117 24.221 148.909 24.299 148.684 24.351C148.467 24.4117 148.203 24.442 147.891 24.442ZM149.945 21.101H148.164C147.67 21.101 147.315 21.1963 147.098 21.387C146.89 21.5777 146.786 21.842 146.786 22.18V22.362C146.786 22.7087 146.907 22.96 147.15 23.116C147.393 23.272 147.683 23.35 148.021 23.35C148.333 23.35 148.602 23.3153 148.827 23.246C149.061 23.168 149.273 23.0553 149.464 22.908C149.637 22.778 149.759 22.6307 149.828 22.466C149.906 22.2927 149.945 22.0717 149.945 21.803V21.101ZM153.53 18.306H152.36V17.227H153.53V15.433H154.791V17.227H156.663V18.306H154.791V22.349C154.791 22.5657 154.812 22.7433 154.856 22.882C154.899 23.012 154.96 23.1117 155.038 23.181C155.124 23.2503 155.224 23.298 155.337 23.324C155.449 23.35 155.571 23.363 155.701 23.363C156.013 23.363 156.325 23.3067 156.637 23.194L156.832 24.208C156.684 24.2687 156.489 24.3207 156.247 24.364C156.004 24.416 155.757 24.442 155.506 24.442C154.83 24.442 154.331 24.273 154.011 23.935C153.69 23.597 153.53 23.0683 153.53 22.349V18.306ZM160.116 24.442C159.397 24.442 158.825 24.2643 158.4 23.909C157.984 23.5537 157.776 23.064 157.776 22.44V22.089C157.776 21.4823 157.98 20.9883 158.387 20.607C158.795 20.2257 159.453 20.035 160.363 20.035H162.17V19.619C162.17 19.1423 162.053 18.7913 161.819 18.566C161.594 18.332 161.221 18.215 160.701 18.215C160.285 18.215 159.921 18.28 159.609 18.41C159.306 18.54 158.99 18.7133 158.66 18.93L158.036 17.994C158.383 17.7513 158.773 17.5433 159.206 17.37C159.64 17.188 160.142 17.097 160.714 17.097C161.113 17.097 161.477 17.149 161.806 17.253C162.136 17.3483 162.417 17.4957 162.651 17.695C162.894 17.8857 163.08 18.124 163.21 18.41C163.349 18.6873 163.418 19.0037 163.418 19.359V24.338H162.209V23.48H162.196C162.127 23.61 162.032 23.7313 161.91 23.844C161.798 23.948 161.672 24.039 161.533 24.117C161.343 24.221 161.135 24.299 160.909 24.351C160.693 24.4117 160.428 24.442 160.116 24.442ZM162.17 21.101H160.389C159.895 21.101 159.54 21.1963 159.323 21.387C159.115 21.5777 159.011 21.842 159.011 22.18V22.362C159.011 22.7087 159.133 22.96 159.375 23.116C159.618 23.272 159.908 23.35 160.246 23.35C160.558 23.35 160.827 23.3153 161.052 23.246C161.286 23.168 161.499 23.0553 161.689 22.908C161.863 22.778 161.984 22.6307 162.053 22.466C162.131 22.2927 162.17 22.0717 162.17 21.803V21.101ZM176.038 24.338H174.686L173.698 21.582H170.11L169.122 24.338H167.809L171.293 14.965H172.541L176.038 24.338ZM170.5 20.477H173.308L172.528 18.28C172.459 18.0893 172.398 17.9247 172.346 17.786C172.294 17.6387 172.247 17.5 172.203 17.37C172.16 17.2313 172.112 17.0883 172.06 16.941C172.017 16.7937 171.965 16.6117 171.904 16.395C171.835 16.6117 171.779 16.798 171.735 16.954C171.692 17.1013 171.649 17.24 171.605 17.37C171.562 17.5 171.514 17.6387 171.462 17.786C171.419 17.9247 171.363 18.0893 171.293 18.28L170.5 20.477ZM183.173 24.338H181.912V19.918C181.912 19.32 181.787 18.8867 181.535 18.618C181.284 18.3493 180.894 18.215 180.365 18.215C180.149 18.215 179.932 18.254 179.715 18.332C179.507 18.4013 179.317 18.5097 179.143 18.657C178.979 18.7957 178.84 18.9733 178.727 19.19C178.623 19.4067 178.571 19.6537 178.571 19.931V24.338H177.31V17.227H178.532V18.124H178.545C178.762 17.7947 179.048 17.5433 179.403 17.37C179.759 17.188 180.183 17.097 180.677 17.097C181.024 17.097 181.349 17.149 181.652 17.253C181.956 17.357 182.22 17.513 182.445 17.721C182.671 17.929 182.848 18.1933 182.978 18.514C183.108 18.8347 183.173 19.2073 183.173 19.632V24.338ZM187.069 24.442C186.349 24.442 185.777 24.2643 185.353 23.909C184.937 23.5537 184.729 23.064 184.729 22.44V22.089C184.729 21.4823 184.932 20.9883 185.34 20.607C185.747 20.2257 186.406 20.035 187.316 20.035H189.123V19.619C189.123 19.1423 189.006 18.7913 188.772 18.566C188.546 18.332 188.174 18.215 187.654 18.215C187.238 18.215 186.874 18.28 186.562 18.41C186.258 18.54 185.942 18.7133 185.613 18.93L184.989 17.994C185.335 17.7513 185.725 17.5433 186.159 17.37C186.592 17.188 187.095 17.097 187.667 17.097C188.065 17.097 188.429 17.149 188.759 17.253C189.088 17.3483 189.37 17.4957 189.604 17.695C189.846 17.8857 190.033 18.124 190.163 18.41C190.301 18.6873 190.371 19.0037 190.371 19.359V24.338H189.162V23.48H189.149C189.079 23.61 188.984 23.7313 188.863 23.844C188.75 23.948 188.624 24.039 188.486 24.117C188.295 24.221 188.087 24.299 187.862 24.351C187.645 24.4117 187.381 24.442 187.069 24.442ZM189.123 21.101H187.342C186.848 21.101 186.492 21.1963 186.276 21.387C186.068 21.5777 185.964 21.842 185.964 22.18V22.362C185.964 22.7087 186.085 22.96 186.328 23.116C186.57 23.272 186.861 23.35 187.199 23.35C187.511 23.35 187.779 23.3153 188.005 23.246C188.239 23.168 188.451 23.0553 188.642 22.908C188.815 22.778 188.936 22.6307 189.006 22.466C189.084 22.2927 189.123 22.0717 189.123 21.803V21.101ZM193.526 14.51V24.338H192.265V14.51H193.526ZM198.011 22.908L199.883 17.227H201.209L197.517 27.276L196.373 26.873L197.296 24.442L194.709 17.227H196.074L197.959 22.908H198.011ZM204.606 23.35C205.074 23.35 205.438 23.2677 205.698 23.103C205.958 22.9383 206.088 22.713 206.088 22.427V22.323C206.088 22.1757 206.067 22.05 206.023 21.946C205.98 21.842 205.898 21.751 205.776 21.673C205.655 21.595 205.49 21.5257 205.282 21.465C205.074 21.3957 204.801 21.3263 204.463 21.257C204.073 21.179 203.727 21.0837 203.423 20.971C203.12 20.8583 202.864 20.724 202.656 20.568C202.448 20.4033 202.288 20.2083 202.175 19.983C202.071 19.7577 202.019 19.489 202.019 19.177V19.021C202.019 18.7783 202.071 18.54 202.175 18.306C202.279 18.072 202.44 17.8683 202.656 17.695C202.873 17.513 203.146 17.37 203.475 17.266C203.813 17.1533 204.212 17.097 204.671 17.097C205.157 17.097 205.607 17.1533 206.023 17.266C206.448 17.37 206.838 17.5477 207.193 17.799L206.634 18.748C206.4 18.5747 206.119 18.436 205.789 18.332C205.469 18.228 205.126 18.176 204.762 18.176C204.234 18.176 203.852 18.2583 203.618 18.423C203.393 18.579 203.28 18.7827 203.28 19.034V19.151C203.28 19.4283 203.397 19.6363 203.631 19.775C203.865 19.905 204.26 20.022 204.814 20.126C205.248 20.204 205.625 20.2993 205.945 20.412C206.266 20.5247 206.53 20.6677 206.738 20.841C206.946 21.0057 207.102 21.205 207.206 21.439C207.31 21.673 207.362 21.9547 207.362 22.284V22.453C207.362 22.7303 207.297 22.9903 207.167 23.233C207.046 23.4757 206.868 23.688 206.634 23.87C206.4 24.0433 206.114 24.182 205.776 24.286C205.447 24.39 205.074 24.442 204.658 24.442C204.06 24.442 203.519 24.364 203.033 24.208C202.548 24.052 202.136 23.844 201.798 23.584L202.383 22.596C202.704 22.8127 203.046 22.9947 203.41 23.142C203.774 23.2807 204.173 23.35 204.606 23.35ZM210.171 17.227V24.338H208.91V17.227H210.171ZM210.21 14.679V16.057H208.871V14.679H210.21ZM214.445 23.35C214.913 23.35 215.277 23.2677 215.537 23.103C215.797 22.9383 215.927 22.713 215.927 22.427V22.323C215.927 22.1757 215.906 22.05 215.862 21.946C215.819 21.842 215.737 21.751 215.615 21.673C215.494 21.595 215.329 21.5257 215.121 21.465C214.913 21.3957 214.64 21.3263 214.302 21.257C213.912 21.179 213.566 21.0837 213.262 20.971C212.959 20.8583 212.703 20.724 212.495 20.568C212.287 20.4033 212.127 20.2083 212.014 19.983C211.91 19.7577 211.858 19.489 211.858 19.177V19.021C211.858 18.7783 211.91 18.54 212.014 18.306C212.118 18.072 212.279 17.8683 212.495 17.695C212.712 17.513 212.985 17.37 213.314 17.266C213.652 17.1533 214.051 17.097 214.51 17.097C214.996 17.097 215.446 17.1533 215.862 17.266C216.287 17.37 216.677 17.5477 217.032 17.799L216.473 18.748C216.239 18.5747 215.958 18.436 215.628 18.332C215.308 18.228 214.965 18.176 214.601 18.176C214.073 18.176 213.691 18.2583 213.457 18.423C213.232 18.579 213.119 18.7827 213.119 19.034V19.151C213.119 19.4283 213.236 19.6363 213.47 19.775C213.704 19.905 214.099 20.022 214.653 20.126C215.087 20.204 215.464 20.2993 215.784 20.412C216.105 20.5247 216.369 20.6677 216.577 20.841C216.785 21.0057 216.941 21.205 217.045 21.439C217.149 21.673 217.201 21.9547 217.201 22.284V22.453C217.201 22.7303 217.136 22.9903 217.006 23.233C216.885 23.4757 216.707 23.688 216.473 23.87C216.239 24.0433 215.953 24.182 215.615 24.286C215.286 24.39 214.913 24.442 214.497 24.442C213.899 24.442 213.358 24.364 212.872 24.208C212.387 24.052 211.975 23.844 211.637 23.584L212.222 22.596C212.543 22.8127 212.885 22.9947 213.249 23.142C213.613 23.2807 214.012 23.35 214.445 23.35Z" fill="white"/>
</svg>
