<svg width="139" height="140" viewBox="0 0 139 140" fill="none" xmlns="http://www.w3.org/2000/svg">
<path d="M1 133L138.5 8" stroke="#E94162"/>
<rect x="20" width="100" height="140" fill="white"/>
<path d="M70.58 66.5504C68.59 64.5604 61.18 65.3804 60.18 67.8704C59.71 69.0404 67.5 70.9704 67.74 71.4604C68.34 72.6604 62.67 75.2004 61.88 76.0004C59.37 78.5104 63.14 79.3904 64.9 78.8404C65.66 78.6004 66.41 78.3404 67.17 78.0804C68.61 77.6004 70.05 77.1204 71.52 76.7604" stroke="black" stroke-width="1.19" stroke-linecap="round" stroke-linejoin="round"/>
<path d="M28.96 76.1503C28.82 77.3603 34.22 78.4103 34.82 78.5103C36.25 78.7503 37.71 78.8503 39.17 78.8903C44.46 79.0203 49.97 78.9603 55.05 77.3803C56.57 76.9103 59.4 75.1503 59.4 73.2203C59.4 71.1503 50.47 71.3303 49.19 71.3303C43.31 71.3303 38.54 70.0403 32.74 72.0903C31.99 72.3603 28.39 73.3403 28.39 74.5503C28.39 75.6903 29.22 73.9203 28.96 76.1603V76.1503Z" stroke="black" stroke-width="1.19" stroke-linecap="round" stroke-linejoin="round"/>
<path d="M28.4 76.0603C27.85 74.9703 28.22 77.2503 28.21 77.3803C28.16 78.3303 28.07 79.2703 28.02 80.2203C27.93 81.7703 27.89 83.3903 28.02 84.9503C28.48 90.5203 30.37 95.7403 31.23 101.21C31.33 101.83 31.38 105.22 32.74 105.56C35.29 106.2 40.65 104.18 43.52 104.05C48.11 103.84 52.01 104.12 56.56 103.29C58.35 102.96 59.64 102.83 61.29 102.34C61.98 102.14 63.37 101.77 63.37 101.77C63.37 101.77 61.68 100.73 61.29 99.8803C60.54 98.2403 60.58 95.5803 60.35 93.8303C59.85 90.0503 60.39 86.2503 59.97 82.4903C59.72 80.2003 58.27 78.4403 58.27 76.2503" stroke="black" stroke-width="1.19" stroke-linecap="round" stroke-linejoin="round"/>
<path d="M76.53 51.8103C76.21 50.1203 76.95 55.2203 77 55.0203C77.4 53.6103 76.63 50.6703 76.62 50.6703C76.14 50.6703 77.25 55.5803 76.53 51.8003V51.8103Z" stroke="black" stroke-width="1.19" stroke-linecap="round" stroke-linejoin="round"/>
<path d="M68.12 57.1003C66.47 56.2803 68.55 50.7103 68.88 49.5403C70.21 44.7903 72.34 40.8904 76.25 37.8204C78.63 35.9504 82.68 34.6703 85.7 34.2303C99.38 32.2203 109.5 43.7103 114.44 55.2203C115.76 58.3003 115.81 61.9803 116.14 65.2403C117.41 77.6203 111.71 82.1203 100.64 85.2803C94.04 87.1603 79.46 88.8503 76.63 80.3603" stroke="black" stroke-width="1.19" stroke-linecap="round" stroke-linejoin="round"/>
<path d="M93.81 89.2903C92.23 89.2903 91.11 91.9303 90.03 92.8803C88.99 93.8003 87.89 94.6503 86.82 95.5303C82.5 99.0503 76.66 100.34 71.32 98.5503C67.07 97.1303 61.03 93.5703 57.14 91.1803C55.62 90.2403 53.73 89.8003 52.04 89.2903C51.47 89.1203 49.84 89.0503 50.34 88.7203C50.61 88.5403 50.97 88.5903 51.29 88.5303" stroke="black" stroke-width="1.19" stroke-linecap="round" stroke-linejoin="round"/>
<path d="M50.33 88.9203C48.14 87.8203 43.38 87.7504 44.47 91.3804C45.05 93.3004 48.13 93.6903 49.57 94.5903C52.07 96.1503 54.34 98.1403 56.94 99.6903C58.44 100.59 60.42 100.61 62.04 101.2C65.77 102.56 69.33 105.34 73.19 106.12C82.11 107.9 90.48 103.27 96.25 97.0503C97.43 95.7803 99.07 94.6303 99.84 93.0803" stroke="black" stroke-width="1.19" stroke-linecap="round" stroke-linejoin="round"/>
<path d="M43.33 83.8104C42.28 83.2904 42.23 87.6604 42.2 87.9704C41.87 91.2504 42.31 94.4504 44.47 97.0404C45.65 98.4504 48.25 99.3004 48.25 96.6604" stroke="black" stroke-width="1.19" stroke-linecap="round" stroke-linejoin="round"/>
<path d="M43.14 83.6203C41.99 81.3203 46.19 82.1803 46.92 84.3803C47.77 86.9403 46.62 90.5603 46.92 93.2703C47.09 94.7803 49.48 96.3303 48.62 97.6203" stroke="black" stroke-width="1.19" stroke-linecap="round" stroke-linejoin="round"/>
<path d="M106.47 86.4603C106.34 86.4003 108.36 88.9303 108.93 90.0503C109.3 90.7803 109.55 91.5703 109.88 92.3203C111.27 95.5103 111.2 98.6303 111.2 101.96" stroke="black" stroke-width="1.19" stroke-linecap="round" stroke-linejoin="round"/>
<path d="M43.41 64.7703C42.74 63.4303 42.69 58.6603 42.09 58.1503C41.36 57.5403 40.21 58.4903 39.25 58.5303C32.18 58.8403 38.16 54.4303 38.87 52.2903" stroke="black" stroke-width="1.19" stroke-linecap="round" stroke-linejoin="round"/>
<path d="M51.36 63.4503C49.69 63.4503 49.04 56.6303 49.66 55.8903C50.04 55.4403 53.85 55.5903 54.39 55.3203C57.65 53.6903 55.52 50.2103 54.96 47.9503" stroke="black" stroke-width="1.19" stroke-linecap="round" stroke-linejoin="round"/>
<path d="M33.96 67.0403C33.2 65.5303 33.8 62.1403 30.75 62.5003C29.26 62.6803 28.05 64.7703 26.78 64.7703C26.31 64.7703 23.53 59.5903 23 58.5303" stroke="black" stroke-width="1.19" stroke-linecap="round" stroke-linejoin="round"/>
<path d="M93.05 100.64C91.61 100.64 92.41 108.31 93.05 105.74" stroke="black" stroke-width="1.19" stroke-linecap="round" stroke-linejoin="round"/>
</svg>
