<svg width="139" height="140" viewBox="0 0 139 140" fill="none" xmlns="http://www.w3.org/2000/svg">
<path d="M1 133L138.5 8" stroke="#E94162"/>
<rect x="20" width="100" height="140" fill="white"/>
<path d="M51.2567 89.1534C50.1867 89.1534 50.1867 88.3533 50.0867 87.3933C49.9367 85.9633 49.7667 84.5333 49.6967 83.0933C49.5867 80.6233 49.6967 78.1434 49.6967 75.6734C49.6967 75.4134 49.5567 75.1134 49.6967 74.8934C50.3067 73.9834 51.3967 74.8334 52.0367 74.8934C53.1367 74.9934 54.2567 75.0034 55.3567 74.8934C59.5567 74.4834 63.6767 73.4734 67.8567 72.9434C71.1167 72.5334 74.6267 72.8033 77.8167 72.1633C82.3067 71.2633 79.6767 82.0734 79.5767 84.4734C79.5667 84.8034 79.5767 85.7734 79.5767 85.4534" stroke="black" stroke-width="1.19" stroke-linecap="round" stroke-linejoin="round"/>
<path d="M41.0967 112.793C39.5267 112.793 39.1867 109.673 38.9467 108.883C37.5367 104.133 36.8867 99.5534 36.4067 94.6234C36.2967 93.4534 35.9267 92.2434 36.2067 91.1034C36.5067 89.9034 40.8767 90.1734 41.2867 90.1234C43.5067 89.8834 45.7167 89.6234 47.9267 89.3434C54.9167 88.4534 61.8067 87.3734 68.8267 86.8034C75.8867 86.2234 82.8767 85.2634 89.9267 84.6534C90.2967 84.6234 94.4467 84.3934 94.6167 84.6534C94.9067 85.0834 93.5767 88.4934 93.4467 88.9534C92.7467 91.3734 91.8767 93.7334 91.2967 96.1834C90.3167 100.343 90.1467 104.473 89.7367 108.683C89.6967 109.103 88.0067 116.773 88.9567 116.303" stroke="black" stroke-width="1.19" stroke-linecap="round" stroke-linejoin="round"/>
<path d="M72.3567 71.7634C70.1267 70.6434 75.2567 64.4534 76.6567 63.7534C78.9767 62.5934 85.1667 63.9534 86.0367 63.9534" stroke="black" stroke-width="1.19" stroke-linecap="round" stroke-linejoin="round"/>
<path d="M54.3867 73.5234C52.0367 71.1734 53.8767 66.6934 51.8467 64.1434C51.3567 63.5334 46.9767 64.9934 46.5767 65.1234C45.0867 65.6034 43.2667 66.4934 41.6967 66.4934C41.1767 66.4934 42.7567 66.3634 43.2567 66.4934" stroke="black" stroke-width="1.19" stroke-linecap="round" stroke-linejoin="round"/>
<path d="M62.7867 73.1334C61.2967 72.3934 61.7767 67.3334 61.8067 66.4934C61.8967 64.2734 62.1067 62.0634 62.1967 59.8534C62.2167 59.4534 61.6967 56.3734 62.3967 56.7234" stroke="black" stroke-width="1.19" stroke-linecap="round" stroke-linejoin="round"/>
<path d="M46.9567 88.7634C44.3267 87.4434 43.1467 83.4434 40.5067 82.1234C39.7967 81.7734 33.6767 82.1234 35.6267 82.1234" stroke="black" stroke-width="1.19" stroke-linecap="round" stroke-linejoin="round"/>
<path d="M86.8167 84.8534C85.2767 84.0834 86.8567 80.1234 87.0167 79.3834C87.1767 78.6034 86.6967 77.3934 87.4067 77.0434C88.2267 76.6334 89.2467 76.8634 90.1467 76.6534C91.3767 76.3634 92.6167 76.0834 93.8567 75.8734C95.0167 75.6734 98.5567 75.4834 97.3767 75.4834" stroke="black" stroke-width="1.19" stroke-linecap="round" stroke-linejoin="round"/>
<path d="M98.6367 75.2834C98.1867 73.6934 98.3467 73.6934 100.297 72.5434C101.867 71.6234 104.037 73.6133 105.177 72.3433C106.027 71.4033 105.767 69.7634 105.767 68.6334V68.0434C105.767 68.0434 105.687 68.7033 105.767 69.0233C105.967 69.8033 106.257 70.2834 106.357 71.1734C106.497 72.4734 106.277 73.9534 105.577 75.0834C104.177 77.3234 99.4567 78.1634 98.6367 75.2834V75.2834Z" stroke="black" stroke-width="1.19" stroke-linecap="round" stroke-linejoin="round"/>
<path d="M85.5467 63.7533C85.6867 62.4633 87.7967 56.9133 88.5767 57.1133C89.4867 57.3433 89.8867 58.5034 90.1367 59.2634C90.7367 61.0634 90.8367 63.6433 88.3767 63.9533C87.2567 64.0933 86.3767 64.2333 85.2467 64.3433C85.0467 64.3633 84.5667 64.7233 84.6567 64.5433C84.8367 64.1933 85.4967 64.1534 85.5367 63.7634L85.5467 63.7533Z" stroke="black" stroke-width="1.19" stroke-linecap="round" stroke-linejoin="round"/>
<path d="M62.2967 55.9333C60.6267 56.2833 57.3967 53.1033 57.1167 51.6333C56.6367 49.0833 61.2967 48.8533 60.0467 46.3633C59.9767 46.2333 59.8267 46.6133 59.8467 46.7533C59.9467 47.2333 60.7067 48.0033 61.0167 48.3133C61.9267 49.2233 63.4667 50.6233 63.9467 51.8333C64.4267 53.0333 62.5767 55.8733 62.2867 55.9333H62.2967Z" stroke="black" stroke-width="1.19" stroke-linecap="round" stroke-linejoin="round"/>
<path d="M41.6867 66.6833C40.4767 65.3533 37.7567 64.8433 36.2167 63.9433C35.3967 63.4633 35.0767 63.0933 34.6567 62.3833C34.5867 62.2533 34.5667 61.8933 34.4567 61.9933C34.2667 62.1833 34.2867 64.3434 34.2567 64.7334C34.2367 65.0434 34.1367 67.4433 34.4567 67.8633C35.3567 69.0533 42.6767 67.7833 41.6867 66.6933V66.6833Z" stroke="black" stroke-width="1.19" stroke-linecap="round" stroke-linejoin="round"/>
<path d="M34.6467 81.4334C34.9167 81.3234 34.5267 79.9234 34.4467 79.5734C34.1467 78.2434 33.1867 77.4734 31.7067 77.6234C30.1467 77.7834 29.3767 79.8034 27.6067 79.5734C27.5467 79.5734 24.5167 78.9534 25.0667 78.4034C25.2667 78.2034 25.4967 78.7634 25.6567 78.9934C26.7467 80.6334 27.5967 83.2534 29.3667 84.2634C33.6067 86.6934 32.4567 82.2734 34.6367 81.4334H34.6467Z" stroke="black" stroke-width="1.19" stroke-linecap="round" stroke-linejoin="round"/>
<path d="M55.5667 96.7533C53.6367 95.7933 52.0767 104.543 51.7867 106.583C51.7567 106.783 51.9267 106.213 51.9767 106.013C52.1167 105.383 52.2267 104.753 52.3567 104.123" stroke="black" stroke-width="1.19" stroke-linecap="round" stroke-linejoin="round"/>
<path d="M53.2967 100.913C53.2967 100.913 56.7367 105.623 58.5867 104.693" stroke="black" stroke-width="1.19" stroke-linecap="round" stroke-linejoin="round"/>
<path d="M60.0967 98.0733C59.6167 99.9833 60.1767 104.673 60.8567 106.013" stroke="black" stroke-width="1.19" stroke-linecap="round" stroke-linejoin="round"/>
<path d="M60.4767 101.473C61.6967 100.863 63.4867 100.903 64.8267 100.903" stroke="black" stroke-width="1.19" stroke-linecap="round" stroke-linejoin="round"/>
<path d="M65.0167 97.6934C64.3067 97.3334 64.2567 103.863 64.2567 105.823" stroke="black" stroke-width="1.19" stroke-linecap="round" stroke-linejoin="round"/>
<path d="M61.1367 109.513C58.4667 108.203 59.4767 115.823 63.6867 111.873C64.1967 111.393 64.4567 110.663 64.6367 109.983C65.3967 106.923 61.7667 109.813 61.1367 109.513Z" stroke="black" stroke-width="1.19" stroke-linecap="round" stroke-linejoin="round"/>
<path d="M72.1067 94.1033C71.3767 94.1033 70.6567 94.0234 69.9367 93.9134C68.6067 93.7134 76.4267 94.1533 72.1067 94.1033Z" stroke="black" stroke-width="1.19" stroke-linecap="round" stroke-linejoin="round"/>
<path d="M68.4167 97.3233C67.7167 97.3233 69.7967 97.4734 70.4967 97.5134C70.8067 97.5334 71.1267 97.5134 71.4467 97.5134H73.5267C73.9067 97.5134 74.8267 97.1734 74.6567 97.5134C74.4567 97.9234 73.7167 97.6333 73.3367 97.8933C72.5967 98.3833 71.9767 99.0733 71.4467 99.7833C70.7967 100.653 70.1667 102.803 71.6367 102.803" stroke="black" stroke-width="1.19" stroke-linecap="round" stroke-linejoin="round"/>
<path d="M72.7667 99.4034C73.5367 99.0234 75.7067 100.003 76.7367 100.353" stroke="black" stroke-width="1.19" stroke-linecap="round" stroke-linejoin="round"/>
<path d="M70.1167 104.503C70.1167 103.043 76.4167 103.243 77.6767 102.613C78.2367 102.333 76.5467 101.603 75.9767 101.853C74.9667 102.303 75.2167 105.473 75.2167 106.393" stroke="black" stroke-width="1.19" stroke-linecap="round" stroke-linejoin="round"/>
<path d="M72.3867 107.713C70.3167 106.683 75.3567 106.653 76.1667 106.583C76.2967 106.573 76.4767 106.483 76.5467 106.583C77.0367 107.313 75.0567 111.913 76.5467 109.423" stroke="black" stroke-width="1.19" stroke-linecap="round" stroke-linejoin="round"/>
<path d="M70.4367 43.6833C69.2767 43.1033 70.5567 40.2833 70.8167 39.7133C72.0467 36.9433 73.8967 34.9233 76.1067 32.9033C83.1167 26.5233 93.0867 21.0933 102.767 23.6433C111.377 25.9133 112.317 39.3233 109.007 45.9533C107.947 48.0833 103.717 52.6634 103.717 54.4634" stroke="black" stroke-width="1.19" stroke-linecap="round" stroke-linejoin="round"/>
<path d="M105.597 50.8633C103.607 52.8533 102.787 56.5634 100.497 58.2334C97.2367 60.6034 93.3367 61.1734 90.0967 63.3334C88.1167 64.6534 86.6967 65.8534 85.7467 68.0634C85.4567 68.7434 83.8767 71.8233 85.1767 70.5233" stroke="black" stroke-width="1.19" stroke-linecap="round" stroke-linejoin="round"/>
<path d="M70.0567 41.0333C70.0567 42.7433 68.9367 44.3133 68.5467 45.9533C67.9467 48.4633 68.0067 51.1533 67.7867 53.7033C67.4867 57.3533 66.7867 60.6033 67.2167 64.2933C67.3667 65.6033 68.1767 70.8233 69.4867 71.4733" stroke="black" stroke-width="1.19" stroke-linecap="round" stroke-linejoin="round"/>
<path d="M87.8267 33.2834C89.7467 33.7634 91.0767 34.8734 91.9867 36.6834" stroke="black" stroke-width="1.19" stroke-linecap="round" stroke-linejoin="round"/>
<path d="M95.7667 41.7833C95.5767 41.7833 95.0467 41.6733 95.1967 41.7833C96.8567 43.0233 97.2467 43.0433 98.2167 44.9933" stroke="black" stroke-width="1.19" stroke-linecap="round" stroke-linejoin="round"/>
<path d="M84.3267 44.9033C83.1767 44.7533 80.8867 48.5633 83.2867 48.7833C85.8467 49.0133 86.9567 45.2533 84.3267 44.9033Z" stroke="black" stroke-width="1.19" stroke-linecap="round" stroke-linejoin="round"/>
<path d="M66.6567 57.4833C65.9067 55.9833 65.9167 53.9733 65.3367 52.3833C63.6967 47.8833 59.1067 42.6233 55.8867 39.1533C54.0167 37.1433 50.4667 33.5633 51.1567 30.4533C51.6767 28.1233 55.1167 26.0933 57.0167 27.9933C58.2167 29.1933 58.8367 30.8433 59.8567 32.1533C61.8467 34.7133 63.6567 36.7733 64.9567 39.7133C65.8867 41.7933 67.9767 43.6133 67.9767 45.9533" stroke="black" stroke-width="1.19" stroke-linecap="round" stroke-linejoin="round"/>
<path d="M92.3667 62.5834C91.8767 61.6034 98.0067 60.9234 99.1767 60.6934C104.607 59.6034 117.487 59.4733 116.757 67.5033C116.347 72.0433 111.957 70.6234 108.627 69.9634C102.727 68.7834 91.2367 67.5033 88.0167 73.9333" stroke="black" stroke-width="1.19" stroke-linecap="round" stroke-linejoin="round"/>
</svg>
