<svg width="139" height="140" viewBox="0 0 139 140" fill="none" xmlns="http://www.w3.org/2000/svg">
<path d="M1 133L138.5 8" stroke="#E94162"/>
<rect x="20" width="100" height="140" fill="white"/>
<path d="M35.1579 81.4397C34.1446 82.453 34.7252 85.971 34.7252 86.6086C34.7252 90.8211 34.8619 95.1134 35.1579 99.3031C35.2603 100.726 35.9207 109.299 36.6607 108.559" stroke="black" stroke-width="1.19" stroke-linecap="round" stroke-linejoin="round"/>
<path d="M36.8771 80.1418C37.3438 79.1968 43.5602 80.9273 45.0516 81.007C53.6817 81.4169 62.676 79.4814 71.306 79.0715C80.1523 78.6503 88.919 76.9197 97.7767 76.9197C98.5623 76.9197 103.788 76.5554 104.016 76.7034C106.646 78.4567 106.384 83.99 106.384 86.6086C106.384 93.0185 108.388 99.5764 107.67 105.975C107.386 108.571 98.6078 108.343 96.2624 108.559C83.511 109.755 71.1125 110.267 58.3838 108.992C53.249 108.48 46.452 108.286 41.3742 109.208C40.6455 109.345 36.7404 110.062 36.4216 109.641C36.0573 109.151 37.3211 108.468 37.5032 108.354" stroke="black" stroke-width="1.19" stroke-linecap="round" stroke-linejoin="round"/>
<path d="M65.7272 81.2234C65.1466 80.0621 65.5223 82.3505 65.5109 82.5099C65.3857 84.3771 65.1466 86.2329 65.0783 88.1115C64.8847 93.2007 64.509 98.8022 65.5109 103.823C65.7045 104.791 65.8411 110.005 67.879 108.992" stroke="black" stroke-width="1.19" stroke-linecap="round" stroke-linejoin="round"/>
<path d="M69.5982 81.4397C69.5982 88.2708 70.2244 95.5802 71.3174 102.32C71.5451 103.698 71.8753 105.053 72.1827 106.408C72.2282 106.624 72.3307 107.273 72.399 107.056C72.5356 106.647 72.399 106.191 72.399 105.77" stroke="black" stroke-width="1.19" stroke-linecap="round" stroke-linejoin="round"/>
<path d="M65.2946 79.823C64.3496 77.5345 64.7709 74.5174 62.4939 73.0374C59.7614 71.2613 51.9853 71.5004 51.3021 75.8381C50.6418 80.0507 61.7652 80.5744 64.213 80.5744C64.7823 80.5744 65.6476 81.0753 65.9322 80.5744C66.0916 80.2898 65.4085 80.1304 65.2832 79.823H65.2946Z" stroke="black" stroke-width="1.19" stroke-linecap="round" stroke-linejoin="round"/>
<path d="M69.1656 79.4928C63.9397 80.6541 70.8847 70.6578 73.2529 69.5876C75.3819 68.6313 80.8924 67.3903 81.8601 70.8742C82.0423 71.5345 81.7007 72.3315 81.2111 72.8097C78.7633 75.2575 70.2585 79.2423 69.1542 79.4814L69.1656 79.4928Z" stroke="black" stroke-width="1.19" stroke-linecap="round" stroke-linejoin="round"/>
<path d="M35.9093 92.5175C32.9833 91.0716 40.9302 88.897 41.397 92.1987C41.5905 93.5536 36.2053 95.4777 35.1579 95.8534C35.0212 95.8989 34.7252 95.8534 34.7252 95.8534C34.7252 95.8534 35.3173 95.7509 35.5905 95.6371C36.3647 95.3069 42.1029 94.3619 41.8296 96.286C41.4994 98.5972 38.1067 99.5194 36.2281 99.5194H37.3097C38.3002 99.5194 42.4103 98.9957 41.397 101.022C40.6683 102.491 38.414 102.411 37.0933 102.741C36.8087 102.81 36.2281 102.958 36.2281 102.958C36.2281 102.958 40.0877 102.582 39.8827 103.823C39.4956 106.123 33.7347 107.227 31.9245 106.624C28.9757 105.645 24.433 101.102 26.5392 97.5839C28.0193 95.102 29.9207 94.305 32.562 93.4966C33.4045 93.2348 36.0915 92.6314 35.8979 92.5289L35.9093 92.5175Z" stroke="black" stroke-width="1.19" stroke-linecap="round" stroke-linejoin="round"/>
<path d="M105.325 92.0963C106.509 93.0413 101.181 92.5631 100.373 94.5669C99.9627 95.6029 103.435 95.6485 103.811 95.6485C104.027 95.6485 104.46 95.4321 104.46 95.6485C104.46 95.7282 99.7463 97.7206 99.9399 98.8819C100.236 100.681 104.722 98.8591 105.541 98.4492C105.689 98.3809 105.974 98.3923 105.974 98.2329C105.974 97.9369 105.382 98.3126 105.109 98.4492C104.699 98.6542 99.9854 101.284 100.589 101.888C101.568 102.867 104.141 101.728 105.109 101.239C105.257 101.17 105.541 101.022 105.541 101.022C105.541 101.022 103.868 102.32 104.039 103.174C104.244 104.187 105.849 104.233 106.623 104.039C111.906 102.719 114.376 98.5631 114.376 93.4967C114.376 92.3467 114.001 91.2652 112.874 90.6959C111.598 90.0583 101.921 89.3866 105.336 92.0963H105.325Z" stroke="black" stroke-width="1.19" stroke-linecap="round" stroke-linejoin="round"/>
<path d="M64.6457 65.933C62.8582 64.1455 64.1105 61.1284 64.6457 59.0449C66.4331 52.1113 69.6666 46.191 74.3345 40.7488C77.158 37.4585 80.733 34.9879 84.456 32.7792C97.7198 24.9006 105.849 35.0562 109.64 47.2043C112.714 57.0297 108.046 68.6882 99.9513 74.7565" stroke="black" stroke-width="1.19" stroke-linecap="round" stroke-linejoin="round"/>
<path d="M91.1163 47.2157L90.9 46.783L90.0347 47.8646L88.9531 49.1512L88.7368 49.5838" stroke="black" stroke-width="1.19" stroke-linecap="round" stroke-linejoin="round"/>
<path d="M100.373 52.5895L99.7236 52.8058L98.8583 53.6711L98.4257 54.1037L97.993 54.7527L97.7767 55.1853" stroke="black" stroke-width="1.19" stroke-linecap="round" stroke-linejoin="round"/>
<path d="M81.0062 61.8457C82.1561 65.284 85.9588 66.8324 89.3971 66.1493" stroke="black" stroke-width="1.19" stroke-linecap="round" stroke-linejoin="round"/>
</svg>
