<svg width="270" height="362" viewBox="0 0 270 362" fill="none" xmlns="http://www.w3.org/2000/svg">
<g opacity="0.2">
<path d="M151.485 89.3433L89.9164 125.006L28.3473 89.3426" stroke="white" stroke-miterlimit="10"/>
<path d="M26.182 137.36V165.071L89.9162 201.988L117.23 186.167" stroke="white" stroke-miterlimit="10"/>
<path d="M153.65 122.437V90.5932L89.9162 53.6756L26.182 90.5925V126.453" stroke="white" stroke-miterlimit="10"/>
<path d="M89.9161 125V201.988" stroke="white" stroke-miterlimit="10"/>
<path d="M242.533 36.655L180.964 72.3173L119.395 36.6542" stroke="white" stroke-miterlimit="10"/>
<path d="M244.699 69.7618V37.9176L180.965 1L117.23 37.9169V69.5" stroke="white" stroke-miterlimit="10"/>
<path d="M180.964 72.3212V106.613" stroke="white" stroke-miterlimit="10"/>
<path d="M242.533 142.282L180.964 177.945L119.395 142.282" stroke="white" stroke-miterlimit="10"/>
<path d="M180.965 106.615L117.23 143.532V218.012L180.965 254.929L244.699 218.013V143.532L180.965 106.615Z" stroke="white" stroke-miterlimit="10"/>
<path d="M180.964 177.952V254.941" stroke="white" stroke-miterlimit="10"/>
<path d="M333.582 89.6003L272.013 125.263L210.444 89.5996" stroke="white" stroke-miterlimit="10"/>
<path d="M244.698 186.432L272.013 202.253L335.747 165.336V90.8561L272.013 53.9385L208.279 90.8554V122.439" stroke="white" stroke-miterlimit="10"/>
<path d="M117.23 215.248L89.9164 231.069L28.3473 195.406" stroke="white" stroke-miterlimit="10"/>
<path d="M52.8015 181.233L26.182 196.653V271.133L89.9162 308.05L117.23 292.229" stroke="white" stroke-miterlimit="10"/>
<path d="M89.9161 231.067V308.055" stroke="white" stroke-miterlimit="10"/>
<path d="M242.533 248.351L180.964 284.014L119.395 248.351" stroke="white" stroke-miterlimit="10"/>
<path d="M143.883 234.159L117.23 249.597V324.077L180.965 360.994L244.699 324.077V249.597L218.046 234.159" stroke="white" stroke-miterlimit="10"/>
<path d="M180.964 284.012V361" stroke="white" stroke-miterlimit="10"/>
<path d="M333.582 195.663L272.013 231.326L244.698 215.504" stroke="white" stroke-miterlimit="10"/>
<path d="M244.698 292.491L272.013 308.312L335.747 271.396V246.447" stroke="white" stroke-miterlimit="10"/>
</g>
</svg>
