<svg width="22" height="22" viewBox="0 0 22 22" fill="none" xmlns="http://www.w3.org/2000/svg">
<path d="M21.4679 17.5092C21.0327 18.0317 20.3879 18.3339 19.7079 18.3342H2.29125C1.61122 18.3339 0.966437 18.0317 0.53125 17.5092L8.93708 10.5059L9.80793 11.1017C10.5253 11.5967 11.4739 11.5967 12.1913 11.1017L13.0621 10.5059L21.4679 17.5092Z" fill="#1E88E5"/>
<path d="M21.5966 4.66524L13.0624 10.5044L12.1916 11.1002C11.4742 11.5952 10.5256 11.5952 9.80826 11.1002L8.93741 10.5044L0.40332 4.65605C0.832749 4.03682 1.53808 3.66704 2.29166 3.66605H19.7083C20.4653 3.66205 21.1741 4.03708 21.5966 4.66524Z" fill="#64B5F6"/>
<path d="M8.93752 10.5045L0.531692 17.5079C0.187642 17.0967 -0.000603795 16.5774 4.07346e-05 16.0412V5.9579C-0.00275223 5.49285 0.138142 5.03824 0.403388 4.65625L8.93752 10.5045Z" fill="#2196F3"/>
<path d="M22 5.95851V16.0418C22.0006 16.578 21.8124 17.0973 21.4683 17.5085L13.0625 10.5052L21.5966 4.66602C21.8605 5.04526 22.0014 5.49647 22 5.95851Z" fill="#2196F3"/>
</svg>
