<svg width="60" height="60" viewBox="0 0 60 60" fill="none" xmlns="http://www.w3.org/2000/svg">
<path d="M50 15L9.54915 44.3893" stroke="#F2FFA5" stroke-width="19" stroke-linecap="round"/>
<path d="M48.0002 18.0004L45.1043 23.0025C44.7467 23.6201 44.0871 24.0004 43.3734 24.0004H13.0002C11.8956 24.0004 11.0002 23.105 11.0002 22.0004V18.684" stroke="#1335A3"/>
<path d="M45.0002 42.0001V36.0001C45.0002 34.8955 44.1047 34.0001 43.0002 34.0001H13.0002C11.8956 34.0001 11.0002 34.8955 11.0002 36.0001V40.0001" stroke="#1335A3"/>
<path d="M11 29H45" stroke="#1335A3"/>
<rect x="8" y="13" width="6" height="6" rx="3" fill="white"/>
<path fill-rule="evenodd" clip-rule="evenodd" d="M11 13C9.34315 13 8 14.3431 8 16C8 17.6569 9.34315 19 11 19C11.3978 19 11.7776 18.9226 12.125 18.7819C11.0256 18.3369 10.25 17.259 10.25 16C10.25 14.741 11.0256 13.6631 12.125 13.2181C11.7776 13.0774 11.3978 13 11 13Z" fill="#D4E1F4"/>
<rect x="8.5" y="13.5" width="5" height="5" rx="2.5" stroke="#1335A3"/>
<circle cx="11" cy="41" r="3.5" fill="white" stroke="#1335A3"/>
<circle cx="11" cy="41" r="1.5" fill="white" stroke="#24D5B3"/>
<circle cx="45" cy="44" r="3.5" fill="white" stroke="#24D5B3"/>
<circle cx="45" cy="44" r="1.5" fill="white" stroke="#1335A3"/>
<path d="M28 16L28 12" stroke="#1335A3"/>
<circle cx="28" cy="11" r="1.5" fill="white" stroke="#1335A3"/>
<mask id="path-14-inside-1_4_61" fill="white">
<path fill-rule="evenodd" clip-rule="evenodd" d="M22.4953 43.6079C22.1765 44.3407 21.9997 45.1495 21.9997 45.9996C21.9997 49.3133 24.686 51.9996 27.9997 51.9996C31.3134 51.9996 33.9997 49.3133 33.9997 45.9996C33.9997 45.1495 33.8229 44.3407 33.5041 43.6079L33.802 39.6361C38.0692 37.5042 40.9997 33.0941 40.9997 27.9996C40.9997 20.8199 35.1794 14.9996 27.9997 14.9996C20.82 14.9996 14.9997 20.8199 14.9997 27.9996C14.9997 33.0941 17.9302 37.5042 22.1975 39.6361L22.4953 43.6079Z"/>
</mask>
<path fill-rule="evenodd" clip-rule="evenodd" d="M22.4953 43.6079C22.1765 44.3407 21.9997 45.1495 21.9997 45.9996C21.9997 49.3133 24.686 51.9996 27.9997 51.9996C31.3134 51.9996 33.9997 49.3133 33.9997 45.9996C33.9997 45.1495 33.8229 44.3407 33.5041 43.6079L33.802 39.6361C38.0692 37.5042 40.9997 33.0941 40.9997 27.9996C40.9997 20.8199 35.1794 14.9996 27.9997 14.9996C20.82 14.9996 14.9997 20.8199 14.9997 27.9996C14.9997 33.0941 17.9302 37.5042 22.1975 39.6361L22.4953 43.6079Z" fill="white"/>
<path d="M22.4953 43.6079L23.4123 44.0069L23.5111 43.7799L23.4925 43.5331L22.4953 43.6079ZM33.5041 43.6079L32.5069 43.5331L32.4884 43.7799L32.5871 44.0069L33.5041 43.6079ZM33.802 39.6361L33.3551 38.7415L32.8472 38.9952L32.8048 39.5613L33.802 39.6361ZM22.1975 39.6361L23.1947 39.5613L23.1522 38.9952L22.6444 38.7415L22.1975 39.6361ZM21.5784 43.2089C21.2058 44.0652 20.9997 45.0096 20.9997 45.9996H22.9997C22.9997 45.2893 23.1472 44.6161 23.4123 44.0069L21.5784 43.2089ZM20.9997 45.9996C20.9997 49.8656 24.1337 52.9996 27.9997 52.9996V50.9996C25.2383 50.9996 22.9997 48.761 22.9997 45.9996H20.9997ZM27.9997 52.9996C31.8657 52.9996 34.9997 49.8656 34.9997 45.9996H32.9997C32.9997 48.761 30.7611 50.9996 27.9997 50.9996V52.9996ZM34.9997 45.9996C34.9997 45.0096 34.7936 44.0652 34.4211 43.2089L32.5871 44.0069C32.8522 44.6161 32.9997 45.2893 32.9997 45.9996H34.9997ZM32.8048 39.5613L32.5069 43.5331L34.5013 43.6827L34.7992 39.7109L32.8048 39.5613ZM34.2489 40.5306C38.842 38.236 41.9997 33.4874 41.9997 27.9996H39.9997C39.9997 32.7008 37.2965 36.7724 33.3551 38.7415L34.2489 40.5306ZM41.9997 27.9996C41.9997 20.2676 35.7317 13.9996 27.9997 13.9996V15.9996C34.6271 15.9996 39.9997 21.3722 39.9997 27.9996H41.9997ZM27.9997 13.9996C20.2677 13.9996 13.9997 20.2676 13.9997 27.9996H15.9997C15.9997 21.3722 21.3723 15.9996 27.9997 15.9996V13.9996ZM13.9997 27.9996C13.9997 33.4874 17.1575 38.236 21.7505 40.5306L22.6444 38.7415C18.703 36.7724 15.9997 32.7008 15.9997 27.9996H13.9997ZM23.4925 43.5331L23.1947 39.5613L21.2003 39.7109L21.4982 43.6827L23.4925 43.5331Z" fill="#1335A3" mask="url(#path-14-inside-1_4_61)"/>
<rect x="20.5" y="41.5" width="15" height="3" rx="1.5" fill="white" stroke="#1335A3"/>
<rect x="20.5" y="44.5" width="15" height="3" rx="1.5" fill="white" stroke="#1335A3"/>
<mask id="path-18-inside-2_4_61" fill="white">
<path fill-rule="evenodd" clip-rule="evenodd" d="M20.718 23.9297C20.718 24.7953 20.9657 25.603 21.3942 26.2858C20.5111 26.7634 19.9113 27.6976 19.9113 28.772C19.9113 30.2884 21.1061 31.5256 22.6056 31.5936C22.4304 31.9614 22.3323 32.3729 22.3323 32.8074C22.3323 34.3673 23.5969 35.6319 25.1568 35.6319C25.5901 35.6319 26.0007 35.5344 26.3676 35.36V41.2802H29.5957V35.36C29.9626 35.5343 30.3732 35.6319 30.8065 35.6319C32.3665 35.6319 33.6311 34.3673 33.6311 32.8074C33.6311 32.3576 33.5259 31.9324 33.339 31.555C34.8767 31.3082 36.0515 29.9753 36.0515 28.3679C36.0515 27.0471 35.2582 25.9116 34.1221 25.4117C34.3248 24.9591 34.4375 24.4574 34.4375 23.9294C34.4375 21.9237 32.8115 20.2978 30.8059 20.2978C29.9568 20.2978 29.1759 20.5892 28.5575 21.0774C27.7432 20.1076 26.5219 19.4911 25.1566 19.4911C22.7052 19.4911 20.718 21.4784 20.718 23.9297Z"/>
</mask>
<path d="M21.3942 26.2858L21.8699 27.1654L22.8083 26.658L22.2412 25.7543L21.3942 26.2858ZM22.6056 31.5936L23.5083 32.0239L24.1569 30.663L22.651 30.5947L22.6056 31.5936ZM26.3676 35.36H27.3676V33.7777L25.9384 34.4568L26.3676 35.36ZM26.3676 41.2802H25.3676V42.2802H26.3676V41.2802ZM29.5957 41.2802V42.2802H30.5957V41.2802H29.5957ZM29.5957 35.36L30.0249 34.4568L28.5957 33.7776V35.36H29.5957ZM33.339 31.555L33.1805 30.5677L31.8403 30.7828L32.4429 31.999L33.339 31.555ZM34.1221 25.4117L33.2094 25.0031L32.7982 25.9218L33.7194 26.3271L34.1221 25.4117ZM28.5575 21.0774L27.7916 21.7204L28.4155 22.4635L29.1771 21.8623L28.5575 21.0774ZM22.2412 25.7543C21.9098 25.2261 21.718 24.6019 21.718 23.9297H19.718C19.718 24.9888 20.0217 25.98 20.5472 26.8174L22.2412 25.7543ZM20.9113 28.772C20.9113 28.0794 21.2969 27.4753 21.8699 27.1654L20.9185 25.4062C19.7254 26.0514 18.9113 27.3159 18.9113 28.772H20.9113ZM22.651 30.5947C21.6831 30.5508 20.9113 29.7513 20.9113 28.772H18.9113C18.9113 30.8255 20.5291 32.5004 22.5603 32.5926L22.651 30.5947ZM23.3323 32.8074C23.3323 32.5249 23.3958 32.2601 23.5083 32.0239L21.7029 31.1634C21.465 31.6626 21.3323 32.2209 21.3323 32.8074H23.3323ZM25.1568 34.6319C24.1492 34.6319 23.3323 33.815 23.3323 32.8074H21.3323C21.3323 34.9196 23.0446 36.6319 25.1568 36.6319V34.6319ZM25.9384 34.4568C25.7027 34.5688 25.4386 34.6319 25.1568 34.6319V36.6319C25.7417 36.6319 26.2986 36.4999 26.7968 36.2632L25.9384 34.4568ZM27.3676 41.2802V35.36H25.3676V41.2802H27.3676ZM29.5957 40.2802H26.3676V42.2802H29.5957V40.2802ZM28.5957 35.36V41.2802H30.5957V35.36H28.5957ZM30.8065 34.6319C30.5248 34.6319 30.2606 34.5688 30.0249 34.4568L29.1665 36.2632C29.6647 36.4999 30.2216 36.6319 30.8065 36.6319V34.6319ZM32.6311 32.8074C32.6311 33.815 31.8142 34.6319 30.8065 34.6319V36.6319C32.9187 36.6319 34.6311 34.9196 34.6311 32.8074H32.6311ZM32.4429 31.999C32.563 32.2415 32.6311 32.515 32.6311 32.8074H34.6311C34.6311 32.2002 34.4888 31.6234 34.235 31.1111L32.4429 31.999ZM35.0515 28.3679C35.0515 29.4764 34.2411 30.3974 33.1805 30.5677L33.4974 32.5424C35.5124 32.219 37.0515 30.4741 37.0515 28.3679H35.0515ZM33.7194 26.3271C34.5057 26.673 35.0515 27.4578 35.0515 28.3679H37.0515C37.0515 26.6364 36.0108 25.1501 34.5248 24.4964L33.7194 26.3271ZM33.4375 23.9294C33.4375 24.3139 33.3556 24.6765 33.2094 25.0031L35.0349 25.8203C35.2939 25.2417 35.4375 24.601 35.4375 23.9294H33.4375ZM30.8059 21.2978C32.2593 21.2978 33.4375 22.476 33.4375 23.9294H35.4375C35.4375 21.3715 33.3638 19.2978 30.8059 19.2978V21.2978ZM29.1771 21.8623C29.6253 21.5084 30.1896 21.2978 30.8059 21.2978V19.2978C29.7241 19.2978 28.7264 19.67 27.9378 20.2925L29.1771 21.8623ZM25.1566 20.4911C26.214 20.4911 27.1593 20.9672 27.7916 21.7204L29.3233 20.4344C28.3272 19.248 26.8298 18.4911 25.1566 18.4911V20.4911ZM21.718 23.9297C21.718 22.0307 23.2575 20.4911 25.1566 20.4911V18.4911C22.1529 18.4911 19.718 20.9261 19.718 23.9297H21.718Z" fill="#1335A3" mask="url(#path-18-inside-2_4_61)"/>
<circle cx="25.1579" cy="23.9302" r="3.9386" stroke="#1335A3"/>
<circle cx="30.8069" cy="32.8069" r="2.32456" stroke="#1335A3"/>
<path d="M30 22.316L32.8245 29.5791L31.0087 32.4037L27.5789 33.6142L26.9737 30.3862L23.1403 28.7721L25.9649 24.737L30 22.316Z" fill="white"/>
<rect x="46" y="14" width="6" height="6" rx="3" fill="white"/>
<path fill-rule="evenodd" clip-rule="evenodd" d="M49 14C47.3431 14 46 15.3431 46 17C46 18.6569 47.3431 20 49 20C49.3978 20 49.7776 19.9226 50.125 19.7819C49.0256 19.3369 48.25 18.259 48.25 17C48.25 15.741 49.0256 14.6631 50.125 14.2181C49.7776 14.0774 49.3978 14 49 14Z" fill="#D4E1F4"/>
<rect x="46.5" y="14.5" width="5" height="5" rx="2.5" stroke="#24D5B3"/>
<rect x="9" y="27" width="4" height="4" rx="2" fill="white"/>
<path fill-rule="evenodd" clip-rule="evenodd" d="M11 27C9.89543 27 9 27.8954 9 29C9 30.1046 9.89543 31 11 31C11.2652 31 11.5184 30.9484 11.75 30.8546C11.017 30.5579 10.5 29.8393 10.5 29C10.5 28.1607 11.017 27.4421 11.75 27.1454C11.5184 27.0516 11.2652 27 11 27Z" fill="#D4E1F4"/>
<rect x="9.5" y="27.5" width="3" height="3" rx="1.5" stroke="#24D5B3"/>
<rect x="44" y="27" width="4" height="4" rx="2" fill="white"/>
<path fill-rule="evenodd" clip-rule="evenodd" d="M46 27C44.8954 27 44 27.8954 44 29C44 30.1046 44.8954 31 46 31C46.2652 31 46.5184 30.9484 46.75 30.8546C46.017 30.5579 45.5 29.8393 45.5 29C45.5 28.1607 46.017 27.4421 46.75 27.1454C46.5184 27.0516 46.2652 27 46 27Z" fill="#D4E1F4"/>
<rect x="44.5" y="27.5" width="3" height="3" rx="1.5" stroke="#1335A3"/>
</svg>
