<svg width="81" height="80" viewBox="0 0 81 80" fill="none" xmlns="http://www.w3.org/2000/svg">
<path d="M58.3585 39.9998C58.3585 37.5935 57.8773 35.3185 56.9585 33.2621L54.771 29.4559C52.0585 25.781 47.8583 23.2434 43.046 22.6309H38.6709C33.902 23.2434 29.7022 25.7373 26.9459 29.4121L24.7584 33.2187C23.8397 35.2746 23.3584 37.5935 23.3584 39.9998C23.3584 42.4061 23.8397 44.6811 24.7584 46.7372L26.9459 50.5434C29.6584 54.2186 33.8586 56.7558 38.6709 57.3685H43.046C47.8149 56.756 52.0147 54.2623 54.771 50.5872L56.9585 46.7809C57.8773 44.7247 58.3585 42.4061 58.3585 39.9998Z" fill="#46CECE"/>
<path d="M22.6585 26.9629L26.9458 29.4129L24.7583 33.2195L20.471 30.7695C18.4146 32.5192 15.4396 32.9131 12.9458 31.4693C9.79592 29.632 8.74565 25.6504 10.5395 22.5005C12.3769 19.3504 16.3584 18.3004 19.5083 20.0943C22.0021 21.5379 23.1396 24.2942 22.6585 26.9629Z" fill="#35CACA"/>
<path d="M26.9458 50.5439L22.6585 53.0377C23.1397 55.7064 22.0021 58.4627 19.5083 59.9064C16.3584 61.7 12.377 60.65 10.5395 57.5002C8.74565 54.35 9.79592 50.3689 12.9458 48.5314C15.4396 47.0875 18.4146 47.4811 20.471 49.2313L24.7583 46.7812L26.9458 50.5439Z" fill="#35CACA"/>
<path d="M47.4209 68.4371C47.4209 72.0682 44.4898 74.9996 40.8584 74.9996C37.227 74.9996 34.2959 72.0682 34.2959 68.4371C34.2959 65.5932 36.1333 63.1871 38.6709 62.2682V57.3682H43.0459V62.2682C45.5836 63.1871 47.4209 65.5932 47.4209 68.4371Z" fill="#35CACA"/>
<path d="M47.4209 11.5625C47.4209 14.4061 45.5836 16.8125 43.0459 17.7312V22.6312H38.6709V17.7312C36.1333 16.8125 34.2959 14.4061 34.2959 11.5625C34.2959 7.93112 37.227 5 40.8584 5C44.4898 5 47.4209 7.93112 47.4209 11.5625Z" fill="#35CACA"/>
<path d="M71.1768 57.5C69.3394 60.6499 65.3579 61.6999 62.208 59.9063C59.7143 58.4624 58.5766 55.7061 59.0579 53.0375L54.7705 50.5875L56.958 46.7812L61.2454 49.2313C63.3018 47.4811 66.2768 47.0875 68.7705 48.5314C71.9204 50.3688 72.9707 54.3499 71.1768 57.5Z" fill="#35CACA"/>
<path d="M54.7705 29.4565L59.0579 26.9628C58.5766 24.294 59.7143 21.5378 62.208 20.0943C65.3579 18.3004 69.3393 19.3504 71.1768 22.5005C72.9707 25.6504 71.9204 29.6318 68.7705 31.4693C66.2768 32.9132 63.3018 32.5193 61.2454 30.7695L56.958 33.2192L54.7705 29.4565Z" fill="#35CACA"/>
<path d="M49.7399 37.4187V42.6249L56.9585 46.7812C56.3897 48.1374 55.646 49.4061 54.771 50.5874L47.5524 46.3873L43.046 48.9688V57.3687C42.3461 57.4564 41.6021 57.5001 40.8584 57.5001C40.1148 57.5001 39.3708 57.4564 38.6709 57.3687V48.8374L34.2959 46.3001L26.9459 50.5437C26.027 49.4062 25.2834 48.1374 24.7584 46.7812C24.7146 46.7812 24.7146 46.7812 24.7584 46.7374L31.977 42.5812V37.3749L24.7584 33.2188C25.3272 31.8625 26.0709 30.5936 26.9459 29.4122L34.1645 33.6124L38.6709 31.0313V22.6311C39.3708 22.5438 40.1148 22.5 40.8584 22.5C41.6021 22.5 42.3461 22.5438 43.046 22.6311V31.1624L47.421 33.7L54.771 29.4561C55.6899 30.5936 56.4335 31.8627 56.9585 33.2188C57.0022 33.2188 57.0022 33.2188 56.9585 33.2623L49.7399 37.4187Z" fill="#1FA4A4"/>
</svg>
