<svg width="120" height="120" viewBox="0 0 120 120" fill="none" xmlns="http://www.w3.org/2000/svg">
<g clip-path="url(#clip0_815_9696)">
<rect width="120" height="120" rx="30" fill="#F4F6FA"/>
<circle cx="61" cy="57" r="7.5" stroke="#2B2B2F" stroke-width="3"/>
<path d="M90.9491 59.1825C89.6954 58.6453 88.2756 58.6751 87.037 59.272L71.9628 66.554C69.2893 67.8522 66.4345 68.4939 63.5042 68.4939H55.3931C53.1577 68.4939 50.9977 68.0015 48.9737 67.0166L32.9328 59.272C31.6942 58.6751 30.2744 58.6453 29.0207 59.1825C27.6915 59.7495 26.6795 60.8836 26.2415 62.3012C25.5164 64.5992 26.468 67.1211 28.5071 68.2999L38.2042 73.9256C44.1554 77.3726 47.5237 84.2517 46.7685 91.4591L46.0283 98.4874L49.0341 98.8008L49.7743 91.7724C50.6503 83.416 46.708 75.4028 39.7298 71.3739L30.0327 65.7482C29.217 65.2707 28.8243 64.1814 29.1264 63.1965C29.3077 62.6146 29.7004 62.152 30.229 61.9431C30.6822 61.7491 31.1806 61.764 31.6187 61.9729L47.6596 69.7175C50.1066 70.8964 52.7196 71.4932 55.4082 71.4932H63.5193C66.9179 71.4932 70.2106 70.7322 73.3071 69.24L88.3813 61.958C88.8194 61.7491 89.3178 61.7342 89.771 61.9282C90.2845 62.152 90.6772 62.6146 90.8736 63.1816C91.1757 64.1516 90.7981 65.2558 89.9673 65.7333L80.2702 71.3589C73.292 75.4029 69.3497 83.416 70.2257 91.7575L70.9659 98.7859L73.9717 98.4725L73.2315 91.4442C72.4763 84.2517 75.8446 77.3726 81.7958 73.9106L91.4929 68.285C93.532 67.1061 94.4836 64.5843 93.7585 62.2863C93.3205 60.8687 92.3085 59.7346 90.9793 59.1676L90.9491 59.1825Z" fill="#2B2B2F"/>
<path d="M34.2625 54.5C34.725 54.5 35.2 54.4625 35.7625 54.3875C36.1625 54.3375 36.525 54.0875 36.7125 53.725L37.1875 52.8125C37.8 52.625 38.3875 52.3875 38.95 52.0875L39.9375 52.4C40.325 52.525 40.75 52.45 41.075 52.2C41.875 51.5875 42.6 50.875 43.2125 50.0625C43.4625 49.7375 43.5375 49.3125 43.4125 48.925L43.1 47.9375C43.4 47.375 43.65 46.7875 43.825 46.175L44.7375 45.7C45.1 45.5125 45.35 45.1625 45.4 44.75C45.475 44.1875 45.5125 43.7 45.5125 43.25C45.5125 42.8 45.475 42.3125 45.4 41.75C45.35 41.35 45.1 40.9875 44.7375 40.8L43.825 40.325C43.6375 39.7125 43.4 39.125 43.1 38.5625L43.4125 37.575C43.5375 37.1875 43.4625 36.7625 43.2125 36.4375C42.6 35.6375 41.8875 34.9125 41.075 34.3C40.75 34.05 40.325 33.975 39.9375 34.1L38.95 34.4125C38.3875 34.1125 37.8 33.8625 37.1875 33.6875L36.7125 32.775C36.525 32.4125 36.175 32.1625 35.7625 32.1125C34.625 31.9625 33.8875 31.9625 32.75 32.1125C32.35 32.1625 31.9875 32.4125 31.8 32.775L31.325 33.6875C30.7125 33.875 30.125 34.1125 29.5625 34.4125L28.575 34.1C28.1875 33.975 27.7625 34.05 27.4375 34.3C26.6375 34.9125 25.9125 35.625 25.3 36.4375C25.05 36.7625 24.975 37.1875 25.1 37.575L25.4125 38.5625C25.1125 39.125 24.8625 39.7125 24.6875 40.325L23.775 40.8C23.4125 40.9875 23.1625 41.3375 23.1125 41.75C23.0375 42.3125 23 42.8 23 43.25C23 43.7 23.0375 44.1875 23.1125 44.75C23.1625 45.15 23.4125 45.5125 23.775 45.7L24.6875 46.175C24.875 46.7875 25.1125 47.375 25.4125 47.9375L25.1 48.925C24.975 49.3125 25.05 49.7375 25.3 50.0625C25.9125 50.8625 26.625 51.5875 27.4375 52.2C27.7625 52.45 28.1875 52.525 28.575 52.4L29.5625 52.0875C30.125 52.3875 30.7125 52.6375 31.325 52.8125L31.8 53.725C31.9875 54.0875 32.3375 54.3375 32.75 54.3875C33.3125 54.4625 33.8 54.5 34.25 54.5H34.2625ZM30.3625 49.65C30.05 49.4625 29.675 49.4125 29.3375 49.525L28.475 49.8C28.2 49.5625 27.95 49.3 27.7125 49.0375L27.9875 48.175C28.1 47.825 28.05 47.45 27.8625 47.15C27.4625 46.4875 27.1625 45.775 26.9875 45.025C26.9 44.675 26.6625 44.375 26.35 44.2125L25.5375 43.8C25.525 43.6125 25.5125 43.4375 25.5125 43.2625C25.5125 43.0875 25.5125 42.9125 25.5375 42.725L26.35 42.3125C26.675 42.15 26.9125 41.85 26.9875 41.5C27.1625 40.75 27.4625 40.0375 27.8625 39.375C28.05 39.0625 28.1 38.6875 27.9875 38.35L27.7125 37.4875C27.95 37.2125 28.2125 36.9625 28.475 36.725L29.3375 37C29.675 37.1125 30.0625 37.0625 30.3625 36.875C31.025 36.475 31.7375 36.175 32.4875 36C32.8375 35.9125 33.1375 35.675 33.3 35.3625L33.7125 34.55C34.0875 34.525 34.4 34.525 34.7875 34.55L35.2 35.3625C35.3625 35.6875 35.6625 35.925 36.0125 36C36.7625 36.175 37.475 36.475 38.1375 36.875C38.45 37.0625 38.825 37.1125 39.1625 37L40.025 36.725C40.3 36.9625 40.55 37.225 40.7875 37.4875L40.5125 38.35C40.4 38.7 40.45 39.075 40.6375 39.375C41.0375 40.0375 41.3375 40.75 41.5125 41.5C41.6 41.85 41.8375 42.15 42.15 42.3125L42.9625 42.725C42.975 42.9125 42.9875 43.0875 42.9875 43.2625C42.9875 43.4375 42.9875 43.6125 42.9625 43.8L42.15 44.2125C41.825 44.375 41.5875 44.675 41.5125 45.025C41.3375 45.775 41.0375 46.4875 40.6375 47.15C40.45 47.4625 40.4 47.8375 40.5125 48.175L40.7875 49.0375C40.55 49.3125 40.2875 49.5625 40.025 49.8L39.1625 49.525C38.825 49.4125 38.4375 49.4625 38.1375 49.65C37.475 50.05 36.7625 50.35 36.0125 50.525C35.6625 50.6125 35.3625 50.85 35.2 51.1625L34.7875 51.975C34.4125 52 34.1 52 33.7125 51.975L33.3 51.1625C33.1375 50.8375 32.8375 50.6 32.4875 50.525C31.7375 50.35 31.025 50.05 30.3625 49.65Z" fill="#2B2B2F"/>
<path d="M39.0363 43.2496C39.0363 40.6121 36.8988 38.4746 34.2613 38.4746C31.6238 38.4746 29.4863 40.6121 29.4863 43.2496C29.4863 45.8871 31.6238 48.0246 34.2613 48.0246C36.8988 48.0246 39.0363 45.8871 39.0363 43.2496ZM31.9738 43.2496C31.9738 41.9996 32.9988 40.9746 34.2488 40.9746C35.4988 40.9746 36.5238 41.9996 36.5238 43.2496C36.5238 44.4996 35.4988 45.5246 34.2488 45.5246C32.9988 45.5246 31.9738 44.4996 31.9738 43.2496Z" fill="#2B2B2F"/>
<path d="M65.5907 30.4625L69.2532 29.725C69.7282 29.625 70.1032 29.275 70.2157 28.8L71.4657 23.8C71.5657 23.425 71.4657 23.025 71.2407 22.725C71.0032 22.425 70.6407 22.25 70.2532 22.25H66.5032C66.5032 21.5625 65.9407 21 65.2532 21H55.2532C54.5657 21 54.0032 21.5625 54.0032 22.25H50.2532C49.8657 22.25 49.5032 22.425 49.2657 22.725C49.0282 23.025 48.9407 23.425 49.0407 23.8L50.2907 28.8C50.4032 29.275 50.7782 29.625 51.2532 29.725L54.9157 30.4625C55.8032 31.9375 57.2657 33.025 59.0032 33.375V36H56.5032C55.9657 36 55.4907 36.35 55.3157 36.85L54.0657 40.6C53.9407 40.975 54.0032 41.4 54.2407 41.725C54.4782 42.05 54.8532 42.25 55.2532 42.25H65.2532C65.6532 42.25 66.0282 42.0625 66.2657 41.725C66.5032 41.4 66.5657 40.975 66.4407 40.6L65.1907 36.85C65.0157 36.3375 64.5407 36 64.0032 36H61.5032V33.375C63.2407 33.025 64.7032 31.9375 65.5907 30.4625ZM63.5282 39.75H57.0032L57.4157 38.5H63.1157L63.5282 39.75ZM68.6657 24.75L67.9907 27.425L66.4657 27.7375C66.4782 27.575 66.5157 27.4125 66.5157 27.25V24.75H68.6657ZM52.5407 27.425L51.8657 24.75H54.0157V27.25C54.0157 27.4125 54.0532 27.575 54.0657 27.7375L52.5407 27.425ZM56.5157 27.25V23.5H64.0157V27.25C64.0157 29.3125 62.3282 31 60.2657 31C58.2032 31 56.5157 29.3125 56.5157 27.25Z" fill="#2B2B2F"/>
<path d="M91.8125 34C90.2 34 88.6875 34.6375 87.5375 35.7875L87.3 36.025L87.0625 35.7875C85.925 34.6375 84.4125 34 82.8 34C81.1875 34 79.675 34.6375 78.525 35.7875C78.525 35.7875 78.5 35.8125 78.4875 35.825C76.1875 38.2 76.1875 42.025 78.5125 44.3875L79.6375 45.5375C79.6375 45.5375 79.6875 45.5875 79.725 45.6125L86.4 52.375C86.6375 52.6125 86.95 52.75 87.2875 52.75C87.625 52.75 87.9375 52.6125 88.175 52.375L94.9375 45.5375L96.0625 44.3875C98.4 42.0125 98.4 38.1625 96.0625 35.7875C94.925 34.6375 93.4125 34 91.7875 34H91.8125ZM94.3 42.6375L87.3 49.725L81.4375 43.7875C81.4375 43.7875 81.3875 43.7375 81.35 43.7125L80.3 42.6375C78.9125 41.2375 78.9125 38.95 80.3 37.55C80.3 37.55 80.3125 37.5375 80.325 37.525C80.9875 36.8625 81.8625 36.5 82.7875 36.5C83.725 36.5 84.6125 36.875 85.275 37.55L86.4 38.6875C86.6375 38.925 86.95 39.0625 87.2875 39.0625C87.625 39.0625 87.9375 38.925 88.175 38.6875L89.3 37.55C89.9625 36.875 90.85 36.5 91.7875 36.5C92.725 36.5 93.6125 36.875 94.275 37.55C95.6625 38.95 95.6625 41.2375 94.275 42.6375H94.3Z" fill="#2B2B2F"/>
</g>
<defs>
<clipPath id="clip0_815_9696">
<rect width="120" height="120" fill="white"/>
</clipPath>
</defs>
</svg>
