<svg width="101" height="100" viewBox="0 0 101 100" fill="none" xmlns="http://www.w3.org/2000/svg">
<g clip-path="url(#clip0_2021_1643)">
<rect x="0.666504" width="62" height="62" rx="30" fill="url(#paint0_linear_2021_1643)" fill-opacity="0.2"/>
<path d="M64.4688 48.1211C69.7214 48.1211 73.9794 52.3792 73.9795 57.6318C73.9795 62.8846 69.7215 67.1426 64.4688 67.1426C59.2161 67.1425 54.958 62.8845 54.958 57.6318C54.9581 52.3792 59.2162 48.1212 64.4688 48.1211Z" stroke="#2B2B2F" stroke-width="2"/>
<path d="M27.3633 49.6547L38.1864 39.2048C38.6389 38.768 38.5801 38.0213 38.0136 37.748C34.777 36.1864 31.3104 37.4404 29.8622 38.362C25.0847 41.6466 25.0574 46.4368 25.8766 49.3169C26.064 49.9759 26.8704 50.1306 27.3633 49.6547Z" stroke="#2B2B2F" stroke-width="2"/>
<path d="M22.6948 36.3792L37.737 36.6431C38.3658 36.6541 38.8522 36.0846 38.6449 35.4908C37.4606 32.0979 34.1226 30.5334 32.4469 30.1611C26.7461 29.1054 23.3396 32.4733 21.8823 35.089C21.5488 35.6876 22.0097 36.3672 22.6948 36.3792Z" stroke="#2B2B2F" stroke-width="2"/>
<path d="M29.5225 24.399L38.7551 33.9827C39.1921 34.4363 39.941 34.3767 40.2037 33.8043C41.5298 30.915 40.4183 27.8482 39.5988 26.5576C36.6902 22.3174 32.4704 22.2229 29.8645 22.9239C29.2036 23.1017 29.0477 23.9062 29.5225 24.399Z" stroke="#2B2B2F" stroke-width="2"/>
<path d="M54.1548 26.3341L42.2143 32.9949C41.642 33.3142 40.9198 33.002 40.8712 32.3485C40.6265 29.0586 42.6959 26.3658 43.896 25.3417C48.0941 22.0028 52.1103 23.3047 54.2978 24.8518C54.8368 25.2331 54.7314 26.0125 54.1548 26.3341Z" stroke="#2B2B2F" stroke-width="2"/>
<path d="M55.6906 39.4121L40.9795 36.2618C40.3387 36.1246 40.0013 35.4143 40.3882 34.8854C42.5317 31.9551 46.1999 31.224 47.9279 31.247C53.8121 31.5292 56.1409 35.5598 56.7839 38.3914C56.9301 39.0353 56.3362 39.5504 55.6906 39.4121Z" stroke="#2B2B2F" stroke-width="2"/>
<path d="M47.4981 50.7161L39.3234 38.0862C38.9673 37.5361 39.231 36.7952 39.8786 36.6948C43.4663 36.1385 46.5771 38.2153 47.7826 39.4535C51.7439 43.8137 50.5406 48.3105 48.993 50.7675C48.6411 51.3262 47.8569 51.2704 47.4981 50.7161Z" stroke="#2B2B2F" stroke-width="2"/>
<path d="M35.995 41.1465C36.4329 46.8399 34.6811 57.8962 24.1702 69.4583" stroke="#2B2B2F" stroke-width="2" stroke-linecap="round"/>
<path d="M41.6884 41.584C41.4211 47.3313 38.9266 57.983 31.2472 70.7717M28.9877 74.2753C29.7865 73.1215 30.5389 71.9512 31.2472 70.7717M20.6665 67.268C21.6884 67.414 24.0826 67.8812 25.484 68.5819M31.2472 70.7717C32.1688 71.0453 33.5837 71.6185 35.214 72.5235M43.8782 79.9688C41.2499 76.4645 37.9325 74.0326 35.214 72.5235M35.214 72.5235H80.6665M74.0972 76.0272H54.8271M70.1556 79.9688H59.2067" stroke="#2B2B2F" stroke-width="2" stroke-linecap="round" stroke-linejoin="round"/>
</g>
<defs>
<linearGradient id="paint0_linear_2021_1643" x1="31.6665" y1="0" x2="31.6665" y2="62" gradientUnits="userSpaceOnUse">
<stop stop-color="#33FF2E"/>
<stop offset="1" stop-color="white"/>
</linearGradient>
<clipPath id="clip0_2021_1643">
<rect width="100" height="100" fill="white" transform="translate(0.666504)"/>
</clipPath>
</defs>
</svg>
