<svg width="120" height="120" viewBox="0 0 120 120" fill="none" xmlns="http://www.w3.org/2000/svg">
<g clip-path="url(#clip0_2021_6001)">
<rect width="120" height="120" rx="30" fill="#F4F6FA"/>
<path d="M90 59.9992C90 50.4107 85.5016 41.8728 78.5 36.3809M30 59.9992C30 50.4107 34.4984 41.8728 41.5 36.3809M55 89.5845C56.626 89.8573 58.2964 89.9992 60 89.9992C61.7036 89.9992 63.374 89.8573 65 89.5845" stroke="#2B2B2F" stroke-width="3" stroke-linecap="round" stroke-linejoin="round" stroke-dasharray="1 6"/>
<path d="M99.2766 79.4264L93.7755 73.9156C93.3074 73.4468 92.6854 73.1886 92.0232 73.1886C91.3616 73.1886 90.739 73.4468 90.2715 73.9156L90.1439 74.0431L89.7826 73.6818C89.3364 73.2344 88.991 72.7138 88.7566 72.1468C88.7358 72.0717 88.7084 71.9984 88.673 71.9295C88.4935 71.4253 88.4001 70.8888 88.4001 70.3377V68.7788V68.5V68.1651V67.5988V67.0749L88.3928 66.6957C88.3208 65.0307 87.6403 63.4755 86.4562 62.289L81.1193 56.9429C79.9218 55.7436 78.3294 55.0832 76.6356 55.0832C75.3246 55.0832 74.0758 55.4805 73.0224 56.216L72.456 55.6465V42.2432C72.456 40.6277 71.8694 39.0688 70.805 37.8548C70.0475 36.9918 69.6306 35.8834 69.6306 34.7335V33.7514H69.7112C71.0772 33.7514 72.1886 32.64 72.1886 31.2734V23.478C72.1886 22.1114 71.0772 21 69.7112 21H47.821C46.455 21 45.3436 22.1114 45.3436 23.478V31.2734C45.3436 32.64 46.455 33.7514 47.821 33.7514H48.0017V34.2654C48.0017 35.5288 47.5103 36.7165 46.6186 37.6095L44.2559 39.9764C43.0023 41.2325 42.312 42.9018 42.312 44.6779V52.2383C42.312 53.2656 42.5586 54.2354 42.9925 55.0948C41.4386 55.1845 39.9902 55.8321 38.8806 56.9429L33.5437 62.289C32.29 63.5451 31.5997 65.215 31.5997 66.9905V70.3377C31.5997 71.6011 31.109 72.7888 30.2173 73.6818L29.8602 74.0395C29.8584 74.0407 29.8559 74.0431 29.8559 74.0431L29.729 73.9156C29.2608 73.4468 28.6389 73.1886 27.9767 73.1886C27.3151 73.1886 26.6925 73.4468 26.225 73.9156L20.7233 79.4264C19.7589 80.3926 19.7589 81.9649 20.7233 82.931L22.6074 84.8176C23.0646 85.276 23.8068 85.2766 24.2645 84.8195C24.7223 84.3617 24.7235 83.6201 24.2657 83.1618L22.3822 81.2746C22.3291 81.2215 22.3291 81.1354 22.3822 81.0823L27.8839 75.5714C27.9352 75.5202 28.0188 75.5196 28.0701 75.5714L29.0265 76.5297L42.0868 89.6119L43.5498 91.078C43.6029 91.1311 43.6029 91.2172 43.5498 91.2703L38.0487 96.7811C37.9968 96.833 37.9132 96.833 37.8619 96.7811L27.5836 86.4851C27.1265 86.0267 26.3843 86.0261 25.9265 86.4833C25.4681 86.941 25.4675 87.6826 25.9247 88.141L36.2036 98.437C36.6711 98.9058 37.2937 99.1639 37.9559 99.1639C38.6175 99.1639 39.2395 98.9058 39.7076 98.437L45.2087 92.9261C46.173 91.9606 46.173 90.3883 45.2087 89.4221L45.1489 89.3623L45.8428 88.6671C46.6534 87.8547 47.7301 87.3665 48.8745 87.2926C50.4852 87.1882 52.0007 86.501 53.1414 85.3578L58.1951 80.2931C59.6526 79.9104 60.7873 78.7233 61.0955 77.2365C61.6149 77.4837 62.1954 77.6228 62.8082 77.6228C65.0121 77.6228 66.8053 75.8278 66.8053 73.6208V70.8382C67.3095 71.0683 67.8692 71.1977 68.4588 71.1977C70.6628 71.1977 72.4553 69.4026 72.4553 67.1956V58.9693L76.0601 62.5917C76.289 62.8218 76.5899 62.9366 76.8908 62.9366C77.1898 62.9366 77.4889 62.823 77.7178 62.5954C78.1762 62.1388 78.178 61.3973 77.7215 60.9383L74.7161 57.9183C75.2978 57.5978 75.9533 57.4269 76.6356 57.4269C77.7025 57.4269 78.7059 57.8432 79.4603 58.5994L84.7972 63.9449C85.609 64.7585 86.0564 65.84 86.0564 66.9905V70.3377C86.0564 72.2267 86.7906 74.0022 88.1237 75.3377L88.4874 75.7021L86.7876 77.4049L76.5069 87.7034L75.9337 87.129C75.9276 87.1235 75.9221 87.1174 75.916 87.1119L75.8153 87.0106C74.602 85.7954 72.99 85.0648 71.2774 84.9537C70.2355 84.886 69.2553 84.4417 68.5137 83.6995L64.663 79.8695C64.204 79.413 63.4618 79.4148 63.0053 79.8738C62.5494 80.3328 62.5512 81.075 63.0102 81.5309L66.8584 85.3578C67.9992 86.501 69.5147 87.1882 71.126 87.2926C72.2698 87.3665 73.3465 87.8547 74.157 88.6665L74.2138 88.7233C74.2443 88.7581 74.2766 88.7904 74.3108 88.8209L74.851 89.3617L74.7912 89.4221C73.8268 90.3883 73.8268 91.96 74.7912 92.9261L80.2922 98.437C80.7604 98.9058 81.3823 99.1639 82.0446 99.1639C82.7062 99.1639 83.3287 98.9058 83.7969 98.437L99.2766 82.9304C100.241 81.9642 100.241 80.3926 99.2766 79.4264ZM51.4825 83.7019C50.7446 84.4417 49.7644 84.886 48.7231 84.9537C47.0098 85.0648 45.3979 85.7954 44.1845 87.0106L43.493 87.7034L42.8704 87.0796C42.8625 87.0717 42.8546 87.0631 42.8466 87.0558L31.5124 75.7021L31.8762 75.3377C33.2092 74.0022 33.9435 72.2267 33.9435 70.3377V66.9905C33.9435 65.84 34.3902 64.7585 35.2026 63.9449L40.5395 58.5994C41.2939 57.8432 42.2973 57.4269 43.3642 57.4269C44.0484 57.4269 44.7064 57.5991 45.2899 57.9219L42.2796 60.9371C41.8225 61.3948 41.8231 62.137 42.2808 62.5942C42.5097 62.8224 42.8094 62.9366 43.1091 62.9366C43.4094 62.9366 43.7097 62.8218 43.9386 62.5929L47.5341 58.9907V73.6208C47.5341 75.8278 49.3273 77.6228 51.5313 77.6228C52.1527 77.6228 52.741 77.48 53.2659 77.2261C53.504 78.3876 54.2462 79.3666 55.252 79.9245L51.4825 83.7019ZM70.1122 67.1962C70.1122 68.1105 69.37 68.8545 68.4588 68.8545C67.5469 68.8545 66.8053 68.1105 66.8053 67.1962V54.1243C66.8053 53.4774 66.281 52.9525 65.6335 52.9525C64.9859 52.9525 64.4616 53.4774 64.4616 54.1243V73.6214C64.4616 74.5357 63.72 75.2791 62.8082 75.2791C61.9897 75.2791 61.3103 74.6797 61.1791 73.8954V54.1109C61.1791 53.4633 60.6548 52.939 60.0073 52.939C59.7991 52.939 59.6032 52.994 59.4335 53.0892C59.063 53.2863 58.811 53.6757 58.811 54.1243V73.6208C58.811 73.7697 58.8195 73.9156 58.8354 74.0602V76.4217C58.8354 77.336 58.0938 78.08 57.1819 78.08C56.2707 78.08 55.5291 77.336 55.5291 76.4217V54.0969C55.5291 53.4499 55.0042 52.925 54.3572 52.925C53.7097 52.925 53.1848 53.4499 53.1848 54.0969V73.6208C53.1848 74.5351 52.4432 75.2791 51.5319 75.2791C50.6201 75.2791 49.8785 74.5351 49.8785 73.6208V51.8221C49.8785 51.1745 49.3536 50.6496 48.7066 50.6496C48.059 50.6496 47.5347 51.1745 47.5347 51.8221V55.8541C47.4365 55.8858 47.3413 55.9304 47.2528 55.989C45.7373 55.4195 44.6557 53.9534 44.6557 52.2383V44.6779C44.6557 43.5274 45.1031 42.4459 45.9149 41.6323L48.2775 39.2654C49.6112 37.9299 50.3454 36.1544 50.3454 34.2654V33.7514H52.7014C53.3489 33.7514 53.8732 33.2265 53.8732 32.5796C53.8732 31.932 53.3489 31.4077 52.7014 31.4077H47.821C47.7471 31.4077 47.6873 31.3473 47.6873 31.2734V23.478C47.6873 23.4042 47.7471 23.3437 47.821 23.3437H69.7106C69.7851 23.3437 69.8449 23.4042 69.8449 23.478V31.2734C69.8449 31.3479 69.7851 31.4077 69.7106 31.4077H58.2031C57.5561 31.4077 57.0312 31.932 57.0312 32.5796C57.0312 33.2265 57.5561 33.7514 58.2031 33.7514H67.2869V34.7335C67.2869 36.4522 67.9101 38.1093 69.0423 39.4008C69.732 40.187 70.1122 41.1965 70.1122 42.2432V67.1962ZM97.6177 81.2746L82.1379 96.7811C82.1123 96.8074 82.0812 96.8202 82.0446 96.8202C82.0086 96.8202 81.9774 96.8074 81.9512 96.7811L76.4501 91.2703C76.397 91.2172 76.397 91.1311 76.4501 91.078L77.3357 90.1906L86.3225 81.1885L91.9298 75.5714C91.9811 75.5196 92.0647 75.5196 92.116 75.5714L97.6177 81.0823C97.6708 81.1354 97.6708 81.2215 97.6177 81.2746Z" fill="#2B2B2F"/>
<path d="M51.7828 26.125C50.956 26.125 50.2832 26.7981 50.2832 27.625C50.2832 28.4526 50.956 29.125 51.7828 29.125C52.6104 29.125 53.2832 28.4526 53.2832 27.625C53.2832 26.7981 52.6104 26.125 51.7828 26.125Z" fill="#2B2B2F"/>
<path d="M92.5004 79C91.6728 79 91 79.6731 91 80.5C91 81.3269 91.6728 82 92.5004 82C93.3272 82 94 81.3269 94 80.5C94 79.6731 93.3272 79 92.5004 79Z" fill="#2B2B2F"/>
<path d="M40.0332 91.75C40.0332 90.9231 39.3604 90.25 38.5336 90.25C37.706 90.25 37.0332 90.9231 37.0332 91.75C37.0332 92.5769 37.706 93.25 38.5336 93.25C39.3604 93.25 40.0332 92.5769 40.0332 91.75Z" fill="#2B2B2F"/>
</g>
<defs>
<clipPath id="clip0_2021_6001">
<rect width="120" height="120" fill="white"/>
</clipPath>
</defs>
</svg>
