<svg width="70" height="70" viewBox="0 0 70 70" fill="none" xmlns="http://www.w3.org/2000/svg">
<rect y="70" width="70" height="70" rx="35" transform="rotate(-90 0 70)" fill="black" fill-opacity="0.2"/>
<path d="M18.2929 43.2929C17.9024 43.6834 17.9024 44.3166 18.2929 44.7071C18.6834 45.0976 19.3166 45.0976 19.7071 44.7071L18.2929 43.2929ZM35 28L35.7071 27.2929C35.3166 26.9024 34.6834 26.9024 34.2929 27.2929L35 28ZM50.2929 44.7071C50.6834 45.0976 51.3166 45.0976 51.7071 44.7071C52.0976 44.3166 52.0976 43.6834 51.7071 43.2929L50.2929 44.7071ZM19.7071 44.7071L35.7071 28.7071L34.2929 27.2929L18.2929 43.2929L19.7071 44.7071ZM34.2929 28.7071L50.2929 44.7071L51.7071 43.2929L35.7071 27.2929L34.2929 28.7071Z" fill="white"/>
<path d="M19 25H51" stroke="white" stroke-width="2" stroke-linecap="round"/>
</svg>
