<svg width="81" height="80" viewBox="0 0 81 80" fill="none" xmlns="http://www.w3.org/2000/svg">
<path d="M14.0786 39.9825L9.70582 35.6097L5.33301 39.9825C5.33301 50.4336 9.92447 59.835 17.1835 66.2194L31.5699 70.5923L40.3155 66.2194C25.8415 66.2194 14.0786 54.4566 14.0786 39.9825ZM63.4476 13.7456L53.434 9.37282L40.3155 13.7456C54.7896 13.7456 66.5524 25.5085 66.5524 39.9825L70.9253 44.3554L75.2981 39.9825C75.2981 29.5315 70.7066 20.1298 63.4476 13.7456ZM40.3155 66.2194L35.9427 70.5923L40.3155 74.9651C50.7666 74.9651 60.168 70.3736 66.5524 63.1146L70.9253 52.0078L66.5524 39.9825C66.5524 54.4566 54.7894 66.2194 40.3155 66.2194ZM14.0786 16.8502L9.70582 27.9573L14.0786 39.9825C14.0786 25.5085 25.8415 13.7456 40.3155 13.7456L44.6884 9.37282L40.3155 5C29.8644 5 20.463 9.59146 14.0786 16.8502Z" fill="#7CA1EB"/>
<path d="M75.298 5V13.7456H63.4475L40.3154 5H75.298Z" fill="#5E8DEC"/>
<path d="M40.3155 74.9654H5.33301V66.2197H17.1833L40.3155 74.9654Z" fill="#5E8DEC"/>
<path d="M14.0786 5V16.8502L5.33301 39.9825V5H14.0786Z" fill="#5E8DEC"/>
<path d="M75.2984 39.9824V74.965H66.5527V63.1145L75.2984 39.9824Z" fill="#5E8DEC"/>
<path d="M40.3155 57.4737C49.9757 57.4737 57.8068 49.6426 57.8068 39.9825C57.8068 30.3223 49.9757 22.4912 40.3155 22.4912C30.6553 22.4912 22.8242 30.3223 22.8242 39.9825C22.8242 49.6426 30.6553 57.4737 40.3155 57.4737Z" fill="#7CA1EB"/>
<path d="M40.3159 48.7286C45.146 48.7286 49.0616 44.813 49.0616 39.9829C49.0616 35.1529 45.146 31.2373 40.3159 31.2373C35.4859 31.2373 31.5703 35.1529 31.5703 39.9829C31.5703 44.813 35.4859 48.7286 40.3159 48.7286Z" fill="#5E8DEC"/>
<path d="M63.4475 13.7456H40.3154V5C49.1922 5 57.282 8.32334 63.4475 13.7456Z" fill="#3B6ED5"/>
<path d="M40.3157 66.2197V74.9654C30.947 75.3409 21.9992 72.6735 17.1836 66.2197H40.3157Z" fill="#3B6ED5"/>
<path d="M14.0786 16.8496V39.9819H5.33301C5.33301 31.105 8.65635 23.0154 14.0786 16.8496Z" fill="#3B6ED5"/>
<path d="M75.2984 39.9824C75.2984 48.8591 71.975 56.949 66.5527 63.1145V39.9824H75.2984Z" fill="#3B6ED5"/>
</svg>
