<svg width="23" height="22" viewBox="0 0 23 22" fill="none" xmlns="http://www.w3.org/2000/svg">
<path d="M20.9667 19.5491L19.7137 20.7761H3.26567L2.0127 19.5491L2.2796 13.4883C2.2796 13.4883 4.33699 15.3232 11.4878 15.3232C18.6386 15.3232 20.696 13.4883 20.696 13.4883L20.9629 19.5491H20.9667Z" fill="#87A6BA"/>
<path d="M16.0471 18.1193C16.0471 18.1193 15.7839 16.8886 16.4771 16.6031C18.5382 15.7616 19.3723 15.3502 19.6948 15.1722C19.7875 15.1203 19.9024 15.1871 19.9024 15.2946C19.9024 15.6949 19.7837 16.5327 18.8866 17.174C17.6633 18.0488 16.0508 18.1193 16.0508 18.1193H16.0471Z" fill="#E2FCFD"/>
<path d="M6.93732 18.1193C6.93732 18.1193 7.20052 16.8886 6.50731 16.6031C4.44621 15.7616 3.61213 15.3502 3.28962 15.1722C3.19695 15.1203 3.08203 15.1871 3.08203 15.2946C3.08203 15.6949 3.20066 16.5327 4.09775 17.174C5.32107 18.0488 6.93362 18.1193 6.93362 18.1193H6.93732Z" fill="#E2FCFD"/>
<path d="M20.7006 13.4884C20.7006 13.4884 18.6432 15.3234 11.4924 15.3234C4.34157 15.3234 2.28418 13.4884 2.28418 13.4884L2.37315 11.457C2.38056 11.5089 2.47324 12.065 3.75586 12.4394C5.34247 12.8953 11.4924 12.8953 11.4924 12.8953C11.4924 12.8953 17.646 12.8953 19.2289 12.4394C20.5116 12.0687 20.6042 11.5126 20.6117 11.457L20.7006 13.4884Z" fill="#0B2037"/>
<path d="M5.0636 5.39727C4.31107 5.40098 3.79951 5.40469 3.6364 5.40839C2.76525 5.43434 2.61697 6.29435 2.59473 6.50565L2.70964 3.84406C2.70964 3.84406 2.70594 3.76251 2.71706 3.64018C2.71706 3.63277 2.72077 3.62906 2.72077 3.62165C2.75784 3.29173 2.92836 2.72086 3.6364 2.69862C3.81804 2.69491 4.40746 2.69121 5.26378 2.6875C5.26378 2.6875 5.52697 4.59657 5.0636 5.40098V5.39727Z" fill="#87A6BA"/>
<path d="M20.3885 6.50349C20.3663 6.2922 20.2143 5.4359 19.3468 5.40624C19.1837 5.40253 18.6685 5.39883 17.9196 5.39512C17.4785 4.63149 17.6861 2.93001 17.7195 2.68164C18.5758 2.68164 19.1689 2.68905 19.3468 2.69276C20.0549 2.715 20.2254 3.28587 20.2625 3.61579C20.2625 3.6232 20.2662 3.62691 20.2662 3.63432C20.2773 3.75665 20.2736 3.83821 20.2736 3.83821L20.3885 6.49979V6.50349Z" fill="#87A6BA"/>
<path d="M17.9194 5.39618C17.5413 5.39618 17.1001 5.39247 16.6182 5.39247C15.1725 5.38877 13.3338 5.38877 11.4914 5.38877C9.03369 5.38877 6.57223 5.38877 5.06348 5.39618C5.52685 4.59177 5.26366 2.6827 5.26366 2.6827C8.30341 2.67158 14.6795 2.67158 17.7192 2.679C17.6859 2.92736 17.4783 4.63255 17.9194 5.39618Z" fill="#0B2037"/>
<path d="M20.2613 3.61718C20.2242 3.28726 20.0537 2.71639 19.3457 2.69415C19.164 2.69044 18.5746 2.68303 17.7183 2.67932C14.6786 2.67191 8.30249 2.67191 5.26274 2.68303C4.40642 2.68674 3.8133 2.69044 3.63536 2.69415C2.92732 2.71639 2.7568 3.28726 2.71973 3.61718L2.74938 2.8832C2.78275 2.11216 3.24983 1.45233 3.92821 1.15206C4.10615 1.07051 4.29891 1.01861 4.5028 0.996372C5.4518 0.885164 6.90124 0.777663 9.08838 0.733179C9.80754 0.718352 10.6045 0.710938 11.4905 0.710938C12.3765 0.710938 13.1735 0.718352 13.8927 0.733179C14.0002 0.736886 14.1077 0.736886 14.2115 0.740593C14.3153 0.7443 14.4154 0.7443 14.5154 0.748007C14.7564 0.755421 14.9862 0.762835 15.2049 0.770249C15.3532 0.773956 15.5015 0.781369 15.6387 0.785076C15.8129 0.79249 15.9797 0.799904 16.1391 0.807318C16.3208 0.818439 16.4876 0.825853 16.6507 0.836973C16.7767 0.844387 16.9028 0.851801 17.0214 0.862922C17.1326 0.870336 17.2364 0.87775 17.3365 0.885164C17.4514 0.892578 17.5626 0.899991 17.6701 0.911112C17.7702 0.918526 17.8629 0.92594 17.9518 0.937061C18.0482 0.944475 18.1372 0.951889 18.2225 0.963009C18.3114 0.970423 18.3967 0.981544 18.4745 0.988958C18.6784 1.0112 18.8712 1.0668 19.0491 1.14465C19.7275 1.44491 20.1946 2.10475 20.228 2.87579L20.2576 3.60976L20.2613 3.61718Z" fill="#2C485D"/>
<path d="M20.6105 11.4532C20.6031 11.5088 20.5104 12.0649 19.2277 12.4393C17.6411 12.8952 11.4912 12.8952 11.4912 12.8952V5.38867C13.3299 5.38867 15.1723 5.38867 16.618 5.39238C17.0999 5.39238 17.5411 5.39609 17.9192 5.39609C18.6717 5.39979 19.1833 5.4035 19.3464 5.40721C20.2175 5.43315 20.3658 6.29316 20.388 6.50446C20.3918 6.53412 20.3918 6.55265 20.3918 6.55265L20.6105 11.4569V11.4532Z" fill="#2FD1F7"/>
<path d="M11.4935 5.39043V12.897C11.4935 12.897 5.33981 12.897 3.75692 12.441C2.47429 12.0703 2.38162 11.5143 2.3742 11.4587C2.36679 11.4031 2.59292 6.5507 2.59292 6.5507C2.59292 6.5507 2.59292 6.53216 2.59662 6.50251C2.61886 6.29121 2.77085 5.43491 3.63829 5.40525C4.13133 5.39043 7.81239 5.38672 11.4935 5.38672V5.39043Z" fill="#26C0F2"/>
<path d="M8.40708 17.9261L8.16242 16.8733C8.10681 16.6361 8.28846 16.4062 8.53312 16.4062H14.4495C14.6942 16.4062 14.8758 16.6324 14.8202 16.8733L14.5756 17.9261C14.5348 18.1003 14.3828 18.2189 14.2049 18.2189H8.77408C8.59614 18.2189 8.44415 18.0966 8.40337 17.9261H8.40708Z" fill="#0B2037"/>
<path d="M9.08985 0.729533C6.90271 0.774017 5.45327 0.881518 4.50427 0.992726C4.30039 1.01497 4.10762 1.07057 3.92969 1.14842C6.29105 -1.09057 8.92674 0.614618 9.08985 0.725826V0.729533Z" fill="#CD8B47"/>
<path d="M19.0539 1.15258C18.876 1.07103 18.6832 1.01913 18.4793 0.996889C18.3978 0.989476 18.3162 0.978355 18.2273 0.970941C18.1383 0.95982 18.0493 0.952406 17.9566 0.944992C17.864 0.933871 17.7713 0.926458 17.6749 0.919044C17.5674 0.907923 17.4562 0.900509 17.3413 0.893095C17.2412 0.881974 17.1374 0.87456 17.0262 0.870853C16.9076 0.859733 16.7815 0.852319 16.6555 0.844905C16.4924 0.833784 16.3218 0.82637 16.1439 0.815249C15.9845 0.807835 15.814 0.800422 15.6435 0.793008C15.5063 0.789301 15.3617 0.781887 15.2097 0.77818C14.991 0.770766 14.7612 0.763352 14.5202 0.755938C14.4201 0.752231 14.3201 0.752231 14.2163 0.748524C14.1125 0.744817 14.005 0.744817 13.8975 0.741111C14.0569 0.629902 16.6963 -1.079 19.0576 1.1637L19.0539 1.15258Z" fill="#CD8B47"/>
<path d="M18.4952 19.8616C18.8351 19.8616 19.1106 19.5861 19.1106 19.2462C19.1106 18.9064 18.8351 18.6309 18.4952 18.6309C18.1554 18.6309 17.8799 18.9064 17.8799 19.2462C17.8799 19.5861 18.1554 19.8616 18.4952 19.8616Z" fill="#E2FCFD"/>
<path d="M4.48939 19.8616C4.82924 19.8616 5.10475 19.5861 5.10475 19.2462C5.10475 18.9064 4.82924 18.6309 4.48939 18.6309C4.14953 18.6309 3.87402 18.9064 3.87402 19.2462C3.87402 19.5861 4.14953 19.8616 4.48939 19.8616Z" fill="#E2FCFD"/>
<path d="M19.2277 20.7734V21.5816C19.2277 21.8114 19.0386 22.0004 18.8088 22.0004H17.3556C17.1258 22.0004 16.9404 21.8114 16.9404 21.5816V20.7734H19.2239H19.2277Z" fill="#0B2037"/>
<path d="M6.0382 20.7734V21.5816C6.0382 21.8114 5.85285 22.0004 5.62302 22.0004H4.16987C3.94003 22.0004 3.75098 21.8114 3.75098 21.5816V20.7734H6.0345H6.0382Z" fill="#0B2037"/>
<path d="M22.6569 6.11523H21.7969C21.6168 6.11523 21.4707 6.26128 21.4707 6.44145V8.8769C21.4707 9.05706 21.6168 9.20311 21.7969 9.20311H22.6569C22.8371 9.20311 22.9832 9.05706 22.9832 8.8769V6.44145C22.9832 6.26128 22.8371 6.11523 22.6569 6.11523Z" fill="#0B2037"/>
<path d="M22.6461 4.5625V6.112H21.812V4.66629H20.3144L20.2773 3.83594H21.9233C22.3199 3.83594 22.6461 4.16215 22.6461 4.55879V4.5625Z" fill="#2C485D"/>
<path d="M1.18624 6.11523H0.326217C0.146052 6.11523 0 6.26128 0 6.44145V8.8769C0 9.05706 0.146052 9.20311 0.326217 9.20311H1.18624C1.36641 9.20311 1.51246 9.05706 1.51246 8.8769V6.44145C1.51246 6.26128 1.36641 6.11523 1.18624 6.11523Z" fill="#0B2037"/>
<path d="M2.7094 3.83984L2.67233 4.6702H1.1747V6.1159H0.336914V4.5664C0.336914 4.16976 0.663131 3.84355 1.05978 3.84355H2.7057L2.7094 3.83984Z" fill="#2C485D"/>
</svg>
