<svg width="46" height="46" viewBox="0 0 46 46" fill="none" xmlns="http://www.w3.org/2000/svg">
<g clip-path="url(#clip0_2_87)">
<path d="M28.7283 40.8672C28.7283 42.5977 24.7401 44.0004 19.8203 44.0004C14.9004 44.0004 10.9122 42.5977 10.9122 40.8672C10.9122 39.1368 28.7283 39.1368 28.7283 40.8672Z" fill="url(#paint0_linear_2_87)"/>
<path d="M32.1068 26.0352V28.7135H36.667C37.6968 28.7135 38.5317 29.5483 38.5317 30.5781V33.8764C38.5317 34.9062 37.6968 35.7411 36.667 35.7411H32.1068V38.4194H36.8603C39.2282 38.4194 41.1477 36.4998 41.1477 34.1319V30.3229C41.1477 27.955 39.2282 26.0354 36.8603 26.0354H32.1068V26.0352Z" fill="url(#paint1_linear_2_87)"/>
<path d="M37.6795 28.7204L34.9944 26.0352H32.1068V28.7135H36.667C36.7189 28.7135 37.6287 28.7162 37.6795 28.7204Z" fill="url(#paint2_linear_2_87)"/>
<path d="M36.8208 38.4192L34.1356 35.7341H32.1066V38.4123H36.6669C36.7187 38.4123 36.77 38.415 36.8208 38.4192Z" fill="url(#paint3_linear_2_87)"/>
<path d="M5 25.156V31.5909C5 37.3084 9.4209 42.0385 15.1229 42.459C18.3713 42.6986 21.6232 42.6985 24.8715 42.459C30.5735 42.0385 34.9944 37.3087 34.9944 31.5912V25.1559C25.0318 27.4312 14.9629 27.431 5 25.156Z" fill="url(#paint4_linear_2_87)"/>
<path d="M19.9972 27.8727C28.2799 27.8727 34.9944 26.6567 34.9944 25.1568C34.9944 23.6568 28.2799 22.4409 19.9972 22.4409C11.7145 22.4409 5 23.6568 5 25.1568C5 26.6567 11.7145 27.8727 19.9972 27.8727Z" fill="url(#paint5_linear_2_87)"/>
<path d="M19.9977 27.0233C27.8086 27.0233 34.1406 26.1387 34.1406 25.0474C34.1406 23.9561 27.8086 23.0714 19.9977 23.0714C12.1868 23.0714 5.85487 23.9561 5.85487 25.0474C5.85487 26.1387 12.1868 27.0233 19.9977 27.0233Z" fill="url(#paint6_linear_2_87)"/>
<path d="M19.9974 27.0229C26.7631 27.0229 32.2478 26.5806 32.2478 26.0349C32.2478 25.4893 26.7631 25.047 19.9974 25.047C13.2317 25.047 7.74701 25.4893 7.74701 26.0349C7.74701 26.5806 13.2317 27.0229 19.9974 27.0229Z" fill="url(#paint7_linear_2_87)"/>
<path d="M19.997 22.1264C19.7306 22.1264 19.4636 22.0634 19.2252 21.944C18.5046 21.5834 17.0974 20.8101 15.7699 19.6828C14.0431 18.2163 13.0195 16.6421 12.7277 15.0041C12.501 13.7317 12.8247 12.4327 13.6156 11.4402C14.3482 10.5211 15.3862 9.98397 16.5385 9.9278C16.6062 9.92453 16.6749 9.9228 16.7425 9.9228C17.8221 9.9228 18.8414 10.3389 19.6124 11.0944C19.7516 11.2308 19.8801 11.3756 19.997 11.5276C20.1139 11.3756 20.2423 11.2308 20.3816 11.0943C21.1527 10.3388 22.1718 9.92271 23.2515 9.92271C23.319 9.92271 23.3877 9.92435 23.4555 9.92772C24.6078 9.98388 25.6459 10.521 26.3784 11.4401C27.1693 12.4326 27.4929 13.7316 27.2662 15.004C26.9744 16.642 25.9509 18.2162 24.224 19.6827C22.8966 20.81 21.4895 21.5834 20.7687 21.944C20.5302 22.0634 20.2634 22.1264 19.997 22.1264Z" fill="url(#paint8_linear_2_87)"/>
<path d="M26.3791 11.4395C26.1045 11.095 25.787 10.8042 25.4366 10.5722C26.0762 11.522 26.3243 12.6994 26.1183 13.8548C25.8266 15.4928 24.803 17.067 23.0761 18.5335C21.7488 19.6608 20.3416 20.4341 19.6209 20.7947C19.3824 20.9141 19.1156 20.9771 18.8491 20.9771C18.5827 20.9771 18.3158 20.9141 18.0773 20.7947C17.3567 20.4341 15.9495 19.6608 14.6221 18.5335C14.5652 18.4852 14.5092 18.4368 14.4538 18.3882C14.834 18.8277 15.2729 19.2594 15.7706 19.682C17.098 20.8093 18.5052 21.5827 19.2259 21.9433C19.4643 22.0626 19.7311 22.1257 19.9976 22.1257C20.264 22.1257 20.531 22.0626 20.7694 21.9433C21.4901 21.5827 22.8973 20.8092 24.2247 19.682C25.9515 18.2155 26.9751 16.6413 27.2669 15.0033C27.4936 13.7309 27.17 12.4319 26.3791 11.4395Z" fill="url(#paint9_linear_2_87)"/>
<path d="M23.4557 9.92765C23.388 9.92437 23.3193 9.92265 23.2517 9.92265C22.172 9.92265 21.1528 10.3387 20.3819 11.0942C20.2426 11.2307 20.1143 11.3755 19.9973 11.5275V22.1264C20.2637 22.1264 20.5306 22.0633 20.7691 21.944C21.4898 21.5834 22.897 20.8099 24.2243 19.6827C25.9511 18.2162 26.9748 16.642 27.2665 15.004C27.4932 13.7316 27.1696 12.4326 26.3787 11.4402C25.6462 10.5209 24.6081 9.98381 23.4557 9.92765Z" fill="url(#paint10_linear_2_87)"/>
<path d="M25.697 3.76803C25.5872 3.49049 25.8888 3.23082 26.1483 3.37834C27.065 3.89959 28.4106 4.97229 28.4106 6.77744C28.4106 9.51484 25.1133 9.77296 25.1133 11.8007C25.1133 12.8413 25.2511 13.5599 25.3853 14.013C25.4629 14.275 25.1948 14.5059 24.9478 14.3891C24.1262 14.0004 22.8625 13.0521 22.8625 10.8952C22.8625 7.69934 26.1326 7.74696 26.1326 5.99962C26.1325 5.08712 25.9098 4.3061 25.697 3.76803Z" fill="url(#paint11_linear_2_87)"/>
<path d="M20.9488 0.224539C20.8772 0.0694232 21.0688 -0.0720622 21.1972 0.0406085C22.0682 0.805406 23.5412 2.42231 23.5412 4.60998C23.5412 7.71576 20.7534 8.59495 20.382 11.0169C20.0815 12.976 20.7702 14.883 21.086 15.6238C21.1408 15.7523 21.0146 15.8827 20.8841 15.8331C19.9235 15.4678 17.3394 14.1141 17.7253 10.2142C18.0991 6.43609 20.8956 6.60864 21.3918 4.1643C21.7481 2.40902 21.3088 1.00478 20.9488 0.224539Z" fill="url(#paint12_linear_2_87)"/>
<path d="M14.6607 6.75018C14.5627 6.52113 14.7679 6.30691 14.9675 6.42864C15.6728 6.85879 16.7274 7.74394 16.8402 9.23342C17.0113 11.4923 14.6075 11.7053 14.7343 13.3785C14.7993 14.2372 14.9454 14.8302 15.0722 15.204C15.1455 15.4202 14.9632 15.6108 14.7746 15.5143C14.1474 15.1937 13.1607 14.4111 13.026 12.6313C12.8263 9.99424 15.229 10.0335 15.1198 8.59164C15.0627 7.83866 14.8505 7.19413 14.6607 6.75018Z" fill="url(#paint13_linear_2_87)"/>
</g>
<defs>
<linearGradient id="paint0_linear_2_87" x1="19.8203" y1="41.9897" x2="19.8203" y2="44.5874" gradientUnits="userSpaceOnUse">
<stop stop-color="#FF7044"/>
<stop offset="1" stop-color="#F82814"/>
</linearGradient>
<linearGradient id="paint1_linear_2_87" x1="33.8829" y1="32.2273" x2="42.1862" y2="32.2273" gradientUnits="userSpaceOnUse">
<stop stop-color="#FFD945"/>
<stop offset="0.3043" stop-color="#FFCD3E"/>
<stop offset="0.8558" stop-color="#FFAD2B"/>
<stop offset="1" stop-color="#FFA325"/>
</linearGradient>
<linearGradient id="paint2_linear_2_87" x1="36.3679" y1="27.3778" x2="33.9666" y2="27.3778" gradientUnits="userSpaceOnUse">
<stop stop-color="#F35227" stop-opacity="0"/>
<stop offset="1" stop-color="#F35227"/>
</linearGradient>
<linearGradient id="paint3_linear_2_87" x1="36.665" y1="40.5657" x2="31.55" y2="35.5248" gradientUnits="userSpaceOnUse">
<stop stop-color="#F35227" stop-opacity="0"/>
<stop offset="1" stop-color="#F35227"/>
</linearGradient>
<linearGradient id="paint4_linear_2_87" x1="16.3121" y1="25.4779" x2="28.3365" y2="40.9983" gradientUnits="userSpaceOnUse">
<stop stop-color="#FFD945"/>
<stop offset="0.3043" stop-color="#FFCD3E"/>
<stop offset="0.8558" stop-color="#FFAD2B"/>
<stop offset="1" stop-color="#FFA325"/>
</linearGradient>
<linearGradient id="paint5_linear_2_87" x1="20.1341" y1="25.5267" x2="21.3789" y2="28.8903" gradientUnits="userSpaceOnUse">
<stop stop-color="#FFD945"/>
<stop offset="0.3043" stop-color="#FFCD3E"/>
<stop offset="0.8558" stop-color="#FFAD2B"/>
<stop offset="1" stop-color="#FFA325"/>
</linearGradient>
<linearGradient id="paint6_linear_2_87" x1="19.9978" y1="27.2906" x2="19.9978" y2="23.2313" gradientUnits="userSpaceOnUse">
<stop stop-color="#FFD945"/>
<stop offset="0.3043" stop-color="#FFCD3E"/>
<stop offset="0.8558" stop-color="#FFAD2B"/>
<stop offset="1" stop-color="#FFA325"/>
</linearGradient>
<linearGradient id="paint7_linear_2_87" x1="19.7358" y1="24.8906" x2="20.5798" y2="28.5831" gradientUnits="userSpaceOnUse">
<stop stop-color="#DC934B"/>
<stop offset="1" stop-color="#C7732E"/>
</linearGradient>
<linearGradient id="paint8_linear_2_87" x1="18.7861" y1="12.8856" x2="23.9174" y2="19.2927" gradientUnits="userSpaceOnUse">
<stop stop-color="#FF819C"/>
<stop offset="0.2594" stop-color="#FF7E9A"/>
<stop offset="0.4757" stop-color="#FE7396"/>
<stop offset="0.6765" stop-color="#FC628E"/>
<stop offset="0.8668" stop-color="#FA4A83"/>
<stop offset="1" stop-color="#F83479"/>
</linearGradient>
<linearGradient id="paint9_linear_2_87" x1="21.475" y1="17.6163" x2="24.2664" y2="25.7824" gradientUnits="userSpaceOnUse">
<stop stop-color="#F82814" stop-opacity="0"/>
<stop offset="1" stop-color="#C0272D"/>
</linearGradient>
<linearGradient id="paint10_linear_2_87" x1="21.2111" y1="14.7514" x2="14.457" y2="7.8649" gradientUnits="userSpaceOnUse">
<stop stop-color="#F82814" stop-opacity="0"/>
<stop offset="1" stop-color="#C0272D"/>
</linearGradient>
<linearGradient id="paint11_linear_2_87" x1="22.8097" y1="9.62578" x2="31.5801" y2="7.22096" gradientUnits="userSpaceOnUse">
<stop stop-color="white" stop-opacity="0"/>
<stop offset="1" stop-color="#F7D8AA"/>
</linearGradient>
<linearGradient id="paint12_linear_2_87" x1="18.124" y1="12.6496" x2="24.1738" y2="5.49981" gradientUnits="userSpaceOnUse">
<stop stop-color="white" stop-opacity="0"/>
<stop offset="1" stop-color="#F7D8AA" stop-opacity="0.55"/>
</linearGradient>
<linearGradient id="paint13_linear_2_87" x1="12.8401" y1="11.5306" x2="19.194" y2="9.30993" gradientUnits="userSpaceOnUse">
<stop stop-color="#FF7597" stop-opacity="0"/>
<stop offset="0.0001" stop-color="white" stop-opacity="0"/>
<stop offset="1" stop-color="#F7D8AA"/>
</linearGradient>
<clipPath id="clip0_2_87">
<rect width="46" height="46" fill="white"/>
</clipPath>
</defs>
</svg>
