<svg width="80" height="80" viewBox="0 0 80 80" fill="none" xmlns="http://www.w3.org/2000/svg">
<path d="M35.625 74.7471L40 75.0096H35.625V74.7471Z" fill="#35CACA"/>
<path d="M35.625 15.9475L40 18.135V22.51L35.625 24.6975L40 26.885V31.26L35.625 33.4475L40 35.635V44.385L35.625 46.5725L40 48.76V53.135L35.625 55.3225L40 57.51V61.885L35.625 64.0725L40 66.26V70.6349L35.625 74.7475C18.3438 72.6037 5 57.8598 5 40.01C5 22.1598 18.3438 7.41621 35.625 5.27246L40 9.38496V13.76L35.625 15.9475Z" fill="#46CECE"/>
<path d="M35.625 5.00977H40L35.625 5.27227V5.00977Z" fill="#35CACA"/>
<path d="M75 40.0098C75 59.3034 59.2936 75.0098 40 75.0098L35.625 72.8223L40 70.6348C56.8875 70.6348 70.625 56.8973 70.625 40.0098C70.625 23.1223 56.8875 9.38477 40 9.38477L35.625 7.19727L40 5.00977C59.2936 5.00977 75 20.7159 75 40.0098Z" fill="#35CACA"/>
<path d="M66.25 40.0098C66.25 54.491 54.4812 66.2598 40 66.2598L35.625 64.0723L40 61.8848C52.075 61.8848 61.875 52.0848 61.875 40.0098C61.875 27.9348 52.075 18.1348 40 18.1348L35.625 15.9473L40 13.7598C54.4812 13.7598 66.25 25.5285 66.25 40.0098Z" fill="#35CACA"/>
<path d="M57.5 40.0098C57.5 49.6784 49.6689 57.5098 40 57.5098L35.625 55.3223L40 53.1348C47.2189 53.1348 53.125 47.2284 53.125 40.0098C53.125 32.7909 47.2189 26.8848 40 26.8848L35.625 24.6973L40 22.5098C49.6689 22.5098 57.5 30.3409 57.5 40.0098Z" fill="#35CACA"/>
<path d="M48.75 40.0098C48.75 44.8221 44.8124 48.7598 40 48.7598L35.625 46.5723L40 44.3848C42.4062 44.3848 44.375 42.416 44.375 40.0098C44.375 37.6035 42.4062 35.6348 40 35.6348L35.625 33.4473L40 31.2598C44.8124 31.2598 48.75 35.1971 48.75 40.0098Z" fill="#35CACA"/>
<path d="M40 70.6348V75.0098C38.5124 75.0098 37.0689 74.9221 35.625 74.7473V70.6348H40Z" fill="#1FA4A4"/>
<path d="M35.625 13.7598H40V18.1348H35.625V13.7598Z" fill="#1FA4A4"/>
<path d="M35.625 61.8848H40V66.2598H35.625V61.8848Z" fill="#1FA4A4"/>
<path d="M35.625 22.5098H40V26.8848H35.625V22.5098Z" fill="#1FA4A4"/>
<path d="M35.625 53.1348H40V57.5098H35.625V53.1348Z" fill="#1FA4A4"/>
<path d="M35.625 31.2598H40V35.6348H35.625V31.2598Z" fill="#1FA4A4"/>
<path d="M35.625 44.3848H40V48.7598H35.625V44.3848Z" fill="#1FA4A4"/>
<path d="M40 5.00977V9.38477H35.625V5.27227C37.0689 5.09713 38.5124 5.00977 40 5.00977Z" fill="#1FA4A4"/>
</svg>
