<svg width="80" height="80" viewBox="0 0 80 80" fill="none" xmlns="http://www.w3.org/2000/svg">
<path d="M75 70.6342V75.0092H61.875V70.6342C61.875 64.5967 59.425 59.1279 55.4874 55.1465C51.5062 51.2092 46.0375 48.7592 40 48.7592C27.925 48.7592 18.125 58.5592 18.125 70.6342V75.0092H5V70.6342C5 54.6653 15.675 41.234 30.2439 37.0342H49.7562C55.4875 38.6967 60.65 41.759 64.7625 45.8715C71.0624 52.2153 75 60.9653 75 70.6342Z" fill="#5E8DEC"/>
<path d="M57.5 75.0098H22.5V70.6348C22.5 60.9698 30.3349 53.1348 40 53.1348C49.6649 53.1348 57.5 60.9697 57.5 70.6348V75.0098Z" fill="#7CA1EB"/>
<path d="M57.5 22.5098C57.5 28.5473 54.4375 33.8846 49.7561 37.0348H30.2439C25.5625 33.8846 22.5 28.5473 22.5 22.5098C22.5 12.8409 30.3311 5.00977 40 5.00977C49.6689 5.00977 57.5 12.8409 57.5 22.5098Z" fill="#7CA1EB"/>
<path d="M49.7564 37.0348C46.9566 38.916 43.5878 40.0098 40.0003 40.0098C36.4128 40.0098 33.0439 38.916 30.2441 37.0348C33.3501 36.116 36.6314 35.6348 40.0003 35.6348C43.3691 35.6348 46.6504 36.116 49.7564 37.0348Z" fill="#3B6ED5"/>
</svg>
