<svg width="24" height="24" viewBox="0 0 24 24" fill="none" xmlns="http://www.w3.org/2000/svg">
<path d="M21 9V21H3V9H21Z" stroke="#2B2B2F" stroke-width="2"/>
<path d="M21 5V9H3V5H21Z" stroke="#2B2B2F" stroke-width="2"/>
<rect x="6.5" y="2.5" width="1" height="4" rx="0.5" stroke="#2B2B2F"/>
<rect x="16.5" y="2.5" width="1" height="4" rx="0.5" stroke="#2B2B2F"/>
<path d="M8 18H6V16H8V18ZM13 18H11V16H13V18ZM18 18H16V16H18V18ZM8 14H6V12H8V14ZM13 14H11V12H13V14ZM18 14H16V12H18V14Z" fill="#2B2B2F"/>
</svg>
