<svg width="70" height="70" viewBox="0 0 70 70" fill="none" xmlns="http://www.w3.org/2000/svg">
<circle cx="39.6663" cy="34.9998" r="3.11111" stroke="url(#paint0_linear_2067_3060)" stroke-width="2"/>
<path d="M66.1109 34.9999C66.1109 34.9999 52.182 50.5554 34.9998 50.5554C17.8176 50.5554 3.88867 34.9999 3.88867 34.9999C3.88867 34.9999 17.8176 19.4443 34.9998 19.4443C52.182 19.4443 66.1109 34.9999 66.1109 34.9999Z" stroke="url(#paint1_linear_2067_3060)" stroke-width="2" stroke-linejoin="round"/>
<path d="M34.9999 19.4443C43.591 19.4443 50.5554 26.4088 50.5554 34.9999C50.5554 43.591 43.591 50.5554 34.9999 50.5554C26.4088 50.5554 19.4443 43.591 19.4443 34.9999H33.4443" stroke="url(#paint2_linear_2067_3060)" stroke-width="2" stroke-linecap="round" stroke-linejoin="round"/>
<defs>
<linearGradient id="paint0_linear_2067_3060" x1="35.4885" y1="33.0664" x2="40.1552" y2="39.3998" gradientUnits="userSpaceOnUse">
<stop stop-color="#3E7BFA"/>
<stop offset="1" stop-color="#1FA071"/>
</linearGradient>
<linearGradient id="paint1_linear_2067_3060" x1="-6.778" y1="25.3332" x2="9.0716" y2="68.3536" gradientUnits="userSpaceOnUse">
<stop stop-color="#3E7BFA"/>
<stop offset="1" stop-color="#1FA071"/>
</linearGradient>
<linearGradient id="paint2_linear_2067_3060" x1="14.111" y1="25.3332" x2="37.4443" y2="56.9999" gradientUnits="userSpaceOnUse">
<stop stop-color="#3E7BFA"/>
<stop offset="1" stop-color="#1FA071"/>
</linearGradient>
</defs>
</svg>
