<svg width="50" height="50" viewBox="0 0 50 50" fill="none" xmlns="http://www.w3.org/2000/svg">
<path d="M25.0032 36.8173V31.1616V36.8173ZM21.3368 8.19949L8.17174 18.6625C6.68997 19.8314 5.74011 22.301 6.06306 24.1485L8.58968 39.155C9.04561 41.832 11.6292 44 14.3648 44H35.6416C38.3582 44 40.9608 41.8131 41.4167 39.155L43.9433 24.1485C44.2473 22.301 43.2974 19.8314 41.8347 18.6625L28.6696 8.21834C26.637 6.59704 23.3504 6.59704 21.3368 8.19949Z" fill="#E94162"/>
<path d="M25.0032 36.8173V31.1616M21.3368 8.19949L8.17174 18.6625C6.68997 19.8314 5.74011 22.301 6.06306 24.1485L8.58968 39.155C9.04561 41.832 11.6292 44 14.3648 44H35.6416C38.3582 44 40.9608 41.8131 41.4167 39.155L43.9433 24.1485C44.2473 22.301 43.2974 19.8314 41.8347 18.6625L28.6696 8.21834C26.637 6.59704 23.3504 6.59704 21.3368 8.19949Z" stroke="#F1F4FB" stroke-width="2" stroke-linecap="round" stroke-linejoin="round"/>
</svg>
