<svg width="60" height="60" viewBox="0 0 60 60" fill="none" xmlns="http://www.w3.org/2000/svg">
<path d="M50 14.9999L9.54915 44.3891" stroke="#F2FFA5" stroke-width="19" stroke-linecap="round"/>
<rect x="14" y="6" width="28" height="48" rx="4" fill="white"/>
<path fill-rule="evenodd" clip-rule="evenodd" d="M18 6C15.7909 6 14 7.79086 14 10V50C14 52.2091 15.7909 54 18 54H24C21.7909 54 20 52.2091 20 50V10C20 7.79086 21.7909 6 24 6H18Z" fill="#D4E1F4"/>
<rect x="14.5" y="11.5" width="27" height="33" stroke="#1335A3"/>
<rect x="17.25" y="16.25" width="0.5" height="1.5" rx="0.25" fill="white" stroke="#1335A3" stroke-width="0.5"/>
<rect x="26.5" y="47.5" width="3" height="3" rx="1.5" fill="white" stroke="#1335A3"/>
<rect x="17.25" y="19.25" width="0.5" height="9.5" rx="0.25" fill="white" stroke="#1335A3" stroke-width="0.5"/>
<rect x="14.5" y="6.5" width="27" height="47" rx="3.5" stroke="#1335A3"/>
<rect x="30.25" y="16.25" width="0.5" height="23.5" rx="0.25" fill="white" stroke="#24D5B3" stroke-width="0.5"/>
<path d="M30.5 18.5H48C49.933 18.5 51.5 20.067 51.5 22V34C51.5 35.933 49.933 37.5 48 37.5H30.5V18.5Z" fill="white" stroke="#24D5B3"/>
<rect x="31.25" y="22.25" width="20.5" height="0.5" fill="white" stroke="#24D5B3" stroke-width="0.5"/>
<rect x="33.25" y="31.25" width="6.5" height="0.5" rx="0.25" fill="white" stroke="#24D5B3" stroke-width="0.5"/>
<rect x="42.5" y="31.5" width="6" height="3" rx="1.5" fill="white" stroke="#24D5B3"/>
<rect x="33.25" y="34.25" width="3.5" height="0.5" rx="0.25" fill="white" stroke="#24D5B3" stroke-width="0.5"/>
<rect x="38.25" y="34.25" width="1.5" height="0.5" rx="0.25" fill="white" stroke="#24D5B3" stroke-width="0.5"/>
</svg>
