<svg width="120" height="120" viewBox="0 0 120 120" fill="none" xmlns="http://www.w3.org/2000/svg">
<g clip-path="url(#clip0_2021_5973)">
<rect width="120" height="120" rx="30" fill="#F4F6FA"/>
<path d="M36.5 78.5C40.9183 78.5 44.5 82.0817 44.5 86.5V92.5H28.5V86.5C28.5 82.0817 32.0817 78.5 36.5 78.5Z" fill="#F4F6FA" stroke="#2B2B2F" stroke-width="3"/>
<circle cx="37" cy="70" r="3.5" fill="#F4F6FA" stroke="#2B2B2F" stroke-width="3"/>
<path d="M48 75.5H49C53.6944 75.5 57.5 79.3056 57.5 84V92.5H39.5V84C39.5 79.3056 43.3056 75.5 48 75.5Z" fill="#F4F6FA" stroke="#2B2B2F" stroke-width="3"/>
<circle cx="48.5" cy="67.5" r="4" fill="#F4F6FA" stroke="#2B2B2F" stroke-width="3"/>
<circle cx="71" cy="59" r="6.5" fill="#F4F6FA" stroke="#2B2B2F" stroke-width="3"/>
<path d="M88.1045 51.5C89.8973 51.5 91.3201 53.0091 91.2148 54.7988L90.668 64.1045C90.5729 65.7201 90.1056 67.2921 89.3027 68.6973L86.6973 73.2559L86.5 73.6016V79.2197C86.5 83.4891 83.3331 87.0962 79.0996 87.6484L64.8057 89.5127L63.5 89.6826V93.5C63.5 95.1569 62.1569 96.5 60.5 96.5C58.8431 96.5 57.5 95.1569 57.5 93.5V80.7549C57.5001 76.4948 60.6542 72.8931 64.877 72.3301L77.5811 70.6357C78.5109 70.5118 79.4082 70.2086 80.2227 69.7432C82.2217 68.6008 83.56 66.5776 83.8291 64.291L85.0098 54.252C85.1944 52.6828 86.5246 51.5001 88.1045 51.5Z" fill="#F4F6FA" stroke="#2B2B2F" stroke-width="3"/>
<rect x="62" y="80" width="3" height="9" fill="#2B2B2F"/>
<path d="M88.5 51.5L86.7059 43M86.7059 43L83.3408 23.9312C83.1515 22.8585 82.1387 22.1346 81.0625 22.3027L52.9815 26.6904C51.888 26.8612 51.1412 27.8877 51.3151 28.9806L54.1774 46.972C54.3542 48.0832 55.4126 48.83 56.5188 48.6239L86.7059 43Z" stroke="#2B2B2F" stroke-width="3"/>
<path d="M52 32.5L32.5894 36.1395C30.8607 36.4636 30.362 38.7006 31.7893 39.7283L38.8654 44.8231C39.7663 45.4717 39.9666 46.7299 39.3116 47.6262L33.8821 55.0561C32.8261 56.5011 34.0543 58.4993 35.8204 58.2098L59.4918 54.3292C60.5952 54.1483 61.336 53.0979 61.136 51.9978L60.5 48.5" stroke="#2B2B2F" stroke-width="3"/>
</g>
<defs>
<clipPath id="clip0_2021_5973">
<rect width="120" height="120" fill="white"/>
</clipPath>
</defs>
</svg>
