<svg width="22" height="22" viewBox="0 0 22 22" fill="none" xmlns="http://www.w3.org/2000/svg">
<g clip-path="url(#clip0_2031_14229)">
<path d="M20.0234 4.55469V6.70312H1.97656V4.55469C1.97656 4.19891 2.26531 3.91016 2.62109 3.91016H19.3789C19.7347 3.91016 20.0234 4.19891 20.0234 4.55469Z" fill="#0B2037"/>
<path d="M20.0234 4.55469V6.70312H11V3.91016H19.3789C19.7347 3.91016 20.0234 4.19891 20.0234 4.55469Z" fill="white" fill-opacity="0.08"/>
<path d="M17.4453 3.26562V6.70312H4.55469V0.644531C4.55469 0.28875 4.84344 0 5.19922 0H14.2227L17.4453 3.26562Z" fill="#D8E5ED"/>
<path d="M17.4453 3.26562V6.70312H11V0H14.2227L17.4453 3.26562Z" fill="white" fill-opacity="0.08"/>
<path d="M20.4961 6.48828H1.50391C0.674652 6.48828 0 7.16293 0 7.99219V14.0078C0 14.8222 0.650633 15.4874 1.4593 15.5111C1.46902 15.5115 1.47877 15.5117 1.48857 15.5117H20.4961C21.3253 15.5117 22 14.8371 22 14.0078V7.99219C22 7.16293 21.3253 6.48828 20.4961 6.48828Z" fill="#2C485D"/>
<path d="M22 7.99219V14.0078C22 14.8371 21.3254 15.5117 20.4961 15.5117H11V6.48828H20.4961C21.3254 6.48828 22 7.16289 22 7.99219Z" fill="white" fill-opacity="0.08"/>
<path d="M16.1562 10.3555C16.5122 10.3555 16.8008 10.0669 16.8008 9.71094C16.8008 9.35497 16.5122 9.06641 16.1562 9.06641C15.8003 9.06641 15.5117 9.35497 15.5117 9.71094C15.5117 10.0669 15.8003 10.3555 16.1562 10.3555Z" fill="#9CDD2B"/>
<path d="M18.7344 10.3555C19.0903 10.3555 19.3789 10.0669 19.3789 9.71094C19.3789 9.35497 19.0903 9.06641 18.7344 9.06641C18.3784 9.06641 18.0898 9.35497 18.0898 9.71094C18.0898 10.0669 18.3784 10.3555 18.7344 10.3555Z" fill="#FCBE29"/>
<path d="M17.4453 12.7188V21.3555C17.4453 21.7113 17.1566 22 16.8008 22H5.19922C4.84344 22 4.55469 21.7113 4.55469 21.3555V12.7188H17.4453Z" fill="#D8E5ED"/>
<path d="M17.4453 12.7188V21.3555C17.4453 21.7113 17.1566 22 16.8008 22H11V12.7188H17.4453Z" fill="white" fill-opacity="0.08"/>
<path d="M18.0898 11.6445H3.91016C3.5542 11.6445 3.26562 11.9331 3.26562 12.2891C3.26562 12.645 3.5542 12.9336 3.91016 12.9336H18.0898C18.4458 12.9336 18.7344 12.645 18.7344 12.2891C18.7344 11.9331 18.4458 11.6445 18.0898 11.6445Z" fill="#0B2037"/>
<path d="M18.7344 12.2891C18.7344 12.6448 18.4456 12.9336 18.0898 12.9336H11V11.6445H18.0898C18.4456 11.6445 18.7344 11.9333 18.7344 12.2891Z" fill="white" fill-opacity="0.08"/>
<path d="M14.2227 0V2.62109C14.2227 2.97705 14.5112 3.26562 14.8672 3.26562H17.4453" fill="#9BBADA"/>
<path d="M11 19.3789C12.4239 19.3789 13.5781 18.2246 13.5781 16.8008C13.5781 15.3769 12.4239 14.2227 11 14.2227C9.57614 14.2227 8.42188 15.3769 8.42188 16.8008C8.42188 18.2246 9.57614 19.3789 11 19.3789Z" fill="#26C0F2"/>
<path d="M13.5781 16.8008C13.5781 18.2222 12.4214 19.3789 11 19.3789V14.2227C12.4181 14.2227 13.5781 15.376 13.5781 16.8008Z" fill="#2FD1F7"/>
</g>
<defs>
<clipPath id="clip0_2031_14229">
<rect width="22" height="22" fill="white"/>
</clipPath>
</defs>
</svg>
