<svg width="80" height="80" viewBox="0 0 80 80" fill="none" xmlns="http://www.w3.org/2000/svg">
<path d="M44.375 5.00977V13.8527C56.7742 15.9436 66.25 26.7206 66.25 39.708C66.25 52.6955 56.7742 63.4725 44.375 65.5633V74.4063C61.6413 72.2505 75 57.5605 75 39.708C75 21.8556 61.6413 7.16527 44.375 5.00977Z" fill="#EF9C58"/>
<path d="M35.625 65.5633C23.2258 63.4725 13.75 52.6955 13.75 39.708C13.75 26.7206 23.2258 15.9436 35.625 13.8527V5.00977C18.3587 7.16527 5 21.8556 5 39.708C5 57.5605 18.3587 72.2505 35.625 74.4063V65.5633Z" fill="#EF9C58"/>
<path d="M26.1748 50.4266L23.1561 53.4889C16.5498 45.4828 16.5059 33.889 23.0684 25.8389L26.1748 28.989V50.4266Z" fill="#EDBC62"/>
<path d="M53.7809 22.8639L50.7184 25.8826H29.2807L26.1309 22.7765C34.1806 16.214 45.7745 16.2578 53.7809 22.8639Z" fill="#EDBC62"/>
<path d="M53.8678 56.6396C45.8179 63.2021 34.224 63.1583 26.2178 56.552L29.2803 53.5332H50.7179L53.8678 56.6396Z" fill="#EDBC62"/>
<path d="M56.9316 53.5766L53.8252 50.4268V28.9893L56.8439 25.9268C63.4503 33.933 63.4941 45.5266 56.9316 53.5766Z" fill="#EDBC62"/>
<path d="M53.8245 50.4267C52.9498 51.6078 51.8995 52.6577 50.7184 53.5328H29.2809C28.0998 52.6578 27.0497 51.6078 26.1748 50.4267V28.9892C27.0495 27.8078 28.0998 26.7579 29.2809 25.8828H50.7184C51.8995 26.7578 52.9497 27.8078 53.8245 28.9892V50.4267Z" fill="#EF9C58"/>
<path d="M40 48.458C44.8325 48.458 48.75 44.5405 48.75 39.708C48.75 34.8755 44.8325 30.958 40 30.958C35.1675 30.958 31.25 34.8755 31.25 39.708C31.25 44.5405 35.1675 48.458 40 48.458Z" fill="#EDBC62"/>
<path d="M50.7187 25.8829L47.5686 29.033C43.0625 25.8391 36.9374 25.8391 32.3875 28.9893L29.2812 25.8829C32.2561 23.5643 35.9751 22.208 40 22.208C44.0249 22.208 47.7439 23.5643 50.7187 25.8829Z" fill="#E5A42B"/>
<path d="M57.4998 39.708C57.4998 43.7329 56.1436 47.4516 53.8247 50.4268L50.7186 47.3205C53.8684 42.7706 53.8684 36.6455 50.6748 32.1391L53.8247 28.9893C56.1436 31.9641 57.4998 35.6829 57.4998 39.708Z" fill="#E5A42B"/>
<path d="M50.7187 53.5327C47.7439 55.8516 44.0249 57.2078 40 57.2078C35.9751 57.2078 32.2561 55.8516 29.2812 53.5327L32.4314 50.3828C36.9375 53.5764 43.0626 53.5764 47.6125 50.4266L50.7187 53.5327Z" fill="#E5A42B"/>
<path d="M29.325 47.2766L26.1751 50.4268C23.8562 47.4516 22.5 43.7329 22.5 39.708C22.5 35.6829 23.8562 31.9641 26.1751 28.9893L29.2813 32.0955C26.1314 36.6455 26.1314 42.7705 29.325 47.2766Z" fill="#E5A42B"/>
</svg>
