<svg width="120" height="120" viewBox="0 0 120 120" fill="none" xmlns="http://www.w3.org/2000/svg">
<g clip-path="url(#clip0_2021_5707)">
<rect width="120" height="120" rx="30" fill="#F4F6FA"/>
<path d="M29 51.5V67.25M51.5 83H43M43 83H41C34.3726 83 29 77.6274 29 71V67.25M43 83V94.5M43 94.5H33.5M43 94.5H51.5M29 67.25H40.6243C41.1825 67.25 41.7153 67.4833 42.0939 67.8934L44.5 70.5M63.5 94.5L55.0685 79.0423C54.7181 78.3998 54.0446 78 53.3127 78H47.5C40.8726 78 35.5 72.6274 35.5 66V54C35.5 50.134 38.634 47 42.5 47H46.8057C47.2554 47 47.692 47.1516 48.045 47.4302L56.455 54.0698C56.808 54.3484 57.2446 54.5 57.6943 54.5H63.6516C65.3603 54.5 66.2821 56.5042 65.1701 57.8016L62 61.5M62 61.5H73.5M62 61.5H53M90 61.5H80M80 61.5V58.5C80 57.3954 80.8954 56.5 82 56.5H85.5C86.6046 56.5 87.5 55.6046 87.5 54.5V41.5C87.5 40.3954 86.6046 39.5 85.5 39.5H82M80 61.5H73.5M82 39.5V32.3C82 28.5445 78.9555 25.5 75.2 25.5V25.5C74.2611 25.5 73.5 26.2611 73.5 27.2V50.8C73.5 51.7389 74.2611 52.5 75.2 52.5V52.5C78.9555 52.5 82 49.4555 82 45.7V39.5ZM73.5 61.5V58.5C73.5 57.3954 72.6046 56.5 71.5 56.5H69M70.5 92L62.724 71.7416C61.6855 69.0359 59.0871 67.25 56.1889 67.25H50.5C49.3954 67.25 48.5 66.3546 48.5 65.25V63.5C48.5 62.3954 49.3954 61.5 50.5 61.5H53M53 61.5L44 55.5" stroke="#2B2B2F" stroke-width="3" stroke-linecap="round"/>
<circle cx="43" cy="36" r="6.5" stroke="#2B2B2F" stroke-width="3"/>
</g>
<defs>
<clipPath id="clip0_2021_5707">
<rect width="120" height="120" fill="white"/>
</clipPath>
</defs>
</svg>
