<svg width="80" height="80" viewBox="0 0 80 80" fill="none" xmlns="http://www.w3.org/2000/svg">
<path d="M57.5 44.375C57.5 56.45 47.7 66.25 35.625 66.25C23.55 66.25 13.75 56.45 13.75 44.375C13.75 32.3 23.55 22.5 35.625 22.5L42.2887 18.6921L35.625 13.75C18.6938 13.75 5 27.4438 5 44.375C5 61.3062 18.6938 75 35.625 75C52.5562 75 66.25 61.3062 66.25 44.375L61.3079 38.9721L57.5 44.375Z" fill="#7CA1EB"/>
<path d="M75 44.375C75 33.5249 70.5812 23.6375 63.45 16.55C56.3625 9.41875 46.4749 5 35.625 5V13.75L42.2887 18.6921L35.625 22.5V31.25L48.75 44.375H57.5L61.3079 38.9721L66.25 44.375H75Z" fill="#5E8DEC"/>
<path d="M48.75 44.375C48.75 51.6374 42.8874 57.5 35.625 57.5C28.3626 57.5 22.5 51.6374 22.5 44.375C22.5 37.1124 28.3626 31.25 35.625 31.25L48.75 44.375Z" fill="#7CA1EB"/>
<path d="M66.25 44.375H57.5C57.5 32.3 47.7 22.5 35.625 22.5V13.75C52.5562 13.75 66.25 27.4438 66.25 44.375Z" fill="#3B6ED5"/>
<path d="M48.75 44.375H35.625V31.25C42.8874 31.25 48.75 37.1124 48.75 44.375Z" fill="#3B6ED5"/>
</svg>
