<svg width="80" height="80" viewBox="0 0 80 80" fill="none" xmlns="http://www.w3.org/2000/svg">
<path d="M22.1938 15.9375C21.2314 19.7 17.8188 22.5 13.75 22.5C8.93764 22.5 5 18.5624 5 13.75C5 8.93736 8.93764 5 13.75 5C17.8188 5 21.2314 7.8 22.1938 11.5625V15.9375Z" fill="#B399FF"/>
<path d="M48.4432 11.5625C47.4808 7.8 44.0682 5 39.9994 5C35.9307 5 32.518 7.8 31.5557 11.5625V15.9375C32.518 19.7 35.9307 22.5 39.9994 22.5C44.0682 22.5 47.4808 19.7 48.4432 15.9375V11.5625Z" fill="#B399FF"/>
<path d="M66.2494 5C62.1807 5 58.768 7.8 57.8057 11.5625V15.9375C58.5932 19 60.9994 21.4062 64.0619 22.1938H68.4369C72.1994 21.2311 74.9994 17.8188 74.9994 13.75C74.9994 8.93736 71.0618 5 66.2494 5Z" fill="#B399FF"/>
<path d="M22.1938 37.8125C21.2314 34.05 17.8188 31.25 13.75 31.25C8.93764 31.25 5 35.1874 5 40C5 44.0687 7.8 47.4811 11.5625 48.4438H15.9375C19 47.6562 21.4062 45.25 22.1938 42.1875V37.8125Z" fill="#B399FF"/>
<path d="M48.4432 37.8125C47.4808 34.05 44.0682 31.25 39.9994 31.25C35.9307 31.25 32.518 34.05 31.5557 37.8125V42.1875C32.518 45.95 35.9307 48.75 39.9994 48.75C44.0682 48.75 47.4808 45.95 48.4432 42.1875V37.8125Z" fill="#B399FF"/>
<path d="M68.4369 31.5557H64.0619C60.9994 32.3432 58.5932 34.7494 57.8057 37.8119V42.1869C58.768 45.9494 62.1807 48.7494 66.2494 48.7494C71.0618 48.7494 74.9994 44.8118 74.9994 39.9994C74.9994 35.9307 72.1994 32.518 68.4369 31.5557Z" fill="#B399FF"/>
<path d="M22.1938 64.0619C21.4062 60.9994 19 58.5932 15.9375 57.8057H11.5625C7.8 58.768 5 62.1807 5 66.2494C5 71.0618 8.93764 74.9994 13.75 74.9994C17.8188 74.9994 21.2314 72.1994 22.1938 68.4369V64.0619Z" fill="#B399FF"/>
<path d="M48.4432 64.0625C47.4808 60.3 44.0682 57.5 39.9994 57.5C35.9307 57.5 32.518 60.3 31.5557 64.0625V68.4375C32.518 72.2 35.9307 75 39.9994 75C44.0682 75 47.4808 72.2 48.4432 68.4375V64.0625Z" fill="#B399FF"/>
<path d="M74.9994 66.25C74.9994 71.0624 71.0618 75 66.2494 75C62.1807 75 58.768 72.2 57.8057 68.4375V64.0625C58.768 60.3 62.1807 57.5 66.2494 57.5C71.0618 57.5 74.9994 61.4374 74.9994 66.25Z" fill="#B399FF"/>
<path d="M48.4443 11.5625H57.8068V15.9375H48.4443V11.5625Z" fill="#9B83E0"/>
<path d="M48.4443 37.8125H57.8068V42.1875H48.4443V37.8125Z" fill="#9B83E0"/>
<path d="M22.1943 37.8125H31.5568V42.1875H22.1943V37.8125Z" fill="#9B83E0"/>
<path d="M11.5625 48.4443H15.9375V57.8068H11.5625V48.4443Z" fill="#9B83E0"/>
<path d="M22.1943 64.0625H31.5568V68.4375H22.1943V64.0625Z" fill="#9B83E0"/>
<path d="M48.4443 64.0625H57.8068V68.4375H48.4443V64.0625Z" fill="#9B83E0"/>
<path d="M64.0625 22.1943H68.4375V31.5568H64.0625V22.1943Z" fill="#9B83E0"/>
<path d="M22.1943 11.5625H31.5568V15.9375H22.1943V11.5625Z" fill="#9B83E0"/>
<path d="M22.5 13.75C22.5 14.4936 22.4124 15.2374 22.1938 15.9375H17.4686C16.6811 17.2061 15.3688 18.125 13.75 18.125C11.3438 18.125 9.375 16.1562 9.375 13.75C9.375 11.3438 11.3438 9.375 13.75 9.375C15.3688 9.375 16.6811 10.2936 17.4686 11.5625H22.1938C22.4124 12.2624 22.5 13.0061 22.5 13.75Z" fill="#6E4DCF"/>
<path d="M48.75 13.75C48.75 14.4936 48.6624 15.2374 48.4438 15.9375H43.7186C42.9311 17.2061 41.6187 18.125 40 18.125C38.3812 18.125 37.0689 17.2061 36.2814 15.9375H31.5563C31.3375 15.2374 31.25 14.4936 31.25 13.75C31.25 13.0061 31.3376 12.2624 31.5563 11.5625H36.2814C37.0689 10.2936 38.3812 9.375 40 9.375C41.6187 9.375 42.9311 10.2936 43.7186 11.5625H48.4438C48.6624 12.2624 48.75 13.0061 48.75 13.75Z" fill="#6E4DCF"/>
<path d="M70.625 13.75C70.625 15.3688 69.7061 16.6811 68.4375 17.4686V22.1938C67.7376 22.4125 66.9936 22.5 66.25 22.5C65.5064 22.5 64.7624 22.4124 64.0625 22.1938V17.4686C63.45 17.075 62.925 16.55 62.5314 15.9375H57.8062C57.5875 15.2374 57.5 14.4936 57.5 13.75C57.5 13.0061 57.5876 12.2624 57.8062 11.5625H62.5314C63.3189 10.2936 64.6312 9.375 66.25 9.375C68.6562 9.375 70.625 11.3438 70.625 13.75Z" fill="#6E4DCF"/>
<path d="M70.625 40C70.625 42.4062 68.6562 44.375 66.25 44.375C64.6312 44.375 63.3189 43.4561 62.5314 42.1875H57.8062C57.5875 41.4874 57.5 40.7436 57.5 40C57.5 39.2561 57.5876 38.5124 57.8062 37.8125H62.5314C62.925 37.2 63.45 36.675 64.0625 36.2811V31.5563C64.7624 31.3372 65.5064 31.25 66.25 31.25C66.9936 31.25 67.7376 31.3374 68.4375 31.5563V36.2811C69.7061 37.0686 70.625 38.3812 70.625 40Z" fill="#6E4DCF"/>
<path d="M48.75 40C48.75 40.7436 48.6624 41.4874 48.4438 42.1875H43.7186C42.9311 43.4561 41.6187 44.375 40 44.375C38.3812 44.375 37.0689 43.4561 36.2814 42.1875H31.5563C31.3375 41.4874 31.25 40.7436 31.25 40C31.25 39.2561 31.3376 38.5124 31.5563 37.8125H36.2814C37.0689 36.5436 38.3812 35.625 40 35.625C41.6187 35.625 42.9311 36.5436 43.7186 37.8125H48.4438C48.6624 38.5124 48.75 39.2561 48.75 40Z" fill="#6E4DCF"/>
<path d="M22.5 40C22.5 40.7436 22.4124 41.4874 22.1938 42.1875H17.4686C17.075 42.8 16.55 43.325 15.9375 43.7186V48.4438C15.2376 48.6625 14.4936 48.75 13.75 48.75C13.0064 48.75 12.2624 48.6624 11.5625 48.4438V43.7186C10.2939 42.9311 9.375 41.6188 9.375 40C9.375 37.5938 11.3438 35.625 13.75 35.625C15.3688 35.625 16.6811 36.5436 17.4686 37.8125H22.1938C22.4124 38.5124 22.5 39.2561 22.5 40Z" fill="#6E4DCF"/>
<path d="M22.5 66.25C22.5 66.9936 22.4124 67.7374 22.1938 68.4375H17.4686C16.6811 69.7061 15.3688 70.625 13.75 70.625C11.3438 70.625 9.375 68.6562 9.375 66.25C9.375 64.6312 10.2939 63.3186 11.5625 62.5311V57.8062C12.2624 57.5872 13.0064 57.5 13.75 57.5C14.4936 57.5 15.2376 57.5874 15.9375 57.8062V62.5311C16.55 62.925 17.075 63.45 17.4686 64.0625H22.1938C22.4124 64.7624 22.5 65.5061 22.5 66.25Z" fill="#6E4DCF"/>
<path d="M48.75 66.25C48.75 66.9936 48.6624 67.7374 48.4438 68.4375H43.7186C42.9311 69.7061 41.6187 70.625 40 70.625C38.3812 70.625 37.0689 69.7061 36.2814 68.4375H31.5563C31.3375 67.7374 31.25 66.9936 31.25 66.25C31.25 65.5061 31.3376 64.7624 31.5563 64.0625H36.2814C37.0689 62.7936 38.3812 61.875 40 61.875C41.6187 61.875 42.9311 62.7936 43.7186 64.0625H48.4438C48.6624 64.7624 48.75 65.5061 48.75 66.25Z" fill="#6E4DCF"/>
<path d="M70.625 66.25C70.625 68.6562 68.6562 70.625 66.25 70.625C64.6312 70.625 63.3189 69.7061 62.5314 68.4375H57.8062C57.5875 67.7374 57.5 66.9936 57.5 66.25C57.5 65.5061 57.5876 64.7624 57.8062 64.0625H62.5314C63.3189 62.7936 64.6312 61.875 66.25 61.875C68.6562 61.875 70.625 63.8438 70.625 66.25Z" fill="#6E4DCF"/>
</svg>
