<svg width="60" height="60" viewBox="0 0 60 60" fill="none" xmlns="http://www.w3.org/2000/svg">
<path d="M50 15L9.54915 44.3893" stroke="#F2FFA5" stroke-width="19" stroke-linecap="round"/>
<rect x="14" y="6" width="28" height="48" rx="4" fill="white"/>
<path fill-rule="evenodd" clip-rule="evenodd" d="M18.0002 6C15.7911 6 14.0002 7.79086 14.0002 10V50C14.0002 52.2091 15.7911 54 18.0002 54H24.0002C21.7911 54 20.0002 52.2091 20.0002 50V10C20.0002 7.79086 21.7911 6 24.0002 6H18.0002Z" fill="#D4E1F4"/>
<rect x="14.5002" y="11.5" width="27" height="33" stroke="#1335A3"/>
<rect x="17.2502" y="16.25" width="0.5" height="1.5" rx="0.25" fill="white" stroke="#1335A3" stroke-width="0.5"/>
<rect x="26.5002" y="47.5" width="3" height="3" rx="1.5" fill="white" stroke="#1335A3"/>
<rect x="17.2502" y="19.25" width="0.5" height="9.5" rx="0.25" fill="white" stroke="#1335A3" stroke-width="0.5"/>
<rect x="14.5002" y="6.5" width="27" height="47" rx="3.5" stroke="#1335A3"/>
<path d="M50.4647 29.6685C50.4647 31.593 49.0882 34.1356 47.4205 35.2212L41.0474 39.3805L34.6342 35.2212C32.9675 34.1361 31.5352 31.593 31.5352 29.6685V20.9729L40.9999 16.5479L50.4647 20.9858V29.6685Z" fill="white" stroke="#24D5B3"/>
<path d="M37.7696 27.6344C37.4698 27.3482 36.9842 27.3482 36.6845 27.6344C36.3848 27.9206 36.3847 28.3842 36.6845 28.6702L39.1356 31.0106C39.4354 31.2968 39.9216 31.2968 40.2208 31.0106L45.4438 26.0246C45.6422 25.8405 45.7211 25.5687 45.6506 25.3136C45.5801 25.0579 45.3713 24.8585 45.1041 24.7913C44.8363 24.7241 44.5515 24.7994 44.3587 24.9888L39.6782 29.4563L37.7696 27.6344Z" fill="#24D5B3"/>
</svg>
