<svg width="46" height="46" viewBox="0 0 46 46" fill="none" xmlns="http://www.w3.org/2000/svg">
<path d="M8.88213 27.6982C8.89673 27.6969 8.91126 27.6962 8.92519 27.6962C8.91059 27.6969 8.89606 27.6976 8.88213 27.6989L8.88213 27.6982Z" fill="url(#paint0_linear_3_2)"/>
<path d="M17.6532 22.6222L16.7625 22.6222C16.7625 22.6222 7.66732 21.7777 7.72112 23.4892C7.76381 24.8489 7.67753 26.2146 7.4698 27.568C7.42517 27.8589 7.40199 28.157 7.40199 28.4605L7.40199 32.9926L7.40199 33.1525L7.40773 33.1646C7.43508 33.6878 7.58574 34.1978 7.85047 34.6517L8.40616 35.6046C8.90031 36.4519 9.16065 37.4153 9.16065 38.3962L9.16065 41.0419C9.16065 41.571 9.58953 41.9999 10.1186 41.9999L20.766 41.9999C21.2951 41.9999 21.724 41.571 21.724 41.0419L21.724 38.3967C21.724 37.4229 22.0317 36.4738 22.6033 35.6853C23.1748 34.8968 23.4826 33.9478 23.4826 32.9739L23.4826 28.4515C23.4825 25.232 20.8726 22.6222 17.6532 22.6222Z" fill="url(#paint1_linear_3_2)"/>
<path d="M23.4826 28.4513L23.4826 32.9737C23.4826 33.4612 23.4057 33.9417 23.2572 34.3988C23.1087 34.8568 22.8886 35.2914 22.6033 35.6855C22.0319 36.4738 21.724 37.4223 21.724 38.3965L21.724 41.0414C21.724 41.5708 21.2949 42 20.7662 42L10.1183 42C9.58961 42 9.16043 41.5708 9.16043 41.0414L9.16043 38.3957C9.16043 37.4177 8.90151 36.4574 8.41019 35.6116L9.16043 36.8983L11.8496 36.8983C12.8083 36.8983 13.6759 36.5096 14.3041 35.8814C14.9323 35.2532 15.321 34.3856 15.321 33.427C15.321 32.5065 14.9556 31.6233 14.3041 30.9718L12.8222 29.4908C12.4794 29.1471 12.5245 28.578 12.9178 28.2927L15.6824 26.29C16.2973 25.8445 16.6371 25.1409 16.6371 24.4187C16.6371 24.2216 16.6118 24.023 16.5598 23.8277C16.528 23.708 16.7918 22.6219 16.7918 22.6219L17.6533 22.6219C20.8727 22.622 23.4826 25.2319 23.4826 28.4513Z" fill="url(#paint2_linear_3_2)"/>
<path d="M9.84725 19.6767C10.7095 19.6847 11.4506 20.2375 11.8165 21.0402C11.9729 21.3828 12.061 21.7719 12.061 22.1829C12.061 22.2067 12.061 22.2299 12.0603 22.2538L12.0166 24.0427L11.7469 24.1846L9.16124 25.546C8.5203 25.8834 8.02183 26.4143 7.72163 27.046L7.57313 22.3016C7.52805 20.8619 8.56471 19.6655 9.84725 19.6767Z" fill="url(#paint3_linear_3_2)"/>
<path d="M14.0137 18.8292C15.2114 18.8431 16.1625 19.7737 16.1625 20.8932C16.1625 20.9429 16.1605 20.9926 16.1566 21.0429L16.0161 22.9318C15.5773 22.5798 14.9529 22.497 14.4193 22.778L12.0166 24.0427L11.7469 24.1846L11.8165 21.0402L11.8251 20.8375C11.8529 19.7107 12.8279 18.8159 14.0137 18.8292Z" fill="url(#paint4_linear_3_2)"/>
<path d="M9.1605 36.8983L7.85032 34.6516C7.55668 34.148 7.40192 33.5755 7.40192 32.9925L7.40192 28.4604C7.40192 27.2377 8.07929 26.1156 9.16124 25.5461L14.4192 22.7783C15.1658 22.3853 16.0891 22.7038 16.4345 23.4736C16.8825 24.4719 16.5685 25.6477 15.6823 26.2898L12.9176 28.2928C12.5242 28.5778 12.4789 29.1471 12.8225 29.4906L14.3041 30.9723C14.9551 31.6233 15.3209 32.5063 15.3209 33.4269C15.3209 35.3441 13.7667 36.8983 11.8495 36.8983L9.1605 36.8983Z" fill="url(#paint5_linear_3_2)"/>
<path d="M38.0831 27.6982C38.0686 27.6969 38.054 27.6962 38.0401 27.6962C38.0547 27.6969 38.0692 27.6975 38.0831 27.6989L38.0831 27.6982Z" fill="url(#paint6_linear_3_2)"/>
<path d="M29.312 22.6222L30.2027 22.6222C30.2027 22.6222 39.2979 21.7777 39.2441 23.4892C39.2014 24.8489 39.2877 26.2146 39.4955 27.568C39.5401 27.8589 39.5633 28.157 39.5633 28.4605L39.5633 32.9926L39.5633 33.1525L39.5575 33.1646C39.5302 33.6878 39.3795 34.1978 39.1148 34.6517L38.5591 35.6046C38.0649 36.4519 37.8046 37.4153 37.8046 38.3962L37.8046 41.0419C37.8046 41.571 37.3757 41.9999 36.8466 41.9999L26.1993 41.9999C25.6702 41.9999 25.2414 41.571 25.2414 41.0419L25.2414 38.3967C25.2414 37.4229 24.9336 36.4738 24.3621 35.6853C23.7905 34.8968 23.4828 33.9478 23.4828 32.9739L23.4828 28.4515C23.4828 25.232 26.0926 22.6222 29.312 22.6222Z" fill="url(#paint7_linear_3_2)"/>
<path d="M23.4826 28.4513L23.4826 32.9737C23.4826 33.4612 23.5596 33.9417 23.7081 34.3988C23.8566 34.8568 24.0766 35.2914 24.3619 35.6855C24.9333 36.4738 25.2412 37.4223 25.2412 38.3965L25.2412 41.0414C25.2412 41.5708 25.6704 42 26.199 42L36.847 42C37.3756 42 37.8048 41.5708 37.8048 41.0414L37.8048 38.3957C37.8048 37.4177 38.0637 36.4574 38.5551 35.6116L37.8048 36.8983L35.1156 36.8983C34.157 36.8983 33.2894 36.5096 32.6612 35.8814C32.033 35.2532 31.6443 34.3856 31.6443 33.427C31.6443 32.5065 32.0097 31.6233 32.6612 30.9718L34.143 29.4908C34.4859 29.1471 34.4408 28.578 34.0474 28.2927L31.2828 26.29C30.6679 25.8445 30.3281 25.1409 30.3281 24.4187C30.3281 24.2216 30.3535 24.023 30.4054 23.8277C30.4372 23.708 30.1735 22.6219 30.1735 22.6219L29.312 22.6219C26.0925 22.622 23.4826 25.2319 23.4826 28.4513Z" fill="url(#paint8_linear_3_2)"/>
<path d="M37.8048 36.8984L35.1156 36.8984C34.157 36.8984 33.2894 36.5097 32.6612 35.8815C32.033 35.2533 31.6443 34.3857 31.6443 33.4271C31.6443 32.5066 32.0097 31.6234 32.6612 30.9719L34.143 29.4909C34.4859 29.1472 34.4408 28.5781 34.0474 28.2928L31.2828 26.2901C30.6679 25.8446 30.3281 25.141 30.3281 24.4187C30.3281 24.2217 30.3535 24.0231 30.4054 23.8278C30.4372 23.7081 30.1735 22.622 30.1735 22.622L29.312 22.622C26.0925 22.622 23.4826 25.2319 23.4826 28.4514L23.4826 32.9738C23.4826 33.4613 23.5596 33.9418 23.7081 34.3989C23.7494 34.5261 23.7967 34.6513 23.8488 34.7744L31.0744 42L36.8471 42C37.3757 42 37.8049 41.5708 37.8049 41.0414L37.8049 38.3957C37.8049 37.4177 38.0638 36.4575 38.5551 35.6117L37.8048 36.8984Z" fill="url(#paint9_linear_3_2)"/>
<path d="M37.118 19.6767C36.2557 19.6847 35.5146 20.2375 35.1488 21.0402C34.9924 21.3828 34.9042 21.7719 34.9042 22.1829C34.9042 22.2067 34.9042 22.2299 34.9049 22.2538L34.9486 24.0427L35.2184 24.1846L37.804 25.546C38.4449 25.8834 38.9434 26.4143 39.2436 27.046L39.3921 22.3015C39.4372 20.8619 38.4005 19.6655 37.118 19.6767Z" fill="url(#paint10_linear_3_2)"/>
<path d="M32.9516 18.8292C31.7538 18.8431 30.8027 19.7737 30.8027 20.8932C30.8027 20.9429 30.8047 20.9926 30.8086 21.0429L30.9492 22.9318C31.388 22.5798 32.0124 22.497 32.5459 22.778L34.9486 24.0427L35.2184 24.1846L35.1488 21.0402L35.1401 20.8375C35.1123 19.7107 34.1373 18.8159 32.9516 18.8292Z" fill="url(#paint11_linear_3_2)"/>
<path d="M37.8048 36.8983L39.1149 34.6516C39.4086 34.148 39.5633 33.5755 39.5633 32.9925L39.5633 28.4604C39.5633 27.2377 38.886 26.1156 37.804 25.5461L32.546 22.7783C31.7994 22.3853 30.8762 22.7038 30.5307 23.4736C30.0827 24.4719 30.3968 25.6477 31.2829 26.2898L34.0477 28.2928C34.4411 28.5778 34.4863 29.1471 34.1427 29.4906L32.6611 30.9723C32.0101 31.6232 31.6444 32.5063 31.6444 33.4269C31.6444 35.3441 33.1986 36.8983 35.1158 36.8983L37.8048 36.8983Z" fill="url(#paint12_linear_3_2)"/>
<path d="M12.8387 28.5763L21.8044 37.542C21.93 36.8751 22.201 36.2405 22.6033 35.6855C22.8886 35.2914 23.1087 34.8567 23.2572 34.3988C23.4057 33.9417 23.4826 33.4612 23.4826 32.9737L23.4826 28.5763L12.8387 28.5763Z" fill="url(#paint13_linear_3_2)"/>
<path d="M23.4826 34.7297C22.8117 34.7297 22.1397 34.5709 21.5393 34.2704C19.7248 33.3622 16.1813 31.415 12.8387 28.5762C8.49042 24.8834 5.91305 20.9196 5.17824 16.795C4.60742 13.5908 5.42233 10.3199 7.41405 7.82087C9.25862 5.50645 11.8724 4.15394 14.7741 4.01252C14.9447 4.00418 15.1175 4.00001 15.2877 4.00001C18.0063 4.00001 20.5726 5.04769 22.5141 6.95007C22.8647 7.29371 23.1881 7.65836 23.4825 8.04104C23.7771 7.65836 24.1004 7.29364 24.4512 6.94992C26.3924 5.04769 28.9589 4 31.6776 4C31.8477 4 32.0207 4.00425 32.1912 4.01252C35.0929 4.15394 37.7068 5.50644 39.5513 7.82101C41.543 10.3201 42.3579 13.591 41.787 16.795C41.0522 20.9196 38.4749 24.8835 34.1266 28.5763C30.7841 31.4149 27.2407 33.3623 25.426 34.2704C24.8255 34.5709 24.1535 34.7297 23.4826 34.7297Z" fill="url(#paint14_linear_3_2)"/>
<path d="M39.5513 7.82101C38.8599 6.95342 38.0604 6.22107 37.1782 5.63691C38.7888 8.02867 39.4133 10.9933 38.8948 13.9029C38.1601 18.0274 35.5827 21.9913 31.2344 25.6841C27.8919 28.5227 24.3486 30.4701 22.5338 31.3783C21.9333 31.6788 21.2613 31.8376 20.5904 31.8376C19.9196 31.8376 19.2476 31.6788 18.6472 31.3783C16.8326 30.4701 13.2892 28.5229 9.94657 25.6841C9.80336 25.5625 9.66239 25.4406 9.52298 25.3184C10.4803 26.4251 11.5855 27.512 12.8387 28.5763C16.1813 31.4151 19.7248 33.3623 21.5393 34.2704C22.1398 34.5709 22.8118 34.7298 23.4826 34.7298C24.1535 34.7298 24.8255 34.571 25.4259 34.2704C27.2407 33.3623 30.784 31.4149 34.1265 28.5763C38.4748 24.8835 41.0522 20.9196 41.7869 16.7951C42.3579 13.591 41.543 10.3201 39.5513 7.82101Z" fill="url(#paint15_linear_3_2)"/>
<path d="M32.1913 4.01252C32.0206 4.00425 31.8478 4 31.6776 4C28.9589 4 26.3925 5.04769 24.4512 6.95C24.1005 7.29364 23.7772 7.65829 23.4827 8.04097L23.4827 34.7297C24.1536 34.7297 24.8256 34.5709 25.426 34.2704C27.2408 33.3622 30.7841 31.4148 34.1266 28.5762C38.4749 24.8834 41.0523 20.9195 41.787 16.795C42.3579 13.5909 41.5431 10.32 39.5513 7.82094C37.7068 5.50644 35.0929 4.15394 32.1913 4.01252Z" fill="url(#paint16_linear_3_2)"/>
<path d="M37.8047 36.8983L39.1149 34.6516C39.4086 34.148 39.5633 33.5755 39.5633 32.9925L39.5633 28.4604C39.5633 27.2377 38.886 26.1156 37.804 25.5461L32.546 22.7783C31.7994 22.3853 30.8761 22.7038 30.5307 23.4736C30.0827 24.4719 30.3968 25.6477 31.2829 26.2898L34.0477 28.2928C34.4411 28.5778 34.4863 29.1471 34.1427 29.4906L32.6611 30.9723C32.0101 31.6232 31.6443 32.5063 31.6443 33.4269C31.6443 35.3441 33.1985 36.8983 35.1158 36.8983L37.8047 36.8983Z" fill="url(#paint17_linear_3_2)"/>
<path d="M9.1605 36.8983L7.85032 34.6516C7.55668 34.148 7.40192 33.5755 7.40192 32.9925L7.40192 28.4604C7.40192 27.2377 8.07929 26.1156 9.16124 25.5461L14.4192 22.7783C15.1658 22.3853 16.0891 22.7038 16.4345 23.4736C16.8825 24.4719 16.5685 25.6477 15.6823 26.2898L12.9176 28.2928C12.5242 28.5778 12.4789 29.1471 12.8225 29.4906L14.3041 30.9723C14.9551 31.6232 15.3209 32.5063 15.3209 33.4269C15.3209 35.3441 13.7667 36.8983 11.8495 36.8983L9.1605 36.8983Z" fill="url(#paint18_linear_3_2)"/>
<path d="M9.1605 36.8983L7.85032 34.6516C7.55668 34.148 7.40192 33.5755 7.40192 32.9925L7.40192 28.4604C7.40192 27.2377 8.07929 26.1156 9.16124 25.5461L14.4192 22.7783C15.1658 22.3853 16.0891 22.7038 16.4345 23.4736C16.8825 24.4719 16.5685 25.6477 15.6823 26.2898L12.9176 28.2928C12.5242 28.5778 12.4789 29.1471 12.8225 29.4906L14.3041 30.9723C14.9551 31.6232 15.3209 32.5063 15.3209 33.4269C15.3209 35.3441 13.7667 36.8983 11.8495 36.8983L9.1605 36.8983Z" fill="url(#paint19_linear_3_2)"/>
<path d="M37.8047 36.8983L39.1149 34.6516C39.4086 34.148 39.5633 33.5755 39.5633 32.9925L39.5633 28.4604C39.5633 27.2377 38.886 26.1156 37.804 25.5461L32.546 22.7783C31.7994 22.3853 30.8761 22.7038 30.5307 23.4736C30.0827 24.4719 30.3968 25.6477 31.2829 26.2898L34.0477 28.2928C34.4411 28.5778 34.4863 29.1471 34.1427 29.4906L32.6611 30.9723C32.0101 31.6232 31.6443 32.5063 31.6443 33.4269C31.6443 35.3441 33.1985 36.8983 35.1158 36.8983L37.8047 36.8983Z" fill="url(#paint20_linear_3_2)"/>
<defs>
<linearGradient id="paint0_linear_3_2" x1="8.88801" y1="27.6944" x2="8.93391" y2="27.7037" gradientUnits="userSpaceOnUse">
<stop stop-color="#FCB37E"/>
<stop offset="1" stop-color="#8C6239"/>
</linearGradient>
<linearGradient id="paint1_linear_3_2" x1="5.15753" y1="24.6447" x2="27.192" y2="42.2722" gradientUnits="userSpaceOnUse">
<stop stop-color="#FFDECF"/>
<stop offset="1" stop-color="#FAA68E"/>
</linearGradient>
<linearGradient id="paint2_linear_3_2" x1="20.3403" y1="35.7502" x2="14.7285" y2="32.4135" gradientUnits="userSpaceOnUse">
<stop stop-color="#FAA68E" stop-opacity="0"/>
<stop offset="1" stop-color="#FAA68E"/>
</linearGradient>
<linearGradient id="paint3_linear_3_2" x1="8.14209" y1="23.1025" x2="13.3119" y2="24.7883" gradientUnits="userSpaceOnUse">
<stop stop-color="#FFDECF"/>
<stop offset="1" stop-color="#FAA68E"/>
</linearGradient>
<linearGradient id="paint4_linear_3_2" x1="12.0619" y1="21.3212" x2="18.6916" y2="22.6582" gradientUnits="userSpaceOnUse">
<stop stop-color="#FFDECF"/>
<stop offset="1" stop-color="#FAA68E"/>
</linearGradient>
<linearGradient id="paint5_linear_3_2" x1="10.6388" y1="24.388" x2="13.4243" y2="33.2511" gradientUnits="userSpaceOnUse">
<stop stop-color="#FFDECF"/>
<stop offset="1" stop-color="#FAA68E" stop-opacity="0"/>
</linearGradient>
<linearGradient id="paint6_linear_3_2" x1="38.0772" y1="27.6944" x2="38.0313" y2="27.7037" gradientUnits="userSpaceOnUse">
<stop stop-color="#FCB37E"/>
<stop offset="1" stop-color="#8C6239"/>
</linearGradient>
<linearGradient id="paint7_linear_3_2" x1="41.8077" y1="24.6447" x2="19.7733" y2="42.2722" gradientUnits="userSpaceOnUse">
<stop stop-color="#FFDECF"/>
<stop offset="1" stop-color="#FAA68E"/>
</linearGradient>
<linearGradient id="paint8_linear_3_2" x1="32.4512" y1="36.7742" x2="25.8258" y2="30.1488" gradientUnits="userSpaceOnUse">
<stop stop-color="#FAA68E" stop-opacity="0"/>
<stop offset="1" stop-color="#B74B52"/>
</linearGradient>
<linearGradient id="paint9_linear_3_2" x1="33.7691" y1="35.4563" x2="27.1437" y2="28.8308" gradientUnits="userSpaceOnUse">
<stop stop-color="#FAA68E" stop-opacity="0"/>
<stop offset="1" stop-color="#B74B52"/>
</linearGradient>
<linearGradient id="paint10_linear_3_2" x1="38.8231" y1="23.1025" x2="33.6534" y2="24.7883" gradientUnits="userSpaceOnUse">
<stop stop-color="#FFDECF"/>
<stop offset="1" stop-color="#FAA68E"/>
</linearGradient>
<linearGradient id="paint11_linear_3_2" x1="34.9033" y1="21.3211" x2="28.2736" y2="22.6582" gradientUnits="userSpaceOnUse">
<stop stop-color="#FFDECF"/>
<stop offset="1" stop-color="#FAA68E"/>
</linearGradient>
<linearGradient id="paint12_linear_3_2" x1="36.3265" y1="24.388" x2="33.5409" y2="33.2511" gradientUnits="userSpaceOnUse">
<stop stop-color="#FFDECF"/>
<stop offset="1" stop-color="#FAA68E" stop-opacity="0"/>
</linearGradient>
<linearGradient id="paint13_linear_3_2" x1="21.8494" y1="38.068" x2="18.4109" y2="29.2201" gradientUnits="userSpaceOnUse">
<stop stop-color="#FAA68E" stop-opacity="0"/>
<stop offset="1" stop-color="#B74B52"/>
</linearGradient>
<linearGradient id="paint14_linear_3_2" x1="20.4334" y1="11.4608" x2="33.3548" y2="27.5941" gradientUnits="userSpaceOnUse">
<stop stop-color="#FF7044"/>
<stop offset="1" stop-color="#F82814"/>
</linearGradient>
<linearGradient id="paint15_linear_3_2" x1="27.8543" y1="23.303" x2="33.2048" y2="34.7384" gradientUnits="userSpaceOnUse">
<stop stop-color="#F82814" stop-opacity="0"/>
<stop offset="1" stop-color="#C0272D"/>
</linearGradient>
<linearGradient id="paint16_linear_3_2" x1="26.539" y1="16.1592" x2="9.53163" y2="-1.1817" gradientUnits="userSpaceOnUse">
<stop stop-color="#F82814" stop-opacity="0"/>
<stop offset="1" stop-color="#C0272D"/>
</linearGradient>
<linearGradient id="paint17_linear_3_2" x1="23.0254" y1="12.4645" x2="56.6558" y2="61.9455" gradientUnits="userSpaceOnUse">
<stop stop-color="#FFDECF"/>
<stop offset="1" stop-color="#FAA68E"/>
</linearGradient>
<linearGradient id="paint18_linear_3_2" x1="10.6388" y1="24.388" x2="13.4243" y2="33.2511" gradientUnits="userSpaceOnUse">
<stop stop-color="#FFDECF"/>
<stop offset="1" stop-color="#FAA68E"/>
</linearGradient>
<linearGradient id="paint19_linear_3_2" x1="10.6388" y1="24.388" x2="13.4243" y2="33.2511" gradientUnits="userSpaceOnUse">
<stop stop-color="#FFDECF"/>
<stop offset="1" stop-color="#FAA68E" stop-opacity="0"/>
</linearGradient>
<linearGradient id="paint20_linear_3_2" x1="36.3265" y1="24.388" x2="33.5409" y2="33.2511" gradientUnits="userSpaceOnUse">
<stop stop-color="#FFDECF"/>
<stop offset="1" stop-color="#FAA68E" stop-opacity="0"/>
</linearGradient>
</defs>
</svg>
