<svg xmlns="http://www.w3.org/2000/svg" xmlns:xlink="http://www.w3.org/1999/xlink" width="24" height="24" viewBox="0 0 24 24">
    <defs>
        <rect id="i24ki6zvca" width="18" height="16" x="0" y="1" rx="2"/>
        <mask id="zyv0unp26b" width="18" height="16" x="0" y="0" fill="#fff" maskContentUnits="userSpaceOnUse" maskUnits="objectBoundingBox">
            <use xlink:href="#i24ki6zvca"/>
        </mask>
    </defs>
    <g fill="none" fill-rule="evenodd">
        <g>
            <path fill="#FFF" d="M0 0H24V24H0z"/>
            <g>
                <g transform="translate(3.000000, 4.000000)">
                    <use fill-rule="nonzero" stroke="#2E3A59" stroke-dasharray="0 0" stroke-linecap="round" stroke-linejoin="round" stroke-width="2.8" mask="url(#zyv0unp26b)" xlink:href="#i24ki6zvca"/>
                    <path fill-rule="nonzero" stroke="#2E3A59" stroke-dasharray="0 0" stroke-linecap="round" stroke-linejoin="round" stroke-width="1.4" d="M13 0v4M5 0v4M1 6.5h16"/>
                    <path fill="#2E3A59" d="M6.743 9.853h-.876c.046-.351.173-.634.381-.848.291-.297.657-.446 1.098-.446.393 0 .723.124.989.372s.399.543.399.883c0 .212-.058.405-.175.58-.116.175-.285.316-.506.424.29.086.518.237.682.451.164.215.246.468.246.76 0 .426-.158.788-.475 1.085-.317.296-.721.445-1.212.445-.465 0-.844-.14-1.137-.42-.293-.279-.454-.659-.482-1.14h.902c.04.246.126.429.26.548.133.12.302.18.506.18.213 0 .389-.068.53-.204.14-.136.21-.302.21-.498 0-.216-.095-.398-.284-.547-.19-.149-.462-.226-.818-.23v-.777c.22-.017.383-.05.49-.101.108-.051.192-.12.251-.21.06-.088.09-.182.09-.28 0-.13-.046-.238-.137-.323-.091-.085-.21-.128-.358-.128-.13 0-.249.04-.355.118-.107.08-.18.181-.219.306zM10.31 8.68h1.365v4.76h-.906V9.53h-.987l.528-.85z"/>
                </g>
            </g>
        </g>
    </g>
</svg>
