<svg width="80" height="80" viewBox="0 0 80 80" fill="none" xmlns="http://www.w3.org/2000/svg">
<path d="M40 34C53.427 34 65.635 40.8971 72.6621 52.4463L73 53L72.6621 53.5537C65.635 65.1029 53.427 72 40 72C26.573 72 14.365 65.1029 7.33789 53.5537L7 53L7.33789 52.4463C14.365 40.8971 26.573 34 40 34ZM40 36.124C27.5317 36.124 16.1771 42.424 9.48828 53C16.1771 63.576 27.5317 69.8691 40 69.8691C52.4683 69.8691 63.8229 63.576 70.5117 53C63.8229 42.424 52.4683 36.124 40 36.124ZM40 38C51.0348 38 61.0738 43.2344 67.5479 52.3633L68 53L67.5479 53.6367C61.0738 62.7656 51.0348 68 40 68C28.9652 68 18.9262 62.7656 12.4521 53.6367L12 53L12.4521 52.3633C18.9262 43.2344 28.9652 38 40 38ZM40 40.1719C29.9042 40.1719 20.7046 44.834 14.626 53C20.7046 61.166 29.9042 65.8281 40 65.8281C50.0958 65.8281 59.2954 61.166 65.374 53C59.2954 44.834 50.0958 40.1719 40 40.1719ZM41 43C46.5141 43 51 47.4859 51 53C51 58.5141 46.5141 63 41 63C35.4859 63 31 58.5141 31 53C31 47.4859 35.4859 43 41 43ZM41 45.0635C36.6246 45.0635 33.0703 48.6246 33.0703 52.9932C33.0703 57.3617 36.6315 60.9229 41 60.9229C45.3685 60.9229 48.9297 57.3617 48.9297 52.9932C48.9297 48.6246 45.3685 45.0635 41 45.0635ZM41 47C44.3121 47 47 49.695 47 53C47 56.305 44.3121 59 41 59C37.695 59 35 56.3121 35 53C35 49.6879 37.6879 47 41 47ZM41 49.1279C38.8652 49.1279 37.1279 50.8652 37.1279 53C37.1279 55.1348 38.8652 56.8721 41 56.8721C43.1348 56.8721 44.8721 55.1348 44.8721 53C44.8721 50.8652 43.1348 49.1279 41 49.1279Z" fill="url(#paint0_linear_2026_4389)"/>
<path d="M62 21V29H54V21H62Z" stroke="url(#paint1_linear_2026_4389)" stroke-width="2"/>
<path d="M73 10V18H65V10H73Z" stroke="url(#paint2_linear_2026_4389)" stroke-width="2"/>
<path d="M73 32V40H65V32H73Z" stroke="url(#paint3_linear_2026_4389)" stroke-width="2"/>
<defs>
<linearGradient id="paint0_linear_2026_4389" x1="-4.31429" y1="41.1929" x2="17.1421" y2="91.7687" gradientUnits="userSpaceOnUse">
<stop stop-color="#AC5DD9"/>
<stop offset="1" stop-color="#004FC4"/>
</linearGradient>
<linearGradient id="paint1_linear_2026_4389" x1="51.2857" y1="21.8929" x2="58.7857" y2="32.0714" gradientUnits="userSpaceOnUse">
<stop stop-color="#AC5DD9"/>
<stop offset="1" stop-color="#004FC4"/>
</linearGradient>
<linearGradient id="paint2_linear_2026_4389" x1="62.2857" y1="10.8929" x2="69.7857" y2="21.0714" gradientUnits="userSpaceOnUse">
<stop stop-color="#AC5DD9"/>
<stop offset="1" stop-color="#004FC4"/>
</linearGradient>
<linearGradient id="paint3_linear_2026_4389" x1="62.2857" y1="32.8929" x2="69.7857" y2="43.0714" gradientUnits="userSpaceOnUse">
<stop stop-color="#AC5DD9"/>
<stop offset="1" stop-color="#004FC4"/>
</linearGradient>
</defs>
</svg>
