<svg width="80" height="80" viewBox="0 0 80 80" fill="none" xmlns="http://www.w3.org/2000/svg">
<path d="M62.0625 63.1055C63.2604 63.1056 64.2342 64.0759 64.2344 65.2695C64.2344 66.4633 63.2605 67.4345 62.0625 67.4346C61.8816 67.4346 61.7062 67.4098 61.5381 67.3682C55.4061 72.1441 47.8255 74.7519 40.0049 74.752C38.5271 74.752 37.0456 74.6574 35.582 74.4746C35.2018 74.8006 34.709 74.9999 34.1689 75C32.9708 75 31.9971 74.0288 31.9971 72.835C31.9973 71.6413 32.9709 70.6709 34.1689 70.6709C35.0497 70.671 35.8078 71.1961 36.1484 71.9482C37.4258 72.0978 38.7153 72.1748 40.0049 72.1748C47.2258 72.1747 54.2231 69.7682 59.8955 65.376C59.8938 65.3408 59.8906 65.3051 59.8906 65.2695C59.8908 64.0758 60.8645 63.1055 62.0625 63.1055ZM25.1445 71.4531H25.127L25.1348 71.4482L25.1445 71.4531ZM11.9648 36.0156C13.1628 36.0157 14.1365 36.9861 14.1367 38.1797C14.1367 39.037 13.6331 39.7767 12.9062 40.127C12.9285 42.5228 13.2638 44.9002 13.9131 47.1895L14.0508 47.6875L10.7842 53.8809C13.8183 60.1678 18.8608 65.3464 25.084 68.5586L31.0146 65.3643L31.54 65.5361C34.2552 66.4294 37.0998 66.876 39.9873 66.876C45.312 66.876 50.4035 65.3569 54.8164 62.4678C54.8535 61.3061 55.8106 60.373 56.9854 60.373C58.1833 60.3732 59.157 61.3435 59.1572 62.5371C59.1572 63.7309 58.1834 64.702 56.9854 64.7021C56.7424 64.7021 56.5093 64.6595 56.291 64.5859C51.4459 67.774 45.8482 69.4521 39.9873 69.4521C37.0137 69.4521 34.0832 69.0139 31.2646 68.1465L25.1348 71.4482L24.5498 71.1611C17.3352 67.6225 11.5165 61.6623 8.18066 54.3789L7.91406 53.8027L11.292 47.3867C10.6456 44.9477 10.3184 42.4227 10.3184 39.8721C10.3184 39.7789 10.3204 39.6852 10.3213 39.5918C9.99265 39.2124 9.79297 38.7192 9.79297 38.1797C9.79317 36.986 10.7668 36.0156 11.9648 36.0156ZM26.5918 19.0088C27.7898 19.0088 28.7644 19.9791 28.7646 21.1729C28.7646 22.3667 27.7899 23.3379 26.5918 23.3379C26.389 23.3379 26.1932 23.3079 26.0068 23.2559C21.1059 27.3681 18.2227 33.4629 18.2227 39.8711C18.2227 41.8036 18.4815 43.7276 18.9814 45.5742L19.1279 46.124L15.6025 51.6123C18.1281 56.8086 22.2913 61.0861 27.4199 63.7744L32.1865 60.1406L32.8418 60.373C35.1432 61.1718 37.5483 61.5752 40.0049 61.5752C44.1891 61.5751 48.1718 60.4177 51.6494 58.2061C51.6494 58.2042 51.6494 58.202 51.6494 58.2002C51.6496 57.0066 52.6234 56.0363 53.8213 56.0361C55.0193 56.0361 55.9939 57.0065 55.9941 58.2002C55.9941 59.3941 55.0194 60.3652 53.8213 60.3652C53.6047 60.3652 53.3957 60.3325 53.1982 60.2734C49.2686 62.8135 44.7469 64.1523 40.0049 64.1523C37.4968 64.1523 35.0314 63.7745 32.6611 63.0273L27.7129 66.8057H27.7041L26.9893 66.4541C20.7917 63.4308 15.8005 58.3112 12.9561 52.0498L12.6631 51.415L16.3438 45.6943C15.8697 43.7962 15.6367 41.8465 15.6367 39.8711C15.6367 32.6618 18.8943 25.8206 24.4219 21.2168C24.4216 21.2023 24.4199 21.1874 24.4199 21.1729C24.4201 19.9792 25.3939 19.0089 26.5918 19.0088ZM9.7832 22.5645C10.9812 22.5645 11.9559 23.5348 11.9561 24.7285C11.9561 25.727 11.2735 26.5665 10.3496 26.8154C8.54067 30.9042 7.58599 35.369 7.58594 39.8711C7.58594 41.8912 7.77142 43.8981 8.1416 45.8652C8.85345 46.2208 9.34458 46.9525 9.34473 47.7988C9.34473 48.9927 8.37001 49.9639 7.17188 49.9639C5.97387 49.9637 5 48.9926 5 47.7988C5.0001 47.2212 5.22941 46.697 5.60059 46.3086C5.20194 44.1975 5 42.0409 5 39.8711C5.00005 35.0533 6.01444 30.2599 7.94043 25.8691C7.73316 25.5376 7.61133 25.1472 7.61133 24.7285C7.61153 23.5349 8.58532 22.5646 9.7832 22.5645ZM45.4521 40.3438C46.6501 40.3439 47.6238 41.3142 47.624 42.5078C47.624 43.7016 46.6502 44.6727 45.4521 44.6729C44.7389 44.6729 44.1071 44.3271 43.7109 43.7969H32.7812C32.3851 44.3271 31.7532 44.6728 31.04 44.6729C29.8419 44.6729 28.8682 43.7017 28.8682 42.5078C28.8684 41.3141 29.842 40.3438 31.04 40.3438C31.7533 40.3438 32.3851 40.6894 32.7812 41.2197H43.7109C44.1071 40.6894 44.7389 40.3438 45.4521 40.3438ZM70.3027 22.5645C71.5006 22.5646 72.4744 23.5349 72.4746 24.7285C72.4746 25.1794 72.3351 25.5984 72.0977 25.9453C74.0263 30.3381 75 35.0159 75 39.8799C75 40.7903 74.9654 41.7097 74.8965 42.6201L74.8018 43.8047V43.7969H52.5205L47.9951 38.3857H27.9619C27.6042 39.0928 26.8711 39.58 26.0234 39.5801C24.8253 39.5801 23.8516 38.6089 23.8516 37.415C23.8518 36.2213 24.8254 35.251 26.0234 35.251C26.5812 35.251 27.0887 35.4633 27.4736 35.8086H49.2012L53.7266 41.2197H72.3887C72.4059 40.7731 72.4141 40.3177 72.4141 39.8711C72.414 35.2947 71.4775 30.9044 69.6406 26.7891C68.7656 26.5095 68.1309 25.6923 68.1309 24.7285C68.1311 23.5348 69.1047 22.5645 70.3027 22.5645ZM34.4531 15.3838C35.0056 15.3838 35.5089 15.5922 35.8926 15.9316C37.2455 15.7009 38.6232 15.582 40.0049 15.582C50.9205 15.5822 60.5104 22.914 63.4551 33.2461C64.2361 33.5742 64.786 34.3447 64.7861 35.2412C64.7861 36.4351 63.8114 37.4062 62.6133 37.4062C61.4153 37.4061 60.4414 36.435 60.4414 35.2412C60.4415 34.7176 60.6279 34.236 60.9395 33.8613C58.2805 24.6682 49.7362 18.1594 40.0049 18.1592C38.7994 18.1592 37.6017 18.2598 36.4229 18.4551C36.0778 19.1964 35.326 19.7129 34.4531 19.7129C33.2551 19.7127 32.2812 18.7416 32.2812 17.5479C32.2815 16.3542 33.2552 15.3839 34.4531 15.3838ZM40.0039 9.41504C40.741 9.41504 41.3923 9.78314 41.7852 10.3438C54.2354 11.0733 64.8295 19.4092 68.4248 31.3057C69.2306 31.6222 69.8026 32.404 69.8027 33.3184C69.8027 34.5122 68.8289 35.4833 67.6309 35.4834C66.4327 35.4834 65.459 34.5122 65.459 33.3184C65.4591 32.8133 65.6339 32.349 65.9258 31.9805C62.6338 21.1862 53.0166 13.614 41.7061 12.9199C41.3079 13.4208 40.6938 13.7441 40.0039 13.7441C38.8059 13.744 37.832 12.7729 37.832 11.5791C37.8322 10.3855 38.806 9.41519 40.0039 9.41504ZM35.8066 20.4004C36.4196 20.4004 36.9729 20.6555 37.3682 21.0635C38.2385 20.9431 39.1186 20.8809 40.0039 20.8809C45.1914 20.8809 50.0739 22.9623 53.6562 26.6357C53.7221 26.6297 53.789 26.627 53.8564 26.627C55.0544 26.6271 56.0281 27.5974 56.0283 28.791C56.0283 29.9848 55.0545 30.9559 53.8564 30.9561C52.6583 30.9561 51.6846 29.9849 51.6846 28.791C51.6846 28.6422 51.6987 28.4968 51.7275 28.3564C48.6369 25.222 44.4537 23.458 40.0039 23.458C39.2299 23.458 38.4611 23.5135 37.7012 23.6201C37.329 24.281 36.6201 24.7295 35.8066 24.7295C34.6086 24.7293 33.6348 23.7582 33.6348 22.5645C33.635 21.3708 34.6088 20.4005 35.8066 20.4004ZM40.0039 5C44.1279 5 48.1469 5.7012 51.9746 7.09082C52.3081 6.88276 52.7012 6.76079 53.123 6.76074C54.3211 6.76074 55.2957 7.7311 55.2959 8.9248C55.2959 10.1187 54.3212 11.0898 53.123 11.0898C52.1203 11.0897 51.2764 10.409 51.0273 9.4873C47.5066 8.21778 43.8039 7.57715 40.0039 7.57715C30.9678 7.57726 22.425 11.2989 16.2998 17.8486C16.208 18.9588 15.2742 19.834 14.1367 19.834C12.9387 19.8338 11.9648 18.8627 11.9648 17.6689C11.965 16.4753 12.9388 15.505 14.1367 15.5049C14.389 15.5049 14.631 15.5498 14.8564 15.6289C21.4346 8.84307 30.4642 5.00011 40.0039 5Z" fill="url(#paint0_linear_2041_57)"/>
<defs>
<linearGradient id="paint0_linear_2041_57" x1="-7" y1="18.25" x2="45.5" y2="89.5" gradientUnits="userSpaceOnUse">
<stop stop-color="#AC5DD9"/>
<stop offset="1" stop-color="#004FC4"/>
</linearGradient>
</defs>
</svg>
