<svg width="67" height="63" viewBox="0 0 67 63" fill="none" xmlns="http://www.w3.org/2000/svg">
<path d="M33 25C46.427 25 58.635 31.8971 65.6621 43.4463L66 44L65.6621 44.5537C58.635 56.1029 46.427 63 33 63C19.573 63 7.36502 56.1029 0.337891 44.5537L0 44L0.337891 43.4463C7.36502 31.8971 19.573 25 33 25ZM33 27.124C20.5317 27.124 9.1771 33.424 2.48828 44C9.1771 54.576 20.5317 60.8691 33 60.8691C45.4683 60.8691 56.8229 54.576 63.5117 44C56.8229 33.424 45.4683 27.124 33 27.124ZM33 29C44.0348 29 54.0738 34.2344 60.5479 43.3633L61 44L60.5479 44.6367C54.0738 53.7656 44.0348 59 33 59C21.9652 59 11.9262 53.7656 5.45215 44.6367L5 44L5.45215 43.3633C11.9262 34.2344 21.9652 29 33 29ZM33 31.1719C22.9042 31.1719 13.7046 35.834 7.62598 44C13.7046 52.166 22.9042 56.8281 33 56.8281C43.0958 56.8281 52.2954 52.166 58.374 44C52.2954 35.834 43.0958 31.1719 33 31.1719ZM34 34C39.5141 34 44 38.4859 44 44C44 49.5141 39.5141 54 34 54C28.4859 54 24 49.5141 24 44C24 38.4859 28.4859 34 34 34ZM34 36.0635C29.6246 36.0635 26.0703 39.6246 26.0703 43.9932C26.0703 48.3617 29.6315 51.9229 34 51.9229C38.3685 51.9229 41.9297 48.3617 41.9297 43.9932C41.9297 39.6246 38.3685 36.0635 34 36.0635ZM34 38C37.3121 38 40 40.695 40 44C40 47.305 37.3121 50 34 50C30.695 50 28 47.3121 28 44C28 40.6879 30.6879 38 34 38ZM34 40.1279C31.8652 40.1279 30.1279 41.8652 30.1279 44C30.1279 46.1348 31.8652 47.8721 34 47.8721C36.1348 47.8721 37.8721 46.1348 37.8721 44C37.8721 41.8652 36.1348 40.1279 34 40.1279Z" fill="url(#paint0_linear_2064_3659)"/>
<path d="M55 12V20H47V12H55Z" stroke="url(#paint1_linear_2064_3659)" stroke-width="2"/>
<path d="M66 1V9H58V1H66Z" stroke="url(#paint2_linear_2064_3659)" stroke-width="2"/>
<path d="M66 23V31H58V23H66Z" stroke="url(#paint3_linear_2064_3659)" stroke-width="2"/>
<defs>
<linearGradient id="paint0_linear_2064_3659" x1="17.2219" y1="25" x2="49.5707" y2="25.8705" gradientUnits="userSpaceOnUse">
<stop stop-color="#5B8DEF"/>
<stop offset="1" stop-color="#0063F7"/>
</linearGradient>
<linearGradient id="paint1_linear_2064_3659" x1="48.6094" y1="11" x2="53.5131" y2="11.076" gradientUnits="userSpaceOnUse">
<stop stop-color="#5B8DEF"/>
<stop offset="1" stop-color="#0063F7"/>
</linearGradient>
<linearGradient id="paint2_linear_2064_3659" x1="59.6094" y1="2.92505e-07" x2="64.5131" y2="0.075973" gradientUnits="userSpaceOnUse">
<stop stop-color="#5B8DEF"/>
<stop offset="1" stop-color="#0063F7"/>
</linearGradient>
<linearGradient id="paint3_linear_2064_3659" x1="59.6094" y1="22" x2="64.5131" y2="22.076" gradientUnits="userSpaceOnUse">
<stop stop-color="#5B8DEF"/>
<stop offset="1" stop-color="#0063F7"/>
</linearGradient>
</defs>
</svg>
