<svg width="80" height="80" viewBox="0 0 80 80" fill="none" xmlns="http://www.w3.org/2000/svg">
<path d="M11 49.1426C11.5523 49.1426 12 49.5903 12 50.1426V58.9482H40.123C40.6752 58.9484 41.123 59.396 41.123 59.9482C41.1228 60.5002 40.675 60.9481 40.123 60.9482H11C10.448 60.9482 10.0003 60.5002 10 59.9482V50.1426C10 49.5903 10.4478 49.1427 11 49.1426ZM59.5381 24.3105C62.7715 24.3107 65.3925 26.934 65.3926 30.168C65.3925 31.6124 64.8678 32.9338 64.001 33.9551L69.957 39.9834C70.1419 40.1706 70.2461 40.4234 70.2461 40.6865V59.3105C70.2459 59.8625 69.7981 60.3103 69.2461 60.3105H49.8311C49.5634 60.3105 49.3061 60.2032 49.1182 60.0127L43.0537 53.8604C42.1916 54.3604 41.1913 54.6484 40.123 54.6484C36.8897 54.6483 34.2697 52.0259 34.2695 48.792C34.2696 45.558 36.8896 42.9347 40.123 42.9346C43.3564 42.9348 45.9775 45.558 45.9775 48.792C45.9775 50.2332 45.4551 51.5519 44.5918 52.5723L50.249 58.3105H68.2461V41.0977L62.46 35.2412C61.5998 35.7381 60.6028 36.0244 59.5381 36.0244C56.3047 36.0243 53.6848 33.4018 53.6846 30.168C53.6847 26.934 56.3047 24.3107 59.5381 24.3105ZM30.415 20C30.6825 20 30.9391 20.1075 31.127 20.2979L37.1914 26.4492C38.0534 25.9491 39.0547 25.6622 40.123 25.6621C43.3564 25.6623 45.9775 28.2855 45.9775 31.5195C45.9771 34.7532 43.3562 37.3757 40.123 37.376C36.8898 37.3758 34.27 34.7532 34.2695 31.5195C34.2695 30.0781 34.79 28.7579 35.6533 27.7373L29.9971 22H12V39.2139L17.7764 45.0723C18.6382 44.5723 19.639 44.2853 20.707 44.2852C23.9406 44.2852 26.5614 46.9085 26.5615 50.1426C26.5613 53.3765 23.9405 55.999 20.707 55.999C17.4739 55.9986 14.8537 53.3763 14.8535 50.1426C14.8536 48.7015 15.3743 47.3818 16.2373 46.3613L10.2881 40.3262C10.1038 40.1391 10.0001 39.8866 10 39.624V21C10.0001 20.4478 10.4478 20.0001 11 20H30.415ZM20.707 24.8574C23.9406 24.8574 26.5615 27.4807 26.5615 30.7148C26.5614 32.0199 26.1338 33.2245 25.4121 34.1982L30.8193 39.4287H49.8301L49.9287 39.4336C50.1579 39.4563 50.3739 39.5574 50.5381 39.7217L56.167 45.3545C57.12 44.6815 58.2827 44.2852 59.5381 44.2852C62.7715 44.2853 65.3924 46.9087 65.3926 50.1426C65.3924 53.3765 62.7715 55.9989 59.5381 55.999C56.3047 55.9989 53.6848 53.3764 53.6846 50.1426C53.6846 48.8867 54.0802 47.7233 54.7529 46.7695L49.416 41.4287H30.415C30.1557 41.4286 29.9061 41.3278 29.7197 41.1475L23.9648 35.5801C23.0335 36.2053 21.913 36.5713 20.707 36.5713C17.4739 36.5709 14.8538 33.9485 14.8535 30.7148C14.8535 27.4809 17.4738 24.8578 20.707 24.8574ZM20.707 46.2852C19.8332 46.2853 19.0274 46.5773 18.3809 47.0684C18.3742 47.0753 18.3682 47.083 18.3613 47.0898C18.3068 47.1436 18.2471 47.1888 18.1846 47.2275C17.3697 47.9347 16.8536 48.9781 16.8535 50.1426C16.8537 52.273 18.5797 53.9986 20.707 53.999C22.8347 53.999 24.5613 52.2732 24.5615 50.1426C24.5614 48.0118 22.8347 46.2852 20.707 46.2852ZM59.5381 46.2852C58.5027 46.2852 57.5626 46.6949 56.8701 47.3604C56.8529 47.3805 56.8354 47.4009 56.8164 47.4199C56.7993 47.437 56.7807 47.4522 56.7627 47.4678C56.0954 48.1612 55.6846 49.1036 55.6846 50.1426C55.6848 52.2731 57.4106 53.9989 59.5381 53.999C61.6656 53.9989 63.3924 52.2732 63.3926 50.1426C63.3924 48.012 61.6656 46.2853 59.5381 46.2852ZM40.123 44.9346C37.9954 44.9347 36.2696 46.6613 36.2695 48.792C36.2697 50.9226 37.9955 52.6483 40.123 52.6484C40.9955 52.6483 41.8001 52.3576 42.4463 51.8682C42.454 51.86 42.4617 51.8517 42.4697 51.8438C42.5242 51.7901 42.5831 51.7437 42.6455 51.7051C43.4603 50.9981 43.9774 49.9562 43.9775 48.792C43.9775 46.6613 42.2506 44.9348 40.123 44.9346ZM40.123 27.6621C39.2503 27.6622 38.445 27.9526 37.7988 28.4424C37.7912 28.4504 37.7843 28.459 37.7764 28.4668C37.7224 28.52 37.6634 28.5651 37.6016 28.6035C36.786 29.3107 36.2695 30.3544 36.2695 31.5195C36.27 33.6499 37.9957 35.3758 40.123 35.376C42.2504 35.3757 43.9771 33.6499 43.9775 31.5195C43.9775 29.3888 42.2506 27.6623 40.123 27.6621ZM20.707 26.8574C18.5796 26.8578 16.8535 28.5842 16.8535 30.7148C16.8538 32.8452 18.5798 34.5709 20.707 34.5713C21.7045 34.5713 22.6142 34.1918 23.2988 33.5693C23.3029 33.565 23.3064 33.56 23.3105 33.5557C23.3371 33.5282 23.3648 33.5022 23.3936 33.4785C24.1135 32.778 24.5614 31.7993 24.5615 30.7148C24.5615 28.584 22.8348 26.8574 20.707 26.8574ZM59.5381 26.3105C57.4105 26.3107 55.6847 28.0373 55.6846 30.168C55.6848 32.2985 57.4106 34.0243 59.5381 34.0244C61.6656 34.0243 63.3924 32.2986 63.3926 30.168C63.3925 28.0373 61.6657 26.3107 59.5381 26.3105ZM69.2461 20C69.7982 20.0002 70.246 20.4479 70.2461 21V30.7139C70.2461 31.266 69.7982 31.7137 69.2461 31.7139C68.6938 31.7139 68.2461 31.2662 68.2461 30.7139V22H40.123C39.5708 22 39.123 21.5523 39.123 21C39.1231 20.4478 39.5708 20 40.123 20H69.2461Z" fill="url(#paint0_linear_2169_6373)"/>
<defs>
<linearGradient id="paint0_linear_2169_6373" x1="25.7205" y1="20" x2="55.2551" y2="20.6732" gradientUnits="userSpaceOnUse">
<stop stop-color="#2E6CE7"/>
<stop offset="1" stop-color="#0063F7"/>
</linearGradient>
</defs>
</svg>
