<svg width="80" height="80" viewBox="0 0 80 80" fill="none" xmlns="http://www.w3.org/2000/svg">
<path d="M30.5312 6.3007C36.678 4.56477 43.38 4.56517 49.4688 6.30949C64.4959 10.5781 75 24.608 75 40.4325C74.9999 56.257 64.5041 70.2782 49.4688 74.5468L47.8945 74.9911V61.5146H50.3799V65.8993C60.5261 61.673 67.2206 51.6551 67.2207 40.4335C67.2207 28.6175 60.5195 19.191 50.3799 14.956V17.6142H47.8945V11.3837L49.5352 11.9452C61.5966 16.0964 69.7061 27.5441 69.7061 40.4335C69.7059 53.0192 61.9732 64.22 50.3799 68.5976V71.6288C63.4934 67.159 72.5233 54.5714 72.5234 40.4325C72.5234 26.2936 62.7647 12.699 48.7979 8.73234C43.1399 7.11382 36.9016 7.106 31.2021 8.72453C17.2354 12.6829 7.48535 25.7234 7.48535 40.4325C7.48544 55.1415 16.5064 67.1751 29.6279 71.6366V68.6005C18.0302 64.225 10.2941 53.0221 10.2939 40.4335C10.2939 27.5441 18.4033 16.0964 30.4648 11.9452L32.1055 11.3837V17.6142H29.6201V14.956C19.4805 19.191 12.7783 29.2213 12.7783 40.4335C12.7784 51.6497 19.4842 61.6769 29.6279 65.9023V61.5146H32.1133V74.9999L30.54 74.5556C15.4963 70.2871 5.00009 56.2571 5 40.4325C5 24.6079 15.4958 10.5693 30.5312 6.3007ZM33.9199 22.1161H37.9541V20.9931H42.0547V22.1161H46.0889V20.9931H50.1895V22.1161H51.9707C55.0023 22.1164 57.4627 24.6067 57.4629 27.6757V29.4882H58.5723V33.6396H57.4629V37.7235H58.5723V41.8749H57.4629V45.9589H58.5723V50.1103H57.4629V51.912C57.4629 54.9812 55.0024 57.4713 51.9707 57.4716H50.1895V58.5966H46.0889V57.4716H42.0547V58.5966H37.9541V57.4716H33.9199V58.5966H29.8193V57.4716H28.0293C24.9974 57.4715 22.5371 54.9813 22.5371 51.912V50.1103H21.4277V45.9589H22.5371V41.8749H21.4277V37.7235H22.5371V33.6396H21.4277V29.4882H22.5371V27.6757C22.5373 24.6066 24.9975 22.1162 28.0293 22.1161H29.8193V20.9931H33.9199V22.1161ZM27.1846 50.1103H25.0225V51.912C25.0225 53.5892 26.3726 54.9559 28.0293 54.956H29.8193V52.7685H30.623V49.8134C30.4279 49.662 30.2542 49.4852 30.1055 49.287H27.1846V50.1103ZM33.1074 52.7685H33.9199V54.956H37.9541V52.7685H38.7578V50.3866H33.1074V52.7685ZM41.2422 52.7685H42.0547V54.956H46.0889V52.7685H46.8926V50.3866H41.2422V52.7685ZM49.9033 49.287C49.7528 49.4876 49.5759 49.6657 49.3779 49.8183V52.7685H50.1895V54.956H51.9707C53.6273 54.9557 54.9775 53.5891 54.9775 51.912V50.1103H52.8154V49.287H49.9033ZM27.1846 41.8749H25.0225V45.9589H27.1846V46.7714H29.5459V41.0527H27.1846V41.8749ZM50.4629 46.7714H52.8154V45.9589H54.9775V41.8749H52.8154V41.0527H50.4629V46.7714ZM27.1846 33.6396H25.0225V37.7235H27.1846V38.537H29.5459V32.8163H27.1846V33.6396ZM50.4629 38.537H52.8154V37.7235H54.9775V33.6396H52.8154V32.8163H50.4629V38.537ZM28.0293 24.6318C26.3727 24.6318 25.0227 25.9987 25.0225 27.6757V29.4882H27.1846V30.3007H30.1133C30.2604 30.1067 30.4312 29.9328 30.623 29.7841V26.8212H29.8193V24.6318H28.0293ZM50.1895 26.8212H49.3779V29.7792C49.5726 29.9292 49.7466 30.1043 49.8955 30.3007H52.8154V29.4882H54.9775V27.6757C54.9773 25.9988 53.6272 24.632 51.9707 24.6318H50.1895V26.8212ZM33.9199 26.8212H33.1074V29.2118H38.7578V26.8212H37.9541V24.6318H33.9199V26.8212ZM42.0547 26.8212H41.2422V29.2118H46.8926V26.8212H46.0889V24.6318H42.0547V26.8212Z" fill="url(#paint0_linear_2064_5978)"/>
<defs>
<linearGradient id="paint0_linear_2064_5978" x1="23.2656" y1="5" x2="57.5915" y2="5.53181" gradientUnits="userSpaceOnUse">
<stop stop-color="#5B8DEF"/>
<stop offset="1" stop-color="#0063F7"/>
</linearGradient>
</defs>
</svg>
