<svg width="80" height="80" viewBox="0 0 80 80" fill="none" xmlns="http://www.w3.org/2000/svg">
<path d="M26.6406 13.2129C32.1905 10.0257 38.7988 9.12373 44.9492 10.8945L45.543 11.0742L46.0762 11.251C57.1497 15.0641 60.777 25.605 61.9404 31.1406C62.6186 34.366 63.5918 37.5272 64.8145 40.5938H64.8154L66.0645 43.7324V43.7334C66.5769 45.0251 65.6362 46.447 64.2295 46.4473H60.7617V55.5967C60.7616 58.3504 58.5374 60.5918 55.7852 60.5918H49.7949C49.0497 60.5918 48.421 61.1715 48.3613 61.9424V67.9434L48.415 69.0439C48.4227 69.094 48.4287 69.1451 48.4287 69.1973C48.4286 69.7495 47.9809 70.1973 47.4287 70.1973H25.0371C23.9585 70.1971 23.1312 69.2673 23.2246 68.21V68.209C24.1663 57.7248 21.0953 51.647 18.2402 46.2598C15.3611 40.8271 12.5621 35.8906 14.8281 28.0586C17.061 20.3397 22.1213 15.8089 26.6406 13.2129ZM44.9365 12.9805C39.1785 11.1519 32.9016 11.9237 27.6367 14.9473C23.5634 17.2871 19.0893 21.2665 16.9492 27.958L16.749 28.6143C14.7292 35.5952 17.1143 39.8653 20.0068 45.3232C22.9067 50.795 26.1708 57.2491 25.2314 68.1973H31.4072V63.2598C31.4072 62.7075 31.8549 62.2598 32.4072 62.2598C32.9594 62.2599 33.4072 62.7076 33.4072 63.2598V68.1973H37.9043V63.2598C37.9043 62.7075 38.352 62.2598 38.9043 62.2598C39.4565 62.2598 39.9043 62.7075 39.9043 63.2598V68.1973H46.3721L46.3633 68.0234C46.3625 68.007 46.3613 67.9901 46.3613 67.9736V61.8945C46.3613 61.8726 46.3618 61.85 46.3633 61.8281C46.4825 60.0212 47.9669 58.5918 49.7949 58.5918H55.7852C57.424 58.5918 58.7616 57.2546 58.7617 55.5967V46.4277C58.7618 45.3391 59.6424 44.4473 60.7373 44.4473H64.1963L62.957 41.334C61.6948 38.1681 60.6858 34.8978 59.9824 31.5527C58.8363 26.0991 55.3434 16.2894 44.9365 12.9805ZM39.252 17.7334C41.0556 17.7336 42.5095 19.2013 42.5098 21.002C42.5095 22.8026 41.0556 24.2713 39.252 24.2715C37.8632 24.2714 36.6823 23.4001 36.2119 22.1777H32.7793V29.7158H43.876L44.4512 29.1377C44.032 28.433 43.8734 27.5716 44.0752 26.7119C44.4871 24.9586 46.2391 23.8652 47.9941 24.2812C49.7491 24.6974 50.8286 26.4616 50.417 28.2148C50.0051 29.9683 48.2542 31.0617 46.499 30.6455C46.3089 30.6004 46.1273 30.5379 45.9541 30.4629L44.999 31.4219C44.8114 31.6099 44.5566 31.7158 44.291 31.7158H32.7793V35.0195H43.9756C44.2588 34.1393 44.9076 33.3828 45.8271 33C47.4922 32.3071 49.3953 33.1033 50.082 34.7686C50.7686 36.434 49.9834 38.349 48.3184 39.042C46.6533 39.7348 44.7501 38.9388 44.0635 37.2734C44.0289 37.1895 43.9989 37.1046 43.9717 37.0195H31.7793C31.227 37.0195 30.7793 36.5718 30.7793 36.0195V31.7158H27.1543C26.7546 32.7714 25.8773 33.5912 24.7842 33.9072V39.9102H32.3252C32.7458 38.5957 33.9737 37.6406 35.4287 37.6406C37.2322 37.641 38.6863 39.1086 38.6865 40.9092C38.6865 42.71 37.2324 44.1783 35.4287 44.1787C33.9743 44.1787 32.7472 43.2239 32.3262 41.9102H23.7842C23.2321 41.9102 22.7845 41.4622 22.7842 40.9102V33.9072C21.2769 33.4717 20.1777 32.0786 20.1777 30.4316C20.1778 28.4378 21.7882 26.8135 23.7842 26.8135C25.5347 26.8137 26.9875 28.0634 27.3184 29.7158H30.7793V21.1777C30.7793 20.6255 31.227 20.1777 31.7793 20.1777H36.0986C36.4625 18.7739 37.7331 17.7335 39.252 17.7334ZM35.4287 39.6406C34.7383 39.6406 34.1702 40.2041 34.1699 40.9092C34.1699 41.6145 34.7381 42.1787 35.4287 42.1787C36.119 42.1783 36.6865 41.6142 36.6865 40.9092C36.6863 40.2044 36.1188 39.641 35.4287 39.6406ZM48.2363 35.5371C47.9683 34.887 47.2294 34.5834 46.5898 34.8496C45.9504 35.1158 45.6423 35.8549 45.9102 36.5049C46.1781 37.1547 46.9163 37.4591 47.5557 37.1934C48.1952 36.9272 48.5042 36.1871 48.2363 35.5371ZM23.7842 28.8135C22.9016 28.8135 22.1778 29.5335 22.1777 30.4316C22.1777 31.3298 22.9016 32.0498 23.7842 32.0498C24.6666 32.0496 25.3896 31.3297 25.3896 30.4316C25.3896 29.5337 24.6665 28.8137 23.7842 28.8135ZM47.5371 26.2285C46.8645 26.0691 46.1826 26.4871 46.0215 27.1729C45.8604 27.8585 46.2837 28.5385 46.9561 28.6982C47.6288 28.8578 48.3106 28.4398 48.4717 27.7539C48.6327 27.0682 48.2095 26.3882 47.5371 26.2285ZM39.252 19.7334C38.5616 19.7335 37.9934 20.297 37.9932 21.002C37.9934 21.7069 38.5616 22.2713 39.252 22.2715C39.9422 22.2713 40.5095 21.7069 40.5098 21.002C40.5095 20.297 39.9422 19.7336 39.252 19.7334Z" fill="url(#paint0_linear_2169_6264)"/>
<defs>
<linearGradient id="paint0_linear_2169_6264" x1="27.6225" y1="10" x2="53.2242" y2="10.344" gradientUnits="userSpaceOnUse">
<stop stop-color="#2E6CE7"/>
<stop offset="1" stop-color="#0063F7"/>
</linearGradient>
</defs>
</svg>
