<svg width="80" height="80" viewBox="0 0 80 80" fill="none" xmlns="http://www.w3.org/2000/svg">
<path d="M40.123 18.0898C43.3434 18.09 45.9774 20.6707 45.9775 23.8809C45.9774 26.7512 43.8709 29.115 41.123 29.584V61.4883C41.1226 62.0401 40.675 62.4882 40.123 62.4883C39.5711 62.4883 39.1235 62.0402 39.123 61.4883V29.584C36.3751 29.1152 34.2697 26.7513 34.2695 23.8809C34.2697 20.6707 36.9027 18.09 40.123 18.0898ZM15.8535 41.3252C19.0741 41.3252 21.708 43.9058 21.708 47.1162C21.708 47.3098 21.6974 47.5009 21.6787 47.6895L30.7549 50.9648C31.1512 51.1079 31.415 51.4849 31.415 51.9062V61.4873C31.4149 62.0395 30.9672 62.4872 30.415 62.4873C29.863 62.4871 29.4151 62.0394 29.415 61.4873V52.6074L21.1338 49.6191C20.1877 51.5673 18.173 52.9062 15.8535 52.9062C12.6334 52.906 10.0004 50.3261 10 47.1162C10 43.906 12.6331 41.3254 15.8535 41.3252ZM20.541 18C23.7614 18.0002 26.3954 20.5808 26.3955 23.791C26.3953 26.619 24.3505 28.9558 21.6621 29.4727V35.3408L35.6748 41.5596C36.036 41.7199 36.2683 42.0785 36.2686 42.4736V61.4873C36.2683 62.0394 35.8207 62.4873 35.2686 62.4873C34.7167 62.487 34.2688 62.0392 34.2686 61.4873V43.123L20.2568 36.9053C19.8956 36.7448 19.6621 36.3865 19.6621 35.9912V29.5156C16.855 29.0968 14.6877 26.7036 14.6875 23.791C14.6876 20.5808 17.3206 18.0002 20.541 18ZM59.7051 18C62.9254 18.0002 65.5595 20.5808 65.5596 23.791C65.5594 26.7038 63.3905 29.0971 60.583 29.5156V35.9912C60.583 36.3865 60.3505 36.7448 59.9893 36.9053L45.9766 43.123V61.4873C45.9763 62.0394 45.5287 62.4873 44.9766 62.4873C44.4245 62.4872 43.9768 62.0393 43.9766 61.4873V42.4736L43.9873 42.3281C44.0368 41.9925 44.2551 41.6999 44.5713 41.5596L58.583 35.3408V29.4727C55.895 28.9556 53.8517 26.6189 53.8516 23.791C53.8517 20.5808 56.4847 18.0002 59.7051 18ZM64.3916 41.3252C67.6122 41.3252 70.2461 43.9058 70.2461 47.1162C70.2457 50.3263 67.6119 52.9062 64.3916 52.9062C62.0721 52.9061 60.0571 51.5674 59.1113 49.6191L50.8301 52.6084V61.4873C50.83 62.0395 50.3823 62.4873 49.8301 62.4873C49.2781 62.487 48.8302 62.0394 48.8301 61.4873V51.9062C48.8302 51.4851 49.0942 51.108 49.4902 50.9648L58.5664 47.6895C58.5477 47.501 58.5381 47.3097 58.5381 47.1162C58.5381 43.9059 61.1712 41.3254 64.3916 41.3252ZM15.8535 43.3252C13.7129 43.3254 12 45.0351 12 47.1162C12.0004 49.1969 13.7132 50.906 15.8535 50.9062C17.6216 50.9062 19.097 49.7396 19.5576 48.1611C19.5674 48.1082 19.5817 48.0552 19.6006 48.0029C19.6009 48.002 19.6012 48.001 19.6016 48C19.6707 47.7161 19.7079 47.4202 19.708 47.1162C19.708 45.035 17.9943 43.3252 15.8535 43.3252ZM64.3916 43.3252C62.251 43.3254 60.5381 45.0351 60.5381 47.1162C60.5381 47.4237 60.5768 47.7228 60.6475 48.0098C60.6646 48.0583 60.6772 48.1072 60.6865 48.1562C61.1452 49.7371 62.6218 50.9061 64.3916 50.9062C66.5321 50.9062 68.2457 49.1971 68.2461 47.1162C68.2461 45.035 66.5324 43.3252 64.3916 43.3252ZM40.123 20.0898C37.9825 20.09 36.2697 21.7998 36.2695 23.8809C36.2697 25.8401 37.7878 27.4683 39.752 27.6523C39.8666 27.6065 39.992 27.582 40.123 27.582C40.2535 27.582 40.3779 27.6069 40.4922 27.6523C42.4571 27.469 43.9774 25.8406 43.9775 23.8809C43.9774 21.7999 42.2636 20.09 40.123 20.0898ZM20.541 20C18.4004 20.0001 16.6876 21.71 16.6875 23.791C16.6877 25.7839 18.2584 27.434 20.2715 27.5703C20.3914 27.5194 20.5236 27.4912 20.6621 27.4912C20.7826 27.4912 20.8979 27.5137 21.0049 27.5527C22.9237 27.3268 24.3953 25.7192 24.3955 23.791C24.3954 21.71 22.6816 20.0002 20.541 20ZM59.7051 20C57.5645 20.0002 55.8517 21.71 55.8516 23.791C55.8517 25.7193 57.3223 27.3269 59.2412 27.5527C59.3479 27.5138 59.4629 27.4913 59.583 27.4912C59.7215 27.4912 59.8537 27.5194 59.9736 27.5703C61.987 27.4342 63.5594 25.7841 63.5596 23.791C63.5595 21.71 61.8456 20.0002 59.7051 20Z" fill="url(#paint0_linear_2169_6561)"/>
<defs>
<linearGradient id="paint0_linear_2169_6561" x1="25.7205" y1="18" x2="55.2574" y2="18.6197" gradientUnits="userSpaceOnUse">
<stop stop-color="#2E6CE7"/>
<stop offset="1" stop-color="#0063F7"/>
</linearGradient>
</defs>
</svg>
