<svg width="80" height="80" viewBox="0 0 80 80" fill="none" xmlns="http://www.w3.org/2000/svg">
<path d="M40.1797 17.125C50.5306 17.1252 58.8777 25.6433 58.8779 36.1328C58.8779 41.2668 56.8667 45.9261 53.5928 49.3438C52.532 50.4608 51.3376 51.4455 50.0293 52.2676V57.8428C51.0751 58.2675 51.8036 59.3037 51.8037 60.4961V64.4297C51.8037 65.9925 50.5535 67.29 48.9756 67.29H48.2666V67.9209C48.2666 70.1022 46.5206 71.9049 44.335 71.9053H36.0381C33.8522 71.9053 32.1055 70.1024 32.1055 67.9209V67.29H31.3965C29.8185 67.29 28.5684 65.9926 28.5684 64.4297V60.4961C28.5685 59.3081 29.2914 58.2754 30.3311 57.8477V52.2686C29.0224 51.4464 27.8267 50.462 26.7656 49.3447V49.3438C23.492 45.9261 21.4815 41.2665 21.4814 36.1328C21.4817 25.6431 29.8286 17.125 40.1797 17.125ZM34.1055 67.9209C34.1055 69.0307 34.9894 69.9053 36.0381 69.9053H44.335C45.3834 69.9049 46.2666 69.0305 46.2666 67.9209V67.29H34.1055V67.9209ZM31.3965 59.6367C30.9558 59.6367 30.5685 60.005 30.5684 60.4961V64.4297C30.5684 64.9209 30.9557 65.29 31.3965 65.29H33.085C33.0917 65.2899 33.0987 65.2891 33.1055 65.2891H47.2666C47.2735 65.2891 47.2803 65.2899 47.2871 65.29H48.9756C49.4163 65.29 49.8037 64.9209 49.8037 64.4297V60.4961C49.8035 60.0051 49.4163 59.6368 48.9756 59.6367H31.3965ZM47.2539 61.6904C47.806 61.6907 48.2539 62.1383 48.2539 62.6904C48.2538 63.2425 47.8059 63.6902 47.2539 63.6904H33.1055C32.5532 63.6904 32.1055 63.2427 32.1055 62.6904C32.1055 62.1381 32.5532 61.6904 33.1055 61.6904H47.2539ZM40.1797 19.125C30.9657 19.125 23.4817 26.7148 23.4814 36.1328C23.4815 40.7367 25.2828 44.9066 28.2129 47.9639L28.2158 47.9678C29.2836 49.0921 30.4991 50.0624 31.835 50.8428C32.1415 51.022 32.3309 51.3509 32.3311 51.7061V57.6367H34.998V43.4424L29.6416 40.084C29.3501 39.9011 29.1729 39.5805 29.1729 39.2363V36.248C27.5465 35.8003 26.3722 34.289 26.3721 32.5342V32.3867L26.373 32.335C26.4784 30.316 28.1182 28.671 30.1729 28.6709C32.2343 28.6709 33.9736 30.4135 33.9736 32.5342C33.9735 34.2892 32.7994 35.8004 31.1729 36.248V38.6826L36.5293 42.042C36.8206 42.2248 36.9978 42.5448 36.998 42.8887V57.6367H39.1797V31.9863C37.5667 31.5297 36.4053 30.0249 36.4053 28.2793V28.1318C36.4053 28.1147 36.4054 28.0972 36.4062 28.0801C36.5117 26.0612 38.1513 24.416 40.2061 24.416C42.2673 24.4163 44.0067 26.1589 44.0068 28.2793C44.0068 30.0436 42.8197 31.5623 41.1797 32.001V57.6367H43.4131V48.9102C43.4132 48.709 43.4745 48.5118 43.5879 48.3457L47.6211 42.4453V37.7061C45.9945 37.2584 44.8204 35.7472 44.8203 33.9922V33.8447L44.8213 33.793C44.9268 31.7741 46.5664 30.1289 48.6211 30.1289C50.6824 30.1291 52.4217 31.8717 52.4219 33.9922C52.4218 35.7471 51.2475 37.2582 49.6211 37.7061V42.7559C49.621 42.957 49.5598 43.1542 49.4463 43.3203L45.4131 49.2188V57.6367H48.0293V51.7061C48.0295 51.3508 48.2176 51.022 48.5244 50.8428C49.8604 50.0624 51.0757 49.0922 52.1436 47.9678L52.1465 47.9639C55.0766 44.9066 56.8779 40.7367 56.8779 36.1328C56.8777 26.715 49.3935 19.1252 40.1797 19.125ZM23.5566 51.125C23.9438 50.7316 24.577 50.7264 24.9707 51.1133C25.3642 51.5004 25.3692 52.1335 24.9824 52.5273L22.3789 55.1758C21.9918 55.5697 21.3587 55.5756 20.9648 55.1885C20.5711 54.8013 20.5661 54.1683 20.9531 53.7744L23.5566 51.125ZM55.3887 51.1133C55.7825 50.7266 56.4157 50.7315 56.8027 51.125L59.4062 53.7744C59.7931 54.1681 59.7879 54.8013 59.3945 55.1885C59.0007 55.5756 58.3676 55.5696 57.9805 55.1758L55.377 52.5273C54.9899 52.1335 54.9951 51.5004 55.3887 51.1133ZM17.6816 34.6377C18.2339 34.6377 18.6816 35.0854 18.6816 35.6377C18.6816 36.19 18.2339 36.6377 17.6816 36.6377H14C13.4478 36.6376 13 36.1899 13 35.6377C13 35.0854 13.4478 34.6377 14 34.6377H17.6816ZM66.4609 34.6426C66.9651 34.6939 67.3584 35.12 67.3584 35.6377C67.3584 36.1554 66.9651 36.5815 66.4609 36.6328L66.3584 36.6377H62.6768C62.1246 36.6376 61.6768 36.1899 61.6768 35.6377C61.6768 35.0855 62.1246 34.6378 62.6768 34.6377H66.3584L66.4609 34.6426ZM48.6211 32.1289C47.6813 32.1289 46.8778 32.8873 46.8203 33.8867V33.9922C46.8204 35.0247 47.6412 35.8418 48.6211 35.8418C49.6009 35.8417 50.4218 35.0246 50.4219 33.9922C50.4217 32.9556 49.5573 32.1291 48.6211 32.1289ZM30.1729 30.6709C29.2331 30.671 28.4294 31.4293 28.3721 32.4287V32.5342C28.3723 33.5665 29.1931 34.3836 30.1729 34.3838C31.1526 34.3837 31.9734 33.5666 31.9736 32.5342C31.9736 31.4974 31.1092 30.6709 30.1729 30.6709ZM40.2061 26.416C39.2659 26.416 38.4623 27.1749 38.4053 28.1748V28.2793C38.4054 29.3118 39.2262 30.1289 40.2061 30.1289C41.1857 30.1286 42.0068 29.3117 42.0068 28.2793C42.0067 27.2428 41.1422 26.4163 40.2061 26.416ZM20.9648 16.0869C21.3587 15.7001 21.9918 15.7051 22.3789 16.0986L24.9824 18.748C25.3694 19.1418 25.3643 19.775 24.9707 20.1621C24.5768 20.5492 23.9438 20.5433 23.5566 20.1494L20.9531 17.501C20.5661 17.1072 20.5712 16.474 20.9648 16.0869ZM57.9805 16.0986C58.3676 15.7054 59.0009 15.7 59.3945 16.0869C59.7879 16.474 59.7929 17.1072 59.4062 17.501L56.8027 20.1494C56.4157 20.5433 55.7826 20.5491 55.3887 20.1621C54.9949 19.775 54.9899 19.1419 55.377 18.748L57.9805 16.0986ZM40.1797 8C40.7318 8.00018 41.1797 8.44783 41.1797 9V12.7461C41.1796 13.2982 40.7318 13.7459 40.1797 13.7461C39.6274 13.7461 39.1797 13.2983 39.1797 12.7461V9C39.1797 8.44772 39.6274 8 40.1797 8Z" fill="url(#paint0_linear_2169_6608)"/>
<defs>
<linearGradient id="paint0_linear_2169_6608" x1="27.1841" y1="8" x2="53.8417" y2="8.35131" gradientUnits="userSpaceOnUse">
<stop stop-color="#2E6CE7"/>
<stop offset="1" stop-color="#0063F7"/>
</linearGradient>
</defs>
</svg>
