<svg width="80" height="80" viewBox="0 0 80 80" fill="none" xmlns="http://www.w3.org/2000/svg">
<path d="M50 23V31H42V23H50Z" stroke="url(#paint0_linear_2041_607)" stroke-width="2"/>
<path d="M61 12V20H53V12H61Z" stroke="url(#paint1_linear_2041_607)" stroke-width="2"/>
<path d="M50 35V43H42V35H50Z" stroke="url(#paint2_linear_2041_607)" stroke-width="2"/>
<path d="M38 23V31H30V23H38Z" stroke="url(#paint3_linear_2041_607)" stroke-width="2"/>
<path d="M24.123 45.5566C27.2517 52.4559 34.3426 57.0243 42.0996 57.0244C52.9454 57.0244 61.7676 48.3731 61.7676 37.7373H64.2979C64.2979 49.7377 54.3369 59.5049 42.0996 59.5049L42.1084 59.5137C33.6755 59.5137 25.9358 54.7321 22.2207 47.4219L16.2188 53.3076C21.7273 62.1017 31.5556 67.5186 42.1084 67.5186C58.8493 67.5185 72.4697 54.1619 72.4697 37.7451H75C75 55.5266 60.2409 70 42.1084 70C30.8811 70 20.3997 64.3279 14.3857 55.1055L5 64.3105V36.5049H33.3545L24.123 45.5566ZM7.53027 58.3223L27.248 38.9863H7.53027V58.3223Z" fill="url(#paint4_linear_2041_607)"/>
<defs>
<linearGradient id="paint0_linear_2041_607" x1="39.2857" y1="23.8929" x2="46.7857" y2="34.0714" gradientUnits="userSpaceOnUse">
<stop stop-color="#AC5DD9"/>
<stop offset="1" stop-color="#004FC4"/>
</linearGradient>
<linearGradient id="paint1_linear_2041_607" x1="50.2857" y1="12.8929" x2="57.7857" y2="23.0714" gradientUnits="userSpaceOnUse">
<stop stop-color="#AC5DD9"/>
<stop offset="1" stop-color="#004FC4"/>
</linearGradient>
<linearGradient id="paint2_linear_2041_607" x1="39.2857" y1="35.8929" x2="46.7857" y2="46.0714" gradientUnits="userSpaceOnUse">
<stop stop-color="#AC5DD9"/>
<stop offset="1" stop-color="#004FC4"/>
</linearGradient>
<linearGradient id="paint3_linear_2041_607" x1="27.2857" y1="23.8929" x2="34.7857" y2="34.0714" gradientUnits="userSpaceOnUse">
<stop stop-color="#AC5DD9"/>
<stop offset="1" stop-color="#004FC4"/>
</linearGradient>
<linearGradient id="paint4_linear_2041_607" x1="-7" y1="42.845" x2="9.49632" y2="89.6325" gradientUnits="userSpaceOnUse">
<stop stop-color="#AC5DD9"/>
<stop offset="1" stop-color="#004FC4"/>
</linearGradient>
</defs>
</svg>
