<svg width="182" height="26" viewBox="0 0 182 26" fill="none" xmlns="http://www.w3.org/2000/svg">
<path fill-rule="evenodd" clip-rule="evenodd" d="M22.28 8.5007V23.9877C22.28 24.5283 22.0066 24.8016 21.4664 24.8016H19.8355C19.2959 24.8016 19.0237 24.5283 19.0237 23.9877V8.5007C19.0237 6.47888 19.7417 4.75173 21.1729 3.31498C22.6034 1.8825 24.3281 1.16565 26.3445 1.16565C28.3634 1.16565 30.0899 1.8825 31.521 3.31498C31.708 3.50289 31.8773 3.69079 32.043 3.88785C32.205 3.69079 32.3779 3.50289 32.5612 3.31498C33.9936 1.8825 35.7183 1.16565 37.7384 1.16565C39.7535 1.16565 41.4801 1.8825 42.9149 3.31498C44.3436 4.75173 45.0604 6.47888 45.0604 8.5007V23.9877C45.0604 24.5283 44.7882 24.8016 44.2431 24.8016H42.6177C42.0763 24.8016 41.8065 24.5283 41.8065 23.9877V8.5007C41.8065 7.37022 41.41 6.40811 40.6177 5.615C39.826 4.8225 38.8644 4.42533 37.7384 4.42533C36.6074 4.42533 35.6483 4.8225 34.8578 5.615C34.0642 6.40811 33.6702 7.37022 33.6702 8.5007V23.9877C33.6702 24.5283 33.4004 24.8016 32.8566 24.8016H31.2257C30.6861 24.8016 30.4157 24.5283 30.4157 23.9877V8.5007C30.4157 7.37022 30.0198 6.40811 29.2257 5.615C28.4352 4.8225 27.4742 4.42533 26.3445 4.42533C25.2172 4.42533 24.2562 4.8225 23.4676 5.615C22.6759 6.40811 22.28 7.37022 22.28 8.5007Z" fill="#E4113B"/>
<path fill-rule="evenodd" clip-rule="evenodd" d="M119.097 5.69553C117.764 4.84934 116.26 4.42533 114.589 4.42533C112.227 4.42533 110.21 5.26237 108.545 6.93644C106.879 8.60869 106.046 10.6238 106.046 12.9818C106.046 15.3532 106.879 17.3707 108.545 19.0387C110.21 20.7067 112.227 21.5413 114.589 21.5413C116.26 21.5413 117.764 21.1173 119.097 20.2692L120.987 22.9433C119.12 24.1811 116.987 24.801 114.589 24.801C111.337 24.801 108.555 23.6479 106.252 21.3387C103.945 19.0283 102.792 16.2433 102.792 12.9818C102.792 9.72453 103.945 6.93828 106.252 4.6291C108.555 2.31993 111.337 1.16504 114.589 1.16504C116.987 1.16504 119.12 1.78367 120.987 3.02275L119.097 5.69553Z" fill="#E4113B"/>
<path fill-rule="evenodd" clip-rule="evenodd" d="M150.974 16.1292L151.039 10.88C151.039 10.88 151.439 12.2985 152.63 13.4717C153.669 14.4991 154.909 15.0225 156.374 15.0225C157.836 15.0225 159.084 14.5058 160.114 13.4717C161.148 12.44 161.662 11.1912 161.662 9.72453C161.662 8.25606 161.148 7.00538 160.114 5.97373C159.084 4.94147 157.836 4.42533 156.374 4.42533C154.909 4.42533 153.659 4.94147 152.63 5.97373C151.599 7.00538 151.084 8.25606 151.084 9.72453V23.9877C151.084 24.5289 150.812 24.8016 150.272 24.8016H148.643C148.101 24.8016 147.828 24.5289 147.828 23.9877V9.72453C147.828 7.36656 148.663 5.35022 150.326 3.67615C151.993 2.00208 154.005 1.16565 156.374 1.16565C158.726 1.16565 160.737 2.00208 162.409 3.67615C164.08 5.35022 164.917 7.36656 164.917 9.72453C164.917 12.0935 164.08 14.108 162.409 15.7723C161.206 16.9766 159.828 17.7472 158.276 18.0858L165.729 24.8016H161.662L154.109 18.0028C151.77 17.2756 150.974 16.1292 150.974 16.1292Z" fill="#E4113B"/>
<path fill-rule="evenodd" clip-rule="evenodd" d="M67.8031 16.1292L67.8695 10.88C67.8695 10.88 68.2696 12.2985 69.4608 13.4717C70.4973 14.4991 71.7379 15.0225 73.2007 15.0225C74.6666 15.0225 75.9132 14.5058 76.9412 13.4717C77.9747 12.44 78.4929 11.1912 78.4929 9.72453C78.4929 8.25606 77.9747 7.00538 76.9412 5.97373C75.9132 4.94147 74.6666 4.42533 73.2007 4.42533C71.7379 4.42533 70.49 4.94147 69.4608 5.97373C68.4273 7.00538 67.9127 8.25606 67.9127 9.72453V23.9877C67.9127 24.5289 67.6423 24.8016 67.1009 24.8016H65.4718C64.928 24.8016 64.6582 24.5289 64.6582 23.9877V9.72453C64.6582 7.36656 65.4919 5.35022 67.1551 3.67615C68.8201 2.00208 70.8353 1.16565 73.2007 1.16565C75.5551 1.16565 77.566 2.00208 79.2377 3.67615C80.9088 5.35022 81.7438 7.36656 81.7438 9.72453C81.7438 12.0935 80.9088 14.108 79.2377 15.7723C78.0344 16.9766 76.6568 17.7472 75.105 18.0858L82.5574 24.8016H78.4929L70.9382 18.0028C68.6003 17.2756 67.8031 16.1292 67.8031 16.1292Z" fill="#E4113B"/>
<mask id="mask0_9_48" style="mask-type:alpha" maskUnits="userSpaceOnUse" x="167" y="1" width="16" height="24">
<path d="M167.357 1.55615H182V24.8016H167.357V1.55615Z" fill="white"/>
</mask>
<g mask="url(#mask0_9_48)">
<path fill-rule="evenodd" clip-rule="evenodd" d="M168.171 1.55615H181.188C181.732 1.55615 182 1.82825 182 2.37245V4.00137C182 4.54435 181.732 4.81828 181.188 4.81828H170.612V11.506H181.188C181.732 11.506 182 11.7763 182 12.3199V13.9488C182 14.4936 181.732 14.7639 181.188 14.7639H170.612V21.5413H181.188C181.732 21.5413 182 21.8146 182 22.3552V23.9878C182 24.5283 181.732 24.8016 181.188 24.8016H168.171C167.629 24.8016 167.357 24.5283 167.357 23.4478V2.22237C167.357 2.21992 167.357 1.55615 168.171 1.55615Z" fill="#E4113B"/>
</g>
<path fill-rule="evenodd" clip-rule="evenodd" d="M56.2921 14.1492C56.2921 15.0302 56.3567 15.7415 55.9066 15.7415H48.6351C48.1851 15.7415 48.2521 15.0302 48.2521 14.1492C48.2521 13.2707 48.1851 12.5563 48.6351 12.5563H55.9066C56.3567 12.5563 56.2921 13.2707 56.2921 14.1492Z" fill="#E4113B"/>
<path fill-rule="evenodd" clip-rule="evenodd" d="M62.3706 8.30889C62.2787 4.35066 59.0534 1.16541 55.0766 1.16541C51.0432 1.16541 47.7747 4.43973 47.7747 8.48094C47.7747 8.53279 47.7783 8.58404 47.7783 8.63285C47.7783 8.63529 47.7747 8.63529 47.7747 8.63529V23.9856C47.7747 24.5286 48.0451 24.8013 48.5858 24.8013H50.2155C50.7569 24.8013 51.0292 24.5286 51.0292 23.9856V8.82686C51.0194 9.04283 51.0328 8.50717 51.0328 8.50717C51.0328 7.37729 51.3708 6.37309 52.1625 5.57876C52.9512 4.78504 53.9122 4.38971 55.0431 4.38971C56.1692 4.38971 57.1308 4.78504 57.9225 5.57876C58.7148 6.37309 59.1094 7.33337 59.1094 8.46385V14.5775V23.9509C59.1094 24.4914 59.381 24.7659 59.9212 24.7659H61.5515C62.0917 24.7659 62.3652 24.4914 62.3652 23.9509V8.7933C62.367 8.68776 62.3798 8.58648 62.3798 8.48094C62.3798 8.42298 62.3725 8.36746 62.3706 8.30889Z" fill="#E4113B"/>
<path fill-rule="evenodd" clip-rule="evenodd" d="M82.2407 2.75736C82.2407 3.63955 82.1147 4.3503 83.0075 4.3503H88.9008C88.8917 4.45157 88.8783 4.55101 88.8783 4.65473V23.8016C88.8783 25.0481 89.5969 24.7778 90.4805 24.7778C91.363 24.7778 92.081 25.0481 92.081 23.8016V4.65473C92.081 4.55101 92.07 4.45157 92.0591 4.3503H97.5438C98.4366 4.3503 98.3105 3.63955 98.3105 2.75736C98.3105 1.87945 98.4366 1.16565 97.5438 1.16565H83.0075C82.1147 1.16565 82.2407 1.87945 82.2407 2.75736Z" fill="#E4113B"/>
<path fill-rule="evenodd" clip-rule="evenodd" d="M15.069 14.648C14.1317 13.6152 12.3565 12.5384 9.74506 11.4213C7.59893 10.5123 6.19213 9.71916 5.52223 9.04257C4.85293 8.38124 4.51798 7.68513 4.51798 6.95547C4.51798 6.12697 4.9248 5.40341 5.73843 4.78174C6.5484 4.1625 7.52524 3.85258 8.66469 3.85258C10.4466 3.85258 12.27 4.59688 14.1335 6.07939C14.1408 6.08305 14.1408 6.08915 14.1475 6.09525C14.153 6.09952 14.1622 6.10074 14.1689 6.10684H14.1707C14.4179 6.28194 14.7773 6.2496 14.9934 6.02326L16.2066 4.7494C16.34 4.60664 16.3759 4.42789 16.3363 4.25889C16.3113 4.1564 16.2608 4.06001 16.1713 3.98679C16.1676 3.9813 16.1676 3.98008 16.164 3.97703C16.1603 3.97398 16.1542 3.97398 16.1524 3.97032C13.6993 2.08638 11.2639 1.14197 8.84312 1.14197C6.68299 1.14197 4.89617 1.70935 3.48146 2.83922C2.06796 3.96971 1.3603 5.3906 1.3603 7.09945C1.3603 8.40869 1.80366 9.57457 2.69097 10.5934C3.57829 11.6129 5.25609 12.6494 7.71647 13.6969C10.0094 14.6608 11.4838 15.4613 12.1372 16.0945C12.7907 16.7431 13.1183 17.4807 13.1183 18.3073C13.1183 19.314 12.6226 20.1913 11.6348 20.9362C10.6464 21.6793 9.44847 22.0502 8.04046 22.0502C6.05876 22.0502 4.17938 21.2339 2.40474 19.6105C2.40109 19.6038 2.40109 19.5989 2.39743 19.5946C2.39073 19.5885 2.38282 19.5885 2.37734 19.5824C2.36333 19.5714 2.35054 19.5611 2.33653 19.5488L2.33105 19.5543C2.09659 19.4 1.75859 19.4207 1.53326 19.6275L0.186752 20.8624C-0.0452779 21.0765 -0.059894 21.4029 0.136205 21.614L0.129506 21.6164C0.139859 21.6237 0.147167 21.6317 0.154475 21.6378C0.158129 21.6408 0.158129 21.6451 0.161783 21.6488C0.165437 21.6512 0.169091 21.6512 0.170918 21.6518C1.10148 22.6279 2.27137 23.396 3.68487 23.9531C5.11541 24.5192 6.61843 24.8017 8.19149 24.8017C10.5514 24.8017 12.5172 24.1605 14.0903 22.8793C15.6634 21.5963 16.452 20.0326 16.452 18.1841C16.452 16.8736 15.991 15.6949 15.069 14.648Z" fill="#E4113B"/>
<path fill-rule="evenodd" clip-rule="evenodd" d="M142.399 18.1535C143.244 16.6271 143.724 14.8682 143.724 12.9989C143.724 7.11278 138.96 2.34009 133.083 2.34009V5.19529C137.387 5.19529 140.875 8.68985 140.875 12.9989C140.875 14.2904 140.561 15.5088 140.008 16.5813L142.399 18.1535Z" fill="#E4113B"/>
<path fill-rule="evenodd" clip-rule="evenodd" d="M133.084 4.45825C129.83 4.45825 127.031 6.30925 125.598 8.99607L127.205 9.67692C128.37 7.61483 130.552 6.20676 133.084 6.20676C136.828 6.20676 139.864 9.24864 139.864 13.0013C139.864 16.7515 136.828 19.7927 133.084 19.7927C133.009 19.7927 132.937 19.7738 132.861 19.7696V21.5175C132.937 21.5193 133.009 21.5412 133.084 21.5412C137.796 21.5412 141.609 17.7154 141.609 13.0013C141.609 8.28349 137.796 4.45825 133.084 4.45825Z" fill="#CCCBCB"/>
<path fill-rule="evenodd" clip-rule="evenodd" d="M132.861 19.7693C129.223 19.6498 126.305 16.6738 126.305 13.0011C126.305 11.7845 126.649 10.662 127.205 9.67671L125.598 8.99646C124.957 10.1965 124.559 11.5454 124.559 13.0011C124.559 17.6401 128.26 21.3983 132.861 21.5172V19.7693Z" fill="#E4113B"/>
<path fill-rule="evenodd" clip-rule="evenodd" d="M133.082 26.0001C137.901 26.0001 142.1 23.3609 144.337 19.4533L142.042 17.9141C140.298 21.0963 136.962 23.2785 133.082 23.2785C129.204 23.2785 125.87 21.0963 124.127 17.9141L121.83 19.4533C124.067 23.3609 128.263 26.0001 133.082 26.0001Z" fill="#E4113B"/>
<mask id="mask1_9_48" style="mask-type:alpha" maskUnits="userSpaceOnUse" x="120" y="0" width="27" height="20">
<path d="M120.108 0H146.06V19.4528H120.108V0Z" fill="white"/>
</mask>
<g mask="url(#mask1_9_48)">
<path fill-rule="evenodd" clip-rule="evenodd" d="M122.826 13.001C122.826 7.32298 127.417 2.72415 133.082 2.72415C138.751 2.72415 143.342 7.32298 143.342 13.001C143.342 14.791 142.845 16.4474 142.042 17.9141L144.337 19.4527C145.427 17.5498 146.06 15.3523 146.06 13.001C146.06 5.81973 140.248 -0.000488281 133.082 -0.000488281C125.916 -0.000488281 120.108 5.81973 120.108 13.001C120.108 15.3523 120.741 17.5498 121.83 19.4527L124.128 17.9141C123.323 16.4474 122.826 14.791 122.826 13.001Z" fill="#CCCBCB"/>
</g>
</svg>
