<svg width="168" height="57" viewBox="0 0 168 57" fill="none" xmlns="http://www.w3.org/2000/svg">
<path fill-rule="evenodd" clip-rule="evenodd" d="M8.99543 11.4219C11.406 12.539 13.0446 13.6158 13.9098 14.6486C14.7609 15.6955 15.1865 16.8742 15.1865 18.1847C15.1865 20.0333 14.4585 21.5969 13.0064 22.8799C11.5544 24.1611 9.73972 24.8023 7.56137 24.8023C6.10932 24.8023 4.72192 24.5198 3.40141 23.9537C2.09665 23.3967 1.01674 22.6286 0.15777 21.6524C0.157297 21.6523 0.15669 21.6521 0.155988 21.652C0.15419 21.6516 0.151764 21.6511 0.149338 21.6494C0.147712 21.6476 0.14687 21.6457 0.146056 21.6439C0.145181 21.6419 0.144339 21.64 0.142592 21.6384C0.140241 21.6363 0.137889 21.6339 0.135419 21.6314C0.130802 21.6268 0.125769 21.6218 0.119544 21.617L0.125728 21.6146C-0.0552867 21.4035 -0.0417949 21.0771 0.172386 20.863L1.41531 19.6282C1.62331 19.4213 1.93531 19.4006 2.15174 19.5549L2.1568 19.5495C2.16973 19.5617 2.18153 19.572 2.19446 19.583C2.19709 19.5862 2.20032 19.5877 2.20369 19.5893C2.20681 19.5908 2.21004 19.5923 2.21301 19.5952C2.21491 19.5976 2.21574 19.6002 2.2167 19.6032C2.21745 19.6055 2.21828 19.6081 2.21976 19.6111C3.85788 21.2345 5.5927 22.0508 7.42195 22.0508C8.72166 22.0508 9.82742 21.6799 10.7398 20.9368C11.6516 20.1919 12.1092 19.3146 12.1092 18.3079C12.1092 17.4813 11.8068 16.7437 11.2036 16.0952C10.6004 15.4619 9.2394 14.6615 7.12288 13.6975C4.85177 12.65 3.30303 11.6135 2.48397 10.594C1.66491 9.57518 1.25566 8.4093 1.25566 7.10006C1.25566 5.39121 1.90889 3.97032 3.21365 2.83984C4.51954 1.70996 6.1689 1.14258 8.16287 1.14258C10.3974 1.14258 12.6455 2.08699 14.9099 3.97093C14.9108 3.97302 14.9131 3.97392 14.9154 3.97487C14.9172 3.97558 14.9191 3.97633 14.9206 3.97764C14.9229 3.9798 14.9236 3.98104 14.925 3.98353C14.9256 3.98456 14.9263 3.9858 14.9273 3.98741C15.0099 4.06062 15.0566 4.15701 15.0796 4.2595C15.1162 4.4285 15.083 4.60725 14.9599 4.75001L13.8401 6.02387C13.6405 6.25021 13.3088 6.28255 13.0806 6.10745H13.0789C13.0754 6.10401 13.0712 6.10213 13.0673 6.10037C13.0643 6.09901 13.0615 6.09772 13.0593 6.09586C13.0566 6.09323 13.0551 6.0906 13.0537 6.08816C13.0518 6.08495 13.0502 6.08208 13.0463 6.08C11.3261 4.59749 9.64303 3.85319 7.99816 3.85319C6.94637 3.85319 6.04467 4.16311 5.297 4.78235C4.54596 5.40402 4.17044 6.12758 4.17044 6.95608C4.17044 7.68574 4.47963 8.38185 5.09744 9.04318C5.71581 9.71977 7.01439 10.5129 8.99543 11.4219ZM109.935 5.69602C108.705 4.84983 107.317 4.42582 105.775 4.42582C103.594 4.42582 101.732 5.26286 100.195 6.93693C98.6572 8.60918 97.8888 10.6243 97.8888 12.9823C97.8888 15.3537 98.6572 17.3712 100.195 19.0392C101.732 20.7072 103.594 21.5418 105.775 21.5418C107.317 21.5418 108.705 21.1178 109.935 20.2697L111.68 22.9437C109.957 24.1816 107.988 24.8014 105.775 24.8014C102.772 24.8014 100.205 23.6484 98.0788 21.3392C95.9488 19.0288 94.8852 16.2438 94.8852 12.9823C94.8852 9.72502 95.9488 6.93876 98.0788 4.62959C100.205 2.32042 102.772 1.16553 105.775 1.16553C107.988 1.16553 109.957 1.78415 111.68 3.02324L109.935 5.69602ZM20.5662 8.50107V23.9881C20.5662 24.5286 20.3138 24.8019 19.8151 24.8019H18.3097C17.8116 24.8019 17.5603 24.5286 17.5603 23.9881V8.50107C17.5603 6.47925 18.2231 4.7521 19.5442 3.31535C20.8647 1.88287 22.4567 1.16602 24.318 1.16602C26.1816 1.16602 27.7753 1.88287 29.0963 3.31535C29.2689 3.50325 29.4252 3.69116 29.5781 3.88822C29.7276 3.69116 29.8873 3.50325 30.0565 3.31535C31.3787 1.88287 32.9707 1.16602 34.8354 1.16602C36.6956 1.16602 38.2893 1.88287 39.6137 3.31535C40.9325 4.7521 41.5942 6.47925 41.5942 8.50107V23.9881C41.5942 24.5286 41.3429 24.8019 40.8398 24.8019H39.3394C38.8396 24.8019 38.5906 24.5286 38.5906 23.9881V8.50107C38.5906 7.37058 38.2246 6.40848 37.4933 5.61537C36.7625 4.82287 35.8748 4.4257 34.8354 4.4257C33.7915 4.4257 32.9061 4.82287 32.1764 5.61537C31.4439 6.40848 31.0802 7.37058 31.0802 8.50107V23.9881C31.0802 24.5286 30.8312 24.8019 30.3291 24.8019H28.8237C28.3256 24.8019 28.076 24.5286 28.076 23.9881V8.50107C28.076 7.37058 27.7106 6.40848 26.9776 5.61537C26.2479 4.82287 25.3608 4.4257 24.318 4.4257C23.2775 4.4257 22.3904 4.82287 21.6624 5.61537C20.9316 6.40848 20.5662 7.37058 20.5662 8.50107ZM139.42 10.8804L139.361 16.1296C139.361 16.1296 139.392 16.179 139.462 16.2639V23.9881C139.462 24.5292 139.211 24.8019 138.713 24.8019H137.209C136.709 24.8019 136.456 24.5292 136.456 23.9881V9.7249C136.456 7.36692 137.227 5.35059 138.763 3.67652C140.301 2.00244 142.159 1.16602 144.345 1.16602C146.516 1.16602 148.373 2.00244 149.916 3.67652C151.458 5.35059 152.231 7.36692 152.231 9.7249C152.231 12.0939 151.458 14.1084 149.916 15.7727C148.805 16.977 147.533 17.7475 146.101 18.0861L152.98 24.8019H149.227L142.255 18.0031C140.543 17.427 139.727 16.5877 139.462 16.2639V11.0199C139.585 11.4053 139.996 12.5195 140.889 13.472C141.848 14.4994 142.993 15.0229 144.345 15.0229C145.695 15.0229 146.847 14.5061 147.798 13.472C148.752 12.4404 149.227 11.1915 149.227 9.7249C149.227 8.25643 148.752 7.00575 147.798 5.9741C146.847 4.94183 145.695 4.4257 144.345 4.4257C142.993 4.4257 141.839 4.94183 140.889 5.9741C139.937 7.00575 139.462 8.25643 139.462 9.7249V11.0199C139.433 10.9306 139.42 10.8804 139.42 10.8804ZM62.5873 16.1296L62.6486 10.8804C62.6486 10.8804 62.6612 10.9286 62.6885 11.0146V16.2637C62.619 16.1789 62.5873 16.1296 62.5873 16.1296ZM62.6885 23.9881V16.2637C62.954 16.5873 63.771 17.4268 65.4813 18.0031L72.4549 24.8019H76.2067L69.3276 18.0861C70.76 17.7475 72.0316 16.977 73.1424 15.7727C74.6849 14.1084 75.4557 12.0939 75.4557 9.7249C75.4557 7.36692 74.6849 5.35059 73.1424 3.67652C71.5993 2.00244 69.743 1.16602 67.5697 1.16602C65.3863 1.16602 63.5261 2.00244 61.9892 3.67652C60.454 5.35059 59.6844 7.36692 59.6844 9.7249V23.9881C59.6844 24.5292 59.9334 24.8019 60.4354 24.8019H61.9392C62.4389 24.8019 62.6885 24.5292 62.6885 23.9881ZM64.1175 13.472C63.2206 12.5151 62.8096 11.395 62.6885 11.0146V9.7249C62.6885 8.25643 63.1635 7.00575 64.1175 5.9741C65.0676 4.94183 66.2194 4.4257 67.5697 4.4257C68.9228 4.4257 70.0736 4.94183 71.0225 5.9741C71.9765 7.00575 72.4549 8.25643 72.4549 9.7249C72.4549 11.1915 71.9765 12.4404 71.0225 13.472C70.0736 14.5061 68.9228 15.0229 67.5697 15.0229C66.2194 15.0229 65.0743 14.4994 64.1175 13.472ZM167.251 1.55664H155.235C154.484 1.55664 154.484 2.22041 154.484 2.22285V23.4483C154.484 24.5288 154.734 24.8021 155.235 24.8021H167.251C167.753 24.8021 168 24.5288 168 23.9882V22.3557C168 21.8151 167.753 21.5418 167.251 21.5418H157.488V14.7644H167.251C167.753 14.7644 168 14.4941 168 13.9493V12.3204C168 11.7768 167.753 11.5065 167.251 11.5065H157.488V4.81877H167.251C167.753 4.81877 168 4.54484 168 4.00186V2.37293C168 1.82874 167.753 1.55664 167.251 1.55664ZM51.9619 14.1496C51.9619 14.2508 51.9627 14.3498 51.9635 14.4457C51.9693 15.1846 51.9738 15.7419 51.6061 15.7419H47.1039V23.9863C47.1039 24.5292 46.8526 24.8019 46.3528 24.8019H44.8485C44.3493 24.8019 44.0997 24.5292 44.0997 23.9863V8.6359C44.0997 8.6359 44.1007 8.6359 44.1016 8.63551C44.1024 8.63518 44.1031 8.63457 44.1031 8.63346C44.1031 8.60943 44.1023 8.5848 44.1014 8.5598L44.1014 8.55961C44.1006 8.53391 44.0997 8.50781 44.0997 8.48155C44.0997 4.44034 47.1168 1.16602 50.84 1.16602C54.5108 1.16602 57.488 4.35127 57.5729 8.3095C57.5736 8.33483 57.5753 8.35959 57.577 8.38422C57.5792 8.41654 57.5813 8.44865 57.5813 8.48155C57.5813 8.53828 57.5779 8.59379 57.5745 8.64938L57.5745 8.6496C57.5716 8.69736 57.5686 8.74518 57.5678 8.79391V23.9515C57.5678 24.492 57.3154 24.7666 56.8168 24.7666H55.3119C54.8133 24.7666 54.5626 24.492 54.5626 23.9515V14.5781V8.46447C54.5626 7.33398 54.1983 6.3737 53.4669 5.57937C52.7361 4.78565 51.8485 4.39032 50.809 4.39032C49.7651 4.39032 48.878 4.78565 48.15 5.57937C47.4192 6.3737 47.1072 7.3779 47.1072 8.50778C47.1072 8.50778 47.0949 9.04344 47.1039 8.82747V12.5566H51.6061C51.9738 12.5566 51.9693 13.1164 51.9635 13.8542C51.9627 13.9499 51.9619 14.0487 51.9619 14.1496ZM75.9145 2.75773C75.9145 2.85784 75.913 2.95574 75.9115 3.05065C75.9002 3.79207 75.8916 4.35066 76.6222 4.35066H82.0622C82.0612 4.3621 82.0602 4.37351 82.0592 4.3849C82.058 4.39808 82.0568 4.41123 82.0556 4.42438V4.42448C82.0485 4.50067 82.0414 4.57666 82.0414 4.65509V23.802C82.0414 24.8511 82.5113 24.8257 83.1465 24.7914C83.266 24.7849 83.3913 24.7782 83.5204 24.7782C83.6494 24.7782 83.7745 24.7849 83.8938 24.7914C84.5282 24.8257 84.9978 24.8511 84.9978 23.802V4.65509C84.9978 4.55321 84.988 4.45545 84.9781 4.35603L84.9781 4.35584L84.9775 4.35066H90.0403C90.7709 4.35066 90.7624 3.79207 90.751 3.05064C90.7496 2.95574 90.7481 2.85784 90.7481 2.75773C90.7481 2.65825 90.7496 2.56087 90.751 2.4664V2.4662C90.7624 1.72711 90.771 1.16602 90.0403 1.16602H76.6222C75.8915 1.16602 75.9002 1.7271 75.9115 2.46619V2.4664C75.913 2.56087 75.9145 2.65825 75.9145 2.75773Z" fill="#E4113B"/>
<path fill-rule="evenodd" clip-rule="evenodd" d="M131.445 18.1533C132.225 16.6268 132.668 14.8679 132.668 12.9986C132.668 7.11254 128.271 2.33984 122.846 2.33984V5.19504C126.819 5.19504 130.038 8.68961 130.038 12.9986C130.038 14.2902 129.749 15.5085 129.238 16.5811L131.445 18.1533Z" fill="#E4113B"/>
<path fill-rule="evenodd" clip-rule="evenodd" d="M122.846 4.45898C119.843 4.45898 117.259 6.30998 115.936 8.9968L117.42 9.67765C118.496 7.61557 120.509 6.20749 122.846 6.20749C126.303 6.20749 129.105 9.24937 129.105 13.002C129.105 16.7522 126.303 19.7935 122.846 19.7935C122.777 19.7935 122.711 19.7746 122.64 19.7703V21.5182C122.711 21.52 122.777 21.542 122.846 21.542C127.196 21.542 130.716 17.7161 130.716 13.002C130.716 8.28422 127.196 4.45898 122.846 4.45898Z" fill="#CCCBCB"/>
<path fill-rule="evenodd" clip-rule="evenodd" d="M122.64 19.769C119.283 19.6494 116.589 16.6734 116.589 13.0007C116.589 11.7842 116.906 10.6616 117.42 9.67634L115.936 8.99609C115.345 10.1961 114.977 11.545 114.977 13.0007C114.977 17.6398 118.393 21.3979 122.64 21.5169V19.769Z" fill="#E4113B"/>
<path fill-rule="evenodd" clip-rule="evenodd" d="M122.845 26.0001C127.293 26.0001 131.169 23.3609 133.234 19.4533L131.116 17.9141C129.506 21.0963 126.426 23.2785 122.845 23.2785C119.265 23.2785 116.188 21.0963 114.579 17.9141L112.459 19.4533C114.523 23.3609 118.396 26.0001 122.845 26.0001Z" fill="#E4113B"/>
<path fill-rule="evenodd" clip-rule="evenodd" d="M113.377 13.0015C113.377 7.32347 117.615 2.72464 122.845 2.72464C128.078 2.72464 132.316 7.32347 132.316 13.0015C132.316 14.7915 131.857 16.4479 131.116 17.9145L133.234 19.4532C134.24 17.5503 134.824 15.3528 134.824 13.0015C134.824 5.82021 129.459 0 122.845 0C116.23 0 110.869 5.82021 110.869 13.0015C110.869 15.3528 111.453 17.5503 112.459 19.4532L114.579 17.9145C113.837 16.4479 113.377 14.7915 113.377 13.0015Z" fill="#CCCBCB"/>
<path d="M1.81738 46.1484C1.83496 42.8438 2.7666 40.084 4.41895 37.7285H6.1416C4.92871 39.4688 3.76855 43.0195 3.76855 46.1484C3.76855 49.2949 4.92871 52.8281 6.1416 54.5859H4.41895C2.7666 52.2305 1.83496 49.4707 1.81738 46.1484ZM21.6631 45.6211V46.9746H15.2646V52.4766H13.6299V46.9746H7.30176V45.6211H21.6631ZM20.3096 37.6758V39.0117H15.4404C15.4668 40.9629 17.8926 42.7031 20.8721 43.1074L20.2568 44.4258C17.6729 44.0215 15.4404 42.7471 14.4912 40.9453C13.5156 42.7471 11.292 44.0215 8.74316 44.4258L8.11035 43.1074C11.0547 42.7031 13.4805 40.9629 13.542 39.0117H8.6377V37.6758H20.3096ZM27.1826 46.1484C27.165 49.4707 26.2334 52.2305 24.5811 54.5859H22.8584C24.0713 52.8281 25.2314 49.2949 25.2314 46.1484C25.2314 43.0195 24.0713 39.4688 22.8584 37.7285H24.5811C26.2334 40.084 27.165 42.8438 27.1826 46.1484Z" fill="white"/>
<path d="M47.9865 38.9766C47.9865 41.543 50.7287 43.9688 53.7522 44.5137L52.9787 45.9023C50.465 45.3574 48.1447 43.7051 47.1252 41.4902C46.0881 43.6875 43.7766 45.3398 41.2541 45.9023L40.5158 44.5137C43.5041 43.9512 46.2287 41.543 46.2287 38.9766V37.7812H47.9865V38.9766ZM54.4025 49.0312V50.4199H39.9885V49.0312H54.4025ZM76.108 38.3086V48.5391H68.7428V38.3086H76.108ZM70.3775 39.627V47.1855H74.4557V39.627H70.3775ZM80.4147 36.7441V42.9141H82.9459V44.3203H80.4147V52.4941H78.7447V36.7441H80.4147ZM109.081 45.1289V46.4648H98.1123V38.0449H108.923V39.3984H99.7998V41.5254H108.589V42.8438H99.7998V45.1289H109.081ZM110.716 49.1367V50.5078H96.3018V49.1367H110.716ZM137.167 38.2031V39.6797C137.15 41.5957 137.167 43.7754 136.499 47.0449L134.865 46.8691C135.155 45.5244 135.322 44.3379 135.41 43.2656L125.935 43.8281L125.689 42.3867L135.497 42C135.533 41.1562 135.533 40.3916 135.533 39.6797V39.5742H126.163V38.2031H137.167ZM138.82 49.0664V50.4551H124.458V49.0664H129.925V45.0762H131.578V49.0664H138.82ZM156.887 37.9219C159.022 37.9219 160.587 39.7324 160.842 42.6504H164.094V36.7441H165.746V52.5293H164.094V44.0039H160.859C160.675 47.0713 159.075 48.9785 156.887 48.9785C154.531 48.9785 152.879 46.834 152.896 43.4414C152.879 40.0664 154.531 37.9219 156.887 37.9219ZM156.887 39.416C155.463 39.416 154.478 40.9629 154.478 43.4414C154.478 45.9375 155.463 47.4844 156.887 47.4844C158.31 47.4844 159.295 45.9375 159.295 43.4414C159.295 40.9629 158.31 39.416 156.887 39.416Z" fill="white"/>
</svg>
