<svg width="252" height="37" viewBox="0 0 252 37" fill="none" xmlns="http://www.w3.org/2000/svg">
<path d="M135.061 2.11523C136.297 2.11524 136.123 3.10378 136.123 4.31934C136.123 5.5407 136.297 6.52441 135.061 6.52441H127.467C127.482 6.66464 127.498 6.80269 127.498 6.94629V33.457C127.498 35.1828 126.503 34.8086 125.281 34.8086C124.057 34.8087 123.063 35.1826 123.063 33.457V6.94629C123.063 6.80269 123.082 6.66464 123.094 6.52441H114.934C113.698 6.52441 113.872 5.5407 113.873 4.31934C113.873 3.10377 113.698 2.11523 114.934 2.11523H135.061ZM12.2446 2.08203C15.5964 2.08203 18.9691 3.38953 22.3657 5.99805C22.3682 6.00305 22.3763 6.00361 22.3813 6.00781C22.3861 6.01183 22.3864 6.01341 22.3911 6.02051C22.5149 6.12179 22.585 6.25567 22.6196 6.39746C22.6744 6.63145 22.6246 6.87948 22.4399 7.07715L20.7602 8.84082C20.4608 9.15399 19.9638 9.19843 19.6215 8.95605H19.6186C19.6094 8.94785 19.5968 8.94626 19.5893 8.94043C19.58 8.93198 19.5799 8.92304 19.5698 8.91797C16.9896 6.86544 14.4647 5.83496 11.9975 5.83496C10.4199 5.83499 9.06722 6.2647 7.94576 7.12207C6.8194 7.98279 6.2563 8.9848 6.2563 10.1318C6.25643 11.142 6.72034 12.1059 7.64693 13.0215C8.57459 13.9582 10.5224 15.056 13.4936 16.3145C17.109 17.861 19.5669 19.3522 20.8647 20.7822C22.1414 22.2318 22.7797 23.8642 22.7797 25.6787C22.7797 28.2382 21.6882 30.4033 19.5102 32.1797C17.3321 33.9536 14.6098 34.8418 11.3422 34.8418C9.16435 34.8418 7.08359 34.4498 5.10298 33.666C3.14586 32.8948 1.52523 31.832 0.236772 30.4805C0.234186 30.4797 0.229015 30.4789 0.224076 30.4756C0.219366 30.4706 0.219129 30.4651 0.214311 30.4609C0.204206 30.4525 0.194436 30.4408 0.180131 30.4307L0.18892 30.4277C-0.0825711 30.1355 -0.0620282 29.6832 0.259233 29.3867L2.12349 27.6777C2.43549 27.3914 2.90334 27.3625 3.22798 27.5762L3.2358 27.5684C3.25514 27.5852 3.27308 27.6001 3.29244 27.6152C3.30001 27.6233 3.31066 27.6235 3.31978 27.6318C3.32481 27.6377 3.32549 27.6441 3.33052 27.6533C5.78764 29.901 8.38945 31.0312 11.1333 31.0312C13.0827 31.0312 14.7413 30.518 16.1098 29.4893C17.4774 28.4579 18.1644 27.2433 18.1645 25.8496C18.1645 24.705 17.7109 23.6831 16.8061 22.7852C15.9013 21.9084 13.8596 20.8004 10.685 19.4658C7.27839 18.0154 4.95463 16.5805 3.72603 15.1689C2.4975 13.7583 1.88429 12.1437 1.88423 10.3311C1.88423 7.96497 2.86361 5.99692 4.82076 4.43164C6.77954 2.86729 9.25376 2.08206 12.2446 2.08203ZM52.2534 2.11523C55.0434 2.11533 57.4338 3.10766 59.4204 5.09082C61.3986 7.08015 62.3911 9.47206 62.3911 12.2715V33.7148C62.391 34.4632 62.0139 34.8418 61.2592 34.8418H59.0092C58.2596 34.8418 57.8862 34.4632 57.8862 33.7148V12.2715C57.8862 10.7062 57.3368 9.37354 56.2397 8.27539C55.1436 7.17836 53.8122 6.629 52.2534 6.62891C50.6875 6.62891 49.3586 7.17811 48.2641 8.27539C47.1654 9.37354 46.6206 10.7062 46.6206 12.2715V33.7148C46.6205 34.4632 46.2466 34.8418 45.4936 34.8418H43.2358C42.4887 34.8418 42.1137 34.4632 42.1137 33.7148V12.2715C42.1137 10.7062 41.5658 9.37354 40.4663 8.27539C39.3718 7.17826 38.0411 6.62893 36.477 6.62891C34.9163 6.62891 33.5855 7.17828 32.4936 8.27539C31.3974 9.37354 30.8491 10.7062 30.8491 12.2715V33.7148C30.8491 34.4632 30.4701 34.8418 29.7221 34.8418H27.4643C26.7173 34.8418 26.3403 34.4632 26.3403 33.7148V12.2715C26.3403 9.47206 27.3343 7.08015 29.3159 5.09082C31.2966 3.10743 33.6851 2.11523 36.477 2.11523C39.2721 2.11526 41.6625 3.10769 43.644 5.09082C43.9029 5.351 44.1373 5.61192 44.3667 5.88477C44.591 5.61192 44.8306 5.351 45.0844 5.09082C47.0677 3.10746 49.4564 2.11523 52.2534 2.11523ZM76.2612 2.11523C81.7674 2.11523 86.2333 6.52539 86.3608 12.0059C86.3633 12.0869 86.3735 12.164 86.3735 12.2441C86.3735 12.3903 86.3555 12.5306 86.353 12.6768V33.6641C86.353 34.4125 85.974 34.793 85.226 34.793H82.9692C82.2212 34.793 81.8452 34.4125 81.8452 33.6641V12.2207C81.8452 10.6554 81.2987 9.32542 80.2016 8.22559C79.1056 7.12684 77.7741 6.57921 76.2153 6.5791C74.6494 6.5791 73.318 7.12662 72.226 8.22559C71.1299 9.32533 70.6626 10.716 70.6626 12.2803C70.6626 12.2803 70.6432 13.0217 70.6567 12.7236V17.8867H77.4086C78.0317 17.8867 77.9428 18.8755 77.9428 20.0918C77.9428 21.3116 78.0318 22.2969 77.4086 22.2969H70.6567V33.7119C70.6567 34.4637 70.2802 34.8417 69.5307 34.8418H67.2739C66.5252 34.8418 66.1508 34.4637 66.1508 33.7119V12.458C66.1508 12.458 66.1553 12.458 66.1557 12.4551C66.1557 12.3875 66.1508 12.3159 66.1508 12.2441C66.1509 6.64876 70.6765 2.11525 76.2612 2.11523ZM101.356 2.11523C104.616 2.11525 107.401 3.27291 109.715 5.59082C112.029 7.90873 113.185 10.701 113.185 13.9658C113.185 17.2458 112.029 20.0355 109.715 22.3398C108.049 24.0073 106.141 25.0741 103.993 25.543L114.311 34.8418H108.683L98.2231 25.4277C95.6533 24.6284 94.4296 23.462 94.0336 23.0156V15.7412C94.2111 16.2587 94.8239 17.8214 96.1772 19.1543C97.6124 20.5768 99.3305 21.3018 101.356 21.3018C103.385 21.3017 105.111 20.5859 106.535 19.1543C107.966 17.7259 108.683 15.9965 108.683 13.9658C108.683 11.9326 107.966 10.2009 106.535 8.77246C105.111 7.34333 103.385 6.62892 101.356 6.62891C99.3305 6.62891 97.6023 7.34318 96.1772 8.77246C94.7463 10.2009 94.0337 11.9327 94.0336 13.9658V15.7412C93.9948 15.628 93.9741 15.5654 93.9741 15.5654L93.8823 22.834C93.8846 22.8373 93.9334 22.9027 94.0336 23.0156V33.7148C94.0336 34.4641 93.6592 34.8418 92.9096 34.8418H90.6547C89.9018 34.8418 89.5278 34.4641 89.5278 33.7148V13.9658C89.5278 10.701 90.682 7.90874 92.9848 5.59082C95.2902 3.27296 98.0808 2.11523 101.356 2.11523ZM158.663 2.11523C161.982 2.11523 164.936 2.97186 167.521 4.6875L164.904 8.3877C163.059 7.2161 160.975 6.62988 158.663 6.62988C155.391 6.62995 152.599 7.78858 150.293 10.1064C147.987 12.4218 146.834 15.2119 146.834 18.4766C146.834 21.76 147.986 24.5538 150.293 26.8633C152.599 29.1727 155.391 30.3281 158.663 30.3281C160.976 30.3281 163.059 29.7415 164.904 28.5674L167.521 32.2695C164.936 33.9834 161.982 34.8418 158.663 34.8418C154.159 34.8417 150.308 33.2451 147.119 30.0479C143.924 26.8489 142.329 22.9924 142.329 18.4766C142.329 13.9666 143.924 10.1084 147.119 6.91113C150.308 3.71393 154.159 2.1153 158.663 2.11523ZM216.519 2.11523C219.776 2.11523 222.561 3.27306 224.875 5.59082C227.189 7.90874 228.348 10.701 228.348 13.9658C228.348 17.2459 227.189 20.0354 224.875 22.3398C223.209 24.0072 221.302 25.0741 219.154 25.543L229.472 34.8418H223.841L213.384 25.4277C210.813 24.6286 209.59 23.4622 209.195 23.0156V15.75C209.376 16.2761 209.99 17.8288 211.335 19.1543C212.773 20.5768 214.491 21.3017 216.519 21.3018C218.544 21.3018 220.273 20.5861 221.699 19.1543C223.13 17.7259 223.841 15.9965 223.841 13.9658C223.841 11.9327 223.13 10.2008 221.699 8.77246C220.273 7.34318 218.544 6.62891 216.519 6.62891C214.491 6.62893 212.76 7.3432 211.335 8.77246C209.907 10.2009 209.195 11.9327 209.195 13.9658V15.75C209.154 15.6313 209.132 15.5654 209.132 15.5654L209.043 22.834C209.047 22.8391 209.096 22.9042 209.195 23.0156V33.7148C209.195 34.464 208.818 34.8418 208.071 34.8418H205.815C205.065 34.8417 204.686 34.464 204.686 33.7148V13.9658C204.686 10.701 205.843 7.90874 208.146 5.59082C210.454 3.27312 213.24 2.11525 216.519 2.11523ZM250.875 2.65625C251.628 2.65625 251.999 3.03285 251.999 3.78613V6.04199C251.999 6.79372 251.628 7.17285 250.875 7.17285H236.231V16.4326H250.875C251.628 16.4326 251.999 16.807 251.999 17.5596V19.8154C251.999 20.5696 251.628 20.9434 250.875 20.9434H236.231V30.3281H250.875C251.628 30.3281 251.999 30.7066 251.999 31.4551V33.7148C251.999 34.4633 251.628 34.8418 250.875 34.8418H232.852C232.102 34.8418 231.725 34.4636 231.725 32.9678V3.5791C231.725 3.57572 231.725 2.65625 232.852 2.65625H250.875Z" fill="#E4113B"/>
<path fill-rule="evenodd" clip-rule="evenodd" d="M197.167 25.6356C198.337 23.522 199.001 21.0867 199.001 18.4985C199.001 10.3485 192.405 3.74023 184.268 3.74023V7.69356C190.227 7.69356 195.056 12.5322 195.056 18.4985C195.056 20.2867 194.622 21.9737 193.856 23.4587L197.167 25.6356Z" fill="#E4113B"/>
<path fill-rule="evenodd" clip-rule="evenodd" d="M184.27 6.67383C179.765 6.67383 175.89 9.23673 173.905 12.9569L176.131 13.8996C177.744 11.0444 180.764 9.09482 184.27 9.09482C189.455 9.09482 193.658 13.3066 193.658 18.5025C193.658 23.6951 189.455 27.906 184.27 27.906C184.167 27.906 184.067 27.8799 183.961 27.8739V30.2941C184.067 30.2966 184.167 30.327 184.27 30.327C190.795 30.327 196.074 25.0297 196.074 18.5025C196.074 11.9703 190.795 6.67383 184.27 6.67383Z" fill="#CCCBCB"/>
<path fill-rule="evenodd" clip-rule="evenodd" d="M183.96 27.8713C178.924 27.7057 174.883 23.5851 174.883 18.4999C174.883 16.8155 175.359 15.2612 176.13 13.8969L173.904 12.9551C173.018 14.6167 172.465 16.4843 172.465 18.4999C172.465 24.9232 177.59 30.1267 183.96 30.2914V27.8713Z" fill="#E4113B"/>
<path fill-rule="evenodd" clip-rule="evenodd" d="M184.268 36.5007C190.94 36.5007 196.753 32.8464 199.851 27.4359L196.673 25.3047C194.259 29.7108 189.639 32.7324 184.268 32.7324C178.897 32.7324 174.282 29.7108 171.869 25.3047L168.688 27.4359C171.784 32.8464 177.594 36.5007 184.268 36.5007Z" fill="#E4113B"/>
<path fill-rule="evenodd" clip-rule="evenodd" d="M170.066 18.502C170.066 10.6401 176.423 4.27255 184.267 4.27255C192.116 4.27255 198.473 10.6401 198.473 18.502C198.473 20.9804 197.785 23.2738 196.673 25.3046L199.85 27.435C201.36 24.8003 202.236 21.7576 202.236 18.502C202.236 8.5587 194.189 0.5 184.267 0.5C174.344 0.5 166.303 8.5587 166.303 18.502C166.303 21.7576 167.179 24.8003 168.688 27.435L171.869 25.3046C170.755 23.2738 170.066 20.9804 170.066 18.502Z" fill="#CCCBCB"/>
</svg>
