<svg width="310" height="263" viewBox="0 0 310 263" fill="none" xmlns="http://www.w3.org/2000/svg">
<path d="M102 192C102 186.477 106.477 182 112 182H198C203.523 182 208 186.477 208 192V253C208 258.523 203.523 263 198 263H112C106.477 263 102 258.523 102 253V192Z" fill="#00B695"/>
<rect x="110" y="215" width="90" height="40" fill="white"/>
<path d="M117.418 232.976C117.37 232.872 117.326 232.784 117.286 232.712C117.246 232.632 117.21 232.552 117.178 232.472C117.146 232.392 117.114 232.308 117.082 232.22C117.05 232.124 117.018 232.012 116.986 231.884V239.312H116.158V230.66H117.19L120.118 236.996L123.058 230.66H124.054V239.312H123.226V231.884C123.202 232.012 123.174 232.124 123.142 232.22C123.118 232.308 123.09 232.392 123.058 232.472C123.026 232.552 122.99 232.632 122.95 232.712C122.91 232.784 122.866 232.872 122.818 232.976L120.502 237.872H119.71L117.418 232.976ZM128.461 232.724C129.333 232.724 130.009 232.98 130.489 233.492C130.969 234.004 131.209 234.728 131.209 235.664V236.468C131.209 237.404 130.969 238.128 130.489 238.64C130.009 239.152 129.333 239.408 128.461 239.408C127.589 239.408 126.913 239.152 126.433 238.64C125.953 238.128 125.713 237.404 125.713 236.468V235.664C125.713 234.72 125.953 233.996 126.433 233.492C126.913 232.98 127.589 232.724 128.461 232.724ZM128.461 238.688C129.061 238.688 129.529 238.504 129.865 238.136C130.209 237.76 130.381 237.188 130.381 236.42V235.712C130.381 234.944 130.209 234.376 129.865 234.008C129.529 233.632 129.061 233.444 128.461 233.444C127.861 233.444 127.389 233.632 127.045 234.008C126.709 234.376 126.541 234.944 126.541 235.712V236.42C126.541 237.188 126.709 237.76 127.045 238.136C127.389 238.504 127.861 238.688 128.461 238.688ZM136.998 238.46H136.986C136.802 238.788 136.53 239.028 136.17 239.18C135.81 239.332 135.442 239.408 135.066 239.408C134.69 239.408 134.346 239.344 134.034 239.216C133.722 239.096 133.45 238.92 133.218 238.688C132.986 238.448 132.806 238.156 132.678 237.812C132.55 237.468 132.486 237.076 132.486 236.636V235.496C132.486 235.056 132.55 234.664 132.678 234.32C132.806 233.976 132.982 233.688 133.206 233.456C133.438 233.216 133.71 233.036 134.022 232.916C134.342 232.788 134.686 232.724 135.054 232.724C135.534 232.724 135.934 232.816 136.254 233C136.574 233.184 136.818 233.396 136.986 233.636V230.24H137.802V239.312H136.998V238.46ZM133.302 236.516C133.302 237.212 133.466 237.748 133.794 238.124C134.122 238.5 134.558 238.688 135.102 238.688C135.366 238.688 135.61 238.656 135.834 238.592C136.066 238.52 136.266 238.416 136.434 238.28C136.602 238.136 136.734 237.96 136.83 237.752C136.934 237.536 136.986 237.284 136.986 236.996V235.052C136.986 234.86 136.938 234.672 136.842 234.488C136.754 234.296 136.626 234.124 136.458 233.972C136.29 233.812 136.09 233.684 135.858 233.588C135.626 233.492 135.374 233.444 135.102 233.444C134.55 233.444 134.11 233.636 133.782 234.02C133.462 234.396 133.302 234.928 133.302 235.616V236.516ZM143.84 235.652V235.544C143.84 234.864 143.684 234.344 143.372 233.984C143.06 233.624 142.62 233.444 142.052 233.444C141.476 233.444 141.028 233.636 140.708 234.02C140.396 234.396 140.24 234.904 140.24 235.544V235.652H143.84ZM144.512 238.676C144.256 238.86 143.936 239.028 143.552 239.18C143.168 239.332 142.704 239.408 142.16 239.408C141.296 239.408 140.624 239.152 140.144 238.64C139.664 238.12 139.424 237.388 139.424 236.444V235.64C139.424 234.72 139.656 234.004 140.12 233.492C140.592 232.98 141.236 232.724 142.052 232.724C142.9 232.724 143.544 232.988 143.984 233.516C144.432 234.036 144.656 234.752 144.656 235.664V236.336H140.24V236.444C140.24 237.164 140.412 237.72 140.756 238.112C141.1 238.496 141.572 238.688 142.172 238.688C142.604 238.688 142.984 238.624 143.312 238.496C143.64 238.368 143.92 238.22 144.152 238.052L144.512 238.676ZM146.263 230.24H147.079V239.312H146.263V230.24ZM157.645 230.66V231.404H154.873V239.312H154.033V231.404H151.273V230.66H157.645ZM161.587 233.684C161.363 233.596 161.103 233.552 160.807 233.552C160.543 233.552 160.303 233.604 160.087 233.708C159.871 233.812 159.687 233.956 159.535 234.14C159.383 234.324 159.267 234.544 159.187 234.8C159.107 235.056 159.067 235.336 159.067 235.64V239.312H158.251V232.844H159.055V233.984C159.127 233.832 159.215 233.68 159.319 233.528C159.431 233.376 159.563 233.24 159.715 233.12C159.875 233 160.051 232.904 160.243 232.832C160.443 232.76 160.667 232.724 160.915 232.724C161.099 232.724 161.263 232.736 161.407 232.76C161.559 232.776 161.703 232.808 161.839 232.856L161.587 233.684ZM164.608 239.408C163.992 239.408 163.492 239.244 163.108 238.916C162.724 238.588 162.532 238.136 162.532 237.56V237.296C162.532 236.768 162.724 236.34 163.108 236.012C163.492 235.684 164.06 235.52 164.812 235.52H166.636V234.92C166.636 234.448 166.504 234.088 166.24 233.84C165.984 233.584 165.604 233.456 165.1 233.456C164.748 233.456 164.412 233.52 164.092 233.648C163.772 233.768 163.472 233.924 163.192 234.116L162.796 233.492C163.1 233.284 163.436 233.104 163.804 232.952C164.18 232.8 164.616 232.724 165.112 232.724C165.84 232.724 166.408 232.904 166.816 233.264C167.232 233.624 167.44 234.132 167.44 234.788V239.312H166.648V238.52H166.636C166.572 238.624 166.476 238.732 166.348 238.844C166.228 238.948 166.084 239.044 165.916 239.132C165.548 239.316 165.112 239.408 164.608 239.408ZM166.636 236.204H164.824C164.304 236.204 163.928 236.308 163.696 236.516C163.464 236.724 163.348 236.996 163.348 237.332V237.524C163.348 237.732 163.388 237.912 163.468 238.064C163.548 238.208 163.652 238.328 163.78 238.424C163.916 238.52 164.064 238.592 164.224 238.64C164.392 238.68 164.56 238.7 164.728 238.7C164.984 238.7 165.216 238.668 165.424 238.604C165.632 238.54 165.832 238.448 166.024 238.328C166.2 238.216 166.344 238.08 166.456 237.92C166.576 237.752 166.636 237.544 166.636 237.296V236.204ZM169.291 232.844H170.107V239.312H169.291V232.844ZM169.255 230.696H170.143V231.608H169.255V230.696ZM174.851 232.724C175.595 232.724 176.167 232.928 176.567 233.336C176.975 233.736 177.179 234.276 177.179 234.956V239.312H176.363V235.16C176.363 234.928 176.339 234.712 176.291 234.512C176.243 234.304 176.155 234.124 176.027 233.972C175.907 233.812 175.739 233.688 175.523 233.6C175.315 233.512 175.051 233.468 174.731 233.468C174.459 233.468 174.207 233.52 173.975 233.624C173.751 233.72 173.559 233.848 173.399 234.008C173.239 234.168 173.111 234.344 173.015 234.536C172.927 234.728 172.883 234.92 172.883 235.112V239.312H172.067V232.844H172.871V233.744C172.943 233.624 173.039 233.504 173.159 233.384C173.279 233.256 173.423 233.144 173.591 233.048C173.759 232.952 173.947 232.876 174.155 232.82C174.363 232.756 174.595 232.724 174.851 232.724ZM179.088 232.844H179.904V239.312H179.088V232.844ZM179.052 230.696H179.94V231.608H179.052V230.696ZM184.648 232.724C185.392 232.724 185.964 232.928 186.364 233.336C186.772 233.736 186.976 234.276 186.976 234.956V239.312H186.16V235.16C186.16 234.928 186.136 234.712 186.088 234.512C186.04 234.304 185.952 234.124 185.824 233.972C185.704 233.812 185.536 233.688 185.32 233.6C185.112 233.512 184.848 233.468 184.528 233.468C184.256 233.468 184.004 233.52 183.772 233.624C183.548 233.72 183.356 233.848 183.196 234.008C183.036 234.168 182.908 234.344 182.812 234.536C182.724 234.728 182.68 234.92 182.68 235.112V239.312H181.864V232.844H182.668V233.744C182.74 233.624 182.836 233.504 182.956 233.384C183.076 233.256 183.22 233.144 183.388 233.048C183.556 232.952 183.744 232.876 183.952 232.82C184.16 232.756 184.392 232.724 184.648 232.724ZM193.049 238.34H193.037C192.853 238.668 192.581 238.908 192.221 239.06C191.869 239.212 191.505 239.288 191.129 239.288C190.753 239.288 190.409 239.224 190.097 239.096C189.785 238.976 189.513 238.8 189.281 238.568C189.049 238.328 188.869 238.036 188.741 237.692C188.613 237.348 188.549 236.956 188.549 236.516V235.496C188.549 235.056 188.613 234.664 188.741 234.32C188.869 233.976 189.045 233.688 189.269 233.456C189.501 233.216 189.773 233.036 190.085 232.916C190.405 232.788 190.749 232.724 191.117 232.724C191.597 232.724 191.997 232.816 192.317 233C192.645 233.184 192.893 233.396 193.061 233.636V232.844H193.865V239.204C193.865 240.124 193.625 240.816 193.145 241.28C192.673 241.752 192.033 241.988 191.225 241.988C190.769 241.988 190.361 241.928 190.001 241.808C189.649 241.688 189.337 241.524 189.065 241.316L189.437 240.68C189.589 240.784 189.733 240.868 189.869 240.932C190.005 241.004 190.141 241.06 190.277 241.1C190.421 241.148 190.569 241.18 190.721 241.196C190.873 241.212 191.041 241.22 191.225 241.22C191.825 241.22 192.277 241.056 192.581 240.728C192.893 240.408 193.049 239.908 193.049 239.228V238.34ZM189.365 236.396C189.365 237.092 189.529 237.628 189.857 238.004C190.185 238.38 190.621 238.568 191.165 238.568C191.429 238.568 191.673 238.536 191.897 238.472C192.129 238.4 192.329 238.296 192.497 238.16C192.665 238.016 192.797 237.84 192.893 237.632C192.997 237.416 193.049 237.164 193.049 236.876V235.052C193.049 234.86 193.001 234.672 192.905 234.488C192.817 234.296 192.689 234.124 192.521 233.972C192.353 233.812 192.153 233.684 191.921 233.588C191.689 233.492 191.437 233.444 191.165 233.444C190.613 233.444 190.173 233.636 189.845 234.02C189.525 234.396 189.365 234.928 189.365 235.616V236.396Z" fill="black"/>
<path d="M120.662 193.965V202.233H125.147V203.338H119.375V193.965H120.662ZM129.228 196.097C130.207 196.097 130.978 196.379 131.542 196.942C132.114 197.505 132.4 198.303 132.4 199.334V200.205C132.4 201.236 132.114 202.034 131.542 202.597C130.978 203.16 130.207 203.442 129.228 203.442C128.248 203.442 127.473 203.16 126.901 202.597C126.337 202.034 126.056 201.236 126.056 200.205V199.334C126.056 198.294 126.337 197.497 126.901 196.942C127.473 196.379 128.248 196.097 129.228 196.097ZM129.228 202.337C129.791 202.337 130.246 202.155 130.593 201.791C130.948 201.418 131.126 200.855 131.126 200.101V199.438C131.126 198.684 130.948 198.125 130.593 197.761C130.246 197.388 129.791 197.202 129.228 197.202C128.664 197.202 128.205 197.388 127.85 197.761C127.503 198.125 127.33 198.684 127.33 199.438V200.101C127.33 200.855 127.503 201.418 127.85 201.791C128.205 202.155 128.664 202.337 129.228 202.337ZM136.766 196.097C137.356 196.097 137.837 196.171 138.209 196.318C138.591 196.465 138.929 196.652 139.223 196.877L138.625 197.826C138.296 197.583 137.988 197.423 137.702 197.345C137.425 197.258 137.113 197.215 136.766 197.215C136.532 197.215 136.307 197.254 136.09 197.332C135.874 197.41 135.683 197.536 135.518 197.709C135.354 197.874 135.219 198.086 135.115 198.346C135.02 198.606 134.972 198.918 134.972 199.282V200.179C134.972 200.56 135.02 200.89 135.115 201.167C135.219 201.436 135.354 201.657 135.518 201.83C135.692 201.995 135.887 202.116 136.103 202.194C136.329 202.272 136.558 202.311 136.792 202.311C137.26 202.311 137.646 202.25 137.949 202.129C138.261 202.008 138.543 201.852 138.794 201.661L139.405 202.623C139.154 202.831 138.816 203.017 138.391 203.182C137.967 203.355 137.429 203.442 136.779 203.442C135.791 203.442 135.029 203.156 134.491 202.584C133.963 202.012 133.698 201.215 133.698 200.192V199.295C133.698 198.784 133.772 198.333 133.919 197.943C134.067 197.544 134.27 197.211 134.53 196.942C134.799 196.665 135.12 196.457 135.492 196.318C135.874 196.171 136.298 196.097 136.766 196.097ZM142.653 203.442C141.933 203.442 141.361 203.264 140.937 202.909C140.521 202.554 140.313 202.064 140.313 201.44V201.089C140.313 200.482 140.516 199.988 140.924 199.607C141.331 199.226 141.99 199.035 142.9 199.035H144.707V198.619C144.707 198.142 144.59 197.791 144.356 197.566C144.13 197.332 143.758 197.215 143.238 197.215C142.822 197.215 142.458 197.28 142.146 197.41C141.842 197.54 141.526 197.713 141.197 197.93L140.573 196.994C140.919 196.751 141.309 196.543 141.743 196.37C142.176 196.188 142.679 196.097 143.251 196.097C143.649 196.097 144.013 196.149 144.343 196.253C144.672 196.348 144.954 196.496 145.188 196.695C145.43 196.886 145.617 197.124 145.747 197.41C145.885 197.687 145.955 198.004 145.955 198.359V203.338H144.746V202.48H144.733C144.663 202.61 144.568 202.731 144.447 202.844C144.334 202.948 144.208 203.039 144.07 203.117C143.879 203.221 143.671 203.299 143.446 203.351C143.229 203.412 142.965 203.442 142.653 203.442ZM144.707 200.101H142.926C142.432 200.101 142.076 200.196 141.86 200.387C141.652 200.578 141.548 200.842 141.548 201.18V201.362C141.548 201.709 141.669 201.96 141.912 202.116C142.154 202.272 142.445 202.35 142.783 202.35C143.095 202.35 143.363 202.315 143.589 202.246C143.823 202.168 144.035 202.055 144.226 201.908C144.399 201.778 144.52 201.631 144.59 201.466C144.668 201.293 144.707 201.072 144.707 200.803V200.101ZM149.11 193.51V203.338H147.849V193.51H149.11ZM155.675 199.438C155.675 200.426 155.805 201.405 156.065 202.376C156.325 203.347 156.788 204.291 157.456 205.21H156.26C155.61 204.439 155.129 203.563 154.817 202.584C154.505 201.605 154.349 200.534 154.349 199.373V198.853C154.349 197.692 154.505 196.626 154.817 195.655C155.129 194.684 155.61 193.813 156.26 193.042H157.456C156.814 193.909 156.355 194.823 156.078 195.785C155.809 196.738 155.675 197.739 155.675 198.788V199.438ZM164.656 193.965V195.07H160.106V197.982H164.383V199.087H160.106V202.233H164.747V203.338H158.819V193.965H164.656ZM171.022 202.454C170.823 202.818 170.537 203.074 170.164 203.221C169.8 203.368 169.397 203.442 168.955 203.442C168.054 203.442 167.365 203.182 166.888 202.662C166.42 202.133 166.186 201.384 166.186 200.413V199.152C166.186 198.675 166.255 198.246 166.394 197.865C166.533 197.484 166.723 197.163 166.966 196.903C167.217 196.643 167.516 196.444 167.863 196.305C168.21 196.166 168.591 196.097 169.007 196.097C169.553 196.097 169.982 196.192 170.294 196.383C170.615 196.565 170.849 196.76 170.996 196.968V193.51H172.257V203.338H171.048V202.454H171.022ZM171.009 198.71C171.009 198.528 170.961 198.346 170.866 198.164C170.779 197.982 170.649 197.822 170.476 197.683C170.311 197.536 170.112 197.419 169.878 197.332C169.653 197.245 169.406 197.202 169.137 197.202C168.6 197.202 168.179 197.388 167.876 197.761C167.581 198.134 167.434 198.658 167.434 199.334V200.205C167.434 200.881 167.586 201.405 167.889 201.778C168.192 202.151 168.608 202.337 169.137 202.337C169.397 202.337 169.64 202.298 169.865 202.22C170.09 202.133 170.285 202.012 170.45 201.856C170.623 201.7 170.758 201.514 170.853 201.297C170.957 201.072 171.009 200.82 171.009 200.543V198.71ZM180.001 203.247C180.001 205.24 178.944 206.237 176.829 206.237C176.344 206.237 175.902 206.168 175.503 206.029C175.104 205.89 174.758 205.708 174.463 205.483L175.035 204.495C175.269 204.668 175.542 204.811 175.854 204.924C176.175 205.037 176.513 205.093 176.868 205.093C177.483 205.093 177.947 204.941 178.259 204.638C178.58 204.343 178.74 203.88 178.74 203.247V202.376C178.541 202.714 178.259 202.952 177.895 203.091C177.531 203.238 177.132 203.312 176.699 203.312C175.798 203.312 175.109 203.052 174.632 202.532C174.164 202.003 173.93 201.254 173.93 200.283V199.152C173.93 198.675 173.999 198.246 174.138 197.865C174.277 197.484 174.467 197.163 174.71 196.903C174.961 196.643 175.26 196.444 175.607 196.305C175.954 196.166 176.335 196.097 176.751 196.097C177.297 196.097 177.726 196.192 178.038 196.383C178.359 196.565 178.593 196.76 178.74 196.968V196.227H180.001V203.247ZM178.753 198.71C178.753 198.528 178.705 198.346 178.61 198.164C178.523 197.982 178.393 197.822 178.22 197.683C178.055 197.536 177.856 197.419 177.622 197.332C177.397 197.245 177.15 197.202 176.881 197.202C176.344 197.202 175.923 197.388 175.62 197.761C175.325 198.134 175.178 198.658 175.178 199.334V200.075C175.178 200.751 175.33 201.275 175.633 201.648C175.936 202.021 176.352 202.207 176.881 202.207C177.141 202.207 177.384 202.168 177.609 202.09C177.834 202.003 178.029 201.882 178.194 201.726C178.367 201.57 178.502 201.384 178.597 201.167C178.701 200.942 178.753 200.69 178.753 200.413V198.71ZM184.716 197.176C184.456 197.176 184.214 197.224 183.988 197.319C183.772 197.406 183.581 197.531 183.416 197.696C183.26 197.852 183.135 198.047 183.039 198.281C182.953 198.506 182.909 198.753 182.909 199.022V199.204H186.471V198.97C186.471 198.424 186.315 197.991 186.003 197.67C185.691 197.341 185.262 197.176 184.716 197.176ZM187.524 202.662C187.212 202.879 186.84 203.061 186.406 203.208C185.973 203.364 185.431 203.442 184.781 203.442C184.339 203.442 183.928 203.377 183.546 203.247C183.174 203.126 182.844 202.935 182.558 202.675C182.281 202.406 182.06 202.064 181.895 201.648C181.739 201.232 181.661 200.738 181.661 200.166V199.36C181.661 198.823 181.735 198.35 181.882 197.943C182.038 197.536 182.251 197.198 182.519 196.929C182.797 196.652 183.122 196.444 183.494 196.305C183.867 196.166 184.274 196.097 184.716 196.097C185.626 196.097 186.35 196.374 186.887 196.929C187.425 197.484 187.693 198.268 187.693 199.282V200.231H182.909V200.283C182.909 200.959 183.087 201.475 183.442 201.83C183.798 202.177 184.261 202.35 184.833 202.35C185.301 202.35 185.7 202.294 186.029 202.181C186.367 202.068 186.688 201.912 186.991 201.713L187.524 202.662ZM190.391 198.788C190.391 197.739 190.252 196.738 189.975 195.785C189.706 194.823 189.251 193.909 188.61 193.042H189.806C190.456 193.813 190.937 194.684 191.249 195.655C191.561 196.626 191.717 197.692 191.717 198.853V199.373C191.717 200.534 191.561 201.605 191.249 202.584C190.937 203.563 190.456 204.439 189.806 205.21H188.61C189.277 204.291 189.741 203.347 190.001 202.376C190.261 201.405 190.391 200.426 190.391 199.438V198.788Z" fill="white"/>
<path d="M166.692 124.482C166.656 124.404 166.623 124.338 166.593 124.284C166.563 124.224 166.536 124.164 166.512 124.104C166.488 124.044 166.464 123.981 166.44 123.915C166.416 123.843 166.392 123.759 166.368 123.663V129.234H165.747V122.745H166.521L168.717 127.497L170.922 122.745H171.669V129.234H171.048V123.663C171.03 123.759 171.009 123.843 170.985 123.915C170.967 123.981 170.946 124.044 170.922 124.104C170.898 124.164 170.871 124.224 170.841 124.284C170.811 124.338 170.778 124.404 170.742 124.482L169.005 128.154H168.411L166.692 124.482ZM174.974 124.293C175.628 124.293 176.135 124.485 176.495 124.869C176.855 125.253 177.035 125.796 177.035 126.498V127.101C177.035 127.803 176.855 128.346 176.495 128.73C176.135 129.114 175.628 129.306 174.974 129.306C174.32 129.306 173.813 129.114 173.453 128.73C173.093 128.346 172.913 127.803 172.913 127.101V126.498C172.913 125.79 173.093 125.247 173.453 124.869C173.813 124.485 174.32 124.293 174.974 124.293ZM174.974 128.766C175.424 128.766 175.775 128.628 176.027 128.352C176.285 128.07 176.414 127.641 176.414 127.065V126.534C176.414 125.958 176.285 125.532 176.027 125.256C175.775 124.974 175.424 124.833 174.974 124.833C174.524 124.833 174.17 124.974 173.912 125.256C173.66 125.532 173.534 125.958 173.534 126.534V127.065C173.534 127.641 173.66 128.07 173.912 128.352C174.17 128.628 174.524 128.766 174.974 128.766ZM181.377 128.595H181.368C181.23 128.841 181.026 129.021 180.756 129.135C180.486 129.249 180.21 129.306 179.928 129.306C179.646 129.306 179.388 129.258 179.154 129.162C178.92 129.072 178.716 128.94 178.542 128.766C178.368 128.586 178.233 128.367 178.137 128.109C178.041 127.851 177.993 127.557 177.993 127.227V126.372C177.993 126.042 178.041 125.748 178.137 125.49C178.233 125.232 178.365 125.016 178.533 124.842C178.707 124.662 178.911 124.527 179.145 124.437C179.385 124.341 179.643 124.293 179.919 124.293C180.279 124.293 180.579 124.362 180.819 124.5C181.059 124.638 181.242 124.797 181.368 124.977V122.43H181.98V129.234H181.377V128.595ZM178.605 127.137C178.605 127.659 178.728 128.061 178.974 128.343C179.22 128.625 179.547 128.766 179.955 128.766C180.153 128.766 180.336 128.742 180.504 128.694C180.678 128.64 180.828 128.562 180.954 128.46C181.08 128.352 181.179 128.22 181.251 128.064C181.329 127.902 181.368 127.713 181.368 127.497V126.039C181.368 125.895 181.332 125.754 181.26 125.616C181.194 125.472 181.098 125.343 180.972 125.229C180.846 125.109 180.696 125.013 180.522 124.941C180.348 124.869 180.159 124.833 179.955 124.833C179.541 124.833 179.211 124.977 178.965 125.265C178.725 125.547 178.605 125.946 178.605 126.462V127.137ZM186.508 126.489V126.408C186.508 125.898 186.391 125.508 186.157 125.238C185.923 124.968 185.593 124.833 185.167 124.833C184.735 124.833 184.399 124.977 184.159 125.265C183.925 125.547 183.808 125.928 183.808 126.408V126.489H186.508ZM187.012 128.757C186.82 128.895 186.58 129.021 186.292 129.135C186.004 129.249 185.656 129.306 185.248 129.306C184.6 129.306 184.096 129.114 183.736 128.73C183.376 128.34 183.196 127.791 183.196 127.083V126.48C183.196 125.79 183.37 125.253 183.718 124.869C184.072 124.485 184.555 124.293 185.167 124.293C185.803 124.293 186.286 124.491 186.616 124.887C186.952 125.277 187.12 125.814 187.12 126.498V127.002H183.808V127.083C183.808 127.623 183.937 128.04 184.195 128.334C184.453 128.622 184.807 128.766 185.257 128.766C185.581 128.766 185.866 128.718 186.112 128.622C186.358 128.526 186.568 128.415 186.742 128.289L187.012 128.757ZM188.325 122.43H188.937V129.234H188.325V122.43ZM167.772 133.745C168.594 133.745 169.236 133.985 169.698 134.465C170.166 134.939 170.4 135.626 170.4 136.526V137.453C170.4 138.353 170.166 139.043 169.698 139.523C169.236 139.997 168.594 140.234 167.772 140.234H165.747V133.745H167.772ZM166.377 139.676H167.781C168.069 139.676 168.336 139.631 168.582 139.541C168.828 139.451 169.038 139.313 169.212 139.127C169.386 138.935 169.521 138.698 169.617 138.416C169.719 138.134 169.77 137.798 169.77 137.408V136.571C169.77 136.187 169.719 135.854 169.617 135.572C169.521 135.284 169.386 135.047 169.212 134.861C169.038 134.669 168.828 134.528 168.582 134.438C168.336 134.348 168.069 134.303 167.781 134.303H166.377V139.676ZM171.759 135.383H172.371V140.234H171.759V135.383ZM171.732 133.772H172.398V134.456H171.732V133.772ZM175.38 139.757C175.776 139.757 176.076 139.679 176.28 139.523C176.484 139.367 176.586 139.184 176.586 138.974V138.884C176.586 138.638 176.484 138.452 176.28 138.326C176.082 138.2 175.749 138.092 175.281 138.002C175.035 137.954 174.813 137.897 174.615 137.831C174.417 137.765 174.249 137.681 174.111 137.579C173.973 137.477 173.865 137.357 173.787 137.219C173.709 137.075 173.67 136.904 173.67 136.706V136.58C173.67 136.406 173.706 136.241 173.778 136.085C173.85 135.929 173.958 135.794 174.102 135.68C174.246 135.56 174.426 135.467 174.642 135.401C174.864 135.329 175.125 135.293 175.425 135.293C175.797 135.293 176.118 135.341 176.388 135.437C176.658 135.527 176.892 135.647 177.09 135.797L176.811 136.256C176.607 136.118 176.4 136.013 176.19 135.941C175.98 135.869 175.719 135.833 175.407 135.833C175.041 135.833 174.762 135.908 174.57 136.058C174.378 136.202 174.282 136.379 174.282 136.589V136.688C174.282 136.898 174.387 137.063 174.597 137.183C174.813 137.303 175.113 137.399 175.497 137.471C176.097 137.585 176.529 137.747 176.793 137.957C177.063 138.167 177.198 138.467 177.198 138.857V138.992C177.198 139.184 177.153 139.361 177.063 139.523C176.973 139.685 176.847 139.826 176.685 139.946C176.529 140.06 176.343 140.147 176.127 140.207C175.911 140.273 175.674 140.306 175.416 140.306C175.02 140.306 174.666 140.252 174.354 140.144C174.048 140.042 173.781 139.907 173.553 139.739L173.85 139.253C174.072 139.403 174.309 139.526 174.561 139.622C174.819 139.712 175.092 139.757 175.38 139.757ZM178.675 135.905H177.847V135.383H178.675V134.132H179.287V135.383H180.628V135.905H179.287V138.857C179.287 139.187 179.338 139.418 179.44 139.55C179.548 139.682 179.725 139.748 179.971 139.748C180.211 139.748 180.439 139.718 180.655 139.658L180.745 140.162C180.649 140.198 180.52 140.225 180.358 140.243C180.202 140.267 180.058 140.279 179.926 140.279C179.716 140.279 179.53 140.255 179.368 140.207C179.212 140.159 179.083 140.081 178.981 139.973C178.879 139.865 178.801 139.724 178.747 139.55C178.699 139.37 178.675 139.148 178.675 138.884V135.905ZM184.288 136.013C184.12 135.947 183.925 135.914 183.703 135.914C183.505 135.914 183.325 135.953 183.163 136.031C183.001 136.109 182.863 136.217 182.749 136.355C182.635 136.493 182.548 136.658 182.488 136.85C182.428 137.042 182.398 137.252 182.398 137.48V140.234H181.786V135.383H182.389V136.238C182.443 136.124 182.509 136.01 182.587 135.896C182.671 135.782 182.77 135.68 182.884 135.59C183.004 135.5 183.136 135.428 183.28 135.374C183.43 135.32 183.598 135.293 183.784 135.293C183.922 135.293 184.045 135.302 184.153 135.32C184.267 135.332 184.375 135.356 184.477 135.392L184.288 136.013ZM185.329 135.383H185.941V140.234H185.329V135.383ZM185.302 133.772H185.968V134.456H185.302V133.772ZM188.014 139.658V140.234H187.411V133.43H188.023V136.067C188.167 135.821 188.368 135.632 188.626 135.5C188.884 135.362 189.166 135.293 189.472 135.293C189.76 135.293 190.021 135.341 190.255 135.437C190.495 135.527 190.699 135.662 190.867 135.842C191.035 136.016 191.164 136.232 191.254 136.49C191.35 136.748 191.398 137.042 191.398 137.372V138.227C191.398 138.557 191.35 138.851 191.254 139.109C191.158 139.367 191.023 139.586 190.849 139.766C190.681 139.94 190.477 140.072 190.237 140.162C190.003 140.258 189.748 140.306 189.472 140.306C189.13 140.306 188.836 140.24 188.59 140.108C188.344 139.982 188.155 139.832 188.023 139.658H188.014ZM190.786 137.462C190.786 136.94 190.663 136.541 190.417 136.265C190.177 135.989 189.85 135.851 189.436 135.851C189.268 135.851 189.1 135.881 188.932 135.941C188.764 136.001 188.611 136.091 188.473 136.211C188.341 136.325 188.233 136.466 188.149 136.634C188.065 136.796 188.023 136.985 188.023 137.201V138.623C188.023 138.767 188.056 138.908 188.122 139.046C188.194 139.178 188.293 139.298 188.419 139.406C188.545 139.514 188.692 139.601 188.86 139.667C189.034 139.733 189.226 139.766 189.436 139.766C189.85 139.766 190.177 139.625 190.417 139.343C190.663 139.055 190.786 138.653 190.786 138.137V137.462ZM194.279 140.306C193.727 140.306 193.307 140.153 193.019 139.847C192.731 139.541 192.587 139.136 192.587 138.632V135.383H193.199V138.479C193.199 138.653 193.214 138.818 193.244 138.974C193.28 139.124 193.34 139.259 193.424 139.379C193.508 139.493 193.625 139.583 193.775 139.649C193.931 139.715 194.129 139.748 194.369 139.748C194.573 139.748 194.759 139.712 194.927 139.64C195.101 139.568 195.248 139.475 195.368 139.361C195.494 139.241 195.59 139.109 195.656 138.965C195.728 138.821 195.764 138.677 195.764 138.533V135.383H196.376V140.234H195.773V139.559C195.659 139.745 195.476 139.916 195.224 140.072C194.978 140.228 194.663 140.306 194.279 140.306ZM198.204 135.905H197.376V135.383H198.204V134.132H198.816V135.383H200.157V135.905H198.816V138.857C198.816 139.187 198.867 139.418 198.969 139.55C199.077 139.682 199.254 139.748 199.5 139.748C199.74 139.748 199.968 139.718 200.184 139.658L200.274 140.162C200.178 140.198 200.049 140.225 199.887 140.243C199.731 140.267 199.587 140.279 199.455 140.279C199.245 140.279 199.059 140.255 198.897 140.207C198.741 140.159 198.612 140.081 198.51 139.973C198.408 139.865 198.33 139.724 198.276 139.55C198.228 139.37 198.204 139.148 198.204 138.884V135.905ZM201.343 135.383H201.955V140.234H201.343V135.383ZM201.316 133.772H201.982V134.456H201.316V133.772ZM205.261 135.293C205.915 135.293 206.422 135.485 206.782 135.869C207.142 136.253 207.322 136.796 207.322 137.498V138.101C207.322 138.803 207.142 139.346 206.782 139.73C206.422 140.114 205.915 140.306 205.261 140.306C204.607 140.306 204.1 140.114 203.74 139.73C203.38 139.346 203.2 138.803 203.2 138.101V137.498C203.2 136.79 203.38 136.247 203.74 135.869C204.1 135.485 204.607 135.293 205.261 135.293ZM205.261 139.766C205.711 139.766 206.062 139.628 206.314 139.352C206.572 139.07 206.701 138.641 206.701 138.065V137.534C206.701 136.958 206.572 136.532 206.314 136.256C206.062 135.974 205.711 135.833 205.261 135.833C204.811 135.833 204.457 135.974 204.199 136.256C203.947 136.532 203.821 136.958 203.821 137.534V138.065C203.821 138.641 203.947 139.07 204.199 139.352C204.457 139.628 204.811 139.766 205.261 139.766ZM210.628 135.293C211.186 135.293 211.615 135.446 211.915 135.752C212.221 136.052 212.374 136.457 212.374 136.967V140.234H211.762V137.12C211.762 136.946 211.744 136.784 211.708 136.634C211.672 136.478 211.606 136.343 211.51 136.229C211.42 136.109 211.294 136.016 211.132 135.95C210.976 135.884 210.778 135.851 210.538 135.851C210.334 135.851 210.145 135.89 209.971 135.968C209.803 136.04 209.659 136.136 209.539 136.256C209.419 136.376 209.323 136.508 209.251 136.652C209.185 136.796 209.152 136.94 209.152 137.084V140.234H208.54V135.383H209.143V136.058C209.197 135.968 209.269 135.878 209.359 135.788C209.449 135.692 209.557 135.608 209.683 135.536C209.809 135.464 209.95 135.407 210.106 135.365C210.262 135.317 210.436 135.293 210.628 135.293Z" fill="#5C5C65"/>
<path d="M123.039 124.482C123.003 124.404 122.97 124.338 122.94 124.284C122.91 124.224 122.883 124.164 122.859 124.104C122.835 124.044 122.811 123.981 122.787 123.915C122.763 123.843 122.739 123.759 122.715 123.663V129.234H122.094V122.745H122.868L125.064 127.497L127.269 122.745H128.016V129.234H127.395V123.663C127.377 123.759 127.356 123.843 127.332 123.915C127.314 123.981 127.293 124.044 127.269 124.104C127.245 124.164 127.218 124.224 127.188 124.284C127.158 124.338 127.125 124.404 127.089 124.482L125.352 128.154H124.758L123.039 124.482ZM131.321 124.293C131.975 124.293 132.482 124.485 132.842 124.869C133.202 125.253 133.382 125.796 133.382 126.498V127.101C133.382 127.803 133.202 128.346 132.842 128.73C132.482 129.114 131.975 129.306 131.321 129.306C130.667 129.306 130.16 129.114 129.8 128.73C129.44 128.346 129.26 127.803 129.26 127.101V126.498C129.26 125.79 129.44 125.247 129.8 124.869C130.16 124.485 130.667 124.293 131.321 124.293ZM131.321 128.766C131.771 128.766 132.122 128.628 132.374 128.352C132.632 128.07 132.761 127.641 132.761 127.065V126.534C132.761 125.958 132.632 125.532 132.374 125.256C132.122 124.974 131.771 124.833 131.321 124.833C130.871 124.833 130.517 124.974 130.259 125.256C130.007 125.532 129.881 125.958 129.881 126.534V127.065C129.881 127.641 130.007 128.07 130.259 128.352C130.517 128.628 130.871 128.766 131.321 128.766ZM137.724 128.595H137.715C137.577 128.841 137.373 129.021 137.103 129.135C136.833 129.249 136.557 129.306 136.275 129.306C135.993 129.306 135.735 129.258 135.501 129.162C135.267 129.072 135.063 128.94 134.889 128.766C134.715 128.586 134.58 128.367 134.484 128.109C134.388 127.851 134.34 127.557 134.34 127.227V126.372C134.34 126.042 134.388 125.748 134.484 125.49C134.58 125.232 134.712 125.016 134.88 124.842C135.054 124.662 135.258 124.527 135.492 124.437C135.732 124.341 135.99 124.293 136.266 124.293C136.626 124.293 136.926 124.362 137.166 124.5C137.406 124.638 137.589 124.797 137.715 124.977V122.43H138.327V129.234H137.724V128.595ZM134.952 127.137C134.952 127.659 135.075 128.061 135.321 128.343C135.567 128.625 135.894 128.766 136.302 128.766C136.5 128.766 136.683 128.742 136.851 128.694C137.025 128.64 137.175 128.562 137.301 128.46C137.427 128.352 137.526 128.22 137.598 128.064C137.676 127.902 137.715 127.713 137.715 127.497V126.039C137.715 125.895 137.679 125.754 137.607 125.616C137.541 125.472 137.445 125.343 137.319 125.229C137.193 125.109 137.043 125.013 136.869 124.941C136.695 124.869 136.506 124.833 136.302 124.833C135.888 124.833 135.558 124.977 135.312 125.265C135.072 125.547 134.952 125.946 134.952 126.462V127.137ZM142.855 126.489V126.408C142.855 125.898 142.738 125.508 142.504 125.238C142.27 124.968 141.94 124.833 141.514 124.833C141.082 124.833 140.746 124.977 140.506 125.265C140.272 125.547 140.155 125.928 140.155 126.408V126.489H142.855ZM143.359 128.757C143.167 128.895 142.927 129.021 142.639 129.135C142.351 129.249 142.003 129.306 141.595 129.306C140.947 129.306 140.443 129.114 140.083 128.73C139.723 128.34 139.543 127.791 139.543 127.083V126.48C139.543 125.79 139.717 125.253 140.065 124.869C140.419 124.485 140.902 124.293 141.514 124.293C142.15 124.293 142.633 124.491 142.963 124.887C143.299 125.277 143.467 125.814 143.467 126.498V127.002H140.155V127.083C140.155 127.623 140.284 128.04 140.542 128.334C140.8 128.622 141.154 128.766 141.604 128.766C141.928 128.766 142.213 128.718 142.459 128.622C142.705 128.526 142.915 128.415 143.089 128.289L143.359 128.757ZM144.672 122.43H145.284V129.234H144.672V122.43ZM119.405 139.766C119.969 139.766 120.389 139.586 120.665 139.226C120.947 138.866 121.088 138.281 121.088 137.471V133.745H121.709V137.705C121.709 138.605 121.505 139.268 121.097 139.694C120.695 140.12 120.131 140.333 119.405 140.333C118.673 140.333 118.106 140.12 117.704 139.694C117.302 139.268 117.101 138.605 117.101 137.705V133.745H117.722V137.471C117.722 138.281 117.86 138.866 118.136 139.226C118.418 139.586 118.841 139.766 119.405 139.766ZM123.76 139.658V142.16H123.148V135.383H123.751V136.067C123.895 135.821 124.096 135.632 124.354 135.5C124.618 135.362 124.903 135.293 125.209 135.293C125.497 135.293 125.758 135.341 125.992 135.437C126.232 135.527 126.436 135.662 126.604 135.842C126.772 136.016 126.901 136.232 126.991 136.49C127.087 136.748 127.135 137.042 127.135 137.372V138.227C127.135 138.557 127.087 138.851 126.991 139.109C126.895 139.367 126.76 139.586 126.586 139.766C126.418 139.94 126.214 140.072 125.974 140.162C125.74 140.258 125.485 140.306 125.209 140.306C124.867 140.306 124.573 140.24 124.327 140.108C124.087 139.982 123.901 139.832 123.769 139.658H123.76ZM126.523 137.462C126.523 136.94 126.4 136.541 126.154 136.265C125.914 135.989 125.587 135.851 125.173 135.851C125.005 135.851 124.837 135.881 124.669 135.941C124.501 136.001 124.348 136.091 124.21 136.211C124.078 136.325 123.97 136.466 123.886 136.634C123.802 136.796 123.76 136.985 123.76 137.201V138.623C123.76 138.767 123.793 138.908 123.859 139.046C123.931 139.178 124.03 139.298 124.156 139.406C124.282 139.514 124.429 139.601 124.597 139.667C124.771 139.733 124.963 139.766 125.173 139.766C125.587 139.766 125.914 139.625 126.154 139.343C126.4 139.055 126.523 138.653 126.523 138.137V137.462ZM131.484 139.595H131.475C131.337 139.841 131.133 140.021 130.863 140.135C130.593 140.249 130.317 140.306 130.035 140.306C129.753 140.306 129.495 140.258 129.261 140.162C129.027 140.072 128.823 139.94 128.649 139.766C128.475 139.586 128.34 139.367 128.244 139.109C128.148 138.851 128.1 138.557 128.1 138.227V137.372C128.1 137.042 128.148 136.748 128.244 136.49C128.34 136.232 128.472 136.016 128.64 135.842C128.814 135.662 129.018 135.527 129.252 135.437C129.492 135.341 129.75 135.293 130.026 135.293C130.386 135.293 130.686 135.362 130.926 135.5C131.166 135.638 131.349 135.797 131.475 135.977V133.43H132.087V140.234H131.484V139.595ZM128.712 138.137C128.712 138.659 128.835 139.061 129.081 139.343C129.327 139.625 129.654 139.766 130.062 139.766C130.26 139.766 130.443 139.742 130.611 139.694C130.785 139.64 130.935 139.562 131.061 139.46C131.187 139.352 131.286 139.22 131.358 139.064C131.436 138.902 131.475 138.713 131.475 138.497V137.039C131.475 136.895 131.439 136.754 131.367 136.616C131.301 136.472 131.205 136.343 131.079 136.229C130.953 136.109 130.803 136.013 130.629 135.941C130.455 135.869 130.266 135.833 130.062 135.833C129.648 135.833 129.318 135.977 129.072 136.265C128.832 136.547 128.712 136.946 128.712 137.462V138.137ZM134.842 140.306C134.38 140.306 134.005 140.183 133.717 139.937C133.429 139.691 133.285 139.352 133.285 138.92V138.722C133.285 138.326 133.429 138.005 133.717 137.759C134.005 137.513 134.431 137.39 134.995 137.39H136.363V136.94C136.363 136.586 136.264 136.316 136.066 136.13C135.874 135.938 135.589 135.842 135.211 135.842C134.947 135.842 134.695 135.89 134.455 135.986C134.215 136.076 133.99 136.193 133.78 136.337L133.483 135.869C133.711 135.713 133.963 135.578 134.239 135.464C134.521 135.35 134.848 135.293 135.22 135.293C135.766 135.293 136.192 135.428 136.498 135.698C136.81 135.968 136.966 136.349 136.966 136.841V140.234H136.372V139.64H136.363C136.315 139.718 136.243 139.799 136.147 139.883C136.057 139.961 135.949 140.033 135.823 140.099C135.547 140.237 135.22 140.306 134.842 140.306ZM136.363 137.903H135.004C134.614 137.903 134.332 137.981 134.158 138.137C133.984 138.293 133.897 138.497 133.897 138.749V138.893C133.897 139.049 133.927 139.184 133.987 139.298C134.047 139.406 134.125 139.496 134.221 139.568C134.323 139.64 134.434 139.694 134.554 139.73C134.68 139.76 134.806 139.775 134.932 139.775C135.124 139.775 135.298 139.751 135.454 139.703C135.61 139.655 135.76 139.586 135.904 139.496C136.036 139.412 136.144 139.31 136.228 139.19C136.318 139.064 136.363 138.908 136.363 138.722V137.903ZM138.704 135.905H137.876V135.383H138.704V134.132H139.316V135.383H140.657V135.905H139.316V138.857C139.316 139.187 139.367 139.418 139.469 139.55C139.577 139.682 139.754 139.748 140 139.748C140.24 139.748 140.468 139.718 140.684 139.658L140.774 140.162C140.678 140.198 140.549 140.225 140.387 140.243C140.231 140.267 140.087 140.279 139.955 140.279C139.745 140.279 139.559 140.255 139.397 140.207C139.241 140.159 139.112 140.081 139.01 139.973C138.908 139.865 138.83 139.724 138.776 139.55C138.728 139.37 138.704 139.148 138.704 138.884V135.905ZM144.903 137.489V137.408C144.903 136.898 144.786 136.508 144.552 136.238C144.318 135.968 143.988 135.833 143.562 135.833C143.13 135.833 142.794 135.977 142.554 136.265C142.32 136.547 142.203 136.928 142.203 137.408V137.489H144.903ZM145.407 139.757C145.215 139.895 144.975 140.021 144.687 140.135C144.399 140.249 144.051 140.306 143.643 140.306C142.995 140.306 142.491 140.114 142.131 139.73C141.771 139.34 141.591 138.791 141.591 138.083V137.48C141.591 136.79 141.765 136.253 142.113 135.869C142.467 135.485 142.95 135.293 143.562 135.293C144.198 135.293 144.681 135.491 145.011 135.887C145.347 136.277 145.515 136.814 145.515 137.498V138.002H142.203V138.083C142.203 138.623 142.332 139.04 142.59 139.334C142.848 139.622 143.202 139.766 143.652 139.766C143.976 139.766 144.261 139.718 144.507 139.622C144.753 139.526 144.963 139.415 145.137 139.289L145.407 139.757Z" fill="#5C5C65"/>
<path d="M214 101C214 95.4772 218.477 91 224 91H300C305.523 91 310 95.4772 310 101V162C310 167.523 305.523 172 300 172H224C218.477 172 214 167.523 214 162V101Z" fill="#007E68"/>
<rect x="222" y="124" width="80" height="40" fill="white"/>
<path d="M247.82 134.976C247.772 134.872 247.728 134.784 247.688 134.712C247.648 134.632 247.612 134.552 247.58 134.472C247.548 134.392 247.516 134.308 247.484 134.22C247.452 134.124 247.42 134.012 247.388 133.884V141.312H246.56V132.66H247.592L250.52 138.996L253.46 132.66H254.456V141.312H253.628V133.884C253.604 134.012 253.576 134.124 253.544 134.22C253.52 134.308 253.492 134.392 253.46 134.472C253.428 134.552 253.392 134.632 253.352 134.712C253.312 134.784 253.268 134.872 253.22 134.976L250.904 139.872H250.112L247.82 134.976ZM258.863 134.724C259.735 134.724 260.411 134.98 260.891 135.492C261.371 136.004 261.611 136.728 261.611 137.664V138.468C261.611 139.404 261.371 140.128 260.891 140.64C260.411 141.152 259.735 141.408 258.863 141.408C257.991 141.408 257.315 141.152 256.835 140.64C256.355 140.128 256.115 139.404 256.115 138.468V137.664C256.115 136.72 256.355 135.996 256.835 135.492C257.315 134.98 257.991 134.724 258.863 134.724ZM258.863 140.688C259.463 140.688 259.931 140.504 260.267 140.136C260.611 139.76 260.783 139.188 260.783 138.42V137.712C260.783 136.944 260.611 136.376 260.267 136.008C259.931 135.632 259.463 135.444 258.863 135.444C258.263 135.444 257.791 135.632 257.447 136.008C257.111 136.376 256.943 136.944 256.943 137.712V138.42C256.943 139.188 257.111 139.76 257.447 140.136C257.791 140.504 258.263 140.688 258.863 140.688ZM267.401 140.46H267.389C267.205 140.788 266.933 141.028 266.573 141.18C266.213 141.332 265.845 141.408 265.469 141.408C265.093 141.408 264.749 141.344 264.437 141.216C264.125 141.096 263.853 140.92 263.621 140.688C263.389 140.448 263.209 140.156 263.081 139.812C262.953 139.468 262.889 139.076 262.889 138.636V137.496C262.889 137.056 262.953 136.664 263.081 136.32C263.209 135.976 263.385 135.688 263.609 135.456C263.841 135.216 264.113 135.036 264.425 134.916C264.745 134.788 265.089 134.724 265.457 134.724C265.937 134.724 266.337 134.816 266.657 135C266.977 135.184 267.221 135.396 267.389 135.636V132.24H268.205V141.312H267.401V140.46ZM263.705 138.516C263.705 139.212 263.869 139.748 264.197 140.124C264.525 140.5 264.961 140.688 265.505 140.688C265.769 140.688 266.013 140.656 266.237 140.592C266.469 140.52 266.669 140.416 266.837 140.28C267.005 140.136 267.137 139.96 267.233 139.752C267.337 139.536 267.389 139.284 267.389 138.996V137.052C267.389 136.86 267.341 136.672 267.245 136.488C267.157 136.296 267.029 136.124 266.861 135.972C266.693 135.812 266.493 135.684 266.261 135.588C266.029 135.492 265.777 135.444 265.505 135.444C264.953 135.444 264.513 135.636 264.185 136.02C263.865 136.396 263.705 136.928 263.705 137.616V138.516ZM274.242 137.652V137.544C274.242 136.864 274.086 136.344 273.774 135.984C273.462 135.624 273.022 135.444 272.454 135.444C271.878 135.444 271.43 135.636 271.11 136.02C270.798 136.396 270.642 136.904 270.642 137.544V137.652H274.242ZM274.914 140.676C274.658 140.86 274.338 141.028 273.954 141.18C273.57 141.332 273.106 141.408 272.562 141.408C271.698 141.408 271.026 141.152 270.546 140.64C270.066 140.12 269.826 139.388 269.826 138.444V137.64C269.826 136.72 270.058 136.004 270.522 135.492C270.994 134.98 271.638 134.724 272.454 134.724C273.302 134.724 273.946 134.988 274.386 135.516C274.834 136.036 275.058 136.752 275.058 137.664V138.336H270.642V138.444C270.642 139.164 270.814 139.72 271.158 140.112C271.502 140.496 271.974 140.688 272.574 140.688C273.006 140.688 273.386 140.624 273.714 140.496C274.042 140.368 274.322 140.22 274.554 140.052L274.914 140.676ZM276.665 132.24H277.481V141.312H276.665V132.24ZM246.71 146.66V147.404H243.938V155.312H243.098V147.404H240.338V146.66H246.71ZM250.651 149.684C250.427 149.596 250.167 149.552 249.871 149.552C249.607 149.552 249.367 149.604 249.151 149.708C248.935 149.812 248.751 149.956 248.599 150.14C248.447 150.324 248.331 150.544 248.251 150.8C248.171 151.056 248.131 151.336 248.131 151.64V155.312H247.315V148.844H248.119V149.984C248.191 149.832 248.279 149.68 248.383 149.528C248.495 149.376 248.627 149.24 248.779 149.12C248.939 149 249.115 148.904 249.307 148.832C249.507 148.76 249.731 148.724 249.979 148.724C250.163 148.724 250.327 148.736 250.471 148.76C250.623 148.776 250.767 148.808 250.903 148.856L250.651 149.684ZM253.673 155.408C253.057 155.408 252.557 155.244 252.173 154.916C251.789 154.588 251.597 154.136 251.597 153.56V153.296C251.597 152.768 251.789 152.34 252.173 152.012C252.557 151.684 253.125 151.52 253.877 151.52H255.701V150.92C255.701 150.448 255.569 150.088 255.305 149.84C255.049 149.584 254.669 149.456 254.165 149.456C253.813 149.456 253.477 149.52 253.157 149.648C252.837 149.768 252.537 149.924 252.257 150.116L251.861 149.492C252.165 149.284 252.501 149.104 252.869 148.952C253.245 148.8 253.681 148.724 254.177 148.724C254.905 148.724 255.473 148.904 255.881 149.264C256.297 149.624 256.505 150.132 256.505 150.788V155.312H255.713V154.52H255.701C255.637 154.624 255.541 154.732 255.413 154.844C255.293 154.948 255.149 155.044 254.981 155.132C254.613 155.316 254.177 155.408 253.673 155.408ZM255.701 152.204H253.889C253.369 152.204 252.993 152.308 252.761 152.516C252.529 152.724 252.413 152.996 252.413 153.332V153.524C252.413 153.732 252.453 153.912 252.533 154.064C252.613 154.208 252.717 154.328 252.845 154.424C252.981 154.52 253.129 154.592 253.289 154.64C253.457 154.68 253.625 154.7 253.793 154.7C254.049 154.7 254.281 154.668 254.489 154.604C254.697 154.54 254.897 154.448 255.089 154.328C255.265 154.216 255.409 154.08 255.521 153.92C255.641 153.752 255.701 153.544 255.701 153.296V152.204ZM258.355 148.844H259.171V155.312H258.355V148.844ZM258.319 146.696H259.207V147.608H258.319V146.696ZM263.916 148.724C264.66 148.724 265.232 148.928 265.632 149.336C266.04 149.736 266.244 150.276 266.244 150.956V155.312H265.428V151.16C265.428 150.928 265.404 150.712 265.356 150.512C265.308 150.304 265.22 150.124 265.092 149.972C264.972 149.812 264.804 149.688 264.588 149.6C264.38 149.512 264.116 149.468 263.796 149.468C263.524 149.468 263.272 149.52 263.04 149.624C262.816 149.72 262.624 149.848 262.464 150.008C262.304 150.168 262.176 150.344 262.08 150.536C261.992 150.728 261.948 150.92 261.948 151.112V155.312H261.132V148.844H261.936V149.744C262.008 149.624 262.104 149.504 262.224 149.384C262.344 149.256 262.488 149.144 262.656 149.048C262.824 148.952 263.012 148.876 263.22 148.82C263.428 148.756 263.66 148.724 263.916 148.724ZM268.152 148.844H268.968V155.312H268.152V148.844ZM268.116 146.696H269.004V147.608H268.116V146.696ZM273.713 148.724C274.457 148.724 275.029 148.928 275.429 149.336C275.837 149.736 276.041 150.276 276.041 150.956V155.312H275.225V151.16C275.225 150.928 275.201 150.712 275.153 150.512C275.105 150.304 275.017 150.124 274.889 149.972C274.769 149.812 274.601 149.688 274.385 149.6C274.177 149.512 273.913 149.468 273.593 149.468C273.321 149.468 273.069 149.52 272.837 149.624C272.613 149.72 272.421 149.848 272.261 150.008C272.101 150.168 271.973 150.344 271.877 150.536C271.789 150.728 271.745 150.92 271.745 151.112V155.312H270.929V148.844H271.733V149.744C271.805 149.624 271.901 149.504 272.021 149.384C272.141 149.256 272.285 149.144 272.453 149.048C272.621 148.952 272.809 148.876 273.017 148.82C273.225 148.756 273.457 148.724 273.713 148.724ZM282.113 154.34H282.101C281.917 154.668 281.645 154.908 281.285 155.06C280.933 155.212 280.569 155.288 280.193 155.288C279.817 155.288 279.473 155.224 279.161 155.096C278.849 154.976 278.577 154.8 278.345 154.568C278.113 154.328 277.933 154.036 277.805 153.692C277.677 153.348 277.613 152.956 277.613 152.516V151.496C277.613 151.056 277.677 150.664 277.805 150.32C277.933 149.976 278.109 149.688 278.333 149.456C278.565 149.216 278.837 149.036 279.149 148.916C279.469 148.788 279.813 148.724 280.181 148.724C280.661 148.724 281.061 148.816 281.381 149C281.709 149.184 281.957 149.396 282.125 149.636V148.844H282.929V155.204C282.929 156.124 282.689 156.816 282.209 157.28C281.737 157.752 281.097 157.988 280.289 157.988C279.833 157.988 279.425 157.928 279.065 157.808C278.713 157.688 278.401 157.524 278.129 157.316L278.501 156.68C278.653 156.784 278.797 156.868 278.933 156.932C279.069 157.004 279.205 157.06 279.341 157.1C279.485 157.148 279.633 157.18 279.785 157.196C279.937 157.212 280.105 157.22 280.289 157.22C280.889 157.22 281.341 157.056 281.645 156.728C281.957 156.408 282.113 155.908 282.113 155.228V154.34ZM278.429 152.396C278.429 153.092 278.593 153.628 278.921 154.004C279.249 154.38 279.685 154.568 280.229 154.568C280.493 154.568 280.737 154.536 280.961 154.472C281.193 154.4 281.393 154.296 281.561 154.16C281.729 154.016 281.861 153.84 281.957 153.632C282.061 153.416 282.113 153.164 282.113 152.876V151.052C282.113 150.86 282.065 150.672 281.969 150.488C281.881 150.296 281.753 150.124 281.585 149.972C281.417 149.812 281.217 149.684 280.985 149.588C280.753 149.492 280.501 149.444 280.229 149.444C279.677 149.444 279.237 149.636 278.909 150.02C278.589 150.396 278.429 150.928 278.429 151.616V152.396Z" fill="black"/>
<path d="M227.662 102.965V111.233H232.147V112.338H226.375V102.965H227.662ZM236.228 105.097C237.207 105.097 237.978 105.379 238.542 105.942C239.114 106.505 239.4 107.303 239.4 108.334V109.205C239.4 110.236 239.114 111.034 238.542 111.597C237.978 112.16 237.207 112.442 236.228 112.442C235.248 112.442 234.473 112.16 233.901 111.597C233.337 111.034 233.056 110.236 233.056 109.205V108.334C233.056 107.294 233.337 106.497 233.901 105.942C234.473 105.379 235.248 105.097 236.228 105.097ZM236.228 111.337C236.791 111.337 237.246 111.155 237.593 110.791C237.948 110.418 238.126 109.855 238.126 109.101V108.438C238.126 107.684 237.948 107.125 237.593 106.761C237.246 106.388 236.791 106.202 236.228 106.202C235.664 106.202 235.205 106.388 234.85 106.761C234.503 107.125 234.33 107.684 234.33 108.438V109.101C234.33 109.855 234.503 110.418 234.85 110.791C235.205 111.155 235.664 111.337 236.228 111.337ZM243.766 105.097C244.356 105.097 244.837 105.171 245.209 105.318C245.591 105.465 245.929 105.652 246.223 105.877L245.625 106.826C245.296 106.583 244.988 106.423 244.702 106.345C244.425 106.258 244.113 106.215 243.766 106.215C243.532 106.215 243.307 106.254 243.09 106.332C242.874 106.41 242.683 106.536 242.518 106.709C242.354 106.874 242.219 107.086 242.115 107.346C242.02 107.606 241.972 107.918 241.972 108.282V109.179C241.972 109.56 242.02 109.89 242.115 110.167C242.219 110.436 242.354 110.657 242.518 110.83C242.692 110.995 242.887 111.116 243.103 111.194C243.329 111.272 243.558 111.311 243.792 111.311C244.26 111.311 244.646 111.25 244.949 111.129C245.261 111.008 245.543 110.852 245.794 110.661L246.405 111.623C246.154 111.831 245.816 112.017 245.391 112.182C244.967 112.355 244.429 112.442 243.779 112.442C242.791 112.442 242.029 112.156 241.491 111.584C240.963 111.012 240.698 110.215 240.698 109.192V108.295C240.698 107.784 240.772 107.333 240.919 106.943C241.067 106.544 241.27 106.211 241.53 105.942C241.799 105.665 242.12 105.457 242.492 105.318C242.874 105.171 243.298 105.097 243.766 105.097ZM249.653 112.442C248.933 112.442 248.361 112.264 247.937 111.909C247.521 111.554 247.313 111.064 247.313 110.44V110.089C247.313 109.482 247.516 108.988 247.924 108.607C248.331 108.226 248.99 108.035 249.9 108.035H251.707V107.619C251.707 107.142 251.59 106.791 251.356 106.566C251.13 106.332 250.758 106.215 250.238 106.215C249.822 106.215 249.458 106.28 249.146 106.41C248.842 106.54 248.526 106.713 248.197 106.93L247.573 105.994C247.919 105.751 248.309 105.543 248.743 105.37C249.176 105.188 249.679 105.097 250.251 105.097C250.649 105.097 251.013 105.149 251.343 105.253C251.672 105.348 251.954 105.496 252.188 105.695C252.43 105.886 252.617 106.124 252.747 106.41C252.885 106.687 252.955 107.004 252.955 107.359V112.338H251.746V111.48H251.733C251.663 111.61 251.568 111.731 251.447 111.844C251.334 111.948 251.208 112.039 251.07 112.117C250.879 112.221 250.671 112.299 250.446 112.351C250.229 112.412 249.965 112.442 249.653 112.442ZM251.707 109.101H249.926C249.432 109.101 249.076 109.196 248.86 109.387C248.652 109.578 248.548 109.842 248.548 110.18V110.362C248.548 110.709 248.669 110.96 248.912 111.116C249.154 111.272 249.445 111.35 249.783 111.35C250.095 111.35 250.363 111.315 250.589 111.246C250.823 111.168 251.035 111.055 251.226 110.908C251.399 110.778 251.52 110.631 251.59 110.466C251.668 110.293 251.707 110.072 251.707 109.803V109.101ZM256.11 102.51V112.338H254.849V102.51H256.11ZM262.675 108.438C262.675 109.426 262.805 110.405 263.065 111.376C263.325 112.347 263.788 113.291 264.456 114.21H263.26C262.61 113.439 262.129 112.563 261.817 111.584C261.505 110.605 261.349 109.534 261.349 108.373V107.853C261.349 106.692 261.505 105.626 261.817 104.655C262.129 103.684 262.61 102.813 263.26 102.042H264.456C263.814 102.909 263.355 103.823 263.078 104.785C262.809 105.738 262.675 106.739 262.675 107.788V108.438ZM271.656 102.965V104.07H267.106V106.982H271.383V108.087H267.106V111.233H271.747V112.338H265.819V102.965H271.656ZM278.022 111.454C277.823 111.818 277.537 112.074 277.164 112.221C276.8 112.368 276.397 112.442 275.955 112.442C275.054 112.442 274.365 112.182 273.888 111.662C273.42 111.133 273.186 110.384 273.186 109.413V108.152C273.186 107.675 273.255 107.246 273.394 106.865C273.533 106.484 273.723 106.163 273.966 105.903C274.217 105.643 274.516 105.444 274.863 105.305C275.21 105.166 275.591 105.097 276.007 105.097C276.553 105.097 276.982 105.192 277.294 105.383C277.615 105.565 277.849 105.76 277.996 105.968V102.51H279.257V112.338H278.048V111.454H278.022ZM278.009 107.71C278.009 107.528 277.961 107.346 277.866 107.164C277.779 106.982 277.649 106.822 277.476 106.683C277.311 106.536 277.112 106.419 276.878 106.332C276.653 106.245 276.406 106.202 276.137 106.202C275.6 106.202 275.179 106.388 274.876 106.761C274.581 107.134 274.434 107.658 274.434 108.334V109.205C274.434 109.881 274.586 110.405 274.889 110.778C275.192 111.151 275.608 111.337 276.137 111.337C276.397 111.337 276.64 111.298 276.865 111.22C277.09 111.133 277.285 111.012 277.45 110.856C277.623 110.7 277.758 110.514 277.853 110.297C277.957 110.072 278.009 109.82 278.009 109.543V107.71ZM287.001 112.247C287.001 114.24 285.944 115.237 283.829 115.237C283.344 115.237 282.902 115.168 282.503 115.029C282.104 114.89 281.758 114.708 281.463 114.483L282.035 113.495C282.269 113.668 282.542 113.811 282.854 113.924C283.175 114.037 283.513 114.093 283.868 114.093C284.483 114.093 284.947 113.941 285.259 113.638C285.58 113.343 285.74 112.88 285.74 112.247V111.376C285.541 111.714 285.259 111.952 284.895 112.091C284.531 112.238 284.132 112.312 283.699 112.312C282.798 112.312 282.109 112.052 281.632 111.532C281.164 111.003 280.93 110.254 280.93 109.283V108.152C280.93 107.675 280.999 107.246 281.138 106.865C281.277 106.484 281.467 106.163 281.71 105.903C281.961 105.643 282.26 105.444 282.607 105.305C282.954 105.166 283.335 105.097 283.751 105.097C284.297 105.097 284.726 105.192 285.038 105.383C285.359 105.565 285.593 105.76 285.74 105.968V105.227H287.001V112.247ZM285.753 107.71C285.753 107.528 285.705 107.346 285.61 107.164C285.523 106.982 285.393 106.822 285.22 106.683C285.055 106.536 284.856 106.419 284.622 106.332C284.397 106.245 284.15 106.202 283.881 106.202C283.344 106.202 282.923 106.388 282.62 106.761C282.325 107.134 282.178 107.658 282.178 108.334V109.075C282.178 109.751 282.33 110.275 282.633 110.648C282.936 111.021 283.352 111.207 283.881 111.207C284.141 111.207 284.384 111.168 284.609 111.09C284.834 111.003 285.029 110.882 285.194 110.726C285.367 110.57 285.502 110.384 285.597 110.167C285.701 109.942 285.753 109.69 285.753 109.413V107.71ZM291.716 106.176C291.456 106.176 291.214 106.224 290.988 106.319C290.772 106.406 290.581 106.531 290.416 106.696C290.26 106.852 290.135 107.047 290.039 107.281C289.953 107.506 289.909 107.753 289.909 108.022V108.204H293.471V107.97C293.471 107.424 293.315 106.991 293.003 106.67C292.691 106.341 292.262 106.176 291.716 106.176ZM294.524 111.662C294.212 111.879 293.84 112.061 293.406 112.208C292.973 112.364 292.431 112.442 291.781 112.442C291.339 112.442 290.928 112.377 290.546 112.247C290.174 112.126 289.844 111.935 289.558 111.675C289.281 111.406 289.06 111.064 288.895 110.648C288.739 110.232 288.661 109.738 288.661 109.166V108.36C288.661 107.823 288.735 107.35 288.882 106.943C289.038 106.536 289.251 106.198 289.519 105.929C289.797 105.652 290.122 105.444 290.494 105.305C290.867 105.166 291.274 105.097 291.716 105.097C292.626 105.097 293.35 105.374 293.887 105.929C294.425 106.484 294.693 107.268 294.693 108.282V109.231H289.909V109.283C289.909 109.959 290.087 110.475 290.442 110.83C290.798 111.177 291.261 111.35 291.833 111.35C292.301 111.35 292.7 111.294 293.029 111.181C293.367 111.068 293.688 110.912 293.991 110.713L294.524 111.662ZM297.391 107.788C297.391 106.739 297.252 105.738 296.975 104.785C296.706 103.823 296.251 102.909 295.61 102.042H296.806C297.456 102.813 297.937 103.684 298.249 104.655C298.561 105.626 298.717 106.692 298.717 107.853V108.373C298.717 109.534 298.561 110.605 298.249 111.584C297.937 112.563 297.456 113.439 296.806 114.21H295.61C296.277 113.291 296.741 112.347 297.001 111.376C297.261 110.405 297.391 109.426 297.391 108.438V107.788Z" fill="white"/>
<path d="M0 101C0 95.4772 4.47715 91 10 91H86C91.5228 91 96 95.4772 96 101V162C96 167.523 91.5228 172 86 172H10C4.47715 172 0 167.523 0 162V101Z" fill="#00967B"/>
<path d="M8 124H88V164H8V124Z" fill="white"/>
<path d="M33.8205 134.976C33.7725 134.872 33.7285 134.784 33.6885 134.712C33.6485 134.632 33.6125 134.552 33.5805 134.472C33.5485 134.392 33.5165 134.308 33.4845 134.22C33.4525 134.124 33.4205 134.012 33.3885 133.884V141.312H32.5605V132.66H33.5925L36.5205 138.996L39.4605 132.66H40.4565V141.312H39.6285V133.884C39.6045 134.012 39.5765 134.124 39.5445 134.22C39.5205 134.308 39.4925 134.392 39.4605 134.472C39.4285 134.552 39.3925 134.632 39.3525 134.712C39.3125 134.784 39.2685 134.872 39.2205 134.976L36.9045 139.872H36.1125L33.8205 134.976ZM44.8631 134.724C45.7351 134.724 46.4111 134.98 46.8911 135.492C47.3711 136.004 47.6111 136.728 47.6111 137.664V138.468C47.6111 139.404 47.3711 140.128 46.8911 140.64C46.4111 141.152 45.7351 141.408 44.8631 141.408C43.9911 141.408 43.3151 141.152 42.8351 140.64C42.3551 140.128 42.1151 139.404 42.1151 138.468V137.664C42.1151 136.72 42.3551 135.996 42.8351 135.492C43.3151 134.98 43.9911 134.724 44.8631 134.724ZM44.8631 140.688C45.4631 140.688 45.9311 140.504 46.2671 140.136C46.6111 139.76 46.7831 139.188 46.7831 138.42V137.712C46.7831 136.944 46.6111 136.376 46.2671 136.008C45.9311 135.632 45.4631 135.444 44.8631 135.444C44.2631 135.444 43.7911 135.632 43.4471 136.008C43.1111 136.376 42.9431 136.944 42.9431 137.712V138.42C42.9431 139.188 43.1111 139.76 43.4471 140.136C43.7911 140.504 44.2631 140.688 44.8631 140.688ZM53.4008 140.46H53.3888C53.2048 140.788 52.9328 141.028 52.5728 141.18C52.2128 141.332 51.8448 141.408 51.4688 141.408C51.0928 141.408 50.7488 141.344 50.4368 141.216C50.1248 141.096 49.8528 140.92 49.6208 140.688C49.3888 140.448 49.2088 140.156 49.0808 139.812C48.9528 139.468 48.8888 139.076 48.8888 138.636V137.496C48.8888 137.056 48.9528 136.664 49.0808 136.32C49.2088 135.976 49.3848 135.688 49.6088 135.456C49.8408 135.216 50.1128 135.036 50.4248 134.916C50.7448 134.788 51.0888 134.724 51.4568 134.724C51.9368 134.724 52.3368 134.816 52.6568 135C52.9768 135.184 53.2208 135.396 53.3888 135.636V132.24H54.2048V141.312H53.4008V140.46ZM49.7048 138.516C49.7048 139.212 49.8688 139.748 50.1968 140.124C50.5248 140.5 50.9608 140.688 51.5048 140.688C51.7688 140.688 52.0128 140.656 52.2368 140.592C52.4688 140.52 52.6688 140.416 52.8368 140.28C53.0048 140.136 53.1368 139.96 53.2328 139.752C53.3368 139.536 53.3888 139.284 53.3888 138.996V137.052C53.3888 136.86 53.3408 136.672 53.2448 136.488C53.1568 136.296 53.0288 136.124 52.8608 135.972C52.6928 135.812 52.4928 135.684 52.2608 135.588C52.0288 135.492 51.7768 135.444 51.5048 135.444C50.9528 135.444 50.5128 135.636 50.1848 136.02C49.8648 136.396 49.7048 136.928 49.7048 137.616V138.516ZM60.242 137.652V137.544C60.242 136.864 60.086 136.344 59.774 135.984C59.462 135.624 59.022 135.444 58.454 135.444C57.878 135.444 57.43 135.636 57.11 136.02C56.798 136.396 56.642 136.904 56.642 137.544V137.652H60.242ZM60.914 140.676C60.658 140.86 60.338 141.028 59.954 141.18C59.57 141.332 59.106 141.408 58.562 141.408C57.698 141.408 57.026 141.152 56.546 140.64C56.066 140.12 55.826 139.388 55.826 138.444V137.64C55.826 136.72 56.058 136.004 56.522 135.492C56.994 134.98 57.638 134.724 58.454 134.724C59.302 134.724 59.946 134.988 60.386 135.516C60.834 136.036 61.058 136.752 61.058 137.664V138.336H56.642V138.444C56.642 139.164 56.814 139.72 57.158 140.112C57.502 140.496 57.974 140.688 58.574 140.688C59.006 140.688 59.386 140.624 59.714 140.496C60.042 140.368 60.322 140.22 60.554 140.052L60.914 140.676ZM62.6651 132.24H63.4811V141.312H62.6651V132.24ZM32.7097 146.66V147.404H29.9377V155.312H29.0977V147.404H26.3377V146.66H32.7097ZM36.6515 149.684C36.4275 149.596 36.1675 149.552 35.8715 149.552C35.6075 149.552 35.3675 149.604 35.1515 149.708C34.9355 149.812 34.7515 149.956 34.5995 150.14C34.4475 150.324 34.3315 150.544 34.2515 150.8C34.1715 151.056 34.1315 151.336 34.1315 151.64V155.312H33.3155V148.844H34.1195V149.984C34.1915 149.832 34.2795 149.68 34.3835 149.528C34.4955 149.376 34.6275 149.24 34.7795 149.12C34.9395 149 35.1155 148.904 35.3075 148.832C35.5075 148.76 35.7315 148.724 35.9795 148.724C36.1635 148.724 36.3275 148.736 36.4715 148.76C36.6235 148.776 36.7675 148.808 36.9035 148.856L36.6515 149.684ZM39.6729 155.408C39.0569 155.408 38.5569 155.244 38.1729 154.916C37.7889 154.588 37.5969 154.136 37.5969 153.56V153.296C37.5969 152.768 37.7889 152.34 38.1729 152.012C38.5569 151.684 39.1249 151.52 39.8769 151.52H41.7009V150.92C41.7009 150.448 41.5689 150.088 41.3049 149.84C41.0489 149.584 40.6689 149.456 40.1649 149.456C39.8129 149.456 39.4769 149.52 39.1569 149.648C38.8369 149.768 38.5369 149.924 38.2569 150.116L37.8609 149.492C38.1649 149.284 38.5009 149.104 38.8689 148.952C39.2449 148.8 39.6809 148.724 40.1769 148.724C40.9049 148.724 41.4729 148.904 41.8809 149.264C42.2969 149.624 42.5049 150.132 42.5049 150.788V155.312H41.7129V154.52H41.7009C41.6369 154.624 41.5409 154.732 41.4129 154.844C41.2929 154.948 41.1489 155.044 40.9809 155.132C40.6129 155.316 40.1769 155.408 39.6729 155.408ZM41.7009 152.204H39.8889C39.3689 152.204 38.9929 152.308 38.7609 152.516C38.5289 152.724 38.4129 152.996 38.4129 153.332V153.524C38.4129 153.732 38.4529 153.912 38.5329 154.064C38.6129 154.208 38.7169 154.328 38.8449 154.424C38.9809 154.52 39.1289 154.592 39.2889 154.64C39.4569 154.68 39.6249 154.7 39.7929 154.7C40.0489 154.7 40.2809 154.668 40.4889 154.604C40.6969 154.54 40.8969 154.448 41.0889 154.328C41.2649 154.216 41.4089 154.08 41.5209 153.92C41.6409 153.752 41.7009 153.544 41.7009 153.296V152.204ZM44.3554 148.844H45.1714V155.312H44.3554V148.844ZM44.3194 146.696H45.2074V147.608H44.3194V146.696ZM49.9159 148.724C50.6599 148.724 51.2319 148.928 51.6319 149.336C52.0399 149.736 52.2439 150.276 52.2439 150.956V155.312H51.4279V151.16C51.4279 150.928 51.4039 150.712 51.3559 150.512C51.3079 150.304 51.2199 150.124 51.0919 149.972C50.9719 149.812 50.8039 149.688 50.5879 149.6C50.3799 149.512 50.1159 149.468 49.7959 149.468C49.5239 149.468 49.2719 149.52 49.0399 149.624C48.8159 149.72 48.6239 149.848 48.4639 150.008C48.3039 150.168 48.1759 150.344 48.0799 150.536C47.9919 150.728 47.9479 150.92 47.9479 151.112V155.312H47.1319V148.844H47.9359V149.744C48.0079 149.624 48.1039 149.504 48.2239 149.384C48.3439 149.256 48.4879 149.144 48.6559 149.048C48.8239 148.952 49.0119 148.876 49.2199 148.82C49.4279 148.756 49.6599 148.724 49.9159 148.724ZM54.1523 148.844H54.9683V155.312H54.1523V148.844ZM54.1163 146.696H55.0043V147.608H54.1163V146.696ZM59.7128 148.724C60.4568 148.724 61.0288 148.928 61.4288 149.336C61.8368 149.736 62.0408 150.276 62.0408 150.956V155.312H61.2248V151.16C61.2248 150.928 61.2008 150.712 61.1528 150.512C61.1048 150.304 61.0168 150.124 60.8888 149.972C60.7688 149.812 60.6008 149.688 60.3848 149.6C60.1768 149.512 59.9128 149.468 59.5928 149.468C59.3208 149.468 59.0688 149.52 58.8368 149.624C58.6128 149.72 58.4208 149.848 58.2608 150.008C58.1008 150.168 57.9728 150.344 57.8768 150.536C57.7888 150.728 57.7448 150.92 57.7448 151.112V155.312H56.9288V148.844H57.7327V149.744C57.8048 149.624 57.9008 149.504 58.0208 149.384C58.1408 149.256 58.2848 149.144 58.4528 149.048C58.6208 148.952 58.8088 148.876 59.0168 148.82C59.2248 148.756 59.4568 148.724 59.7128 148.724ZM68.1131 154.34H68.1011C67.9171 154.668 67.6451 154.908 67.2851 155.06C66.9331 155.212 66.5691 155.288 66.1931 155.288C65.8171 155.288 65.4731 155.224 65.1611 155.096C64.8491 154.976 64.5771 154.8 64.3451 154.568C64.1131 154.328 63.9331 154.036 63.8051 153.692C63.6771 153.348 63.6131 152.956 63.6131 152.516V151.496C63.6131 151.056 63.6771 150.664 63.8051 150.32C63.9331 149.976 64.1091 149.688 64.3331 149.456C64.5651 149.216 64.8371 149.036 65.1491 148.916C65.4691 148.788 65.8131 148.724 66.1811 148.724C66.6611 148.724 67.0611 148.816 67.3811 149C67.7091 149.184 67.9571 149.396 68.1251 149.636V148.844H68.9291V155.204C68.9291 156.124 68.6891 156.816 68.2091 157.28C67.7371 157.752 67.0971 157.988 66.2891 157.988C65.8331 157.988 65.4251 157.928 65.0651 157.808C64.7131 157.688 64.4011 157.524 64.1291 157.316L64.5011 156.68C64.6531 156.784 64.7971 156.868 64.9331 156.932C65.0691 157.004 65.2051 157.06 65.3411 157.1C65.4851 157.148 65.6331 157.18 65.7851 157.196C65.9371 157.212 66.1051 157.22 66.2891 157.22C66.8891 157.22 67.3411 157.056 67.6451 156.728C67.9571 156.408 68.1131 155.908 68.1131 155.228V154.34ZM64.4291 152.396C64.4291 153.092 64.5931 153.628 64.9211 154.004C65.2491 154.38 65.6851 154.568 66.2291 154.568C66.4931 154.568 66.7371 154.536 66.9611 154.472C67.1931 154.4 67.3931 154.296 67.5611 154.16C67.7291 154.016 67.8611 153.84 67.9571 153.632C68.0611 153.416 68.1131 153.164 68.1131 152.876V151.052C68.1131 150.86 68.0651 150.672 67.9691 150.488C67.8811 150.296 67.7531 150.124 67.5851 149.972C67.4171 149.812 67.2171 149.684 66.9851 149.588C66.7531 149.492 66.5011 149.444 66.2291 149.444C65.6771 149.444 65.2371 149.636 64.9091 150.02C64.5891 150.396 64.4291 150.928 64.4291 151.616V152.396Z" fill="black"/>
<path d="M13.6621 102.965V111.233H18.1471V112.338H12.3751V102.965H13.6621ZM22.2278 105.097C23.2071 105.097 23.9784 105.379 24.5418 105.942C25.1138 106.505 25.3998 107.303 25.3998 108.334V109.205C25.3998 110.236 25.1138 111.034 24.5418 111.597C23.9784 112.16 23.2071 112.442 22.2278 112.442C21.2484 112.442 20.4728 112.16 19.9008 111.597C19.3374 111.034 19.0558 110.236 19.0558 109.205V108.334C19.0558 107.294 19.3374 106.497 19.9008 105.942C20.4728 105.379 21.2484 105.097 22.2278 105.097ZM22.2278 111.337C22.7911 111.337 23.2461 111.155 23.5928 110.791C23.9481 110.418 24.1258 109.855 24.1258 109.101V108.438C24.1258 107.684 23.9481 107.125 23.5928 106.761C23.2461 106.388 22.7911 106.202 22.2278 106.202C21.6644 106.202 21.2051 106.388 20.8498 106.761C20.5031 107.125 20.3298 107.684 20.3298 108.438V109.101C20.3298 109.855 20.5031 110.418 20.8498 110.791C21.2051 111.155 21.6644 111.337 22.2278 111.337ZM29.7663 105.097C30.3557 105.097 30.8367 105.171 31.2093 105.318C31.5907 105.465 31.9287 105.652 32.2233 105.877L31.6253 106.826C31.296 106.583 30.9883 106.423 30.7023 106.345C30.425 106.258 30.113 106.215 29.7663 106.215C29.5323 106.215 29.307 106.254 29.0903 106.332C28.8737 106.41 28.683 106.536 28.5183 106.709C28.3537 106.874 28.2193 107.086 28.1153 107.346C28.02 107.606 27.9723 107.918 27.9723 108.282V109.179C27.9723 109.56 28.02 109.89 28.1153 110.167C28.2193 110.436 28.3537 110.657 28.5183 110.83C28.6917 110.995 28.8867 111.116 29.1033 111.194C29.3287 111.272 29.5583 111.311 29.7923 111.311C30.2603 111.311 30.646 111.25 30.9493 111.129C31.2613 111.008 31.543 110.852 31.7943 110.661L32.4053 111.623C32.154 111.831 31.816 112.017 31.3913 112.182C30.9667 112.355 30.4293 112.442 29.7793 112.442C28.7913 112.442 28.0287 112.156 27.4913 111.584C26.9627 111.012 26.6983 110.215 26.6983 109.192V108.295C26.6983 107.784 26.772 107.333 26.9193 106.943C27.0667 106.544 27.2703 106.211 27.5303 105.942C27.799 105.665 28.1197 105.457 28.4923 105.318C28.8737 105.171 29.2983 105.097 29.7663 105.097ZM35.6526 112.442C34.9333 112.442 34.3613 112.264 33.9366 111.909C33.5206 111.554 33.3126 111.064 33.3126 110.44V110.089C33.3126 109.482 33.5163 108.988 33.9236 108.607C34.3309 108.226 34.9896 108.035 35.8996 108.035H37.7066V107.619C37.7066 107.142 37.5896 106.791 37.3556 106.566C37.1303 106.332 36.7576 106.215 36.2376 106.215C35.8216 106.215 35.4576 106.28 35.1456 106.41C34.8423 106.54 34.5259 106.713 34.1966 106.93L33.5726 105.994C33.9193 105.751 34.3093 105.543 34.7426 105.37C35.1759 105.188 35.6786 105.097 36.2506 105.097C36.6493 105.097 37.0133 105.149 37.3426 105.253C37.6719 105.348 37.9536 105.496 38.1876 105.695C38.4303 105.886 38.6166 106.124 38.7466 106.41C38.8853 106.687 38.9546 107.004 38.9546 107.359V112.338H37.7456V111.48H37.7326C37.6633 111.61 37.5679 111.731 37.4466 111.844C37.3339 111.948 37.2083 112.039 37.0696 112.117C36.8789 112.221 36.6709 112.299 36.4456 112.351C36.2289 112.412 35.9646 112.442 35.6526 112.442ZM37.7066 109.101H35.9256C35.4316 109.101 35.0763 109.196 34.8596 109.387C34.6516 109.578 34.5476 109.842 34.5476 110.18V110.362C34.5476 110.709 34.6689 110.96 34.9116 111.116C35.1543 111.272 35.4446 111.35 35.7826 111.35C36.0946 111.35 36.3633 111.315 36.5886 111.246C36.8226 111.168 37.0349 111.055 37.2256 110.908C37.3989 110.778 37.5203 110.631 37.5896 110.466C37.6676 110.293 37.7066 110.072 37.7066 109.803V109.101ZM42.1104 102.51V112.338H40.8494V102.51H42.1104ZM48.6745 108.438C48.6745 109.426 48.8045 110.405 49.0645 111.376C49.3245 112.347 49.7882 113.291 50.4555 114.21H49.2595C48.6095 113.439 48.1285 112.563 47.8165 111.584C47.5045 110.605 47.3485 109.534 47.3485 108.373V107.853C47.3485 106.692 47.5045 105.626 47.8165 104.655C48.1285 103.684 48.6095 102.813 49.2595 102.042H50.4555C49.8142 102.909 49.3549 103.823 49.0775 104.785C48.8089 105.738 48.6745 106.739 48.6745 107.788V108.438ZM57.6564 102.965V104.07H53.1064V106.982H57.3834V108.087H53.1064V111.233H57.7474V112.338H51.8194V102.965H57.6564ZM64.0219 111.454C63.8226 111.818 63.5366 112.074 63.1639 112.221C62.7999 112.368 62.3969 112.442 61.9549 112.442C61.0536 112.442 60.3646 112.182 59.8879 111.662C59.4199 111.133 59.1859 110.384 59.1859 109.413V108.152C59.1859 107.675 59.2553 107.246 59.3939 106.865C59.5326 106.484 59.7233 106.163 59.9659 105.903C60.2173 105.643 60.5163 105.444 60.8629 105.305C61.2096 105.166 61.5909 105.097 62.0069 105.097C62.5529 105.097 62.9819 105.192 63.2939 105.383C63.6146 105.565 63.8486 105.76 63.9959 105.968V102.51H65.2569V112.338H64.0479V111.454H64.0219ZM64.0089 107.71C64.0089 107.528 63.9613 107.346 63.8659 107.164C63.7793 106.982 63.6493 106.822 63.4759 106.683C63.3113 106.536 63.1119 106.419 62.8779 106.332C62.6526 106.245 62.4056 106.202 62.1369 106.202C61.5996 106.202 61.1793 106.388 60.8759 106.761C60.5813 107.134 60.4339 107.658 60.4339 108.334V109.205C60.4339 109.881 60.5856 110.405 60.8889 110.778C61.1923 111.151 61.6083 111.337 62.1369 111.337C62.3969 111.337 62.6396 111.298 62.8649 111.22C63.0903 111.133 63.2853 111.012 63.4499 110.856C63.6233 110.7 63.7576 110.514 63.8529 110.297C63.9569 110.072 64.0089 109.82 64.0089 109.543V107.71ZM73.0011 112.247C73.0011 114.24 71.9438 115.237 69.8291 115.237C69.3438 115.237 68.9018 115.168 68.5031 115.029C68.1044 114.89 67.7578 114.708 67.4631 114.483L68.0351 113.495C68.2691 113.668 68.5421 113.811 68.8541 113.924C69.1748 114.037 69.5128 114.093 69.8681 114.093C70.4834 114.093 70.9471 113.941 71.2591 113.638C71.5798 113.343 71.7401 112.88 71.7401 112.247V111.376C71.5408 111.714 71.2591 111.952 70.8951 112.091C70.5311 112.238 70.1324 112.312 69.6991 112.312C68.7978 112.312 68.1088 112.052 67.6321 111.532C67.1641 111.003 66.9301 110.254 66.9301 109.283V108.152C66.9301 107.675 66.9994 107.246 67.1381 106.865C67.2768 106.484 67.4674 106.163 67.7101 105.903C67.9614 105.643 68.2604 105.444 68.6071 105.305C68.9538 105.166 69.3351 105.097 69.7511 105.097C70.2971 105.097 70.7261 105.192 71.0381 105.383C71.3588 105.565 71.5928 105.76 71.7401 105.968V105.227H73.0011V112.247ZM71.7531 107.71C71.7531 107.528 71.7054 107.346 71.6101 107.164C71.5234 106.982 71.3934 106.822 71.2201 106.683C71.0554 106.536 70.8561 106.419 70.6221 106.332C70.3968 106.245 70.1498 106.202 69.8811 106.202C69.3438 106.202 68.9234 106.388 68.6201 106.761C68.3254 107.134 68.1781 107.658 68.1781 108.334V109.075C68.1781 109.751 68.3298 110.275 68.6331 110.648C68.9364 111.021 69.3524 111.207 69.8811 111.207C70.1411 111.207 70.3838 111.168 70.6091 111.09C70.8344 111.003 71.0294 110.882 71.1941 110.726C71.3674 110.57 71.5018 110.384 71.5971 110.167C71.7011 109.942 71.7531 109.69 71.7531 109.413V107.71ZM77.7162 106.176C77.4562 106.176 77.2136 106.224 76.9882 106.319C76.7716 106.406 76.5809 106.531 76.4162 106.696C76.2602 106.852 76.1346 107.047 76.0392 107.281C75.9526 107.506 75.9092 107.753 75.9092 108.022V108.204H79.4712V107.97C79.4712 107.424 79.3152 106.991 79.0032 106.67C78.6912 106.341 78.2622 106.176 77.7162 106.176ZM80.5242 111.662C80.2122 111.879 79.8396 112.061 79.4062 112.208C78.9729 112.364 78.4312 112.442 77.7812 112.442C77.3392 112.442 76.9276 112.377 76.5462 112.247C76.1736 112.126 75.8442 111.935 75.5582 111.675C75.2809 111.406 75.0599 111.064 74.8952 110.648C74.7392 110.232 74.6612 109.738 74.6612 109.166V108.36C74.6612 107.823 74.7349 107.35 74.8822 106.943C75.0382 106.536 75.2506 106.198 75.5192 105.929C75.7966 105.652 76.1216 105.444 76.4942 105.305C76.8669 105.166 77.2742 105.097 77.7162 105.097C78.6262 105.097 79.3499 105.374 79.8872 105.929C80.4246 106.484 80.6932 107.268 80.6932 108.282V109.231H75.9092V109.283C75.9092 109.959 76.0869 110.475 76.4422 110.83C76.7976 111.177 77.2612 111.35 77.8332 111.35C78.3012 111.35 78.6999 111.294 79.0292 111.181C79.3672 111.068 79.6879 110.912 79.9912 110.713L80.5242 111.662ZM83.391 107.788C83.391 106.739 83.2524 105.738 82.975 104.785C82.7064 103.823 82.2514 102.909 81.61 102.042H82.806C83.456 102.813 83.937 103.684 84.249 104.655C84.561 105.626 84.717 106.692 84.717 107.853V108.373C84.717 109.534 84.561 110.605 84.249 111.584C83.937 112.563 83.456 113.439 82.806 114.21H81.61C82.2774 113.291 82.741 112.347 83.001 111.376C83.261 110.405 83.391 109.426 83.391 108.438V107.788Z" fill="white"/>
<path d="M161 172L163.887 167H158.113L161 172ZM160.5 91V167.5H161.5V91H160.5Z" fill="#2C8DFF"/>
<path d="M150 91L147.113 96H152.887L150 91ZM149.5 95.5V172H150.5V95.5H149.5Z" fill="#00AD8F"/>
<path d="M102 10C102 4.47715 106.477 0 112 0H198C203.523 0 208 4.47715 208 10V71C208 76.5229 203.523 81 198 81H112C106.477 81 102 76.5228 102 71V10Z" fill="#004596"/>
<rect x="110" y="33" width="90" height="40" fill="white"/>
<path d="M124.511 48.528C125.119 48.528 125.647 48.604 126.095 48.756C126.543 48.9 126.947 49.112 127.307 49.392L126.875 50.052C126.483 49.772 126.103 49.58 125.735 49.476C125.375 49.372 124.967 49.32 124.511 49.32C124.095 49.32 123.731 49.396 123.419 49.548C123.107 49.692 122.843 49.9 122.627 50.172C122.419 50.436 122.263 50.756 122.159 51.132C122.055 51.5 122.003 51.912 122.003 52.368V53.472C122.003 55.584 122.895 56.64 124.679 56.64C124.855 56.64 125.035 56.632 125.219 56.616C125.411 56.6 125.595 56.576 125.771 56.544C125.955 56.504 126.127 56.456 126.287 56.4C126.447 56.344 126.587 56.28 126.707 56.208V53.472H124.667V52.728H127.523V56.676C127.147 56.948 126.715 57.144 126.227 57.264C125.747 57.384 125.219 57.444 124.643 57.444C123.451 57.444 122.571 57.096 122.003 56.4C121.435 55.704 121.151 54.728 121.151 53.472V52.404C121.151 51.172 121.435 50.22 122.003 49.548C122.579 48.868 123.415 48.528 124.511 48.528ZM129.206 48.24H130.022V57.312H129.206V48.24ZM134.385 50.724C135.257 50.724 135.933 50.98 136.413 51.492C136.893 52.004 137.133 52.728 137.133 53.664V54.468C137.133 55.404 136.893 56.128 136.413 56.64C135.933 57.152 135.257 57.408 134.385 57.408C133.513 57.408 132.837 57.152 132.357 56.64C131.877 56.128 131.637 55.404 131.637 54.468V53.664C131.637 52.72 131.877 51.996 132.357 51.492C132.837 50.98 133.513 50.724 134.385 50.724ZM134.385 56.688C134.985 56.688 135.453 56.504 135.789 56.136C136.133 55.76 136.305 55.188 136.305 54.42V53.712C136.305 52.944 136.133 52.376 135.789 52.008C135.453 51.632 134.985 51.444 134.385 51.444C133.785 51.444 133.313 51.632 132.969 52.008C132.633 52.376 132.465 52.944 132.465 53.712V54.42C132.465 55.188 132.633 55.76 132.969 56.136C133.313 56.504 133.785 56.688 134.385 56.688ZM139.561 56.544V57.312H138.757V48.24H139.573V51.756C139.765 51.428 140.033 51.176 140.377 51C140.721 50.816 141.097 50.724 141.505 50.724C141.889 50.724 142.237 50.788 142.549 50.916C142.869 51.036 143.141 51.216 143.365 51.456C143.589 51.688 143.761 51.976 143.881 52.32C144.009 52.664 144.073 53.056 144.073 53.496V54.636C144.073 55.076 144.009 55.468 143.881 55.812C143.753 56.156 143.573 56.448 143.341 56.688C143.117 56.92 142.845 57.096 142.525 57.216C142.213 57.344 141.873 57.408 141.505 57.408C141.049 57.408 140.657 57.32 140.329 57.144C140.001 56.976 139.749 56.776 139.573 56.544H139.561ZM143.257 53.616C143.257 52.92 143.093 52.388 142.765 52.02C142.445 51.652 142.009 51.468 141.457 51.468C141.233 51.468 141.009 51.508 140.785 51.588C140.561 51.668 140.357 51.788 140.173 51.948C139.997 52.1 139.853 52.288 139.741 52.512C139.629 52.728 139.573 52.98 139.573 53.268V55.164C139.573 55.356 139.617 55.544 139.705 55.728C139.801 55.904 139.933 56.064 140.101 56.208C140.269 56.352 140.465 56.468 140.689 56.556C140.921 56.644 141.177 56.688 141.457 56.688C142.009 56.688 142.445 56.5 142.765 56.124C143.093 55.74 143.257 55.204 143.257 54.516V53.616ZM147.341 57.408C146.725 57.408 146.225 57.244 145.841 56.916C145.457 56.588 145.265 56.136 145.265 55.56V55.296C145.265 54.768 145.457 54.34 145.841 54.012C146.225 53.684 146.793 53.52 147.545 53.52H149.369V52.92C149.369 52.448 149.237 52.088 148.973 51.84C148.717 51.584 148.337 51.456 147.833 51.456C147.481 51.456 147.145 51.52 146.825 51.648C146.505 51.768 146.205 51.924 145.925 52.116L145.529 51.492C145.833 51.284 146.169 51.104 146.537 50.952C146.913 50.8 147.349 50.724 147.845 50.724C148.573 50.724 149.141 50.904 149.549 51.264C149.965 51.624 150.173 52.132 150.173 52.788V57.312H149.381V56.52H149.369C149.305 56.624 149.209 56.732 149.081 56.844C148.961 56.948 148.817 57.044 148.649 57.132C148.281 57.316 147.845 57.408 147.341 57.408ZM149.369 54.204H147.557C147.037 54.204 146.661 54.308 146.429 54.516C146.197 54.724 146.081 54.996 146.081 55.332V55.524C146.081 55.732 146.121 55.912 146.201 56.064C146.281 56.208 146.385 56.328 146.513 56.424C146.649 56.52 146.797 56.592 146.957 56.64C147.125 56.68 147.293 56.7 147.461 56.7C147.717 56.7 147.949 56.668 148.157 56.604C148.365 56.54 148.565 56.448 148.757 56.328C148.933 56.216 149.077 56.08 149.189 55.92C149.309 55.752 149.369 55.544 149.369 55.296V54.204ZM151.987 48.24H152.803V57.312H151.987V48.24ZM159.014 50.976C158.966 50.872 158.922 50.784 158.882 50.712C158.842 50.632 158.806 50.552 158.774 50.472C158.742 50.392 158.71 50.308 158.678 50.22C158.646 50.124 158.614 50.012 158.582 49.884V57.312H157.754V48.66H158.786L161.714 54.996L164.654 48.66H165.65V57.312H164.822V49.884C164.798 50.012 164.77 50.124 164.738 50.22C164.714 50.308 164.686 50.392 164.654 50.472C164.622 50.552 164.586 50.632 164.546 50.712C164.506 50.784 164.462 50.872 164.414 50.976L162.098 55.872H161.306L159.014 50.976ZM170.056 50.724C170.928 50.724 171.604 50.98 172.084 51.492C172.564 52.004 172.804 52.728 172.804 53.664V54.468C172.804 55.404 172.564 56.128 172.084 56.64C171.604 57.152 170.928 57.408 170.056 57.408C169.184 57.408 168.508 57.152 168.028 56.64C167.548 56.128 167.308 55.404 167.308 54.468V53.664C167.308 52.72 167.548 51.996 168.028 51.492C168.508 50.98 169.184 50.724 170.056 50.724ZM170.056 56.688C170.656 56.688 171.124 56.504 171.46 56.136C171.804 55.76 171.976 55.188 171.976 54.42V53.712C171.976 52.944 171.804 52.376 171.46 52.008C171.124 51.632 170.656 51.444 170.056 51.444C169.456 51.444 168.984 51.632 168.64 52.008C168.304 52.376 168.136 52.944 168.136 53.712V54.42C168.136 55.188 168.304 55.76 168.64 56.136C168.984 56.504 169.456 56.688 170.056 56.688ZM178.594 56.46H178.582C178.398 56.788 178.126 57.028 177.766 57.18C177.406 57.332 177.038 57.408 176.662 57.408C176.286 57.408 175.942 57.344 175.63 57.216C175.318 57.096 175.046 56.92 174.814 56.688C174.582 56.448 174.402 56.156 174.274 55.812C174.146 55.468 174.082 55.076 174.082 54.636V53.496C174.082 53.056 174.146 52.664 174.274 52.32C174.402 51.976 174.578 51.688 174.802 51.456C175.034 51.216 175.306 51.036 175.618 50.916C175.938 50.788 176.282 50.724 176.65 50.724C177.13 50.724 177.53 50.816 177.85 51C178.17 51.184 178.414 51.396 178.582 51.636V48.24H179.398V57.312H178.594V56.46ZM174.898 54.516C174.898 55.212 175.062 55.748 175.39 56.124C175.718 56.5 176.154 56.688 176.698 56.688C176.962 56.688 177.206 56.656 177.43 56.592C177.662 56.52 177.862 56.416 178.03 56.28C178.198 56.136 178.33 55.96 178.426 55.752C178.53 55.536 178.582 55.284 178.582 54.996V53.052C178.582 52.86 178.534 52.672 178.438 52.488C178.35 52.296 178.222 52.124 178.054 51.972C177.886 51.812 177.686 51.684 177.454 51.588C177.222 51.492 176.97 51.444 176.698 51.444C176.146 51.444 175.706 51.636 175.378 52.02C175.058 52.396 174.898 52.928 174.898 53.616V54.516ZM185.435 53.652V53.544C185.435 52.864 185.279 52.344 184.967 51.984C184.655 51.624 184.215 51.444 183.647 51.444C183.071 51.444 182.623 51.636 182.303 52.02C181.991 52.396 181.835 52.904 181.835 53.544V53.652H185.435ZM186.107 56.676C185.851 56.86 185.531 57.028 185.147 57.18C184.763 57.332 184.299 57.408 183.755 57.408C182.891 57.408 182.219 57.152 181.739 56.64C181.259 56.12 181.019 55.388 181.019 54.444V53.64C181.019 52.72 181.251 52.004 181.715 51.492C182.187 50.98 182.831 50.724 183.647 50.724C184.495 50.724 185.139 50.988 185.579 51.516C186.027 52.036 186.251 52.752 186.251 53.664V54.336H181.835V54.444C181.835 55.164 182.007 55.72 182.351 56.112C182.695 56.496 183.167 56.688 183.767 56.688C184.199 56.688 184.579 56.624 184.907 56.496C185.235 56.368 185.515 56.22 185.747 56.052L186.107 56.676ZM187.858 48.24H188.674V57.312H187.858V48.24Z" fill="black"/>
<path d="M122.325 20.636C121.909 20.922 121.419 21.1343 120.856 21.273C120.301 21.4117 119.729 21.481 119.14 21.481C118.516 21.481 117.957 21.3943 117.463 21.221C116.969 21.0563 116.549 20.8007 116.202 20.454C115.864 20.1073 115.6 19.6783 115.409 19.167C115.227 18.6557 115.136 18.0533 115.136 17.36V15.943C115.136 15.2583 115.227 14.6603 115.409 14.149C115.591 13.6377 115.851 13.2087 116.189 12.862C116.527 12.5153 116.934 12.2553 117.411 12.082C117.896 11.9087 118.438 11.822 119.036 11.822C119.643 11.822 120.202 11.9 120.713 12.056C121.224 12.212 121.701 12.4633 122.143 12.81L121.48 13.85C121.073 13.5293 120.674 13.3083 120.284 13.187C119.894 13.057 119.478 12.992 119.036 12.992C118.221 12.992 117.58 13.2433 117.112 13.746C116.653 14.24 116.423 15.0287 116.423 16.112V17.191C116.423 18.2743 116.67 19.0673 117.164 19.57C117.667 20.064 118.338 20.311 119.179 20.311C119.534 20.311 119.868 20.2807 120.18 20.22C120.501 20.1507 120.787 20.0553 121.038 19.934V17.295H118.958V16.19H122.325V20.636ZM125.353 11.51V21.338H124.092V11.51H125.353ZM130.188 14.097C131.167 14.097 131.938 14.3787 132.502 14.942C133.074 15.5053 133.36 16.3027 133.36 17.334V18.205C133.36 19.2363 133.074 20.0337 132.502 20.597C131.938 21.1603 131.167 21.442 130.188 21.442C129.208 21.442 128.433 21.1603 127.861 20.597C127.297 20.0337 127.016 19.2363 127.016 18.205V17.334C127.016 16.294 127.297 15.4967 127.861 14.942C128.433 14.3787 129.208 14.097 130.188 14.097ZM130.188 20.337C130.751 20.337 131.206 20.155 131.553 19.791C131.908 19.4183 132.086 18.855 132.086 18.101V17.438C132.086 16.684 131.908 16.125 131.553 15.761C131.206 15.3883 130.751 15.202 130.188 15.202C129.624 15.202 129.165 15.3883 128.81 15.761C128.463 16.125 128.29 16.684 128.29 17.438V18.101C128.29 18.855 128.463 19.4183 128.81 19.791C129.165 20.155 129.624 20.337 130.188 20.337ZM136.283 15.046C136.509 14.6907 136.803 14.4437 137.167 14.305C137.54 14.1663 137.921 14.097 138.311 14.097C139.213 14.097 139.902 14.3613 140.378 14.89C140.855 15.41 141.093 16.1553 141.093 17.126V18.387C141.093 18.8723 141.024 19.3057 140.885 19.687C140.747 20.0597 140.552 20.376 140.3 20.636C140.058 20.896 139.763 21.0953 139.416 21.234C139.07 21.3727 138.688 21.442 138.272 21.442C137.735 21.442 137.306 21.3467 136.985 21.156C136.665 20.974 136.426 20.7573 136.27 20.506H136.244V21.338H135.022V11.51H136.283V15.046ZM136.27 18.803C136.27 18.985 136.314 19.1713 136.4 19.362C136.496 19.544 136.626 19.7087 136.79 19.856C136.964 19.9947 137.163 20.1117 137.388 20.207C137.614 20.2937 137.865 20.337 138.142 20.337C138.68 20.337 139.096 20.1507 139.39 19.778C139.694 19.4053 139.845 18.881 139.845 18.205V17.334C139.845 16.658 139.694 16.1337 139.39 15.761C139.087 15.3883 138.671 15.202 138.142 15.202C137.882 15.202 137.64 15.2453 137.414 15.332C137.189 15.4187 136.99 15.54 136.816 15.696C136.652 15.852 136.517 16.0427 136.413 16.268C136.318 16.4847 136.27 16.7317 136.27 17.009V18.803ZM144.679 21.442C143.96 21.442 143.388 21.2643 142.963 20.909C142.547 20.5537 142.339 20.064 142.339 19.44V19.089C142.339 18.4823 142.543 17.9883 142.95 17.607C143.357 17.2257 144.016 17.035 144.926 17.035H146.733V16.619C146.733 16.1423 146.616 15.7913 146.382 15.566C146.157 15.332 145.784 15.215 145.264 15.215C144.848 15.215 144.484 15.28 144.172 15.41C143.869 15.54 143.552 15.7133 143.223 15.93L142.599 14.994C142.946 14.7513 143.336 14.5433 143.769 14.37C144.202 14.188 144.705 14.097 145.277 14.097C145.676 14.097 146.04 14.149 146.369 14.253C146.698 14.3483 146.98 14.4957 147.214 14.695C147.457 14.8857 147.643 15.124 147.773 15.41C147.912 15.6873 147.981 16.0037 147.981 16.359V21.338H146.772V20.48H146.759C146.69 20.61 146.594 20.7313 146.473 20.844C146.36 20.948 146.235 21.039 146.096 21.117C145.905 21.221 145.697 21.299 145.472 21.351C145.255 21.4117 144.991 21.442 144.679 21.442ZM146.733 18.101H144.952C144.458 18.101 144.103 18.1963 143.886 18.387C143.678 18.5777 143.574 18.842 143.574 19.18V19.362C143.574 19.7087 143.695 19.96 143.938 20.116C144.181 20.272 144.471 20.35 144.809 20.35C145.121 20.35 145.39 20.3153 145.615 20.246C145.849 20.168 146.061 20.0553 146.252 19.908C146.425 19.778 146.547 19.6307 146.616 19.466C146.694 19.2927 146.733 19.0717 146.733 18.803V18.101ZM151.137 11.51V21.338H149.876V11.51H151.137ZM159.456 20.311C160.123 20.311 160.622 20.1767 160.951 19.908C161.289 19.6393 161.458 19.3187 161.458 18.946V18.738C161.458 18.53 161.423 18.348 161.354 18.192C161.285 18.036 161.168 17.8973 161.003 17.776C160.838 17.6547 160.626 17.5463 160.366 17.451C160.106 17.347 159.785 17.256 159.404 17.178C158.962 17.0827 158.55 16.9743 158.169 16.853C157.788 16.723 157.458 16.5627 157.181 16.372C156.904 16.1727 156.683 15.93 156.518 15.644C156.362 15.3493 156.284 14.9897 156.284 14.565V14.331C156.284 14.0103 156.349 13.7027 156.479 13.408C156.609 13.1047 156.808 12.836 157.077 12.602C157.346 12.368 157.679 12.1817 158.078 12.043C158.485 11.8957 158.958 11.822 159.495 11.822C160.067 11.822 160.587 11.8913 161.055 12.03C161.523 12.1687 161.956 12.3723 162.355 12.641L161.744 13.642C161.397 13.408 161.046 13.239 160.691 13.135C160.336 13.031 159.941 12.979 159.508 12.979C158.919 12.979 158.446 13.109 158.091 13.369C157.744 13.629 157.571 13.9453 157.571 14.318V14.526C157.571 14.7427 157.619 14.929 157.714 15.085C157.809 15.2323 157.948 15.3623 158.13 15.475C158.312 15.5877 158.537 15.6873 158.806 15.774C159.075 15.852 159.382 15.93 159.729 16.008C160.31 16.138 160.791 16.2897 161.172 16.463C161.562 16.6277 161.874 16.8183 162.108 17.035C162.342 17.2517 162.507 17.4943 162.602 17.763C162.706 18.0317 162.758 18.3263 162.758 18.647V18.881C162.758 19.3143 162.671 19.6913 162.498 20.012C162.333 20.3327 162.104 20.6057 161.809 20.831C161.514 21.0477 161.159 21.208 160.743 21.312C160.336 21.4247 159.894 21.481 159.417 21.481C158.75 21.481 158.134 21.3727 157.571 21.156C157.016 20.948 156.544 20.688 156.154 20.376L156.804 19.323C156.977 19.453 157.177 19.5787 157.402 19.7C157.627 19.8213 157.857 19.9297 158.091 20.025C158.325 20.1117 158.559 20.181 158.793 20.233C159.036 20.285 159.257 20.311 159.456 20.311ZM167.116 15.176C166.856 15.176 166.613 15.2237 166.388 15.319C166.171 15.4057 165.98 15.5313 165.816 15.696C165.66 15.852 165.534 16.047 165.439 16.281C165.352 16.5063 165.309 16.7533 165.309 17.022V17.204H168.871V16.97C168.871 16.424 168.715 15.9907 168.403 15.67C168.091 15.3407 167.662 15.176 167.116 15.176ZM169.924 20.662C169.612 20.8787 169.239 21.0607 168.806 21.208C168.372 21.364 167.831 21.442 167.181 21.442C166.739 21.442 166.327 21.377 165.946 21.247C165.573 21.1257 165.244 20.935 164.958 20.675C164.68 20.4063 164.459 20.064 164.295 19.648C164.139 19.232 164.061 18.738 164.061 18.166V17.36C164.061 16.8227 164.134 16.3503 164.282 15.943C164.438 15.5357 164.65 15.1977 164.919 14.929C165.196 14.6517 165.521 14.4437 165.894 14.305C166.266 14.1663 166.674 14.097 167.116 14.097C168.026 14.097 168.749 14.3743 169.287 14.929C169.824 15.4837 170.093 16.268 170.093 17.282V18.231H165.309V18.283C165.309 18.959 165.486 19.4747 165.842 19.83C166.197 20.1767 166.661 20.35 167.233 20.35C167.701 20.35 168.099 20.2937 168.429 20.181C168.767 20.0683 169.087 19.9123 169.391 19.713L169.924 20.662ZM175.598 15.462C175.477 15.41 175.343 15.371 175.195 15.345C175.057 15.3103 174.901 15.293 174.727 15.293C174.493 15.293 174.268 15.3407 174.051 15.436C173.843 15.5227 173.661 15.6527 173.505 15.826C173.349 15.9907 173.224 16.19 173.128 16.424C173.033 16.658 172.985 16.9137 172.985 17.191V21.338H171.724V14.227H172.946V15.358H172.959C173.167 14.9593 173.436 14.6517 173.765 14.435C174.103 14.2097 174.532 14.097 175.052 14.097C175.364 14.097 175.672 14.1447 175.975 14.24L175.598 15.462ZM179.563 20.155L181.422 14.227H182.748L180.343 21.338H178.731L176.3 14.227H177.665L179.537 20.155H179.563ZM186.628 15.176C186.368 15.176 186.126 15.2237 185.9 15.319C185.684 15.4057 185.493 15.5313 185.328 15.696C185.172 15.852 185.047 16.047 184.951 16.281C184.865 16.5063 184.821 16.7533 184.821 17.022V17.204H188.383V16.97C188.383 16.424 188.227 15.9907 187.915 15.67C187.603 15.3407 187.174 15.176 186.628 15.176ZM189.436 20.662C189.124 20.8787 188.752 21.0607 188.318 21.208C187.885 21.364 187.343 21.442 186.693 21.442C186.251 21.442 185.84 21.377 185.458 21.247C185.086 21.1257 184.756 20.935 184.47 20.675C184.193 20.4063 183.972 20.064 183.807 19.648C183.651 19.232 183.573 18.738 183.573 18.166V17.36C183.573 16.8227 183.647 16.3503 183.794 15.943C183.95 15.5357 184.163 15.1977 184.431 14.929C184.709 14.6517 185.034 14.4437 185.406 14.305C185.779 14.1663 186.186 14.097 186.628 14.097C187.538 14.097 188.262 14.3743 188.799 14.929C189.337 15.4837 189.605 16.268 189.605 17.282V18.231H184.821V18.283C184.821 18.959 184.999 19.4747 185.354 19.83C185.71 20.1767 186.173 20.35 186.745 20.35C187.213 20.35 187.612 20.2937 187.941 20.181C188.279 20.0683 188.6 19.9123 188.903 19.713L189.436 20.662ZM195.111 15.462C194.99 15.41 194.855 15.371 194.708 15.345C194.569 15.3103 194.413 15.293 194.24 15.293C194.006 15.293 193.781 15.3407 193.564 15.436C193.356 15.5227 193.174 15.6527 193.018 15.826C192.862 15.9907 192.736 16.19 192.641 16.424C192.546 16.658 192.498 16.9137 192.498 17.191V21.338H191.237V14.227H192.459V15.358H192.472C192.68 14.9593 192.949 14.6517 193.278 14.435C193.616 14.2097 194.045 14.097 194.565 14.097C194.877 14.097 195.185 14.1447 195.488 14.24L195.111 15.462Z" fill="white"/>
<path d="M219.085 35.4646L223.819 32.1584L224.315 37.9105L219.085 35.4646ZM274.5 78.2897C274.5 56.0879 254.234 34.0317 223.595 35.5767L223.545 34.5779C254.712 33.0063 275.5 55.4738 275.5 78.2897H274.5Z" fill="#00AD8F"/>
<path d="M260.886 80.9991L257.444 76.3637L263.179 75.7006L260.886 80.9991ZM259.881 76.6365C256.895 63.157 240.954 46.4619 218.081 50.2028L217.919 49.2159C241.398 45.376 257.775 62.5078 260.857 76.4202L259.881 76.6365Z" fill="#2C8DFF"/>
<path d="M90.9145 35.4646L86.1814 32.1584L85.6847 37.9105L90.9145 35.4646ZM35.5 78.2897C35.5 56.0879 55.766 34.0317 86.4047 35.5767L86.455 34.5779C55.2879 33.0063 34.5 55.4738 34.5 78.2897H35.5Z" fill="#00AD8F"/>
<path d="M49.114 80.9994L52.5559 76.3641L46.8206 75.701L49.114 80.9994ZM50.1191 76.6368C53.105 63.1574 69.0462 46.4623 91.9193 50.2032L92.0807 49.2163C68.6021 45.3763 52.2246 62.5081 49.1427 76.4206L50.1191 76.6368Z" fill="#2C8DFF"/>
</svg>
