<svg width="870" height="240" viewBox="0 0 870 240" fill="none" xmlns="http://www.w3.org/2000/svg">
<path d="M0 10C0 4.47715 4.47715 0 10 0H860C865.523 0 870 4.47715 870 10V40C870 45.5228 865.523 50 860 50H10C4.47718 50 0 45.5228 0 40V10Z" fill="#004596"/>
<path d="M342.665 19.1002V31.8202H349.565V33.5202H340.685V19.1002H342.665ZM353.523 22.5802V33.5202H351.583V22.5802H353.523ZM353.583 18.6602V20.7802H351.523V18.6602H353.583ZM365.719 33.5202H363.779V26.7202C363.779 25.8002 363.585 25.1335 363.199 24.7202C362.812 24.3068 362.212 24.1002 361.399 24.1002C361.065 24.1002 360.732 24.1602 360.399 24.2802C360.079 24.3868 359.785 24.5535 359.519 24.7802C359.265 24.9935 359.052 25.2668 358.879 25.6002C358.719 25.9335 358.639 26.3135 358.639 26.7402V33.5202H356.699V22.5802H358.579V23.9602H358.599C358.932 23.4535 359.372 23.0668 359.919 22.8002C360.465 22.5202 361.119 22.3802 361.879 22.3802C362.412 22.3802 362.912 22.4602 363.379 22.6202C363.845 22.7802 364.252 23.0202 364.599 23.3402C364.945 23.6602 365.219 24.0668 365.419 24.5602C365.619 25.0535 365.719 25.6268 365.719 26.2802V33.5202ZM373.471 26.9602L378.051 33.5202H375.611L372.131 28.3202L370.611 29.8602V33.5202H368.671V18.4002H370.611V27.5002L375.291 22.5802H377.791L373.471 26.9602ZM383.749 24.0402C383.349 24.0402 382.975 24.1135 382.629 24.2602C382.295 24.3935 382.002 24.5868 381.749 24.8402C381.509 25.0802 381.315 25.3802 381.169 25.7402C381.035 26.0868 380.969 26.4668 380.969 26.8802V27.1602H386.449V26.8002C386.449 25.9602 386.209 25.2935 385.729 24.8002C385.249 24.2935 384.589 24.0402 383.749 24.0402ZM388.069 32.4802C387.589 32.8135 387.015 33.0935 386.349 33.3202C385.682 33.5602 384.849 33.6802 383.849 33.6802C383.169 33.6802 382.535 33.5802 381.949 33.3802C381.375 33.1935 380.869 32.9002 380.429 32.5002C380.002 32.0868 379.662 31.5602 379.409 30.9202C379.169 30.2802 379.049 29.5202 379.049 28.6402V27.4002C379.049 26.5735 379.162 25.8468 379.389 25.2202C379.629 24.5935 379.955 24.0735 380.369 23.6602C380.795 23.2335 381.295 22.9135 381.869 22.7002C382.442 22.4868 383.069 22.3802 383.749 22.3802C385.149 22.3802 386.262 22.8068 387.089 23.6602C387.915 24.5135 388.329 25.7202 388.329 27.2802V28.7402H380.969V28.8202C380.969 29.8602 381.242 30.6535 381.789 31.2002C382.335 31.7335 383.049 32.0002 383.929 32.0002C384.649 32.0002 385.262 31.9135 385.769 31.7402C386.289 31.5668 386.782 31.3268 387.249 31.0202L388.069 32.4802ZM397.739 32.1602C397.433 32.7202 396.993 33.1135 396.419 33.3402C395.859 33.5668 395.239 33.6802 394.559 33.6802C393.173 33.6802 392.113 33.2802 391.379 32.4802C390.659 31.6668 390.299 30.5135 390.299 29.0202V27.0802C390.299 26.3468 390.406 25.6868 390.619 25.1002C390.833 24.5135 391.126 24.0202 391.499 23.6202C391.886 23.2202 392.346 22.9135 392.879 22.7002C393.413 22.4868 393.999 22.3802 394.639 22.3802C395.479 22.3802 396.139 22.5268 396.619 22.8202C397.113 23.1002 397.473 23.4002 397.699 23.7202V18.4002H399.639V33.5202H397.779V32.1602H397.739ZM397.719 26.4002C397.719 26.1202 397.646 25.8402 397.499 25.5602C397.366 25.2802 397.166 25.0335 396.899 24.8202C396.646 24.5935 396.339 24.4135 395.979 24.2802C395.633 24.1468 395.253 24.0802 394.839 24.0802C394.013 24.0802 393.366 24.3668 392.899 24.9402C392.446 25.5135 392.219 26.3202 392.219 27.3602V28.7002C392.219 29.7402 392.453 30.5468 392.919 31.1202C393.386 31.6935 394.026 31.9802 394.839 31.9802C395.239 31.9802 395.613 31.9202 395.959 31.8002C396.306 31.6668 396.606 31.4802 396.859 31.2402C397.126 31.0002 397.333 30.7135 397.479 30.3802C397.639 30.0335 397.719 29.6468 397.719 29.2202V26.4002ZM412.613 19.1002C414.6 19.1002 416.107 19.6335 417.133 20.7002C418.16 21.7535 418.673 23.2802 418.673 25.2802V27.3402C418.673 29.3402 418.173 30.8735 417.173 31.9402C416.173 32.9935 414.653 33.5202 412.613 33.5202H407.833V19.1002H412.613ZM409.813 31.7602H412.433C413.073 31.7602 413.653 31.6802 414.173 31.5202C414.693 31.3468 415.133 31.0802 415.493 30.7202C415.867 30.3602 416.153 29.8935 416.353 29.3202C416.553 28.7468 416.653 28.0535 416.653 27.2402V25.3802C416.653 24.5668 416.553 23.8735 416.353 23.3002C416.153 22.7268 415.867 22.2602 415.493 21.9002C415.133 21.5268 414.693 21.2602 414.173 21.1002C413.653 20.9268 413.073 20.8402 412.433 20.8402H409.813V31.7602ZM424.563 33.6802C423.456 33.6802 422.576 33.4068 421.923 32.8602C421.283 32.3135 420.963 31.5602 420.963 30.6002V30.0602C420.963 29.1268 421.276 28.3668 421.903 27.7802C422.53 27.1935 423.543 26.9002 424.943 26.9002H427.723V26.2602C427.723 25.5268 427.543 24.9868 427.183 24.6402C426.836 24.2802 426.263 24.1002 425.463 24.1002C424.823 24.1002 424.263 24.2002 423.783 24.4002C423.316 24.6002 422.83 24.8668 422.323 25.2002L421.363 23.7602C421.896 23.3868 422.496 23.0668 423.163 22.8002C423.83 22.5202 424.603 22.3802 425.483 22.3802C426.096 22.3802 426.656 22.4602 427.163 22.6202C427.67 22.7668 428.103 22.9935 428.463 23.3002C428.836 23.5935 429.123 23.9602 429.323 24.4002C429.536 24.8268 429.643 25.3135 429.643 25.8602V33.5202H427.783V32.2002H427.763C427.656 32.4002 427.51 32.5868 427.323 32.7602C427.15 32.9202 426.956 33.0602 426.743 33.1802C426.45 33.3402 426.13 33.4602 425.783 33.5402C425.45 33.6335 425.043 33.6802 424.563 33.6802ZM427.723 28.5402H424.983C424.223 28.5402 423.676 28.6868 423.343 28.9802C423.023 29.2735 422.863 29.6802 422.863 30.2002V30.4802C422.863 31.0135 423.05 31.4002 423.423 31.6402C423.796 31.8802 424.243 32.0002 424.763 32.0002C425.243 32.0002 425.656 31.9468 426.003 31.8402C426.363 31.7202 426.69 31.5468 426.983 31.3202C427.25 31.1202 427.436 30.8935 427.543 30.6402C427.663 30.3735 427.723 30.0335 427.723 29.6202V28.5402ZM433.238 24.2402H431.438V22.5802H433.238V19.8202H435.178V22.5802H438.058V24.2402H435.178V30.4602C435.178 30.7935 435.211 31.0668 435.278 31.2802C435.345 31.4802 435.438 31.6335 435.558 31.7402C435.691 31.8468 435.845 31.9202 436.018 31.9602C436.191 32.0002 436.378 32.0202 436.578 32.0202C437.058 32.0202 437.538 31.9335 438.018 31.7602L438.318 33.3202C438.091 33.4135 437.791 33.4935 437.418 33.5602C437.045 33.6402 436.665 33.6802 436.278 33.6802C435.238 33.6802 434.471 33.4202 433.978 32.9002C433.485 32.3802 433.238 31.5668 433.238 30.4602V24.2402ZM443.371 33.6802C442.265 33.6802 441.385 33.4068 440.731 32.8602C440.091 32.3135 439.771 31.5602 439.771 30.6002V30.0602C439.771 29.1268 440.085 28.3668 440.711 27.7802C441.338 27.1935 442.351 26.9002 443.751 26.9002H446.531V26.2602C446.531 25.5268 446.351 24.9868 445.991 24.6402C445.645 24.2802 445.071 24.1002 444.271 24.1002C443.631 24.1002 443.071 24.2002 442.591 24.4002C442.125 24.6002 441.638 24.8668 441.131 25.2002L440.171 23.7602C440.705 23.3868 441.305 23.0668 441.971 22.8002C442.638 22.5202 443.411 22.3802 444.291 22.3802C444.905 22.3802 445.465 22.4602 445.971 22.6202C446.478 22.7668 446.911 22.9935 447.271 23.3002C447.645 23.5935 447.931 23.9602 448.131 24.4002C448.345 24.8268 448.451 25.3135 448.451 25.8602V33.5202H446.591V32.2002H446.571C446.465 32.4002 446.318 32.5868 446.131 32.7602C445.958 32.9202 445.765 33.0602 445.551 33.1802C445.258 33.3402 444.938 33.4602 444.591 33.5402C444.258 33.6335 443.851 33.6802 443.371 33.6802ZM446.531 28.5402H443.791C443.031 28.5402 442.485 28.6868 442.151 28.9802C441.831 29.2735 441.671 29.6802 441.671 30.2002V30.4802C441.671 31.0135 441.858 31.4002 442.231 31.6402C442.605 31.8802 443.051 32.0002 443.571 32.0002C444.051 32.0002 444.465 31.9468 444.811 31.8402C445.171 31.7202 445.498 31.5468 445.791 31.3202C446.058 31.1202 446.245 30.8935 446.351 30.6402C446.471 30.3735 446.531 30.0335 446.531 29.6202V28.5402ZM467.867 33.5202H465.787L464.267 29.2802H458.747L457.227 33.5202H455.207L460.567 19.1002H462.487L467.867 33.5202ZM459.347 27.5802H463.667L462.467 24.2002C462.36 23.9068 462.267 23.6535 462.187 23.4402C462.107 23.2135 462.033 23.0002 461.967 22.8002C461.9 22.5868 461.827 22.3668 461.747 22.1402C461.68 21.9135 461.6 21.6335 461.507 21.3002C461.4 21.6335 461.313 21.9202 461.247 22.1602C461.18 22.3868 461.113 22.6002 461.047 22.8002C460.98 23.0002 460.907 23.2135 460.827 23.4402C460.76 23.6535 460.673 23.9068 460.567 24.2002L459.347 27.5802ZM478.844 33.5202H476.904V26.7202C476.904 25.8002 476.71 25.1335 476.324 24.7202C475.937 24.3068 475.337 24.1002 474.524 24.1002C474.19 24.1002 473.857 24.1602 473.524 24.2802C473.204 24.3868 472.91 24.5535 472.644 24.7802C472.39 24.9935 472.177 25.2668 472.004 25.6002C471.844 25.9335 471.764 26.3135 471.764 26.7402V33.5202H469.824V22.5802H471.704V23.9602H471.724C472.057 23.4535 472.497 23.0668 473.044 22.8002C473.59 22.5202 474.244 22.3802 475.004 22.3802C475.537 22.3802 476.037 22.4602 476.504 22.6202C476.97 22.7802 477.377 23.0202 477.724 23.3402C478.07 23.6602 478.344 24.0668 478.544 24.5602C478.744 25.0535 478.844 25.6268 478.844 26.2802V33.5202ZM484.836 33.6802C483.73 33.6802 482.85 33.4068 482.196 32.8602C481.556 32.3135 481.236 31.5602 481.236 30.6002V30.0602C481.236 29.1268 481.55 28.3668 482.176 27.7802C482.803 27.1935 483.816 26.9002 485.216 26.9002H487.996V26.2602C487.996 25.5268 487.816 24.9868 487.456 24.6402C487.11 24.2802 486.536 24.1002 485.736 24.1002C485.096 24.1002 484.536 24.2002 484.056 24.4002C483.59 24.6002 483.103 24.8668 482.596 25.2002L481.636 23.7602C482.17 23.3868 482.77 23.0668 483.436 22.8002C484.103 22.5202 484.876 22.3802 485.756 22.3802C486.37 22.3802 486.93 22.4602 487.436 22.6202C487.943 22.7668 488.376 22.9935 488.736 23.3002C489.11 23.5935 489.396 23.9602 489.596 24.4002C489.81 24.8268 489.916 25.3135 489.916 25.8602V33.5202H488.056V32.2002H488.036C487.93 32.4002 487.783 32.5868 487.596 32.7602C487.423 32.9202 487.23 33.0602 487.016 33.1802C486.723 33.3402 486.403 33.4602 486.056 33.5402C485.723 33.6335 485.316 33.6802 484.836 33.6802ZM487.996 28.5402H485.256C484.496 28.5402 483.95 28.6868 483.616 28.9802C483.296 29.2735 483.136 29.6802 483.136 30.2002V30.4802C483.136 31.0135 483.323 31.4002 483.696 31.6402C484.07 31.8802 484.516 32.0002 485.036 32.0002C485.516 32.0002 485.93 31.9468 486.276 31.8402C486.636 31.7202 486.963 31.5468 487.256 31.3202C487.523 31.1202 487.71 30.8935 487.816 30.6402C487.936 30.3735 487.996 30.0335 487.996 29.6202V28.5402ZM494.771 18.4002V33.5202H492.831V18.4002H494.771ZM501.67 31.3202L504.55 22.5802H506.59L500.91 38.0402L499.15 37.4202L500.57 33.6802L496.59 22.5802H498.69L501.59 31.3202H501.67ZM511.817 32.0002C512.537 32.0002 513.097 31.8735 513.497 31.6202C513.897 31.3668 514.097 31.0202 514.097 30.5802V30.4202C514.097 30.1935 514.064 30.0002 513.997 29.8402C513.931 29.6802 513.804 29.5402 513.617 29.4202C513.431 29.3002 513.177 29.1935 512.857 29.1002C512.537 28.9935 512.117 28.8868 511.597 28.7802C510.997 28.6602 510.464 28.5135 509.997 28.3402C509.531 28.1668 509.137 27.9602 508.817 27.7202C508.497 27.4668 508.251 27.1668 508.077 26.8202C507.917 26.4735 507.837 26.0602 507.837 25.5802V25.3402C507.837 24.9668 507.917 24.6002 508.077 24.2402C508.237 23.8802 508.484 23.5668 508.817 23.3002C509.151 23.0202 509.571 22.8002 510.077 22.6402C510.597 22.4668 511.211 22.3802 511.917 22.3802C512.664 22.3802 513.357 22.4668 513.997 22.6402C514.651 22.8002 515.251 23.0735 515.797 23.4602L514.937 24.9202C514.577 24.6535 514.144 24.4402 513.637 24.2802C513.144 24.1202 512.617 24.0402 512.057 24.0402C511.244 24.0402 510.657 24.1668 510.297 24.4202C509.951 24.6602 509.777 24.9735 509.777 25.3602V25.5402C509.777 25.9668 509.957 26.2868 510.317 26.5002C510.677 26.7002 511.284 26.8802 512.137 27.0402C512.804 27.1602 513.384 27.3068 513.877 27.4802C514.371 27.6535 514.777 27.8735 515.097 28.1402C515.417 28.3935 515.657 28.7002 515.817 29.0602C515.977 29.4202 516.057 29.8535 516.057 30.3602V30.6202C516.057 31.0468 515.957 31.4468 515.757 31.8202C515.571 32.1935 515.297 32.5202 514.937 32.8002C514.577 33.0668 514.137 33.2802 513.617 33.4402C513.111 33.6002 512.537 33.6802 511.897 33.6802C510.977 33.6802 510.144 33.5602 509.397 33.3202C508.651 33.0802 508.017 32.7602 507.497 32.3602L508.397 30.8402C508.891 31.1735 509.417 31.4535 509.977 31.6802C510.537 31.8935 511.151 32.0002 511.817 32.0002ZM520.378 22.5802V33.5202H518.438V22.5802H520.378ZM520.438 18.6602V20.7802H518.378V18.6602H520.438ZM526.954 32.0002C527.674 32.0002 528.234 31.8735 528.634 31.6202C529.034 31.3668 529.234 31.0202 529.234 30.5802V30.4202C529.234 30.1935 529.201 30.0002 529.134 29.8402C529.067 29.6802 528.941 29.5402 528.754 29.4202C528.567 29.3002 528.314 29.1935 527.994 29.1002C527.674 28.9935 527.254 28.8868 526.734 28.7802C526.134 28.6602 525.601 28.5135 525.134 28.3402C524.667 28.1668 524.274 27.9602 523.954 27.7202C523.634 27.4668 523.387 27.1668 523.214 26.8202C523.054 26.4735 522.974 26.0602 522.974 25.5802V25.3402C522.974 24.9668 523.054 24.6002 523.214 24.2402C523.374 23.8802 523.621 23.5668 523.954 23.3002C524.287 23.0202 524.707 22.8002 525.214 22.6402C525.734 22.4668 526.347 22.3802 527.054 22.3802C527.801 22.3802 528.494 22.4668 529.134 22.6402C529.787 22.8002 530.387 23.0735 530.934 23.4602L530.074 24.9202C529.714 24.6535 529.281 24.4402 528.774 24.2802C528.281 24.1202 527.754 24.0402 527.194 24.0402C526.381 24.0402 525.794 24.1668 525.434 24.4202C525.087 24.6602 524.914 24.9735 524.914 25.3602V25.5402C524.914 25.9668 525.094 26.2868 525.454 26.5002C525.814 26.7002 526.421 26.8802 527.274 27.0402C527.941 27.1602 528.521 27.3068 529.014 27.4802C529.507 27.6535 529.914 27.8735 530.234 28.1402C530.554 28.3935 530.794 28.7002 530.954 29.0602C531.114 29.4202 531.194 29.8535 531.194 30.3602V30.6202C531.194 31.0468 531.094 31.4468 530.894 31.8202C530.707 32.1935 530.434 32.5202 530.074 32.8002C529.714 33.0668 529.274 33.2802 528.754 33.4402C528.247 33.6002 527.674 33.6802 527.034 33.6802C526.114 33.6802 525.281 33.5602 524.534 33.3202C523.787 33.0802 523.154 32.7602 522.634 32.3602L523.534 30.8402C524.027 31.1735 524.554 31.4535 525.114 31.6802C525.674 31.8935 526.287 32.0002 526.954 32.0002Z" fill="white"/>
<path d="M320 120C320 114.477 324.477 110 330 110H550C555.523 110 560 114.477 560 120V150C560 155.523 555.523 160 550 160H330C324.477 160 320 155.523 320 150V120Z" fill="#00B695"/>
<path d="M405.65 132.096C405.597 131.979 405.549 131.867 405.506 131.76C405.464 131.643 405.421 131.525 405.378 131.408C405.336 131.291 405.288 131.157 405.234 131.008C405.181 130.859 405.122 130.688 405.058 130.496V140.416H403.554V128.88H405.89L409.09 136.432L412.21 128.88H414.53V140.416H413.01V130.496C412.957 130.709 412.904 130.891 412.85 131.04C412.808 131.179 412.765 131.307 412.722 131.424C412.69 131.541 412.653 131.653 412.61 131.76C412.568 131.867 412.52 131.979 412.466 132.096L409.714 138.496H408.37L405.65 132.096ZM420.396 132.832C420.076 132.832 419.777 132.891 419.5 133.008C419.233 133.115 418.999 133.269 418.796 133.472C418.604 133.664 418.449 133.904 418.332 134.192C418.225 134.469 418.172 134.773 418.172 135.104V135.328H422.556V135.04C422.556 134.368 422.364 133.835 421.98 133.44C421.596 133.035 421.068 132.832 420.396 132.832ZM423.852 139.584C423.468 139.851 423.009 140.075 422.476 140.256C421.943 140.448 421.276 140.544 420.476 140.544C419.932 140.544 419.425 140.464 418.956 140.304C418.497 140.155 418.092 139.92 417.74 139.6C417.399 139.269 417.127 138.848 416.924 138.336C416.732 137.824 416.636 137.216 416.636 136.512V135.52C416.636 134.859 416.727 134.277 416.908 133.776C417.1 133.275 417.361 132.859 417.692 132.528C418.033 132.187 418.433 131.931 418.892 131.76C419.351 131.589 419.852 131.504 420.396 131.504C421.516 131.504 422.407 131.845 423.068 132.528C423.729 133.211 424.06 134.176 424.06 135.424V136.592H418.172V136.656C418.172 137.488 418.391 138.123 418.828 138.56C419.265 138.987 419.836 139.2 420.54 139.2C421.116 139.2 421.607 139.131 422.012 138.992C422.428 138.853 422.823 138.661 423.196 138.416L423.852 139.584ZM426.612 132.992H425.172V131.664H426.612V129.456H428.164V131.664H430.468V132.992H428.164V137.968C428.164 138.235 428.191 138.453 428.244 138.624C428.298 138.784 428.372 138.907 428.468 138.992C428.575 139.077 428.698 139.136 428.836 139.168C428.975 139.2 429.124 139.216 429.284 139.216C429.668 139.216 430.052 139.147 430.436 139.008L430.676 140.256C430.495 140.331 430.255 140.395 429.956 140.448C429.658 140.512 429.354 140.544 429.044 140.544C428.212 140.544 427.599 140.336 427.204 139.92C426.81 139.504 426.612 138.853 426.612 137.968V132.992ZM434.719 140.544C433.834 140.544 433.13 140.325 432.607 139.888C432.095 139.451 431.839 138.848 431.839 138.08V137.648C431.839 136.901 432.09 136.293 432.591 135.824C433.092 135.355 433.903 135.12 435.023 135.12H437.247V134.608C437.247 134.021 437.103 133.589 436.815 133.312C436.538 133.024 436.079 132.88 435.439 132.88C434.927 132.88 434.479 132.96 434.095 133.12C433.722 133.28 433.332 133.493 432.927 133.76L432.159 132.608C432.586 132.309 433.066 132.053 433.599 131.84C434.132 131.616 434.751 131.504 435.455 131.504C435.946 131.504 436.394 131.568 436.799 131.696C437.204 131.813 437.551 131.995 437.839 132.24C438.138 132.475 438.367 132.768 438.527 133.12C438.698 133.461 438.783 133.851 438.783 134.288V140.416H437.295V139.36H437.279C437.194 139.52 437.076 139.669 436.927 139.808C436.788 139.936 436.634 140.048 436.463 140.144C436.228 140.272 435.972 140.368 435.695 140.432C435.428 140.507 435.103 140.544 434.719 140.544ZM437.247 136.432H435.055C434.447 136.432 434.01 136.549 433.743 136.784C433.487 137.019 433.359 137.344 433.359 137.76V137.984C433.359 138.411 433.508 138.72 433.807 138.912C434.106 139.104 434.463 139.2 434.879 139.2C435.263 139.2 435.594 139.157 435.871 139.072C436.159 138.976 436.42 138.837 436.655 138.656C436.868 138.496 437.018 138.315 437.103 138.112C437.199 137.899 437.247 137.627 437.247 137.296V136.432ZM449.003 128.88C450.593 128.88 451.798 129.307 452.619 130.16C453.441 131.003 453.851 132.224 453.851 133.824V135.472C453.851 137.072 453.451 138.299 452.651 139.152C451.851 139.995 450.635 140.416 449.003 140.416H445.179V128.88H449.003ZM446.763 139.008H448.859C449.371 139.008 449.835 138.944 450.251 138.816C450.667 138.677 451.019 138.464 451.307 138.176C451.606 137.888 451.835 137.515 451.995 137.056C452.155 136.597 452.235 136.043 452.235 135.392V133.904C452.235 133.253 452.155 132.699 451.995 132.24C451.835 131.781 451.606 131.408 451.307 131.12C451.019 130.821 450.667 130.608 450.251 130.48C449.835 130.341 449.371 130.272 448.859 130.272H446.763V139.008ZM458.563 140.544C457.677 140.544 456.973 140.325 456.451 139.888C455.939 139.451 455.683 138.848 455.683 138.08V137.648C455.683 136.901 455.933 136.293 456.435 135.824C456.936 135.355 457.747 135.12 458.867 135.12H461.091V134.608C461.091 134.021 460.947 133.589 460.659 133.312C460.381 133.024 459.923 132.88 459.283 132.88C458.771 132.88 458.323 132.96 457.939 133.12C457.565 133.28 457.176 133.493 456.771 133.76L456.003 132.608C456.429 132.309 456.909 132.053 457.443 131.84C457.976 131.616 458.595 131.504 459.299 131.504C459.789 131.504 460.237 131.568 460.643 131.696C461.048 131.813 461.395 131.995 461.683 132.24C461.981 132.475 462.211 132.768 462.371 133.12C462.541 133.461 462.627 133.851 462.627 134.288V140.416H461.139V139.36H461.123C461.037 139.52 460.92 139.669 460.771 139.808C460.632 139.936 460.477 140.048 460.307 140.144C460.072 140.272 459.816 140.368 459.539 140.432C459.272 140.507 458.947 140.544 458.563 140.544ZM461.091 136.432H458.899C458.291 136.432 457.853 136.549 457.587 136.784C457.331 137.019 457.203 137.344 457.203 137.76V137.984C457.203 138.411 457.352 138.72 457.651 138.912C457.949 139.104 458.307 139.2 458.723 139.2C459.107 139.2 459.437 139.157 459.715 139.072C460.003 138.976 460.264 138.837 460.499 138.656C460.712 138.496 460.861 138.315 460.947 138.112C461.043 137.899 461.091 137.627 461.091 137.296V136.432ZM465.503 132.992H464.063V131.664H465.503V129.456H467.055V131.664H469.359V132.992H467.055V137.968C467.055 138.235 467.082 138.453 467.135 138.624C467.188 138.784 467.263 138.907 467.359 138.992C467.466 139.077 467.588 139.136 467.727 139.168C467.866 139.2 468.015 139.216 468.175 139.216C468.559 139.216 468.943 139.147 469.327 139.008L469.567 140.256C469.386 140.331 469.146 140.395 468.847 140.448C468.548 140.512 468.244 140.544 467.935 140.544C467.103 140.544 466.49 140.336 466.095 139.92C465.7 139.504 465.503 138.853 465.503 137.968V132.992ZM473.61 140.544C472.724 140.544 472.02 140.325 471.498 139.888C470.986 139.451 470.73 138.848 470.73 138.08V137.648C470.73 136.901 470.98 136.293 471.482 135.824C471.983 135.355 472.794 135.12 473.914 135.12H476.138V134.608C476.138 134.021 475.994 133.589 475.706 133.312C475.428 133.024 474.97 132.88 474.33 132.88C473.818 132.88 473.37 132.96 472.986 133.12C472.612 133.28 472.223 133.493 471.818 133.76L471.05 132.608C471.476 132.309 471.956 132.053 472.49 131.84C473.023 131.616 473.642 131.504 474.346 131.504C474.836 131.504 475.284 131.568 475.69 131.696C476.095 131.813 476.442 131.995 476.73 132.24C477.028 132.475 477.258 132.768 477.418 133.12C477.588 133.461 477.674 133.851 477.674 134.288V140.416H476.186V139.36H476.17C476.084 139.52 475.967 139.669 475.818 139.808C475.679 139.936 475.524 140.048 475.354 140.144C475.119 140.272 474.863 140.368 474.586 140.432C474.319 140.507 473.994 140.544 473.61 140.544ZM476.138 136.432H473.946C473.338 136.432 472.9 136.549 472.634 136.784C472.378 137.019 472.25 137.344 472.25 137.76V137.984C472.25 138.411 472.399 138.72 472.698 138.912C472.996 139.104 473.354 139.2 473.77 139.2C474.154 139.2 474.484 139.157 474.762 139.072C475.05 138.976 475.311 138.837 475.546 138.656C475.759 138.496 475.908 138.315 475.994 138.112C476.09 137.899 476.138 137.627 476.138 137.296V136.432Z" fill="white"/>
<path d="M630 120C630 114.477 634.477 110 640 110H860C865.523 110 870 114.477 870 120V150C870 155.523 865.523 160 860 160H640C634.477 160 630 155.523 630 150V120Z" fill="#007E68"/>
<path d="M690.215 128.88L687.031 140.416H685.447L682.887 130.992L680.279 140.416H678.663L675.511 128.88H677.174L679.543 138.304L682.119 128.88H683.655L686.231 138.304L688.631 128.88H690.215ZM694.732 132.832C694.412 132.832 694.113 132.891 693.836 133.008C693.569 133.115 693.335 133.269 693.132 133.472C692.94 133.664 692.785 133.904 692.668 134.192C692.561 134.469 692.508 134.773 692.508 135.104V135.328H696.892V135.04C696.892 134.368 696.7 133.835 696.316 133.44C695.932 133.035 695.404 132.832 694.732 132.832ZM698.188 139.584C697.804 139.851 697.345 140.075 696.812 140.256C696.279 140.448 695.612 140.544 694.812 140.544C694.268 140.544 693.761 140.464 693.292 140.304C692.833 140.155 692.428 139.92 692.076 139.6C691.735 139.269 691.463 138.848 691.26 138.336C691.068 137.824 690.972 137.216 690.972 136.512V135.52C690.972 134.859 691.063 134.277 691.244 133.776C691.436 133.275 691.697 132.859 692.028 132.528C692.369 132.187 692.769 131.931 693.228 131.76C693.687 131.589 694.188 131.504 694.732 131.504C695.852 131.504 696.743 131.845 697.404 132.528C698.065 133.211 698.396 134.176 698.396 135.424V136.592H692.508V136.656C692.508 137.488 692.727 138.123 693.164 138.56C693.601 138.987 694.172 139.2 694.876 139.2C695.452 139.2 695.943 139.131 696.348 138.992C696.764 138.853 697.159 138.661 697.532 138.416L698.188 139.584ZM701.956 132.672C702.234 132.235 702.596 131.931 703.044 131.76C703.503 131.589 703.972 131.504 704.452 131.504C705.562 131.504 706.41 131.829 706.996 132.48C707.583 133.12 707.876 134.037 707.876 135.232V136.784C707.876 137.381 707.791 137.915 707.62 138.384C707.45 138.843 707.21 139.232 706.9 139.552C706.602 139.872 706.239 140.117 705.812 140.288C705.386 140.459 704.916 140.544 704.404 140.544C703.743 140.544 703.215 140.427 702.82 140.192C702.426 139.968 702.132 139.701 701.94 139.392H701.908V140.416H700.404V128.32H701.956V132.672ZM701.94 137.296C701.94 137.52 701.994 137.749 702.1 137.984C702.218 138.208 702.378 138.411 702.58 138.592C702.794 138.763 703.039 138.907 703.316 139.024C703.594 139.131 703.903 139.184 704.244 139.184C704.906 139.184 705.418 138.955 705.78 138.496C706.154 138.037 706.34 137.392 706.34 136.56V135.488C706.34 134.656 706.154 134.011 705.78 133.552C705.407 133.093 704.895 132.864 704.244 132.864C703.924 132.864 703.626 132.917 703.348 133.024C703.071 133.131 702.826 133.28 702.612 133.472C702.41 133.664 702.244 133.899 702.116 134.176C701.999 134.443 701.94 134.747 701.94 135.088V137.296ZM713.888 130.432C714.058 130.197 714.245 129.973 714.448 129.76C714.661 129.547 714.901 129.365 715.168 129.216C715.445 129.056 715.749 128.933 716.08 128.848C716.421 128.752 716.81 128.704 717.248 128.704C717.781 128.704 718.261 128.773 718.688 128.912C719.114 129.051 719.477 129.248 719.776 129.504C720.085 129.749 720.32 130.053 720.48 130.416C720.65 130.768 720.736 131.157 720.736 131.584V131.744C720.736 131.968 720.709 132.208 720.656 132.464C720.602 132.72 720.506 132.965 720.368 133.2C720.229 133.435 720.042 133.653 719.808 133.856C719.573 134.059 719.28 134.224 718.928 134.352C719.706 134.491 720.288 134.8 720.672 135.28C721.066 135.76 721.264 136.336 721.264 137.008V137.248C721.264 137.675 721.184 138.091 721.024 138.496C720.874 138.891 720.634 139.248 720.304 139.568C719.984 139.877 719.568 140.123 719.056 140.304C718.544 140.496 717.936 140.592 717.232 140.592C716.56 140.592 715.909 140.485 715.28 140.272C714.661 140.069 714.08 139.749 713.536 139.312L714.32 138.048C714.885 138.453 715.386 138.741 715.824 138.912C716.261 139.072 716.73 139.152 717.232 139.152C717.648 139.152 718.01 139.104 718.32 139.008C718.629 138.901 718.885 138.763 719.088 138.592C719.29 138.421 719.44 138.224 719.536 138C719.632 137.765 719.68 137.52 719.68 137.264V137.056C719.68 136.672 719.616 136.357 719.488 136.112C719.37 135.856 719.205 135.653 718.992 135.504C718.778 135.355 718.522 135.248 718.224 135.184C717.936 135.12 717.626 135.088 717.296 135.088H715.872V133.712H717.232C717.594 133.712 717.898 133.659 718.144 133.552C718.389 133.435 718.586 133.285 718.736 133.104C718.885 132.923 718.992 132.715 719.056 132.48C719.13 132.245 719.168 132.005 719.168 131.76V131.632C719.168 131.376 719.114 131.157 719.008 130.976C718.912 130.784 718.778 130.624 718.608 130.496C718.437 130.368 718.234 130.272 718 130.208C717.765 130.144 717.52 130.112 717.264 130.112C716.784 130.112 716.368 130.203 716.016 130.384C715.664 130.565 715.333 130.859 715.024 131.264L713.888 130.432ZM723.893 139.232H725.717V141.072H723.893V139.232ZM736.116 135.536C736.116 137.168 735.78 138.421 735.108 139.296C734.447 140.16 733.423 140.592 732.036 140.592C730.66 140.592 729.636 140.155 728.964 139.28C728.292 138.405 727.956 137.157 727.956 135.536V133.744C727.956 132.123 728.298 130.88 728.98 130.016C729.663 129.141 730.682 128.704 732.036 128.704C733.402 128.704 734.42 129.141 735.092 130.016C735.775 130.88 736.116 132.123 736.116 133.744V135.536ZM734.5 133.728C734.5 133.024 734.436 132.443 734.308 131.984C734.191 131.525 734.02 131.163 733.796 130.896C733.572 130.629 733.311 130.443 733.012 130.336C732.714 130.229 732.388 130.176 732.036 130.176C731.695 130.176 731.375 130.229 731.076 130.336C730.778 130.443 730.516 130.635 730.292 130.912C730.068 131.179 729.892 131.541 729.764 132C729.636 132.448 729.572 133.024 729.572 133.728V135.552C729.572 136.256 729.636 136.843 729.764 137.312C729.892 137.771 730.068 138.133 730.292 138.4C730.516 138.667 730.778 138.853 731.076 138.96C731.375 139.067 731.695 139.12 732.036 139.12C732.388 139.12 732.714 139.067 733.012 138.96C733.311 138.853 733.572 138.667 733.796 138.4C734.02 138.133 734.191 137.771 734.308 137.312C734.436 136.853 734.5 136.267 734.5 135.552V133.728ZM746.57 140.592C745.877 140.592 745.242 140.485 744.666 140.272C744.101 140.069 743.61 139.755 743.194 139.328C742.778 138.901 742.453 138.373 742.218 137.744C741.994 137.115 741.882 136.373 741.882 135.52V133.776C741.882 132.933 741.994 132.197 742.218 131.568C742.453 130.939 742.778 130.411 743.194 129.984C743.61 129.557 744.106 129.237 744.682 129.024C745.258 128.811 745.887 128.704 746.57 128.704C747.253 128.704 747.882 128.811 748.458 129.024C749.034 129.237 749.53 129.557 749.946 129.984C750.362 130.411 750.682 130.939 750.906 131.568C751.141 132.197 751.258 132.933 751.258 133.776V135.52C751.258 136.373 751.141 137.115 750.906 137.744C750.682 138.373 750.362 138.901 749.946 139.328C749.53 139.755 749.034 140.069 748.458 140.272C747.882 140.485 747.253 140.592 746.57 140.592ZM746.57 130.144C746.122 130.144 745.706 130.219 745.322 130.368C744.949 130.507 744.623 130.731 744.346 131.04C744.079 131.339 743.866 131.733 743.706 132.224C743.557 132.704 743.482 133.28 743.482 133.952V135.344C743.482 136.016 743.557 136.597 743.706 137.088C743.866 137.568 744.079 137.963 744.346 138.272C744.623 138.571 744.949 138.795 745.322 138.944C745.706 139.083 746.122 139.152 746.57 139.152C747.018 139.152 747.429 139.083 747.802 138.944C748.186 138.795 748.511 138.571 748.778 138.272C749.055 137.963 749.269 137.568 749.418 137.088C749.578 136.597 749.658 136.016 749.658 135.344V133.952C749.658 133.28 749.578 132.704 749.418 132.224C749.269 131.733 749.055 131.339 748.778 131.04C748.511 130.731 748.186 130.507 747.802 130.368C747.429 130.219 747.018 130.144 746.57 130.144ZM755.019 132.672C755.296 132.235 755.659 131.931 756.107 131.76C756.565 131.589 757.035 131.504 757.515 131.504C758.624 131.504 759.472 131.829 760.059 132.48C760.645 133.12 760.939 134.037 760.939 135.232V136.784C760.939 137.381 760.853 137.915 760.683 138.384C760.512 138.843 760.272 139.232 759.963 139.552C759.664 139.872 759.301 140.117 758.875 140.288C758.448 140.459 757.979 140.544 757.467 140.544C756.805 140.544 756.277 140.427 755.883 140.192C755.488 139.968 755.195 139.701 755.003 139.392H754.971V140.416H753.467V128.32H755.019V132.672ZM755.003 137.296C755.003 137.52 755.056 137.749 755.163 137.984C755.28 138.208 755.44 138.411 755.643 138.592C755.856 138.763 756.101 138.907 756.379 139.024C756.656 139.131 756.965 139.184 757.307 139.184C757.968 139.184 758.48 138.955 758.843 138.496C759.216 138.037 759.403 137.392 759.403 136.56V135.488C759.403 134.656 759.216 134.011 758.843 133.552C758.469 133.093 757.957 132.864 757.307 132.864C756.987 132.864 756.688 132.917 756.411 133.024C756.133 133.131 755.888 133.28 755.675 133.472C755.472 133.664 755.307 133.899 755.179 134.176C755.061 134.443 755.003 134.747 755.003 135.088V137.296ZM764.918 128.528V130.224H763.27V128.528H764.918ZM764.87 141.408C764.87 142.293 764.651 142.944 764.214 143.36C763.787 143.776 763.158 143.984 762.326 143.984C762.049 143.984 761.766 143.963 761.478 143.92C761.179 143.877 760.939 143.824 760.758 143.76L760.998 142.496C761.382 142.603 761.777 142.656 762.182 142.656C762.331 142.656 762.475 142.64 762.614 142.608C762.753 142.576 762.87 142.512 762.966 142.416C763.073 142.331 763.158 142.203 763.222 142.032C763.286 141.861 763.318 141.632 763.318 141.344V131.664H764.87V141.408ZM770.732 132.832C770.412 132.832 770.113 132.891 769.836 133.008C769.569 133.115 769.335 133.269 769.132 133.472C768.94 133.664 768.785 133.904 768.668 134.192C768.561 134.469 768.508 134.773 768.508 135.104V135.328H772.892V135.04C772.892 134.368 772.7 133.835 772.316 133.44C771.932 133.035 771.404 132.832 770.732 132.832ZM774.188 139.584C773.804 139.851 773.345 140.075 772.812 140.256C772.279 140.448 771.612 140.544 770.812 140.544C770.268 140.544 769.761 140.464 769.292 140.304C768.833 140.155 768.428 139.92 768.076 139.6C767.735 139.269 767.463 138.848 767.26 138.336C767.068 137.824 766.972 137.216 766.972 136.512V135.52C766.972 134.859 767.063 134.277 767.244 133.776C767.436 133.275 767.697 132.859 768.028 132.528C768.369 132.187 768.769 131.931 769.228 131.76C769.687 131.589 770.188 131.504 770.732 131.504C771.852 131.504 772.743 131.845 773.404 132.528C774.065 133.211 774.396 134.176 774.396 135.424V136.592H768.508V136.656C768.508 137.488 768.727 138.123 769.164 138.56C769.601 138.987 770.172 139.2 770.876 139.2C771.452 139.2 771.943 139.131 772.348 138.992C772.764 138.853 773.159 138.661 773.532 138.416L774.188 139.584ZM779.732 131.504C780.458 131.504 781.05 131.595 781.508 131.776C781.978 131.957 782.394 132.187 782.756 132.464L782.02 133.632C781.615 133.333 781.236 133.136 780.884 133.04C780.543 132.933 780.159 132.88 779.732 132.88C779.444 132.88 779.167 132.928 778.9 133.024C778.634 133.12 778.399 133.275 778.196 133.488C777.994 133.691 777.828 133.952 777.7 134.272C777.583 134.592 777.524 134.976 777.524 135.424V136.528C777.524 136.997 777.583 137.403 777.7 137.744C777.828 138.075 777.994 138.347 778.196 138.56C778.41 138.763 778.65 138.912 778.916 139.008C779.194 139.104 779.476 139.152 779.764 139.152C780.34 139.152 780.815 139.077 781.188 138.928C781.572 138.779 781.919 138.587 782.228 138.352L782.98 139.536C782.671 139.792 782.255 140.021 781.732 140.224C781.21 140.437 780.548 140.544 779.748 140.544C778.532 140.544 777.594 140.192 776.932 139.488C776.282 138.784 775.956 137.803 775.956 136.544V135.44C775.956 134.811 776.047 134.256 776.228 133.776C776.41 133.285 776.66 132.875 776.98 132.544C777.311 132.203 777.706 131.947 778.164 131.776C778.634 131.595 779.156 131.504 779.732 131.504ZM785.089 132.992H783.649V131.664H785.089V129.456H786.641V131.664H788.945V132.992H786.641V137.968C786.641 138.235 786.668 138.453 786.721 138.624C786.774 138.784 786.849 138.907 786.945 138.992C787.052 139.077 787.174 139.136 787.313 139.168C787.452 139.2 787.601 139.216 787.761 139.216C788.145 139.216 788.529 139.147 788.913 139.008L789.153 140.256C788.972 140.331 788.732 140.395 788.433 140.448C788.134 140.512 787.83 140.544 787.521 140.544C786.689 140.544 786.076 140.336 785.681 139.92C785.286 139.504 785.089 138.853 785.089 137.968V132.992ZM796.412 128.88V139.056H801.932V140.416H794.828V128.88H796.412ZM805.098 131.664V140.416H803.546V131.664H805.098ZM805.146 128.528V130.224H803.498V128.528H805.146ZM814.855 140.416H813.303V134.976C813.303 134.24 813.148 133.707 812.839 133.376C812.529 133.045 812.049 132.88 811.399 132.88C811.132 132.88 810.865 132.928 810.599 133.024C810.343 133.109 810.108 133.243 809.895 133.424C809.692 133.595 809.521 133.813 809.383 134.08C809.255 134.347 809.191 134.651 809.191 134.992V140.416H807.639V131.664H809.143V132.768H809.159C809.425 132.363 809.777 132.053 810.215 131.84C810.652 131.616 811.175 131.504 811.783 131.504C812.209 131.504 812.609 131.568 812.983 131.696C813.356 131.824 813.681 132.016 813.959 132.272C814.236 132.528 814.455 132.853 814.615 133.248C814.775 133.643 814.855 134.101 814.855 134.624V140.416ZM821.057 135.168L824.721 140.416H822.769L819.985 136.256L818.769 137.488V140.416H817.217V128.32H818.769V135.6L822.513 131.664H824.513L821.057 135.168Z" fill="white"/>
<path d="M630 200C630 194.477 634.477 190 640 190H860C865.523 190 870 194.477 870 200V230C870 235.523 865.523 240 860 240H640C634.477 240 630 235.523 630 230V200Z" fill="#F59728"/>
<path d="M694.367 208.88H698.463C700.905 208.88 702.127 209.819 702.127 211.696V212.032C702.127 212.288 702.095 212.539 702.031 212.784C701.967 213.019 701.86 213.237 701.711 213.44C701.572 213.643 701.38 213.824 701.135 213.984C700.9 214.133 700.612 214.251 700.271 214.336C700.975 214.443 701.545 214.709 701.983 215.136C702.431 215.563 702.655 216.176 702.655 216.976V217.376C702.655 218.325 702.351 219.072 701.743 219.616C701.145 220.149 700.217 220.416 698.959 220.416H694.367V208.88ZM695.951 219.04H698.367C698.815 219.04 699.204 219.019 699.535 218.976C699.876 218.923 700.153 218.832 700.367 218.704C700.591 218.576 700.756 218.405 700.863 218.192C700.969 217.968 701.023 217.685 701.023 217.344V216.992C701.023 216.64 700.975 216.341 700.879 216.096C700.783 215.851 700.617 215.648 700.383 215.488C700.148 215.328 699.839 215.216 699.455 215.152C699.071 215.077 698.591 215.04 698.015 215.04H695.951V219.04ZM695.951 210.24V213.744H697.999C698.393 213.744 698.745 213.723 699.055 213.68C699.375 213.637 699.641 213.552 699.855 213.424C700.068 213.296 700.228 213.12 700.335 212.896C700.452 212.672 700.511 212.379 700.511 212.016V211.728C700.511 211.387 700.457 211.12 700.351 210.928C700.255 210.725 700.095 210.576 699.871 210.48C699.657 210.373 699.385 210.309 699.055 210.288C698.724 210.256 698.335 210.24 697.887 210.24H695.951ZM706.011 208.32V220.416H704.459V208.32H706.011ZM711.962 211.504C713.167 211.504 714.116 211.851 714.81 212.544C715.514 213.237 715.866 214.219 715.866 215.488V216.56C715.866 217.829 715.514 218.811 714.81 219.504C714.116 220.197 713.167 220.544 711.962 220.544C710.756 220.544 709.802 220.197 709.098 219.504C708.404 218.811 708.058 217.829 708.058 216.56V215.488C708.058 214.208 708.404 213.227 709.098 212.544C709.802 211.851 710.756 211.504 711.962 211.504ZM711.962 219.184C712.655 219.184 713.215 218.96 713.642 218.512C714.079 218.053 714.298 217.36 714.298 216.432V215.616C714.298 214.688 714.079 214 713.642 213.552C713.215 213.093 712.655 212.864 711.962 212.864C711.268 212.864 710.703 213.093 710.266 213.552C709.839 214 709.626 214.688 709.626 215.616V216.432C709.626 217.36 709.839 218.053 710.266 218.512C710.703 218.96 711.268 219.184 711.962 219.184ZM721.24 211.504C721.965 211.504 722.557 211.595 723.016 211.776C723.485 211.957 723.901 212.187 724.264 212.464L723.528 213.632C723.123 213.333 722.744 213.136 722.392 213.04C722.051 212.933 721.667 212.88 721.24 212.88C720.952 212.88 720.675 212.928 720.408 213.024C720.141 213.12 719.907 213.275 719.704 213.488C719.501 213.691 719.336 213.952 719.208 214.272C719.091 214.592 719.032 214.976 719.032 215.424V216.528C719.032 216.997 719.091 217.403 719.208 217.744C719.336 218.075 719.501 218.347 719.704 218.56C719.917 218.763 720.157 218.912 720.424 219.008C720.701 219.104 720.984 219.152 721.272 219.152C721.848 219.152 722.323 219.077 722.696 218.928C723.08 218.779 723.427 218.587 723.736 218.352L724.488 219.536C724.179 219.792 723.763 220.021 723.24 220.224C722.717 220.437 722.056 220.544 721.256 220.544C720.04 220.544 719.101 220.192 718.44 219.488C717.789 218.784 717.464 217.803 717.464 216.544V215.44C717.464 214.811 717.555 214.256 717.736 213.776C717.917 213.285 718.168 212.875 718.488 212.544C718.819 212.203 719.213 211.947 719.672 211.776C720.141 211.595 720.664 211.504 721.24 211.504ZM729.893 215.168L733.557 220.416H731.605L728.821 216.256L727.605 217.488V220.416H726.053V208.32H727.605V215.6L731.349 211.664H733.349L729.893 215.168ZM738.131 211.504C738.856 211.504 739.448 211.595 739.907 211.776C740.376 211.957 740.792 212.187 741.155 212.464L740.419 213.632C740.013 213.333 739.635 213.136 739.283 213.04C738.941 212.933 738.557 212.88 738.131 212.88C737.843 212.88 737.565 212.928 737.299 213.024C737.032 213.12 736.797 213.275 736.595 213.488C736.392 213.691 736.227 213.952 736.099 214.272C735.981 214.592 735.923 214.976 735.923 215.424V216.528C735.923 216.997 735.981 217.403 736.099 217.744C736.227 218.075 736.392 218.347 736.595 218.56C736.808 218.763 737.048 218.912 737.315 219.008C737.592 219.104 737.875 219.152 738.163 219.152C738.739 219.152 739.213 219.077 739.587 218.928C739.971 218.779 740.317 218.587 740.627 218.352L741.379 219.536C741.069 219.792 740.653 220.021 740.131 220.224C739.608 220.437 738.947 220.544 738.147 220.544C736.931 220.544 735.992 220.192 735.331 219.488C734.68 218.784 734.355 217.803 734.355 216.544V215.44C734.355 214.811 734.445 214.256 734.627 213.776C734.808 213.285 735.059 212.875 735.379 212.544C735.709 212.203 736.104 211.947 736.563 211.776C737.032 211.595 737.555 211.504 738.131 211.504ZM750.159 220.416H748.607V214.976C748.607 214.24 748.453 213.707 748.143 213.376C747.834 213.045 747.354 212.88 746.703 212.88C746.437 212.88 746.17 212.928 745.903 213.024C745.647 213.109 745.413 213.243 745.199 213.424C744.997 213.595 744.826 213.813 744.687 214.08C744.559 214.347 744.495 214.651 744.495 214.992V220.416H742.943V208.32H744.495V212.72C744.762 212.325 745.109 212.027 745.535 211.824C745.973 211.611 746.49 211.504 747.087 211.504C747.514 211.504 747.914 211.568 748.287 211.696C748.661 211.824 748.986 212.016 749.263 212.272C749.541 212.528 749.759 212.853 749.919 213.248C750.079 213.643 750.159 214.101 750.159 214.624V220.416ZM754.953 220.544C754.068 220.544 753.364 220.325 752.841 219.888C752.329 219.451 752.073 218.848 752.073 218.08V217.648C752.073 216.901 752.324 216.293 752.825 215.824C753.327 215.355 754.137 215.12 755.257 215.12H757.481V214.608C757.481 214.021 757.337 213.589 757.049 213.312C756.772 213.024 756.313 212.88 755.673 212.88C755.161 212.88 754.713 212.96 754.329 213.12C753.956 213.28 753.567 213.493 753.161 213.76L752.393 212.608C752.82 212.309 753.3 212.053 753.833 211.84C754.367 211.616 754.985 211.504 755.689 211.504C756.18 211.504 756.628 211.568 757.033 211.696C757.439 211.813 757.785 211.995 758.073 212.24C758.372 212.475 758.601 212.768 758.761 213.12C758.932 213.461 759.017 213.851 759.017 214.288V220.416H757.529V219.36H757.513C757.428 219.52 757.311 219.669 757.161 219.808C757.023 219.936 756.868 220.048 756.697 220.144C756.463 220.272 756.207 220.368 755.929 220.432C755.663 220.507 755.337 220.544 754.953 220.544ZM757.481 216.432H755.289C754.681 216.432 754.244 216.549 753.977 216.784C753.721 217.019 753.593 217.344 753.593 217.76V217.984C753.593 218.411 753.743 218.72 754.041 218.912C754.34 219.104 754.697 219.2 755.113 219.2C755.497 219.2 755.828 219.157 756.105 219.072C756.393 218.976 756.655 218.837 756.889 218.656C757.103 218.496 757.252 218.315 757.337 218.112C757.433 217.899 757.481 217.627 757.481 217.296V216.432ZM762.95 211.664V220.416H761.398V211.664H762.95ZM762.998 208.528V210.224H761.35V208.528H762.998ZM772.706 220.416H771.154V214.976C771.154 214.24 771 213.707 770.69 213.376C770.381 213.045 769.901 212.88 769.25 212.88C768.984 212.88 768.717 212.928 768.45 213.024C768.194 213.109 767.96 213.243 767.746 213.424C767.544 213.595 767.373 213.813 767.234 214.08C767.106 214.347 767.042 214.651 767.042 214.992V220.416H765.49V211.664H766.994V212.768H767.01C767.277 212.363 767.629 212.053 768.066 211.84C768.504 211.616 769.026 211.504 769.634 211.504C770.061 211.504 770.461 211.568 770.834 211.696C771.208 211.824 771.533 212.016 771.81 212.272C772.088 212.528 772.306 212.853 772.466 213.248C772.626 213.643 772.706 214.101 772.706 214.624V220.416ZM782.316 208.016C782.924 208.016 783.458 208.117 783.916 208.32C784.375 208.523 784.759 208.789 785.068 209.12C785.388 209.44 785.623 209.803 785.772 210.208C785.932 210.613 786.012 211.013 786.012 211.408V212.224C786.012 212.619 785.932 213.019 785.772 213.424C785.623 213.829 785.388 214.197 785.068 214.528C784.759 214.848 784.375 215.109 783.916 215.312C783.458 215.515 782.924 215.616 782.316 215.616C781.708 215.616 781.175 215.515 780.716 215.312C780.258 215.109 779.868 214.848 779.548 214.528C779.239 214.197 779.004 213.829 778.844 213.424C778.695 213.019 778.62 212.619 778.62 212.224V211.408C778.62 211.013 778.695 210.613 778.844 210.208C779.004 209.803 779.239 209.44 779.548 209.12C779.868 208.789 780.258 208.523 780.716 208.32C781.175 208.117 781.708 208.016 782.316 208.016ZM789.1 218.016V214.368H786.78V213.008H789.1V210.816H786.78V209.456H789.1V207.488H790.652V218.016H789.1ZM783.02 220.704H791.004V222.08H781.436V217.184H783.02V220.704ZM782.316 214.224C782.668 214.224 782.978 214.16 783.244 214.032C783.522 213.904 783.751 213.744 783.932 213.552C784.124 213.349 784.268 213.12 784.364 212.864C784.46 212.608 784.508 212.352 784.508 212.096V211.536C784.508 211.28 784.46 211.024 784.364 210.768C784.268 210.512 784.124 210.288 783.932 210.096C783.751 209.893 783.522 209.728 783.244 209.6C782.978 209.472 782.668 209.408 782.316 209.408C781.964 209.408 781.65 209.472 781.372 209.6C781.106 209.728 780.876 209.893 780.684 210.096C780.503 210.288 780.364 210.512 780.268 210.768C780.172 211.024 780.124 211.28 780.124 211.536V212.096C780.124 212.352 780.172 212.608 780.268 212.864C780.364 213.12 780.503 213.349 780.684 213.552C780.876 213.744 781.106 213.904 781.372 214.032C781.65 214.16 781.964 214.224 782.316 214.224ZM797.487 210.288H793.391V208.928H799.039V211.088H801.151V207.792H802.703V221.52H801.151V216.272H798.991V214.896H801.151V212.464H799.023C799.012 212.88 798.975 213.269 798.911 213.632C798.857 213.984 798.756 214.325 798.607 214.656C798.468 214.976 798.276 215.301 798.031 215.632C797.796 215.952 797.487 216.288 797.103 216.64C796.729 216.992 796.276 217.371 795.743 217.776C795.209 218.171 794.58 218.608 793.855 219.088L792.975 217.856C793.721 217.376 794.351 216.939 794.863 216.544C795.385 216.149 795.812 215.787 796.143 215.456C796.484 215.115 796.745 214.795 796.927 214.496C797.108 214.187 797.236 213.888 797.311 213.6C797.396 213.301 797.444 212.997 797.455 212.688C797.476 212.368 797.487 212.027 797.487 211.664V210.288ZM805.711 222.24H804.159V207.488H805.711V222.24Z" fill="white"/>
<path d="M0 120C0 114.477 4.47715 110 10 110H230C235.523 110 240 114.477 240 120V150C240 155.523 235.523 160 230 160H10C4.47716 160 0 155.523 0 150V120Z" fill="#00967B"/>
<path d="M71.1092 139.152C71.9305 139.152 72.5439 138.986 72.9492 138.656C73.3652 138.325 73.5732 137.93 73.5732 137.472V137.216C73.5732 136.96 73.5305 136.736 73.4452 136.544C73.3599 136.352 73.2159 136.181 73.0132 136.032C72.8105 135.882 72.5492 135.749 72.2292 135.632C71.9092 135.504 71.5145 135.392 71.0452 135.296C70.5012 135.178 69.9945 135.045 69.5252 134.896C69.0559 134.736 68.6505 134.538 68.3092 134.304C67.9679 134.058 67.6959 133.76 67.4932 133.408C67.3012 133.045 67.2052 132.602 67.2052 132.08V131.792C67.2052 131.397 67.2852 131.018 67.4452 130.656C67.6052 130.282 67.8505 129.952 68.1812 129.664C68.5119 129.376 68.9225 129.146 69.4132 128.976C69.9145 128.794 70.4959 128.704 71.1572 128.704C71.8612 128.704 72.5012 128.789 73.0772 128.96C73.6532 129.13 74.1865 129.381 74.6772 129.712L73.9252 130.944C73.4985 130.656 73.0665 130.448 72.6292 130.32C72.1919 130.192 71.7065 130.128 71.1732 130.128C70.4479 130.128 69.8665 130.288 69.4292 130.608C69.0025 130.928 68.7892 131.317 68.7892 131.776V132.032C68.7892 132.298 68.8479 132.528 68.9652 132.72C69.0825 132.901 69.2532 133.061 69.4772 133.2C69.7012 133.338 69.9785 133.461 70.3092 133.568C70.6399 133.664 71.0185 133.76 71.4452 133.856C72.1599 134.016 72.7519 134.202 73.2212 134.416C73.7012 134.618 74.0852 134.853 74.3732 135.12C74.6612 135.386 74.8639 135.685 74.9812 136.016C75.1092 136.346 75.1732 136.709 75.1732 137.104V137.392C75.1732 137.925 75.0665 138.389 74.8532 138.784C74.6505 139.178 74.3679 139.514 74.0052 139.792C73.6425 140.058 73.2052 140.256 72.6932 140.384C72.1919 140.522 71.6479 140.592 71.0612 140.592C70.2399 140.592 69.4825 140.458 68.7892 140.192C68.1065 139.936 67.5252 139.616 67.0452 139.232L67.8452 137.936C68.0585 138.096 68.3039 138.25 68.5812 138.4C68.8585 138.549 69.1412 138.682 69.4292 138.8C69.7172 138.906 70.0052 138.992 70.2932 139.056C70.5919 139.12 70.8639 139.152 71.1092 139.152ZM80.5366 132.832C80.2166 132.832 79.9179 132.89 79.6406 133.008C79.3739 133.114 79.1392 133.269 78.9366 133.472C78.7446 133.664 78.5899 133.904 78.4726 134.192C78.3659 134.469 78.3126 134.773 78.3126 135.104V135.328H82.6966V135.04C82.6966 134.368 82.5046 133.834 82.1206 133.44C81.7366 133.034 81.2086 132.832 80.5366 132.832ZM83.9926 139.584C83.6086 139.85 83.1499 140.074 82.6166 140.256C82.0832 140.448 81.4166 140.544 80.6166 140.544C80.0726 140.544 79.5659 140.464 79.0966 140.304C78.6379 140.154 78.2326 139.92 77.8806 139.6C77.5392 139.269 77.2672 138.848 77.0646 138.336C76.8726 137.824 76.7766 137.216 76.7766 136.512V135.52C76.7766 134.858 76.8672 134.277 77.0486 133.776C77.2406 133.274 77.5019 132.858 77.8326 132.528C78.1739 132.186 78.5739 131.93 79.0326 131.76C79.4912 131.589 79.9926 131.504 80.5366 131.504C81.6566 131.504 82.5472 131.845 83.2086 132.528C83.8699 133.21 84.2006 134.176 84.2006 135.424V136.592H78.3126V136.656C78.3126 137.488 78.5312 138.122 78.9686 138.56C79.4059 138.986 79.9766 139.2 80.6806 139.2C81.2566 139.2 81.7472 139.13 82.1526 138.992C82.5686 138.853 82.9632 138.661 83.3366 138.416L83.9926 139.584ZM98.2249 140.416H96.6729V135.168C96.6729 133.664 96.1236 132.912 95.0249 132.912C94.7796 132.912 94.5343 132.954 94.2889 133.04C94.0543 133.114 93.8409 133.237 93.6489 133.408C93.4569 133.568 93.2969 133.781 93.1689 134.048C93.0516 134.304 92.9929 134.608 92.9929 134.96V140.416H91.4409V135.168C91.4409 133.664 90.8916 132.912 89.7929 132.912C89.5476 132.912 89.3023 132.949 89.0569 133.024C88.8223 133.098 88.6089 133.216 88.4169 133.376C88.2249 133.536 88.0649 133.744 87.9369 134C87.8196 134.245 87.7609 134.538 87.7609 134.88V140.416H86.2089V131.664H87.7449V132.848H87.7609C87.9316 132.464 88.2089 132.144 88.5929 131.888C88.9876 131.632 89.4889 131.504 90.0969 131.504C90.6836 131.504 91.1903 131.632 91.6169 131.888C92.0543 132.133 92.3849 132.49 92.6089 132.96C92.8863 132.533 93.2329 132.186 93.6489 131.92C94.0756 131.642 94.6356 131.504 95.3289 131.504C96.2356 131.504 96.9449 131.781 97.4569 132.336C97.9689 132.88 98.2249 133.658 98.2249 134.672V140.416ZM103.032 140.544C102.146 140.544 101.442 140.325 100.92 139.888C100.408 139.45 100.152 138.848 100.152 138.08V137.648C100.152 136.901 100.402 136.293 100.904 135.824C101.405 135.354 102.216 135.12 103.336 135.12H105.56V134.608C105.56 134.021 105.416 133.589 105.128 133.312C104.85 133.024 104.392 132.88 103.752 132.88C103.24 132.88 102.792 132.96 102.408 133.12C102.034 133.28 101.645 133.493 101.24 133.76L100.472 132.608C100.898 132.309 101.378 132.053 101.912 131.84C102.445 131.616 103.064 131.504 103.768 131.504C104.258 131.504 104.706 131.568 105.112 131.696C105.517 131.813 105.864 131.994 106.152 132.24C106.45 132.474 106.68 132.768 106.84 133.12C107.01 133.461 107.096 133.85 107.096 134.288V140.416H105.608V139.36H105.592C105.506 139.52 105.389 139.669 105.24 139.808C105.101 139.936 104.946 140.048 104.776 140.144C104.541 140.272 104.285 140.368 104.008 140.432C103.741 140.506 103.416 140.544 103.032 140.544ZM105.56 136.432H103.368C102.76 136.432 102.322 136.549 102.056 136.784C101.8 137.018 101.672 137.344 101.672 137.76V137.984C101.672 138.41 101.821 138.72 102.12 138.912C102.418 139.104 102.776 139.2 103.192 139.2C103.576 139.2 103.906 139.157 104.184 139.072C104.472 138.976 104.733 138.837 104.968 138.656C105.181 138.496 105.33 138.314 105.416 138.112C105.512 137.898 105.56 137.626 105.56 137.296V136.432ZM116.644 140.416H115.092V134.976C115.092 134.24 114.937 133.706 114.628 133.376C114.318 133.045 113.838 132.88 113.188 132.88C112.921 132.88 112.654 132.928 112.388 133.024C112.132 133.109 111.897 133.242 111.684 133.424C111.481 133.594 111.31 133.813 111.172 134.08C111.044 134.346 110.98 134.65 110.98 134.992V140.416H109.428V131.664H110.932V132.768H110.948C111.214 132.362 111.566 132.053 112.004 131.84C112.441 131.616 112.964 131.504 113.572 131.504C113.998 131.504 114.398 131.568 114.772 131.696C115.145 131.824 115.47 132.016 115.748 132.272C116.025 132.528 116.244 132.853 116.404 133.248C116.564 133.642 116.644 134.101 116.644 134.624V140.416ZM119.55 132.992H118.11V131.664H119.55V129.456H121.102V131.664H123.406V132.992H121.102V137.968C121.102 138.234 121.128 138.453 121.182 138.624C121.235 138.784 121.31 138.906 121.406 138.992C121.512 139.077 121.635 139.136 121.774 139.168C121.912 139.2 122.062 139.216 122.222 139.216C122.606 139.216 122.99 139.146 123.374 139.008L123.614 140.256C123.432 140.33 123.192 140.394 122.894 140.448C122.595 140.512 122.291 140.544 121.982 140.544C121.15 140.544 120.536 140.336 120.142 139.92C119.747 139.504 119.55 138.853 119.55 137.968V132.992ZM126.825 131.664V140.416H125.273V131.664H126.825ZM126.873 128.528V130.224H125.225V128.528H126.873ZM132.693 131.504C133.419 131.504 134.011 131.594 134.469 131.776C134.939 131.957 135.355 132.186 135.717 132.464L134.981 133.632C134.576 133.333 134.197 133.136 133.845 133.04C133.504 132.933 133.12 132.88 132.693 132.88C132.405 132.88 132.128 132.928 131.861 133.024C131.595 133.12 131.36 133.274 131.157 133.488C130.955 133.69 130.789 133.952 130.661 134.272C130.544 134.592 130.485 134.976 130.485 135.424V136.528C130.485 136.997 130.544 137.402 130.661 137.744C130.789 138.074 130.955 138.346 131.157 138.56C131.371 138.762 131.611 138.912 131.877 139.008C132.155 139.104 132.437 139.152 132.725 139.152C133.301 139.152 133.776 139.077 134.149 138.928C134.533 138.778 134.88 138.586 135.189 138.352L135.941 139.536C135.632 139.792 135.216 140.021 134.693 140.224C134.171 140.437 133.509 140.544 132.709 140.544C131.493 140.544 130.555 140.192 129.893 139.488C129.243 138.784 128.917 137.802 128.917 136.544V135.44C128.917 134.81 129.008 134.256 129.189 133.776C129.371 133.285 129.621 132.874 129.941 132.544C130.272 132.202 130.667 131.946 131.125 131.776C131.595 131.594 132.117 131.504 132.693 131.504ZM155.41 128.88L152.226 140.416H150.642L148.082 130.992L145.474 140.416H143.858L140.706 128.88H142.37L144.738 138.304L147.314 128.88H148.85L151.426 138.304L153.826 128.88H155.41ZM159.927 132.832C159.607 132.832 159.309 132.89 159.031 133.008C158.765 133.114 158.53 133.269 158.327 133.472C158.135 133.664 157.981 133.904 157.863 134.192C157.757 134.469 157.703 134.773 157.703 135.104V135.328H162.087V135.04C162.087 134.368 161.895 133.834 161.511 133.44C161.127 133.034 160.599 132.832 159.927 132.832ZM163.383 139.584C162.999 139.85 162.541 140.074 162.007 140.256C161.474 140.448 160.807 140.544 160.007 140.544C159.463 140.544 158.957 140.464 158.487 140.304C158.029 140.154 157.623 139.92 157.271 139.6C156.93 139.269 156.658 138.848 156.455 138.336C156.263 137.824 156.167 137.216 156.167 136.512V135.52C156.167 134.858 156.258 134.277 156.439 133.776C156.631 133.274 156.893 132.858 157.223 132.528C157.565 132.186 157.965 131.93 158.423 131.76C158.882 131.589 159.383 131.504 159.927 131.504C161.047 131.504 161.938 131.845 162.599 132.528C163.261 133.21 163.591 134.176 163.591 135.424V136.592H157.703V136.656C157.703 137.488 157.922 138.122 158.359 138.56C158.797 138.986 159.367 139.2 160.071 139.2C160.647 139.2 161.138 139.13 161.543 138.992C161.959 138.853 162.354 138.661 162.727 138.416L163.383 139.584ZM167.152 132.672C167.429 132.234 167.792 131.93 168.24 131.76C168.698 131.589 169.168 131.504 169.648 131.504C170.757 131.504 171.605 131.829 172.192 132.48C172.778 133.12 173.072 134.037 173.072 135.232V136.784C173.072 137.381 172.986 137.914 172.816 138.384C172.645 138.842 172.405 139.232 172.096 139.552C171.797 139.872 171.434 140.117 171.008 140.288C170.581 140.458 170.112 140.544 169.6 140.544C168.938 140.544 168.41 140.426 168.016 140.192C167.621 139.968 167.328 139.701 167.136 139.392H167.104V140.416H165.6V128.32H167.152V132.672ZM167.136 137.296C167.136 137.52 167.189 137.749 167.296 137.984C167.413 138.208 167.573 138.41 167.776 138.592C167.989 138.762 168.234 138.906 168.512 139.024C168.789 139.13 169.098 139.184 169.44 139.184C170.101 139.184 170.613 138.954 170.976 138.496C171.349 138.037 171.536 137.392 171.536 136.56V135.488C171.536 134.656 171.349 134.01 170.976 133.552C170.602 133.093 170.09 132.864 169.44 132.864C169.12 132.864 168.821 132.917 168.544 133.024C168.266 133.13 168.021 133.28 167.808 133.472C167.605 133.664 167.44 133.898 167.312 134.176C167.194 134.442 167.136 134.746 167.136 135.088V137.296Z" fill="white"/>
<path d="M435 110L440.774 100H429.226L435 110ZM434 50V101H436V50H434Z" fill="#2C8DFF"/>
<path d="M750 190L755.774 180H744.226L750 190ZM749 160V181H751V160H749Z" fill="#2C8DFF"/>
<path d="M750 80H751V79H750V80ZM120 110L125.774 100H114.226L120 110ZM120 80V79H119V80H120ZM750 110L755.774 100H744.226L750 110ZM750 79H120V81H750V79ZM119 80V101H121V80H119ZM749 80V101H751V80H749Z" fill="#2C8DFF"/>
</svg>
